<?xml version="1.0" encoding="utf-8"?>
<!-- Generator: Adobe Illustrator 25.2.0, SVG Export Plug-In . SVG Version: 6.00 Build 0)  -->
<svg version="1.1" id="Layer_1" xmlns="http://www.w3.org/2000/svg" xmlns:xlink="http://www.w3.org/1999/xlink" x="0px" y="0px"
	 viewBox="0 0 314.5 314" style="enable-background:new 0 0 314.5 314;" xml:space="preserve">
<style type="text/css">
	.st0{fill:none;}
	.st1{fill:#231F20;}
</style>
<g id="Layer_2_1_">
	<g id="Layer_1-2">
		<g id="a3d891e3-d1a8-45d9-8bb4-c816c9df960b">
			<g id="aab71d7e-7bf8-4474-9c42-a9921f90853b">
				<line class="st0" x1="344.4" y1="-134.2" x2="658.9" y2="-134.2"/>
				<line class="st0" x1="658.9" y1="179.8" x2="344.4" y2="179.8"/>
			</g>
		</g>
	</g>
	<g id="mSkill">
		<g id="drain">
			
				<rect x="203.4" y="75.5" transform="matrix(0.7071 -0.7071 0.7071 0.7071 3.4965 172.3696)" class="st1" width="12.8" height="12.8"/>
			
				<rect x="205.8" y="195.3" transform="matrix(0.7071 -0.7071 0.7071 0.7071 -83.2182 215.8036)" class="st1" width="26.2" height="26.2"/>
			
				<rect x="212.5" y="139" transform="matrix(0.7071 -0.7071 0.7071 0.7071 -38.7298 197.3759)" class="st1" width="12.8" height="12.8"/>
			
				<rect x="153.5" y="67" transform="matrix(0.7071 -0.7071 0.7071 0.7071 -7.5282 140.5842)" class="st1" width="24.8" height="24.8"/>
			
				<rect x="114.9" y="53.3" transform="matrix(0.7071 -0.7071 0.7071 0.7071 -6.7073 103.2912)" class="st1" width="12.8" height="12.8"/>
		</g>
	</g>
	
		<rect x="245.6" y="102.1" transform="matrix(0.7071 -0.7071 0.7071 0.7071 -5.3498 215.9883)" class="st1" width="24.8" height="24.8"/>
	
		<rect x="230.6" y="39.3" transform="matrix(0.7071 -0.7071 0.7071 0.7071 37.128 180.9859)" class="st1" width="12.8" height="12.8"/>
	
		<rect x="281.1" y="57.4" transform="matrix(0.7071 -0.7071 0.7071 0.7071 39.0956 222.0249)" class="st1" width="12.8" height="12.8"/>
</g>
<polygon class="st1" points="62,189.7 57.1,197.9 8.2,217.5 8.2,312.5 86.2,312.5 113.4,261.4 173.4,250.4 174.7,227.1 150.5,223.7 
	161.1,200.1 205.5,170.7 193.1,152.2 180.3,158.6 193.5,144.8 172.3,123.8 168.4,126 146.7,112.5 111,151.4 122.2,123.5 102.9,117 
	"/>
<rect x="256.3" y="150.6" transform="matrix(0.7071 -0.7071 0.7071 0.7071 -34.0825 231.7176)" class="st1" width="12.8" height="12.8"/>
</svg>
