<svg xmlns="http://www.w3.org/2000/svg" viewBox="0 0 314.5 314"><defs><style>.cls-1{fill:none;}</style></defs><g id="Layer_2" data-name="Layer 2"><g id="Layer_1-2" data-name="Layer 1"><g id="a3d891e3-d1a8-45d9-8bb4-c816c9df960b"><g id="aab71d7e-7bf8-4474-9c42-a9921f90853b"><line class="cls-1" x2="314.5"/><line class="cls-1" x1="314.5" y1="314" y2="314"/></g></g></g><g id="mSkill"><g id="morph"><polygon points="230.23 91.36 200.84 120.75 200.84 162.32 230.23 191.72 271.8 191.72 301.19 162.32 301.19 120.75 271.8 91.36 230.23 91.36"/><polygon points="41.54 91.36 12.14 120.75 12.14 162.32 41.53 191.72 83.11 191.72 112.5 162.32 112.5 120.75 83.1 91.36 41.54 91.36"/><polygon points="222.24 204.32 219.93 202.01 190.54 172.62 186.27 168.35 186.27 162.32 186.27 120.75 186.27 114.72 190.54 110.45 218.07 82.92 156.68 46.96 95.28 82.94 122.8 110.45 127.06 114.72 127.06 120.75 127.06 162.32 127.06 168.35 122.8 172.62 93.4 202.01 91.15 204.27 119.77 232.85 108.28 244.34 138.77 274.82 138.77 251.83 138.77 251.82 174.29 251.82 174.52 251.82 174.52 274.59 204.76 244.34 193.46 233.03 222.24 204.32"/></g></g></g></svg>