<svg xmlns="http://www.w3.org/2000/svg" viewBox="0 0 314.5 314"><defs><style>.cls-1{fill:#5400e7;}</style></defs><g id="Layer_2" data-name="Layer 2"><g id="Layer_1-2" data-name="Layer 1"><g id="b5e31b63-280e-4f38-96cb-4ce3912872af"><g id="a7f2af64-ea2b-4d32-adbc-dcaa5fbad56d"><polyline class="cls-1" points="0 0 140.87 0 314.5 0"/><polyline class="cls-1" points="314.5 314 126.12 314 0 314"/></g></g></g><g id="Values"><g id="mDamage"><path d="M239.13,99.78l-24-24L157.25,17.89,99.37,75.77l-24,24-58,57.89.1.07,57.88,57.89,23.9,23.92,58,58v-.09l57.88-57.88,24-24,58-57.88Zm-81.8,156.66v.09h-.08L58.38,157.67h.1l98.77-98.88,98.87,98.88Z"/><polygon points="157.25 124.78 124.55 157.5 157.25 190.18 157.25 190.06 189.95 157.5 157.25 124.78"/><polygon points="60.21 195.04 60.23 254.68 60.34 254.57 119.86 254.69 60.21 195.04"/><polygon points="256.12 58.79 196.45 58.8 256.1 118.45 256.12 58.79"/><polygon points="119.86 58.79 60.23 58.8 60.34 58.91 60.21 118.44 119.86 58.79"/><polygon points="256.12 254.69 256.1 195.03 196.45 254.68 256.12 254.69"/></g></g></g></svg>