<svg xmlns="http://www.w3.org/2000/svg" viewBox="0 0 640 640"><defs><style>.cls-1{fill:none;}.cls-2{fill:#91c959;}</style></defs><g id="Layer_2" data-name="Layer 2"><g id="Layer_1-2" data-name="Layer 1"><line class="cls-1" x2="640"/><line class="cls-1" x1="640" y1="640" y2="640"/><polygon class="cls-2" points="592 400 576 416 576 432 592 432 608 432 608 416 592 400"/><polygon class="cls-2" points="416 224 432 240 448 224 432 224 416 224"/><polygon class="cls-2" points="400 240 416 256 432 240 416 240 400 240"/><polygon class="cls-2" points="400 144 384 144 368 144 352 160 336 160 320 160 304 176 320 192 336 176 352 176 368 176 384 160 400 160 400 144"/><polygon class="cls-2" points="320 288 336 304 352 288 336 288 320 288"/><polygon class="cls-2" points="320 432 304 432 288 416 288 432 288 448 304 464 304 480 304 496 320 480 336 464 320 448 320 432"/><polygon class="cls-2" points="304 368 320 352 320 336 320 320 304 320 288 320 288 336 288 352 272 368 256 384 272 384 288 384 304 368"/><polygon class="cls-2" points="112 496 96 496 80 496 96 512 112 512 128 512 144 496 128 480 112 496"/></g></g></svg>