<svg xmlns="http://www.w3.org/2000/svg" viewBox="0 0 640 640"><defs><style>.cls-1{fill:none;}.cls-2{fill:#c87855;}</style></defs><g id="Layer_2" data-name="Layer 2"><g id="Layer_1-2" data-name="Layer 1"><line class="cls-1" x2="640"/><line class="cls-1" x1="640" y1="640" y2="640"/><polygon class="cls-2" points="592 528 576 528 560 528 544 512 528 512 512 512 512 496 512 480 496 496 496 512 496 528 512 528 528 528 544 544 560 544 576 544 592 544 608 544 592 528"/><rect class="cls-2" x="576" y="208" width="16" height="16"/><rect class="cls-2" x="548.69" y="116.69" width="22.63" height="22.63" transform="translate(73.51 433.47) rotate(-45)"/><polygon class="cls-2" points="512 32 496 16 480 16 480 32 496 48 512 32"/><polygon class="cls-2" points="512 160 496 160 480 160 464 144 448 128 432 144 416 160 432 160 432 176 448 160 464 176 448 176 432 176 448 192 464 192 480 192 496 176 512 160"/><polygon class="cls-2" points="432 112 416 112 400 112 416 128 432 112"/><polygon class="cls-2" points="368 512 352 512 336 528 352 544 368 528 384 528 400 528 384 512 368 512"/><polygon class="cls-2" points="288 128 304 144 320 128 304 128 288 128"/><path class="cls-2" d="M272,432l-16-16-16-16V368l16-16H224l-16-16-16-16-16-16V272l16-16H112v48l16,16h32l16,16H160v16l16,16,16,16-16,16v32l16,16V416l16-16,16,16,16,16,16,16H192l16,16h32l16,16h32l16-16-16-16ZM144,272l16,16H128Z"/><polygon class="cls-2" points="192 192 208 192 224 192 224 176 224 160 240 144 224 144 208 144 224 128 240 144 256 128 256 112 240 112 224 96 208 96 192 96 176 80 176 64 160 64 144 80 160 96 176 112 160 128 144 144 128 144 112 144 128 160 144 160 160 160 176 160 176 176 192 192"/><polygon class="cls-2" points="144 176 128 176 112 176 112 192 128 192 144 192 160 192 176 176 160 176 144 176"/><polygon class="cls-2" points="160 352 144 336 128 336 128 352 144 352 160 352"/><polygon class="cls-2" points="144 368 128 368 128 352 112 336 96 352 96 368 96 384 112 384 128 384 144 400 160 400 176 400 160 384 144 368"/><polygon class="cls-2" points="96 176 112 176 96 160 96 176"/><polygon class="cls-2" points="96 112 96 96 80 112 96 128 96 112"/></g></g></svg>