<svg xmlns="http://www.w3.org/2000/svg" viewBox="0 0 640 640"><defs><style>.cls-1{fill:none;}.cls-2{fill:#e68c65;}</style></defs><g id="Layer_2" data-name="Layer 2"><g id="Layer_1-2" data-name="Layer 1"><line class="cls-1" x2="640"/><line class="cls-1" x1="640" y1="640" y2="640"/><polygon class="cls-2" points="560 464 544 464 528 464 512 464 512 480 512 496 528 496 544 496 560 496 576 480 560 464"/><polygon class="cls-2" points="416 64 400 48 384 32 368 32 352 32 352 48 352 64 368 80 384 96 400 96 416 96 432 96 448 96 432 80 416 64"/><polygon class="cls-2" points="352 608 336 592 320 576 304 576 288 576 304 592 304 608 304 624 288 624 272 624 288 640 304 640 320 640 336 640 352 640 368 640 384 640 368 624 352 608"/><polygon class="cls-2" points="304 112 320 112 336 112 352 112 368 112 352 96 352 80 336 80 320 96 304 112"/><polygon class="cls-2" points="256 64 272 64 288 64 304 80 320 64 304 48 288 32 272 32 256 32 240 16 224 16 208 16 192 16 176 16 192 32 208 48 224 48 240 48 224 64 240 80 256 80 272 80 256 64"/><polygon class="cls-2" points="224 96 240 80 224 80 224 96"/><polygon class="cls-2" points="208 400 208 416 208 432 224 432 240 432 224 416 208 400"/><polygon class="cls-2" points="128 64 112 64 96 64 96 80 96 96 112 112 128 128 144 112 160 96 144 80 128 64"/></g></g></svg>