<svg xmlns="http://www.w3.org/2000/svg" viewBox="0 0 640 640"><defs><style>.cls-1{fill:none;}.cls-2{fill:#aa6341;}</style></defs><g id="Layer_2" data-name="Layer 2"><g id="Layer_1-2" data-name="Layer 1"><line class="cls-1" x2="640"/><line class="cls-1" x1="640" y1="640" y2="640"/><polygon class="cls-2" points="560 560 544 576 560 576 576 576 592 576 592 560 576 560 560 560"/><polygon class="cls-2" points="560 272 576 272 592 272 576 256 560 240 544 240 528 240 512 224 528 208 544 192 560 176 544 176 528 176 512 176 512 192 496 208 480 224 496 240 512 256 528 272 544 272 560 272"/><polygon class="cls-2" points="496 64 496 48 480 48 464 48 448 64 464 64 480 64 496 64"/><polygon class="cls-2" points="400 240 384 240 368 240 384 256 368 256 352 256 368 272 384 288 400 272 416 272 432 272 416 256 400 240"/><polygon class="cls-2" points="368 544 368 560 384 560 400 560 384 544 368 544"/><polygon class="cls-2" points="320 384 336 384 352 384 336 368 320 384"/><polygon class="cls-2" points="304 288 288 288 288 304 304 304 320 288 304 288"/><polygon class="cls-2" points="304 240 320 256 336 240 352 224 336 208 320 208 304 208 288 208 272 208 288 224 304 240"/><polygon class="cls-2" points="256 576 240 576 224 576 208 576 192 576 208 592 224 608 240 624 224 624 224 640 240 640 256 640 272 624 288 624 288 608 272 592 256 576"/><polygon class="cls-2" points="240 304 256 320 272 320 272 304 272 288 256 288 240 304"/><polygon class="cls-2" points="256 192 256 176 256 160 240 176 224 192 240 192 256 192"/><polygon class="cls-2" points="224 512 240 512 256 512 272 496 256 496 240 496 224 480 208 480 192 480 208 496 224 512"/><polygon class="cls-2" points="224 272 208 272 224 288 224 272"/><polygon class="cls-2" points="128 576 128 592 144 592 160 576 144 576 128 576"/><polygon class="cls-2" points="128 416 144 432 160 416 144 416 128 416"/><polygon class="cls-2" points="144 224 144 208 128 208 112 208 128 224 144 224"/><polygon class="cls-2" points="128 0 112 0 96 0 112 16 128 0"/><polygon class="cls-2" points="96 416 112 416 128 416 112 400 96 416"/><polygon class="cls-2" points="96 192 96 208 112 208 96 192"/><polygon class="cls-2" points="80 176 80 160 80 144 64 160 80 176"/><polygon class="cls-2" points="48 240 64 240 80 240 64 224 48 240"/><polygon class="cls-2" points="48 304 64 288 48 288 32 288 16 304 32 320 48 336 64 336 80 336 64 320 48 304"/><polygon class="cls-2" points="0 464 0 480 16 480 32 480 16 464 0 464"/></g></g></svg>