<svg xmlns="http://www.w3.org/2000/svg" viewBox="0 0 640 640"><defs><style>.cls-1{fill:none;}.cls-2{fill:#7f4223;}</style></defs><g id="Layer_2" data-name="Layer 2"><g id="Layer_1-2" data-name="Layer 1"><line class="cls-1" x2="640"/><line class="cls-1" x1="640" y1="640" y2="640"/><polygon class="cls-2" points="624 592 608 608 592 624 576 640 592 640 608 640 624 640 640 640 640 624 640 608 640 592 640 576 624 592"/><polygon class="cls-2" points="592 496 608 496 624 496 608 480 592 496"/><polygon class="cls-2" points="592 224 576 224 576 240 592 240 608 240 608 224 592 208 592 224"/><polygon class="cls-2" points="576 192 592 192 608 192 592 176 576 192"/><polygon class="cls-2" points="592 592 592 576 576 576 560 576 544 576 560 560 576 560 592 560 592 576 608 576 608 560 608 544 592 544 576 544 560 544 544 544 528 528 512 528 496 528 480 544 464 560 448 576 464 576 480 576 496 560 512 560 512 544 528 560 528 576 528 592 544 592 560 592 576 592 592 592"/><polygon class="cls-2" points="560 144 544 128 544 144 544 160 560 160 576 160 592 160 592 144 576 128 560 144"/><polygon class="cls-2" points="576 32 560 16 544 32 560 32 576 32"/><polygon class="cls-2" points="544 192 528 208 512 224 528 240 544 224 560 208 576 192 560 176 544 192"/><polygon class="cls-2" points="544 496 528 496 512 496 512 512 528 512 544 512 560 528 576 528 576 512 576 496 576 480 560 496 544 496"/><polygon class="cls-2" points="528 624 544 624 560 624 544 608 528 624"/><polygon class="cls-2" points="512 128 496 144 512 144 528 144 512 128"/><polygon class="cls-2" points="480 64 464 64 448 64 448 80 464 80 480 80 496 80 512 80 512 64 528 64 544 64 528 48 512 32 496 48 496 64 480 64"/><polygon class="cls-2" points="480 256 496 272 512 288 528 288 544 288 560 288 576 288 592 288 608 288 592 272 576 272 560 272 544 272 528 272 512 256 496 240 480 224 480 240 480 256"/><polygon class="cls-2" points="480 48 496 48 480 32 480 48"/><polygon class="cls-2" points="448 608 464 608 480 608 464 592 448 608"/><polygon class="cls-2" points="464 48 448 32 432 48 448 48 464 48"/><polygon class="cls-2" points="464 176 448 160 432 176 448 176 464 176"/><polygon class="cls-2" points="432 272 416 272 400 272 384 288 368 272 352 256 352 272 352 288 368 304 384 304 400 304 416 288 432 288 448 288 432 272"/><polygon class="cls-2" points="400 240 416 240 432 240 416 224 400 240"/><polygon class="cls-2" points="384 352 400 352 416 352 400 336 384 352"/><polygon class="cls-2" points="384 560 368 560 368 544 384 544 400 560 400 544 400 528 384 528 368 528 352 544 336 528 336 544 336 560 352 576 368 576 384 576 400 576 416 576 400 560 384 560"/><polygon class="cls-2" points="368 256 384 256 368 240 368 256"/><polygon class="cls-2" points="352 400 368 400 352 384 336 384 320 384 320 400 336 400 352 400"/><polygon class="cls-2" points="320 320 336 304 320 288 304 304 288 304 288 320 304 320 320 320"/><polygon class="cls-2" points="288 544 304 544 320 544 304 528 288 544"/><path class="cls-2" d="M304,480V464l-16,16H256l-16-16H208l-16-16-16-16V400H144l-16-16H96v32l16-16,16,16h32l-16,16-16-16H96L80,432h32l16,16h32l16,16v32h16v16l16,16,16,16h32l16-16,16-16h32l-16-16Zm-48,32H224l-16-16-16-16h32l16,16h32Z"/><polygon class="cls-2" points="304 256 320 256 304 240 288 224 272 208 272 224 272 240 272 256 288 256 304 256"/><path class="cls-2" d="M288,112v16h64l16,16h32v32l16,16h16v16l16,16,16-16,16,16,16-16,16-16V160l-16,16-16,16H448l-16-16V160H416l16-16,16-16V96H384L368,80,352,64V96l16,16H304l16-16V64L304,80,288,64H256l16,16,16,16Zm128,0h16l-16,16-16-16Z"/><polygon class="cls-2" points="288 128 288 144 288 160 304 176 320 160 320 144 320 128 304 144 288 128"/><polygon class="cls-2" points="272 592 288 608 288 624 304 624 304 608 304 592 288 576 272 592"/><polygon class="cls-2" points="256 640 272 640 288 640 272 624 256 640"/><polygon class="cls-2" points="272 336 272 320 256 320 240 304 224 320 224 336 240 336 256 336 272 336"/><polygon class="cls-2" points="256 160 256 176 256 192 272 176 272 160 272 144 272 128 272 112 272 96 272 80 256 80 240 80 224 96 240 112 256 112 256 128 240 144 224 160 224 176 224 192 240 176 256 160"/><polygon class="cls-2" points="240 384 240 400 256 416 256 400 256 384 256 368 256 352 240 368 240 384"/><polygon class="cls-2" points="240 80 224 64 240 48 224 48 208 48 192 32 176 16 176 32 176 48 176 64 176 80 192 96 208 96 224 96 224 80 240 80"/><polygon class="cls-2" points="208 144 224 144 240 144 224 128 208 144"/><polygon class="cls-2" points="208 272 192 256 176 272 176 288 176 304 192 320 192 304 192 288 208 304 224 304 240 304 224 288 208 272"/><polygon class="cls-2" points="224 448 240 448 256 448 240 432 224 432 208 432 208 416 208 400 192 416 192 432 192 448 208 448 224 448"/><polygon class="cls-2" points="208 592 192 576 192 592 192 608 208 624 208 640 224 640 224 624 240 624 224 608 208 592"/><polygon class="cls-2" points="176 368 160 352 144 352 128 352 128 368 144 368 160 384 176 400 192 384 176 368"/><polygon class="cls-2" points="128 288 144 288 160 288 144 272 128 288"/><polygon class="cls-2" points="128 592 128 576 112 592 128 608 144 608 160 608 160 592 160 576 144 592 128 592"/><polygon class="cls-2" points="144 336 160 352 160 336 176 336 160 320 144 320 128 320 112 304 112 320 112 336 128 352 128 336 144 336"/><polygon class="cls-2" points="112 272 96 256 80 272 96 272 112 272"/><polygon class="cls-2" points="96 32 112 32 128 32 144 32 144 16 160 0 144 0 128 0 112 16 96 0 80 0 64 0 80 16 96 32"/><polygon class="cls-2" points="96 320 80 304 64 320 80 320 96 320"/><polygon class="cls-2" points="64 544 80 544 96 544 80 528 64 544"/><path class="cls-2" d="M80,208l16,16,16,16h32l16-16,16-16,16,16h32l16-16h16V192H192l-16-16-16,16H112V176H96V160l16,16h64V160H128l-16-16h32l16-16,16-16L160,96l-16,16-16,16-16-16L96,96v32L80,112v64L64,160v32L48,208H80Zm32,0h32v16H128l-16-16H96V192Z"/><polygon class="cls-2" points="64 288 48 304 64 320 64 304 64 288"/><polygon class="cls-2" points="64 256 80 256 80 240 64 240 48 240 32 256 48 256 64 256"/><polygon class="cls-2" points="32 576 48 576 64 576 48 560 32 576"/><polygon class="cls-2" points="32 352 48 352 64 352 80 352 80 336 64 336 48 336 32 320 16 304 16 320 16 336 32 336 32 352"/><polygon class="cls-2" points="48 528 32 512 16 528 32 528 48 528"/><polygon class="cls-2" points="32 496 48 496 32 480 16 480 0 480 0 496 16 496 32 496"/></g></g></svg>