<svg xmlns="http://www.w3.org/2000/svg" viewBox="0 0 640 640"><defs><style>.cls-1{fill:none;}.cls-2{fill:#e8d998;}</style></defs><g id="Layer_2" data-name="Layer 2"><g id="Layer_1-2" data-name="Layer 1"><line class="cls-1" x2="640"/><line class="cls-1" x1="640" y1="640" y2="640"/><polygon class="cls-2" points="592 144 592 160 608 160 592 144"/><polygon class="cls-2" points="576 288 560 288 544 288 528 288 512 288 496 272 480 256 480 272 480 288 496 304 512 304 528 304 544 304 560 304 576 304 592 304 608 288 592 288 576 288"/><polygon class="cls-2" points="576 432 576 416 560 432 560 448 576 448 592 448 608 448 608 432 592 432 576 432"/><polygon class="cls-2" points="528 240 544 240 560 240 544 224 528 240"/><polygon class="cls-2" points="496 576 480 576 464 576 448 576 464 592 480 608 496 608 512 608 528 592 528 576 512 576 496 576"/><polygon class="cls-2" points="480 224 464 224 448 224 432 240 448 240 464 240 480 256 480 240 480 224"/><polygon class="cls-2" points="464 80 480 96 496 96 512 96 528 80 544 64 528 64 512 64 512 80 496 80 480 80 464 80"/><polygon class="cls-2" points="480 48 480 32 464 32 448 32 464 48 480 48"/><polygon class="cls-2" points="432 288 416 288 400 304 416 304 432 304 448 288 432 288"/><polygon class="cls-2" points="400 416 384 416 400 432 400 448 400 464 384 464 368 464 352 448 336 432 320 432 320 448 336 464 320 480 304 496 320 512 336 528 352 512 368 512 384 512 400 496 416 480 432 464 432 448 432 432 416 416 400 416"/><rect class="cls-2" x="368" y="432" width="16" height="16"/><polygon class="cls-2" points="320 416 336 416 352 416 352 400 336 400 320 400 320 384 336 368 336 352 336 336 352 320 368 304 352 288 336 304 320 320 320 336 320 352 304 368 288 384 272 384 256 384 256 400 272 400 288 400 304 400 320 416"/><polygon class="cls-2" points="192 240 192 256 208 272 208 256 208 240 208 224 192 224 192 240"/><polygon class="cls-2" points="192 512 192 496 176 496 192 512"/><polygon class="cls-2" points="160 224 176 224 192 224 176 208 160 224"/><polygon class="cls-2" points="160 512 144 496 128 512 112 512 96 512 112 528 128 544 144 544 160 544 176 544 192 544 176 528 160 512"/><polygon class="cls-2" points="160 464 176 464 160 448 144 448 128 448 144 464 160 464"/><polygon class="cls-2" points="128 576 144 576 160 576 160 560 144 560 128 576"/><polygon class="cls-2" points="112 608 128 608 112 592 112 608"/><polygon class="cls-2" points="64 496 64 480 48 480 32 480 48 496 64 512 80 512 96 512 80 496 64 496"/><polygon class="cls-2" points="64 384 80 368 80 352 64 352 48 352 32 352 48 368 64 384"/><polygon class="cls-2" points="32 528 16 528 32 544 48 544 64 544 48 528 32 528"/><polygon class="cls-2" points="48 272 64 272 80 272 96 256 80 256 64 256 48 256 32 256 16 272 32 272 48 272"/><polygon class="cls-2" points="32 336 16 336 32 352 32 336"/></g></g></svg>