<svg xmlns="http://www.w3.org/2000/svg" viewBox="0 0 640 640"><defs><style>.cls-1{fill:none;}.cls-2{fill:#2f5126;}</style></defs><g id="Layer_2" data-name="Layer 2"><g id="Layer_1-2" data-name="Layer 1"><line class="cls-1" x2="640"/><line class="cls-1" x1="640" y1="640" y2="640"/><polygon class="cls-2" points="416 192 400 192 384 192 368 192 352 192 336 208 352 224 336 240 320 256 304 256 288 256 272 256 272 240 272 224 272 208 288 208 304 208 288 192 272 176 256 192 256 208 240 208 224 224 208 224 208 240 208 256 208 272 224 272 224 288 240 304 256 288 272 288 272 304 272 320 272 336 256 336 240 336 224 336 224 320 240 304 224 304 208 304 192 320 208 336 224 352 240 352 256 352 256 368 256 384 272 368 288 352 288 336 288 320 288 304 288 288 304 288 320 288 336 272 352 256 368 256 368 240 384 240 400 240 416 224 432 208 432 192 416 192"/><polygon class="cls-2" points="352 160 368 144 352 128 336 128 320 128 320 144 320 160 336 160 352 160"/><polygon class="cls-2" points="256 416 272 432 288 448 288 432 288 416 272 416 256 416"/><polygon class="cls-2" points="96 448 80 448 64 448 48 464 64 480 80 480 96 480 112 480 128 480 112 464 96 448"/></g></g></svg>