<svg xmlns="http://www.w3.org/2000/svg" viewBox="0 0 640 640"><defs><style>.cls-1{fill:#4db8e8;}</style></defs><g id="Layer_2" data-name="Layer 2"><g id="Layer_1-2" data-name="Layer 1"><path class="cls-1" d="M624,0H448L432,16H336L320,32,304,16,288,0H160L144,16V32H96L80,16,64,0H32L48,16,64,32V96L48,112,32,128v96L16,240,0,256v96l16,16,16,16,16,16v32H16L0,448v16H16l16,16H64L48,464l16-16H96l16,16,16,16,16,16,16,16,16,16,16,16H128l-16-16L96,512H64L48,496H0V640l16-16,16-16,16-16H80l16,16,16,16h32l16,16h48V624l-16-16V576h64l16,16,16-16h32l16,16,16,16,16,16,16,16h32l-16-16-16-16V592h48l16,16,16-16-16-16,16-16,16-16,16-16V496l16-16V464h48l16,16v48h16l16,16v32H592v16H528l-16,16H448l16,16h64l16-16,16,16,16,16,16-16,16-16,16-16,16-16V0ZM592,160H544V128l16-16,16,16,16,16,16,16Zm-80-16H496l16-16,16,16ZM576,32H544l16-16ZM464,32h16V16h16l16,16,16,16,16,16L528,80,512,96H480L464,80H448V64l16-16H432l16-16ZM48,368,32,352,16,336V304l16-16H64v32l16-16,16,16H64l16,16v32L64,384ZM32,512l16,16,16,16,16-16,16,16H32L16,528Zm16,64H32l16-16,16,16Zm96,32H112V592l16-16,16-16h16v48Zm160-80,16,16H288Zm256-80V432l16-16,16-16,16,16v32H560Zm48,48H592l16-16,16,16Zm16-144v16l-16,16H576l-16,16-16,16-16,16-16,16-16,16-16,16v32l-16,16-16,16-16,16-16-16V512l16-16,16-16,16-16V400l16-16,16-16-16-16H448l-16,16-16,16H352l16,16H352v16H320l-16-16H256v16h32l16,16h32l16,16,16,16h32V432l-16-16h32l16,16v32l-16,16-16,16-16,16,16,16v32l16,16H352l-16-16V528l-16-16H288l-16,16-16,16H224l-16-16-16-16-16-16V464H144l-16-16-16-16H80l16-16V352l16-16V272H16l16-16,16-16,16-16,16,16v16H96l16,16V256h80V224H160l-16,16H112L96,224,80,208H48l16-16V160l16-16V112L96,96V64h32l16,16,16-16h16V16h64l16,16h32l16,16,16,16V96l16-16h16V32h32l16,16,16,16,16,16,16,16v32l16,16,16,16h32v16h48l16,16,16-16,16,16H576l-16,16-16,16,16,16,16,16,16,16,16,16-16,16H496l-16-16V256l-16-16H432l-16,16,16,16,16,16-16,16H368l-16,16-16,16v32l16,16V352l16-16,16-16h64l16-16,16,16,16,16h64l16-16h32l16,16ZM384,432v16H368V432ZM608,240H576V208h16l16,16Z"/><polygon class="cls-1" points="352 192 368 192 384 192 400 192 416 192 400 176 400 160 384 160 368 176 352 176 336 176 320 192 304 176 288 160 288 144 288 128 288 112 272 112 272 128 272 144 272 160 272 176 288 192 304 208 320 208 336 208 352 192"/></g></g></svg>