<svg xmlns="http://www.w3.org/2000/svg" viewBox="0 0 640 640"><defs><style>.cls-1{fill:none;}.cls-2{fill:#3da1d2;}</style></defs><g id="Layer_2" data-name="Layer 2"><g id="Layer_1-2" data-name="Layer 1"><line class="cls-1" x2="640"/><line class="cls-1" x1="640" y1="640" y2="640"/><path class="cls-2" d="M608,320H576l-16,16H496l-16-16-16-16-16,16H384l-16,16-16,16v32h64l16-16,16-16h32l16,16-16,16-16,16v64l-16,16-16,16-16,16v32l16,16,16-16,16-16,16-16V480l16-16,16-16,16-16,16-16,16-16,16-16h32l16-16V336ZM400,352H384l16-16,16,16Z"/><polygon class="cls-2" points="544 624 528 624 512 624 496 624 480 624 464 624 448 608 432 592 416 592 400 592 384 592 384 608 400 624 416 640 432 640 448 640 464 640 480 640 496 640 512 640 528 640 544 640 560 640 576 640 560 624 544 624"/><polygon class="cls-2" points="368 16 384 16 400 16 416 16 432 16 448 0 432 0 416 0 400 0 384 0 368 0 352 0 336 0 320 0 304 0 288 0 304 16 320 32 336 16 352 16 368 16"/><polygon class="cls-2" points="128 624 112 624 96 608 80 592 64 592 48 592 32 608 16 624 0 640 16 640 32 640 48 640 64 640 80 640 96 640 112 640 128 640 144 640 160 640 144 624 128 624"/><polygon class="cls-2" points="32 432 48 432 48 416 48 400 32 384 16 368 0 352 0 368 0 384 0 400 0 416 0 432 0 448 16 432 32 432"/><polygon class="cls-2" points="32 224 32 208 32 192 32 176 32 160 32 144 32 128 48 112 64 96 64 80 64 64 64 48 64 32 48 16 32 0 16 0 0 0 0 16 0 32 0 48 0 64 0 80 0 96 0 112 0 128 0 144 0 160 0 176 0 192 0 208 0 224 0 240 0 256 16 240 32 224"/></g></g></svg>