<svg id="Layer_1" data-name="Layer 1" xmlns="http://www.w3.org/2000/svg" viewBox="0 0 32 32"><polygon points="24 22.4 23.2 22.4 24 23.2 24.8 22.4 24 22.4" fill="#6b4f1f"/><polygon points="20.8 25.6 20.8 26.4 21.6 26.4 21.6 25.6 21.6 24.8 20.8 24.8 20.8 25.6" fill="#6b4f1f"/><polygon points="20.8 23.2 20 24 20.8 24.8 20.8 24 20.8 23.2" fill="#6b4f1f"/><polygon points="20 26.4 20 25.6 19.2 26.4 20 26.4" fill="#6b4f1f"/><polygon points="20 14.4 19.2 14.4 18.4 14.4 19.2 15.2 20 14.4" fill="#6b4f1f"/><polygon points="16.8 28.8 16.8 29.6 16.8 30.4 17.6 30.4 18.4 30.4 18.4 29.6 18.4 28.8 18.4 28 17.6 28 16.8 28.8" fill="#6b4f1f"/><polygon points="16 24 15.2 24 16 24.8 16.8 24 16 24" fill="#6b4f1f"/><polygon points="13.6 28 13.6 28.8 13.6 29.6 13.6 30.4 14.4 30.4 15.2 30.4 15.2 29.6 15.2 28.8 14.4 28 13.6 28" fill="#6b4f1f"/><polygon points="12.8 14.4 12 14.4 12.8 15.2 13.6 14.4 12.8 14.4" fill="#6b4f1f"/><polygon points="12 26.4 12.8 26.4 12 25.6 12 26.4" fill="#6b4f1f"/><polygon points="11.2 23.2 11.2 24 11.2 24.8 12 24 11.2 23.2" fill="#6b4f1f"/><polygon points="10.4 25.6 10.4 26.4 11.2 26.4 11.2 25.6 11.2 24.8 10.4 24.8 10.4 25.6" fill="#6b4f1f"/><polygon points="7.2 22.4 8 23.2 8.8 22.4 8 22.4 7.2 22.4" fill="#6b4f1f"/><line x2="32" fill="#fff"/><line x1="32" y1="32" y2="32" fill="#fff"/></svg>