<svg viewBox="0 0 32 32" xmlns="http://www.w3.org/2000/svg"><g fill="#6b4f1f"><path d="m24 22.4h-.8l.8.8.8-.8z"/><path d="m20.8 25.6v.8h.8v-.8-.8h-.8z"/><path d="m20.8 23.2-.8.8.8.8v-.8z"/><path d="m20 26.4v-.8l-.8.8z"/><path d="m20 14.4h-.8-.8l.8.8z"/><path d="m16.8 28.8v.8.8h.8.8v-.8-.8-.8h-.8z"/><path d="m16 24h-.8l.8.8.8-.8z"/><path d="m13.6 28v.8.8.8h.8.8v-.8-.8l-.8-.8z"/><path d="m12.8 14.4h-.8l.8.8.8-.8z"/><path d="m12 26.4h.8l-.8-.8z"/><path d="m11.2 23.2v.8.8l.8-.8z"/><path d="m10.4 25.6v.8h.8v-.8-.8h-.8z"/><path d="m7.2 22.4.8.8.8-.8h-.8z"/></g><path d="m0 0h32" fill="#fff"/><path d="m32 32h-32" fill="#fff"/></svg>