<svg id="Layer_1" data-name="Layer 1" xmlns="http://www.w3.org/2000/svg" viewBox="0 0 32 32"><polygon points="24 18.4 23.2 18.4 24 19.2 24.8 18.4 24 18.4" fill="#6b4f1f"/><polygon points="20.8 21.6 20.8 22.4 21.6 22.4 21.6 21.6 21.6 20.8 20.8 20.8 20.8 21.6" fill="#6b4f1f"/><polygon points="20.8 19.2 20 20 20.8 20.8 20.8 20 20.8 19.2" fill="#6b4f1f"/><polygon points="20 22.4 20 21.6 19.2 22.4 20 22.4" fill="#6b4f1f"/><polygon points="20 10.4 19.2 10.4 18.4 10.4 19.2 11.2 20 10.4" fill="#6b4f1f"/><polygon points="16.8 24.8 16.8 25.6 16.8 26.4 17.6 26.4 18.4 26.4 18.4 25.6 18.4 24.8 18.4 24 17.6 24 16.8 24.8" fill="#6b4f1f"/><polygon points="16 20 15.2 20 16 20.8 16.8 20 16 20" fill="#6b4f1f"/><polygon points="13.6 24 13.6 24.8 13.6 25.6 13.6 26.4 14.4 26.4 15.2 26.4 15.2 25.6 15.2 24.8 14.4 24 13.6 24" fill="#6b4f1f"/><polygon points="12.8 10.4 12 10.4 12.8 11.2 13.6 10.4 12.8 10.4" fill="#6b4f1f"/><polygon points="12 22.4 12.8 22.4 12 21.6 12 22.4" fill="#6b4f1f"/><polygon points="11.2 19.2 11.2 20 11.2 20.8 12 20 11.2 19.2" fill="#6b4f1f"/><polygon points="10.4 21.6 10.4 22.4 11.2 22.4 11.2 21.6 11.2 20.8 10.4 20.8 10.4 21.6" fill="#6b4f1f"/><polygon points="7.2 18.4 8 19.2 8.8 18.4 8 18.4 7.2 18.4" fill="#6b4f1f"/><line x2="32" fill="#fff"/><line x1="32" y1="32" y2="32" fill="#fff"/></svg>