<svg id="Layer_1" data-name="Layer 1" xmlns="http://www.w3.org/2000/svg" viewBox="0 0 32 32"><polygon points="24.8 24.8 24 24.8 23.2 24.8 22.4 24.8 21.6 24.8 21.6 25.6 21.6 26.4 22.4 26.4 23.2 27.2 24 28 24.8 28.8 25.6 28 25.6 27.2 25.6 26.4 24.8 27.2 24 26.4 24.8 25.6 25.6 26.4 25.6 25.6 25.6 24.8 24.8 24.8" fill="#9e7a2c"/><polygon points="22.4 23.2 23.2 22.4 24 22.4 24.8 22.4 24.8 21.6 24 21.6 23.2 20.8 22.4 21.6 21.6 22.4 20.8 23.2 20.8 24 20.8 24.8 21.6 24 22.4 23.2" fill="#9e7a2c"/><polygon points="19.2 24 18.4 24 17.6 24 16.8 24 16 24.8 15.2 24 14.4 24 13.6 24 12.8 24 12 24 11.2 24.8 12 25.6 12.8 26.4 13.6 26.4 14.4 26.4 15.2 26.4 16 26.4 16.8 26.4 17.6 26.4 18.4 26.4 19.2 26.4 20 25.6 20.8 24.8 20 24 19.2 24" fill="#9e7a2c"/><polygon points="18.4 28 18.4 28.8 18.4 29.6 18.4 30.4 19.2 30.4 20 30.4 20 29.6 20 28.8 20 28 19.2 28 18.4 28" fill="#9e7a2c"/><polygon points="16 28 15.2 28 14.4 28 15.2 28.8 16 28.8 16.8 28.8 17.6 28 16.8 28 16 28" fill="#9e7a2c"/><polygon points="12 28 12 28.8 12 29.6 12 30.4 12.8 30.4 13.6 30.4 13.6 29.6 13.6 28.8 13.6 28 12.8 28 12 28" fill="#9e7a2c"/><polygon points="11.2 23.2 10.4 22.4 9.6 21.6 8.8 20.8 8 21.6 7.2 21.6 7.2 22.4 8 22.4 8.8 22.4 9.6 23.2 10.4 24 11.2 24.8 11.2 24 11.2 23.2" fill="#9e7a2c"/><polygon points="8.8 24.8 8 24.8 7.2 24.8 6.4 24.8 6.4 25.6 6.4 26.4 7.2 25.6 8 26.4 7.2 27.2 6.4 26.4 6.4 27.2 6.4 28 7.2 28.8 8 28 8.8 27.2 9.6 26.4 10.4 26.4 10.4 25.6 10.4 24.8 9.6 24.8 8.8 24.8" fill="#9e7a2c"/><line x2="32" fill="#fff"/><line x1="32" y1="32" y2="32" fill="#fff"/></svg>