<svg viewBox="0 0 32 32" xmlns="http://www.w3.org/2000/svg"><g fill="#9e7a2c"><path d="m24.8 24.8h-.8-.8-.8-.8v.8.8h.8l.8.8.8.8.8.8.8-.8v-.8-.8l-.8.8-.8-.8.8-.8.8.8v-.8-.8z"/><path d="m22.4 23.2.8-.8h.8.8v-.8h-.8l-.8-.8-.8.8-.8.8-.8.8v.8.8l.8-.8z"/><path d="m19.2 24h-.8-.8-.8l-.8.8-.8-.8h-.8-.8-.8-.8l-.8.8.8.8.8.8h.8.8.8.8.8.8.8.8l.8-.8.8-.8-.8-.8z"/><path d="m18.4 28v.8.8.8h.8.8v-.8-.8-.8h-.8z"/><path d="m16 28h-.8-.8l.8.8h.8.8l.8-.8h-.8z"/><path d="m12 28v.8.8.8h.8.8v-.8-.8-.8h-.8z"/><path d="m11.2 23.2-.8-.8-.8-.8-.8-.8-.8.8h-.8v.8h.8.8l.8.8.8.8.8.8v-.8z"/><path d="m8.8 24.8h-.8-.8-.8v.8.8l.8-.8.8.8-.8.8-.8-.8v.8.8l.8.8.8-.8.8-.8.8-.8h.8v-.8-.8h-.8z"/></g><path d="m0 0h32" fill="#fff"/><path d="m32 32h-32" fill="#fff"/></svg>