<svg id="Layer_1" data-name="Layer 1" xmlns="http://www.w3.org/2000/svg" viewBox="0 0 32 32"><polygon points="24.8 20.8 24 20.8 23.2 20.8 22.4 20.8 21.6 20.8 21.6 21.6 21.6 22.4 22.4 22.4 23.2 23.2 24 24 24.8 24.8 25.6 24 25.6 23.2 25.6 22.4 24.8 23.2 24 22.4 24.8 21.6 25.6 22.4 25.6 21.6 25.6 20.8 24.8 20.8" fill="#9e7a2c"/><polygon points="22.4 19.2 23.2 18.4 24 18.4 24.8 18.4 24.8 17.6 24 17.6 23.2 16.8 22.4 17.6 21.6 18.4 20.8 19.2 20.8 20 20.8 20.8 21.6 20 22.4 19.2" fill="#9e7a2c"/><polygon points="19.2 20 18.4 20 17.6 20 16.8 20 16 20.8 15.2 20 14.4 20 13.6 20 12.8 20 12 20 11.2 20.8 12 21.6 12.8 22.4 13.6 22.4 14.4 22.4 15.2 22.4 16 22.4 16.8 22.4 17.6 22.4 18.4 22.4 19.2 22.4 20 21.6 20.8 20.8 20 20 19.2 20" fill="#9e7a2c"/><polygon points="18.4 24 18.4 24.8 18.4 25.6 18.4 26.4 19.2 26.4 20 26.4 20 25.6 20 24.8 20 24 19.2 24 18.4 24" fill="#9e7a2c"/><polygon points="16 24 15.2 24 14.4 24 15.2 24.8 16 24.8 16.8 24.8 17.6 24 16.8 24 16 24" fill="#9e7a2c"/><polygon points="12 24 12 24.8 12 25.6 12 26.4 12.8 26.4 13.6 26.4 13.6 25.6 13.6 24.8 13.6 24 12.8 24 12 24" fill="#9e7a2c"/><polygon points="11.2 19.2 10.4 18.4 9.6 17.6 8.8 16.8 8 17.6 7.2 17.6 7.2 18.4 8 18.4 8.8 18.4 9.6 19.2 10.4 20 11.2 20.8 11.2 20 11.2 19.2" fill="#9e7a2c"/><polygon points="8.8 20.8 8 20.8 7.2 20.8 6.4 20.8 6.4 21.6 6.4 22.4 7.2 21.6 8 22.4 7.2 23.2 6.4 22.4 6.4 23.2 6.4 24 7.2 24.8 8 24 8.8 23.2 9.6 22.4 10.4 22.4 10.4 21.6 10.4 20.8 9.6 20.8 8.8 20.8" fill="#9e7a2c"/><line x2="32" fill="#fff"/><line x1="32" y1="32" y2="32" fill="#fff"/></svg>