<svg id="Layer_1" data-name="Layer 1" xmlns="http://www.w3.org/2000/svg" viewBox="0 0 32 32"><path d="M65.09,153.05v-3.2l-.8-.8v-3.2l-.8.8h-9.6l-.8-.8v.8h-.8l-.8.8h-1.6v.8h-.8v4.8l-.8-.8v3.2l.8.8v1.6l.8.8.8.8.8.8.8.8.8.8h8l.8-.8.8-.8.8-.8.8-.8.8-.8v-1.6l.8-.8v-3.2Zm-12-4.8h2.4l.8.8.8.8.8-.8.8-.8h3.2l.8.8.8.8v.8h-5.6l-.8.8.8.8h4.8l.8-.8v3.2l-.8.8-.8-.8-.8-.8h-3.2l-.8.8-.8-.8h-3.2l-.8.8-.8.8-.8-.8v-3.2l.8.8h4.8l.8-.8-.8-.8h-5.6v-.8l.8-.8.8-.8Zm4.8,8.8h-1.6l.8-.8Z" transform="translate(-41.09 -141.85)" fill="#a65225"/><line x2="32" fill="#fff"/><line x1="32" y1="32" y2="32" fill="#fff"/></svg>