<svg viewBox="0 0 32 32" xmlns="http://www.w3.org/2000/svg"><path d="m88.18 152.69v-3.2l-.8-.8v-3.2l-.8.8h-9.58l-.8-.8v.8h-.8l-.8.8h-1.6v.8h-.8v4.8l-.8-.8v3.2l.8.8v1.6l.8.8.8.8.8.8.8.8.8.8h8l.8-.8.8-.8.8-.8.8-.8.8-.8v-1.6l.8-.8v-3.2zm-12-4.8h2.4l.8.8.8.8.8-.8.8-.8h3.22l.8.8.8.8v.8h-5.6l-.8.8.8.8h4.8l.8-.8v3.2l-.8.8-.8-.8-.8-.8h-3.2l-.8.8-.8-.8h-3.2l-.8.8-.8.8-.8-.8v-3.2l.8.8h4.8l.8-.8-.8-.8h-5.6v-.8l.8-.8.8-.8zm4.8 8.8h-1.6l.8-.8z" fill="#a65225" transform="translate(-64.18 -137.49)"/><g fill="#fff"><path d="m0 0h32"/><path d="m32 32h-32"/></g></svg>