<svg id="Layer_1" data-name="Layer 1" xmlns="http://www.w3.org/2000/svg" viewBox="0 0 32 32"><rect x="65.33" y="163.69" width="1.13" height="1.13" transform="translate(-137.94 -47.15) rotate(-45)" fill="#ede4bb"/><polygon points="19.2 11.2 20 11.2 20.8 11.2 20.8 10.4 20 10.4 19.2 11.2" fill="#ede4bb"/><polygon points="18.4 26.4 19.2 27.2 20 26.4 19.2 26.4 18.4 26.4" fill="#ede4bb"/><polygon points="17.6 11.2 18.4 11.2 19.2 11.2 18.4 10.4 17.6 11.2" fill="#ede4bb"/><rect x="56.53" y="164.49" width="1.13" height="1.13" transform="translate(-141.08 -53.15) rotate(-45)" fill="#ede4bb"/><polygon points="12.8 11.2 13.6 11.2 14.4 11.2 13.6 10.4 12.8 11.2" fill="#ede4bb"/><polygon points="12 26.4 12.8 27.2 13.6 26.4 12.8 26.4 12 26.4" fill="#ede4bb"/><polygon points="11.2 10.4 11.2 11.2 12 11.2 12.8 11.2 12 10.4 11.2 10.4" fill="#ede4bb"/><rect x="47.73" y="163.69" width="1.13" height="1.13" transform="translate(-143.09 -59.6) rotate(-45)" fill="#ede4bb"/><line x2="32" fill="#fff"/><line x1="32" y1="32" y2="32" fill="#fff"/></svg>