<svg id="Layer_1" data-name="Layer 1" xmlns="http://www.w3.org/2000/svg" viewBox="0 0 32 32"><rect x="88.42" y="163.33" width="1.13" height="1.13" transform="translate(-154.01 -26.57) rotate(-45)" fill="#ede4bb"/><polygon points="19.2 15.2 20 15.2 20.8 15.2 20.8 14.4 20 14.4 19.2 15.2" fill="#ede4bb"/><polygon points="18.4 30.4 19.2 31.2 20 30.4 19.2 30.4 18.4 30.4" fill="#ede4bb"/><polygon points="17.6 15.2 18.4 15.2 19.2 15.2 18.4 14.4 17.6 15.2" fill="#ede4bb"/><rect x="79.62" y="164.13" width="1.13" height="1.13" transform="translate(-157.15 -32.56) rotate(-45)" fill="#ede4bb"/><polygon points="12.8 15.2 13.6 15.2 14.4 15.2 13.6 14.4 12.8 15.2" fill="#ede4bb"/><polygon points="12 30.4 12.8 31.2 13.6 30.4 12.8 30.4 12 30.4" fill="#ede4bb"/><polygon points="11.2 14.4 11.2 15.2 12 15.2 12.8 15.2 12 14.4 11.2 14.4" fill="#ede4bb"/><rect x="70.82" y="163.33" width="1.13" height="1.13" transform="translate(-159.16 -39.01) rotate(-45)" fill="#ede4bb"/><line x2="32" fill="#fff"/><line x1="32" y1="32" y2="32" fill="#fff"/></svg>