<svg viewBox="0 0 32 32" xmlns="http://www.w3.org/2000/svg"><g fill="#ede4bb"><path d="m88.42 163.33h1.13v1.13h-1.13z" transform="matrix(.70710678 -.70710678 .70710678 .70710678 -154.01 -26.57)"/><path d="m19.2 15.2h.8.8v-.8h-.8z"/><path d="m18.4 30.4.8.8.8-.8h-.8z"/><path d="m17.6 15.2h.8.8l-.8-.8z"/><path d="m79.62 164.13h1.13v1.13h-1.13z" transform="matrix(.70710678 -.70710678 .70710678 .70710678 -157.15 -32.56)"/><path d="m12.8 15.2h.8.8l-.8-.8z"/><path d="m12 30.4.8.8.8-.8h-.8z"/><path d="m11.2 14.4v.8h.8.8l-.8-.8z"/><path d="m70.82 163.33h1.13v1.13h-1.13z" transform="matrix(.70710678 -.70710678 .70710678 .70710678 -159.16 -39.01)"/></g><path d="m0 0h32" fill="#fff"/><path d="m32 32h-32" fill="#fff"/></svg>