<svg id="Layer_1" data-name="Layer 1" xmlns="http://www.w3.org/2000/svg" viewBox="0 0 32 32"><polygon points="20 30.4 19.2 31.2 18.4 30.4 17.6 30.4 16.8 30.4 16.8 31.2 16.8 32 17.6 32 18.4 32 19.2 32 20 32 20.8 32 20.8 31.2 20 30.4" fill="#89532a"/><polygon points="17.6 28 18.4 28 19.2 28 20 28 20 27.2 20 26.4 19.2 26.4 18.4 26.4 17.6 26.4 16.8 26.4 16 26.4 16.8 27.2 16 28 16.8 28 17.6 28" fill="#89532a"/><polygon points="16 26.4 15.2 26.4 14.4 26.4 13.6 26.4 12.8 26.4 12 26.4 12 27.2 12 28 12.8 28 13.6 28 14.4 28 15.2 28 16 28 15.2 27.2 16 26.4" fill="#89532a"/><polygon points="13.6 30.4 12.8 31.2 12 30.4 11.2 31.2 11.2 32 12 32 12.8 32 13.6 32 14.4 32 15.2 32 15.2 31.2 15.2 30.4 14.4 30.4 13.6 30.4" fill="#89532a"/><line x2="32" fill="#fff"/><line x1="32" y1="32" y2="32" fill="#fff"/></svg>