<svg id="Layer_1" data-name="Layer 1" xmlns="http://www.w3.org/2000/svg" viewBox="0 0 32 32"><polygon points="20 26.4 19.2 27.2 18.4 26.4 17.6 26.4 16.8 26.4 16.8 27.2 16.8 28 17.6 28 18.4 28 19.2 28 20 28 20.8 28 20.8 27.2 20 26.4" fill="#89532a"/><polygon points="17.6 24 18.4 24 19.2 24 20 24 20 23.2 20 22.4 19.2 22.4 18.4 22.4 17.6 22.4 16.8 22.4 16 22.4 16.8 23.2 16 24 16.8 24 17.6 24" fill="#89532a"/><polygon points="16 22.4 15.2 22.4 14.4 22.4 13.6 22.4 12.8 22.4 12 22.4 12 23.2 12 24 12.8 24 13.6 24 14.4 24 15.2 24 16 24 15.2 23.2 16 22.4" fill="#89532a"/><polygon points="13.6 26.4 12.8 27.2 12 26.4 11.2 27.2 11.2 28 12 28 12.8 28 13.6 28 14.4 28 15.2 28 15.2 27.2 15.2 26.4 14.4 26.4 13.6 26.4" fill="#89532a"/><line x2="32" fill="#fff"/><line x1="32" y1="32" y2="32" fill="#fff"/></svg>