<svg id="Layer_1" data-name="Layer 1" xmlns="http://www.w3.org/2000/svg" viewBox="0 0 32 32"><polygon points="24 23.2 23.2 23.2 22.4 23.2 21.6 24 20.8 24.8 21.6 24.8 22.4 24.8 23.2 24.8 24 24.8 24.8 24.8 24.8 24 24 23.2" fill="#c69463"/><polygon points="23.2 27.2 22.4 26.4 21.6 26.4 20.8 26.4 21.6 27.2 20.8 27.2 20.8 26.4 20 27.2 20.8 28 21.6 28.8 22.4 29.6 23.2 29.6 24 29.6 24.8 28.8 24 28 23.2 27.2" fill="#c69463"/><polygon points="20.8 16.8 21.6 17.6 22.4 16.8 22.4 16 22.4 15.2 22.4 14.4 22.4 13.6 21.6 14.4 20.8 14.4 20.8 15.2 20 15.2 19.2 15.2 18.4 15.2 17.6 15.2 18.4 14.4 17.6 14.4 16.8 14.4 16 13.6 15.2 14.4 14.4 14.4 13.6 14.4 14.4 15.2 13.6 15.2 12.8 15.2 12 15.2 11.2 15.2 11.2 14.4 10.4 14.4 9.6 13.6 9.6 14.4 9.6 15.2 9.6 16 9.6 16.8 10.4 17.6 11.2 16.8 12 16 12.8 16 13.6 16 14.4 16 15.2 16 16 15.2 16.8 16 17.6 16 18.4 16 19.2 16 20 16 20.8 16.8" fill="#c69463"/><polygon points="17.6 12.8 18.4 12.8 19.2 12.8 20 12.8 20.8 12.8 21.6 12.8 22.4 12.8 22.4 12 21.6 11.2 20.8 10.4 20 10.4 19.2 10.4 18.4 10.4 17.6 10.4 16.8 11.2 16 12 15.2 11.2 14.4 10.4 13.6 10.4 12.8 10.4 12 10.4 11.2 10.4 10.4 11.2 9.6 12 9.6 12.8 10.4 12.8 11.2 12.8 12 12.8 12.8 12.8 13.6 12.8 14.4 12.8 15.2 12.8 16 13.6 16.8 12.8 17.6 12.8" fill="#c69463"/><polygon points="15.2 19.2 16 19.2 16.8 19.2 16 18.4 15.2 19.2" fill="#c69463"/><polygon points="15.2 16 16 16.8 16.8 16 16 16 15.2 16" fill="#c69463"/><polygon points="11.2 27.2 10.4 27.2 11.2 26.4 10.4 26.4 9.6 26.4 8.8 27.2 8 28 7.2 28.8 8 29.6 8.8 29.6 9.6 29.6 10.4 28.8 11.2 28 12 27.2 11.2 26.4 11.2 27.2" fill="#c69463"/><polygon points="8.8 24.8 9.6 24.8 10.4 24.8 11.2 24.8 10.4 24 9.6 23.2 8.8 23.2 8 23.2 7.2 24 7.2 24.8 8 24.8 8.8 24.8" fill="#c69463"/><line x2="32" fill="#fff"/><line x1="32" y1="32" y2="32" fill="#fff"/></svg>