<svg viewBox="0 0 32 32" xmlns="http://www.w3.org/2000/svg"><g fill="#c69463"><path d="m24 23.2h-.8-.8l-.8.8-.8.8h.8.8.8.8.8v-.8z"/><path d="m23.2 27.2-.8-.8h-.8-.8l.8.8h-.8v-.8l-.8.8.8.8.8.8.8.8h.8.8l.8-.8-.8-.8z"/><path d="m20.8 16.8.8.8.8-.8v-.8-.8-.8-.8l-.8.8h-.8v.8h-.8-.8-.8-.8l.8-.8h-.8-.8l-.8-.8-.8.8h-.8-.8l.8.8h-.8-.8-.8-.8v-.8h-.8l-.8-.8v.8.8.8.8l.8.8.8-.8.8-.8h.8.8.8.8l.8-.8.8.8h.8.8.8.8z"/><path d="m17.6 12.8h.8.8.8.8.8.8v-.8l-.8-.8-.8-.8h-.8-.8-.8-.8l-.8.8-.8.8-.8-.8-.8-.8h-.8-.8-.8-.8l-.8.8-.8.8v.8h.8.8.8.8.8.8.8l.8.8.8-.8z"/><path d="m15.2 19.2h.8.8l-.8-.8z"/><path d="m15.2 16 .8.8.8-.8h-.8z"/><path d="m11.2 27.2h-.8l.8-.8h-.8-.8l-.8.8-.8.8-.8.8.8.8h.8.8l.8-.8.8-.8.8-.8-.8-.8z"/><path d="m8.8 24.8h.8.8.8l-.8-.8-.8-.8h-.8-.8l-.8.8v.8h.8z"/></g><path d="m0 0h32" fill="#fff"/><path d="m32 32h-32" fill="#fff"/></svg>