<svg id="Layer_1" data-name="Layer 1" xmlns="http://www.w3.org/2000/svg" viewBox="0 0 32 32"><polygon points="24 19.2 23.2 19.2 22.4 19.2 21.6 20 20.8 20.8 21.6 20.8 22.4 20.8 23.2 20.8 24 20.8 24.8 20.8 24.8 20 24 19.2" fill="#c69463"/><polygon points="23.2 23.2 22.4 22.4 21.6 22.4 20.8 22.4 21.6 23.2 20.8 23.2 20.8 22.4 20 23.2 20.8 24 21.6 24.8 22.4 25.6 23.2 25.6 24 25.6 24.8 24.8 24 24 23.2 23.2" fill="#c69463"/><polygon points="20.8 12.8 21.6 13.6 22.4 12.8 22.4 12 22.4 11.2 22.4 10.4 22.4 9.6 21.6 10.4 20.8 10.4 20.8 11.2 20 11.2 19.2 11.2 18.4 11.2 17.6 11.2 18.4 10.4 17.6 10.4 16.8 10.4 16 9.6 15.2 10.4 14.4 10.4 13.6 10.4 14.4 11.2 13.6 11.2 12.8 11.2 12 11.2 11.2 11.2 11.2 10.4 10.4 10.4 9.6 9.6 9.6 10.4 9.6 11.2 9.6 12 9.6 12.8 10.4 13.6 11.2 12.8 12 12 12.8 12 13.6 12 14.4 12 15.2 12 16 11.2 16.8 12 17.6 12 18.4 12 19.2 12 20 12 20.8 12.8" fill="#c69463"/><polygon points="17.6 8.8 18.4 8.8 19.2 8.8 20 8.8 20.8 8.8 21.6 8.8 22.4 8.8 22.4 8 21.6 7.2 20.8 6.4 20 6.4 19.2 6.4 18.4 6.4 17.6 6.4 16.8 7.2 16 8 15.2 7.2 14.4 6.4 13.6 6.4 12.8 6.4 12 6.4 11.2 6.4 10.4 7.2 9.6 8 9.6 8.8 10.4 8.8 11.2 8.8 12 8.8 12.8 8.8 13.6 8.8 14.4 8.8 15.2 8.8 16 9.6 16.8 8.8 17.6 8.8" fill="#c69463"/><polygon points="15.2 15.2 16 15.2 16.8 15.2 16 14.4 15.2 15.2" fill="#c69463"/><polygon points="15.2 12 16 12.8 16.8 12 16 12 15.2 12" fill="#c69463"/><polygon points="11.2 23.2 10.4 23.2 11.2 22.4 10.4 22.4 9.6 22.4 8.8 23.2 8 24 7.2 24.8 8 25.6 8.8 25.6 9.6 25.6 10.4 24.8 11.2 24 12 23.2 11.2 22.4 11.2 23.2" fill="#c69463"/><polygon points="8.8 20.8 9.6 20.8 10.4 20.8 11.2 20.8 10.4 20 9.6 19.2 8.8 19.2 8 19.2 7.2 20 7.2 20.8 8 20.8 8.8 20.8" fill="#c69463"/><line x2="32" fill="#fff"/><line x1="32" y1="32" y2="32" fill="#fff"/></svg>