<svg xmlns="http://www.w3.org/2000/svg" viewBox="0 0 64 64"><defs><style>.cls-1{fill:#ecb81e;}.cls-2{fill:none;}</style></defs><g id="Layer_2" data-name="Layer 2"><g id="Layer_1-2" data-name="Layer 1"><polygon class="cls-1" points="40 33.6 40.8 33.6 41.6 33.6 40.8 32.8 40 33.6"/><polygon class="cls-1" points="40 27.2 40.8 27.2 41.6 27.2 40.8 26.4 40 27.2"/><polygon class="cls-1" points="40 20.8 40.8 20.8 41.6 20.8 40.8 20 40 20.8"/><polygon class="cls-1" points="36 32 36.8 32 36 31.2 36 32"/><polygon class="cls-1" points="35.2 33.6 36 33.6 36.8 33.6 36.8 32.8 36 32.8 35.2 33.6"/><polygon class="cls-1" points="36 27.2 36 26.4 35.2 27.2 36 27.2"/><polygon class="cls-1" points="35.2 20.8 36 20.8 36.8 20.8 36 20 35.2 20.8"/><polygon class="cls-1" points="35.2 26.4 36 26.4 35.2 25.6 35.2 26.4"/><polygon class="cls-1" points="32 49.6 32.8 49.6 33.6 49.6 32.8 48.8 32 49.6"/><polygon class="cls-1" points="30.4 49.6 31.2 49.6 32 49.6 31.2 48.8 30.4 49.6"/><polygon class="cls-1" points="28 27.2 28.8 27.2 28 26.4 28 27.2"/><polygon class="cls-1" points="27.2 33.6 28 33.6 28.8 33.6 28 32.8 27.2 33.6"/><polygon class="cls-1" points="28 24.8 27.2 25.6 28 25.6 28 24.8"/><polygon class="cls-1" points="27.2 20.8 28 20.8 28.8 20.8 28.8 20 28.8 19.2 28 20 27.2 20.8"/><rect class="cls-1" x="23.2" y="26.4" width="0.8" height="0.8"/><polygon class="cls-1" points="22.4 33.6 23.2 33.6 24 33.6 23.2 32.8 22.4 33.6"/><polygon class="cls-1" points="22.4 20.8 23.2 20.8 24 20.8 23.2 20 22.4 20.8"/><line class="cls-2" x1="64" y1="64" y2="64"/><line class="cls-2" x2="64"/></g></g></svg>