<svg xmlns="http://www.w3.org/2000/svg" viewBox="0 0 64 64"><defs><style>.cls-1{fill:#281f1c;}.cls-2{fill:none;}</style></defs><g id="Layer_2" data-name="Layer 2"><g id="Layer_1-2" data-name="Layer 1"><polygon class="cls-1" points="56.8 50.4 56 49.6 55.2 50.4 54.4 51.2 53.6 50.4 52.8 49.6 52.8 48.8 52.8 48 53.6 47.2 52.8 46.4 52.8 45.6 52.8 44.8 52.8 44 52.8 43.2 53.6 42.4 52.8 41.6 52.8 40.8 52.8 40 52 39.2 51.2 38.4 50.4 39.2 49.6 40 48.8 39.2 48 38.4 48 37.6 48 36.8 48.8 36 48 35.2 48 34.4 48 33.6 48 32.8 48 32 48.8 31.2 48 30.4 48 29.6 48 28.8 48 28 48 27.2 48.8 26.4 48 25.6 48 24.8 48 24 48 23.2 48 22.4 48.8 21.6 48 20.8 48 20 48 19.2 48.8 18.4 49.6 17.6 48.8 16.8 48 16 48 15.2 48 14.4 48 13.6 48 12.8 47.2 13.6 46.4 14.4 45.6 13.6 44.8 12.8 44 12 44 11.2 44 10.4 44 9.6 44 8.8 43.2 9.6 42.4 10.4 41.6 9.6 40.8 8.8 40 8 40 7.2 40 6.4 40 5.6 40 4.8 39.2 5.6 38.4 6.4 37.6 5.6 36.8 4.8 36 4 35.2 3.2 34.4 2.4 33.6 1.6 32.8 0.8 32 0 32 0.8 32 1.6 32 2.4 32 3.2 31.2 3.2 31.2 4 30.4 4.8 29.6 5.6 28.8 6.4 28 7.2 27.2 7.2 27.2 8 26.4 8.8 25.6 9.6 25.6 10.4 25.6 11.2 25.6 12 25.6 12.8 25.6 13.6 25.6 14.4 25.6 15.2 25.6 16 25.6 16.8 25.6 17.6 24.8 18.4 25.6 18.4 25.6 19.2 25.6 20 25.6 20.8 25.6 21.6 25.6 22.4 25.6 23.2 25.6 24 25.6 24.8 25.6 25.6 25.6 26.4 25.6 27.2 25.6 28 25.6 28.8 25.6 29.6 25.6 30.4 25.6 31.2 25.6 32 25.6 32.8 25.6 33.6 25.6 34.4 25.6 35.2 25.6 36 25.6 36.8 25.6 37.6 25.6 38.4 25.6 39.2 25.6 40 25.6 40.8 25.6 41.6 25.6 42.4 24.8 42.4 25.6 43.2 25.6 44 25.6 44.8 25.6 45.6 25.6 46.4 26.4 45.6 27.2 44.8 28 44.8 28.8 44.8 28 44 27.2 43.2 27.2 42.4 27.2 41.6 27.2 40.8 27.2 40 27.2 39.2 27.2 38.4 27.2 37.6 27.2 36.8 27.2 36 27.2 35.2 28 34.4 28.8 33.6 28 33.6 27.2 33.6 27.2 32.8 27.2 32 27.2 31.2 27.2 30.4 27.2 29.6 27.2 28.8 28 28 28.8 27.2 28 27.2 27.2 27.2 27.2 26.4 27.2 25.6 27.2 24.8 27.2 24 27.2 23.2 27.2 22.4 28 21.6 28.8 20.8 28 20.8 27.2 20.8 27.2 20 27.2 19.2 27.2 18.4 27.2 17.6 27.2 16.8 27.2 16 27.2 15.2 27.2 14.4 27.2 13.6 27.2 12.8 27.2 12 27.2 11.2 28 11.2 28.8 11.2 28.8 10.4 28.8 9.6 29.6 8.8 30.4 8 31.2 7.2 32 6.4 32.8 7.2 33.6 8 34.4 8.8 35.2 9.6 35.2 10.4 35.2 11.2 36 11.2 36.8 11.2 37.6 10.4 38.4 9.6 38.4 10.4 38.4 11.2 38.4 12 38.4 12.8 38.4 13.6 37.6 13.6 38.4 14.4 38.4 15.2 38.4 16 38.4 16.8 38.4 17.6 38.4 18.4 38.4 19.2 38.4 20 38.4 20.8 38.4 21.6 38.4 22.4 38.4 23.2 38.4 24 38.4 24.8 38.4 25.6 38.4 26.4 38.4 27.2 38.4 28 38.4 28.8 38.4 29.6 38.4 30.4 38.4 31.2 38.4 32 38.4 32.8 38.4 33.6 38.4 34.4 38.4 35.2 38.4 36 38.4 36.8 37.6 37.6 38.4 38.4 38.4 39.2 38.4 40 38.4 40.8 38.4 41.6 38.4 42.4 38.4 43.2 38.4 44 38.4 44.8 38.4 45.6 38.4 46.4 39.2 45.6 40 44.8 40.8 44.8 41.6 44.8 40.8 44 40 43.2 40 42.4 40 41.6 40 40.8 40 40 40 39.2 40 38.4 40 37.6 40 36.8 40 36 40 35.2 40.8 34.4 41.6 33.6 40.8 33.6 40 33.6 40 32.8 40 32 40 31.2 40 30.4 40 29.6 40 28.8 40.8 28 41.6 27.2 40.8 27.2 40 27.2 40 26.4 40 25.6 40 24.8 40 24 40 23.2 40 22.4 40.8 21.6 41.6 20.8 40.8 20.8 40 20.8 40 20 40 19.2 40 18.4 40 17.6 40 16.8 40 16 40 15.2 40 14.4 40.8 15.2 41.6 16 42.4 16.8 43.2 17.6 43.2 18.4 43.2 19.2 44 19.2 44.8 19.2 45.6 20 46.4 20.8 46.4 21.6 46.4 22.4 46.4 23.2 46.4 24 46.4 24.8 46.4 25.6 46.4 26.4 46.4 27.2 46.4 28 46.4 28.8 46.4 29.6 46.4 30.4 46.4 31.2 46.4 32 46.4 32.8 46.4 33.6 45.6 34.4 46.4 35.2 46.4 36 46.4 36.8 46.4 37.6 46.4 38.4 46.4 39.2 46.4 40 46.4 40.8 46.4 41.6 46.4 42.4 46.4 43.2 46.4 44 45.6 44 46.4 44.8 46.4 45.6 46.4 46.4 45.6 45.6 44.8 44.8 44.8 45.6 44.8 46.4 45.6 47.2 45.6 48 45.6 48.8 46.4 49.6 46.4 50.4 46.4 51.2 47.2 52 47.2 52.8 47.2 53.6 48 53.6 48.8 53.6 49.6 53.6 50.4 53.6 51.2 53.6 52 53.6 52.8 53.6 53.6 53.6 54.4 53.6 55.2 53.6 56 53.6 56.8 53.6 57.6 53.6 57.6 52.8 57.6 52 57.6 51.2 56.8 50.4"/><polygon class="cls-1" points="44.8 20.8 44 21.6 44.8 22.4 45.6 22.4 46.4 22.4 45.6 21.6 44.8 20.8"/><polygon class="cls-1" points="44.8 25.6 44 26.4 44.8 27.2 45.6 27.2 46.4 27.2 45.6 26.4 44.8 25.6"/><polygon class="cls-1" points="44.8 30.4 44 31.2 44.8 32 45.6 32 46.4 32 45.6 31.2 44.8 30.4"/><polygon class="cls-1" points="44.8 35.2 44 36 44.8 36.8 45.6 36.8 46.4 36.8 45.6 36 44.8 35.2"/><polygon class="cls-1" points="44.8 40 44 40.8 44.8 41.6 45.6 41.6 46.4 41.6 45.6 40.8 44.8 40"/><polygon class="cls-1" points="35.2 33.6 36 34.4 36.8 35.2 36.8 34.4 36.8 33.6 36 33.6 35.2 33.6"/><polygon class="cls-1" points="35.2 27.2 36 28 36.8 28.8 36.8 28 36.8 27.2 36 27.2 35.2 27.2"/><polygon class="cls-1" points="35.2 20.8 36 21.6 36.8 22.4 36.8 21.6 36.8 20.8 36 20.8 35.2 20.8"/><polygon class="cls-1" points="33.6 35.2 33.6 36 33.6 36.8 32.8 37.6 32.8 38.4 32.8 39.2 32.8 40 32.8 40.8 32.8 41.6 32.8 42.4 33.6 43.2 33.6 42.4 33.6 41.6 33.6 40.8 33.6 40 33.6 39.2 33.6 38.4 34.4 37.6 35.2 36.8 34.4 36 33.6 35.2"/><polygon class="cls-1" points="32 49.6 31.2 49.6 30.4 49.6 31.2 50.4 32 51.2 32.8 50.4 33.6 49.6 32.8 49.6 32 49.6"/><polygon class="cls-1" points="30.4 39.2 30.4 40 30.4 40.8 30.4 41.6 30.4 42.4 30.4 43.2 31.2 42.4 31.2 41.6 31.2 40.8 31.2 40 31.2 39.2 31.2 38.4 31.2 37.6 30.4 36.8 30.4 36 30.4 35.2 29.6 36 28.8 36.8 29.6 37.6 30.4 38.4 30.4 39.2"/><polygon class="cls-1" points="22.4 33.6 23.2 34.4 24 35.2 24 34.4 24 33.6 23.2 33.6 22.4 33.6"/><polygon class="cls-1" points="22.4 27.2 23.2 28 24 28.8 24 28 24 27.2 23.2 27.2 22.4 27.2"/><polygon class="cls-1" points="22.4 20.8 23.2 21.6 24 22.4 24 21.6 24 20.8 23.2 20.8 22.4 20.8"/><polygon class="cls-1" points="22.4 12.8 21.6 13.6 20.8 14.4 20 15.2 19.2 15.2 19.2 16 18.4 16.8 17.6 17.6 17.6 18.4 17.6 19.2 17.6 20 17.6 20.8 17.6 21.6 17.6 22.4 17.6 23.2 17.6 24 17.6 24.8 17.6 25.6 17.6 26.4 17.6 27.2 17.6 28 17.6 28.8 17.6 29.6 17.6 30.4 17.6 31.2 17.6 32 16.8 32.8 17.6 32.8 17.6 33.6 17.6 34.4 17.6 35.2 17.6 36 17.6 36.8 17.6 37.6 17.6 38.4 17.6 39.2 17.6 40 16.8 39.2 16 38.4 15.2 39.2 14.4 40 13.6 39.2 12.8 38.4 12.8 39.2 12.8 40 12 40.8 12.8 41.6 12.8 42.4 12.8 43.2 12.8 44 12.8 44.8 12.8 45.6 12.8 46.4 12.8 47.2 12 47.2 12.8 48 12 48.8 11.2 49.6 10.4 50.4 9.6 51.2 8.8 50.4 8 49.6 8 50.4 8 51.2 8 52 8 52.8 8 53.6 8.8 53.6 9.6 53.6 10.4 53.6 11.2 53.6 12 53.6 12.8 53.6 13.6 53.6 14.4 53.6 15.2 53.6 16 53.6 16.8 53.6 16.8 52.8 16.8 52 17.6 51.2 17.6 50.4 17.6 49.6 18.4 48.8 18.4 48 18.4 47.2 19.2 46.4 19.2 45.6 19.2 44.8 19.2 44 19.2 43.2 19.2 42.4 19.2 41.6 20 40.8 19.2 40 19.2 39.2 19.2 38.4 19.2 37.6 19.2 36.8 20 36 19.2 35.2 19.2 34.4 19.2 33.6 19.2 32.8 19.2 32 20 31.2 19.2 30.4 19.2 29.6 19.2 28.8 19.2 28 19.2 27.2 20 26.4 19.2 25.6 19.2 24.8 19.2 24 19.2 23.2 19.2 22.4 20 21.6 19.2 20.8 19.2 20 19.2 19.2 20 19.2 20.8 19.2 20.8 18.4 20.8 17.6 21.6 16.8 22.4 16 23.2 15.2 24 14.4 24 13.6 24 12.8 24 12 24 11.2 23.2 12 22.4 12.8"/><line class="cls-2" x1="64" y1="64" y2="64"/><line class="cls-2" x2="64"/></g></g></svg>