<svg xmlns="http://www.w3.org/2000/svg" viewBox="0 0 64 64"><defs><style>.cls-1{fill:#4f4139;}.cls-2{fill:none;}</style></defs><g id="Layer_2" data-name="Layer 2"><g id="Layer_1-2" data-name="Layer 1"><polygon class="cls-1" points="45.6 20 44.8 19.2 44.8 20 44.8 20.8 45.6 21.6 46.4 22.4 46.4 21.6 46.4 20.8 45.6 20"/><polygon class="cls-1" points="44.8 41.6 44.8 42.4 44.8 43.2 44.8 44 44.8 44.8 45.6 45.6 46.4 46.4 46.4 45.6 46.4 44.8 45.6 44 46.4 44 46.4 43.2 46.4 42.4 46.4 41.6 45.6 41.6 44.8 41.6"/><polygon class="cls-1" points="44.8 36.8 44.8 37.6 44.8 38.4 44.8 39.2 44.8 40 45.6 40.8 46.4 41.6 46.4 40.8 46.4 40 46.4 39.2 46.4 38.4 46.4 37.6 46.4 36.8 45.6 36.8 44.8 36.8"/><polygon class="cls-1" points="44.8 32 44.8 32.8 44.8 33.6 44.8 34.4 44.8 35.2 45.6 36 46.4 36.8 46.4 36 46.4 35.2 45.6 34.4 46.4 33.6 46.4 32.8 46.4 32 45.6 32 44.8 32"/><polygon class="cls-1" points="44.8 27.2 44.8 28 44.8 28.8 44.8 29.6 44.8 30.4 45.6 31.2 46.4 32 46.4 31.2 46.4 30.4 46.4 29.6 46.4 28.8 46.4 28 46.4 27.2 45.6 27.2 44.8 27.2"/><polygon class="cls-1" points="44.8 22.4 44.8 23.2 44.8 24 44.8 24.8 44.8 25.6 45.6 26.4 46.4 27.2 46.4 26.4 46.4 25.6 46.4 24.8 46.4 24 46.4 23.2 46.4 22.4 45.6 22.4 44.8 22.4"/><polygon class="cls-1" points="36.8 11.2 36.8 12 36.8 12.8 36.8 13.6 36.8 14.4 36.8 15.2 36.8 16 36.8 16.8 36.8 17.6 36.8 18.4 36.8 19.2 36.8 20 36.8 20.8 36.8 21.6 36.8 22.4 36.8 23.2 36.8 24 36.8 24.8 36.8 25.6 36.8 26.4 36.8 27.2 36.8 28 36.8 28.8 36.8 29.6 36.8 30.4 36.8 31.2 36.8 32 36.8 32.8 36.8 33.6 36.8 34.4 36.8 35.2 36.8 36 36.8 36.8 36.8 37.6 36.8 38.4 36.8 39.2 36.8 40 36.8 40.8 36.8 41.6 36.8 42.4 36.8 43.2 36 44 35.2 44.8 36 44.8 36.8 44.8 37.6 45.6 38.4 46.4 38.4 45.6 38.4 44.8 38.4 44 38.4 43.2 38.4 42.4 38.4 41.6 38.4 40.8 38.4 40 38.4 39.2 38.4 38.4 37.6 37.6 38.4 36.8 38.4 36 38.4 35.2 38.4 34.4 38.4 33.6 38.4 32.8 38.4 32 38.4 31.2 38.4 30.4 38.4 29.6 38.4 28.8 38.4 28 38.4 27.2 38.4 26.4 38.4 25.6 38.4 24.8 38.4 24 38.4 23.2 38.4 22.4 38.4 21.6 38.4 20.8 38.4 20 38.4 19.2 38.4 18.4 38.4 17.6 38.4 16.8 38.4 16 38.4 15.2 38.4 14.4 37.6 13.6 38.4 13.6 38.4 12.8 38.4 12 38.4 11.2 38.4 10.4 38.4 9.6 37.6 10.4 36.8 11.2"/><polygon class="cls-1" points="36 40.8 35.2 40 35.2 39.2 35.2 38.4 35.2 37.6 35.2 36.8 34.4 37.6 33.6 38.4 33.6 39.2 33.6 40 33.6 40.8 33.6 41.6 33.6 42.4 33.6 43.2 34.4 42.4 35.2 41.6 36 40.8"/><polygon class="cls-1" points="30.4 1.6 29.6 2.4 28.8 3.2 28 4 27.2 4.8 26.4 5.6 25.6 6.4 24.8 5.6 24 4.8 24 5.6 24 6.4 24 7.2 24 8 23.2 8.8 22.4 9.6 21.6 10.4 20.8 9.6 20 8.8 20 9.6 20 10.4 20 11.2 20 12 19.2 12.8 18.4 13.6 17.6 14.4 16.8 13.6 16 12.8 16 13.6 16 14.4 16 15.2 16 16 15.2 16.8 14.4 17.6 15.2 18.4 16 19.2 16 20 16 20.8 15.2 21.6 16 22.4 16 23.2 16 24 16 24.8 16 25.6 15.2 26.4 16 27.2 16 28 16 28.8 16 29.6 16 30.4 15.2 31.2 16 32 16 32.8 16 33.6 16 34.4 16 35.2 15.2 36 16 36.8 16 37.6 16 38.4 16.8 39.2 17.6 40 17.6 39.2 17.6 38.4 17.6 37.6 17.6 36.8 17.6 36 17.6 35.2 17.6 34.4 17.6 33.6 17.6 32.8 16.8 32.8 17.6 32 17.6 31.2 17.6 30.4 17.6 29.6 17.6 28.8 17.6 28 17.6 27.2 17.6 26.4 17.6 25.6 17.6 24.8 17.6 24 17.6 23.2 17.6 22.4 17.6 21.6 17.6 20.8 17.6 20 17.6 19.2 17.6 18.4 17.6 17.6 18.4 16.8 19.2 16 19.2 15.2 20 15.2 20.8 14.4 21.6 13.6 22.4 12.8 23.2 12 24 11.2 24 12 24 12.8 24 13.6 24 14.4 24 15.2 24 16 24 16.8 24 17.6 24 18.4 24 19.2 24 20 24 20.8 24 21.6 24 22.4 24 23.2 24 24 24 24.8 24 25.6 24 26.4 24 27.2 24 28 24 28.8 24 29.6 24 30.4 24 31.2 24 32 24 32.8 24 33.6 24 34.4 24 35.2 24 36 24 36.8 24 37.6 24 38.4 24 39.2 24 40 24 40.8 24 41.6 24 42.4 24 43.2 23.2 44 22.4 44.8 23.2 44.8 24 44.8 24.8 45.6 25.6 46.4 25.6 45.6 25.6 44.8 25.6 44 25.6 43.2 24.8 42.4 25.6 42.4 25.6 41.6 25.6 40.8 25.6 40 25.6 39.2 25.6 38.4 25.6 37.6 25.6 36.8 25.6 36 25.6 35.2 25.6 34.4 25.6 33.6 25.6 32.8 25.6 32 25.6 31.2 25.6 30.4 25.6 29.6 25.6 28.8 25.6 28 25.6 27.2 25.6 26.4 25.6 25.6 25.6 24.8 25.6 24 25.6 23.2 25.6 22.4 25.6 21.6 25.6 20.8 25.6 20 25.6 19.2 25.6 18.4 24.8 18.4 25.6 17.6 25.6 16.8 25.6 16 25.6 15.2 25.6 14.4 25.6 13.6 25.6 12.8 25.6 12 25.6 11.2 25.6 10.4 25.6 9.6 26.4 8.8 27.2 8 27.2 7.2 28 7.2 28.8 6.4 29.6 5.6 30.4 4.8 31.2 4 31.2 3.2 32 3.2 32 2.4 32 1.6 32 0.8 32 0 31.2 0.8 30.4 1.6"/><polygon class="cls-1" points="28.8 36.8 28.8 37.6 28.8 38.4 28.8 39.2 28.8 40 28 40.8 28.8 41.6 29.6 42.4 30.4 43.2 30.4 42.4 30.4 41.6 30.4 40.8 30.4 40 30.4 39.2 30.4 38.4 29.6 37.6 28.8 36.8"/><polygon class="cls-1" points="11.2 40 11.2 40.8 11.2 41.6 10.4 42.4 11.2 43.2 11.2 44 11.2 44.8 11.2 45.6 11.2 46.4 10.4 47.2 11.2 48 11.2 48.8 11.2 49.6 12 48.8 12.8 48 12 47.2 12.8 47.2 12.8 46.4 12.8 45.6 12.8 44.8 12.8 44 12.8 43.2 12.8 42.4 12.8 41.6 12 40.8 12.8 40 12.8 39.2 12.8 38.4 12 39.2 11.2 40"/><polygon class="cls-1" points="6.4 51.2 6.4 52 6.4 52.8 6.4 53.6 7.2 53.6 8 53.6 8 52.8 8 52 8 51.2 8 50.4 8 49.6 7.2 50.4 6.4 51.2"/><line class="cls-2" x1="64" y1="64" y2="64"/><line class="cls-2" x2="64"/></g></g></svg>