<svg xmlns="http://www.w3.org/2000/svg" viewBox="0 0 64 64"><defs><style>.cls-1{fill:#c0b8ac;}.cls-2{fill:none;}</style></defs><g id="Layer_2" data-name="Layer 2"><g id="Layer_1-2" data-name="Layer 1"><polygon class="cls-1" points="50.4 55.2 49.6 54.4 48.8 55.2 49.6 56 50.4 56 51.2 56 50.4 55.2"/><polygon class="cls-1" points="45.6 52 44.8 52.8 44 53.6 43.2 54.4 42.4 55.2 41.6 56 40.8 56.8 40 57.6 39.2 58.4 38.4 59.2 37.6 58.4 36.8 57.6 36 56.8 35.2 56 34.4 55.2 33.6 56 32.8 56.8 32 57.6 31.2 56.8 30.4 56 29.6 55.2 28.8 56 28 56.8 27.2 57.6 26.4 58.4 25.6 59.2 24.8 58.4 24 57.6 23.2 56.8 22.4 56 21.6 55.2 20.8 54.4 20 53.6 19.2 52.8 18.4 52 17.6 51.2 16.8 52 17.6 52.8 18.4 53.6 19.2 54.4 20 55.2 20.8 56 21.6 56.8 22.4 57.6 23.2 58.4 24 59.2 24.8 60 25.6 60.8 26.4 60 27.2 59.2 28 58.4 28.8 57.6 29.6 56.8 30.4 57.6 31.2 58.4 32 59.2 32.8 58.4 33.6 57.6 34.4 56.8 35.2 57.6 36 58.4 36.8 59.2 37.6 60 38.4 60.8 39.2 60 40 59.2 40.8 58.4 41.6 57.6 42.4 56.8 43.2 56 44 55.2 44 54.4 44.8 54.4 45.6 53.6 46.4 52.8 47.2 52 46.4 51.2 45.6 52"/><polygon class="cls-1" points="44.8 61.6 44 61.6 44 62.4 44.8 62.4 45.6 62.4 46.4 62.4 45.6 61.6 44.8 61.6"/><polygon class="cls-1" points="45.6 58.4 44.8 57.6 44 58.4 44.8 58.4 45.6 58.4"/><polygon class="cls-1" points="41.6 60.8 40.8 61.6 41.6 61.6 42.4 61.6 43.2 60.8 42.4 60 41.6 60.8"/><polygon class="cls-1" points="20.8 46.4 21.6 47.2 22.4 48 23.2 48.8 24 49.6 24.8 50.4 25.6 51.2 26.4 50.4 27.2 49.6 28 48.8 28.8 48 29.6 47.2 30.4 46.4 31.2 45.6 32 44.8 32.8 45.6 33.6 46.4 34.4 47.2 35.2 48 36 48.8 36.8 49.6 37.6 50.4 38.4 51.2 39.2 50.4 40 49.6 40.8 48.8 41.6 48 42.4 47.2 43.2 46.4 43.2 45.6 44 45.6 43.2 44.8 44 44.8 44.8 44.8 44.8 44 44.8 43.2 44 42.4 43.2 41.6 42.4 40.8 41.6 40 40.8 39.2 40 39.2 40 40 40 40.8 40 41.6 40 42.4 40 43.2 40.8 44 41.6 44.8 40.8 44.8 40 44.8 39.2 45.6 38.4 46.4 37.6 45.6 36.8 44.8 36 44.8 35.2 44.8 36 44 36.8 43.2 36.8 42.4 36.8 41.6 36.8 40.8 36.8 40 36.8 39.2 36 39.2 35.2 39.2 35.2 40 36 40.8 35.2 41.6 34.4 42.4 33.6 43.2 32.8 42.4 32.8 41.6 32.8 40.8 32.8 40 32.8 39.2 32 39.2 31.2 39.2 31.2 40 31.2 40.8 31.2 41.6 31.2 42.4 30.4 43.2 29.6 42.4 28.8 41.6 28 40.8 28.8 40 28.8 39.2 28 39.2 27.2 39.2 27.2 40 27.2 40.8 27.2 41.6 27.2 42.4 27.2 43.2 28 44 28.8 44.8 28 44.8 27.2 44.8 26.4 45.6 25.6 46.4 24.8 45.6 24 44.8 23.2 44.8 22.4 44.8 23.2 44 24 43.2 24 42.4 24 41.6 24 40.8 24 40 24 39.2 23.2 39.2 22.4 40 21.6 40.8 20.8 41.6 20 42.4 19.2 43.2 19.2 44 19.2 44.8 20 45.6 20.8 46.4"/><polygon class="cls-1" points="20 48.8 20.8 49.6 21.6 50.4 22.4 51.2 23.2 52 24 52.8 24.8 52.8 24.8 53.6 25.6 54.4 26.4 53.6 27.2 52.8 28 52 28.8 51.2 29.6 50.4 30.4 51.2 31.2 52 32 52.8 32.8 52 33.6 51.2 34.4 50.4 35.2 51.2 36 52 36.8 52.8 37.6 53.6 38.4 54.4 39.2 53.6 40 52.8 40.8 52 41.6 51.2 42.4 50.4 43.2 49.6 44 48.8 44.8 48 45.6 47.2 44.8 46.4 44 46.4 44 47.2 43.2 48 42.4 48.8 41.6 49.6 40.8 50.4 40 51.2 39.2 52 38.4 52.8 37.6 52 36.8 51.2 36 50.4 35.2 49.6 34.4 48.8 33.6 48 32.8 47.2 32.8 48 32.8 48.8 33.6 49.6 32.8 50.4 32 51.2 31.2 50.4 30.4 49.6 31.2 48.8 32 49.6 32 48.8 32 48 32.8 47.2 32 46.4 31.2 47.2 30.4 48 29.6 48.8 28.8 49.6 28 50.4 27.2 51.2 26.4 52 25.6 52.8 24.8 52 24 51.2 23.2 50.4 22.4 49.6 21.6 48.8 20.8 48 20 47.2 19.2 46.4 18.4 47.2 19.2 48 20 48.8"/><polygon class="cls-1" points="19.2 50.4 19.2 51.2 20 52 20.8 52.8 21.6 53.6 22.4 54.4 23.2 55.2 24 56 24.8 56.8 25.6 57.6 26.4 56.8 26.4 56 27.2 56 28 55.2 28.8 54.4 29.6 53.6 30.4 54.4 31.2 55.2 32 56 32.8 55.2 33.6 54.4 34.4 53.6 35.2 54.4 36 55.2 36.8 56 37.6 56.8 38.4 57.6 39.2 56.8 40 56 40.8 55.2 41.6 54.4 42.4 53.6 43.2 52.8 44 52 44.8 51.2 45.6 50.4 46.4 49.6 45.6 48.8 44.8 49.6 44 50.4 43.2 51.2 42.4 52 41.6 52.8 40.8 53.6 40 54.4 39.2 55.2 38.4 56 37.6 55.2 36.8 54.4 36 53.6 35.2 52.8 34.4 52 33.6 52.8 32.8 53.6 32 54.4 31.2 53.6 30.4 52.8 29.6 52 28.8 52.8 28 53.6 27.2 54.4 26.4 55.2 25.6 56 24.8 55.2 24 54.4 23.2 53.6 22.4 52.8 21.6 52 20.8 51.2 20 50.4 19.2 49.6 18.4 48.8 17.6 49.6 18.4 50.4 19.2 50.4"/><polygon class="cls-1" points="16.8 56 16.8 56.8 17.6 56.8 18.4 56.8 17.6 56 16.8 56"/><polygon class="cls-1" points="14.4 54.4 13.6 55.2 14.4 55.2 15.2 55.2 16 55.2 16 54.4 15.2 54.4 14.4 54.4"/><line class="cls-2" x1="64" y1="64" y2="64"/><line class="cls-2" x2="64"/></g></g></svg>