<svg xmlns="http://www.w3.org/2000/svg" viewBox="0 0 64 64"><defs><style>.cls-1{fill:#a49e96;}.cls-2{fill:none;}</style></defs><g id="Layer_2" data-name="Layer 2"><g id="Layer_1-2" data-name="Layer 1"><polygon class="cls-1" points="52.8 54.4 52 55.2 52.8 55.2 53.6 55.2 52.8 54.4"/><polygon class="cls-1" points="49.6 56 48.8 55.2 48.8 56 48.8 56.8 49.6 56.8 50.4 56.8 51.2 56.8 51.2 56 50.4 56 49.6 56"/><polygon class="cls-1" points="46.4 59.2 47.2 59.2 48 59.2 47.2 58.4 46.4 59.2"/><polygon class="cls-1" points="44.8 62.4 44 62.4 44 63.2 44.8 63.2 45.6 63.2 46.4 63.2 46.4 62.4 45.6 62.4 44.8 62.4"/><polygon class="cls-1" points="44 58.4 44 59.2 44.8 59.2 45.6 59.2 45.6 58.4 44.8 58.4 44 58.4"/><polygon class="cls-1" points="44.8 56 45.6 55.2 46.4 54.4 47.2 53.6 47.2 52.8 47.2 52 46.4 52.8 45.6 53.6 44.8 54.4 44 54.4 44 55.2 43.2 56 42.4 56.8 41.6 57.6 40.8 58.4 40 59.2 39.2 60 38.4 60.8 37.6 60 36.8 59.2 36 58.4 35.2 57.6 34.4 56.8 33.6 57.6 32.8 58.4 32 59.2 31.2 58.4 30.4 57.6 29.6 56.8 28.8 57.6 28 58.4 27.2 59.2 26.4 60 25.6 60.8 24.8 60 24 59.2 23.2 58.4 22.4 57.6 21.6 56.8 20.8 56 20 55.2 19.2 54.4 18.4 53.6 17.6 52.8 16.8 52 16.8 52.8 16.8 53.6 17.6 54.4 18.4 55.2 19.2 56 20 56.8 20.8 57.6 21.6 58.4 22.4 59.2 23.2 60 24 60.8 24.8 61.6 25.6 62.4 26.4 61.6 27.2 60.8 28 60 28.8 59.2 29.6 58.4 30.4 59.2 31.2 60 32 60.8 32.8 60 33.6 59.2 34.4 58.4 35.2 59.2 36 60 36.8 60.8 37.6 61.6 38.4 62.4 39.2 61.6 40 60.8 40.8 60 41.6 59.2 42.4 58.4 43.2 57.6 43.2 56.8 44 56.8 44.8 56"/><polygon class="cls-1" points="41.6 61.6 40.8 61.6 40.8 62.4 41.6 62.4 42.4 62.4 43.2 62.4 43.2 61.6 43.2 60.8 42.4 61.6 41.6 61.6"/><polygon class="cls-1" points="32 46.4 32.8 47.2 33.6 48 34.4 48.8 35.2 49.6 36 50.4 36.8 51.2 37.6 52 38.4 52.8 39.2 52 40 51.2 40.8 50.4 41.6 49.6 42.4 48.8 43.2 48 44 47.2 44 46.4 44.8 46.4 44.8 45.6 44.8 44.8 44 44.8 43.2 44.8 44 45.6 43.2 45.6 43.2 46.4 42.4 47.2 41.6 48 40.8 48.8 40 49.6 39.2 50.4 38.4 51.2 37.6 50.4 36.8 49.6 36 48.8 35.2 48 34.4 47.2 33.6 46.4 32.8 45.6 32.8 46.4 32 46.4"/><polygon class="cls-1" points="20.8 48 21.6 48.8 22.4 49.6 23.2 50.4 24 51.2 24.8 52 25.6 52.8 26.4 52 27.2 51.2 28 50.4 28.8 49.6 29.6 48.8 30.4 48 31.2 47.2 32 46.4 32.8 45.6 32 44.8 31.2 45.6 30.4 46.4 29.6 47.2 28.8 48 28 48.8 27.2 49.6 26.4 50.4 25.6 51.2 24.8 50.4 24 49.6 23.2 48.8 22.4 48 21.6 47.2 20.8 46.4 20 45.6 19.2 44.8 19.2 45.6 19.2 46.4 20 47.2 20.8 48"/><polygon class="cls-1" points="20 50.4 20.8 51.2 21.6 52 22.4 52.8 23.2 53.6 24 54.4 24.8 55.2 25.6 56 26.4 55.2 27.2 54.4 28 53.6 28.8 52.8 29.6 52 30.4 52.8 31.2 53.6 32 54.4 32.8 53.6 33.6 52.8 34.4 52 35.2 52.8 36 53.6 36.8 54.4 37.6 55.2 38.4 56 39.2 55.2 40 54.4 40.8 53.6 41.6 52.8 42.4 52 43.2 51.2 44 50.4 44.8 49.6 45.6 48.8 45.6 48 45.6 47.2 44.8 48 44 48.8 43.2 49.6 42.4 50.4 41.6 51.2 40.8 52 40 52.8 39.2 53.6 38.4 54.4 37.6 53.6 36.8 52.8 36 52 35.2 51.2 34.4 50.4 33.6 51.2 32.8 52 32 52.8 31.2 52 30.4 51.2 29.6 50.4 28.8 51.2 28 52 27.2 52.8 26.4 53.6 25.6 54.4 24.8 53.6 24.8 52.8 24 52.8 23.2 52 22.4 51.2 21.6 50.4 20.8 49.6 20 48.8 19.2 48 18.4 47.2 18.4 48 18.4 48.8 19.2 49.6 20 50.4"/><polygon class="cls-1" points="19.2 52.8 20 53.6 20.8 54.4 21.6 55.2 22.4 56 23.2 56.8 24 57.6 24.8 58.4 25.6 59.2 26.4 58.4 27.2 57.6 28 56.8 28.8 56 29.6 55.2 30.4 56 31.2 56.8 32 57.6 32.8 56.8 33.6 56 34.4 55.2 35.2 56 36 56.8 36.8 57.6 37.6 58.4 38.4 59.2 39.2 58.4 40 57.6 40.8 56.8 41.6 56 42.4 55.2 43.2 54.4 44 53.6 44.8 52.8 45.6 52 46.4 51.2 46.4 50.4 46.4 49.6 45.6 50.4 44.8 51.2 44 52 43.2 52.8 42.4 53.6 41.6 54.4 40.8 55.2 40 56 39.2 56.8 38.4 57.6 37.6 56.8 36.8 56 36 55.2 35.2 54.4 34.4 53.6 33.6 54.4 32.8 55.2 32 56 31.2 55.2 30.4 54.4 29.6 53.6 28.8 54.4 28 55.2 27.2 56 26.4 56 26.4 56.8 25.6 57.6 24.8 56.8 24 56 23.2 55.2 22.4 54.4 21.6 53.6 20.8 52.8 20 52 19.2 51.2 19.2 50.4 18.4 50.4 17.6 49.6 17.6 50.4 17.6 51.2 18.4 52 19.2 52.8"/><polygon class="cls-1" points="16.8 56.8 16.8 57.6 17.6 57.6 18.4 57.6 18.4 56.8 17.6 56.8 16.8 56.8"/><polygon class="cls-1" points="14.4 55.2 13.6 55.2 12.8 56 13.6 56 14.4 56 15.2 56 16 56 16 55.2 15.2 55.2 14.4 55.2"/><polygon class="cls-1" points="4 55.2 3.2 54.4 2.4 55.2 3.2 55.2 4 55.2"/><line class="cls-2" x1="64" y1="64" y2="64"/><line class="cls-2" x2="64"/></g></g></svg>