<svg xmlns="http://www.w3.org/2000/svg" viewBox="0 0 64 64"><defs><style>.cls-1{fill:#fecb49;}.cls-2{fill:none;}</style></defs><g id="Layer_2" data-name="Layer 2"><g id="Layer_1-2" data-name="Layer 1"><polygon class="cls-1" points="43.2 25.6 43.2 24.8 43.2 24 42.4 24.8 43.2 25.6"/><polygon class="cls-1" points="40.8 32 40.8 32.8 41.6 33.6 41.6 32.8 41.6 32 40.8 31.2 40.8 32"/><polygon class="cls-1" points="40.8 19.2 40.8 18.4 40 19.2 40.8 20 40.8 19.2"/><polygon class="cls-1" points="40 25.6 40 26.4 40 27.2 40.8 26.4 40 25.6"/><polygon class="cls-1" points="36.8 20.8 36.8 20 36.8 19.2 36 20 36.8 20.8"/><polygon class="cls-1" points="36 27.2 36.8 27.2 36 26.4 36 27.2"/><polygon class="cls-1" points="36 24.8 35.2 25.6 36 26.4 36 25.6 36 24.8"/><polygon class="cls-1" points="35.2 16 35.2 16.8 35.2 17.6 36 17.6 36.8 17.6 36 16.8 35.2 16"/><polygon class="cls-1" points="35.2 32.8 35.2 33.6 36 32.8 35.2 32 35.2 32.8"/><polygon class="cls-1" points="35.2 29.6 35.2 28.8 34.4 29.6 35.2 30.4 35.2 29.6"/><polygon class="cls-1" points="32.8 46.4 32.8 45.6 32 46.4 32.8 46.4"/><polygon class="cls-1" points="32 48.8 32 49.6 32.8 48.8 32.8 48 32.8 47.2 32 48 32 48.8"/><polygon class="cls-1" points="28.8 33.6 28.8 32.8 28.8 32 28 32.8 28.8 33.6"/><polygon class="cls-1" points="28.8 30.4 28.8 29.6 28 29.6 28.8 30.4"/><polygon class="cls-1" points="28 17.6 28.8 17.6 28 16.8 28 17.6"/><polygon class="cls-1" points="28 19.2 28 20 28.8 19.2 28 18.4 28 19.2"/><polygon class="cls-1" points="28 32 28.8 32 28 31.2 28 32"/><polygon class="cls-1" points="28 26.4 27.2 27.2 28 27.2 28 26.4"/><polygon class="cls-1" points="24 33.6 24 32.8 23.2 32.8 24 33.6"/><polygon class="cls-1" points="24 26.4 24 25.6 23.2 26.4 24 26.4"/><polygon class="cls-1" points="24 20.8 24 20 24 19.2 23.2 20 24 20.8"/><polygon class="cls-1" points="23.2 31.2 22.4 32 23.2 32.8 23.2 32 23.2 31.2"/><polygon class="cls-1" points="23.2 24.8 22.4 24 22.4 24.8 22.4 25.6 23.2 25.6 23.2 24.8"/><rect class="cls-1" x="22.4" y="26.4" width="0.8" height="0.8"/><polygon class="cls-1" points="22.4 17.6 22.4 18.4 23.2 18.4 22.4 17.6"/><line class="cls-2" x1="64" y1="64" y2="64"/><line class="cls-2" x2="64"/></g></g></svg>