<svg xmlns="http://www.w3.org/2000/svg" viewBox="0 0 32 32"><defs><style>.cls-1{fill:#c0b8ac;}.cls-2{fill:none;}</style></defs><g id="Layer_2" data-name="Layer 2"><g id="Layer_1-2" data-name="Layer 1"><polygon class="cls-1" points="29.6 12.8 28.8 12.8 28 12.8 28 13.6 28.8 14.4 29.6 13.6 30.4 12.8 29.6 12.8"/><path class="cls-1" d="M27.2,8.8H25.6l.8.8H24.8l.8-.8H24L23.2,8H21.6l.8-.8.8-.8.8-.8V4H22.4l.8.8H21.6l.8-.8H17.6l.8-.8V2.4H16l.8.8H12l.8-.8H8l.8-.8V0H7.2L6.4.8H5.6v.8l.8.8.8.8L8,4l.8.8H7.2l-.8.8H1.6l.8.8H.8L0,7.2H3.2L4,6.4l.8.8V8.8H6.4l.8.8L8,8.8H9.6l.8.8.8.8.8.8.8.8.8.8.8.8h3.2l.8-.8.8-.8H17.6l.8-.8.8.8.8-.8.8-.8.8-.8.8.8H24l.8.8.8.8H28v-.8H26.4l.8-.8.8-.8.8-.8H27.2Zm-12-4H13.6l.8-.8ZM9.6,3.2h.8l.8.8H9.6Zm.8,2.4h.8l.8.8.8.8.8.8.8.8.8.8.8-.8.8-.8.8-.8.8-.8H16v.8l-.8.8-.8-.8V5.6h4.8l.8.8-.8.8-.8.8-.8.8-.8.8H16v.8l-.8.8-.8-.8-.8-.8V8.8h-.8L12,8l-.8-.8V6.4h-.8l-.8-.8ZM8,6.4h.8l.8.8H6.4l.8-.8ZM20.8,9.6H18.4l.8-.8L20,8l.8.8Z" transform="translate(0.8 11.2)"/><polygon class="cls-1" points="24 27.2 23.2 27.2 22.4 27.2 21.6 27.2 20.8 27.2 20 27.2 19.2 27.2 18.4 27.2 17.6 27.2 16.8 27.2 16 27.2 15.2 27.2 14.4 27.2 13.6 27.2 12.8 27.2 12 27.2 11.2 27.2 10.4 26.4 9.6 26.4 8.8 26.4 9.6 27.2 10.4 28 11.2 28 12 28 12.8 28 13.6 28 14.4 28 15.2 28 16 28 16.8 28 17.6 28 18.4 28 19.2 28 20 28 20.8 28 21.6 28 22.4 28 23.2 28 24 28 24.8 28 25.6 28 25.6 27.2 24.8 27.2 24 27.2"/><polygon class="cls-1" points="22.4 26.4 23.2 26.4 24 26.4 24.8 26.4 24.8 25.6 24 25.6 23.2 25.6 22.4 25.6 21.6 25.6 20.8 25.6 21.6 26.4 22.4 26.4"/><polygon class="cls-1" points="16 26.4 16.8 26.4 17.6 26.4 18.4 26.4 19.2 26.4 20 26.4 20.8 25.6 20 25.6 19.2 25.6 18.4 25.6 17.6 25.6 16.8 25.6 16 25.6 15.2 25.6 14.4 25.6 15.2 26.4 16 26.4"/><polygon class="cls-1" points="12.8 25.6 12 25.6 11.2 25.6 12 26.4 12.8 25.6"/><polygon class="cls-1" points="2.4 15.2 1.6 16 2.4 16.8 2.4 16 2.4 15.2"/><line class="cls-2" x1="32" y1="32" y2="32"/><line class="cls-2" x2="32"/></g></g></svg>