<svg xmlns="http://www.w3.org/2000/svg" viewBox="0 0 32 32"><defs><style>.cls-1{fill:#4c3f39;}.cls-2{fill:none;}</style></defs><g id="Layer_2" data-name="Layer 2"><g id="Layer_1-2" data-name="Layer 1"><polygon class="cls-1" points="9.6 17.6 9.6 18.4 10.4 18.4 9.6 17.6"/><polygon class="cls-1" points="30.4 17.6 29.6 16.8 28.8 16 28.8 16.8 28.8 17.6 29.6 18.4 30.4 19.2 31.2 18.4 30.4 17.6"/><polygon class="cls-1" points="28.8 14.4 28 13.6 28 12.8 28 12 28 11.2 28 10.4 27.2 9.6 27.2 10.4 27.2 11.2 27.2 12 27.2 12.8 26.4 13.6 27.2 14.4 28 15.2 28 16 28.8 16 28.8 15.2 28.8 14.4"/><polygon class="cls-1" points="27.2 8 27.2 7.2 27.2 6.4 26.4 5.6 25.6 4.8 24.8 4.8 24.8 5.6 25.6 6.4 26.4 7.2 26.4 8 26.4 8.8 27.2 9.6 27.2 8.8 27.2 8"/><polygon class="cls-1" points="25.6 24.8 24.8 24.8 25.6 25.6 26.4 26.4 27.2 25.6 26.4 24.8 25.6 24.8"/><polygon class="cls-1" points="25.6 14.4 24.8 15.2 25.6 15.2 25.6 14.4"/><polygon class="cls-1" points="25.6 22.4 24.8 21.6 24 21.6 23.2 21.6 24 22.4 24.8 23.2 25.6 22.4"/><polygon class="cls-1" points="23.2 15.2 23.2 16 24 16 23.2 15.2"/><polygon class="cls-1" points="20 20 20.8 20 21.6 20 20.8 19.2 20 20"/><polygon class="cls-1" points="16.8 8 16.8 7.2 16.8 6.4 16.8 5.6 16 4.8 16 5.6 16 6.4 16 7.2 16 8 16.8 8.8 16.8 8"/><polygon class="cls-1" points="16 12.8 15.2 12 14.4 12.8 15.2 12.8 15.2 13.6 16 14.4 16.8 14.4 17.6 14.4 16.8 13.6 16 12.8"/><polygon class="cls-1" points="13.6 25.6 12.8 25.6 12 26.4 12.8 26.4 13.6 26.4 14.4 26.4 15.2 26.4 14.4 25.6 13.6 25.6"/><polygon class="cls-1" points="11.2 14.4 11.2 15.2 12 15.2 11.2 14.4"/><polygon class="cls-1" points="9.6 20 8.8 20 9.6 20.8 10.4 20.8 11.2 20.8 10.4 20 9.6 20"/><polygon class="cls-1" points="8.8 24 8 24 7.2 24.8 8 24.8 8.8 24.8 9.6 24.8 10.4 24.8 9.6 24 8.8 24"/><polygon class="cls-1" points="6.4 20 5.6 20 6.4 20.8 7.2 20 6.4 20"/><polygon class="cls-1" points="4 16.8 3.2 16 3.2 15.2 3.2 14.4 3.2 13.6 3.2 12.8 2.4 12 2.4 12.8 2.4 13.6 2.4 14.4 2.4 15.2 2.4 16 2.4 16.8 3.2 16.8 4 16.8"/><line class="cls-2" x1="32" y1="32" y2="32"/><line class="cls-2" x2="32"/></g></g></svg>