<svg xmlns="http://www.w3.org/2000/svg" viewBox="0 0 32 32"><defs><style>.cls-1{fill:#2d2421;}.cls-2{fill:none;}</style></defs><g id="Layer_2" data-name="Layer 2"><g id="Layer_1-2" data-name="Layer 1"><path class="cls-1" d="M28.8,14.4l-.8-.8V12h-.8v-.8l-.8-.8-.8-.8.8-.8V5.6l-.8-.8V3.2l-.8-.8L24,1.6V.8H21.6l-.8.8-.8.8V4l-.8.8-.8.8v.8h-.8l-.8-.8L16,4.8,15.2,4V.8L14.4,0H12.8L12,.8l-.8.8-.8.8V5.6l-.8.8-.8.8V8.8L8,9.6h4.8l-.8.8h3.2l-.8-.8V8.8h-.8l.8-.8.8.8.8.8h2.4v.8l-.8.8H24l.8-.8v.8H24v1.6l-.8.8-.8.8-.8.8h1.6l.8.8h4.8l.8-.8ZM24.8,4V6.4H24l-.8.8H21.6V6.4h-.8V5.6h.8v.8H24V4h-.8V5.6l-.8-.8L21.6,4l.8-.8H24ZM15.2,5.6l-.8.8H12.8V3.2l.8.8V5.6h.8V4.8Zm12,8v.8H25.6l.8-.8.8-.8Zm-.8-.8h-.8V12h.8Z" transform="translate(0.8 4)"/><polygon class="cls-1" points="27.2 24 26.4 23.2 25.6 22.4 24.8 23.2 24 22.4 23.2 21.6 22.4 20.8 21.6 21.6 20.8 22.4 20 23.2 19.2 24 18.4 24.8 17.6 25.6 18.4 25.6 19.2 25.6 20 25.6 20.8 25.6 21.6 25.6 22.4 25.6 23.2 25.6 24 25.6 24.8 25.6 24.8 26.4 25.6 27.2 26.4 27.2 27.2 27.2 28 27.2 28 26.4 27.2 25.6 26.4 26.4 25.6 25.6 24.8 24.8 25.6 24.8 26.4 24.8 27.2 25.6 28 25.6 28.8 25.6 28 24.8 27.2 24"/><polygon class="cls-1" points="26.4 20.8 27.2 20.8 26.4 20 25.6 20.8 26.4 20.8"/><polygon class="cls-1" points="23.2 8.8 24 8 23.2 8 23.2 8.8"/><polygon class="cls-1" points="23.2 16 23.2 15.2 22.4 16 23.2 16"/><polygon class="cls-1" points="20.8 26.4 21.6 26.4 20.8 25.6 20 26.4 20.8 26.4"/><polygon class="cls-1" points="20.8 20.8 21.6 20.8 21.6 20 20.8 20 20 20 19.2 20.8 20 20.8 20.8 20.8"/><polygon class="cls-1" points="18.4 23.2 19.2 23.2 20 23.2 19.2 22.4 18.4 23.2"/><polygon class="cls-1" points="14.4 16 15.2 16 16 16 15.2 15.2 14.4 16"/><polygon class="cls-1" points="14.4 26.4 13.6 26.4 12.8 26.4 12 26.4 12 27.2 12.8 27.2 13.6 27.2 14.4 27.2 15.2 27.2 16 27.2 15.2 26.4 14.4 26.4"/><rect class="cls-1" x="10.4" y="14.4" width="0.8" height="0.8"/><polygon class="cls-1" points="8.8 28 8.8 27.2 8.8 26.4 9.6 26.4 10.4 26.4 11.2 26.4 11.2 25.6 10.4 24.8 9.6 24.8 8.8 24.8 8 24.8 7.2 24.8 6.4 25.6 5.6 26.4 6.4 27.2 7.2 27.2 8 27.2 8.8 28"/><polygon class="cls-1" points="8.8 24 9.6 24 10.4 24.8 11.2 24.8 12 24.8 12.8 24.8 13.6 24.8 14.4 24.8 15.2 24.8 14.4 24 13.6 23.2 12.8 22.4 12 21.6 11.2 20.8 10.4 20.8 9.6 20.8 8.8 20 8 20.8 7.2 20 6.4 20.8 5.6 20 5.6 19.2 5.6 18.4 4.8 17.6 4 18.4 3.2 19.2 2.4 20 1.6 20.8 0.8 21.6 1.6 21.6 2.4 21.6 3.2 22.4 4 23.2 4.8 23.2 5.6 23.2 4.8 24 4 24.8 4.8 24.8 5.6 24.8 6.4 24.8 7.2 24.8 8 24 8.8 24"/><polygon class="cls-1" points="8 17.6 7.2 18.4 8 18.4 8.8 18.4 9.6 18.4 9.6 17.6 8.8 17.6 8 17.6"/><polygon class="cls-1" points="4 26.4 4.8 26.4 5.6 26.4 4.8 25.6 4 26.4"/><polygon class="cls-1" points="3.2 13.6 3.2 14.4 3.2 15.2 3.2 16 4 16.8 4.8 16.8 5.6 16.8 6.4 16.8 7.2 16.8 8 16 8.8 16 9.6 16 8.8 15.2 8 14.4 7.2 13.6 6.4 12.8 6.4 13.6 6.4 14.4 5.6 14.4 4.8 14.4 5.6 13.6 4.8 12.8 5.6 12 5.6 12.8 6.4 12.8 6.4 12 6.4 11.2 5.6 10.4 4.8 9.6 4 10.4 3.2 11.2 2.4 12 3.2 12.8 3.2 13.6"/><polygon class="cls-1" points="0.8 23.2 1.6 23.2 2.4 23.2 1.6 22.4 0.8 23.2"/><line class="cls-2" x1="32" y1="32" y2="32"/><line class="cls-2" x2="32"/></g></g></svg>