<svg xmlns="http://www.w3.org/2000/svg" viewBox="0 0 32 32"><defs><style>.cls-1{fill:#eee1d9;}.cls-2{fill:none;}</style></defs><g id="Layer_2" data-name="Layer 2"><g id="Layer_1-2" data-name="Layer 1"><polygon class="cls-1" points="27.2 17.6 26.4 18.4 27.2 18.4 28 18.4 28 17.6 28 16.8 27.2 17.6"/><rect class="cls-1" x="26.4" y="16" width="0.8" height="0.8"/><polygon class="cls-1" points="24 9.6 24 8.8 24 8 23.2 8.8 24 9.6"/><polygon class="cls-1" points="24 7.2 23.2 7.2 22.4 8 23.2 8.8 23.2 8 24 8 24.8 8 24.8 8.8 24.8 9.6 24.8 10.4 25.6 10.4 25.6 9.6 25.6 8.8 25.6 8 24.8 7.2 24 7.2"/><polygon class="cls-1" points="23.2 10.4 22.4 10.4 22.4 11.2 23.2 11.2 24 11.2 24.8 10.4 24 10.4 23.2 10.4"/><rect class="cls-1" x="21.6" y="9.6" width="0.8" height="0.8"/><polygon class="cls-1" points="15.2 10.4 16 9.6 15.2 8.8 15.2 9.6 14.4 9.6 14.4 8.8 14.4 8 13.6 7.2 13.6 8 13.6 8.8 13.6 9.6 13.6 10.4 14.4 10.4 15.2 10.4"/><polygon class="cls-1" points="5.6 12 4.8 12.8 5.6 13.6 4.8 14.4 5.6 14.4 6.4 14.4 6.4 13.6 6.4 12.8 5.6 12.8 5.6 12"/><polygon class="cls-1" points="19.2 16.8 18.4 16.8 17.6 16.8 16.8 16.8 16 16.8 15.2 16.8 15.2 17.6 15.2 18.4 16 19.2 16.8 18.4 16.8 17.6 17.6 17.6 18.4 17.6 19.2 17.6 18.4 18.4 17.6 19.2 16.8 20 16 20.8 15.2 20 14.4 19.2 13.6 18.4 12.8 17.6 12 16.8 11.2 16.8 10.4 16.8 11.2 17.6 12 17.6 12 18.4 12.8 19.2 13.6 20 14.4 20 14.4 20.8 15.2 21.6 16 22.4 16.8 21.6 16.8 20.8 17.6 20.8 18.4 20 19.2 19.2 20 18.4 20.8 17.6 20 16.8 19.2 16.8"/><line class="cls-2" x1="32" y1="32" y2="32"/><line class="cls-2" x2="32"/></g></g></svg>