<svg xmlns="http://www.w3.org/2000/svg" viewBox="0 0 32 32"><defs><style>.cls-1{fill:#a59f96;}.cls-2{fill:none;}</style></defs><g id="Layer_2" data-name="Layer 2"><g id="Layer_1-2" data-name="Layer 1"><polygon class="cls-1" points="30.4 19.2 29.6 20 28.8 20.8 28 21.6 27.2 22.4 28 22.4 28.8 22.4 28.8 23.2 28 23.2 27.2 23.2 26.4 23.2 27.2 24 28 24.8 28.8 25.6 28.8 24.8 28.8 24 29.6 23.2 30.4 22.4 31.2 21.6 31.2 20.8 31.2 20 31.2 19.2 31.2 18.4 30.4 19.2"/><polygon class="cls-1" points="30.4 16 30.4 15.2 30.4 14.4 30.4 13.6 30.4 12.8 29.6 13.6 28.8 14.4 28.8 15.2 28.8 16 29.6 16.8 30.4 16"/><polygon class="cls-1" points="24 26.4 23.2 26.4 22.4 26.4 21.6 26.4 20.8 26.4 20 26.4 19.2 26.4 18.4 26.4 17.6 26.4 16.8 26.4 16 26.4 15.2 26.4 16 27.2 16.8 27.2 17.6 27.2 18.4 27.2 19.2 27.2 20 27.2 20.8 27.2 21.6 27.2 22.4 27.2 23.2 27.2 24 27.2 24.8 27.2 25.6 27.2 24.8 26.4 24 26.4"/><polygon class="cls-1" points="24 28 23.2 28 22.4 28 21.6 28 20.8 28 20 28 19.2 28 18.4 28 17.6 28 16.8 28 16 28 15.2 28 14.4 28 13.6 28 12.8 28 12 28 11.2 28 10.4 28 9.6 27.2 8.8 26.4 8.8 27.2 8.8 28 9.6 28.8 10.4 28.8 11.2 28.8 12 28.8 12.8 28.8 13.6 28.8 14.4 28.8 15.2 28.8 16 28.8 16.8 28.8 17.6 28.8 18.4 28.8 19.2 28.8 20 28.8 20.8 28.8 21.6 28.8 22.4 28.8 23.2 28.8 24 28.8 24.8 28.8 25.6 28.8 25.6 28 24.8 28 24 28"/><polygon class="cls-1" points="12.8 25.6 13.6 25.6 14.4 25.6 15.2 25.6 16 25.6 16.8 25.6 17.6 25.6 18.4 24.8 17.6 24.8 16.8 24.8 16 24.8 15.2 24.8 14.4 24.8 13.6 24.8 12.8 24.8 12 24.8 11.2 24.8 10.4 24.8 11.2 25.6 12 25.6 12.8 25.6"/><polygon class="cls-1" points="10.4 26.4 11.2 27.2 12 27.2 12 26.4 11.2 25.6 11.2 26.4 10.4 26.4"/><polygon class="cls-1" points="2.4 18.4 1.6 18.4 0.8 18.4 0.8 19.2 0.8 20 0.8 20.8 0.8 21.6 1.6 20.8 2.4 20 3.2 19.2 4 18.4 3.2 18.4 2.4 18.4"/><polygon class="cls-1" points="3.2 17.6 2.4 16.8 1.6 16 1.6 16.8 1.6 17.6 2.4 17.6 3.2 17.6"/><line class="cls-2" x1="32" y1="32" y2="32"/><line class="cls-2" x2="32"/></g></g></svg>