<svg xmlns="http://www.w3.org/2000/svg" viewBox="0 0 16 16"><defs><style>.cls-1{fill:#a49e96;}.cls-2{fill:none;}</style></defs><g id="Layer_2" data-name="Layer 2"><g id="Layer_1-2" data-name="Layer 1"><polygon class="cls-1" points="8 15.2 8.8 15.2 9.6 15.2 10.4 15.2 11.2 15.2 11.2 14.4 10.4 14.4 9.6 14.4 8.8 14.4 8 14.4 7.2 14.4 7.2 15.2 8 15.2"/><polygon class="cls-1" points="9.6 12 9.6 12.8 8.8 12.8 8 12.8 7.2 12.8 6.4 12.8 5.6 12.8 4.8 12.8 4 12.01 4 12 3.2 11.2 3.2 12 3.2 12.8 4 13.6 4 13.61 4.8 14.4 5.6 14.4 6.4 14.4 7.2 14.4 7.2 13.6 8 13.6 8.8 13.6 9.6 13.6 10.4 13.6 11.2 12.8 11.2 12 11.2 11.2 10.4 12 9.6 12"/><polygon class="cls-1" points="2.4 12.8 2.4 12 1.6 12 0.8 12 0.8 12.8 1.6 12.8 2.4 12.8"/><polygon class="cls-1" points="1.6 14.4 0.8 14.4 0 14.4 0 15.2 0.8 15.2 1.6 15.2 2.4 15.2 3.2 15.2 3.2 14.4 2.4 14.4 1.6 14.4"/><polygon class="cls-1" points="15.2 12 14.4 12 13.6 12 13.6 12.8 14.4 12.8 15.2 12.8 16 12.8 16 12 16 11.2 15.2 12"/><polygon class="cls-1" points="12.8 13.6 12 13.6 12 14.4 12.8 14.4 13.6 14.4 14.4 14.4 13.6 13.6 12.8 13.6"/><polygon class="cls-1" points="12.8 16 13.6 15.2 12.8 15.2 12.8 16"/><polygon class="cls-1" points="4.8 16 5.6 16 6.4 16 5.6 15.2 4.8 16"/><line class="cls-2" x2="16"/><line class="cls-2" x1="16" y1="16" y2="16"/></g></g></svg>