<svg xmlns="http://www.w3.org/2000/svg" viewBox="0 0 16 16"><defs><style>.cls-1{fill:#fdcb49;}.cls-2{fill:none;}</style></defs><g id="Layer_2" data-name="Layer 2"><g id="Layer_1-2" data-name="Layer 1"><polygon class="cls-1" points="11.2 5.6 11.2 6.4 12 5.6 11.2 5.6"/><polygon class="cls-1" points="10.4 7.2 10.4 8 11.2 8 12 7.2 11.2 7.2 10.4 7.2"/><polygon class="cls-1" points="2.4 4 3.2 4.8 3.2 4 2.4 4"/><polygon class="cls-1" points="3.2 4.8 2.4 5.6 3.2 6.4 4 5.6 3.2 5.6 3.2 4.8"/><polygon class="cls-1" points="8 0.8 8.8 0.8 8 0 8 0.8"/><polygon class="cls-1" points="7.2 0.8 6.4 1.6 7.2 2.4 8 2.4 8 1.6 7.2 1.6 7.2 0.8"/><line class="cls-2" x2="16"/><line class="cls-2" x1="16" y1="16" y2="16"/></g></g></svg>