<svg xmlns="http://www.w3.org/2000/svg" viewBox="0 0 314.5 314"><defs><style>.cls-1{fill:none;}.cls-2{fill:#1d1d1b;}</style></defs><g id="Layer_2" data-name="Layer 2"><g id="Layer_1-2" data-name="Layer 1"><g id="Layer_2-2" data-name="Layer 2"><g id="Layer_1-2-2" data-name="Layer 1-2"><line class="cls-1" x2="314.5"/><line class="cls-1" x1="314.5" y1="314" y2="314"/></g></g><polygon class="cls-2" points="287.71 111.5 271.33 106.83 251.94 117.39 280.2 89.13 277.83 70.06 260.8 70.17 230.36 100.61 263.93 54.01 256.95 36.9 240.5 40.35 208.31 84.86 207.79 84.47 231.51 43.71 224.04 27 207.91 30.32 185.77 68.38 172.95 83.83 170.9 62.6 155.39 53.95 140.67 66.5 138.48 83.31 135.12 128.57 131.48 124.94 113.33 137.31 116.91 141.17 74.32 165.73 77.53 169.23 67.97 158.91 26.79 179.53 126.36 287 151.69 249.33 145.2 242.33 176.54 205.55 181.47 210.86 197.31 190.55 194.28 187.53 233.96 160.7 233.96 160.7 284.64 130.46 287.71 111.5"/></g></g></svg>