<?xml version="1.0" encoding="utf-8"?>
<!-- Generator: Adobe Illustrator 25.2.0, SVG Export Plug-In . SVG Version: 6.00 Build 0)  -->
<svg version="1.1" id="Layer_1" xmlns="http://www.w3.org/2000/svg" xmlns:xlink="http://www.w3.org/1999/xlink" x="0px" y="0px"
	 viewBox="0 0 314.5 314" style="enable-background:new 0 0 314.5 314;" xml:space="preserve">
<style type="text/css">
	.st0{fill:none;}
	.st1{fill:#1D1D1B;}
</style>
<g id="Layer_2_1_">
	<g id="Layer_1-2">
		<g id="Layer_2-2">
			<g id="Layer_1-2-2">
				<line class="st0" x1="0" y1="0" x2="314.5" y2="0"/>
				<line class="st0" x1="314.5" y1="314" x2="0" y2="314"/>
			</g>
		</g>
	</g>
</g>
<g>
	<path class="st1" d="M39.7,124l9.1,146.9l90.7,3.9l4.2,8h16.2h16.2l4.2-8l84.9-3.7l9.5-145.8l-17.9,4.4l-7.7,121.8l-79.4,12.8
		l-8.4,9.2l-12.7-11.1l-82.1-7.3l-8.7-127.3 M253.9,91.5l-69.3,30.9l-24.8,23.2l-65.5-71l28,140.4l36.7,47.8l1.6-110l8.1,105
		l72.3-14.1L253.9,91.5z M77.9,247.5L148,256l-34.8-39.6L94.3,115.2l-32.7-13.3L77.9,247.5z"/>
	
		<rect x="158.4" y="33.5" transform="matrix(0.7071 -0.7071 0.7071 0.7071 20.4674 127.1342)" class="st1" width="10.7" height="10.7"/>
	
		<rect x="66.3" y="72.9" transform="matrix(0.7071 -0.7071 0.7071 0.7071 -33.9993 72.7739)" class="st1" width="9.1" height="9.1"/>
	
		<rect x="126.9" y="64" transform="matrix(0.7071 -0.7071 0.7071 0.7071 -10.9517 115.4476)" class="st1" width="13.9" height="13.9"/>
	
		<rect x="157.2" y="93.1" transform="matrix(0.7071 -0.7071 0.7071 0.7071 -23.4715 147.2338)" class="st1" width="17.7" height="17.7"/>
	
		<rect x="220.3" y="62.4" transform="matrix(0.7071 -0.7071 0.7071 0.7071 17.9633 179.9951)" class="st1" width="11.9" height="11.9"/>
</g>
</svg>
