<svg xmlns="http://www.w3.org/2000/svg" viewBox="0 0 314.5 314"><defs><style>.cls-1{fill:none;}.cls-2{fill:#1d1d1b;}</style></defs><g id="Layer_2" data-name="Layer 2"><g id="Layer_1-2" data-name="Layer 1"><g id="Layer_2-2" data-name="Layer 2"><g id="Layer_1-2-2" data-name="Layer 1-2"><line class="cls-1" x2="314.5"/><polygon class="cls-2" points="286.03 18.52 278.45 26.1 270.4 18.05 270.4 30.6 270.4 34.15 250.63 53.92 242.58 45.87 242.58 58.42 242.58 61.97 222.81 81.74 214.76 73.69 214.76 86.24 214.76 89.79 194.99 109.56 186.94 101.51 186.94 114.06 186.94 117.61 167.17 137.38 159.12 129.33 159.12 141.88 159.12 145.43 139.35 165.2 131.3 157.15 131.3 169.7 131.3 173.25 111.53 193.02 103.48 184.97 103.48 197.52 103.48 201.07 83.52 221.03 80.27 218.42 79.93 218.07 79.48 217.63 72.21 224.85 63.87 216.51 55.14 231.09 67.76 243.71 15.11 296.37 9.22 296.37 9.22 314 27.95 314 27.95 308.46 80.23 256.18 93.29 269.25 107.87 260.51 99.96 252.6 107.81 245.94 105.9 244.05 102.76 240.27 305.26 37.77 305.28 37.77 305.28 0 286.03 18.52"/><line class="cls-1" x1="314.5" y1="314" y2="314"/></g></g></g></g></svg>