<svg xmlns="http://www.w3.org/2000/svg" viewBox="0 0 314.5 314"><defs><style>.cls-1{fill:none;}.cls-2{fill:#1d1d1b;}</style></defs><g id="Layer_2" data-name="Layer 2"><g id="Layer_1-2" data-name="Layer 1"><g id="Layer_2-2" data-name="Layer 2"><g id="Layer_1-2-2" data-name="Layer 1-2"><line class="cls-1" x2="314.5"/><line class="cls-1" x1="314.5" y1="314" y2="314"/></g></g><path class="cls-2" d="M285,40.14,308.08,17H197.65l0-10.8L147.88,55.92l-9.07-9.08V91.36l-6.13,6.14,5.18,5.18-34.67,35.19-5.44-5.44-6.14,6.13H47.09l9.08,9.07L22.86,180.94l-.12.12h0L6.42,197.38l10.8,0V307.83l23.17-23.11V267.07L268.14,40.14ZM40.39,255.62V212.13l.46-16.4,34.39-34.39h33.6l8.91-8.91-3.4-3.4L149,113.86l3.64,3.64,8.91-8.91V75l34.84-34.85h60.41Z"/></g></g></svg>