<svg xmlns="http://www.w3.org/2000/svg" viewBox="0 0 314.5 314"><defs><style>.cls-1{fill:none;}.cls-2{fill:#1d1d1b;}</style></defs><g id="Layer_2" data-name="Layer 2"><g id="Layer_1-2" data-name="Layer 1"><g id="Layer_2-2" data-name="Layer 2"><g id="Layer_1-2-2" data-name="Layer 1-2"><line class="cls-1" x2="314.5"/><line class="cls-1" x1="314.5" y1="314" y2="314"/></g></g><path class="cls-2" d="M314.5,127.3l-26.39-83L271.92,60.51,260.6,49.19l5.09-5.1h0l1.55-1.54,2.54,2.54,9.39-9.38V17.59H261.05L251.66,27l2.55,2.55-6.64,6.64-4.4-4.4L226.7,48.23l4.4,4.4L218.57,65.16l-4-4L198.18,44.77,185.48,83.2l5,5,2.5,2.5-13.18,13.17-4.33-4.33L159,116l4.33,4.33-108,108-2.65-2.67-10,9.92,2.68,2.68-37,37L6,272.75l-6,6v18H18l6-6-2.44-2.43,37-37,2.26,2.27,9.93-9.9-2.28-2.28,108-108,11.19,11.19L167.21,165l30.66,9.86-3.94,11.77,10.18-5.06,8.61-4.29ZM244.13,65.66,255.44,77,242.9,89.5,231.6,78.19Zm-38,38.15L217.29,115l-13.18,13.16L192.91,117Z"/></g></g></svg>