<svg xmlns="http://www.w3.org/2000/svg" viewBox="0 0 314.5 314"><defs><style>.cls-1{fill:none;}.cls-2{fill:#1d1d1b;}</style></defs><g id="Layer_2" data-name="Layer 2"><g id="Layer_1-2" data-name="Layer 1"><g id="Layer_2-2" data-name="Layer 2"><g id="Layer_1-2-2" data-name="Layer 1-2"><line class="cls-1" x2="314.5"/><line class="cls-1" x1="314.5" y1="314" y2="314"/></g></g><polygon class="cls-2" points="301.47 81.91 288.45 68.88 288.45 64.31 288.45 51.82 279.92 60.35 267.11 47.54 267.11 42.98 267.11 30.49 258.59 39.01 258.57 38.99 232.85 64.64 213.63 64.64 213.63 52.43 201.42 64.64 201.42 64.64 157.42 108.65 113.44 64.67 113.44 64.67 101.21 52.43 101.21 64.64 82.07 64.64 56.55 39.12 56.55 39.11 47.93 30.49 47.93 42.98 47.93 47.64 35.15 60.38 26.6 51.82 26.6 64.31 26.6 68.9 13.56 81.9 5.04 73.38 5.04 85.87 5.04 90.39 5 90.43 23.21 108.65 59.6 108.65 59.6 129.96 95.79 166.15 95.79 232.61 157.42 284.29 157.49 284.29 219.03 232.69 219.03 166.15 255.22 129.96 255.22 108.65 291.81 108.65 310 90.43 310 85.87 310 73.38 301.47 81.91"/></g></g></svg>