<svg xmlns="http://www.w3.org/2000/svg" viewBox="0 0 314.5 314"><defs><style>.cls-1{fill:none;}.cls-2{fill:#1d1d1b;}</style></defs><g id="Layer_2" data-name="Layer 2"><g id="Layer_1-2" data-name="Layer 1"><g id="Layer_2-2" data-name="Layer 2"><g id="Layer_1-2-2" data-name="Layer 1-2"><line class="cls-1" x2="314.5"/><line class="cls-1" x1="314.5" y1="314" y2="314"/></g></g><path class="cls-2" d="M282.88,103.1l-14.31,3.46-4.23-18.78-3.17,2L262,65.1,184.78,99.55l-27.57,24L79.08,48.72l2.69,8.66,10,35.67L58.08,86.38,44,106.36,23.5,101.45l5,185.58,106,4.65,2,8.85H178l2-8.85L286,287,290.77,111l.23-9.52ZM254.76,259.47,169.1,272.8l-11.92,9.64-12.4-10.86L54,263.15,47.6,115.05,62.3,93.43l31.37,6.51,37,132.18,25.57,39.76L137,231.46,93.13,69.62l64.05,63.86L186.7,108l69-32-.82,22.48,5.05-3,5,22.83Z"/><polygon class="cls-2" points="153.94 273.87 142.3 262.84 65.52 251.51 56.94 109.2 71.03 244.16 141.69 257.02 153.94 273.87"/><polygon class="cls-2" points="156.24 262.69 156.24 140.28 164.04 264.99 156.22 271.88 156.24 262.69"/><polygon class="cls-2" points="170.93 262.69 246.04 246.15 254 103.99 238.69 237.43 170.93 262.69"/><rect class="cls-2" x="152.4" y="7.72" width="15.45" height="15.45" transform="translate(35.98 117.75) rotate(-45)"/><rect class="cls-2" x="46.32" y="56.26" width="13.25" height="13.25" transform="translate(-28.96 55.86) rotate(-45)"/><rect class="cls-2" x="120.57" y="39.9" width="15.45" height="15.45" transform="translate(3.9 104.67) rotate(-45)"/><rect class="cls-2" x="154.22" y="66.95" width="19.65" height="19.65" transform="translate(-6.25 138.48) rotate(-45)"/><rect class="cls-2" x="224.5" y="32.72" width="13.25" height="13.25" transform="translate(39.88 174.97) rotate(-45)"/></g></g></svg>