<?xml version="1.0" encoding="utf-8"?>
<!-- Generator: Adobe Illustrator 25.2.0, SVG Export Plug-In . SVG Version: 6.00 Build 0)  -->
<svg version="1.1" id="Layer_1" xmlns="http://www.w3.org/2000/svg" xmlns:xlink="http://www.w3.org/1999/xlink" x="0px" y="0px"
	 viewBox="0 0 314.5 314" style="enable-background:new 0 0 314.5 314;" xml:space="preserve">
<style type="text/css">
	.st0{fill:none;}
	.st1{fill:#1D1D1B;}
</style>
<g id="Layer_2_1_">
	<g id="Layer_1-2">
		<g id="Layer_2-2">
			<g id="Layer_1-2-2">
				<line class="st0" x1="0" y1="0" x2="314.5" y2="0"/>
				<line class="st0" x1="314.5" y1="314" x2="0" y2="314"/>
			</g>
		</g>
		<polygon class="st1" points="283.1,215.9 283.1,189.4 283.1,189.3 267.6,173.9 240.1,173.9 242.1,142.2 250.5,141.2 254.3,103.2 
			245.1,104.5 247,83.8 161.5,96.1 161.7,96.2 165.3,215.9 160.5,215.9 162.1,234 285.4,234 288,215.9 		"/>
		<polygon class="st1" points="152.3,96.2 152.5,96.1 67,83.8 68.9,104.5 59.7,103.2 63.5,141.2 71.9,142.2 73.9,173.9 46.4,173.9 
			30.9,189.3 30.9,189.4 30.9,215.9 26,215.9 28.6,234 151.9,234 153.5,215.9 148.7,215.9 		"/>
	</g>
</g>
</svg>
