<svg xmlns="http://www.w3.org/2000/svg" viewBox="0 0 314.5 314"><defs><style>.cls-1{fill:none;}</style></defs><g id="Layer_2" data-name="Layer 2"><g id="Layer_1-2" data-name="Layer 1"><line class="cls-1" x2="314.5"/><line class="cls-1" x1="314.5" y1="314" y2="314"/></g><g id="Ranged"><g id="blowgun"><polygon points="36.94 251.81 63.62 276.92 100.38 240.16 74.18 214.56 36.94 251.81"/><polygon points="266.31 168.61 266.31 74.23 277.56 62.98 251.64 37.08 151.67 137.06 119.79 105.18 106.79 102.98 83.06 79.26 73.52 76.38 76.5 86.22 100.03 109.74 102.59 123.45 133.94 154.8 81.58 207.16 107.49 233.06 159.84 180.7 192.66 213.52 188.83 217.59 201.52 254.86 224.95 246.9 243.78 228.06 251.63 204.72 213.58 191.29 209.86 195.24 177.58 162.96 237.43 103.11 237.43 128.28 247.75 128.28 247.75 92.79 255.92 84.62 255.92 168.61 266.31 168.61"/></g></g></g></svg>