<svg xmlns="http://www.w3.org/2000/svg" viewBox="0 0 314.5 314"><defs><style>.cls-1{fill:none;}</style></defs><g id="Layer_2" data-name="Layer 2"><g id="Layer_1-2" data-name="Layer 1"><line class="cls-1" x2="314.5"/><line class="cls-1" x1="314.5" y1="314" y2="314"/></g><g id="Armor"><g id="boots"><polygon points="43.83 192.94 28.88 207.92 28.88 223.69 28.88 229.77 28.88 250.88 148.53 250.88 148.53 223.69 148.5 63.14 72.86 63.14 72.86 78.22 59.92 78.22 59.92 147.68 72.85 147.68 72.83 192.94 43.83 192.94"/><polygon points="285.62 223.69 285.62 223.69 285.62 207.92 285.56 207.85 270.66 192.94 241.68 192.94 241.68 147.68 255.05 147.68 255.05 78.22 241.68 78.22 241.68 63.12 166.01 63.14 165.98 223.69 165.97 223.69 165.97 250.88 285.62 250.88 285.62 223.69"/></g></g></g></svg>