<svg xmlns="http://www.w3.org/2000/svg" viewBox="0 0 314.5 314"><defs><style>.cls-1{fill:none;}</style></defs><g id="Layer_2" data-name="Layer 2"><g id="Layer_1-2" data-name="Layer 1"><line class="cls-1" x2="314.5"/><line class="cls-1" x1="314.5" y1="314" y2="314"/></g><g id="Heavy"><g id="Doublesword"><polyline points="94.08 233.03 231.71 95.33 240.96 104.11 250.07 95 246.91 91.86 299.93 38.84 299.95 38.84 299.95 14.44 275.55 14.44 222.52 67.47 222.2 67.14 219.39 64.34 210.29 73.44 218.72 82.35 81.09 220.04"/><polyline points="220.42 80.97 82.79 218.67 73.54 209.89 64.43 219 67.59 222.15 14.57 275.16 14.55 275.16 14.55 299.56 38.95 299.56 91.98 246.53 92.3 246.86 95.11 249.66 104.21 240.56 95.78 231.65 233.41 93.96"/></g></g></g></svg>