<svg xmlns="http://www.w3.org/2000/svg" viewBox="0 0 314.5 314"><defs><style>.cls-1{fill:none;}</style></defs><g id="Layer_2" data-name="Layer 2"><g id="Layer_1-2" data-name="Layer 1"><line class="cls-1" x2="314.5"/><line class="cls-1" x1="314.5" y1="314" y2="314"/></g><g id="Ranged"><path id="HeavyCrossbow" d="M229.55,47.9l-30,10.71L170.66,29.74l0,0-.22-.22L71.82,45.94l66.52,66.52L63.81,187l.13.12,8.7,8.7L51.53,264.36l20.71,20.1h9.58l43.35-43.23L124,203.5l13.2-13.21,39.48-39.48,71.82,71.81L263,122.07v0L218.84,77.92Zm-86.13,59.48-41.7-41.71L151.67,56l21.54,21.54ZM227,191l-45.23-45.22,29.64-29.64.15-.15,23,23Z"/></g></g></svg>