<svg xmlns="http://www.w3.org/2000/svg" viewBox="0 0 314.5 314"><defs><style>.cls-1{fill:none;}</style></defs><g id="Layer_2" data-name="Layer 2"><g id="Layer_1-2" data-name="Layer 1"><line class="cls-1" x2="314.5"/><line class="cls-1" x1="314.5" y1="314" y2="314"/></g><g id="Armor"><polygon id="heavyArmor" points="240.63 49.73 204.7 49.73 157.18 86.86 109.65 49.73 73.81 49.73 52.25 28.17 8.79 71.49 24.15 86.86 33.34 86.86 33.34 149.51 76.46 125.9 76.46 117.03 94.79 135.37 94.79 171.44 83.51 171.44 83.51 211.39 87.74 211.39 85.4 255.96 157.03 285.9 227.09 255.96 224.74 211.39 228.98 211.39 228.98 171.44 219.56 171.44 219.56 135.37 238.02 116.91 238.02 125.9 281.14 149.51 281.14 86.86 290.36 86.86 305.71 71.49 262.32 28.1 240.63 49.73"/></g></g></svg>