<svg xmlns="http://www.w3.org/2000/svg" viewBox="0 0 314.5 314"><defs><style>.cls-1{fill:none;}</style></defs><g id="Layer_2" data-name="Layer 2"><g id="Layer_1-2" data-name="Layer 1"><g id="Layer_2-2" data-name="Layer 2"><g id="Layer_1-2-2" data-name="Layer 1-2"><line class="cls-1" x2="314.5"/><line class="cls-1" x1="314.5" y1="314" y2="314"/></g></g><polygon id="herb" points="268.58 208.74 215.89 197.9 222.35 195.79 290.89 120.94 193.9 150.84 172.22 176.47 181.46 137.46 154.28 23.87 121.75 134.98 130.3 172.63 116.04 149.21 32.32 100.05 80.13 185.86 98.1 195.01 96.87 194.54 32.28 206.43 96.17 231.52 122.75 227.06 122.07 227.46 100 269.05 142.54 244.31 148.01 234.37 145.51 276.11 159.27 276.11 158.22 237.9 167.89 246.31 212.67 254.25 184.21 228.7 204.17 232.49 268.58 208.74"/></g></g></svg>