<svg xmlns="http://www.w3.org/2000/svg" viewBox="0 0 314.5 314"><defs><style>.cls-1{fill:none;}</style></defs><g id="Layer_2" data-name="Layer 2"><g id="Layer_1-2" data-name="Layer 1"><line class="cls-1" x2="314.5"/><line class="cls-1" x1="314.5" y1="314" y2="314"/></g><g id="Ranged"><g id="Kunai"><path d="M179.08,149.07V181.5l-47.25,47.23-1.41-1.42-21,5.62-5.62,21,15.35,15.35,21-5.6,5.62-21-1.41-1.43L191.62,194h32.43l53.87-98.84Zm-46,107.56-11.37,3-8.33-8.33L116.46,240l11.37-3.06,8.33,8.34Z"/><path d="M135.42,132.5l47.25-47.23,1.42,1.42,21-5.62,5.63-21L195.36,44.73l-21,5.6-5.62,21,1.41,1.43L122.88,120H90.46L36.58,218.83l98.84-53.9Zm46-75.14,11.37-3,8.34,8.33L198,74l-11.36,3.06-8.33-8.34Z"/></g></g></g></svg>