<?xml version="1.0" encoding="utf-8"?>
<!-- Generator: Adobe Illustrator 25.2.0, SVG Export Plug-In . SVG Version: 6.00 Build 0)  -->
<svg version="1.1" id="Layer_1" xmlns="http://www.w3.org/2000/svg" xmlns:xlink="http://www.w3.org/1999/xlink" x="0px" y="0px"
	 viewBox="0 0 314.5 314" style="enable-background:new 0 0 314.5 314;" xml:space="preserve">
<style type="text/css">
	.st0{fill:none;}
	.st1{fill:#231F20;}
</style>
<g id="Layer_2_1_">
	<g id="Layer_1-2">
		<g id="Layer_2-2">
			<g id="Layer_1-2-2">
				<line class="st0" x1="0" y1="0" x2="314.5" y2="0"/>
				<line class="st0" x1="314.5" y1="314" x2="0" y2="314"/>
			</g>
		</g>
	</g>
</g>
<g>
	<path class="st1" d="M51,50.9v12.9v18.3v22l0,0l0,0.1v22.1v31.2v31.1l0,0l0,0.1v0.1l11,11l-11,11l11,11l-11,11V251v12.9h12.9h0
		h18.3h22.1h0l11-11l11,11h0h31.2h31.2l11.1-11.1l11,11l0,0.1l11-11l0.1,0l-0.1,0.1l10.8,10.8l-0.2,0.1h0.3h18.3H264V251v-18.2v-0.1
		v-21.9l0,0l0-0.1v-22.1v-31.2v-31.2v-22.1v-22v0V63.8V50.9H51z M237.5,237.3L237.5,237.3l-0.1,0.1l0-0.1h-12.8h-9.2l-4.5,4.5
		l-4.5-4.5h-19.2h-2.8h-22.2h-4.6h-4.6h-22.1h-22.1l-4.5,4.5l-4.5-4.5h-9.3l-6.4,6.4l-6.4-6.4l-0.1-0.1V77.5h147h12.8h0.1v0.1v12.8
		v9.2v4.5v4.5v22.1l-79.9,79.9v0.1l-42.3-42.3l10.9-10.9v-0.1v-0.1l0.1,0.1l9.1-9.1l6.5-6.4l6.4-6.5l9.2-9.1l-0.1-0.1h0.1h0.1
		l-0.1,0.1v0.1l9.1,9.1l6.4,6.4l6.4,6.4l-9.1,9.1l-6.5,6.4l-6.4,6.4v-12.9v-12.9l-6.4,6.5l-6.5,6.4l-9.1,9.1l6.4,6.4l6.4,6.4
		l9.2,9.1l9.1-9.1l6.4-6.5l6.5-6.4l9.1-9.1l0.1-0.1l10.9-10.9l-9.1-9.1l-1.7-1.7l-4.7-4.7l-4.7-4.7l-1.7-1.8l-9.1-9.1l-11-11l-11,11
		l-9.1,9.1l-1.8,1.8l-4.7,4.7l-4.7,4.7l-1.7,1.8l-9.1,9.1l-22.1,22.1l11,11l9.1,9.2l6.4,6.4l6.4,6.4l9.2,9.1l11,11l11,11v-0.1l11-11
		l11-11h0.1l9.1-9.1l6.4-6.4h0l6.4-6.5l9.1-9.1l11-11l11-11l4.6-4.6v4.6v4.6v22.1L237.5,237.3L237.5,237.3z"/>
	<polygon class="st1" points="195.2,119.7 201.6,126.2 210.8,135.3 210.8,117.1 210.8,104.1 197.8,104.1 179.5,104.1 188.7,113.3 	
		"/>
	<polygon class="st1" points="119.8,119.7 126.3,113.3 135.4,104.1 117.2,104.1 104.3,104.1 104.3,117.1 104.3,135.3 113.4,126.2 	
		"/>
</g>
</svg>
