<?xml version="1.0" encoding="utf-8"?>
<!-- Generator: Adobe Illustrator 25.2.0, SVG Export Plug-In . SVG Version: 6.00 Build 0)  -->
<svg version="1.1" id="Layer_1" xmlns="http://www.w3.org/2000/svg" xmlns:xlink="http://www.w3.org/1999/xlink" x="0px" y="0px"
	 viewBox="0 0 314.5 314" style="enable-background:new 0 0 314.5 314;" xml:space="preserve">
<style type="text/css">
	.st0{fill:none;}
</style>
<g id="Layer_2_1_">
	<g id="Layer_1-2">
		<line class="st0" x1="0" y1="0" x2="314.5" y2="0"/>
		<line class="st0" x1="314.5" y1="314" x2="0" y2="314"/>
	</g>
	<g id="Magic">
		<polygon id="magicSword" points="59,276.6 92.7,243 121.9,272.2 134.3,259.7 114,239.4 279.8,73.5 279.8,73.5 279.8,40.1 
			246.4,40.1 80.6,206 80.2,205.6 58.1,183.5 45.6,195.9 76.4,226.8 42.3,260.9 34.7,260.9 34.7,283.9 59,283.9 		"/>
	</g>
</g>
<rect x="221.3" y="18.1" transform="matrix(0.7071 -0.7071 0.7071 0.7071 49.4129 168.116)" width="12.6" height="12.6"/>
<rect x="194.9" y="41.9" transform="matrix(0.7071 -0.7071 0.7071 0.7071 25.6145 154.4759)" width="8.8" height="8.8"/>
<rect x="124.1" y="83.9" transform="matrix(0.7071 -0.7071 0.7071 0.7071 -24.8021 116.7507)" width="8.8" height="8.8"/>
<rect x="169.5" y="75.7" transform="matrix(0.7071 -0.7071 0.7071 0.7071 -6.489 148.3469)" width="12.6" height="12.6"/>
<rect x="194.9" y="1.8" transform="matrix(0.7071 -0.7071 0.7071 0.7071 53.9872 142.7249)" width="8.8" height="8.8"/>
<rect x="112.3" y="136.8" transform="matrix(0.7071 -0.7071 0.7071 0.7071 -65.7018 123.839)" width="8.8" height="8.8"/>
<rect x="254.2" y="13.2" transform="matrix(0.7071 -0.7071 0.7071 0.7071 63.3228 188.0216)" width="8.8" height="8.8"/>
</svg>
