<?xml version="1.0" encoding="utf-8"?>
<!-- Generator: Adobe Illustrator 25.2.0, SVG Export Plug-In . SVG Version: 6.00 Build 0)  -->
<svg version="1.1" id="Layer_1" xmlns="http://www.w3.org/2000/svg" xmlns:xlink="http://www.w3.org/1999/xlink" x="0px" y="0px"
	 viewBox="0 0 314.5 314" style="enable-background:new 0 0 314.5 314;" xml:space="preserve">
<style type="text/css">
	.st0{fill:none;}
</style>
<g id="Layer_2_1_">
	<g id="Layer_1-2">
		<line class="st0" x1="0" y1="0" x2="314.5" y2="0"/>
		<line class="st0" x1="314.5" y1="314" x2="0" y2="314"/>
	</g>
	<g id="Magic">
		<polygon id="magicAxe" points="43.5,274.5 50.6,267.3 47.7,264.4 194.5,117.7 208.1,131.3 179.3,160.1 231.1,176.8 292.7,115.3 
			276.2,63.4 252.7,86.9 238.9,73.2 249,63.1 233.2,47.3 223.1,57.4 217.7,51.9 173.2,96.4 178.6,101.8 31.9,248.5 28.9,245.6 
			21.8,252.8 21.8,253 21.8,274.5 43.3,274.5 		"/>
	</g>
</g>
<rect x="192.8" y="32.1" transform="matrix(0.7071 -0.7071 0.7071 0.7071 31.1902 152.0423)" width="12.6" height="12.6"/>
<rect x="244" y="30.7" transform="matrix(0.7071 -0.7071 0.7071 0.7071 47.9471 185.8804)" width="8.8" height="8.8"/>
<rect x="203.6" y="6.1" transform="matrix(0.7071 -0.7071 0.7071 0.7071 53.5176 150.1158)" width="8.8" height="8.8"/>
<rect x="162.6" y="47.1" transform="matrix(0.7071 -0.7071 0.7071 0.7071 12.5085 133.1428)" width="8.8" height="8.8"/>
</svg>
