<svg xmlns="http://www.w3.org/2000/svg" viewBox="0 0 314.5 314"><defs><style>.cls-1{fill:#5400e7;}</style></defs><g id="Layer_2" data-name="Layer 2"><g id="Layer_1-2" data-name="Layer 1"><g id="b5e31b63-280e-4f38-96cb-4ce3912872af"><g id="a7f2af64-ea2b-4d32-adbc-dcaa5fbad56d"><polyline class="cls-1" points="0 0 140.87 0 314.5 0"/><polyline class="cls-1" points="314.5 314 126.12 314 0 314"/></g></g></g><g id="Values"><g id="mDamage"><path d="M217,115.43,199.49,97.91,157.25,55.67,115,97.91,97.49,115.43,55.18,157.68l.07,0L97.49,200l17.44,17.45,42.32,42.31v-.06l42.24-42.25L217,199.92l42.31-42.24Zm-59.7,114.33v.06h-.06L85.09,157.68h.08l72.08-72.16,72.16,72.16Z"/><polygon points="157.25 126.88 126.47 157.68 157.25 188.45 157.25 188.34 188.03 157.68 157.25 126.88"/><polygon points="86.43 184.95 86.44 228.47 86.52 228.4 129.96 228.49 86.43 184.95"/><polygon points="229.4 85.51 185.86 85.53 229.39 129.06 229.4 85.51"/><polygon points="129.96 85.51 86.44 85.53 86.52 85.6 86.43 129.05 129.96 85.51"/><polygon points="229.4 228.49 229.39 184.94 185.86 228.47 229.4 228.49"/><rect x="29.14" y="85.51" width="26.04" height="26.04" transform="translate(140.69 56.37) rotate(90)"/><rect x="29.14" y="202.45" width="26.04" height="26.04" transform="translate(257.63 173.31) rotate(90)"/><rect x="259.32" y="85.51" width="26.04" height="26.04" transform="translate(370.87 -173.81) rotate(90)"/><rect x="259.32" y="202.45" width="26.04" height="26.04" transform="translate(487.81 -56.87) rotate(90)"/><rect x="202.7" y="28.89" width="26.04" height="26.04" transform="translate(431.44 83.82) rotate(180)"/><rect x="85.76" y="28.89" width="26.04" height="26.04" transform="translate(197.56 83.82) rotate(180)"/><rect x="202.7" y="259.07" width="26.04" height="26.04" transform="translate(431.44 544.18) rotate(180)"/><rect x="85.76" y="259.07" width="26.04" height="26.04" transform="translate(197.56 544.18) rotate(180)"/></g></g></g></svg>