<svg xmlns="http://www.w3.org/2000/svg" viewBox="0 0 314.5 314"><defs><style>.cls-1{fill:none;}</style></defs><g id="Layer_2" data-name="Layer 2"><g id="Layer_1-2" data-name="Layer 1"><line class="cls-1" x2="314.5"/><line class="cls-1" x1="314.5" y1="314" y2="314"/></g><g id="Light"><polygon id="MorningStar" points="273.61 92.99 288.49 83.66 273.84 74.48 273.94 66.47 267.35 59.88 271.38 42.35 253.84 46.37 247.95 40.48 239.55 40.38 230.06 25.24 220.72 40.14 212.08 40.03 205.84 46.27 188.74 42.35 192.67 59.45 183.57 68.55 184.56 75.56 171.63 83.66 187.08 93.35 188.95 106.53 36.66 258.26 34.2 255.8 26.01 264.02 26.01 264.21 26.01 288.76 50.56 288.76 50.74 288.76 58.95 280.56 56.78 278.39 208.42 125.94 220.51 126.85 230.06 142.09 238.75 128.23 246.24 128.8 254.03 121 271.38 124.98 267.4 107.64 273.5 101.54 273.61 92.99"/></g></g></svg>