<svg xmlns="http://www.w3.org/2000/svg" viewBox="0 0 314.5 314"><defs><style>.cls-1{fill:none;}</style></defs><g id="Layer_2" data-name="Layer 2"><g id="Layer_1-2" data-name="Layer 1"><g id="Layer_2-2" data-name="Layer 2"><g id="Layer_1-2-2" data-name="Layer 1-2"><line class="cls-1" x2="314.5"/><line class="cls-1" x1="314.5" y1="314" y2="314"/></g></g><polygon id="Tool" points="253.06 87.33 257.84 82.54 262.88 77.49 243.22 57.89 238.18 62.95 233.45 67.66 206.66 40.94 147.86 40.94 154.98 48.07 164.81 57.89 174.64 67.72 175.59 68.67 195.19 68.67 195.26 68.67 196.57 69.99 213.84 87.26 213.84 87.33 156.33 144.82 114.51 103.01 141.07 76.39 105.62 40.94 79 67.55 70.17 58.72 52.44 76.44 61.28 85.27 34.72 111.9 70.17 147.34 96.73 120.73 96.78 120.45 138.68 162.46 72.37 228.75 72.37 248.35 72.43 248.35 91.97 248.35 158.26 182.09 223.79 247.79 241.52 247.79 241.52 230.01 175.93 164.43 233.45 106.93 252.04 125.53 252.04 145.13 253.06 146.15 279.78 172.86 279.78 114.06 253.06 87.33"/></g></g></svg>