<svg xmlns="http://www.w3.org/2000/svg" viewBox="0 0 314.5 314"><defs><style>.cls-1{fill:none;}</style></defs><g id="Layer_2" data-name="Layer 2"><g id="Layer_1-2" data-name="Layer 1"><g id="Layer_2-2" data-name="Layer 2"><g id="Layer_1-2-2" data-name="Layer 1-2"><line class="cls-1" x2="314.5"/><line class="cls-1" x1="314.5" y1="314" y2="314"/></g></g><g id="ward"><path d="M157.25,100.47l-125.64,82,125.64,87.81,125.64-87.81Zm-2.43,136.84L74.25,182.44l80.57-54.87-33.54,54.87Zm4.86-109.74,80.57,54.87-80.57,54.87,33.53-54.87Z"/><polygon points="212.71 62.47 197.28 36.75 175.22 89.88 194.82 102.74 212.71 62.47"/><polygon points="247.01 108.35 233.61 84.81 218.35 117.83 236.25 129.57 247.01 108.35"/><polygon points="102.04 62.47 117.47 36.75 139.53 89.88 119.93 102.74 102.04 62.47"/><polygon points="67.74 108.35 81.14 84.81 96.39 117.83 78.5 129.57 67.74 108.35"/></g></g></g></svg>