<svg xmlns="http://www.w3.org/2000/svg" viewBox="0 0 314.5 314"><defs><style>.cls-1{fill:none;}</style></defs><g id="Layer_2" data-name="Layer 2"><g id="Layer_1-2" data-name="Layer 1"><line class="cls-1" x2="314.5"/><line class="cls-1" x1="314.5" y1="314" y2="314"/></g><g id="Heavy"><polygon id="war_Hammer" data-name="war Hammer" points="224.84 32.55 224.84 32.41 185.19 32.41 185.18 71.94 185.18 71.94 185.18 71.94 185.18 72.07 185.31 72.07 207.02 93.8 89.84 210.98 87.31 208.46 77.2 218.59 79.72 221.1 52.47 248.35 52.53 248.41 41.35 259.59 38.76 257.01 32.66 263.14 32.66 263.28 32.66 281.59 50.97 281.59 51.1 281.59 57.22 275.47 54.65 272.89 65.82 261.72 65.89 261.79 93.15 234.53 95.67 237.06 105.78 226.91 103.27 224.4 220.45 107.23 242.18 128.98 242.18 129.07 242.27 129.07 242.29 129.09 242.32 129.07 281.83 129.06 281.84 89.4 281.69 89.4 224.84 32.55"/></g></g></svg>