<?xml version="1.0" encoding="utf-8"?>
<!-- Generator: Adobe Illustrator 25.4.1, SVG Export Plug-In . SVG Version: 6.00 Build 0)  -->
<svg version="1.1" id="Layer_1" xmlns="http://www.w3.org/2000/svg" xmlns:xlink="http://www.w3.org/1999/xlink" x="0px" y="0px"
	 viewBox="0 0 64 64" style="enable-background:new 0 0 64 64;" xml:space="preserve">
<style type="text/css">
	.st0{fill:#A49E96;}
</style>
<g id="Layer_2_00000121987225180737089430000004804831708073717922_">
	<g id="Layer_1-2">
		<path class="st0" d="M40.8,52c-2.1,2.1-4.3,4.3-6.4,6.4l0.8,0.8c2.1-2.1,4.3-4.3,6.4-6.4c0-0.4,0-1.2,0-1.6L40.8,52z"/>
		<path class="st0" d="M37.6,52c-1,1-2.2,2.2-3.2,3.2c0,0.4,0,1.2,0,1.6c1.8-1.8,3.8-3.8,5.6-5.6c0-0.4,0-1.2,0-1.6
			C39.3,50.3,38.3,51.3,37.6,52z"/>
		<path class="st0" d="M36.8,49.6c-0.7,0.7-1.7,1.7-2.4,2.4c0,0.4,0,1.2,0,1.6c1.3-1.3,2.7-2.7,4-4c0-0.4,0-1.2,0-1.6
			C38,48.4,37.2,49.2,36.8,49.6z"/>
		<path class="st0" d="M36,48.8l0.8-0.8c0-0.4,0-1.2,0-1.6c-0.7,0.7-1.7,1.7-2.4,2.4c0,0.4,0,1.2,0,1.6C34.8,50,35.6,49.2,36,48.8z"
			/>
		<path class="st0" d="M33.6,17.6c-2.1-2.1-4.3-4.3-6.4-6.4c0,0.4,0,1.2,0,1.6c1.8,1.8,3.8,3.8,5.6,5.6c0.4,0,1.2,0,1.6,0L33.6,17.6
			z"/>
		<path class="st0" d="M30.4,12.8c1.8,1.8,3.8,3.8,5.6,5.6c0.4,0,1.2,0,1.6,0c-2.1-2.1-4.3-4.3-6.4-6.4l0.8-0.8c-0.4,0-1.2,0-1.6,0
			c-0.4-0.4-1.2-1.2-1.6-1.6c0,0.4,0,1.2,0,1.6C29.2,11.6,30,12.4,30.4,12.8z"/>
		<path class="st0" d="M29.6,16.8c-1.3-1.3-2.7-2.7-4-4c0,0.4,0,1.2,0,1.6c1.3,1.3,2.7,2.7,4,4c0.4,0,1.2,0,1.6,0
			C30.8,18,30,17.2,29.6,16.8z"/>
		<path class="st0" d="M19.2,14.4c0,0.4,0,1.2,0,1.6c0.4,0,1.2,0,1.6,0C20.4,15.6,19.6,14.8,19.2,14.4z"/>
		<path class="st0" d="M12.8,16c0.4,0,1.2,0,1.6,0c0-0.4,0-1.2,0-1.6C14,14.8,13.2,15.6,12.8,16z"/>
	</g>
</g>
</svg>
