<?xml version="1.0" encoding="utf-8"?>
<!-- Generator: Adobe Illustrator 25.4.1, SVG Export Plug-In . SVG Version: 6.00 Build 0)  -->
<svg version="1.1" id="Layer_1" xmlns="http://www.w3.org/2000/svg" xmlns:xlink="http://www.w3.org/1999/xlink" x="0px" y="0px"
	 viewBox="0 0 64 64" style="enable-background:new 0 0 64 64;" xml:space="preserve">
<style type="text/css">
	.st0{fill:#4F4139;}
</style>
<g>
	<polygon class="st0" points="63.2,20 64,20 64,19.2 	"/>
	<polygon class="st0" points="63.2,20.8 63.2,20 62.4,20.8 	"/>
	<polygon class="st0" points="62.4,21.6 62.4,20.8 61.6,21.6 	"/>
	<polygon class="st0" points="61.6,22.4 61.6,21.6 60.8,22.4 	"/>
	<polygon class="st0" points="60.8,23.2 60.8,22.4 60,23.2 	"/>
	<polygon class="st0" points="60,24 60,23.2 59.2,24 	"/>
	<polygon class="st0" points="59.2,24.8 59.2,24 58.4,24.8 	"/>
	<polygon class="st0" points="58.4,25.6 58.4,24.8 57.6,25.6 	"/>
	<polygon class="st0" points="57.6,26.4 57.6,25.6 56.8,26.4 	"/>
	<polygon class="st0" points="56.8,27.2 56.8,26.4 56,27.2 	"/>
	<path class="st0" d="M56,25.6v-6.4H27.2v1.6c0.4,0.4,1.2,1.2,1.6,1.6c0.4-0.4,1.2-1.2,1.6-1.6c0.4,0.4,1.2,1.2,1.6,1.6v3.2h-3.2V24
		H0v3.2h56V25.6z M50.4,25.6H48v-3.2c0.4-0.4,1.2-1.2,1.6-1.6c0.4,0.4,1.2,1.2,1.6,1.6v3.2L50.4,25.6z M44,25.6h-2.4v-3.2
		c0.4-0.4,1.2-1.2,1.6-1.6c0.4,0.4,1.2,1.2,1.6,1.6v3.2L44,25.6z M37.6,25.6h-2.4v-3.2c0.4-0.4,1.2-1.2,1.6-1.6
		c0.4,0.4,1.2,1.2,1.6,1.6v3.2L37.6,25.6z"/>
	<path class="st0" d="M54.4,47.2V48c0.4,0.4,1.2,1.2,1.6,1.6c0-0.4,0-1.2,0-1.6l-0.8-0.8H54.4z"/>
	<path class="st0" d="M54.4,27.2L53.6,28l-0.8-0.8L52,28l-0.8-0.8L50.4,28l-0.8-0.8L48.8,28L48,27.2L47.2,28l-0.8-0.8L45.6,28
		l-0.8-0.8L44,28l-0.8-0.8L42.4,28l-0.8-0.8L40.8,28L40,27.2L39.2,28l-0.8-0.8L37.6,28l-0.8-0.8L36,28l-0.8-0.8L34.4,28l-0.8-0.8
		L32.8,28L32,27.2L31.2,28l-0.8-0.8L29.6,28l-0.8-0.8L28,28l-0.8-0.8L26.4,28l-0.8-0.8L24.8,28L24,27.2L23.2,28l-0.8-0.8L21.6,28
		l-0.8-0.8L20,28l-0.8-0.8L18.4,28l-0.8-0.8L16.8,28L16,27.2L15.2,28l-0.8-0.8L13.6,28l-0.8-0.8L12,28l-0.8-0.8L10.4,28l-0.8-0.8
		L8.8,28L8,27.2L7.2,28l-0.8-0.8L5.6,28l-0.8-0.8L4,28l-0.8-0.8L2.4,28l-0.8-0.8L0.8,28L0,27.2v35.2h35.2c-0.7-0.7-1.7-1.7-2.4-2.4
		V36c0.7-0.7,1.7-1.7,2.4-2.4h9.6c0.7,0.7,1.7,1.7,2.4,2.4v3.2c0.7,0.7,1.7,1.7,2.4,2.4c0.4-0.4,1.2-1.2,1.6-1.6h1.6l0.8-0.8v-1.6
		c0.7-0.7,1.7-1.7,2.4-2.4v-8L55.2,28L54.4,27.2z M27.2,36v0.8L26.4,36l0.8-0.8V36z M24.8,36.8v18.4L24,56h-6.4l-0.8,0.8V56H8
		c-0.4-0.4-1.2-1.2-1.6-1.6v-1.6L5.6,52l0.8-0.8v-16c0.7-0.7,1.7-1.7,2.4-2.4l0.8,0.8h12.8c1,1,2.2,2.2,3.2,3.2H24.8z M28.8,49.6
		l0.8-0.8v1.6L28.8,49.6z M30.4,54.4c-0.4,0.4-1.2,1.2-1.6,1.6c-0.7-0.7-1.7-1.7-2.4-2.4h0.8v-0.8L28,52l0.8,0.8v-1.6
		c0.4,0.4,1.2,1.2,1.6,1.6v0.8h0.8L30.4,54.4z M30.4,40c-0.4,0.4-1.2,1.2-1.6,1.6c-0.7-0.7-1.7-1.7-2.4-2.4h0.8v-0.8l0.8-0.8V36
		c0.7,0.7,1.7,1.7,2.4,2.4v0.8h0.8L30.4,40z"/>
	<path class="st0" d="M53.6,40.8c-0.4,0-1.2,0-1.6,0c-0.4,0.4-1.2,1.2-1.6,1.6l0.8,0.8H52V44h0.8v0.8c0.4,0.4,1.2,1.2,1.6,1.6
		c0.4,0,1.2,0,1.6,0c0-3.2,0-6.4,0-9.6c-0.7,0.7-1.7,1.7-2.4,2.4C53.6,39.6,53.6,40.4,53.6,40.8z"/>
	<path class="st0" d="M52,45.6c0-0.4,0-1.2,0-1.6l-0.8-0.8c-0.4,0-1.2,0-1.6,0v-0.8h-0.8c-0.4-0.4-1.2-1.2-1.6-1.6
		c0,6.4,0,12.8,0,19.2c-0.7,0.7-1.7,1.7-2.4,2.4c3.7,0,7.5,0,11.2,0c0-3.7,0-7.5,0-11.2c-0.4-0.4-1.2-1.2-1.6-1.6
		c-0.4,0-1.2,0-1.6,0L52,50.4c0,1.6,0,3.2,0,4.8h0.8V56L52,55.2c-0.4,0.4-1.2,1.2-1.6,1.6c0,0.4,0,1.2,0,1.6l-0.8,0.8
		c0-0.4,0-1.2,0-1.6l0.8-0.8V56h0.8c0-1.8,0-3.8,0-5.6H52v-0.8h0.8v-0.8H52L51.2,48c0.4,0,1.2,0,1.6,0v0.8h0.8c0-1,0-2.2,0-3.2
		C53.2,45.6,52.4,45.6,52,45.6z"/>
	<path class="st0" d="M18.4,8.8c-0.4,0-1.2,0-1.6,0l0.8,0.8L18.4,8.8z"/>
	<path class="st0" d="M18.4,10.4c-0.4,0-1.2,0-1.6,0l0.8,0.8L18.4,10.4z"/>
	<path class="st0" d="M18.4,12c-0.4,0-1.2,0-1.6,0l0.8,0.8L18.4,12z"/>
	<path class="st0" d="M18.4,13.6c-0.4,0-1.2,0-1.6,0l0.8,0.8L18.4,13.6z"/>
	<path class="st0" d="M18.4,15.2c-0.4,0-1.2,0-1.6,0l0.8,0.8L18.4,15.2z"/>
	<path class="st0" d="M16.8,44l0.8,0.8l0.8-0.8C18,44,17.2,44,16.8,44z"/>
	<path class="st0" d="M16.8,42.4l0.8,0.8l0.8-0.8C18,42.4,17.2,42.4,16.8,42.4z"/>
	<path class="st0" d="M16.8,40.8l0.8,0.8l0.8-0.8C18,40.8,17.2,40.8,16.8,40.8z"/>
	<path class="st0" d="M16.8,39.2l0.8,0.8l0.8-0.8C18,39.2,17.2,39.2,16.8,39.2z"/>
	<path class="st0" d="M16.8,37.6l0.8,0.8l0.8-0.8C18,37.6,17.2,37.6,16.8,37.6z"/>
	<path class="st0" d="M16.8,36l0.8,0.8l0.8-0.8C18,36,17.2,36,16.8,36z"/>
	<path class="st0" d="M16.8,34.4l0.8,0.8l0.8-0.8C18,34.4,17.2,34.4,16.8,34.4z"/>
	<path class="st0" d="M16.8,8.8c-0.4,0-1.2,0-1.6,0L16,9.6L16.8,8.8z"/>
	<path class="st0" d="M16.8,10.4c-0.4,0-1.2,0-1.6,0l0.8,0.8L16.8,10.4z"/>
	<path class="st0" d="M16.8,12c-0.4,0-1.2,0-1.6,0l0.8,0.8L16.8,12z"/>
	<path class="st0" d="M16.8,13.6c-0.4,0-1.2,0-1.6,0l0.8,0.8L16.8,13.6z"/>
	<path class="st0" d="M16.8,15.2c-0.4,0-1.2,0-1.6,0L16,16L16.8,15.2z"/>
	<path class="st0" d="M15.2,44l0.8,0.8l0.8-0.8C16.4,44,15.6,44,15.2,44z"/>
	<path class="st0" d="M15.2,42.4l0.8,0.8l0.8-0.8C16.4,42.4,15.6,42.4,15.2,42.4z"/>
	<path class="st0" d="M15.2,40.8l0.8,0.8l0.8-0.8C16.4,40.8,15.6,40.8,15.2,40.8z"/>
	<path class="st0" d="M15.2,39.2L16,40l0.8-0.8C16.4,39.2,15.6,39.2,15.2,39.2z"/>
	<path class="st0" d="M15.2,37.6l0.8,0.8l0.8-0.8C16.4,37.6,15.6,37.6,15.2,37.6z"/>
	<path class="st0" d="M15.2,36l0.8,0.8l0.8-0.8C16.4,36,15.6,36,15.2,36z"/>
	<path class="st0" d="M15.2,34.4l0.8,0.8l0.8-0.8C16.4,34.4,15.6,34.4,15.2,34.4z"/>
</g>
</svg>
