<?xml version="1.0" encoding="utf-8"?>
<!-- Generator: Adobe Illustrator 25.4.1, SVG Export Plug-In . SVG Version: 6.00 Build 0)  -->
<svg version="1.1" id="Layer_1" xmlns="http://www.w3.org/2000/svg" xmlns:xlink="http://www.w3.org/1999/xlink" x="0px" y="0px"
	 viewBox="0 0 64 64" style="enable-background:new 0 0 64 64;" xml:space="preserve">
<style type="text/css">
	.st0{fill:#29201D;}
	.st1{fill:none;}
</style>
<g id="Layer_2_00000062885416648429959640000005918341275622509214_">
	<g id="Layer_1-2">
		<path class="st0" d="M63.2,7.2V8h-0.8V4.8L61.6,4v3.2l-0.8-0.8V1.6L60,2.4v3.2l-0.8-0.8V3.2l-0.8-0.8V4l-0.8-0.8V0l-0.8,0.8v0.8
			H27.2v1.6h-1.6c-1,1-2.2,2.2-3.2,3.2V3.2L21.6,4v2.4h-0.8V4.8L20,5.6v0.8h-0.8V4.8L18.4,4v2.4h-0.8l-0.8-0.8v0.8H16V3.2l-0.8-0.8
			v4h-0.8V4.8L13.6,4v2.4h-0.8V3.2L12,4v2.4h-0.8V4.8C10.8,5.2,10,6,9.6,6.4V16c0.4-0.4,1.2-1.2,1.6-1.6h3.2V16H16l-0.8-0.8h3.2
			L17.6,16h1.6v-1.6h6.4v-1.6h1.6v-1.6h1.6V9.6h9.6V6.4C38.8,6,39.6,5.2,40,4.8c0.4,0.4,1.2,1.2,1.6,1.6V8H44v1.6h3.2V8h-2.4V6.4
			C45.2,6,46,5.2,46.4,4.8C46.8,5.2,47.6,6,48,6.4h1.6l0.8,0.8v1.6l0.8,0.8h1.6V8h-1.6V6.4c0.4-0.4,1.2-1.2,1.6-1.6
			C53.2,5.2,54,6,54.4,6.4V4.8H56c0.4,0.4,1.2,1.2,1.6,1.6v4.8c0.4,0.4,1.2,1.2,1.6,1.6v-1.6h3.2c-2.4,2.4-4.8,4.8-7.2,7.2H48v0.8h8
			v8c2.6-2.6,5.4-5.4,8-8V6.4L63.2,7.2z M34.4,8H32V6.4c0.4-0.4,1.2-1.2,1.6-1.6C34,5.2,34.8,6,35.2,6.4V8H34.4z M28,8h-2.4V6.4
			C26,6,26.8,5.2,27.2,4.8c0.4,0.4,1.2,1.2,1.6,1.6V8H28z M16.8,12L16,12.8L15.2,12h3.2l-0.8,0.8L16.8,12z M16.8,10.4L16,11.2
			l-0.8-0.8h3.2l-0.8,0.8L16.8,10.4z M16,8.8h2.4l-0.8,0.8l-0.8-0.8L16,9.6l-0.8-0.8H16z M17.6,14.4l-0.8-0.8L16,14.4l-0.8-0.8h3.2
			L17.6,14.4z"/>
		<path class="st0" d="M62.4,20.8v0.8h-0.8v0.8h-0.8v0.8H60V24h-0.8v0.8h-0.8v0.8h-0.8v0.8h-0.8v0.8H56v8c-0.7,0.7-1.7,1.7-2.4,2.4
			v1.6c0.7-0.7,1.7-1.7,2.4-2.4v9.6h-1.6l-0.8-0.8v3.2h-0.8v0.8h1.6c0.4,0.4,1.2,1.2,1.6,1.6v11.2c2.6-2.6,5.4-5.4,8-8V20h-0.8v0.8
			H62.4z M55.2,48.8L54.4,48v-0.8h0.8L56,48v1.6L55.2,48.8z"/>
		<path class="st0" d="M54.4,27.2l0.8,0.8l0.8-0.8C55.6,27.2,54.8,27.2,54.4,27.2z"/>
		<path class="st0" d="M52.8,27.2l0.8,0.8l0.8-0.8C54,27.2,53.2,27.2,52.8,27.2z"/>
		<polygon class="st0" points="52.8,55.2 52,55.2 52.8,56 		"/>
		<path class="st0" d="M52.8,44H52c0,0.4,0,1.2,0,1.6c0.4,0,1.2,0,1.6,0l-0.8-0.8V44z"/>
		<polygon class="st0" points="52,48 51.2,48 52,48.8 52.8,48.8 52.8,48 		"/>
		<polygon class="st0" points="52,50.4 52.8,49.6 52,49.6 		"/>
		<polygon class="st0" points="51.2,43.2 52,44 52,43.2 		"/>
		<path class="st0" d="M51.2,27.2L52,28l0.8-0.8C52.4,27.2,51.6,27.2,51.2,27.2z"/>
		<path class="st0" d="M51.2,51.2c0,1.6,0,3.2,0,4.8l0.8-0.8c0-1.6,0-3.2,0-4.8h-0.8V51.2z"/>
		<path class="st0" d="M51.2,41.6l0.8-0.8c0.4,0,1.2,0,1.6,0c0-0.4,0-1.2,0-1.6L52.8,40c-0.4,0-1.2,0-1.6,0
			c-0.4,0.4-1.2,1.2-1.6,1.6c-0.7-0.7-1.7-1.7-2.4-2.4c0,0.4,0,1.2,0,1.6c0.4,0.4,1.2,1.2,1.6,1.6h0.8v0.8c0.4,0,1.2,0,1.6,0
			l-0.8-0.8L51.2,41.6z"/>
		<polygon class="st0" points="50.4,56.8 51.2,56 50.4,56 		"/>
		<path class="st0" d="M49.6,27.2l0.8,0.8l0.8-0.8C50.8,27.2,50,27.2,49.6,27.2z"/>
		<path class="st0" d="M49.6,58.4v0.8l0.8-0.8c0-0.4,0-1.2,0-1.6l-0.8,0.8V58.4z"/>
		<path class="st0" d="M49.6,23.2v-0.8l0.8-0.8l-0.8-0.8c-0.4,0.4-1.2,1.2-1.6,1.6c0,1,0,2.2,0,3.2c1,0,2.2,0,3.2,0v-0.8
			c-0.4,0-1.2,0-1.6,0C49.6,24.4,49.6,23.6,49.6,23.2z"/>
		<path class="st0" d="M48,27.2l0.8,0.8l0.8-0.8C49.2,27.2,48.4,27.2,48,27.2z"/>
		<path class="st0" d="M46.4,27.2l0.8,0.8l0.8-0.8C47.6,27.2,46.8,27.2,46.4,27.2z"/>
		<path class="st0" d="M46.4,18.4c-6.4,0-12.8,0-19.2,0v0.8c6.9,0,13.9,0,20.8,0l-0.8-0.8H46.4z"/>
		<path class="st0" d="M44.8,27.2l0.8,0.8l0.8-0.8C46,27.2,45.2,27.2,44.8,27.2z"/>
		<path class="st0" d="M43.2,27.2L44,28l0.8-0.8C44.4,27.2,43.6,27.2,43.2,27.2z"/>
		<path class="st0" d="M43.2,51.2l-0.8-0.8c0-5.6,0-11.2,0-16.8c-2.4,0-4.8,0-7.2,0c-0.7,0.7-1.7,1.7-2.4,2.4c0,8,0,16,0,24
			c0.7,0.7,1.7,1.7,2.4,2.4c0.4-0.4,1.2-1.2,1.6-1.6c-0.7-0.7-1.7-1.7-2.4-2.4c0-4,0-8,0-12c0.7,0,1.7,0,2.4,0c0,0.4,0,1.2,0,1.6
			c0.4,0,1.2,0,1.6,0c0,0.4,0,1.2,0,1.6c0.4,0,1.2,0,1.6,0c0,0.4,0,1.2,0,1.6c0.4,0,1.2,0,1.6,0c0,0.4,0,1.2,0,1.6c1,0,2.2,0,3.2,0
			C44.4,52.4,43.6,51.6,43.2,51.2z"/>
		<path class="st0" d="M43.2,23.2v-0.8l0.8-0.8l-0.8-0.8c-0.4,0.4-1.2,1.2-1.6,1.6c0,1,0,2.2,0,3.2c1,0,2.2,0,3.2,0v-0.8
			c-0.4,0-1.2,0-1.6,0C43.2,24.4,43.2,23.6,43.2,23.2z"/>
		<path class="st0" d="M41.6,27.2l0.8,0.8l0.8-0.8C42.8,27.2,42,27.2,41.6,27.2z"/>
		<path class="st0" d="M40,27.2l0.8,0.8l0.8-0.8C41.2,27.2,40.4,27.2,40,27.2z"/>
		<path class="st0" d="M40,8c-0.4,0.4-1.2,1.2-1.6,1.6c1,0,2.2,0,3.2,0c0-0.4,0-1.2,0-1.6C41.2,8,40.4,8,40,8z"/>
		<path class="st0" d="M38.4,27.2l0.8,0.8l0.8-0.8C39.6,27.2,38.8,27.2,38.4,27.2z"/>
		<path class="st0" d="M36.8,27.2l0.8,0.8l0.8-0.8C38,27.2,37.2,27.2,36.8,27.2z"/>
		<path class="st0" d="M36.8,23.2v-0.8l0.8-0.8l-0.8-0.8c-0.4,0.4-1.2,1.2-1.6,1.6c0,1,0,2.2,0,3.2c1,0,2.2,0,3.2,0v-0.8
			c-0.4,0-1.2,0-1.6,0C36.8,24.4,36.8,23.6,36.8,23.2z"/>
		<path class="st0" d="M35.2,27.2L36,28l0.8-0.8C36.4,27.2,35.6,27.2,35.2,27.2z"/>
		<path class="st0" d="M33.6,27.2l0.8,0.8l0.8-0.8C34.8,27.2,34,27.2,33.6,27.2z"/>
		<path class="st0" d="M32,27.2l0.8,0.8l0.8-0.8C33.2,27.2,32.4,27.2,32,27.2z"/>
		<path class="st0" d="M30.4,27.2l0.8,0.8l0.8-0.8C31.6,27.2,30.8,27.2,30.4,27.2z"/>
		<path class="st0" d="M31.2,21.6l-0.8-0.8c-0.4,0.4-1.2,1.2-1.6,1.6l0.8,0.8C30,22.8,30.8,22,31.2,21.6z"/>
		<path class="st0" d="M29.6,53.6c-1,0-2.2,0-3.2,0c0.7,0.7,1.7,1.7,2.4,2.4c0.7-0.7,1.7-1.7,2.4-2.4C30.8,53.6,30,53.6,29.6,53.6z"
			/>
		<path class="st0" d="M29.6,39.2c-1,0-2.2,0-3.2,0c0.7,0.7,1.7,1.7,2.4,2.4c0.7-0.7,1.7-1.7,2.4-2.4C30.8,39.2,30,39.2,29.6,39.2z"
			/>
		<path class="st0" d="M28.8,27.2l0.8,0.8l0.8-0.8C30,27.2,29.2,27.2,28.8,27.2z"/>
		<path class="st0" d="M27.2,27.2L28,28l0.8-0.8C28.4,27.2,27.6,27.2,27.2,27.2z"/>
		<path class="st0" d="M25.6,27.2l0.8,0.8l0.8-0.8C26.8,27.2,26,27.2,25.6,27.2z"/>
		<path class="st0" d="M24,27.2l0.8,0.8l0.8-0.8C25.2,27.2,24.4,27.2,24,27.2z"/>
		<path class="st0" d="M24,35.2c-0.4-0.4-1.2-1.2-1.6-1.6H9.6l-0.8-0.8c-0.7,0.7-1.7,1.7-2.4,2.4v16L5.6,52l0.8,0.8v1.6
			C6.8,54.8,7.6,55.6,8,56h8.8v0.8l0.8-0.8H24l0.8-0.8H24v-2.4l-0.8,0.8v1.6h-0.8v-2.4L21.6,52v3.2h-0.8v-0.8L20,55.2h-0.8v-5.6
			l-0.8,0.8v4.8h-0.8v-0.8l-0.8-0.8v1.6H16v-2.4l-0.8,0.8v1.6h-0.8v-2.4L13.6,52v3.2h-0.8v-0.8L12,55.2h-0.8v-2.4l-0.8,0.8v1.6H9.6
			v-0.8l-0.8-0.8v1.6L8,54.4v-1.6L7.2,52L8,51.2v-8h3.2v1.6h1.6v1.6h8v-1.6h2.4v1.6h1.6v-9.6h0.8C25.2,36.4,24.4,35.6,24,35.2z
			 M16.8,44L16,44.8L15.2,44h3.2l-0.8,0.8L16.8,44z M16,36h2.4l-0.8,0.8L16.8,36L16,36.8L15.2,36H16z M17.6,43.2l-0.8-0.8L16,43.2
			l-0.8-0.8h3.2L17.6,43.2z M16,37.6h2.4l-0.8,0.8l-0.8-0.8L16,38.4l-0.8-0.8H16z M16.8,40.8L16,41.6l-0.8-0.8h3.2l-0.8,0.8
			L16.8,40.8z M16,39.2h2.4L17.6,40l-0.8-0.8L16,40l-0.8-0.8H16z M16,34.4h2.4l-0.8,0.8l-0.8-0.8L16,35.2l-0.8-0.8H16z"/>
		<path class="st0" d="M22.4,27.2l0.8,0.8l0.8-0.8C23.6,27.2,22.8,27.2,22.4,27.2z"/>
		<path class="st0" d="M20.8,27.2l0.8,0.8l0.8-0.8C22,27.2,21.2,27.2,20.8,27.2z"/>
		<path class="st0" d="M19.2,27.2L20,28l0.8-0.8C20.4,27.2,19.6,27.2,19.2,27.2z"/>
		<path class="st0" d="M17.6,27.2l0.8,0.8l0.8-0.8C18.8,27.2,18,27.2,17.6,27.2z"/>
		<path class="st0" d="M17.6,24c3.7,0,7.5,0,11.2,0c0,0.4,0,1.2,0,1.6c1,0,2.2,0,3.2,0v-0.8c-0.4,0-1.2,0-1.6,0V24l-0.8-0.8
			c-1,0-2.2,0-3.2,0c0-0.4,0-1.2,0-1.6l-0.8,0.8v0.8h-0.8c0-0.4,0-1.2,0-1.6L24,20.8c0,0.7,0,1.7,0,2.4h-0.8l-0.8-0.8v0.8h-0.8
			c0-0.4,0-1.2,0-1.6l-0.8-0.8c0,0.7,0,1.7,0,2.4H20l-0.8-0.8v0.8c-0.7,0-1.7,0-2.4,0L16,24C16.4,24,17.2,24,17.6,24z"/>
		<path class="st0" d="M16,27.2l0.8,0.8l0.8-0.8C17.2,27.2,16.4,27.2,16,27.2z"/>
		<path class="st0" d="M16,16c0.4,0,1.2,0,1.6,0l-0.8-0.8L16,16z"/>
		<path class="st0" d="M14.4,27.2l0.8,0.8l0.8-0.8C15.6,27.2,14.8,27.2,14.4,27.2z"/>
		<path class="st0" d="M12.8,27.2l0.8,0.8l0.8-0.8C14,27.2,13.2,27.2,12.8,27.2z"/>
		<path class="st0" d="M11.2,27.2L12,28l0.8-0.8C12.4,27.2,11.6,27.2,11.2,27.2z"/>
		<path class="st0" d="M9.6,27.2l0.8,0.8l0.8-0.8C10.8,27.2,10,27.2,9.6,27.2z"/>
		<path class="st0" d="M8,27.2L8.8,28l0.8-0.8C9.2,27.2,8.4,27.2,8,27.2z"/>
		<path class="st0" d="M6.4,27.2L7.2,28L8,27.2C7.6,27.2,6.8,27.2,6.4,27.2z"/>
		<path class="st0" d="M4.8,27.2L5.6,28l0.8-0.8C6,27.2,5.2,27.2,4.8,27.2z"/>
		<path class="st0" d="M3.2,27.2L4,28l0.8-0.8C4.4,27.2,3.6,27.2,3.2,27.2z"/>
		<path class="st0" d="M1.6,27.2L2.4,28l0.8-0.8C2.8,27.2,2,27.2,1.6,27.2z"/>
		<path class="st0" d="M1.6,24c4.8,0,9.6,0,14.4,0l-0.8-0.8c-1.3,0-2.7,0-4,0c0-0.7,0-1.7,0-2.4L10.4,20c0,1,0,2.2,0,3.2
			c-0.4,0-1.2,0-1.6,0c0-0.4,0-1.2,0-1.6L8,20.8c0,0.7,0,1.7,0,2.4c-0.4,0-1.2,0-1.6,0v-0.8l-0.8-0.8c0,0.4,0,1.2,0,1.6H4.8
			c0-1.3,0-2.7,0-4L4,18.4c0,1.6,0,3.2,0,4.8H3.2c0-0.7,0-1.7,0-2.4l-0.8,0.8c0,0.4,0,1.2,0,1.6H1.6v-0.8l-0.8-0.8
			c0,0.4,0,1.2,0,1.6L0,24C0.4,24,1.2,24,1.6,24z"/>
		<path class="st0" d="M0,27.2L0.8,28l0.8-0.8C1.2,27.2,0.4,27.2,0,27.2z"/>
		<line class="st1" x1="0" y1="0" x2="64" y2="0"/>
		<line class="st1" x1="64" y1="64" x2="0" y2="64"/>
	</g>
</g>
</svg>
