<svg xmlns="http://www.w3.org/2000/svg" viewBox="0 0 64 64"><defs><style>.cls-1{fill:#e2a8b0;}.cls-2{fill:none;}</style></defs><g id="Layer_2" data-name="Layer 2"><g id="Layer_1-2" data-name="Layer 1"><polygon class="cls-1" points="61.6 11.2 60.8 11.2 60 11.2 59.2 11.2 60 12 60.8 12.8 61.6 12 62.4 11.2 61.6 11.2"/><polygon class="cls-1" points="58.4 13.6 57.6 13.6 56.8 13.6 56 13.6 55.2 13.6 56 14.4 56.8 15.2 57.6 16 58.4 15.2 59.2 14.4 60 13.6 59.2 13.6 58.4 13.6"/><polygon class="cls-1" points="56 6.4 56.8 6.4 57.6 6.4 56.8 5.6 56 4.8 55.2 4.8 54.4 4.8 55.2 5.6 56 6.4"/><polygon class="cls-1" points="56 9.6 56.8 9.6 57.6 9.6 56.8 8.8 56 8.8 55.2 8.8 54.4 8.8 53.6 8.8 54.4 9.6 55.2 9.6 56 9.6"/><polygon class="cls-1" points="54.4 7.2 55.2 7.2 54.4 6.4 53.6 6.4 52.8 6.4 53.6 7.2 54.4 7.2"/><polygon class="cls-1" points="49.6 8.8 48.8 8.8 49.6 9.6 50.4 9.6 51.2 9.6 50.4 8.8 49.6 8.8"/><polygon class="cls-1" points="49.6 7.2 50.4 7.2 49.6 6.4 48.8 6.4 48 6.4 47.2 6.4 47.2 7.2 48 7.2 48.8 7.2 49.6 7.2"/><polygon class="cls-1" points="42.4 8 41.6 8 41.6 8.8 42.4 8.8 43.2 8.8 44 8.8 44 8 43.2 8 42.4 8"/><polygon class="cls-1" points="21.6 44.8 20.8 44.8 20.8 45.6 21.6 45.6 22.4 45.6 23.2 45.6 23.2 44.8 22.4 44.8 21.6 44.8"/><polygon class="cls-1" points="11.2 44.8 10.4 45.6 11.2 45.6 12 45.6 12.8 44.8 12 44.8 11.2 44.8"/><polygon class="cls-1" points="11.2 43.2 10.4 43.2 9.6 43.2 8.8 43.2 8 43.2 8 44 8 44.8 8.8 44.8 9.6 44.8 10.4 44 11.2 43.2"/><line class="cls-2" x2="64"/><line class="cls-2" x1="64" y1="64" y2="64"/></g></g></svg>