<svg xmlns="http://www.w3.org/2000/svg" viewBox="0 0 64 64"><defs><style>.cls-1{fill:#ba858a;}.cls-2{fill:none;}</style></defs><g id="Layer_2" data-name="Layer 2"><g id="Layer_1-2" data-name="Layer 1"><polygon class="cls-1" points="60 12 59.2 11.2 59.2 12 59.2 12.8 59.2 13.6 60 13.6 60.8 12.8 60 12"/><polygon class="cls-1" points="56 6.4 55.2 5.6 54.4 4.8 54.4 5.6 54.4 6.4 55.2 7.2 54.4 7.2 53.6 7.2 52.8 6.4 52.8 7.2 52.8 8 52.8 8.8 52.8 9.6 53.6 10.4 54.4 11.2 55.2 11.2 56 11.2 56.8 11.2 57.6 11.2 57.6 10.4 57.6 9.6 56.8 9.6 56 9.6 55.2 9.6 54.4 9.6 53.6 8.8 54.4 8.8 55.2 8.8 56 8.8 56.8 8.8 57.6 9.6 57.6 8.8 57.6 8 57.6 7.2 57.6 6.4 56.8 6.4 56 6.4"/><polygon class="cls-1" points="56 14.4 55.2 13.6 55.2 14.4 55.2 15.2 55.2 16 55.2 16.8 55.2 17.6 55.2 18.4 56 17.6 56.8 16.8 57.6 16 56.8 15.2 56 14.4"/><polygon class="cls-1" points="49.6 9.6 48.8 8.8 49.6 8.8 50.4 8.8 50.4 8 50.4 7.2 49.6 7.2 48.8 7.2 48 7.2 47.2 7.2 47.2 8 47.2 8.8 47.2 9.6 47.2 10.4 48 10.4 48.8 10.4 49.6 11.2 50.4 11.2 51.2 11.2 51.2 10.4 51.2 9.6 50.4 9.6 49.6 9.6"/><polygon class="cls-1" points="42.4 8.8 41.6 8.8 41.6 9.6 41.6 10.4 42.4 10.4 43.2 10.4 44 10.4 44 9.6 44 8.8 43.2 8.8 42.4 8.8"/><polygon class="cls-1" points="21.6 45.6 20.8 45.6 20.8 46.4 20.8 47.2 21.6 47.2 22.4 47.2 23.2 47.2 23.2 46.4 23.2 45.6 22.4 45.6 21.6 45.6"/><polygon class="cls-1" points="11.2 45.6 10.4 45.6 11.2 44.8 11.2 44 11.2 43.2 10.4 44 9.6 44.8 8.8 44.8 8 44.8 8 45.6 8 46.4 8 47.2 8 48 8.8 48 9.6 48 10.4 47.2 11.2 47.2 12 47.2 12.8 46.4 12.8 45.6 12.8 44.8 12 45.6 11.2 45.6"/><line class="cls-2" x2="64"/><line class="cls-2" x1="64" y1="64" y2="64"/></g></g></svg>