<svg xmlns="http://www.w3.org/2000/svg" viewBox="0 0 32 32"><defs><style>.cls-1{fill:#a49e96;}.cls-2{fill:none;}</style></defs><g id="Layer_2" data-name="Layer 2"><g id="Layer_1-2" data-name="Layer 1"><polygon class="cls-1" points="21.6 28 20.8 28.8 20 29.6 19.2 29.6 18.4 29.6 17.6 29.6 16.8 29.6 16 29.6 15.2 29.6 14.4 30.4 13.6 31.2 12.8 30.4 12 29.6 11.2 28.8 10.4 28 9.6 27.2 9.6 26.4 8.8 26.4 8 26.4 7.2 26.4 6.4 25.6 6.4 26.4 5.6 26.4 5.6 27.2 6.4 27.2 7.2 27.2 8 27.2 8.8 28 9.6 28.8 10.4 29.6 11.2 30.4 12 31.2 12.8 32 13.6 32 14.4 32 15.2 31.2 16 30.4 16.8 30.4 17.6 30.4 18.4 30.4 19.2 30.4 20 30.4 20.8 30.4 21.6 29.6 22.4 29.6 22.4 28.8 22.4 28 21.6 28"/><polygon class="cls-1" points="18.4 9.6 18.4 8.8 17.6 9.6 17.6 10.4 17.6 11.2 18.4 10.4 18.4 9.6"/><polygon class="cls-1" points="16 12.8 16 12 16 11.2 15.2 12 14.4 12.8 14.4 13.6 14.4 14.4 15.2 13.6 16 12.8"/><polygon class="cls-1" points="10.4 12 11.2 12.8 12 13.6 12.8 14.4 12.8 13.6 12.8 12.8 12 12 11.2 11.2 10.4 10.4 9.6 9.6 8.8 8.8 8.8 9.6 8.8 10.4 9.6 11.2 10.4 12"/><line class="cls-2" x1="32" y1="32" y2="32"/><line class="cls-2" x2="32"/></g></g></svg>