<svg xmlns="http://www.w3.org/2000/svg" viewBox="0 0 32 32"><defs><style>.cls-1{fill:#c0b8ac;}.cls-2{fill:none;}</style></defs><g id="Layer_2" data-name="Layer 2"><g id="Layer_1-2" data-name="Layer 1"><polygon class="cls-1" points="26.4 20 25.6 20 24.8 20 24 19.2 23.2 18.4 23.2 17.6 23.2 16.8 23.2 16 22.4 16 21.6 16 20.8 16 20 16 20 16.8 20 17.6 20 18.4 20 19.2 20 20 20 20.8 20 21.6 20 22.4 20 23.2 20 24 20 24.8 19.2 25.6 18.4 25.6 18.4 24.8 18.4 24 18.4 23.2 18.4 22.4 18.4 21.6 18.4 20.8 18.4 20 17.6 20.8 17.6 21.6 17.6 22.4 17.6 23.2 17.6 24 17.6 24.8 17.6 25.6 17.6 26.4 17.6 27.2 16.8 28 16 28.8 16 28 16 27.2 16 26.4 16 25.6 16 24.8 16 24 16 23.2 16 22.4 15.2 23.2 14.4 24 15.2 24.8 15.2 25.6 15.2 26.4 15.2 27.2 15.2 28 14.4 28.8 14.4 29.6 14.4 30.4 15.2 29.6 16 29.6 16.8 29.6 17.6 29.6 18.4 29.6 19.2 29.6 20 29.6 20.8 28.8 21.6 28 22.4 28 22.4 27.2 23.2 26.4 23.2 25.6 23.2 24.8 24 24 24.8 23.2 25.6 22.4 26.4 21.6 27.2 20.8 26.4 20"/><polygon class="cls-1" points="17.6 16.8 17.6 17.6 17.6 18.4 17.6 19.2 18.4 18.4 18.4 17.6 18.4 16.8 18.4 16 17.6 16 17.6 16.8"/><polygon class="cls-1" points="14.4 17.6 14.4 18.4 14.4 19.2 14.4 20 14.4 20.8 14.4 21.6 14.4 22.4 15.2 21.6 16 20.8 16 20 16 19.2 16 18.4 16 17.6 16 16.8 16 16 15.2 16.8 14.4 17.6"/><path class="cls-1" d="M12,8l.8-.8.8-.8.8-.8.8-.8L16,4l-.8-.8-.8-.8-.8-.8L12.8.8,12,0l-.8.8-.8.8L9.6.8l-.8.8L8,2.4V4l-.8.8.8.8.8.8.8.8.8.8V7.2H12ZM9.6,5.6l-.8-.8V3.2l.8-.8.8.8.8-.8.8.8V4.8l-.8.8-.8.8Z" transform="translate(2.4 4.8)"/><polygon class="cls-1" points="12.8 30.4 12.8 29.6 12.8 28.8 12 29.6 12.8 30.4"/><polygon class="cls-1" points="11.2 16 10.4 16 9.6 16 8.8 16 8.8 16.8 8.8 17.6 8.8 18.4 9.6 19.2 10.4 20 11.2 20 12 20 12 20.8 12 21.6 12.8 22.4 12.8 21.6 12.8 20.8 12.8 20 12.8 19.2 12.8 18.4 12.8 17.6 12 16.8 11.2 16"/><polygon class="cls-1" points="11.2 22.4 10.4 23.2 9.6 24 8.8 24.8 8 25.6 7.2 25.6 7.2 24.8 6.4 24 6.4 23.2 6.4 22.4 7.2 21.6 7.2 20.8 7.2 20 7.2 19.2 7.2 18.4 7.2 17.6 7.2 16.8 7.2 16 6.4 16 5.6 16.8 4.8 17.6 4.8 18.4 4.8 19.2 4 20 3.2 20 2.4 20 3.2 20.8 4 21.6 4.8 22.4 5.6 23.2 5.6 24 5.6 24.8 5.6 25.6 5.6 26.4 6.4 26.4 6.4 25.6 7.2 26.4 8 26.4 8.8 26.4 9.6 26.4 9.6 27.2 10.4 28 10.4 27.2 10.4 26.4 11.2 25.6 12 25.6 12 24.8 12.8 24 12 23.2 11.2 22.4"/><line class="cls-2" x1="32" y1="32" y2="32"/><line class="cls-2" x2="32"/></g></g></svg>