<svg xmlns="http://www.w3.org/2000/svg" viewBox="0 0 32 32"><defs><style>.cls-1{fill:#2d2421;}.cls-2{fill:none;}</style></defs><g id="Layer_2" data-name="Layer 2"><g id="Layer_1-2" data-name="Layer 1"><polygon class="cls-1" points="29.6 17.6 29.6 18.4 28.8 17.6 28 16.8 27.2 16 26.4 15.2 25.6 14.4 24.8 13.6 24 13.6 23.2 13.6 24 14.4 24.8 15.2 25.6 16 26.4 16.8 27.2 17.6 28 18.4 28.8 19.2 28 20 27.2 20.8 26.4 21.6 25.6 22.4 24.8 23.2 24 24 23.2 24.8 24 24.8 24 25.6 24 26.4 23.2 26.4 22.4 27.2 23.2 27.2 23.2 28 23.2 28.8 23.2 29.6 23.2 30.4 23.2 31.2 24 30.4 24.8 29.6 25.6 28.8 26.4 28 27.2 27.2 28 26.4 28.8 25.6 29.6 24.8 30.4 24 30.4 23.2 30.4 22.4 30.4 21.6 30.4 20.8 30.4 20 30.4 19.2 30.4 18.4 30.4 17.6 29.6 17.6"/><polygon class="cls-1" points="23.2 15.2 23.2 14.4 22.4 14.4 23.2 15.2"/><path class="cls-1" d="M22.4,7.2V6.4l.8-.8H21.6v.8H20V4.8h-.8V6.4l-.8-.8-.8-.8L16.8,4,16,3.2l-.8-.8-.8-.8V0h-.8V.8l-.8.8-.8.8-.8.8-.8.8-.8.8-.8.8V4.8H8v.8H7.2v.8H6.4l.8-.8H5.6v.8H4.8l.8.8V8.8L6.4,8h.8v.8L8,8V25.6l.8-.8V20l.8.8.8.8.8.8.8.8.8.8V22.4l-.8-.8-.8-.8-.8-.8-.8-.8-.8-.8V13.6l.8.8.8.8.8.8.8.8.8.8V16l-.8-.8-.8-.8-.8-.8-.8-.8L8.8,12V7.2l.8-.8.8.8.8-.8.8-.8V4l.8-.8.8-.8.8.8V4.8l.8.8.8.8.8.8.8.8.8.8v1.6l.8.8-.8.8-.8.8v.8h-.8v.8H16l-.8.8-.8.8V12h-.8V31.2l.8-.8V24l.8-.8.8-.8.8-.8.8-.8.8-.8.8.8v1.6l-.8.8h.8v2.4l.8-.8V8h.8l.8.8.8-.8Zm-3.2,8v3.2h-.8l-.8.8V20h-.8v.8H16l-.8.8-.8.8V17.6l.8-.8L16,16l.8-.8.8-.8.8-.8.8.8Z"/><polygon class="cls-1" points="16.8 18.4 16.8 19.2 16 19.2 16 20 16 20.8 16.8 20 17.6 19.2 17.6 18.4 16.8 18.4"/><polygon class="cls-1" points="17.6 11.2 17.6 10.4 16.8 10.4 16.8 11.2 16 11.2 16 12 16 12.8 16.8 12 17.6 11.2"/><polygon class="cls-1" points="17.6 12.8 17.6 12 16.8 12 16.8 12.8 16 12.8 16 13.6 16 14.4 16.8 13.6 17.6 12.8"/><polygon class="cls-1" points="16 27.2 16 28 16 28.8 16.8 28 17.6 27.2 17.6 26.4 16.8 26.4 16.8 27.2 16 27.2"/><polygon class="cls-1" points="16 25.6 16 26.4 16 27.2 16.8 26.4 17.6 25.6 17.6 24.8 16.8 24.8 16.8 25.6 16 25.6"/><polygon class="cls-1" points="16 24 16 24.8 16 25.6 16.8 24.8 17.6 24 17.6 23.2 16.8 23.2 16.8 24 16 24"/><polygon class="cls-1" points="16 22.4 16 23.2 16 24 16.8 23.2 17.6 22.4 17.6 21.6 16.8 21.6 16.8 22.4 16 22.4"/><polygon class="cls-1" points="16 17.6 16 18.4 16 19.2 16.8 18.4 17.6 17.6 17.6 16.8 16.8 16.8 16.8 17.6 16 17.6"/><polygon class="cls-1" points="16 17.6 16.8 16.8 17.6 16 17.6 15.2 16.8 15.2 16.8 16 16 16 16 16.8 16 17.6"/><polygon class="cls-1" points="7.2 20 8 19.2 7.2 19.2 7.2 20"/><polygon class="cls-1" points="5.6 13.6 5.6 12.8 5.6 12 5.6 11.2 4.8 11.2 4.8 12 4 12 3.2 12.8 2.4 13.6 1.6 14.4 0.8 15.2 0 16 0 16.8 0 17.6 0 18.4 0 19.2 0.8 20 1.6 20.8 1.6 21.6 2.4 21.6 2.4 22.4 3.2 22.4 4 23.2 4.8 24 4.8 24.8 4.8 25.6 4.8 26.4 4.8 27.2 4.8 28 4.8 28.8 5.6 28 5.6 27.2 5.6 26.4 5.6 25.6 5.6 24.8 5.6 24 5.6 23.2 4.8 22.4 4 21.6 3.2 20.8 2.4 20 2.4 19.2 2.4 18.4 3.2 17.6 4 17.6 4.8 17.6 5.6 16.8 6.4 16 6.4 15.2 6.4 14.4 5.6 14.4 5.6 13.6"/><line class="cls-2" x1="32" y1="32" y2="32"/><line class="cls-2" x2="32"/></g></g></svg>