<svg xmlns="http://www.w3.org/2000/svg" viewBox="0 0 32 32"><defs><style>.cls-1{fill:#bb868c;}.cls-2{fill:none;}</style></defs><g id="Layer_2" data-name="Layer 2"><g id="Layer_1-2" data-name="Layer 1"><polygon class="cls-1" points="25.6 18.4 24.8 18.4 24 17.6 24.8 17.6 25.6 17.6 25.6 16.8 25.6 16 24.8 16 24 16 23.2 15.2 23.2 16 23.2 16.8 23.2 17.6 23.2 18.4 24 19.2 24.8 20 25.6 20 26.4 20 26.4 19.2 26.4 18.4 25.6 18.4"/><polygon class="cls-1" points="14.4 26.4 14.4 27.2 14.4 28 14.4 28.8 15.2 28 15.2 27.2 15.2 26.4 15.2 25.6 15.2 24.8 14.4 25.6 14.4 26.4"/><polygon class="cls-1" points="14.4 8.8 14.4 8 13.6 8.8 12.8 9.6 12 8.8 11.2 8 11.2 8.8 11.2 9.6 12 10.4 12.8 11.2 13.6 10.4 14.4 9.6 14.4 8.8"/><polygon class="cls-1" points="13.6 5.6 14.4 4.8 14.4 4 14.4 3.2 13.6 4 12.8 4.8 12 4 12 4.8 12 5.6 12.8 6.4 13.6 5.6"/><polygon class="cls-1" points="12 25.6 12 26.4 12.8 27.2 12.8 26.4 12.8 25.6 12 24.8 12 25.6"/><polygon class="cls-1" points="12 20.8 12 20 11.2 20.8 12 21.6 12 20.8"/><polygon class="cls-1" points="11.2 27.2 10.4 26.4 10.4 27.2 10.4 28 11.2 28.8 12 29.6 12.8 28.8 12.8 28 12.8 27.2 12 28 11.2 27.2"/><polygon class="cls-1" points="11.2 22.4 10.4 21.6 9.6 22.4 8.8 23.2 8.8 24 8.8 24.8 9.6 24 10.4 23.2 11.2 22.4"/><polygon class="cls-1" points="10.4 8.8 10.4 8 10.4 7.2 9.6 8 8.8 7.2 8.8 8 8.8 8.8 9.6 9.6 10.4 8.8"/><polygon class="cls-1" points="6.4 23.2 6.4 24 7.2 24.8 7.2 24 7.2 23.2 6.4 22.4 6.4 23.2"/><polygon class="cls-1" points="3.2 18.4 2.4 18.4 2.4 19.2 2.4 20 3.2 20 4 20 4.8 19.2 4.8 18.4 4.8 17.6 4 18.4 3.2 18.4"/><line class="cls-2" x1="32" y1="32" y2="32"/><line class="cls-2" x2="32"/></g></g></svg>