<?xml version="1.0" encoding="utf-8"?>
<!-- Generator: Adobe Illustrator 25.4.1, SVG Export Plug-In . SVG Version: 6.00 Build 0)  -->
<svg version="1.1" id="Layer_1" xmlns="http://www.w3.org/2000/svg" xmlns:xlink="http://www.w3.org/1999/xlink" x="0px" y="0px"
	 viewBox="0 0 32 32" style="enable-background:new 0 0 32 32;" xml:space="preserve">
<style type="text/css">
	.st0{fill:#4C3F39;}
</style>
<g id="Layer_2_00000130621277453168416650000014004839760845667472_">
	<g id="Layer_1-2">
		<path class="st0" d="M28,18.4c-0.7-0.7-1.7-1.7-2.4-2.4c0,0.4,0,1.2,0,1.6l0.8,0.8c0,0.4,0,1.2,0,1.6l0.8,0.8
			c0.4-0.4,1.2-1.2,1.6-1.6L28,18.4z"/>
		<path class="st0" d="M23.2,13.6c0,0.4,0,1.2,0,1.6c0.4,0,1.2,0,1.6,0C24.4,14.8,23.6,14,23.2,13.6z"/>
		<path class="st0" d="M23.2,25.6v0.8H24c0-0.4,0-1.2,0-1.6h-0.8V25.6z"/>
		<polygon class="st0" points="22.4,15.2 22.4,16 23.2,16 23.2,15.2 22.4,14.4 		"/>
		<path class="st0" d="M22.4,28c0,0.7,0,1.7,0,2.4l0.8,0.8c0-1.3,0-2.7,0-4h-0.8V28z"/>
		<path class="st0" d="M20,5.6l0.8,0.8h0.8V5.6C21.2,5.6,20.4,5.6,20,5.6z"/>
		<path class="st0" d="M18.4,5.6l0.8,0.8c0-0.4,0-1.2,0-1.6h-0.8V5.6z"/>
		<path class="st0" d="M18.4,24.8v0.8h0.8c0-0.7,0-1.7,0-2.4h-0.8C18.4,23.6,18.4,24.4,18.4,24.8z"/>
		<polygon class="st0" points="18.4,11.2 18.4,12 19.2,11.2 18.4,10.4 		"/>
		<path class="st0" d="M18.4,14.4c0,1.3,0,2.7,0,4h0.8c0-1.3,0-2.7,0-4l-0.8-0.8V14.4z"/>
		<path class="st0" d="M18.4,20.8c0,0.7,0,1.7,0,2.4l0.8-0.8c0-0.4,0-1.2,0-1.6L18.4,20V20.8z"/>
		<polygon class="st0" points="17.6,26.4 17.6,25.6 16.8,26.4 		"/>
		<polygon class="st0" points="17.6,24.8 17.6,24 16.8,24.8 		"/>
		<polygon class="st0" points="17.6,23.2 17.6,22.4 16.8,23.2 		"/>
		<polygon class="st0" points="17.6,21.6 17.6,20.8 16.8,21.6 		"/>
		<polygon class="st0" points="17.6,20 17.6,19.2 16.8,20 		"/>
		<polygon class="st0" points="17.6,18.4 17.6,17.6 16.8,18.4 		"/>
		<polygon class="st0" points="17.6,16.8 17.6,16 16.8,16.8 		"/>
		<polygon class="st0" points="17.6,15.2 17.6,14.4 16.8,15.2 		"/>
		<polygon class="st0" points="17.6,13.6 17.6,12.8 16.8,13.6 		"/>
		<polygon class="st0" points="17.6,12 17.6,11.2 16.8,12 		"/>
		<polygon class="st0" points="17.6,10.4 17.6,9.6 16.8,10.4 		"/>
		<polygon class="st0" points="16.8,27.2 16.8,26.4 16,27.2 		"/>
		<polygon class="st0" points="16.8,25.6 16.8,24.8 16,25.6 		"/>
		<polygon class="st0" points="16.8,24 16.8,23.2 16,24 		"/>
		<polygon class="st0" points="16.8,22.4 16.8,21.6 16,22.4 		"/>
		<polygon class="st0" points="16.8,20.8 16.8,20 16,20.8 		"/>
		<polygon class="st0" points="16.8,19.2 16.8,18.4 16,19.2 		"/>
		<polygon class="st0" points="16.8,17.6 16.8,16.8 16,17.6 		"/>
		<polygon class="st0" points="16.8,16 16.8,15.2 16,16 		"/>
		<polygon class="st0" points="16.8,14.4 16.8,13.6 16,14.4 		"/>
		<polygon class="st0" points="16.8,12.8 16.8,12 16,12.8 		"/>
		<polygon class="st0" points="16.8,11.2 16.8,10.4 16,11.2 		"/>
		<path class="st0" d="M12.8,12.8c0,5.9,0,11.7,0,17.6l0.8,0.8c0-6.4,0-12.8,0-19.2h-0.8V12.8z"/>
		<polygon class="st0" points="12.8,0.8 12.8,1.6 13.6,0.8 13.6,0 12.8,0 		"/>
		<rect x="7.2" y="4.8" class="st0" width="0.8" height="0.8"/>
		<path class="st0" d="M7.2,9.6c0,3.2,0,6.4,0,9.6H8C8,15.5,8,11.7,8,8L7.2,8.8V9.6z"/>
		<path class="st0" d="M7.2,20.8c0,1.6,0,3.2,0,4.8H8c0-2.1,0-4.3,0-6.4L7.2,20V20.8z"/>
		<path class="st0" d="M5.6,6.4V5.6c-0.4,0-1.2,0-1.6,0l0.8,0.8H5.6z"/>
		<path class="st0" d="M4.8,8l0.8,0.8c0-0.4,0-1.2,0-1.6L4.8,6.4C4.8,6.8,4.8,7.6,4.8,8z"/>
		<path class="st0" d="M1.6,25.6c1,1,2.2,2.2,3.2,3.2c0-1.6,0-3.2,0-4.8c-0.4-0.4-1.2-1.2-1.6-1.6H2.4v-0.8H1.6v-0.8
			c-0.4-0.4-1.2-1.2-1.6-1.6c0,1.6,0,3.2,0,4.8C0.4,24.4,1.2,25.2,1.6,25.6z"/>
	</g>
</g>
</svg>
