<svg xmlns="http://www.w3.org/2000/svg" viewBox="0 0 32 32"><defs><style>.cls-1{fill:#e3aab2;}.cls-2{fill:none;}</style></defs><g id="Layer_2" data-name="Layer 2"><g id="Layer_1-2" data-name="Layer 1"><polygon class="cls-1" points="25.6 17.6 24.8 17.6 24 17.6 24.8 18.4 25.6 18.4 26.4 18.4 25.6 17.6"/><polygon class="cls-1" points="24.8 16 25.6 16 24.8 15.2 24 15.2 23.2 15.2 24 16 24.8 16"/><polygon class="cls-1" points="14.4 24.8 14.4 25.6 15.2 24.8 14.4 24 14.4 24.8"/><polygon class="cls-1" points="13.6 7.2 12.8 8 12 7.2 11.2 8 12 8.8 12.8 9.6 13.6 8.8 14.4 8 13.6 7.2"/><polygon class="cls-1" points="13.6 4 14.4 3.2 13.6 2.4 12.8 3.2 12 4 12.8 4.8 13.6 4"/><polygon class="cls-1" points="12.8 25.6 12.8 24.8 12.8 24 12 24.8 12.8 25.6"/><polygon class="cls-1" points="12 25.6 11.2 25.6 10.4 26.4 11.2 27.2 12 28 12.8 27.2 12 26.4 12 25.6"/><polygon class="cls-1" points="11.2 20.8 12 20 11.2 20 10.4 20 11.2 20.8"/><rect class="cls-1" x="6.63" y="4.23" width="1.13" height="1.13" transform="translate(1.11 8.9) rotate(-45)"/><polygon class="cls-1" points="9.6 20.8 8.8 20 8.8 20.8 8.8 21.6 8.8 22.4 8.8 23.2 9.6 22.4 10.4 21.6 9.6 20.8"/><polygon class="cls-1" points="7.2 23.2 7.2 22.4 7.2 21.6 6.4 22.4 7.2 23.2"/><polygon class="cls-1" points="3.2 17.6 2.4 18.4 3.2 18.4 4 18.4 4.8 17.6 4 17.6 3.2 17.6"/><line class="cls-2" x1="32" y1="32" y2="32"/><line class="cls-2" x2="32"/></g></g></svg>