<svg xmlns="http://www.w3.org/2000/svg" viewBox="0 0 16 16"><defs><style>.cls-1{fill:#29201d;}.cls-2{fill:none;}</style></defs><g id="Layer_2" data-name="Layer 2"><g id="Layer_1-2" data-name="Layer 1"><polygon class="cls-1" points="12 7.2 11.2 6.4 10.4 5.6 9.6 4.8 8.8 4 8.8 3.2 8.8 2.4 8 3.2 8 4 7.2 4 6.4 4 6.4 3.2 5.6 4 4.8 4 4.8 3.2 4 2.4 4 3.2 4 4 4 4.8 4 5.6 4 6.4 4 7.2 4 8 4 8.8 4 9.6 4 10.4 4 11.2 4 12 4 12.01 4 12.8 4 13.6 4 13.61 4 14.4 4.8 14.4 4.8 13.6 4.8 12.81 4.8 12.8 4.8 12 4.8 11.2 4.8 10.4 4.8 9.6 4.8 8.8 4.8 8 4.8 7.2 4.8 6.4 4.8 5.6 5.6 5.6 6.4 6.4 7.2 6.4 7.2 5.6 8 5.6 8.8 5.6 8.8 6.4 9.6 6.4 9.6 7.2 10.4 7.2 10.4 8 11.2 8 12 8 12.8 8 12 7.2"/><line class="cls-2" x2="16"/><line class="cls-2" x1="16" y1="16" y2="16"/></g></g></svg>