<svg xmlns="http://www.w3.org/2000/svg" viewBox="0 0 16 16"><defs><style>.cls-1{fill:#c0b8ac;}.cls-2{fill:none;}</style></defs><g id="Layer_2" data-name="Layer 2"><g id="Layer_1-2" data-name="Layer 1"><polygon class="cls-1" points="9.6 7.2 9.6 6.4 8.8 6.4 8.8 7.2 8 7.2 7.2 7.2 7.2 6.4 6.4 6.4 6.4 7.2 6.4 8 5.6 8 4.8 8 4.8 8.8 4.8 9.6 4.8 10.4 5.6 10.4 6.4 10.4 7.2 10.4 8 10.4 8 9.6 8.8 8.8 9.6 8 9.6 8.8 10.4 8.8 10.4 8 10.4 7.2 9.6 7.2"/><polygon class="cls-1" points="6.4 11.2 5.6 11.2 4.8 11.2 4.8 12 5.6 12 6.4 12 7.2 12 8 12 8 11.2 7.2 11.2 6.4 11.2"/><line class="cls-2" x2="16"/><line class="cls-2" x1="16" y1="16" y2="16"/></g></g></svg>