<svg viewBox="0 0 32 32" xmlns="http://www.w3.org/2000/svg"><g fill="#55332c"><path d="m11.2 24.8v-.8h-.8v.8.8h.8z"/><path d="m13.6 31.2.8.8h.8v-.8h-.8z"/><path d="m20.8 24.8v.8h.8v-.8-.8h-.8z"/><path d="m17.6 26.4h.8l.8-.8h-.8-.8-.8-.8-.8-.8-.8-.8l.8.8h.8.8.8.8z"/><path d="m12 31.2h-.8v.8h.8.8.8v-.8h-.8z"/><path d="m20.8 22.4-.8.8.8.8v-.8z"/><path d="m16.8 31.2v.8h.8l.8-.8h-.8z"/><path d="m24 21.6h-.8l.8.8.8-.8z"/><path d="m16.8 23.2h-.8-.8l.8.8z"/><path d="m12 25.6h.8l-.8-.8z"/><path d="m11.2 22.4v.8.8l.8-.8z"/><path d="m19.2 31.2h-.8v.8h.8.8.8v-.8h-.8z"/><path d="m7.2 21.6.8.8.8-.8h-.8z"/><path d="m20 24.8-.8.8h.8z"/></g><path d="m0 0h32" fill="#fff"/><path d="m32 32h-32" fill="#fff"/></svg>