<svg viewBox="0 0 32 32" xmlns="http://www.w3.org/2000/svg"><g fill="#6b4528"><path d="m11.2 22.4-.8-.8-.8-.8-.8-.8-.8.8h-.8v.8h.8.8l.8.8.8.8.8.8v-.8z"/><path d="m13.6 29.6-.8.8-.8-.8-.8.8v.8h.8.8.8.8.8v-.8-.8h-.8z"/><path d="m13.6 12h-.8-.8l.8.8z"/><path d="m8.8 24h-.8-.8-.8l-.8.8h.8v.8l-.8.8h.8v.8l.8.8.8-.8.8-.8.8-.8h.8v-.8-.8h-.8z"/><path d="m25.6 24.8h.8l-.8-.8h-.8-.8-.8-.8-.8v.8.8h.8l.8.8.8.8.8.8.8-.8v-.8h.8l-.8-.8z"/><path d="m22.4 22.4.8-.8h.8.8v-.8h-.8l-.8-.8-.8.8-.8.8-.8.8v.8.8l.8-.8z"/><path d="m17.6 26.4h-.8-.8-.8-.8-.8l-.8-.8h-.8v.8.8h.8l.8.8.8.8h.8.8.8.8l.8-.8.8-.8h.8v-.8-.8h-.8l-.8.8z"/><path d="m19.2 30.4-.8-.8h-.8-.8v.8.8h.8.8.8.8.8v-.8l-.8-.8z"/><path d="m20 12h-.8-.8l.8.8z"/><path d="m19.2 23.2h-.8-.8-.8l-.8.8-.8-.8h-.8-.8-.8-.8l-.8.8.8.8.8.8h.8v-.8l.8-.8v.8.8h.8.8.8.8.8.8l-.8-.8h-.8v-.8l.8.8h.8v.8l.8-.8.8-.8-.8-.8z"/></g><path d="m0 0h32" fill="#fff"/><path d="m32 32h-32" fill="#fff"/></svg>