<svg id="Layer_1" data-name="Layer 1" xmlns="http://www.w3.org/2000/svg" viewBox="0 0 32 32"><polygon points="11.2 20 10.4 19.2 9.6 18.4 8.8 17.6 8 18.4 7.2 18.4 7.2 19.2 8 19.2 8.8 19.2 9.6 20 10.4 20.8 11.2 21.6 11.2 20.8 11.2 20" fill="#6b4528"/><polygon points="13.6 27.2 12.8 28 12 27.2 11.2 28 11.2 28.8 12 28.8 12.8 28.8 13.6 28.8 14.4 28.8 15.2 28.8 15.2 28 15.2 27.2 14.4 27.2 13.6 27.2" fill="#6b4528"/><polygon points="13.6 9.6 12.8 9.6 12 9.6 12.8 10.4 13.6 9.6" fill="#6b4528"/><polygon points="8.8 21.6 8 21.6 7.2 21.6 6.4 21.6 5.6 22.4 6.4 22.4 6.4 23.2 5.6 24 6.4 24 6.4 24.8 7.2 25.6 8 24.8 8.8 24 9.6 23.2 10.4 23.2 10.4 22.4 10.4 21.6 9.6 21.6 8.8 21.6" fill="#6b4528"/><polygon points="25.6 22.4 26.4 22.4 25.6 21.6 24.8 21.6 24 21.6 23.2 21.6 22.4 21.6 21.6 21.6 21.6 22.4 21.6 23.2 22.4 23.2 23.2 24 24 24.8 24.8 25.6 25.6 24.8 25.6 24 26.4 24 25.6 23.2 25.6 22.4" fill="#6b4528"/><polygon points="22.4 20 23.2 19.2 24 19.2 24.8 19.2 24.8 18.4 24 18.4 23.2 17.6 22.4 18.4 21.6 19.2 20.8 20 20.8 20.8 20.8 21.6 21.6 20.8 22.4 20" fill="#6b4528"/><polygon points="17.6 24 16.8 24 16 24 15.2 24 14.4 24 13.6 24 12.8 23.2 12 23.2 12 24 12 24.8 12.8 24.8 13.6 25.6 14.4 26.4 15.2 26.4 16 26.4 16.8 26.4 17.6 26.4 18.4 25.6 19.2 24.8 20 24.8 20 24 20 23.2 19.2 23.2 18.4 24 17.6 24" fill="#6b4528"/><polygon points="19.2 28 18.4 27.2 17.6 27.2 16.8 27.2 16.8 28 16.8 28.8 17.6 28.8 18.4 28.8 19.2 28.8 20 28.8 20.8 28.8 20.8 28 20 27.2 19.2 28" fill="#6b4528"/><polygon points="20 9.6 19.2 9.6 18.4 9.6 19.2 10.4 20 9.6" fill="#6b4528"/><polygon points="19.2 20.8 18.4 20.8 17.6 20.8 16.8 20.8 16 21.6 15.2 20.8 14.4 20.8 13.6 20.8 12.8 20.8 12 20.8 11.2 21.6 12 22.4 12.8 23.2 13.6 23.2 13.6 22.4 14.4 21.6 14.4 22.4 14.4 23.2 15.2 23.2 16 23.2 16.8 23.2 17.6 23.2 18.4 23.2 19.2 23.2 18.4 22.4 17.6 22.4 17.6 21.6 18.4 22.4 19.2 22.4 19.2 23.2 20 22.4 20.8 21.6 20 20.8 19.2 20.8" fill="#6b4528"/><line x2="32" fill="#fff"/><line x1="32" y1="32" y2="32" fill="#fff"/></svg>