<svg id="Layer_1" data-name="Layer 1" xmlns="http://www.w3.org/2000/svg" viewBox="0 0 32 32"><polygon points="11.2 24.8 11.2 24 10.4 24 10.4 24.8 10.4 25.6 11.2 25.6 11.2 24.8" fill="#55332c"/><polygon points="13.6 31.2 14.4 32 15.2 32 15.2 31.2 14.4 31.2 13.6 31.2" fill="#55332c"/><polygon points="20.8 24.8 20.8 25.6 21.6 25.6 21.6 24.8 21.6 24 20.8 24 20.8 24.8" fill="#55332c"/><polygon points="17.6 26.4 18.4 26.4 19.2 25.6 18.4 25.6 17.6 25.6 16.8 25.6 16 25.6 15.2 25.6 14.4 25.6 13.6 25.6 12.8 25.6 13.6 26.4 14.4 26.4 15.2 26.4 16 26.4 16.8 26.4 17.6 26.4" fill="#55332c"/><polygon points="12 31.2 11.2 31.2 11.2 32 12 32 12.8 32 13.6 32 13.6 31.2 12.8 31.2 12 31.2" fill="#55332c"/><polygon points="20.8 22.4 20 23.2 20.8 24 20.8 23.2 20.8 22.4" fill="#55332c"/><polygon points="16.8 31.2 16.8 32 17.6 32 18.4 31.2 17.6 31.2 16.8 31.2" fill="#55332c"/><polygon points="24 21.6 23.2 21.6 24 22.4 24.8 21.6 24 21.6" fill="#55332c"/><polygon points="16.8 23.2 16 23.2 15.2 23.2 16 24 16.8 23.2" fill="#55332c"/><polygon points="12 25.6 12.8 25.6 12 24.8 12 25.6" fill="#55332c"/><polygon points="11.2 22.4 11.2 23.2 11.2 24 12 23.2 11.2 22.4" fill="#55332c"/><polygon points="19.2 31.2 18.4 31.2 18.4 32 19.2 32 20 32 20.8 32 20.8 31.2 20 31.2 19.2 31.2" fill="#55332c"/><polygon points="7.2 21.6 8 22.4 8.8 21.6 8 21.6 7.2 21.6" fill="#55332c"/><polygon points="20 24.8 19.2 25.6 20 25.6 20 24.8" fill="#55332c"/><line x2="32" fill="#fff"/><line x1="32" y1="32" y2="32" fill="#fff"/></svg>