<svg id="Layer_1" data-name="Layer 1" xmlns="http://www.w3.org/2000/svg" viewBox="0 0 32 32"><polygon points="11.2 22.4 10.4 21.6 9.6 20.8 8.8 20 8 20.8 7.2 20.8 7.2 21.6 8 21.6 8.8 21.6 9.6 22.4 10.4 23.2 11.2 24 11.2 23.2 11.2 22.4" fill="#6b4528"/><polygon points="13.6 29.6 12.8 30.4 12 29.6 11.2 30.4 11.2 31.2 12 31.2 12.8 31.2 13.6 31.2 14.4 31.2 15.2 31.2 15.2 30.4 15.2 29.6 14.4 29.6 13.6 29.6" fill="#6b4528"/><polygon points="13.6 12 12.8 12 12 12 12.8 12.8 13.6 12" fill="#6b4528"/><polygon points="8.8 24 8 24 7.2 24 6.4 24 5.6 24.8 6.4 24.8 6.4 25.6 5.6 26.4 6.4 26.4 6.4 27.2 7.2 28 8 27.2 8.8 26.4 9.6 25.6 10.4 25.6 10.4 24.8 10.4 24 9.6 24 8.8 24" fill="#6b4528"/><polygon points="25.6 24.8 26.4 24.8 25.6 24 24.8 24 24 24 23.2 24 22.4 24 21.6 24 21.6 24.8 21.6 25.6 22.4 25.6 23.2 26.4 24 27.2 24.8 28 25.6 27.2 25.6 26.4 26.4 26.4 25.6 25.6 25.6 24.8" fill="#6b4528"/><polygon points="22.4 22.4 23.2 21.6 24 21.6 24.8 21.6 24.8 20.8 24 20.8 23.2 20 22.4 20.8 21.6 21.6 20.8 22.4 20.8 23.2 20.8 24 21.6 23.2 22.4 22.4" fill="#6b4528"/><polygon points="17.6 26.4 16.8 26.4 16 26.4 15.2 26.4 14.4 26.4 13.6 26.4 12.8 25.6 12 25.6 12 26.4 12 27.2 12.8 27.2 13.6 28 14.4 28.8 15.2 28.8 16 28.8 16.8 28.8 17.6 28.8 18.4 28 19.2 27.2 20 27.2 20 26.4 20 25.6 19.2 25.6 18.4 26.4 17.6 26.4" fill="#6b4528"/><polygon points="19.2 30.4 18.4 29.6 17.6 29.6 16.8 29.6 16.8 30.4 16.8 31.2 17.6 31.2 18.4 31.2 19.2 31.2 20 31.2 20.8 31.2 20.8 30.4 20 29.6 19.2 30.4" fill="#6b4528"/><polygon points="20 12 19.2 12 18.4 12 19.2 12.8 20 12" fill="#6b4528"/><polygon points="19.2 23.2 18.4 23.2 17.6 23.2 16.8 23.2 16 24 15.2 23.2 14.4 23.2 13.6 23.2 12.8 23.2 12 23.2 11.2 24 12 24.8 12.8 25.6 13.6 25.6 13.6 24.8 14.4 24 14.4 24.8 14.4 25.6 15.2 25.6 16 25.6 16.8 25.6 17.6 25.6 18.4 25.6 19.2 25.6 18.4 24.8 17.6 24.8 17.6 24 18.4 24.8 19.2 24.8 19.2 25.6 20 24.8 20.8 24 20 23.2 19.2 23.2" fill="#6b4528"/><line x2="32" fill="#fff"/><line x1="32" y1="32" y2="32" fill="#fff"/></svg>