<svg id="Layer_1" data-name="Layer 1" xmlns="http://www.w3.org/2000/svg" viewBox="0 0 32 32"><polygon points="11.2 22.4 11.2 21.6 10.4 21.6 10.4 22.4 10.4 23.2 11.2 23.2 11.2 22.4" fill="#55332c"/><polygon points="13.6 28.8 14.4 29.6 15.2 29.6 15.2 28.8 14.4 28.8 13.6 28.8" fill="#55332c"/><polygon points="20.8 22.4 20.8 23.2 21.6 23.2 21.6 22.4 21.6 21.6 20.8 21.6 20.8 22.4" fill="#55332c"/><polygon points="17.6 24 18.4 24 19.2 23.2 18.4 23.2 17.6 23.2 16.8 23.2 16 23.2 15.2 23.2 14.4 23.2 13.6 23.2 12.8 23.2 13.6 24 14.4 24 15.2 24 16 24 16.8 24 17.6 24" fill="#55332c"/><polygon points="12 28.8 11.2 28.8 11.2 29.6 12 29.6 12.8 29.6 13.6 29.6 13.6 28.8 12.8 28.8 12 28.8" fill="#55332c"/><polygon points="20.8 20 20 20.8 20.8 21.6 20.8 20.8 20.8 20" fill="#55332c"/><polygon points="16.8 28.8 16.8 29.6 17.6 29.6 18.4 28.8 17.6 28.8 16.8 28.8" fill="#55332c"/><polygon points="24 19.2 23.2 19.2 24 20 24.8 19.2 24 19.2" fill="#55332c"/><polygon points="16.8 20.8 16 20.8 15.2 20.8 16 21.6 16.8 20.8" fill="#55332c"/><polygon points="12 23.2 12.8 23.2 12 22.4 12 23.2" fill="#55332c"/><polygon points="11.2 20 11.2 20.8 11.2 21.6 12 20.8 11.2 20" fill="#55332c"/><polygon points="19.2 28.8 18.4 28.8 18.4 29.6 19.2 29.6 20 29.6 20.8 29.6 20.8 28.8 20 28.8 19.2 28.8" fill="#55332c"/><polygon points="7.2 19.2 8 20 8.8 19.2 8 19.2 7.2 19.2" fill="#55332c"/><polygon points="20 22.4 19.2 23.2 20 23.2 20 22.4" fill="#55332c"/><line x2="32" fill="#fff"/><line x1="32" y1="32" y2="32" fill="#fff"/></svg>