<svg viewBox="0 0 32 32" xmlns="http://www.w3.org/2000/svg"><g fill="#ede4bb"><path d="m14.4 16h.8.8l-.8-.8z"/><path d="m18.4 29.6.8.8.8-.8h-.8z"/><path d="m19.2 12.8-.8-.8-.8.8h.8z"/><path d="m14.4 14.4-.8.8-.8.8h.8.8v-.8z"/><path d="m12 29.6.8.8.8-.8h-.8z"/><path d="m20 15.2-.8.8h.8.8l.8-.8v-.8-.8l-.8.8z"/><path d="m16 16h.8.8l-.8-.8z"/><path d="m20.8 12.8.8-.8h-.8-.8l-.8.8h.8z"/><path d="m17.6 14.4v.8.8h.8.8l-.8-.8z"/><path d="m14.4 12.8-.8-.8-.8.8h.8z"/><path d="m11.2 14.4-.8-.8v.8.8l.8.8h.8.8l-.8-.8z"/><path d="m12 12.8h.8l-.8-.8h-.8-.8l.8.8z"/></g><path d="m0 0h32" fill="#fff"/><path d="m32 32h-32" fill="#fff"/></svg>