<svg id="Layer_1" data-name="Layer 1" xmlns="http://www.w3.org/2000/svg" viewBox="0 0 32 32"><polygon points="19.2 23.2 19.2 22.4 18.4 22.4 19.2 23.2" fill="#a08f7a"/><polygon points="10.4 8.8 11.2 8.8 10.4 8 10.4 8.8" fill="#a08f7a"/><polygon points="20 8 20 8.8 20.8 8.8 20.8 8 20.8 7.2 20 8" fill="#a08f7a"/><polygon points="20 11.2 20.8 12 20.8 11.2 20.8 10.4 20 10.4 20 11.2" fill="#a08f7a"/><polygon points="13.6 23.2 14.4 23.2 14.4 22.4 14.4 21.6 13.6 22.4 13.6 23.2" fill="#a08f7a"/><polygon points="17.6 22.4 18.4 22.4 17.6 21.6 17.6 22.4" fill="#a08f7a"/><line x2="32" fill="#fff"/><line x1="32" y1="32" y2="32" fill="#fff"/></svg>