<svg id="Layer_1" data-name="Layer 1" xmlns="http://www.w3.org/2000/svg" viewBox="0 0 32 32"><polygon points="19.2 25.6 19.2 24.8 18.4 24.8 19.2 25.6" fill="#a08f7a"/><polygon points="10.4 11.2 11.2 11.2 10.4 10.4 10.4 11.2" fill="#a08f7a"/><polygon points="20 10.4 20 11.2 20.8 11.2 20.8 10.4 20.8 9.6 20 10.4" fill="#a08f7a"/><polygon points="20 13.6 20.8 14.4 20.8 13.6 20.8 12.8 20 12.8 20 13.6" fill="#a08f7a"/><polygon points="13.6 25.6 14.4 25.6 14.4 24.8 14.4 24 13.6 24.8 13.6 25.6" fill="#a08f7a"/><polygon points="17.6 24.8 18.4 24.8 17.6 24 17.6 24.8" fill="#a08f7a"/><line x2="32" fill="#fff"/><line x1="32" y1="32" y2="32" fill="#fff"/></svg>