<svg id="Layer_1" data-name="Layer 1" xmlns="http://www.w3.org/2000/svg" viewBox="0 0 32 32"><polygon points="14.4 13.6 15.2 13.6 16 13.6 15.2 12.8 14.4 13.6" fill="#ede4bb"/><polygon points="18.4 27.2 19.2 28 20 27.2 19.2 27.2 18.4 27.2" fill="#ede4bb"/><polygon points="19.2 10.4 18.4 9.6 17.6 10.4 18.4 10.4 19.2 10.4" fill="#ede4bb"/><polygon points="14.4 12 13.6 12.8 12.8 13.6 13.6 13.6 14.4 13.6 14.4 12.8 14.4 12" fill="#ede4bb"/><polygon points="12 27.2 12.8 28 13.6 27.2 12.8 27.2 12 27.2" fill="#ede4bb"/><polygon points="20 12.8 19.2 13.6 20 13.6 20.8 13.6 21.6 12.8 21.6 12 21.6 11.2 20.8 12 20 12.8" fill="#ede4bb"/><polygon points="16 13.6 16.8 13.6 17.6 13.6 16.8 12.8 16 13.6" fill="#ede4bb"/><polygon points="20.8 10.4 21.6 9.6 20.8 9.6 20 9.6 19.2 10.4 20 10.4 20.8 10.4" fill="#ede4bb"/><polygon points="17.6 12 17.6 12.8 17.6 13.6 18.4 13.6 19.2 13.6 18.4 12.8 17.6 12" fill="#ede4bb"/><polygon points="14.4 10.4 13.6 9.6 12.8 10.4 13.6 10.4 14.4 10.4" fill="#ede4bb"/><polygon points="11.2 12 10.4 11.2 10.4 12 10.4 12.8 11.2 13.6 12 13.6 12.8 13.6 12 12.8 11.2 12" fill="#ede4bb"/><polygon points="12 10.4 12.8 10.4 12 9.6 11.2 9.6 10.4 9.6 11.2 10.4 12 10.4" fill="#ede4bb"/><line x2="32" fill="#fff"/><line x1="32" y1="32" y2="32" fill="#fff"/></svg>