<svg id="Layer_1" data-name="Layer 1" xmlns="http://www.w3.org/2000/svg" viewBox="0 0 32 32"><polygon points="14.4 16 15.2 16 16 16 15.2 15.2 14.4 16" fill="#ede4bb"/><polygon points="18.4 29.6 19.2 30.4 20 29.6 19.2 29.6 18.4 29.6" fill="#ede4bb"/><polygon points="19.2 12.8 18.4 12 17.6 12.8 18.4 12.8 19.2 12.8" fill="#ede4bb"/><polygon points="14.4 14.4 13.6 15.2 12.8 16 13.6 16 14.4 16 14.4 15.2 14.4 14.4" fill="#ede4bb"/><polygon points="12 29.6 12.8 30.4 13.6 29.6 12.8 29.6 12 29.6" fill="#ede4bb"/><polygon points="20 15.2 19.2 16 20 16 20.8 16 21.6 15.2 21.6 14.4 21.6 13.6 20.8 14.4 20 15.2" fill="#ede4bb"/><polygon points="16 16 16.8 16 17.6 16 16.8 15.2 16 16" fill="#ede4bb"/><polygon points="20.8 12.8 21.6 12 20.8 12 20 12 19.2 12.8 20 12.8 20.8 12.8" fill="#ede4bb"/><polygon points="17.6 14.4 17.6 15.2 17.6 16 18.4 16 19.2 16 18.4 15.2 17.6 14.4" fill="#ede4bb"/><polygon points="14.4 12.8 13.6 12 12.8 12.8 13.6 12.8 14.4 12.8" fill="#ede4bb"/><polygon points="11.2 14.4 10.4 13.6 10.4 14.4 10.4 15.2 11.2 16 12 16 12.8 16 12 15.2 11.2 14.4" fill="#ede4bb"/><polygon points="12 12.8 12.8 12.8 12 12 11.2 12 10.4 12 11.2 12.8 12 12.8" fill="#ede4bb"/><line x2="32" fill="#fff"/><line x1="32" y1="32" y2="32" fill="#fff"/></svg>