<svg id="Layer_1" data-name="Layer 1" xmlns="http://www.w3.org/2000/svg" viewBox="0 0 32 32"><polygon points="22.4 22.4 23.2 22.4 24 22.4 23.2 21.6 22.4 22.4" fill="#585c27"/><polygon points="18.4 28 19.2 28 20 28 20 27.2 19.2 27.2 18.4 28" fill="#585c27"/><polygon points="11.2 26.4 11.2 25.6 10.4 26.4 11.2 26.4" fill="#585c27"/><polygon points="14.4 12 15.2 12 14.4 11.2 13.6 11.2 12.8 11.2 12 11.2 11.2 11.2 10.4 11.2 10.4 12 11.2 12 12 12 12.8 12 13.6 12 14.4 12.8 14.4 12" fill="#585c27"/><polygon points="25.6 9.6 24.8 10.4 24 11.2 23.2 12 24 12.8 23.2 13.6 23.2 14.4 23.2 15.2 24 16 24.8 15.2 25.6 14.4 26.4 13.6 26.4 12.8 26.4 12 25.6 11.2 26.4 10.4 26.4 9.6 26.4 8.8 25.6 9.6" fill="#585c27"/><polygon points="20.8 26.4 21.6 26.4 20.8 25.6 20.8 26.4" fill="#585c27"/><polygon points="8 22.4 8.8 22.4 9.6 22.4 8.8 21.6 8 22.4" fill="#585c27"/><polygon points="16 17.6 15.2 17.6 14.4 17.6 15.2 18.4 16 18.4 16.8 18.4 17.6 17.6 16.8 17.6 16 17.6" fill="#585c27"/><polygon points="8.8 15.2 8.8 14.4 8.8 13.6 8 12.8 8.8 12 8 11.2 7.2 10.4 6.4 9.6 5.6 8.8 5.6 9.6 5.6 10.4 6.4 11.2 5.6 12 5.6 12.8 5.6 13.6 6.4 14.4 7.2 15.2 8 16 8.8 15.2" fill="#585c27"/><polygon points="12 27.2 12 28 12.8 28 13.6 28 12.8 27.2 12 27.2" fill="#585c27"/><polygon points="20 11.2 19.2 11.2 18.4 11.2 17.6 11.2 16.8 12 17.6 12 17.6 12.8 18.4 12 19.2 12 20 12 20.8 12 21.6 12 21.6 11.2 20.8 11.2 20 11.2" fill="#585c27"/><polygon points="16 13.6 16.8 13.6 16 12.8 15.2 13.6 16 13.6" fill="#585c27"/><line x2="32" fill="#fff"/><line x1="32" y1="32" y2="32" fill="#fff"/></svg>