<svg viewBox="0 0 32 32" xmlns="http://www.w3.org/2000/svg"><g fill="#778536"><path d="m90.58 144.69-.8.8-.8.8-.8.8-.8.8-.8-.8-.8-.8-.8-.8h-9.6l-.8.8-.8.8-.8.8-.8-.8-.8-.8-.8-.8-.8-.8h-.78v7.2l.8.8.8.8.8.8h.8v2.4l.8.8.8.8.8.8.8.8.8.8h8l.8-.8.8-.8.8-.8.8-.8.8-.8v-2.4h.8l.8-.8.8-.8.8-.8v-2.4h-.8v1.6l-.8.8-.8.8-.8.8-.8-.8v-1.6l.8-.8-.8-.8.8-.8.8-.8.8-.8.8-.8v1.6l-.8.8.8.8.8-.8v-4zm-5.6 3.2v.8h.8v.8l-.8.8v1.6l.8-.8v1.6l-.8.8h-9.6l-.8-.8v-1.6l.8.8.8.8.8.8.8-.8.8-.8v1.6l.8-.8.8.8.8-.8.8.8v-1.6l.8.8.8.8.8-.8.8-.8-.8-.8v-.8h-2.4v-.8h-.78l.8-.8h2.4v-.8l.8-.8zm-4.8 2.4.8.8h-1.6zm-.8 4.8h2.4l-.8.8h-1.6l-.8-.8zm-4-6.4h3.2l.8.8h-.8v.8h-3.2l-.8-.8v-1.6zm-4 4-.8-.8-.8-.8v-1.6l.8-.8-.8-.8v-1.6l.8.8.8.8.8.8.8.8-.8.8.8.8v1.6l-.8.8z" transform="translate(-64.18 -137.49)"/><path d="m18.4 28-.8.8h-.8v.8h.8.8.8.8v-.8-.8h-.8z"/><path d="m8.8 24h.8.8.8l-.8-.8-.8-.8h-.8-.8l-.8.8v.8h.8z"/><path d="m13.6 28h-.8-.8v.8.8h.8.8.8.8v-.8h-.8z"/><path d="m23.2 22.4h-.8l-.8.8-.8.8h.8.8.8.8.8v-.8l-.8-.8z"/><path d="m23.2 26.4-.8-.8h-.8-.8l.8.8h-.8v-.8l-.8.8.8.8.8.8.8.8h.8.8l.8-.8-.8-.8z"/><path d="m11.2 25.6v.8h-.8l.8-.8h-.8-.8l-.8.8-.8.8-.8.8.8.8h.8.8l.8-.8.8-.8.8-.8z"/></g><path d="m0 0h32" fill="#fff"/><path d="m32 32h-32" fill="#fff"/></svg>