<svg id="Layer_1" data-name="Layer 1" xmlns="http://www.w3.org/2000/svg" viewBox="0 0 32 32"><path d="M90.58,144.69l-.8.8-.8.8-.8.8-.8.8-.8-.8-.8-.8-.8-.8h-9.6l-.8.8-.8.8-.8.8-.8-.8-.8-.8-.8-.8-.8-.8H69v7.2l.8.8.8.8.8.8h.8v2.4l.8.8.8.8.8.8.8.8.8.8h8l.8-.8.8-.8.8-.8.8-.8.8-.8v-2.4H89l.8-.8.8-.8.8-.8v-2.4h-.8v1.6l-.8.8-.8.8-.8.8-.8-.8v-1.6l.8-.8-.8-.8.8-.8.8-.8.8-.8.8-.8v1.6l-.8.8.8.8.8-.8v-4Zm-5.6,3.2v.8h.8v.8l-.8.8v1.6l.8-.8v1.6l-.8.8h-9.6l-.8-.8v-1.6l.8.8.8.8.8.8.8-.8.8-.8v1.6l.8-.8.8.8.8-.8.8.8v-1.6l.8.8.8.8.8-.8.8-.8-.8-.8v-.8h-2.4v-.8H81l.8-.8h2.4v-.8l.8-.8Zm-4.8,2.4.8.8h-1.6Zm-.8,4.8h2.4l-.8.8h-1.6l-.8-.8Zm-4-6.4h3.2l.8.8h-.8v.8h-3.2l-.8-.8v-1.6Zm-4,4-.8-.8-.8-.8v-1.6l.8-.8-.8-.8v-1.6l.8.8.8.8.8.8.8.8-.8.8.8.8v1.6l-.8.8Z" transform="translate(-64.18 -137.49)" fill="#778536"/><polygon points="18.4 28 17.6 28.8 16.8 28.8 16.8 29.6 17.6 29.6 18.4 29.6 19.2 29.6 20 29.6 20 28.8 20 28 19.2 28 18.4 28" fill="#778536"/><polygon points="8.8 24 9.6 24 10.4 24 11.2 24 10.4 23.2 9.6 22.4 8.8 22.4 8 22.4 7.2 23.2 7.2 24 8 24 8.8 24" fill="#778536"/><polygon points="13.6 28 12.8 28 12 28 12 28.8 12 29.6 12.8 29.6 13.6 29.6 14.4 29.6 15.2 29.6 15.2 28.8 14.4 28.8 13.6 28" fill="#778536"/><polygon points="23.2 22.4 22.4 22.4 21.6 23.2 20.8 24 21.6 24 22.4 24 23.2 24 24 24 24.8 24 24.8 23.2 24 22.4 23.2 22.4" fill="#778536"/><polygon points="23.2 26.4 22.4 25.6 21.6 25.6 20.8 25.6 21.6 26.4 20.8 26.4 20.8 25.6 20 26.4 20.8 27.2 21.6 28 22.4 28.8 23.2 28.8 24 28.8 24.8 28 24 27.2 23.2 26.4" fill="#778536"/><polygon points="11.2 25.6 11.2 26.4 10.4 26.4 11.2 25.6 10.4 25.6 9.6 25.6 8.8 26.4 8 27.2 7.2 28 8 28.8 8.8 28.8 9.6 28.8 10.4 28 11.2 27.2 12 26.4 11.2 25.6" fill="#778536"/><line x2="32" fill="#fff"/><line x1="32" y1="32" y2="32" fill="#fff"/></svg>