<svg id="Layer_1" data-name="Layer 1" xmlns="http://www.w3.org/2000/svg" viewBox="0 0 32 32"><polygon points="22.4 20 23.2 20 24 20 23.2 19.2 22.4 20" fill="#484d22"/><polygon points="18.4 25.6 19.2 25.6 20 25.6 20 24.8 19.2 24.8 18.4 25.6" fill="#484d22"/><polygon points="11.2 24 11.2 23.2 10.4 24 11.2 24" fill="#484d22"/><polygon points="14.4 9.6 15.2 9.6 14.4 8.8 13.6 8.8 12.8 8.8 12 8.8 11.2 8.8 10.4 8.8 10.4 9.6 11.2 9.6 12 9.6 12.8 9.6 13.6 9.6 14.4 10.4 14.4 9.6" fill="#484d22"/><polygon points="25.6 7.2 24.8 8 24 8.8 23.2 9.6 24 10.4 23.2 11.2 23.2 12 23.2 12.8 24 13.6 24.8 12.8 25.6 12 26.4 11.2 26.4 10.4 26.4 9.6 25.6 8.8 26.4 8 26.4 7.2 26.4 6.4 25.6 7.2" fill="#484d22"/><polygon points="20.8 24 21.6 24 20.8 23.2 20.8 24" fill="#484d22"/><polygon points="8 20 8.8 20 9.6 20 8.8 19.2 8 20" fill="#484d22"/><polygon points="16 15.2 15.2 15.2 14.4 15.2 15.2 16 16 16 16.8 16 17.6 15.2 16.8 15.2 16 15.2" fill="#484d22"/><polygon points="8.8 12.8 8.8 12 8.8 11.2 8 10.4 8.8 9.6 8 8.8 7.2 8 6.4 7.2 5.6 6.4 5.6 7.2 5.6 8 6.4 8.8 5.6 9.6 5.6 10.4 5.6 11.2 6.4 12 7.2 12.8 8 13.6 8.8 12.8" fill="#484d22"/><polygon points="12 24.8 12 25.6 12.8 25.6 13.6 25.6 12.8 24.8 12 24.8" fill="#484d22"/><polygon points="20 8.8 19.2 8.8 18.4 8.8 17.6 8.8 16.8 9.6 17.6 9.6 17.6 10.4 18.4 9.6 19.2 9.6 20 9.6 20.8 9.6 21.6 9.6 21.6 8.8 20.8 8.8 20 8.8" fill="#484d22"/><polygon points="16 11.2 16.8 11.2 16 10.4 15.2 11.2 16 11.2" fill="#484d22"/><line x2="32" fill="#fff"/><line x1="32" y1="32" y2="32" fill="#fff"/></svg>