<svg viewBox="0 0 32 32" xmlns="http://www.w3.org/2000/svg"><g fill="#585c27"><path d="m22.4 22.4h.8.8l-.8-.8z"/><path d="m18.4 28h.8.8v-.8h-.8z"/><path d="m11.2 26.4v-.8l-.8.8z"/><path d="m14.4 12h.8l-.8-.8h-.8-.8-.8-.8-.8v.8h.8.8.8.8l.8.8z"/><path d="m25.6 9.6-.8.8-.8.8-.8.8.8.8-.8.8v.8.8l.8.8.8-.8.8-.8.8-.8v-.8-.8l-.8-.8.8-.8v-.8-.8z"/><path d="m20.8 26.4h.8l-.8-.8z"/><path d="m8 22.4h.8.8l-.8-.8z"/><path d="m16 17.6h-.8-.8l.8.8h.8.8l.8-.8h-.8z"/><path d="m8.8 15.2v-.8-.8l-.8-.8.8-.8-.8-.8-.8-.8-.8-.8-.8-.8v.8.8l.8.8-.8.8v.8.8l.8.8.8.8.8.8z"/><path d="m12 27.2v.8h.8.8l-.8-.8z"/><path d="m20 11.2h-.8-.8-.8l-.8.8h.8v.8l.8-.8h.8.8.8.8v-.8h-.8z"/><path d="m16 13.6h.8l-.8-.8-.8.8z"/></g><path d="m0 0h32" fill="#fff"/><path d="m32 32h-32" fill="#fff"/></svg>