<svg xmlns="http://www.w3.org/2000/svg" viewBox="0 0 345.65 378.8"><g id="Layer_2" data-name="Layer 2"><g id="Layer_1-2" data-name="Layer 1"><path d="M204.26,303.63c-2-4.09-2.18-8.37-2.3-12.69-.06-1.95-2.65-4.68-4.18-5q-2.34,11.08-4.69,22.17l-.71,0c-1.53-4.74-1.12-9.76-1.48-14.66l-.59-.23c-1.48,2-3,3.93-4.41,6a7.71,7.71,0,0,0-1.26,5.25c.24,2.76-.37,5.6-.43,8.4-.05,2.15.25,4.3.25,6.45a12.54,12.54,0,0,1-.75,4.17c-2.1-6.46-1.25-13.39-3.92-19.84-.3,1.22-.66,2.44-.89,3.68-.47,2.6-.93,5.22-1.3,7.84-.29,2.12-.54,4.26-.62,6.4a51.87,51.87,0,0,1-4.63,18.67c-2.15,5-4,10.15-5.93,15.28-.49,1.35-.73,2.68-2.74,3a73.34,73.34,0,0,1-1.15-8.64c-.17-9.33-1.6-18.5-3-27.68a4.67,4.67,0,0,0-.39-1.43,14.72,14.72,0,0,1-1.34-10,2,2,0,0,0-.11-1.29c-.26-.5-.76-1.25-1.12-1.23a2,2,0,0,0-1.42,1.07,25.51,25.51,0,0,0-1.14,5.15c-.23,2.69-.14,5.41-.26,8.11a20.17,20.17,0,0,1-.48,2.74h-.62a12.24,12.24,0,0,1-.57-2.09c-.48-5.28-.86-10.56-1.36-15.84-.17-1.76-.54-3.5-2.34-4.5-1-.56-1.69-.44-2.06.66a21.65,21.65,0,0,0-.8,2.86q-1.8,9.34-3.53,18.7c-.23,1.27-.36,2.57-.54,3.85H141a27.94,27.94,0,0,1-.57-3c-.17-1.82-.2-3.65-.31-5.47-.68-10.41-1.34-20.83-2.06-31.24a16.18,16.18,0,0,0-.81-3.07l-.74,0c-.27,1.34-.63,2.67-.8,4-.62,4.81-1.17,9.64-1.76,14.46-.07.53-.25,1-.37,1.56l-.56.08c-.35-1.59-.8-3.18-1-4.79-.69-4.7-1.28-9.41-1.93-14.12-.08-.58-.25-1.15-.42-1.92-2,1.66-4.16,2.92-5.45,4.79-.71,1-.41,3.3.25,4.61a5.48,5.48,0,0,1,.19,5.18,3.44,3.44,0,0,0-.18,1.91c.28,1.57.65,3.13,1.08,4.68.64,2.29.48,3.08-1.47,4.37-1.51,1-2.37,2-1.14,3.83a3.91,3.91,0,0,1,.17,2.42c-.52,3.89-1.42,7.75-1.62,11.65-.32,6.19-.77,12.45,2.76,18.15,2.19,3.55,1.57,5.35-2.09,7.42-2.4,1.36-5,2.39-7.29,3.92-3.64,2.47-7.08,5.22-10.6,7.87-1.23.93-2.41,2-3.67,2.83a3.31,3.31,0,0,1-1.95.79c-2-.28-2.85.89-3.81,2.24-1.86,2.63-4.26,4.15-7.66,3.32a15.44,15.44,0,0,0-3.82-.69,5.93,5.93,0,0,0-2.86,1c-1.41.88-2.68,2-4.09,3-1-1.29-1.13-3.46-.75-5.78-4-.3-6.79,1.45-8.78,4.8a5,5,0,0,1-1-5.42c-2-.79-3.68-.94-5.24.84-1.19,1.36-2.71,2.43-4,3.72-.79.79-1.21.47-1.67-.25a6.31,6.31,0,0,1-.61-5.27c.23-.83.42-1.47-.54-2.11s-1.76-.89-2.62,0c-.66.65-1.27,1.36-1.87,2.08s-1,1.27-1.61,2.09c-1.43-1.64-1.23-3.42-1.66-5.34-.91,1.17-1.83,2.33-2.74,3.49a4.82,4.82,0,0,1-.86-5.62,3.66,3.66,0,0,1,.8-1.06c3.79-3,7-6.84,12-8.1a60.88,60.88,0,0,0,6.15-1.94,2.46,2.46,0,0,0,1.45-1.31c.49-2.11,1.91-3.22,3.68-4.19,3.38-1.85,6.71-3.8,10-5.8.6-.37.94-1.18,1.4-1.79,1.61-2.16,3.24-4.3,4.81-6.49a2.61,2.61,0,0,0,.53-1.58c-.23-2.31-.57-4.61-.9-6.9a4.94,4.94,0,0,1,.74-3.94,3.61,3.61,0,0,0,.51-2.17c-.25-7.46-.56-14.91-.84-22.37a20.5,20.5,0,0,1,3.41-12.75A11.44,11.44,0,0,0,87.84,282c-.51.37-1,.74-1.54,1.1-1.49,1-2.33.71-2.68-1a2.94,2.94,0,0,1-.14-.82c.76-6.33.46-12.86,2.91-18.88a49.19,49.19,0,0,1,4.5-7.69c3.42-5.35,6.8-10.74,10.46-15.92,1.7-2.41,4.13-4.3,6-6.58a36.82,36.82,0,0,0,7.6-14.38,4.68,4.68,0,0,1,3.46-3.81c2-.51,3.08-1.52,2.86-3.85-.22-2.52,0-5.07,0-7.61,0-1.65-.07-3.33,2.43-3.72-.44-.65-.75-1.12-1.08-1.58-.68-.94-1.44-1.83-2-2.82-1.56-2.54-1.27-4,.92-5.73-2.36-4.15-4.7-8.27-7.08-12.44-2,.81-4.27,1.93-6.67,2.67A39.91,39.91,0,0,1,101.6,180a2.18,2.18,0,0,0-2.1,2.05c-.82,3.89-1.79,7.74-2.74,11.6a7.34,7.34,0,0,1-.67,1.42L95.6,195l-1-11.79A41.46,41.46,0,0,0,90.68,185a2.35,2.35,0,0,0-.87,1.46C89,190.2,88,194,87.48,197.78c-.38,3,0,6.07-.18,9.1-.23,3.72-.69,7.42-1,11.14l-.74,0c-.52-1.71-1.36-3.39-1.49-5.13-.56-7.15-.9-14.33-1.33-21.5-.07-1.25-.14-2.51-.24-4.18-2.12.68-4,1.17-5.82,1.91a20.69,20.69,0,0,0-3.57,2.09c-2.23,1.5-4.11,1.61-6.25-.06-2.83-2.21-5.56-4.54-8.29-6.88A8.11,8.11,0,0,1,56,178.53c-.25-3.19-.07-6.4-.3-9.59-.25-3.63-.7-7.24-1.16-10.85-.52-4.16-1.1-8.32-1.78-12.46a7.06,7.06,0,0,0-1.28-2.33c-.26-.42-.77-.69-1-1.12-1.12-2.43-3-2.53-5.32-2.09-4.13.78-8.31,1.22-12.45,1.93a7.47,7.47,0,0,0-2.75,1.3,18.06,18.06,0,0,0-2.22,2,3.84,3.84,0,0,1-5,.62,3.65,3.65,0,0,0-3.31-.15,24.48,24.48,0,0,1-16.27-.11C.37,144.73-.18,143.92.05,141c.27-3.58.58-7.17,1.06-10.73.65-4.86,3.66-8,7.87-10.18a3.6,3.6,0,0,1,4.42.77c1.23,1.2,2.3,2.55,3.57,3.7a3.18,3.18,0,0,0,1.93.67,15.69,15.69,0,0,0,2.62-.35c2.37-.31,3.46.25,4.61,2.34.24.43.49.85.7,1.22,3.74-.33,7.36-.63,11-1,.51,0,1.26-.25,1.44-.61,1.43-2.78,3.92-3.33,6.8-3.31.8-3.48,3.31-4.52,6.55-4.63a2.34,2.34,0,0,0,1.53-1,5.22,5.22,0,0,1,5.28-2.36,3.6,3.6,0,0,0,1.8-.46,34.17,34.17,0,0,1,4.45-2c2.82-.79,4.56,0,6,2.51a1.59,1.59,0,0,0,2.25.89c2.36-.8,4.43-1.78,5.53-4.32.93-2.14,2.61-2.13,4.12-.37s3.16,3.55,4.84,5.22a1.8,1.8,0,0,0,1.57.14c2.88-1.11,5.74-2.29,8.6-3.47,1.32-.55,2.56-1.09,3.73.38.18.22,1.1-.15,1.68-.25-.24-1.32-.13-2.89-.82-3.89a4,4,0,0,1-1.12-2.74,18,18,0,0,1,.45-3.78c.77-2.36-.18-4.08-1.73-5.63s-3-2.82-4.86-4.52c0,1.29,0,2.09,0,2.88a9.63,9.63,0,0,1-3.47,7.59c-2,1.75-4.35,1.71-6-.35a11.87,11.87,0,0,1-2.19-4.55,21.45,21.45,0,0,1,.6-12.23c.7-2,1-4-1.18-5.56-2.42-1.65-2.83-4-2.23-6.74a22.81,22.81,0,0,0,.3-2.47c.23-2.26.13-2.43-2.18-2.63C77.84,69,76.13,69,74.42,69c-2.63,0-3.86-.82-4.74-3.28a14.78,14.78,0,0,1-.58-2.07,10.3,10.3,0,0,0-3.32-5.75,103.7,103.7,0,0,1-7.9-7.79c-.78-.86-1-2.29-1.31-3.5-.26-1-.71-1.52-1.82-1.43a4,4,0,0,1-3.65-1.85c-4.79-6.56-9.63-13.09-14.44-19.64-2.38-3.25-4.77-6.5-7.09-9.79a4.72,4.72,0,0,1-.39-1.73,6.31,6.31,0,0,1,1.82.3q3.39,1.71,6.71,3.57c6.54,3.66,12.87,7.77,19.64,10.94,11.4,5.34,22.07,12.18,34,16.37,2.13.74,4.16,1.78,6.3,2.52a3.17,3.17,0,0,0,2.22-.19,20,20,0,0,0,3.16-2.11c1.07-.81,2-1.4,3.46-.63.43.23,1.39-.13,1.9-.51,2.81-2,5.5-4.26,8.35-6.26,5.11-3.57,10.3-7,15.46-10.52A36,36,0,0,1,146.27,20a1.66,1.66,0,0,0,1.61-1.86c.1-2.38.24-4.75.47-7.11a6,6,0,0,1,.86-1.77c.51.44,1.21.79,1.49,1.34,1.16,2.27,2.23,4.57,3.23,6.91.43,1,.95,1.16,2,1a42.06,42.06,0,0,1,6.25-.4c1.26,0,1.56-.37,1.58-1.61.08-4.13.28-8.27.52-12.4A8.63,8.63,0,0,1,165,1.4c.23-.56.74-1.34,1.19-1.4s1.14.61,1.45,1.12c1.47,2.46,3,4.92,4.23,7.5,1.4,2.94,2.52,6,3.75,9,.43,1.05,4.33,3,5.11,2.3a3.44,3.44,0,0,0,.91-2.33c.13-3.2.09-6.4.11-9.61,0-1.37,0-2.75,0-4.12l.43-.17a45,45,0,0,1,2.29,4.55c1.69,4.49,3.22,9.05,4.88,13.55a3,3,0,0,0,1.38,1.66c9.23,3.91,17.55,9.34,25.5,15.36a3.06,3.06,0,0,0,3.33.51c1.7-.65,3.45-1.18,5.21-1.67a21,21,0,0,0,9.69-5.44,18.2,18.2,0,0,1,4.85-3.68,43,43,0,0,1,6.6-2.11c4.23-1.26,8.48-2.5,12.7-3.79a7.45,7.45,0,0,0,2.39-1.1,85.08,85.08,0,0,1,17.35-9.95c4.87-2.19,9.62-4.66,14.44-7,1.47-.71,3-1.33,4.8-2.13-.12.71-.07,1.17-.27,1.46-1.14,1.62-2.32,3.2-3.52,4.77-.7.92-1.43,1.82-2.19,2.68a41.46,41.46,0,0,1-4.21,4.65,92.6,92.6,0,0,0-13.16,14c-.07.09-.13.19-.2.27-3.95,4.17-6.66,9.18-9.62,14a10.41,10.41,0,0,1-2.46,2.24c-.59.49-1.3.84-1.87,1.36-3.21,3-6.31,6-9.63,8.86-1,.85-2.53,1.11-3.86,1.52a28.15,28.15,0,0,1-3.28.55,37.74,37.74,0,0,0,2.43,4,1.61,1.61,0,0,1,.26,2.05,7.93,7.93,0,0,1-5.58,4.27,2.4,2.4,0,0,0-2,2.58,43,43,0,0,1-.93,6.38,3.93,3.93,0,0,1-1.56,2c-1.79,1.28-3.71,2.4-5.57,3.59-.49.31-1,.68-1.45,1C230,86,231,87.15,232,88.25A5.1,5.1,0,0,1,233,94.07a63.47,63.47,0,0,1-2.77,6.37c-1,1.83-.22,3.21.65,4.58s2.25,1.59,3.8,1.44c4.27-.39,6.85-3,8.76-6.51.77-1.39,1.71-1.76,3.35-1.7a52.49,52.49,0,0,0,7.25-.65c.32,0,.65-.11,1-.15,3.89-.44,4.29-.18,5.43,3.52.08.26.22.49.5,1.11a12.63,12.63,0,0,0,1.84-2.21c1.2-2.45,3.33-3.18,5.75-3.12,4.92.13,9.85.23,14.73.72s9.83,1.38,14.72,2.22a17.16,17.16,0,0,1,3.72,1.36,2.43,2.43,0,0,1,1.5,3c-.18,1-.3,2-.44,3l.51.29a15,15,0,0,0,2.14-2.31,1.86,1.86,0,0,1,2.5-.94,76.81,76.81,0,0,1,17.57,8.07,60.51,60.51,0,0,1,14.93,14.24,57.31,57.31,0,0,1,4,6,19.7,19.7,0,0,1,1.21,3.85c-2.34-.25-4.35-.39-6.34-.68-7.44-1.08-14.86-2.3-22.3-3.3-10.8-1.45-21.59-2.91-32.53-2.64s-21.67.18-32.5.6c-6.06.24-12.09,1.2-18.14,1.79-1.78.18-1.14,1.33-.9,2.17q2.82,9.63,5.74,19.21c.52,1.74,1.14,3.44,1.68,5.17.44,1.36-.35,1.89-1.45,1.54-3-.94-5.86-2-7.48-5-.57-1.07-1.7-1.84-2.38-2.88a16.53,16.53,0,0,1-2.26-4.16c-1.21-4.08-2.22-8.21-3.22-12.34-.31-1.28-.73-1.72-2.14-1.39-4.61,1.08-4.68,1-4.52,5.64.08,2.49.41,5,.65,7.43.15,1.54-.53,2.15-2,1.85-2.64-.53-4.53-1.65-4.91-4.69a45.77,45.77,0,0,0-1.56-5.75c-.24-.94-.72-1.21-1.55-.8-1.67.81-3.33,1.67-5.42,2.72a15.93,15.93,0,0,1,7.91,6.41c1.3,1.91,3.05,2.71,4.89,3.79,4.26,2.52,8.23,5.52,12.38,8.24,3.08,2,6.34,3.79,9.35,5.91a83.25,83.25,0,0,1,8.37,6.7c.67.62.71,2.19.63,3.29-.46,6.61-2.65,12.73-5.59,18.6a14.2,14.2,0,0,1-2.37,3.38,8.25,8.25,0,0,0-2,5.12c-.48,4.34-.9,8.68-1.45,13a31.83,31.83,0,0,1-1.4,6c-.71-5-1.42-9.94-2.15-15-.31.32-.65.64-.94,1-2.35,2.94-4.72,5.86-7,8.85a2.62,2.62,0,0,0-.3,1.86c.41,2.11,1,4.18,1.41,6.29a2.55,2.55,0,0,1-1.35,2.77c-1.62,1-3.13,2.24-4.72,3.39a8.71,8.71,0,0,0,.36.85c3.66,6.5,7.79,12.78,10.86,19.55,3.25,7.16,9,11.53,14.94,16,1.15.86,2.37,1.63,3.5,2.52a13.59,13.59,0,0,1,1.48,1.57c-1.35,2.05-3.29,1.58-5.63,1.49,2,2.62,3.58,4.81,5.23,7a44.85,44.85,0,0,1,2.83,3.67,6.92,6.92,0,0,1,.44,2.43c-.85,0-1.88.27-2.51-.11-3-1.8-6-3.77-8.95-5.69-.5-.33-1-.7-1.88-1.34.61,1.75,1.1,3,1.52,4.35a79,79,0,0,1,4.18,20.9,2,2,0,0,0,.14.81c1.5,2.68.59,5.27-.33,7.83-.59,1.62-.91,3.05.27,4.61,2,2.61.49,5.35.21,8.1a100,100,0,0,0-.25,10.25c0,.41.55.91,1,1.21,3.68,2.64,7.31,5.35,11.1,7.83a37.25,37.25,0,0,0,12.61,4.81c2.37.52,4.78,1,7.18,1.25a40.22,40.22,0,0,0,4.79.12,6.05,6.05,0,0,1,5.84,3.36c.35.71.64,2.05.28,2.39-.55.52-1.68.47-2.58.59a4.71,4.71,0,0,1-1.25-.28c1.07,2.33,2.63,4.41,1.21,7.07-1.69-1.5-3.24-3.24-6-2.65.51.84,1,1.5,1.34,2.22a10.4,10.4,0,0,1,1,2.6,1.83,1.83,0,0,1-.63,1.55,1.88,1.88,0,0,1-1.62-.13c-1-.57-1.88-1.36-2.86-2a16.2,16.2,0,0,0-2.27-.91c.8,2.14,2.87,3.18,2.67,5.2-2.75-.43-5.39-.9-8.06-1.23a4.05,4.05,0,0,0-2,.43,33.11,33.11,0,0,0-3.26,1.64c-3.4,1.93-6.57,1.61-9.43-1a2,2,0,0,0-2.59-.32c-4.43,1.89-8.82,1.4-13.14-.59-4.06-1.86-8.14-3.7-12.29-5.37a9.63,9.63,0,0,0-4-.44,47.72,47.72,0,0,1-13-1,6.52,6.52,0,0,0-1.14-.21,9.3,9.3,0,0,1-8-6,4.86,4.86,0,0,1,.56-4.44c1.57-2.27,3.13-4.55,4.82-6.73a7.29,7.29,0,0,0,1.46-3.92c.64-5.5-.33-10.79-1.8-16a2.13,2.13,0,0,1-.15-.64c.34-4.71-1.84-8.9-2.68-13.37-.22-1.14-.43-2.29-.56-3.44-.24-2.14.34-2.74,2.55-2.75A9.58,9.58,0,0,0,204.26,303.63ZM90.18,135.72l-.54-.22c-1.13,1.59-2.37,3.12-3.37,4.79-1.7,2.82-2.59,3-4.76.55a3,3,0,0,0-4.63-.24,19.81,19.81,0,0,0-2.11,1.85,3.59,3.59,0,0,0-1,2.18,31.87,31.87,0,0,0,2.69,10.69c.69,1.48,1.32,1.72,2.85,1,6.34-2.86,12.9-4.84,20-4.44.53,0,1.31,0,1.59-.26,1.7-2,4.62-3.09,3.92-6.65-.41-2.1-.07-4.35-.07-6.81-3.57.4-6.87.66-10.12,1.15-2.92.44-3.55.12-4.13-2.7A6.06,6.06,0,0,0,90.18,135.72Zm119.24,66.46c2.43-7.31,4.75-14.27,7.11-21.39-.66-.11-1.51-.29-2.37-.41-7.74-1.09-14.87-3.62-20.93-8.78a2.68,2.68,0,0,0-2.28-.53c-1,.46-1,2.25-.23,3.2a14.4,14.4,0,0,0,1.86,2.1c1.49,1.21,1.5,2.62,1,4.32a3.69,3.69,0,0,0,.29,2.73,42.43,42.43,0,0,0,5,5.94,5.1,5.1,0,0,1,1.33,6,51,51,0,0,0-1.22,5.08c2.07-.77,3.8-1.76,5.63-2C207,198.13,207.74,200.58,209.42,202.18ZM89.21,100.49l.71.33a8.16,8.16,0,0,0,.72-1.29c.83-2.43,1.66-4.87,2.41-7.32A1.47,1.47,0,0,0,92.77,91c-1.47-1.36-3-2.64-4.83-4.21C87.45,91.77,86.67,96.31,89.21,100.49Zm17.67,46.07c1.79-1.12,3.08-2.07,4.49-2.76s3.08-1.19,4.61-1.81a1.59,1.59,0,0,0,.84-.7c.38-1-1.72-3.75-2.81-3.74a18.08,18.08,0,0,0-3.46.17,2.44,2.44,0,0,0-1.64,1.22C108.16,141.27,107.62,143.67,106.88,146.56Z"/></g></g></svg>