<svg xmlns="http://www.w3.org/2000/svg" viewBox="0 0 296.02 405.03"><g id="Layer_2" data-name="Layer 2"><g id="Layer_1-2" data-name="Layer 1"><path id="halfling" d="M225.93,215.7l17.18,2c-1.28,3.73-2.19,7.26-3.68,10.54-5.67,12.5-11.54,24.91-17.3,37.37-.82,1.79-1.81,2-3.57,1.18-2.71-1.23-5.57-2.13-8.7-3.29,1,7.29,1.95,14.19,3,21.07,2,13.27,3.93,26.54,6,39.78.94,5.79,2.17,11.54,3.48,17.26.36,1.57.12,2.21-1.31,2.88a139.48,139.48,0,0,1-41.8,12.41c-10,1.26-19.94,2.83-29.9,4.27-.15,0-.27.15-.7.4a89.45,89.45,0,0,0,1.51,10.13c.41,1.63,2.34,2.82,3,4.44,1.7,4.08,3.07,8.29,4.57,12.45a1.59,1.59,0,0,1,.15.93c-1.41,3.56.93,6.19,2.24,9.05,1,2.14.74,2.91-1.66,3.12-4.82.42-9.66.64-14.49.86-2.3.11-4.61-.05-6.9.06a3.48,3.48,0,0,0-2.12.82,6,6,0,0,1-5.75,1.41c-.7-.13-1.42-.17-2.12-.3-2.36-.41-5.23-.14-7-1.41a15.59,15.59,0,0,1-6.66-10.36c-.09-.62-.29-1.23-.55-2.28-4.71.57-9.44.91-14.08,1.74C88,394.19,77.07,396,66,395.7a20.36,20.36,0,0,0-4.74.43c-3.24.69-5.5-.8-7.53-3-.46-.49-1-1.14-1.55-1.28-4.81-1.13-5.11-1.42-5.77-6,6.32-3,12.54-6,18.73-9,1.29-.62,3-1.18,2-3.31-.1-.23.6-1,1.07-1.3,4.64-2.91,9.24-5.89,14-8.58,1.34-.75,3.18-.67,4.81-.84a17.57,17.57,0,0,1,3,.25c-4.12-8-8.08-15.73-12.29-23.92L72,349.9A299.35,299.35,0,0,0,0,321.36c2.28-7.23,4.6-14.5,8.91-20.81,7.38-10.82,14.93-21.55,22.74-32.06,3.5-4.7,5.48-10,7.69-15.24,2.52-6,4.81-12.08,7.2-18.13.34-.87.71-1.73,1.08-2.64-7.82-.82-15.82.33-22.53-5.15l9.06-.57c-2-1.7-3.68-3-5.2-4.51a3.37,3.37,0,0,1-1.11-2.34c.82-6,1.68-11.93,2.82-17.83.39-2,0-2.93-1.72-4a34.59,34.59,0,0,1-12.88-12.76c-1.64-2.94-1.38-6.22-.65-9.31,1.63-7,3.48-14,5.35-20.94a3.23,3.23,0,0,1,1.72-1.69c2.45-1.13,5.05-1.95,7.42-3.2a8.74,8.74,0,0,0,2.46-2.8c.8-1.1,1.22-2.58,2.22-3.4,3.61-3,7.39-5.72,11.21-8.63l-3.67-6a12.16,12.16,0,0,1,1.44-1c4.27-2.29,8.51-4.64,12.85-6.78,1.49-.73,1.4-1.83,1.24-3C57.28,116,58,114.32,61,114c1.23-.13,2.36-1,3.59-1.22,3.54-.77,5.78-2.48,5.64-6.5,0-.56,1.22-1.57,2-1.68a15.88,15.88,0,0,0,8.51-3.72A98.84,98.84,0,0,0,63,75.3c3-.61,5.47-1.23,8-1.59,1.55-.23,2.11-.78,2.09-2.43a42.39,42.39,0,0,1,3.68-17.34,8.3,8.3,0,0,0,.57-4.09c-.65-5.28-1.52-10.53-2.29-15.79a21,21,0,0,1,0-2.15l4.39,2.71c.65-3.84,1.13-7.67,2-11.41C83,16.27,87.35,11,92.34,6.23a8.79,8.79,0,0,1,8.5-2.57c6.32,1.55,12.1.14,17.64-2.8a6,6,0,0,1,6.39.14c6.08,3.42,12.3,6.58,18.53,9.72,10.72,5.4,16.25,14.46,18.5,26,1.44-.76,2.79-1.57,4.21-2.21,2.25-1,3-.73,2.94,1.77a100.68,100.68,0,0,1-1,10.38,5.13,5.13,0,0,1-.5,1.83c-2.52,4.75-1.16,9.51-.11,14.27a37,37,0,0,1-6.5,31.11c-.28.39-.54.79-.79,1.2a4.49,4.49,0,0,0-.24.73c.93.66,1.9,1.43,3,2.07q9.93,6.12,19.91,12.19a4,4,0,0,1,1.86,3,28,28,0,0,0,2.6,7q5.91,11,12.18,21.84c.8,1.4,1,2.48,0,3.61-1.21,1.39-1.12,2.77-.49,4.37A244.3,244.3,0,0,1,210,186.31c1.34,6,2.73,12.06,4.1,18.09l.7.21c3-6,6.12-11.91,8.81-18s4.84-12.38,7.37-18.93c1.24,6.32,1.1,12.43.8,18.74,1.27-1.67,2.68-3.27,3.8-5,5.22-8.32,11.59-16,15.11-25.29,1.54-4,2.68-8.25,4-12.38a3.82,3.82,0,0,1,.54-1c6.7-8.68,14.23-16.46,23.71-22.16a17.08,17.08,0,0,1,1.74-.77c-1.54,3.2-2.91,5.91-4.17,8.68-3.38,7.42-3.62,14.82,1.09,21.74a12.71,12.71,0,0,0,5.68,4.35c4,1.53,8.26,2.18,12.56.45l.19.58a49.14,49.14,0,0,1-3.9,3.34c-9,6.26-18.13,12.33-27.06,18.69a184,184,0,0,0-37.72,36.16C227,214.2,226.62,214.72,225.93,215.7ZM123.18,332.33a33.72,33.72,0,0,1-2.11,3.81,4.37,4.37,0,0,1-2.27,1.79c-1.89.37-2.16,1.39-2,3,.78,8.3,1.43,16.61,2.25,24.9a39.47,39.47,0,0,0,1.36,5.45l.91-.07c1.69-2.68,3.88-5.28,3-8.78a4.28,4.28,0,0,1,1-4.32,9.24,9.24,0,0,0,2.16-6.81c-.15-4.92,0-9.85-.06-14.77,0-3.84,0-3.84-3.85-4.38C123.5,332.18,123.42,332.24,123.18,332.33ZM77.8,63.87l-.65-.14L75.58,72.8l4.22-.75C79.09,69.16,78.45,66.51,77.8,63.87Z"/></g></g></svg>