<svg xmlns="http://www.w3.org/2000/svg" viewBox="0 0 497.95 566.72"><g id="Layer_2" data-name="Layer 2"><g id="Layer_1-2" data-name="Layer 1"><g id="Ogre"><path d="M333.57,461.51l-7.29,41.88-.66,0q-2-20.74-4-41.48l-1.44,0-9,48.66-.6.16-2.08-6.17c-2.82,1.55-2,7.26-7.43,5.6-.42,5.48-.82,10.76-1.23,16.05l-1,.07c-.29-1.88-.61-3.76-.85-5.65-2.3-18-4.55-36-6.93-54a4.83,4.83,0,0,0-2-3c-2.39-1.57-4-.61-4.12,2.3-.33,8.32-.57,16.65-.91,25a67,67,0,0,1-.87,8.17c-5.47-11.14-5.38-24.37-13.65-34.51v6.24l-.6.07c-.86-4.06-1.71-8.13-2.58-12.26-.52.24-.83.3-.84.4-.49,5.13-1.16,10.27-1.31,15.42,0,2.13.85,4.37,1.65,6.42a54.18,54.18,0,0,1,4.14,21.22,9.43,9.43,0,0,1-2.12,5c-3.48,4.65-8.79,7-13.29,10.45-7.12,5.41-15.7,5.45-23.68,7.67-7.12,2-14.25,3.92-21.46,5.53a28.41,28.41,0,0,1-9.06.47c-7.77-.8-15.52-1.89-23.25-3.07-1.3-.19-2.42-1.45-3.68-2.12a7.12,7.12,0,0,0-2.15-.74c-1.39-.26-2.84-.24-4.18-.63-3.08-.87-5.17-2.48-4.57-6.24a20,20,0,0,0,0-5.78c-.5-3.7,1.25-5.7,4.5-6.9,3.71-1.36,7.34-3,11.11-4.18a14.38,14.38,0,0,0,8-6.21c2.45-3.84,4.68-7.82,7.25-12.15-5.49-5.8-10.92-11.84-16.68-17.54-4.33-4.27-9.1-8.11-13.67-12.15-.38-.33-.74-.7-1.15-1-3.66-2.56-3.92-2.68-2-6.73a16.17,16.17,0,0,0-.1-15.2A49.22,49.22,0,0,1,155,414.93a45.73,45.73,0,0,1,1.2-14.93c2.8-12.69,6.13-25.25,9.17-37.89a5.5,5.5,0,0,0-.2-3.46c-4.42-8.91-9-17.76-13.5-26.62-.18-.35-.47-.64-1.47-.95v30.37l-1.45.09c-1.64-13.88-3.29-27.76-5-41.9-1.3.13-2.69.21-4.07.4-4.19.6-7.17-1-10.2-4a138.2,138.2,0,0,0-14.78-12.27,13.8,13.8,0,0,1-4.81-6.38c-1-2.66-2.89-5-4.26-7.54a9.91,9.91,0,0,1-1.45-3.91c-.2-3.62.29-7.3-.15-10.88-.5-3.94.4-7.15,3.54-9.42,3-2.13,2.37-5.14,2.58-8a2.13,2.13,0,0,0-.86-1.48c-5.31-3.89-7.33-9.51-8.46-15.66-.14-.81-1-2.18-1.41-2.12-2.42.36-3.19-1.31-4.12-2.9-2.88-4.9-6.9-8.8-12.66-8.93-4.77-.11-7.62-2.63-10.74-5.34-14.51-12.62-27.3-26.72-37.13-43.32a16.58,16.58,0,0,1-2.19-7.36c-.56-10.7-4.48-20.16-10.27-28.94-2.5-3.81-5.47-7.31-8.15-11a12.54,12.54,0,0,1-1.8-3.46A237,237,0,0,1,3,87.43c-.86-6.11-2-12.18-3-18.26l.92-.27c.43,1,.94,2,1.3,3a97.3,97.3,0,0,0,16,29c3.7,4.7,8.89,8.22,13.47,12.21a4,4,0,0,0,2.47,1.08c1.81-.1,4.28,0,5.23-1.06a6.76,6.76,0,0,0,.91-5.5c-.62-2.12-2.39-3.91-3.31-5.31a46.18,46.18,0,0,0,1.33-5.85,60.71,60.71,0,0,0,0-7c-.07-2.83,1-5.14,2.26-7.69a26.68,26.68,0,0,0,2.34-10.5C43.36,56.2,40.08,41.63,36,27.21c-1.66-5.94-3.46-11.85-4.77-18,.93,1.62,2,3.18,2.77,4.86C43.71,34.54,53.45,55,62.93,75.51c4,8.56,7.29,17.41,11,26.08A34.68,34.68,0,0,0,77.36,108c4.88,6.89,11.69,7.46,17.75,1.64.11-.11.37-.06.85-.13-10.33,29.61-3.73,57.28,9.35,84.81,1.4-2.24,2.59-4.12,4.13-6.56,1.21,4.73,2.39,8.81,3.29,12.94,3.32,15.19,9.12,29.44,16.11,43.26a28.93,28.93,0,0,1,1.38,2.72c1,2.59,2.07,4.5,5.07,1.85a3.68,3.68,0,0,1,2.89-.31,29,29,0,0,1,5.14,1.85c5.14,2.33,5.06,2.32,8.28-2.16,5.47-7.59,9.67-15.7,11-25.13.54-4,3.77-5.72,6.86-7.62a65,65,0,0,0,8-5.83,139.32,139.32,0,0,0,10.49-9.68,9.56,9.56,0,0,0,2.18-5.11c2.15-16.2,3.66-32.51,6.39-48.61,1.54-9.06,4.85-17.88,12-24.57l-.35-.74h-4.32c-8.81,0-17.27-1.35-24.31-7.19-3-2.47-6.61-4.59-6.6-9.3,0-.61-.95-1.24-1.48-1.84-6.05-7-11.65-14.37-14.43-23.35a76.26,76.26,0,0,1-2.37-13.14C160.27,81,172.56,87.16,187,90.23c6.17,1.31,12.11.29,17.2-4,3.59-3,5.23-7.14,3.64-11.15-2.26-5.73.82-9.41,3.3-13.61a13,13,0,0,0,2-4.32c.77-4.86,1.78-9.78,1.63-14.64-.1-3.4-1.82-6.78-3-10.1-.92-2.53-2.17-4.94-3.27-7.4l.78-.63L219.66,36l2.66-5C226,24.05,229.57,17,235.88,12a65.82,65.82,0,0,1,12.21-7.36c1.75-.83,4.46-.53,6.42.16,8,2.81,15.84,5.91,21.54,12.65a5.35,5.35,0,0,0,1.28.72C279.32,12,281.26,6,283.19,0l.87.07c.56,3.64,1.08,7.28,1.68,10.91a20.3,20.3,0,0,0,1.2,5.32,19.46,19.46,0,0,1,1.57,12.1,7.7,7.7,0,0,0,1.89,6.43c3,3.73,5.51,7.77,8.37,11.57a3.75,3.75,0,0,0,2.48,1,28.51,28.51,0,0,0,6.32.17c2.63-.37,5.52-.69,7.7-2a18.47,18.47,0,0,0,9.33-16.36c.06-4.23,0-8.46,0-12.8a54.53,54.53,0,0,1,3.53,4.5c7.33,11.29,11.38,23.54,10.25,37.15-.23,2.77.56,3.81,3.37,4.42,11,2.4,21.91,5.12,32.23,10,6.75,3.17,11.49,8.21,15.57,14.06a17.7,17.7,0,0,0,6.36,5.82c12.89,6.9,24.58,15.41,34.4,26.38a19.51,19.51,0,0,0,5.43,3.76c6.79,3.63,14.36,6.23,20.33,10.89,10,7.79,17,17.92,19.47,30.92,1.51,8.05,4,15.93,6.28,23.8.37,1.26,2,2.43,3.38,3,3.23,1.47,4.1,2.87,1.88,5.36-2.58,2.9-1.9,5.55-1,8.69,2.56,8.56,5.21,17.1,7.2,25.8,1.71,7.49,1.88,15.39,4,22.73,1.6,5.5-.07,8.57-4,11.64-5.59,4.39-11.1,8.9-16.54,13.47-2.6,2.19-5.2.82-7.79.37a10.17,10.17,0,0,1-3.35-1.42,5.5,5.5,0,0,0-5.72-.08c-4.22,2.1-8.19,1.11-12.12-1.25-1.82-1.1-4.09-1.47-6.15-2.17a15.08,15.08,0,0,1-3.1-1c-3.21-1.92-6.36-4-9.52-6-3.79-2.44-4.87-5.9-2.9-10.11.83-1.78.78-2.81-.5-4.52s-1.44-4.6-2.52-6.72c-3.46-6.8-2.77-13,1.28-19.46,2.88-4.59,4.65-9.87,7.09-15.2l-19-12.43c-.74,3.2-1.4,6.07-2.07,8.95l-.69.15a30.4,30.4,0,0,1-1.29-3.35c-.83-3.23-1.44-6.53-2.42-9.71a6.13,6.13,0,0,0-2.28-2.65c-2.67-2-5.47-3.85-8.14-5.87a5.64,5.64,0,0,1-2.15-2.5c-1.77-6.07-7.47-7.16-12.4-9.55.5.9,1,1.82,1.49,2.7a61.49,61.49,0,0,1,9.19,27.18,9.58,9.58,0,0,1-.13,3.63c-1.2,3.69.35,5.39,3.73,6.74a85.51,85.51,0,0,1,11.28,5.85,4,4,0,0,1,1.43,3.06c-.17,7.1-.54,14.19-.84,21.28-.25,6.09-.28,12.2-.81,18.26a182.54,182.54,0,0,1-2.57,18.65c-.44,2.25-2.32,4.21-4,7.1,1.55,3.17,2,8.08,6.29,11.17,2.77,2,3.86,5.06,4,8.53.37,7.54,2.82,14.51,6.37,21.09,2.5,4.65,5.56,9,7.69,13.85,2.91,6.59,7.59,11.45,13.29,15.51,2.62,1.87,3.66,4,3.61,7.39-.11,7.61,2.32,14.72,5.28,21.73a139.23,139.23,0,0,1,6.26,18.1c1.84,6.89,2.12,13.76-4.5,18.84a6.37,6.37,0,0,0-1.69,2.5c-1.47,3.34-3,6.69-4.19,10.12a5.94,5.94,0,0,0,.17,3.48A127,127,0,0,1,448,469.29a7.54,7.54,0,0,1-3.66,7.48c-2.42,1.56-3.49,3.55-1.43,6.05,3.47,4.21,2,8-1.13,11.33s-2.83,7.66-4.37,11.43c-.49,1.23.68,3.13,1.2,5.14l-7.78-2-.54.83c1.58,1.74,3.09,3.55,4.75,5.21,1.14,1.15,1.61,2.07.62,3.68a3.17,3.17,0,0,0,.38,3,38.83,38.83,0,0,0,12.75,9.5c6.26,3,11.89,7.4,17.46,11.63,1.32,1,1.25,3.78,1.91,5.71,1.23,3.59-.37,5.47-3.66,6.56-2.41.81-4.7,1.93-7.09,2.76-1.69.59-2.42,1.32-2.05,3.32.61,3.19-.51,4.67-3.82,4.8-11.75.44-23.57,1.5-35.26.74-10.24-.66-20.41-3.17-30.48-5.41-5.68-1.27-11.1-3.67-16.66-5.47a8.32,8.32,0,0,0-3.69-.52c-3.22.51-5.36-1.07-5.46-4.4-.27-9.34-.46-18.69-.86-28a6.69,6.69,0,0,0-1.82-3.76c-4.09-4.56-5.64-10.27-7.26-15.91-.24-.82,1-2.28,1.88-3.18,3.63-3.77,3.57-6.66-.48-9.65a4.94,4.94,0,0,1-1.84-5.94c.82-2.58,0-4.18-2.08-5.69-2.44-1.81-4.67-3.91-7-5.88C337,469.67,332.91,467.08,333.57,461.51ZM179.25,287.29l-1.59-.54c-3,3.78-6.21,7.47-9.1,11.36-2.22,3-3.95,6.35-6.21,9.32a2.88,2.88,0,0,0-.22,3.76c3,5.27,5.88,10.61,8.81,15.92.69,1.26,1.41,2.49,2.52,4.46,2.07-9,4.47-17,5.61-25.14C180,300.17,179.25,293.68,179.25,287.29Z"/></g></g></g></svg>