<svg xmlns="http://www.w3.org/2000/svg" viewBox="0 0 301.43 513.44"><g id="Layer_2" data-name="Layer 2"><g id="Layer_1-2" data-name="Layer 1"><path d="M47.71,421.23l-7.51,6.4a31.67,31.67,0,0,1,0-4.11c1.26-7.88,2.94-15.7,3.78-23.62,1-9.15,0-18.32-4.2-26.57-1.89-3.74-.85-5.47,1.44-7.9,5-5.28,9.72-10.74,14.6-16.09,3.23-3.56,2.39-6.9-2.65-9.59a63.43,63.43,0,0,0,2.5-7.7c1.16-5.95,2.05-11.95,2.89-18,.08-.57-.81-1.5-1.46-1.92-3-1.87-5.92-3.75-9-5.36-3.29-1.72-4-4.77-4.39-7.92s-1.59-5.67-4.63-7.11A3.65,3.65,0,0,1,37.48,290a99.35,99.35,0,0,1-3.7-10.33c-.67-2.52-2.21-3.37-4.45-3.89a6.25,6.25,0,0,1-3.42-1.67c-4.26-5.62-8.32-11.4-12.46-17.14,1.65-1.92,3.26-3.93,5-5.8a5.14,5.14,0,0,0,1.22-1.85l-7.5-13.33-6.8-1.7S-6.68,215.16,5.3,188.9c3.55-7.79,10.27-14,10.27-14h0s7.14.6,10.67,1.18c2.48.41,3.13-.65,4-2.77,2.79-7.13,1.66-14.27.42-21.38-1.64-9.42,1.08-17.91,6.22-25.32,4.49-6.48,7.57-13.41,10.36-20.63,3.63-9.42,9.16-17.73,15.54-25.48a7.16,7.16,0,0,1,2.78-2C72.7,75.7,80,73,87.15,70.23a9.43,9.43,0,0,0,3-1.71A129.52,129.52,0,0,1,119,48.11c5.94-3.08,10.66-5.17,10.66-5.17s-2.86-15.73-3.45-18.81c-1.27-6.6,1.29-11.9,6-16A30.77,30.77,0,0,1,156.45.19c5.72.61,10.7,3.26,13.59,8.64,2.63,4.9,5.07,9.9,7.66,14.82,1.34,2.56-.56,4-1.94,5.81,2.71,2.78,4.64,2.11,2.86,10h0l4.9-5.52c.69,4.45-.61,7.94-2.19,11.37,4.74,1,7,.06,9.34-3.66,1.68-2.72,3.57-3,7.67-1.61,6.27,2.2,12.56,4.35,18.92,6.28.79.23,2.62-.82,3-1.69,1.88-4.42,3.52-8.94,5-13.49a63.28,63.28,0,0,0,1.44-7c.84,1.38,1.35,2.09,1.73,2.86A45.25,45.25,0,0,1,233,50.27c-.15,2.59.58,4.06,3,4.85a35.41,35.41,0,0,1,3.73,1.74L246.62,42a31.09,31.09,0,0,1,1.32,4c1,5.73,1.93,11.47,2.95,17.2A5,5,0,0,0,252,65.93c6.85,6.25,9.21,14.45,10,23.23a9.78,9.78,0,0,0,2.93,6.35c6.56,6.68,10.18,14.41,7.62,23.92-1.37,5.13-3.15,10.15-4.94,15.15-.39,1.08-1.73,1.78-2.4,2.82a3.89,3.89,0,0,0-.62,2.46c.49,3.26,1.16,6.49,1.84,10.13l-16.56-7.61-.68.74a15.8,15.8,0,0,0,.51,2.21,223.37,223.37,0,0,1,11.71,40.19,3.12,3.12,0,0,0,1.18,1.76,36.84,36.84,0,0,0,5.05,3.17,6.65,6.65,0,0,0,2.87.14c1.16,0,3.47-.17,3.47-.17l-2.9,4.58s6.92,5.55,10.62,8.61c.57.47,1.16.92,2.16,1.7l-3.7,1,7.43,6.23-.26.5h-4.56v8.58l-3.75-.9c.62,3,1.07,5.8,1.82,8.47.18.65,1.34,1.08,2.12,1.47,3.33,1.68,6.78,3.14,10,5a4.85,4.85,0,0,1,2.5,5.91c-.91,3.33-1.51,6.75-2.41,10.87l8.39-3a37,37,0,0,1-2.24,3.92,22.68,22.68,0,0,1-3.79,4.3c-3.73,2.86-5.15,6.71-5.66,11.16-.54,4.65-4,6.9-7.82,8.37-2.17.84-3.34,1.75-3.6,4.06-.85,7.46-4,13.66-10.17,18.19-3.27,2.43-6.52,4.89-9.83,7.27a4.81,4.81,0,0,1-5,.42c-3-1.2-6.06-2.1-9.24-3.16-1.43,3.45.53,5.5,2.87,7.28,0,.3,0,.54-.1.59-3.34,2.06-3.53,4.78-1.8,8,.61,1.16.79,2.55,1.4,3.72,1.87,3.6,2.36,6.91-1.2,9.9-.33.28,0,1.86.43,2.46a110.89,110.89,0,0,0,9.12,10.87c2.78,2.7,3.06,5.44,2.07,8.76q-5.75,19.08-11.43,38.19a4,4,0,0,0,.06,2.31,20.09,20.09,0,0,0,1.56,3.11c2.76,5,4.58,10,.64,15.24a5.32,5.32,0,0,0-.5,1.14c-2.73,6.68-2.76,6.7,2.1,12,1.69,1.83,3.62,3.45,5.26,5.33a3.46,3.46,0,0,1,.67,2.67c-.8,3.44.26,4.92,3.83,5.2a4.94,4.94,0,0,1,2.38,1.07c2.76,2.14,5.4,4.44,8.19,6.54,1.19.89,1.85,1.76,1.64,3.3-.36,2.7.89,4.58,3.17,6,3,1.89,5.87,4.14,9,5.86,2.29,1.27,2.8,3.17,3.4,5.4a16.54,16.54,0,0,0,2.63,5.13c1.05,1.48.51,5.55-1.49,6.89a45.17,45.17,0,0,1-17.9,7.21c-15,2.43-29.29-1-43.65-4.55-3.35-.83-6.93-.69-10.4-1.08a154.54,154.54,0,0,1-29.94-6.57c-2.88-.92-4.34-2.62-4.48-5.49-.13-2.49-.11-5,0-7.49a3.17,3.17,0,0,1,.87-2.25c2.23-1.5,1.81-3.65,1.83-5.79,0-3.83.29-7.66.29-11.49a8.82,8.82,0,0,0-.83-3.52,27.48,27.48,0,0,0-2.44-4.06,13.48,13.48,0,0,1-2.67-9.55c.37-4.19-1.4-8.61-2.45-12.89-.89-3.63-2.13-7.17-3.07-10.79a4.7,4.7,0,0,1,.43-2.59A25.73,25.73,0,0,1,175,397.4c2-3.78,1.48-7.11-1.72-10.61-1.19,1-2.46,1.95-3.55,3.06s-2,2.35-3,3.61c-.27-.33-.52-.5-.55-.69-.74-5.43-1.28-10.89-2.22-16.28-1.16-6.61-2.74-13.16-4-19.76-.44-2.41-.41-4.9-1.13-7.41-.78,4.25-1.55,8.49-2.4,13.21-2.91-5.61-5.59-10.81-8.58-16.58a24.45,24.45,0,0,0-1,3.49A37.72,37.72,0,0,1,141.15,365a4.87,4.87,0,0,0-.29,1.84c0,.07,0,.15.09.23q4.13,8.57-2.69,15.19a3.43,3.43,0,0,0-.48.78c.08.24.08.5.18.54,3,1.42,2.74,3.58,2,6.38-1.46,5.46-2.36,11.06-3.65,16.57a6,6,0,0,1-1.89,2.91c-1.44,1.24-3.35,2-4.64,3.32a10.42,10.42,0,0,0-2.61,4.59c-.76,3.32-.92,6.76-1.56,10.11a5.28,5.28,0,0,1-1.79,3.26c-5.33,3.46-8.22,7.82-7.91,14.56.22,4.76-.93,9.6-1.64,14.38a4.31,4.31,0,0,1-1.69,2.31c-.83.65-2,.9-2.88,1.47a4.59,4.59,0,0,0-2.37,4.81c.81,7.19,1.79,14.38,2.05,21.6.26,6.94-4.14,11.72-9.17,15.78-10.09,8.16-22,8.91-33.94,6.79-8.7-1.55-17-5.25-22.62-12.66a46.9,46.9,0,0,1-4.78-8.72,4.52,4.52,0,0,1,.09-3.39c2-4.15,1.9-8.57,2.12-13,.36-7.47.72-14.95,1.19-22.42.21-3.31,1-6.41,3.87-8.62A2.61,2.61,0,0,0,47,442q.57-9,1-18A20,20,0,0,0,47.71,421.23Zm44.47-234c-4,6.08-7.76,11.74-11.45,17.45a2.32,2.32,0,0,0-.27,1.84c1.35,3.27,2.83,6.48,4.37,10,3.24-3.95,6.24-7.59,9.19-11.27a2,2,0,0,0,.35-1.4C93.68,198.35,93,192.93,92.18,187.19Z"/></g></g></svg>