<svg xmlns="http://www.w3.org/2000/svg" viewBox="0 0 299.43 417.31"><g id="Layer_2" data-name="Layer 2"><g id="Layer_1-2" data-name="Layer 1"><path id="undead" d="M191.33,112.73c.29,2.55.49,4.78.83,7a2.32,2.32,0,0,0,1,1.2c1.91,1.38,3.91,2.64,5.77,4.08a2.36,2.36,0,0,1,.57,1.8c-.21,3.16-.07,3.43,3,4.48l.17,0c3,1,3.14,1.12,2.22,4.17-1.37,4.48.14,8.39,2.08,12.24a2.71,2.71,0,0,0,1.74,1.18c3.27.59,6.55,1.11,9.84,1.51,1.48.17,1.73.78,1.73,2.18,0,7.3.07,14.6.11,21.9a3.29,3.29,0,0,0,1.85,3.19,3.5,3.5,0,0,1,2.25,3.46c0,.77,1.15,1.63,1.88,2.36.9.9,2.13,1.5.78,3.14-.7.83.2,1.63,1.25,1.78a47.74,47.74,0,0,1,6.68.94,48.63,48.63,0,0,1,6.39,2.77c-3,.94-6,1.27-8.24,2.72s-3.82,4.06-5.86,6.35l-1.65-.74a9.67,9.67,0,0,0,.52,2.39c3,5.45,6,10.91,9.12,16.28.73,1.25,1.17,2.16.56,3.69-1.71,4.33,1.46,9.28,6.44,10.17a3.41,3.41,0,0,1,2.44,1.71q9.75,13.85,19.57,27.62l2.32,3.27-.25.39-6.75-1.25c.43.75.63,1.22.92,1.61,3.76,5,7.55,10.07,11.28,15.14a3.22,3.22,0,0,1,.68,2.09c-1,8.23,1.5,15.72,4.58,23.13a56.41,56.41,0,0,0,20,24.9,13.36,13.36,0,0,1,2.28,1.79,6.22,6.22,0,0,1-1-.31c-7.3-3.41-13.14-8.71-18.49-14.57-10.3-11.28-18.63-24-26.44-37.06-2-3.41-4.28-6.71-6.23-10.18a21.81,21.81,0,0,1-1.63-4.79c-.21-.73-.07-1.55-.24-2.29-.67-2.83-.47-3.84-3.81-3.69a2.83,2.83,0,0,1-2.69-1.65q-10.3-16.67-20.66-33.28c-1-1.6-2.09-3.15-3.33-5a26.29,26.29,0,0,0-2.7,9.64c-.23,3.31,0,6.64,0,10-5.85-2.73-8.44-14.29-6.16-26.81-1.51-.65-3-1.19-4.46-1.93s-2.66-1.85-2.5-3.75c-2.65-.29-3.9-2.32-5.48-3.86a1.53,1.53,0,0,1-.29-1.31,3.23,3.23,0,0,0-1.17-3.93c-1.81-1.41-.44-3-.36-4.55-3.82-2.3-5.51-5.74-.81-10.46a31.11,31.11,0,0,0-9-6.55c-3.47-1.64-3.53-1.63-3.09-5.42a53.6,53.6,0,0,1,1.11-6.28,1.57,1.57,0,0,0-1.08-2.19,19,19,0,0,1-1.77-.83A2.69,2.69,0,0,1,175.5,159c.57-2.48,1.17-5,1.61-7.47.29-1.6,1.21-2,2.65-1.92s3.16,0,4.75,0c.34-2.75-.29-4.85-2.07-6.47-2.14-1.93-3.07-4.07-2.06-7a4.34,4.34,0,0,0-.38-2.5,28.37,28.37,0,0,0-1.3-2.73c-.9-1.88-1.42-3.74-.28-5.76.74-1.33.44-2.67-.12-4.08-1.33-3.34-2.45-6.75-3.79-10.12-.25,11.14-.39,22.27-2.56,33.26-1.1-4.54-.1-9.15-.13-13.7a3,3,0,0,0-3,2.83q-.79,9.15-1.4,18.3a1.81,1.81,0,0,0,1.11,1.35c1.25.23,1.44.88,1.42,2,0,1.9.24,3.8.15,5.69a5.33,5.33,0,0,1-1,2.74c-1,1.44-.74,2.25.75,3s2.59,1.68,3.92,2.46a1.9,1.9,0,0,1,1,2.37c-1.07,4.53-.74,9.09-.16,13.64A1.83,1.83,0,0,0,176,186c1.91-.05,2.78.84,2.71,2.65-.21,5.66,2.53,10.23,5.26,14.84a2.93,2.93,0,0,1,.12,2.09c-.23.77-1,1.39-1.21,2.16a2.9,2.9,0,0,0,0,2.19c9.92,13,17,27.67,24.27,42.23,1.43,2.86,3.21,5.54,4.86,8.29,2.44,4.06,6.47,6.39,10.14,9.07,1.13.83,1.83,1.59,1.62,3a5.41,5.41,0,0,0,2.45,5.66,3.08,3.08,0,0,1,1.36,3.71c-.87,2.9.18,5.61.94,8.35a28.76,28.76,0,0,1,1.13,11.62,4.93,4.93,0,0,1-1,2.33,50.91,50.91,0,0,1-4,4.33,4.09,4.09,0,0,0-1.28,3.84c.18,1.23.13,2.49.29,3.72.22,1.63.1,2.89-1.63,3.82a2.23,2.23,0,0,0,0,3.85,3.18,3.18,0,0,1,1.47,3.59,5.9,5.9,0,0,0,.86,3.81c2,2.86,4.38,5.46,6.47,8.26a5.25,5.25,0,0,1,1,2.87,3.61,3.61,0,0,0,1.45,3c3.16,2.68,6.24,5.46,9.49,8.32a12.42,12.42,0,0,1-6.18,3.4,69.3,69.3,0,0,1-24.73,2c-6.47-.66-13-1.7-19-4.38a24.63,24.63,0,0,1-4.41-2.64c-1.35-1-2.2-2.15-1.62-4.11.33-1.1-.18-2.45-.3-3.68-.45-4.6-.52-9.28-2.58-13.56-.25-.52-.76-1.27-1.18-1.29-1.59-.09-2.23-1.1-2.84-2.32-1.92-3.81-3.91-7.59-5.82-11.41a4.62,4.62,0,0,1-.36-1.7c0-.53.09-1.07.1-1.6.12-4.45.14-8.82-1.76-13.08-1.16-2.62-1.54-5.59-2.16-8.43a2.15,2.15,0,0,1,.57-1.66c2-2.05,4.11-3.95,6.05-6a6.23,6.23,0,0,0,1.37-2.62c1.14-4.26,3.22-7.71,7.38-9.68,1.71-.81,3.24-2,4.92-2.86a1.47,1.47,0,0,0,.8-2.26c-1.46-3.31-2.83-6.66-4.33-10a5.54,5.54,0,0,0-5.77-3.44c-1.68.07-3.38-.13-5,0a13.21,13.21,0,0,0-3.34.89c-1.18.45-2.3,1.08-3.45,1.62-.16.08-.44.12-.46.22-.51,2.49-3.84,3.49-3.3,6.6a33.75,33.75,0,0,1,.13,5.33c0,.56-.07,1.12-.1,1.68l-.63.12c-1.12-3.64-2.37-7.25-3.32-10.94-.66-2.57-.78-5.28-1.4-7.87-1.4-5.82-5.19-10.18-9.18-14.38a7.85,7.85,0,0,0-1.57-.93C150,245,152,255,151,265l-.51.09c-.58-2.57-1.24-5.11-1.72-7.7-1.15-6.18-2.23-12.37-3.29-18.57-.65-3.8-1.23-7.62-1.81-11.43-.4-2.65-1.42-3.73-4.15-4.09a12.35,12.35,0,0,0-.38-2.91c-.23-.67-1-1.17-1.46-1.74a7.72,7.72,0,0,0-1.66,1.78,5.75,5.75,0,0,0-.16,2.29q.18,11.13.37,22.27c0,.62,0,1.23,0,2-1.55-2.11-2.94-4.05-4.37-5.95-.78-1-1.48-.91-2.45,0-2.71,2.54-3.52,5.81-3.94,9.28-.76,6.3-1.51,12.59-2.48,19l-6.56-30-.57-.07a6.09,6.09,0,0,0-.93,1.9c-.56,4.71-1.16,9.43-1.47,14.16a57.87,57.87,0,0,0,.44,7.42c-2.72-4.19-5.31-8-6.3-12.66a5.43,5.43,0,0,0-1.39-2.42c-2-2.15-4.38-1.81-5.52.91a62.77,62.77,0,0,0-2.52,7.57c-2.42,8.88-2.5,18.07-3.54,27.13a4.16,4.16,0,0,1-.56,1.94c-.13-1.69-.36-3.39-.38-5.08-.12-10.1,0-20.2-.39-30.29a120.21,120.21,0,0,0-2.09-16.21c-.61-3.45-2.16-4.35-5.66-4.6-.63,0-1.21-.76-1.94-1.26-3.71,4.18-7.49,8.34-10.07,13.52-2.66,5.36-2.94,11.06-3.41,16.8a3.52,3.52,0,0,1-1,2.25C67.19,262,65,263.42,63,265c-.6.48-1.34,1.24-1.36,1.89-.07,2.1.14,4.22.28,6.33s0,3.93-1.36,5.51c-3.11,3.51-6.37,6.9-9.35,10.52-1.93,2.35-3.48,5-5.21,7.54l.46.57c1.83-.48,3.66-1,5.5-1.42a34.41,34.41,0,0,1,4.35-.94,1.85,1.85,0,0,1,1.54.87,38.46,38.46,0,0,0,6.06,11,3,3,0,0,1,.48,3.13c-1.54,4.11-2.9,8.3-4.65,12.31-1.27,2.91-1.27,5.27,1.23,7.43,1.43,1.23,1.65,2.49.54,4.29a50.51,50.51,0,0,0-3.31,7.29,2.12,2.12,0,0,0,0,1.64,11.62,11.62,0,0,0,2.14,3c1.37,1.25,1.36,2.35.49,3.89-1.25,2.21-2.29,4.56-3.35,6.87A17.4,17.4,0,0,0,56.73,370a2.69,2.69,0,0,1-.71,2c-.94,1.12-2.07,2.09-3.3,3.3,2.53,2.25,1.78,5.4,2.48,8.16a39.75,39.75,0,0,0,1.73,5.59c.56,1.35.7,2.3-.76,3.09a8.07,8.07,0,0,0-1.49,1.62c2.32.43,2.35,2.07,2.46,3.8.17,2.78.59,5.55.75,8.33a2.87,2.87,0,0,1-.86,2,10,10,0,0,1-2.3,1.33A70.42,70.42,0,0,1,13,416.79c-3.75-.44-7.42-1.48-11.12-2.29A10.18,10.18,0,0,1,0,413.63a36.44,36.44,0,0,1,2.24-3.19q5-5.7,10.08-11.3c1.31-1.44,1.31-2.41-.21-3.78-3-2.64-3.18-2.91-.15-5.35,2.78-2.25,2.74-5.5,4.05-8.26a12.17,12.17,0,0,1,2.16-3.05c.92-1,1.2-1.68-.14-2.5a18.34,18.34,0,0,1-2.09-1.66c-2.23-1.84-2.25-1.85-1.15-4.58a23.06,23.06,0,0,1,1.46-3,1.65,1.65,0,0,0-.47-2.44,38.87,38.87,0,0,1-2.86-2.88c-.93-1-.58-1.77.29-2.58s1.81-1.81,2.38-2.39c-.91-1.37-1.55-2.46-2.31-3.45a7.72,7.72,0,0,1-1.12-8.06,24.41,24.41,0,0,0,.79-3.65,4.82,4.82,0,0,0-.7-3.7c-1.77-2.94-3.39-6-4.92-9.07a2.53,2.53,0,0,1,.43-2.1c.81-1.08,2-1.9,2.8-3,1.13-1.43,2.3-2.43,4.45-1.26-.13-1.54-.27-2.75-.32-4-.37-9.05,1.9-17.54,5.81-25.61,2.07-4.26,4.67-8.28,6.69-12.56,2.33-4.93,4.33-10,6.35-15.07.73-1.82,1.65-3.27,3.63-3.79,1-.27,1.14-1,1.11-1.91-.07-2.06,0-4.13,0-6.2a5.27,5.27,0,0,1,3-4.52c2.34-1.3,4.79-2.39,7-3.8a14.81,14.81,0,0,0,3.81-3.33c6-7.64,12-15.3,17.86-23.1a9.32,9.32,0,0,0,1.4-4.95,5.4,5.4,0,0,1,2-4.13,15.53,15.53,0,0,0,2.44-3,4.18,4.18,0,0,0-.11-5.15c-1-1.37-.48-2,.75-2.94,3.5-2.64,6.88-5.43,10.22-8.27,1.61-1.38,1.46-2,0-3.49-1.09-1.1-.51-2.05.5-2.83,1.51-1.15,3-2.33,4.58-3.4,1.33-.9,1.31-1.79.3-2.89-.68-.74-1.28-1.56-1.94-2.33s-.44-1.29.36-1.86c4.25-3.05,8.49-6.1,12.65-9.25a5,5,0,0,1,5.94-.54c3,1.67,6,3.27,9,5,1.18.68,2.53.91,3.1-.28a4.14,4.14,0,0,0-.48-3.22,15.45,15.45,0,0,0-2.64-2.88l2.33-3.41-5.18-1.9,3.14-4.57c-1.31-1.2-2.58-2.43-3.94-3.54a1.46,1.46,0,0,0-1.37.07c-1,.75-1.94,1.73-3,2.46a4.74,4.74,0,0,1-2.53,1.05,75.69,75.69,0,0,1-8.62-.93,4,4,0,0,1-2.19-1.7A28.27,28.27,0,0,1,94,144.82a3.87,3.87,0,0,1-.11-2.72,2.53,2.53,0,0,0-.57-3c-1.5-1.66-3-3.37-2.68-6-3.16,4.74-2.72,10.09-3,15.28l-.44,0c-.64-2.79-1.27-5.59-1.9-8.38-.84-3.7-1.64-7.41-2.55-11.09a9.79,9.79,0,0,0-1.17-2.21l-.58.16V138.2l-.44.08c-1-6.43-2.1-12.86-3.11-19l-8.81-2.58c-.34,10.12,1.06,20.47-.44,30.79-1.64-4.08-1.57-8.47-2.31-12.84-1.38.6-1.91,1.39-1,2.62,1.44,2,1.09,3.79-.52,5.43-.93.94-.81,1.65.15,2.5a27.13,27.13,0,0,1,3.36,3.42,4.08,4.08,0,0,1,.81,2.54c-.31,4.76-2.06,9.1-3.93,13.42a4.77,4.77,0,0,0-.22,3,3.61,3.61,0,0,1-.51,3.33c-1.83,2.78-3.64,5.56-5.33,8.42a2.29,2.29,0,0,0,.21,2,2,2,0,0,0,1.7.58,17.23,17.23,0,0,0,4.07-1.22c1.31-.62,2-.05,2.71.87a17.41,17.41,0,0,1,3.1,9.88,19.46,19.46,0,0,1-.94,6.41c-.54,1.75-1.53,1.69-2.55.16-1.16-1.73-2.34-3.44-3.52-5.15a2.06,2.06,0,0,0-3.23-.53c-2.37,1.67-4.7,3.42-7.08,5.09a1.8,1.8,0,0,0-.63,2.47c1.23,3,2.41,5.94,3.77,8.83a2.78,2.78,0,0,1,0,3c-1.45,2.48-1,3.85,1.66,4.83.36.13,1-.17,1.38-.42,2.55-1.52,5.29-1.77,8.4-1.53L59.54,225l-9.13-5.54c0,1.92.37,3.07,2.2,3.55A10.59,10.59,0,0,1,60,229.6H54.24A43.52,43.52,0,0,1,56,234.49c.25,1.07-.21,1.69-1.54,1-2.12-1.07-4.4-1.8-6.45-3a30.84,30.84,0,0,1-4.14-3.42c.78,3,1.95,5.67.59,8.69-1.09-.94-2.07-1.77-3-2.61-3-2.57-5.94-5.11-8.83-7.75a3.56,3.56,0,0,1-.91-2.14c-.54-6.13-.8-12.29-1.5-18.39-.94-8.19-2.21-16.33-3.3-24.5a5.17,5.17,0,0,1,.15-2.07c1.33-4.53,2.75-9.05,4.08-13.58.39-1.32.38-2.55-1.12-3.36a2.29,2.29,0,0,1-1.05-1.56,39.94,39.94,0,0,1-.06-6.56c.09-.84,1.21-1.53,1.73-2.37a2.35,2.35,0,0,0,.27-1.54,18.16,18.16,0,0,0-1-3.59c-1.56-3.69.09-6.32,2.71-8.65A12.63,12.63,0,0,1,35.42,137c2.65-1.22,4-3.43,4.93-6,.25-.67.56-1.31.84-2,.91-2.16,1.4-2.49,3.45-1.38,1.57.84,2.28.18,3-1,.44-.7.86-1.42,1.29-2.13,1.48-2.48,1.45-2.45-.53-4.53a2.36,2.36,0,0,1-.51-1.7c.3-2.65.67-5.29,1.13-7.91.09-.5.68-.92,1.07-1.35s1.13-.78,1.18-1.23c.44-3.77.76-7.56,1.1-11.34,0-.1-.08-.21-.29-.73l-8.2,1.14a7.67,7.67,0,0,1-.52-2.07c.11-5.24-1.35-10.19-2.55-15.21a17.6,17.6,0,0,1-.38-7.35c.57-2.83-.07-5.25-.85-7.8a4.1,4.1,0,0,1-.14-2.05C42,51.85,47.71,43.07,55.17,35.34a34,34,0,0,1,3.77-3c.91-.7,1.55-.44,1.92.57.25.73.41,1.49.62,2.23a4.14,4.14,0,0,0,5.51,3,7.27,7.27,0,0,0,5-6.3c0-2.12-.23-4.25-.4-6.38,0-.57-.19-1.14-.35-2.06l11.66-.63c1.71-.09,3.42-.15,5.12-.29a1.64,1.64,0,0,1,2,1.27,46.82,46.82,0,0,0,2.14,4.32l.83-.16A24,24,0,0,0,93,24.1c-.72-5,.2-9.44,3.92-13.07,2.34-2.28,4.78-4.45,7.08-6.77C108.3-.07,113.54-.57,119.17.44c1.22.22,2.41.61,3.62.92,7.93,2,12.16,7.57,14.25,15.1.58,2.12,1,4.31,1.42,6.48,0,0,.24-.06.3-.18,1.6-3.29,4.47-4.86,7.8-5.87a3.25,3.25,0,0,0,2.33-2.84,25.39,25.39,0,0,1,.91-2.94c.93.57,1.64,1,2.28,1.42a6.53,6.53,0,0,0,5.17,1.38c1.45-.26,3-.15,4.42-.46a5.37,5.37,0,0,0,2.13-1.37A19.77,19.77,0,0,0,165.59,10c.89,1,2,1.8,2.43,2.88.71,1.71,2.15,2,3.57,2.55a25,25,0,0,1,14.5,12.93,4.41,4.41,0,0,1,.59,1.48c.21,3.07,2.07,5,4.19,7a51.81,51.81,0,0,1,5.34,6.19,5.41,5.41,0,0,0,4.4,2.2c2.6.1,2.67.27,2.14,2.91a45,45,0,0,1-4.48,12.29,17,17,0,0,0-1.07,3.89c-.08.35,0,.72-.1,1.07-.65,3.55-.69,6.82,3.55,8.29.29.1.48.5,1,1.09a35,35,0,0,1-4,3.19,2.5,2.5,0,0,0-1.43,2.69q.91,15.1,1.72,30.23c.17,3.15-.32,3.51-3.42,2.67ZM145,156l-.75,0c-.21-.89-.5-1.77-.62-2.67-.82-6.3-1.6-12.6-2.41-18.89a9.11,9.11,0,0,0-.54-2c-.1-.28-.58-.7-.68-.64-.68.33-1.63.64-1.88,1.22-.56,1.35-2.66,2.6-1.24,4.16a3.69,3.69,0,0,1,.81,4.48,2.4,2.4,0,0,0,.58,3,4.89,4.89,0,0,1,1.21,6.25c-.63,1.3-.17,2,1,2.75,2.19,1.44,3.37,3.37,2.56,6.13a9.3,9.3,0,0,0-.4,2.45,3,3,0,0,0,.51,1.6c.53.75,1.21,1.4,2.14,2.45,1.11-1.79,2.7-3.39,3.12-5.26.84-3.68,3.05-5.55,6.42-6.58.53-.16,1.3-.77,1.31-1.2.11-3.71.06-7.43.06-11.14a8.19,8.19,0,0,1-2.37-.3,3.34,3.34,0,0,0-3.67.38c-.81.58-1.54,1.28-2.4,1.79-2.68,1.6-3.44,3.82-2.77,6.86A24.37,24.37,0,0,1,145,156ZM33.76,286.5l-.54-.21a47,47,0,0,0-10.56,25.92,21.38,21.38,0,0,0,3.89-5.75c1.81-4.57,3.23-9.28,4.86-13.92C32.13,290.5,33,288.51,33.76,286.5Zm125-133.68c3.6.57,4.38-.07,4.52-3.41.09-2.37.25-4.73.35-7.1,0-.91,0-1.83,0-3.11-1.22,1.33-2,2.65-3.21,3.4a3.21,3.21,0,0,0-1.65,2.86C158.72,147.88,158.77,150.31,158.77,152.82ZM75.39,101.05c-4.06.47-6.47,3.28-6.42,7.55,2.36-.11,4.55-.56,6.24-2.35a2.21,2.21,0,0,0,.64-1.4C75.8,103.58,75.55,102.31,75.39,101.05Zm120.86,52-3.75-5.8-.37.18v8ZM72,115.36c1.75.92,3.29,1.83,4.83,1,.49-.27.2-2,.29-3.33Z"/></g></g></svg>