<?xml version="1.0" encoding="utf-8"?>
<!-- Generator: Adobe Illustrator 25.2.0, SVG Export Plug-In . SVG Version: 6.00 Build 0)  -->
<svg version="1.1" id="Layer_1" xmlns="http://www.w3.org/2000/svg" xmlns:xlink="http://www.w3.org/1999/xlink" x="0px" y="0px"
	 viewBox="0 0 314.5 314" style="enable-background:new 0 0 314.5 314;" xml:space="preserve">
<style type="text/css">
	.st0{fill:#5400E7;}
	.st1{fill:#231F20;}
</style>
<g id="Layer_2_1_">
	<g id="Layer_1-2">
		<g id="aeb185af-abc3-4d29-985e-4961b12019ea">
			<g id="ee7f433f-5fc6-4db4-acb0-45285f089abd">
				<polyline class="st0" points="0,0 140.9,0 314.5,0 				"/>
				<polyline class="st0" points="314.5,314 126.1,314 0,314 				"/>
			</g>
		</g>
		<path class="st1" d="M175.5,182.4L175.5,182.4l-21.1,0l-25.1-25.1l-0.1-0.1v0H69.5v0l-0.1,0.1l-25.1,25.1H23.1v0l-0.1,0.1v50.6
			L38,248l-10.6,10.5l0,0l10.5,10.5l31.6-0.2l-0.2,31.6l0.1,0.1L80,290.1V290v0.1l8.7,8.7l0,0l10.4-10.3l0.1-0.1v0.1l0.1-0.1
			l0.1,0.1v-0.1l0.1,0.1l10.3,10.3l0,0l8.7-8.7V290v0.1l10.6,10.5l0.1-0.1l-0.2-31.6l31.6,0.2l10.5-10.5l0,0L160.6,248l14.9-15
			L175.5,182.4L175.5,182.4z M105.5,264.7l-6.2-6.2l-6.1,6.2l-6.2-6.2l12.5-12.3l12.3,12.3L105.5,264.7z"/>
		<path class="st1" d="M294.9,47L294.9,47l-21.1,0l-25.1-25.1l-0.1-0.1v0h-59.6v0l-0.1,0.1l-25.1,25.1h-21.1v0l-0.1,0.1v50.6
			l14.9,15l-10.6,10.5l0,0l10.5,10.5l31.6-0.2l-0.2,31.6l0.1,0.1l10.5-10.5v-0.1v0.1l8.7,8.7l0,0l10.4-10.3l0.1-0.1v0.1l0.1-0.1
			l0.1,0.1v-0.1l0.1,0.1l10.3,10.3l0,0l8.7-8.7v-0.1v0.1l10.6,10.5l0.1-0.1l-0.2-31.6l31.6,0.2l10.5-10.5l0,0l-10.5-10.5l14.9-15
			L294.9,47L294.9,47z M224.9,129.3l-6.2-6.2l-6.1,6.2l-6.2-6.2l12.5-12.3l12.3,12.3L224.9,129.3z"/>
	</g>
</g>
</svg>
