<svg xmlns="http://www.w3.org/2000/svg" viewBox="0 0 314.5 314"><defs><style>.cls-1{fill:#5400e7;}.cls-2{fill:#231f20;}</style></defs><g id="Layer_2" data-name="Layer 2"><g id="Layer_1-2" data-name="Layer 1"><g id="aeb185af-abc3-4d29-985e-4961b12019ea"><g id="ee7f433f-5fc6-4db4-acb0-45285f089abd"><polyline class="cls-1" points="0 0 140.87 0 314.5 0"/><polyline class="cls-1" points="314.5 314 126.12 314 0 314"/></g></g><path class="cls-2" d="M250.34,100.31l-.05-.06H224.51l-30.7-30.72-.17-.17V69.3H120.86v.06l-.17.17L90,100.25H64.21l0,.06-.1.12v61.78l18.26,18.27L69.46,193.33l.06.06,12.8,12.81,38.62-.25-.25,38.63.11.12,12.87-12.85,0-.1v.1l10.61,10.65.06-.06L157,229.81l.14-.14v.14l.11-.09.09.09v-.14l.14.14,12.63,12.63.06.06,10.61-10.65v-.1l0,.1L193.7,244.7l.11-.12L193.56,206l38.62.25L245,193.39l.06-.06-12.86-12.85,18.26-18.27V100.43ZM164.81,200.88l-7.63-7.55-7.49,7.55-7.58-7.55,15.21-15,15.07,15Z"/></g></g></svg>