<?xml version="1.0" encoding="utf-8"?>
<!-- Generator: Adobe Illustrator 25.2.0, SVG Export Plug-In . SVG Version: 6.00 Build 0)  -->
<svg version="1.1" id="Layer_1" xmlns="http://www.w3.org/2000/svg" xmlns:xlink="http://www.w3.org/1999/xlink" x="0px" y="0px"
	 viewBox="0 0 314.5 314" style="enable-background:new 0 0 314.5 314;" xml:space="preserve">
<style type="text/css">
	.st0{fill:#5400E7;}
	.st1{fill:#231F20;}
	.st2{fill:#FFFFFF;}
</style>
<g id="Layer_2_1_">
	<g id="Layer_1-2">
		<g id="aeb185af-abc3-4d29-985e-4961b12019ea">
			<g id="ee7f433f-5fc6-4db4-acb0-45285f089abd">
				<polyline class="st0" points="0,0 140.9,0 314.5,0 				"/>
				<polyline class="st0" points="314.5,314 126.1,314 0,314 				"/>
			</g>
		</g>
		<path class="st1" d="M257.9,95.7L257.9,95.7L230,95.6l-33.2-33.2l-0.2-0.2v-0.1h-78.8v0.1l-0.2,0.2L84.4,95.6H56.5v0.1l-0.1,0.1
			v66.8l19.8,19.8l-14,13.9l0.1,0.1l13.9,13.9l41.8-0.3l-0.3,41.8l0.1,0.1l13.9-13.9v-0.1v0.1l11.5,11.5l0.1-0.1l13.7-13.7l0.2-0.2
			v0.2l0.1-0.1l0.1,0.1v-0.2l0.2,0.2l13.7,13.7l0.1,0.1l11.5-11.5v-0.1v0.1l14,13.9l0.1-0.1l-0.3-41.7l41.8,0.3l13.9-13.9l0.1-0.1
			l-13.9-13.9l19.8-19.8V95.8L257.9,95.7z M165.4,204.5l-8.3-8.2l-8.1,8.2l-8.2-8.2l16.5-16.2l16.3,16.2L165.4,204.5z"/>
		
			<rect x="139" y="93" transform="matrix(0.7071 0.7071 -0.7071 0.7071 124.7041 -78.616)" class="st2" width="36.4" height="36.4"/>
		<polyline class="st1" points="72,102.9 72,59 106.3,93.3 		"/>
		<polyline class="st1" points="114.7,73.9 114.7,45.2 137.1,67.6 		"/>
		<polyline class="st1" points="241.8,102.9 241.8,59 207.4,93.3 		"/>
		<polyline class="st1" points="199.1,73.9 199.1,45.2 176.7,67.6 		"/>
	</g>
</g>
</svg>
