<?xml version="1.0" encoding="utf-8"?>
<!-- Generator: Adobe Illustrator 25.2.0, SVG Export Plug-In . SVG Version: 6.00 Build 0)  -->
<svg version="1.1" id="Layer_1" xmlns="http://www.w3.org/2000/svg" xmlns:xlink="http://www.w3.org/1999/xlink" x="0px" y="0px"
	 viewBox="0 0 314.5 314" style="enable-background:new 0 0 314.5 314;" xml:space="preserve">
<style type="text/css">
	.st0{fill:none;}
</style>
<g id="Layer_2_1_">
	<g id="Layer_1-2">
		<g id="Layer_2-2">
			<g id="Layer_1-2-2">
				<line class="st0" x1="0" y1="0" x2="314.5" y2="0"/>
				<line class="st0" x1="314.5" y1="314" x2="0" y2="314"/>
			</g>
		</g>
	</g>
</g>
<g>
	<rect x="31.3" y="60.3" width="138.1" height="32.8"/>
	<polygon points="283.3,60.3 226.6,60.3 226.6,35.3 193.8,35.3 193.8,116.4 226.6,116.4 226.6,93.1 283.3,93.1 	"/>
	<rect x="31.3" y="222.6" width="80.7" height="32.8"/>
	<polygon points="283.3,222.6 169.3,222.6 169.3,197.6 136.5,197.6 136.5,278.7 169.3,278.7 169.3,255.4 283.3,255.4 	"/>
	<rect x="145.1" y="139.8" transform="matrix(-1 -1.224647e-16 1.224647e-16 -1 428.3387 312.3638)" width="138.1" height="32.8"/>
	<polygon points="31.2,172.6 87.9,172.6 87.9,197.6 120.7,197.6 120.7,116.4 87.9,116.4 87.9,139.8 31.2,139.8 	"/>
</g>
</svg>
