<?xml version="1.0" encoding="utf-8"?>
<!-- Generator: Adobe Illustrator 25.2.0, SVG Export Plug-In . SVG Version: 6.00 Build 0)  -->
<svg version="1.1" id="Layer_1" xmlns="http://www.w3.org/2000/svg" xmlns:xlink="http://www.w3.org/1999/xlink" x="0px" y="0px"
	 viewBox="0 0 314.5 314" style="enable-background:new 0 0 314.5 314;" xml:space="preserve">
<style type="text/css">
	.st0{fill:none;}
	.st1{fill:#231F20;}
</style>
<g id="Layer_2_1_">
	<g id="Layer_1-2">
		<g id="a3d891e3-d1a8-45d9-8bb4-c816c9df960b">
			<g id="aab71d7e-7bf8-4474-9c42-a9921f90853b">
				<line class="st0" x1="0" y1="0" x2="314.5" y2="0"/>
				<line class="st0" x1="314.5" y1="314" x2="0" y2="314"/>
			</g>
		</g>
	</g>
	<g id="pSkill">
		<g id="climb">
			<polygon class="st1" points="185.1,93.8 185.5,94.2 185.9,93.7 185.5,93.8 			"/>
			<path class="st1" d="M280.9,295.5V50.1L254.1,77h-52.8l-4.2-48l-1.4-16.4l-16.4,1.1l-29.2,2l-16.9,1.1l1.3,16.9l2.6,34.2
				l-52.6,52.7l-6,6l1.3,8.3l6.4,43.6l-27,27l-5.6,5.6l0.7,7.8l3.6,39l1.3,13.9l-23.6,23.6H280.9z M159.6,143.8l7.1-7.1l27.8-0.1
				l-30.8,30.8L159.6,143.8z M71,217.5l33-33l-7.6-52l58.1-58.2l-3.2-41.9l29.2-2l5.5,63.3h51.4l-4.6,4.6l-21.5,21.6l-51.6,0.1
				l-18.1,18.1l7.5,43.9l-26.9,26.9l-47.6,47.6L71,217.5z"/>
		</g>
	</g>
</g>
</svg>
