<svg xmlns="http://www.w3.org/2000/svg" viewBox="0 0 314.5 314"><defs><style>.cls-1{fill:none;}.cls-2{fill:#231f20;}</style></defs><g id="Layer_2" data-name="Layer 2"><g id="Layer_1-2" data-name="Layer 1"><g id="a3d891e3-d1a8-45d9-8bb4-c816c9df960b"><g id="aab71d7e-7bf8-4474-9c42-a9921f90853b"><line class="cls-1" x2="314.5"/><line class="cls-1" x1="314.5" y1="314" y2="314"/></g></g></g><g id="pSkill"><g id="fly"><polygon class="cls-2" points="188.99 220.48 179.71 211.2 170.43 201.93 157.24 188.73 144.04 201.86 134.77 211.2 125.42 220.48 112.29 233.67 112.08 233.88 202.4 233.88 202.19 233.67 188.99 220.48"/><polygon class="cls-2" points="294.88 140.98 281.69 127.8 272.47 118.58 272.41 118.51 272.34 118.44 263.13 109.23 249.94 96.03 234.02 80.12 218.1 96.03 195.7 118.44 173.16 140.98 157.24 125.15 141.32 140.98 118.79 118.44 96.38 96.03 80.53 80.19 80.47 80.26 64.62 96.1 51.43 109.23 42.15 118.44 42.08 118.51 41.93 118.65 32.79 127.87 19.61 140.98 3.7 156.89 3.7 188.73 19.61 172.81 35.52 156.89 41.93 150.48 48.72 143.77 58 134.42 67.35 125.15 74.04 118.44 80.47 112.02 86.96 118.44 125.42 156.89 141.32 172.81 157.04 188.52 157.24 188.52 157.38 188.52 173.16 172.81 188.99 156.89 227.46 118.44 234.02 111.96 240.5 118.44 247.21 125.15 256.49 134.42 265.78 143.7 272.47 150.41 278.97 156.89 294.88 172.81 310.8 188.73 310.8 156.89 294.88 140.98"/></g></g></g></svg>