<svg xmlns="http://www.w3.org/2000/svg" viewBox="0 0 314.5 314"><defs><style>.cls-1{fill:none;}.cls-2{fill:#1d1d1b;}.cls-3{fill:#231f20;}</style></defs><g id="Layer_2" data-name="Layer 2"><g id="Layer_1-2" data-name="Layer 1"><g id="a3d891e3-d1a8-45d9-8bb4-c816c9df960b"><g id="aab71d7e-7bf8-4474-9c42-a9921f90853b"><line class="cls-1" x2="314.5"/><line class="cls-1" x1="314.5" y1="314" y2="314"/></g></g></g><g id="mSkill"><g id="levitate"><polygon class="cls-2" points="206.39 69.43 157.26 20.33 104.42 75.86 118.83 90.25 87.85 118.56 87.86 118.57 87.78 118.56 87.78 244.78 107.57 227.4 107.57 127.56 107.78 127.38 145.32 89.76 130.98 75.42 157.26 49.07 183.59 75.42 169.19 89.81 207.2 127.84 207.4 127.63 207.4 127.84 207.4 128 207.4 227.85 226.72 244.78 226.72 118.56 191.99 83.81 206.39 69.43"/><polygon class="cls-3" points="229.91 293.67 84.59 293.67 54.66 273.67 259.84 273.67 229.91 293.67"/></g></g></g></svg>