<?xml version="1.0" encoding="utf-8"?>
<!-- Generator: Adobe Illustrator 25.2.0, SVG Export Plug-In . SVG Version: 6.00 Build 0)  -->
<svg version="1.1" id="Layer_1" xmlns="http://www.w3.org/2000/svg" xmlns:xlink="http://www.w3.org/1999/xlink" x="0px" y="0px"
	 viewBox="0 0 314.5 314" style="enable-background:new 0 0 314.5 314;" xml:space="preserve">
<style type="text/css">
	.st0{fill:#5400E7;}
	.st1{fill:#1D1E1C;}
</style>
<g id="Layer_2_1_">
	<g id="Layer_1-2">
		<g id="aeb185af-abc3-4d29-985e-4961b12019ea">
			<g id="ee7f433f-5fc6-4db4-acb0-45285f089abd">
				<polyline class="st0" points="0,0 140.9,0 314.5,0 				"/>
				<polyline class="st0" points="314.5,314 126.1,314 0,314 				"/>
			</g>
		</g>
	</g>
</g>
<g>
	<path class="st1" d="M310,36.7L291.3,0l-91,49.5h-86.1L23.2,0L4.5,36.7l16.7,53.9L7.8,115.1l18.5,87.2l33.8,21.6l20.2,50.7h24.8
		l48.6-19.7l48.6,19.7h24.8l20.2-50.7l33.8-21.6l18.5-87.2l-8.9-16.3L310,36.7z M83.6,158.5l-23.4-38.6l50.5,15.5l9.5,30.6
		L83.6,158.5z M155.5,226.8l-21-24.5H180L155.5,226.8z M223.9,158.5l-36.5,7.5l9.5-30.6l50.5-15.5L223.9,158.5z"/>
	<polygon class="st1" points="107.6,281.6 107.6,295.4 153.7,314 199.8,295.4 199.8,281.6 153.7,264.3 	"/>
</g>
</svg>
