<?xml version="1.0" encoding="utf-8"?>
<!-- Generator: Adobe Illustrator 25.2.0, SVG Export Plug-In . SVG Version: 6.00 Build 0)  -->
<svg version="1.1" id="Layer_1" xmlns="http://www.w3.org/2000/svg" xmlns:xlink="http://www.w3.org/1999/xlink" x="0px" y="0px"
	 viewBox="0 0 314.5 314" style="enable-background:new 0 0 314.5 314;" xml:space="preserve">
<style type="text/css">
	.st0{fill:#5400E7;}
</style>
<g id="f30efac4-6fee-409e-b6d5-4a351d677ddd">
	<g id="a9c291ef-0b65-4593-8e5b-761de8c0c2a6">
		<polyline class="st0" points="0,0 140.9,0 314.5,0 		"/>
		<polyline class="st0" points="314.5,314 126.1,314 0,314 		"/>
	</g>
</g>
<polygon points="287.6,106.8 283.5,126.7 237.7,158.3 244.3,83.9 259.7,68.9 245.3,46.2 218.6,61.9 227.9,83.3 202.7,151.3 
	171.1,106.9 174.1,86.9 148,79.7 140.9,102.1 157.5,111.2 205.5,241.4 294.9,135.4 313.5,132.4 314.5,108.9 "/>
<polygon points="3.1,252.6 21.2,266.6 35.1,254.6 170.3,254.7 103.6,137.2 107.2,119.1 86.1,110.3 75,134.2 91.8,144.6 104.9,196 
	38.5,172 28.4,151.6 0,161.6 7.8,186.6 28.7,184.6 88.1,226.5 35.8,240.7 18.4,231.2 "/>
</svg>
