<?xml version="1.0" encoding="utf-8"?>
<!-- Generator: Adobe Illustrator 25.2.0, SVG Export Plug-In . SVG Version: 6.00 Build 0)  -->
<svg version="1.1" id="Layer_1" xmlns="http://www.w3.org/2000/svg" xmlns:xlink="http://www.w3.org/1999/xlink" x="0px" y="0px"
	 viewBox="0 0 314.5 314" style="enable-background:new 0 0 314.5 314;" xml:space="preserve">
<style type="text/css">
	.st0{fill:#5400E7;}
</style>
<g id="f30efac4-6fee-409e-b6d5-4a351d677ddd">
	<g id="a9c291ef-0b65-4593-8e5b-761de8c0c2a6">
		<polyline class="st0" points="0,0 140.9,0 314.5,0 		"/>
		<polyline class="st0" points="314.5,314 126.1,314 0,314 		"/>
	</g>
</g>
<path d="M283.3,207.8l31.2-89.5l-87-75l-34.9,26l-35.3-18.4l-35.4,18.4L87,43.3l-87,75l31.2,89.5l71.1-22.4l0,14.3H84.9L98.4,218
	h23.7l9.8-18.3l4,48.5l21.2,33.5h45.9l20.2-33.5h-32.9l-5.9,8.1l-6-8.1l-0.1-0.6l4-47.9l10.1,18.3l20.3,0.9l16.2-19.2h-18.4
	l1.5-14.3L283.3,207.8z M114.5,138.6l-3.8-16.9l23.3,6l2.1,23.1L114.5,138.6z M200.3,138.6l-21.5,12.1l2.1-23.1l23.3-6L200.3,138.6z
	"/>
</svg>
