<?xml version="1.0" encoding="utf-8"?>
<!-- Generator: Adobe Illustrator 25.2.0, SVG Export Plug-In . SVG Version: 6.00 Build 0)  -->
<svg version="1.1" id="Layer_1" xmlns="http://www.w3.org/2000/svg" xmlns:xlink="http://www.w3.org/1999/xlink" x="0px" y="0px"
	 viewBox="0 0 314.5 314" style="enable-background:new 0 0 314.5 314;" xml:space="preserve">
<style type="text/css">
	.st0{fill:#5400E7;}
	.st1{fill:#231F20;}
</style>
<g id="Layer_2_1_">
	<g id="Layer_1-2">
		<g id="aeb185af-abc3-4d29-985e-4961b12019ea">
			<g id="ee7f433f-5fc6-4db4-acb0-45285f089abd">
				<polyline class="st0" points="0,0 140.9,0 314.5,0 				"/>
				<polyline class="st0" points="314.5,314 126.1,314 0,314 				"/>
			</g>
		</g>
	</g>
</g>
<path class="st1" d="M302,104.1l-35.8,8.4l-34.4-83.3l-16,51.9l-58.5-58.5L99.4,80.4L82.5,29.2l-34.3,83.3l-35.9-8.5l102,121.3
	l-10.6,11.5l53.5,53.5l53.5-53.5l-10.7-11.5L302,104.1z M200.8,87 M212.6,133.2l4.4,22.6l-34.2,9.4L212.6,133.2z M97.5,155.8
	l4.4-22.6l29.9,32L97.5,155.8z"/>
</svg>
