<?xml version="1.0" encoding="utf-8"?>
<!-- Generator: Adobe Illustrator 25.2.0, SVG Export Plug-In . SVG Version: 6.00 Build 0)  -->
<svg version="1.1" id="Layer_1" xmlns="http://www.w3.org/2000/svg" xmlns:xlink="http://www.w3.org/1999/xlink" x="0px" y="0px"
	 viewBox="0 0 314.5 314" style="enable-background:new 0 0 314.5 314;" xml:space="preserve">
<style type="text/css">
	.st0{fill:#5400E7;}
	.st1{fill:#141414;}
</style>
<g id="Layer_2_1_">
	<g id="Layer_1-2">
		<g id="aeb185af-abc3-4d29-985e-4961b12019ea">
			<g id="ee7f433f-5fc6-4db4-acb0-45285f089abd">
				<polyline class="st0" points="0,0 140.9,0 314.5,0 				"/>
				<polyline class="st0" points="314.5,314 126.1,314 0,314 				"/>
			</g>
		</g>
	</g>
</g>
<path class="st1" d="M265.5,83.6l-32.2-55.7l-63.1,32.9h-25.9l-63-32.9L49.1,83.6L0.9,95.4l8.4,60.2L93.6,286h127.2l84.4-130.4
	l8.4-60.2L265.5,83.6z M88.4,80.6l-12-9.1l12-20.7l36,20.7l-12,9.1H88.4z M116.7,227.6v-29.8l21.8,18.3L116.7,227.6z M197.8,227.6
	L176,216l21.8-18.3V227.6z M225.9,80.6h-24l-12-9.1l36-20.7l12,20.7L225.9,80.6z"/>
</svg>
