<?xml version="1.0" encoding="utf-8"?>
<!-- Generator: Adobe Illustrator 25.2.0, SVG Export Plug-In . SVG Version: 6.00 Build 0)  -->
<svg version="1.1" id="Layer_1" xmlns="http://www.w3.org/2000/svg" xmlns:xlink="http://www.w3.org/1999/xlink" x="0px" y="0px"
	 viewBox="0 0 314.5 314" style="enable-background:new 0 0 314.5 314;" xml:space="preserve">
<style type="text/css">
	.st0{fill:#5400E7;}
</style>
<g id="f30efac4-6fee-409e-b6d5-4a351d677ddd">
	<g id="a9c291ef-0b65-4593-8e5b-761de8c0c2a6">
		<polyline class="st0" points="0,0 140.9,0 314.5,0 		"/>
		<polyline class="st0" points="314.5,314 126.1,314 0,314 		"/>
	</g>
</g>
<g>
	<path d="M314.5,70.8l-21.1-57.4h-39.8l-25.4,23.5l-29.5-15.1h-41.3h-41.3L86.4,36.9L61,13.4H21.2L0,70.8l23.5,31.4L0,202.3
		l157.2,98.3l157.2-98.3l-23.5-100.2L314.5,70.8z M209.1,207.7l-51.9,41l-51.9-41v-45.3l51.9-21.1l51.9,21.1V207.7z"/>
	<polygon points="133.8,162.5 180.7,162.5 157.2,194.5 	"/>
</g>
</svg>
