<?xml version="1.0" encoding="utf-8"?>
<!-- Generator: Adobe Illustrator 25.2.0, SVG Export Plug-In . SVG Version: 6.00 Build 0)  -->
<svg version="1.1" id="Layer_1" xmlns="http://www.w3.org/2000/svg" xmlns:xlink="http://www.w3.org/1999/xlink" x="0px" y="0px"
	 viewBox="0 0 314.5 314" style="enable-background:new 0 0 314.5 314;" xml:space="preserve">
<style type="text/css">
	.st0{fill:none;}
</style>
<g id="Layer_2_1_">
	<g id="Layer_1-2">
		<g id="a3d891e3-d1a8-45d9-8bb4-c816c9df960b">
			<g id="aab71d7e-7bf8-4474-9c42-a9921f90853b">
				<line class="st0" x1="0" y1="0" x2="314.5" y2="0"/>
				<line class="st0" x1="314.5" y1="314" x2="0" y2="314"/>
			</g>
		</g>
	</g>
	<g id="mSkill">
		<g id="morph">
			<polygon points="232.5,80.7 198.6,114.6 198.6,162.5 232.5,196.4 280.4,196.4 314.3,162.5 314.3,114.6 280.4,80.7 			"/>
			<polygon points="34,80.7 0.1,114.6 0.1,162.5 33.9,196.4 81.9,196.4 115.8,162.5 115.8,114.6 81.9,80.7 			"/>
			<polygon points="227.3,205.2 189.1,167.3 189.1,109.8 227.4,73 156.7,29.6 85.9,73 124.2,109.8 124.2,167.3 86.1,205.2 
				117,235.9 104.6,248.3 137.4,281.1 137.4,256.4 137.4,256.4 175.6,256.4 175.9,256.4 175.9,280.9 208.4,248.3 196.3,236.1 			"/>
		</g>
	</g>
</g>
</svg>
