<?xml version="1.0" encoding="utf-8"?>
<!-- Generator: Adobe Illustrator 25.2.0, SVG Export Plug-In . SVG Version: 6.00 Build 0)  -->
<svg version="1.1" id="Layer_1" xmlns="http://www.w3.org/2000/svg" xmlns:xlink="http://www.w3.org/1999/xlink" x="0px" y="0px"
	 viewBox="0 0 314.5 314" style="enable-background:new 0 0 314.5 314;" xml:space="preserve">
<style type="text/css">
	.st0{fill:#5400E7;}
</style>
<g id="f30efac4-6fee-409e-b6d5-4a351d677ddd">
	<g id="a9c291ef-0b65-4593-8e5b-761de8c0c2a6">
		<polyline class="st0" points="0,0 140.9,0 314.5,0 		"/>
		<polyline class="st0" points="314.5,314 126.1,314 0,314 		"/>
	</g>
</g>
<path d="M221.6,42.1L157.3,0L93,42.1L34.4,242.7l122.8,71.4l122.9-71.4L221.6,42.1z M203.7,208.9l-2.1,42.8l-44.2,20l-44.2-20
	l-2.1-42.8l20.7-28.8l-25,0.6l-17.9-27.8l28.2-24.3l40.4,18.5l40.4-18.5l28.2,24.3L208,180.8l-25-0.6L203.7,208.9z"/>
<g>
	<polygon points="110.7,154.2 145.7,154.2 128,168.8 	"/>
	<polygon points="203.8,154.2 168.8,154.2 186.5,168.8 	"/>
</g>
</svg>
