<svg xmlns="http://www.w3.org/2000/svg" viewBox="0 0 314.5 314"><defs><style>.cls-1{fill:none;}.cls-2{fill:#231f20;}</style></defs><g id="Layer_2" data-name="Layer 2"><g id="Layer_1-2" data-name="Layer 1"><g id="a3d891e3-d1a8-45d9-8bb4-c816c9df960b"><g id="aab71d7e-7bf8-4474-9c42-a9921f90853b"><line class="cls-1" x2="314.5"/><line class="cls-1" x1="314.5" y1="314" y2="314"/></g></g></g><g id="pSkill"><g id="strong"><path class="cls-2" d="M193,109.78l-7.67,3.81-2.18,6.46L174,147.41l.17.07-.23.12-.12-.25-36.57-1.18-15.33,27.25-9.38,27.31-1.41-3-7.62-15.21-9.13-18.42,14.07-41.81,15.26-7.58,10.75-5.4,10.82-5.29,15.19-7.61L138.34,52l-5.62-1.89-5.61-1.91-11.54-3.88-16-5.4-.09.07-.09,0L27.51,252.56l.13.26,15.88,5.35,11.68,3.91L60.74,264l5.57,1.87,27.56,9.28L271.8,186.66,287,141.54l0-.09Z"/></g></g></g></svg>