<svg xmlns="http://www.w3.org/2000/svg" viewBox="0 0 1530 765.81"><defs><style>.cls-1{fill:#f4f1ef;}</style></defs><g id="Layer_2" data-name="Layer 2"><g id="Layer_1-2" data-name="Layer 1"><polygon class="cls-1" points="880.33 356 898.33 368.92 909.67 353.92 880.33 356"/><path class="cls-1" d="M1008.09,262.87l7-9.75-14.51.74-6.74,2.51L958,215.78l-44.89-25.34-15,14.52-58.63,5.36,18.74-29.88-18.66-7-13.75-37.57-1.81,27.24L809.39,180l-60.95-27.68-19.8-9-23,13-12.48,17.16L742,184.14l84.27,47.3,84.2-11.66L956,243.11h0L986.93,259l-44.32,16.49-47.29-6.56L906.27,288H819.16l32.78-25.15-17.33-2.41-202,44.8,23.26-49.3-63.46,15.62-53.76-3.12-90,8.14-51.64,5.2,21.38-12.09-74.74-17,.59-.41-29.9,1.58L183.61,228.44l-108-14.66,21.33,34.66,88-1.33,62.67,32h41.33l-26.67,14.83H204.94l-28-6.83H65.32l-11-8H20.6l96.34,212,33.33-14.67,9.34-28-22.67-13.33L99.61,377.78l5.33-21.34,84,44,6.67-12V369.78l-20-17.34,5.33-10h38.67v19.34l40,13.33,12,56,68,17.33v-20l54.66,12v13.34l-16,14.66-22.66-18.66-1.34,21.33-20,104,578.1-122.18,21.24-19.49H890.94l-26-13-37.33,2.67-72.67-28-2-18h-30l93.33-42,24.67-.67,22.67-20.66h20l30.66,54.66-45.33,8.67-57.33-4.67.66,20h29.34l72,24.67,40.66-11.33,13.34-13.34,37.33,17.34,13.92,20.64,255.41-54,6.67-22.66-88-2.67,56-22.67,10.67,8,29.33-16v-26.5l-37.33,22.5-133.34-4,20-18.5,141.34-21.5,40-21.33-9.34-28-48,20h-39.66l-65,10.75-13-6.42-51,6.42-6-4.42L1057,251c7,5.23,13.3,10.36,13.3,10.36s-13.33,10.64-16.44,12c-1.94.83-21.52-.31-36-1.28l-6.2-.43-9.38-.69,2.17-3Zm-707,96,25.2-12.6L351.61,360Zm69.22,33.57,54.67-30.66,46.67,22,24-8.67,21.33,17.33H370.27Zm436.67,39.34h38.67l33.33,14.66H656.27l18,8,5.34,16-97.34,4-14-17.33-110-8,42.67-10.67,56-38,15.33-1.33,24,23.33,79.34-30h26.66Zm288.67-54.67h-25.34l24.89-18.89h27.11l24.89,25.13Zm37.33-25.65,22.68-11.34,22.82,12.31Z" transform="translate(19.39 100.06)"/><polygon class="cls-1" points="78.11 337.88 31 321.83 19.39 333.84 22.98 341.72 60.33 363.17 78.11 337.88"/><polygon class="cls-1" points="345.72 580.5 304 580.5 320.44 607.5 320.44 658.5 340.08 668.57 359.89 573.83 345.72 580.5"/><polygon class="cls-1" points="536.33 336.5 569 358.5 564.82 343.17 563 336.5 523 309.5 477.67 304.5 515 336.5 536.33 336.5"/><polygon class="cls-1" points="675.89 297.39 694 284.5 669 284.5 628 324.06 664.78 324.06 675.89 297.39"/><polygon class="cls-1" points="959.68 245.69 973.43 215.5 992.76 201.05 951.43 195.71 930.73 205.92 903.2 219.5 943 226.5 959.68 245.69"/><polygon class="cls-1" points="881 151.5 849.64 137.5 795 144.5 790 188.5 845.67 160.5 881 151.5"/><polygon class="cls-1" points="319 126.72 247 126.72 224.33 113.39 205.67 113.39 184.33 126.72 157.67 100.06 131 100.06 120.33 124.06 149.67 141.39 304.33 141.39 327 148.06 445.67 142.72 319 126.72"/><polygon class="cls-1" points="483.44 190.5 473.67 181.39 427 180.06 407 166.72 381.67 166.72 367 180.06 379 193.39 460.33 193.39 471.44 201.17 531.11 201.17 483.44 190.5"/><g id="Canvas"><line y1="765.81"/><line x1="1530" x2="1530" y2="765.81"/></g></g></g></svg>