<svg xmlns="http://www.w3.org/2000/svg" viewBox="0 0 1530 765.81"><defs><style>.cls-1{fill:#817e79;}</style></defs><g id="Layer_2" data-name="Layer 2"><g id="Layer_1-2" data-name="Layer 1"><path class="cls-1" d="M0,0V291.17l19.39,42.67,11.61-12,47.11,16.05L95,313.83h0L203,328.5l130.67,25.42,29.89-1.59L411,318.5l30,16.56,25.39-9.56,11.28-21,45.33,5,40,27,23-40,26,10,16,17.56,41-39.56h25l9.22,9.78,9.34-20.78L725,256.34l23-13,19.8,9L790,188.5l5-44,54.64-7,31.36,14,12,35,37.73,19.42,20.7-10.21,41.33,5.34,28.43,58.75L1054,285.5l59,28.33h21l36,19.67,22-24,25,9,25,24.67h39.67l48-20h30.66L1515,0ZM327,148.06l-22.67-6.67H149.67l-29.34-17.33,10.67-24h26.67l26.66,26.66,21.34-13.33h18.66L247,126.72h72l126.67,16Zm144.44,53.11-11.11-7.78H379l-12-13.33,14.67-13.34H407l20,13.34,46.67,1.33,9.77,9.11,47.67,10.67Z"/><g id="Canvas"><line y1="765.81"/><line x1="1530" x2="1530" y2="765.81"/></g></g></g></svg>