<svg xmlns="http://www.w3.org/2000/svg" viewBox="0 0 1530 765.81"><defs><style>.cls-1{fill:none;}</style></defs><g id="Layer_2" data-name="Layer 2"><g id="Layer_1-2" data-name="Layer 1"><polygon class="cls-1" points="1020 353.92 1018.5 354.47 1027.48 362.92 1034.52 353.18 1020 353.92"/><polygon class="cls-1" points="975.4 343.17 1006.32 359.01 929.86 319.83 975.4 343.17"/><polygon class="cls-1" points="564.82 343.17 563 336.5 564.82 343.17 564.82 343.17"/><polygon points="416.33 381.83 467.97 376.63 558 368.5 611.77 371.62 675.22 356 651.97 405.3 854 360.5 871.33 362.91 838.56 388.06 925.67 388.06 914.71 368.93 962 375.5 1006.32 359.01 975.4 343.17 929.86 319.83 845.67 331.5 761.39 284.2 712.56 273.5 703.22 294.28 694 284.5 675.89 297.39 664.78 324.06 628 324.06 612 306.5 586 296.5 563 336.5 564.82 343.17 569 358.5 536.33 336.5 515 336.5 477.67 304.5 466.39 325.5 441 335.06 411 318.5 363.56 352.33 362.98 352.75 437.71 369.75 416.33 381.83"/><path d="M1217,318.5l-25-9-22,24-36-19.67h-21l-59-28.33-32.81-25.7-28.43-58.75L973.43,215.5l-13.75,30.19L943,226.5l-39.8-7,27.53-13.58L893,186.5l-12-35-35.33,9L790,188.5l-22.16,63.83L828.78,280l14.66-16.83,1.81-27.24L859,273.5l18.67,7-18.75,29.87L917.55,305l15-14.52,44.89,25.33,35.84,40.59,6.74-2.5,14.51-.74-12,16.65-.83,1.16s3.82.29,9.38.68l6.2.43c14.46,1,34,2.12,36,1.29,3.11-1.33,16.45-12,16.45-12s-6.36-5.13-13.3-10.36L1107,349.5l6,4.42,51-6.42,13,6.42,65-10.75Z"/><polygon points="515 475.17 491 483.83 444.33 461.83 389.67 492.5 473.67 492.5 536.33 492.5 515 475.17"/><polygon points="865 531.83 826.33 531.83 721.67 492.5 695 492.5 615.67 522.5 591.67 499.17 576.33 500.5 520.33 538.5 477.67 549.17 587.67 557.17 601.67 574.5 699 570.5 693.67 554.5 675.67 546.5 898.33 546.5 865 531.83"/><path d="M1515,0,1360.33,323.17h-30.66l9.33,28-40,21.33L1157.67,394l-20,18.5,133.33,4,37.33-22.5v26.5l-29.33,16-10.67-8-56,22.67,88,2.66-6.66,22.67-255.41,54-13.93-20.65L987,492.5l-13.33,13.33L933,517.17,861,492.5H831.67l-.67-20,57.33,4.67,45.34-8.67L903,413.83H883L860.33,434.5l-24.66.67-93.34,42h30l2,18,72.67,28,37.33-2.67,26,13H953L931.77,553,353.67,675.17l20-104L375,549.83l22.67,18.67,16-14.67V540.5L359,528.5v20l-68-17.33-12-56-40-13.34V442.5H200.33l-5.33,10,20,17.33V488.5l-6.67,12-84-44L119,477.83l37.33,57.34L179,548.5l-9.33,28-33.34,14.67L40,379.17H73.67l11,8H196.33l28,6.83h57.34l26.66-14.83H267l-62.67-32-88,1.33L95,313.83h0L78.11,337.88,60.33,363.17,23,341.72l-3.59-7.88L0,291.17V765.81H1530V0ZM320.44,658.5v-51L304,580.5h41.72l14.17-6.67-19.81,94.74Z"/><polygon points="345.64 446.33 320.44 458.93 371 460 345.64 446.33"/><polygon points="1175.01 440.18 1152.33 451.52 1197.83 452.48 1175.01 440.18"/><polygon points="1114.56 458.28 1089.67 477.17 1115 477.17 1166.56 483.41 1141.67 458.28 1114.56 458.28"/><g id="Canvas"><line y1="765.81"/><line x1="1530" x2="1530" y2="765.81"/></g></g></g></svg>