<svg xmlns="http://www.w3.org/2000/svg" width="314.5" height="314" viewBox="0 0 314.5 314"><defs><style>.a9c0a7ad-b3b3-4c5e-a93f-a2de7c965e1f{fill:#5400e7;}.b32504d0-5d74-4bc8-b032-98594dbbae99{fill:#fff;}</style></defs><g id="a04d20e5-c7d5-4f86-a362-60474a2ca6db" data-name="Layer 2"><g id="aa454394-c813-45be-9910-137885087b68" data-name="Layer 1"><polyline class="a9c0a7ad-b3b3-4c5e-a93f-a2de7c965e1f" points="0 0 140.87 0 314.5 0"/><polyline class="a9c0a7ad-b3b3-4c5e-a93f-a2de7c965e1f" points="314.5 314 126.12 314 0 314"/><g id="f8ad0dde-05cc-45e5-bed0-f16a01b225d7" data-name="Goblin"><polygon class="b32504d0-5d74-4bc8-b032-98594dbbae99" points="173.74 193.03 173.75 193.03 173.78 192.99 173.74 193.03"/><polygon class="b32504d0-5d74-4bc8-b032-98594dbbae99" points="140.67 192.99 140.7 193.03 140.71 193.03 140.67 192.99"/><path class="b32504d0-5d74-4bc8-b032-98594dbbae99" d="M218.46,126l-61.3-61.32L95.8,126l-58-29.86L64.71,157l92.45,92.32L249.71,157l27-61ZM189,193.51l-5.66,6.58h-51.4l-6.39-6.58V172.38L140.64,193l6.62-6.62,5,5,5-5,5,5,5-5L173.8,193,189,172.38Z"/></g></g></g></svg>