<svg xmlns="http://www.w3.org/2000/svg" viewBox="0 0 314.5 314"><defs><style>.cls-1{fill:none;}.cls-2{fill:#231f20;}</style></defs><g id="Layer_2" data-name="Layer 2"><g id="Layer_1-2" data-name="Layer 1"><g id="a3d891e3-d1a8-45d9-8bb4-c816c9df960b"><g id="aab71d7e-7bf8-4474-9c42-a9921f90853b"><line class="cls-1" x2="314.5"/><line class="cls-1" x1="314.5" y1="314" y2="314"/></g></g></g><g id="pSkill"><g id="bleed"><path class="cls-2" d="M162.2,128.41,98.11,228v47.56l29,28.59h69.7l29.48-29.48V229.36ZM124.06,282.6l-8.67-6.11,4.94-7-8.58-6,6-8.57-7.58-5.35,6.11-8.67L125,247l-6,8.57,7.59,5.35-4.94,7,8.58,6.05Z"/><path class="cls-2" d="M240.83,9.89l-48.09,74.7v35.68l21.76,21.46h52.3l22.12-22.12v-34Zm-31,115.65-5.64-4,3.21-4.55-5.58-3.93,3.93-5.58L200.79,104l4-5.64,5.64,4-3.93,5.58,4.94,3.48L208.21,116l5.58,3.93Z"/><path class="cls-2" d="M74.69,34.78,25.58,111.07v36.44L47.8,169.42h53.41l22.59-22.59V112.14Zm-29,118.49-5.64-4,3.21-4.55-5.58-3.93,3.93-5.58-4.94-3.48,4-5.64,5.64,4-3.93,5.57,4.94,3.48-3.21,4.56,5.58,3.93Z"/></g></g></g></svg>