<svg xmlns="http://www.w3.org/2000/svg" viewBox="0 0 314.5 314"><defs><style>.cls-1{fill:none;}.cls-2{fill:#231f20;}</style></defs><g id="Layer_2" data-name="Layer 2"><g id="Layer_1-2" data-name="Layer 1"><g id="a3d891e3-d1a8-45d9-8bb4-c816c9df960b"><g id="aab71d7e-7bf8-4474-9c42-a9921f90853b"><line class="cls-1" x2="314.5"/><line class="cls-1" x1="314.5" y1="314" y2="314"/></g></g></g><g id="pSkill"><polygon id="charge" class="cls-2" points="248.06 198.23 180.24 189.77 186.36 163.83 174.93 145.21 217.07 155.27 225.14 150.3 227.1 142.11 221.25 132.57 213.1 130.64 199.22 139.16 170.21 132.22 197.07 21.22 137.88 21.22 114.16 118.83 88.24 112.63 87.12 112.37 78.58 98.48 68.53 96.07 59.01 101.94 57.06 110.15 62.14 118.26 106.04 128.74 85.01 141.65 85.01 141.71 79.28 165.65 87.81 179.54 80.25 211.23 80.23 211.28 80.65 211.97 97.31 239.01 97.29 239.06 89.74 270.71 89.72 270.75 103.26 292.78 122.89 280.71 122.9 280.68 129.55 252.87 166.32 285.35 222.48 285.17 257.44 258.81 257.44 213.49 248.06 198.23"/></g></g></svg>