<svg xmlns="http://www.w3.org/2000/svg" viewBox="0 0 314.5 314"><defs><style>.cls-1{fill:none;}.cls-2{fill:#231f20;}</style></defs><g id="Layer_2" data-name="Layer 2"><g id="Layer_1-2" data-name="Layer 1"><g id="a3d891e3-d1a8-45d9-8bb4-c816c9df960b"><g id="aab71d7e-7bf8-4474-9c42-a9921f90853b"><line class="cls-1" x2="314.5"/><line class="cls-1" x1="314.5" y1="314" y2="314"/></g></g></g><g id="pSkill"><polygon id="disease" class="cls-2" points="110.42 42.87 142.75 34.55 174.02 41.27 173.4 57.1 155.83 64.77 156.94 73.84 190.73 82.32 188.07 71.27 197.99 64.56 231.41 82.83 228.01 92.65 217.16 98.27 231.95 127.66 247.14 125.97 247.78 115.69 258.36 102.47 266.58 102.11 279.51 114.81 284.27 150.15 275.5 164.44 260.08 165.16 250.01 152.1 236.06 153.54 233.94 182.04 218.98 209.55 228.03 216.24 245.85 218.1 253.97 226.79 245.59 254.15 219.66 263.52 206.08 253.49 206.31 234.04 203.31 225.72 169.67 238.21 133.25 237.99 130.66 245.27 144.9 258.64 143.13 269.95 130.09 277.65 91.01 265.69 86.73 252.48 94.35 242.22 110.89 240.23 113.23 232.03 90.25 211.75 75.12 184.05 61.72 186.05 60.47 201.19 48.03 205.87 38.6 203.45 28.76 160.97 37.04 153.57 47.65 153.57 57.42 164.47 71.98 162.89 75.64 130.07 70.95 128.12 63.32 134.7 50.03 129.84 48.77 119.67 64.64 89.42 75.48 86.3 83.78 93.13 82.99 106.58 88.03 108.84 107.13 89.96 129.28 76.47 129.3 66.21 111.22 60.76 110.42 42.87"/></g></g></svg>