<?xml version="1.0" encoding="utf-8"?>
<!-- Generator: Adobe Illustrator 25.2.0, SVG Export Plug-In . SVG Version: 6.00 Build 0)  -->
<svg version="1.1" id="Layer_1" xmlns="http://www.w3.org/2000/svg" xmlns:xlink="http://www.w3.org/1999/xlink" x="0px" y="0px"
	 viewBox="0 0 314.5 314" style="enable-background:new 0 0 314.5 314;" xml:space="preserve">
<style type="text/css">
	.st0{fill:none;}
	.st1{fill:#231F20;}
</style>
<g id="Layer_2_1_">
	<g id="Layer_1-2">
		<g id="a3d891e3-d1a8-45d9-8bb4-c816c9df960b">
			<g id="aab71d7e-7bf8-4474-9c42-a9921f90853b">
				<line class="st0" x1="0" y1="0" x2="314.5" y2="0"/>
				<line class="st0" x1="314.5" y1="314.1" x2="0" y2="314.1"/>
			</g>
		</g>
	</g>
</g>
<g>
	<polygon class="st1" points="82.7,189.2 128,228.4 181.9,219.9 150,196.8 132.2,116.3 172.9,70.2 131.3,74.3 92.3,0 28,0 110,82.1 
		96.4,97.4 0,50.7 0,59 93.1,101.2 89.5,105.2 0,69.3 0,104.2 78.2,123.1 	"/>
	<path class="st1" d="M270.8,201.9l-22.6-20.2l6-2.2l-11.3-9.4l71.6-19.4L256.4,138l10.1-10.5l-10.1-3.6l30.1-13.5h-56l84-88.3
		l-98.2,60.5l20.6-42.2l-33,20.8L250.3,0h-13.4l-52.3,73.3l25.6,12.1l33.2,57.4l-9.9,47.5L224,185l12.9-39.5l-28.6-48.3l-16.6-9
		c-1.2,0-39.3,23.2-39.3,23.2l3.2,64.9l34.1,39.7l28-11.6l6.1,5.9l-19.8,15.9l-80.1,10.1l-47.1-46.7l-4-67.4l-9.8-8l-26.3,13.7
		l32,15L16,157.1l50.9,18.4L0,200.3V216l66.9-30.1l-9.6,18.4l5.8,5.1l-17,36.3l51.7-28.2l-51.4,96.5l72.4-73.4l-7.6,50.8l23.7-40.5
		l7.2,9.7l10.5-21.6l27.9,19.8l6.1-11.4l41.4,42.1l-14.5-53.2l13.5,5.4l-0.4-10.7l23.9,22.8l-15.1-36.9l79.3,64.4v-44.9l-65.7-37.3
		L270.8,201.9z"/>
</g>
<polyline class="st1" points="173.3,64.1 165.7,3.1 148.5,49.3 141.1,39.8 137,47.6 129.4,21.3 122.9,67.3 "/>
</svg>
