<?xml version="1.0" encoding="utf-8"?>
<!-- Generator: Adobe Illustrator 25.2.0, SVG Export Plug-In . SVG Version: 6.00 Build 0)  -->
<svg version="1.1" id="Layer_1" xmlns="http://www.w3.org/2000/svg" xmlns:xlink="http://www.w3.org/1999/xlink" x="0px" y="0px"
	 viewBox="0 0 314.5 314" style="enable-background:new 0 0 314.5 314;" xml:space="preserve">
<style type="text/css">
	.st0{fill:none;}
	.st1{fill:#231F20;}
</style>
<g id="Layer_2_1_">
	<g id="Layer_1-2">
		<g id="a3d891e3-d1a8-45d9-8bb4-c816c9df960b">
			<g id="aab71d7e-7bf8-4474-9c42-a9921f90853b">
				<line class="st0" x1="0" y1="0" x2="314.5" y2="0"/>
				<line class="st0" x1="314.5" y1="314" x2="0" y2="314"/>
			</g>
		</g>
	</g>
</g>
<path class="st1" d="M260.9,204.9l12.8-12.6L243,161.2l21.6-17.9l-23.6-27.6l-5.1,4.3l-23.7-27.6l-4.9,4.1l-19.8-23.1l9.9-13.5
	l-32.2-24.9L145.3,62L107,23.2L94.3,35.8l0.2,0.2L50.4,79.4l0,0l-0.5,0.5L85,115.6l-16.9,41L7.3,186.7v119.1h111.9l30.9-62
	l19.1-10.4l14.5-17.7l32.7,33.2l12.8-12.6l-0.3-0.3l31.8-31.3L260.9,204.9z M134.5,76.7l-9.3,12.7l22,17l-1.9,1.6l-49.1-6.5
	l-21-21.3L107,48.8L134.5,76.7z M216.4,223.4l-68.1-69.1l19.2,2.5l1.6-12.2l17.3,20.1l11.9-9.9l21.8,25.5l9.2-7.6l19,19.3
	L216.4,223.4z"/>
</svg>
