<svg xmlns="http://www.w3.org/2000/svg" viewBox="0 0 314.5 314"><defs><style>.cls-1{fill:none;}.cls-2{fill:#231f20;}</style></defs><g id="Layer_2" data-name="Layer 2"><g id="Layer_1-2" data-name="Layer 1"><g id="a3d891e3-d1a8-45d9-8bb4-c816c9df960b"><g id="aab71d7e-7bf8-4474-9c42-a9921f90853b"><line class="cls-1" x2="314.5"/><line class="cls-1" x1="314.5" y1="314" y2="314"/></g></g></g><g id="pSkill"><g id="hold"><polygon class="cls-2" points="141.57 246.57 55.83 246.57 55.83 67.43 141.57 67.43 141.57 38.05 26.64 38.05 26.57 38.09 26.45 38.23 26.45 275.75 26.57 275.89 26.64 275.95 26.69 275.95 141.57 275.95 141.57 246.57"/><polygon class="cls-2" points="287.99 38.09 287.93 38.05 172.91 38.05 172.91 67.43 258.67 67.43 258.67 246.57 172.91 246.57 172.91 275.95 287.93 275.95 287.99 275.89 288.05 275.82 288.05 38.16 287.99 38.09"/><rect class="cls-2" x="122.25" y="123.08" width="70" height="70" transform="translate(315.34 0.84) rotate(90)"/></g></g></g></svg>