<svg xmlns="http://www.w3.org/2000/svg" viewBox="0 0 314.5 314"><defs><style>.cls-1{fill:none;}.cls-2{fill:#231f20;}</style></defs><g id="Layer_2" data-name="Layer 2"><g id="Layer_1-2" data-name="Layer 1"><g id="a3d891e3-d1a8-45d9-8bb4-c816c9df960b"><g id="aab71d7e-7bf8-4474-9c42-a9921f90853b"><line class="cls-1" x2="314.5"/><line class="cls-1" x1="314.5" y1="314" y2="314"/></g></g></g><g id="pSkill"><g id="spawn"><path class="cls-2" d="M109.75,232.69l-47.5-47.5h-.43l47.56-47.56,47.87-47.87,47.55,47.87,47.88,47.56L204.8,233.06l-47.55,47.55Z"/><polygon class="cls-2" points="270.56 91.45 253.72 108.44 241.46 120.57 253.72 132.8 265.59 144.68 294.67 115.58 270.56 91.45"/><polygon class="cls-2" points="183.39 62.35 183.39 62.49 195.27 74.34 207.51 86.59 219.65 74.34 236.62 57.52 212.49 33.39 183.39 62.35"/><polygon class="cls-2" points="119.39 74.25 131.12 62.49 131.12 62.35 102.14 33.39 78.05 57.38 94.88 74.25 107.11 86.48 119.39 74.25"/><polygon class="cls-2" points="43.96 91.45 19.83 115.46 48.92 144.54 60.66 132.8 73.06 120.57 60.66 108.2 43.96 91.45"/></g></g></g></svg>