<svg xmlns="http://www.w3.org/2000/svg" viewBox="0 0 314.5 314"><defs><style>.cls-1{fill:none;}.cls-2{fill:#231f20;}</style></defs><g id="Layer_2" data-name="Layer 2"><g id="Layer_1-2" data-name="Layer 1"><g id="a3d891e3-d1a8-45d9-8bb4-c816c9df960b"><g id="aab71d7e-7bf8-4474-9c42-a9921f90853b"><line class="cls-1" x2="314.5"/><line class="cls-1" x1="314.5" y1="314" y2="314"/></g></g></g><g id="pSkill"><g id="spin"><polygon class="cls-2" points="273.78 137 253.77 116.98 233.95 97.25 214.02 117.16 214.02 117.25 213.94 117.16 193.92 137.18 174.19 157 213.76 157 214.02 156.72 233.76 137 253.77 157 293.78 157 273.78 137"/><polygon class="cls-2" points="197 213.78 176.99 193.78 157.25 173.94 157.25 213.52 157.52 213.78 177.26 233.52 157.34 253.44 157.34 253.52 157.25 253.52 157.25 293.44 177.26 273.45 197.18 253.52 197.27 253.52 217 233.7 197.09 213.78 197 213.78"/><polygon class="cls-2" points="157.25 139.36 157.25 100.49 156.99 100.24 137.24 80.49 157.25 60.49 157.25 20.56 137.24 40.46 117.24 60.49 97.49 80.3 117.41 100.24 117.5 100.24 117.5 100.32 137.42 120.24 156.91 139.72 157.25 140.08 157.25 139.36"/><polygon class="cls-2" points="100.48 157.26 80.75 176.93 80.75 177.01 60.73 157 20.72 157 20.8 157.09 40.73 177.01 60.73 197.01 80.21 216.5 100.21 196.48 120.23 176.48 139.62 157 100.73 157 100.48 157.26"/></g></g></g></svg>