<svg xmlns="http://www.w3.org/2000/svg" viewBox="0 0 314.5 314"><defs><style>.cls-1{fill:none;}.cls-2{fill:#231f20;}</style></defs><g id="Layer_2" data-name="Layer 2"><g id="Layer_1-2" data-name="Layer 1"><g id="a3d891e3-d1a8-45d9-8bb4-c816c9df960b"><g id="aab71d7e-7bf8-4474-9c42-a9921f90853b"><line class="cls-1" x2="314.5"/><line class="cls-1" x1="314.5" y1="314" y2="314"/></g></g></g><g id="pSkill"><polygon id="Splash" class="cls-2" points="285.58 223.68 201.03 188.33 193.04 174.37 200.16 159.74 254.03 121.56 259.55 90.1 238.78 65.81 207.92 67.67 163.08 120.83 145.67 123.52 131.53 111.88 105.02 42.04 81.49 31.73 58.94 45.54 54.98 72.67 90.85 120.6 90.58 148.72 72.63 162.94 45.67 163.51 31.33 177.28 33.03 198.16 49.44 209.83 79.97 204.89 95.01 213.13 98.03 230.02 82.67 261.52 85.81 275.98 98.89 282.27 111.69 275.47 130.41 225.75 139.01 221.58 147.77 226.65 154.33 246.22 165.42 253.08 177.58 247.81 181.32 234.54 176.67 224.02 177.3 216.25 184.05 214.91 257.39 275.6 282.13 272.14 294.83 248.74 285.58 223.68"/></g></g></svg>