<svg xmlns="http://www.w3.org/2000/svg" viewBox="0 0 314.5 314"><defs><style>.cls-1{fill:none;}.cls-2{fill:#231f20;}</style></defs><g id="Layer_2" data-name="Layer 2"><g id="Layer_1-2" data-name="Layer 1"><g id="a3d891e3-d1a8-45d9-8bb4-c816c9df960b"><g id="aab71d7e-7bf8-4474-9c42-a9921f90853b"><line class="cls-1" x2="314.5"/><line class="cls-1" x1="314.5" y1="314" y2="314"/></g></g></g><g id="pSkill"><g id="swim"><polygon points="178.13 43.91 176.62 43.91 178.13 45.43 178.13 43.91"/><path class="cls-2" d="M222.06,80.64l-18.89-.71-.07-.07-.08-.07-.7-18.89-30.95-31V91.77h0L35.52,176.44l-10,80.72.14.15.08.08h.08l77.56-2.71,35.9-50.28,35.79-15.2-13.52-14.08-5.67-.21,35.32-63.31H253Z"/><path class="cls-2" d="M270,160.66l-10,1.23,0,0-.05,0-2-9.92-19-13.74,5.25,32.68h0l-64.58,56.27,1.55,43.51.1.06,0,0h0l40.75-8,34.27-83.06L289,174.39Z"/></g></g></g></svg>