<svg xmlns="http://www.w3.org/2000/svg" viewBox="0 0 314.5 314"><defs><style>.cls-1{fill:none;}.cls-2{fill:#231f20;}</style></defs><g id="Layer_2" data-name="Layer 2"><g id="Layer_1-2" data-name="Layer 1"><g id="a3d891e3-d1a8-45d9-8bb4-c816c9df960b"><g id="aab71d7e-7bf8-4474-9c42-a9921f90853b"><line class="cls-1" x2="314.5"/><line class="cls-1" x1="314.5" y1="314" y2="314"/></g></g></g><g id="pSkill"><g id="thorn"><path class="cls-2" d="M276.24,140.57,253,117.36v0l-.06-.06.05-28-.05-28-28-.05H196.89L173.69,38,157.25,21.57,140.81,38l-23.2,23.2H61.47v56.14l.14-.09,0,0v.33l-.1-.28-23.22,23.2L21.83,157l16.38,16.36,23.26,23.27v56.15l.05-.07h56l-.44-.56.5.62,23.2,23.2,16.44,16.44L173.69,276l23.2-23.2.07-.08h0l-.09.09H253V196.64l-.05.06.05-.07h0l23.21-23.2L292.67,157ZM192.1,241H122.51L73.29,191.77v-69.6L122.51,73H192.1l49.21,49.21v69.6Z"/><polygon class="cls-2" points="157.25 119.47 138.42 138.3 119.71 157.01 119.88 157.01 138.56 175.69 157.25 194.54 175.96 175.84 194.79 157.01 175.96 138.3 157.25 119.47"/></g></g></g></svg>