<svg xmlns="http://www.w3.org/2000/svg" width="2000" height="2000" viewBox="0 0 2000 2000"><defs><style>.b8e28bc1-649e-4b16-ba4d-2968d897b3b0{fill:#fff;}</style></defs><g id="a91cf586-9d55-438e-ae5c-117f388e807a" data-name="Layer 2"><g id="f30f8893-ddbf-4160-97c1-a1ebd9feca6a" data-name="Frame"><g id="e375f6c1-4bde-4899-939f-ff15d61ebd9e" data-name="Base"><line class="b8e28bc1-649e-4b16-ba4d-2968d897b3b0" x2="2000"/><line class="b8e28bc1-649e-4b16-ba4d-2968d897b3b0" y1="2000" x2="2000" y2="2000"/></g></g><g id="b1f494cd-b171-49c7-9bde-5317a91ddf64" data-name="1"><path class="b8e28bc1-649e-4b16-ba4d-2968d897b3b0" d="M564.48,1435.92V564.56h871.33v871.36Zm44.17-44.1h783.17v-783H608.65Z"/><path class="b8e28bc1-649e-4b16-ba4d-2968d897b3b0" d="M1194.76,805.93c-.11-2.09-.26-3.72-.26-5.34,0-32.8.09-65.6-.1-98.4,0-4.79,1.28-6.18,6.12-6.15,32.63.2,65.27.1,97.9.1h5.72c.12,2.17.27,3.79.27,5.4,0,32.8-.09,65.6.12,98.4,0,4.86-1.42,6.13-6.19,6.1-32.79-.2-65.59-.11-98.39-.11Z"/><path class="b8e28bc1-649e-4b16-ba4d-2968d897b3b0" d="M696.42,1304c-.1-1.6-.26-3.06-.26-4.52,0-33.29,0-66.59-.08-99.89,0-3.44.61-5.13,4.58-5.12,34,.12,67.92.06,101.89.07,1,0,1.92.19,3.21.33.06,1.49.17,2.78.17,4.06,0,33.47,0,66.93.05,100.4,0,3.32-.42,5.21-4.51,5.19-34-.13-67.93-.07-101.89-.09A25.83,25.83,0,0,1,696.42,1304Z"/></g></g></svg>