<svg xmlns="http://www.w3.org/2000/svg" width="2000" height="2000" viewBox="0 0 2000 2000"><defs><style>.b314d0e3-71f9-4422-bfd9-599f6be84980{fill:#fff;}</style></defs><g id="a471cb56-4c65-4237-aeb1-672e9a632586" data-name="Layer 2"><g id="bf71a66e-f333-45fb-b007-83be2b6ec0f7" data-name="Frame"><g id="b31f5d19-9936-4426-b4fe-243e5c5be24e" data-name="Base"><line class="b314d0e3-71f9-4422-bfd9-599f6be84980" x2="2000"/><line class="b314d0e3-71f9-4422-bfd9-599f6be84980" y1="2000" x2="2000" y2="2000"/></g></g><g id="b1d88e2c-c0f4-4e58-a250-bed23c820d51" data-name="1"><path class="b314d0e3-71f9-4422-bfd9-599f6be84980" d="M564.58,564.5h871.3v871.3H564.58Zm44,827.3h783.16v-783H608.63Z"/><path class="b314d0e3-71f9-4422-bfd9-599f6be84980" d="M696.39,696.41c1.4-.11,2.37-.25,3.34-.25,33.83,0,67.67,0,101.5-.07,3.26,0,4.79.66,4.77,4.38-.12,34.17-.07,68.33-.08,102.5,0,.8-.14,1.6-.24,2.7-1.31.1-2.43.25-3.55.25-33.67,0-67.33,0-101,.07-3.44,0-5.08-.57-5.07-4.6.15-34,.08-68,.1-102C696.16,698.58,696.28,697.76,696.39,696.41Z"/><path class="b314d0e3-71f9-4422-bfd9-599f6be84980" d="M1194.49,805.93v-5.75c0-32.63.09-65.26-.08-97.89,0-4.66,1-6.29,6-6.26,32.8.22,65.6.11,98.39.11h5.33c.1,2.26.26,4,.26,5.81,0,32.63-.08,65.26.11,97.9,0,4.72-1.18,6.23-6.08,6.2-32.8-.22-65.6-.12-98.4-.12Z"/><path class="b314d0e3-71f9-4422-bfd9-599f6be84980" d="M696.4,1304.42c-.12-1.88-.25-3-.25-4.15q0-50.44,0-100.89c0-3.14.41-5,4.24-4.94,34.46.12,68.92.08,103.39.1a15.8,15.8,0,0,1,2.2.41v4.63c0,33-.07,65.93.09,98.9,0,4.41-.9,6.08-5.73,6-33-.2-65.93-.11-98.89-.11Z"/><path class="b314d0e3-71f9-4422-bfd9-599f6be84980" d="M1304.12,1304.43h-30.59c-24.64,0-49.28,0-73.91,0-3.37,0-5.2-.55-5.19-4.58.13-34,.07-67.93.09-101.89a29.57,29.57,0,0,1,.4-3.27c1.75-.08,3.37-.22,5-.22,32.8,0,65.59.08,98.39-.11,4.76,0,6.26,1.27,6.23,6.15-.2,32.8-.11,65.59-.12,98.39C1304.41,1300.56,1304.24,1302.19,1304.12,1304.43Z"/></g></g></svg>