<svg xmlns="http://www.w3.org/2000/svg" width="2000" height="2000" viewBox="0 0 2000 2000"><defs><style>.af6e1979-cce8-4db1-85ed-bcd598372b7a{fill:#fff;}</style></defs><g id="af943050-73fd-4d75-89fb-721d29d64ed7" data-name="Layer 2"><g id="f296ca40-43d7-4b5c-8b10-331cf783a362" data-name="Frame"><g id="ab4b8df4-26af-4f84-a8d7-14d66ccabd2c" data-name="Base"><line class="af6e1979-cce8-4db1-85ed-bcd598372b7a" x2="2000"/><line class="af6e1979-cce8-4db1-85ed-bcd598372b7a" y1="2000" x2="2000" y2="2000"/></g></g><g id="e043d419-4e21-4361-b1ed-0110586d0d20" data-name="1"><path class="af6e1979-cce8-4db1-85ed-bcd598372b7a" d="M564.58,564.5h871.3v871.3H564.58Zm44.07,827.32h783.16v-783H608.65Z"/><path class="af6e1979-cce8-4db1-85ed-bcd598372b7a" d="M696.14,696.38c2.23-.09,3.86-.23,5.48-.23,32.84,0,65.67.08,98.5-.1,4.55,0,6,1.13,5.92,5.81-.2,33-.11,66-.11,99v4.74c-1.81.13-3.25.32-4.69.32-33.17,0-66.34-.06-99.5.1-4.29,0-5.73-1-5.7-5.52.19-33.17.1-66.33.1-99.5Z"/><path class="af6e1979-cce8-4db1-85ed-bcd598372b7a" d="M1194.49,805.93V800.2q0-48.69,0-97.39c0-6.66,0-6.66,6.41-6.66h103.23c.11,2.25.27,4,.27,5.79,0,32.63-.08,65.26.11,97.89,0,4.7-1.12,6.26-6.06,6.23-33-.22-65.93-.12-98.9-.12Z"/><path class="af6e1979-cce8-4db1-85ed-bcd598372b7a" d="M805.93,1194.85c0,35.67,0,70.8-.15,105.92,0,1.22-2.14,3.48-3.28,3.49-34.8.16-69.59.1-104.39.06a7,7,0,0,1-1.71-.54c-.08-1.39-.24-2.85-.24-4.3,0-33.3,0-66.6-.07-99.9,0-3.41.54-5.15,4.54-5.14,34,.12,67.93.06,101.89.07C803.49,1194.51,804.45,1194.7,805.93,1194.85Z"/><path class="af6e1979-cce8-4db1-85ed-bcd598372b7a" d="M696.47,946h109v108.52h-109Z"/><path class="af6e1979-cce8-4db1-85ed-bcd598372b7a" d="M1304.1,1304.43h-5.39c-32.8,0-65.6-.09-98.39.09-4.61,0-5.94-1.31-5.92-5.93.19-32.79.1-65.59.1-98.39v-5.69h5.21q49.44,0,98.88,0c3.52,0,6,.09,5.92,4.89-.17,33.79-.09,67.59-.11,101.38C1304.4,1301.71,1304.25,1302.68,1304.1,1304.43Z"/><path class="af6e1979-cce8-4db1-85ed-bcd598372b7a" d="M1194.83,1054.55V946.16H1304v108.39Z"/></g></g></svg>