<?xml version="1.0" encoding="utf-8"?>
<!-- Generator: Adobe Illustrator 25.2.0, SVG Export Plug-In . SVG Version: 6.00 Build 0)  -->
<svg version="1.1" id="Layer_1" xmlns="http://www.w3.org/2000/svg" xmlns:xlink="http://www.w3.org/1999/xlink" x="0px" y="0px"
	 viewBox="0 0 314.5 314" style="enable-background:new 0 0 314.5 314;" xml:space="preserve">
<style type="text/css">
	.st0{fill:none;}
	.st1{fill:#1D1D1B;}
</style>
<g id="Layer_2_1_">
	<g id="Layer_1-2">
		<g id="a3d891e3-d1a8-45d9-8bb4-c816c9df960b">
			<g id="aab71d7e-7bf8-4474-9c42-a9921f90853b">
				<line class="st0" x1="0" y1="0" x2="314.5" y2="0"/>
				<line class="st0" x1="314.5" y1="314" x2="0" y2="314"/>
			</g>
		</g>
	</g>
</g>
<g>
	<polygon class="st1" points="25.6,258.4 25.6,220 62.7,242.5 62.7,281 	"/>
	<polygon class="st1" points="28.6,213.6 66.2,190.6 103.8,213.6 66.2,236.4 	"/>
	<polygon class="st1" points="106.8,258.4 69.8,280.9 69.7,242.5 106.8,220 	"/>
	<polygon class="st1" points="286.2,84.5 201.7,135.9 163.5,112.7 208.6,85.4 163.2,56.5 201.7,33 	"/>
	<polygon class="st1" points="157.4,107.9 157.4,61.4 194.8,85.3 	"/>
	<polygon class="st1" points="114.5,145 156.5,169.7 156.5,116.9 198.1,142.2 198.2,229.4 114.5,178.4 	"/>
	<polygon class="st1" points="205.4,229.3 205.3,142.2 288.9,91.4 288.9,178.4 	"/>
</g>
</svg>
