<svg xmlns="http://www.w3.org/2000/svg" viewBox="0 0 314.5 314"><defs><style>.cls-1{fill:none;}.cls-2{fill:#231f20;}</style></defs><g id="Layer_2" data-name="Layer 2"><g id="Layer_1-2" data-name="Layer 1"><g id="a3d891e3-d1a8-45d9-8bb4-c816c9df960b"><g id="aab71d7e-7bf8-4474-9c42-a9921f90853b"><line class="cls-1" x2="314.5"/><line class="cls-1" x1="314.5" y1="314" y2="314"/></g></g></g><g id="pSkill"><g id="climb"><polygon class="cls-2" points="185.11 93.75 185.51 94.15 185.92 93.74 185.52 93.75 185.11 93.75"/><path class="cls-2" d="M280.93,93.43,275,56.08,254.13,77H201.31l-4.18-48-1.42-16.4-16.42,1.1-29.23,2-16.92,1.14,1.3,16.9,2.64,34.25L84.44,120.71l-6,6L79.72,135l6.41,43.64-27,27-5.58,5.58.73,7.84,3.59,39,1.28,13.9L35.57,295.52l37.35,5.92v-.13l.07.07ZM159.61,143.79l7.1-7.09,27.75-.07-30.81,30.81ZM71,217.49l33-33-7.64-52,58.1-58.25-3.24-41.93,29.24-2,5.5,63.33h51.43l-4.6,4.6L211.29,119.8l-51.55.12L141.6,138.06,149.1,182l-26.95,26.94L74.58,256.5Z"/></g></g></g></svg>