<svg xmlns="http://www.w3.org/2000/svg" viewBox="0 0 314.5 314"><defs><style>.cls-1{fill:none;}.cls-2{fill:#231f20;}</style></defs><g id="Layer_2" data-name="Layer 2"><g id="Layer_1-2" data-name="Layer 1"><g id="a3d891e3-d1a8-45d9-8bb4-c816c9df960b"><g id="aab71d7e-7bf8-4474-9c42-a9921f90853b"><line class="cls-1" x2="314.5"/><line class="cls-1" x1="314.5" y1="314" y2="314"/></g></g></g><g id="pSkill"><g id="combine"><path class="cls-2" d="M211.61,32.34H102.77l-76.94,77v41h.09l0,0-.11,0v54.49l76.94,76.93h54.48v-.12h.11v.12h54.37l76.94-76.93V109.29Zm49.83,117.9V191L239,213.6l-16,15.88-15.9,16-11.34,11.23H180l-22.77-22.77-22.91,22.77H118.91l-11.38-11.33h-.12l-15.89-15.9L75.63,213.6,53.06,191l-.14-.27.14.13V123l22.57-22.48,15.89-16,16-15.9,11.24-11.35h15.55l22.93,22.79L180,57.27h15.69l11.34,11.35L223,84.52l15.88,15.88L261.44,123Z"/><polygon class="cls-2" points="157.25 156.99 173.24 141.11 157.25 125.09 141.35 141.11 157.25 156.99"/><polygon class="cls-2" points="157.25 188.89 134.66 211.34 157.25 233.94 179.84 211.48 157.25 188.89"/><polygon class="cls-2" points="157.25 188.89 157.25 188.79 173.13 172.89 157.25 156.99 141.35 173.01 157.25 188.89"/><polygon class="cls-2" points="157.25 125.09 179.84 102.64 157.25 80.06 134.66 102.52 157.25 125.09"/></g></g></g></svg>