<svg xmlns="http://www.w3.org/2000/svg" viewBox="0 0 314.5 314"><defs><style>.cls-1{fill:none;}.cls-2{fill:#231f20;}</style></defs><g id="Layer_2" data-name="Layer 2"><g id="Layer_1-2" data-name="Layer 1"><g id="a3d891e3-d1a8-45d9-8bb4-c816c9df960b"><g id="aab71d7e-7bf8-4474-9c42-a9921f90853b"><line class="cls-1" x2="314.5"/><line class="cls-1" x1="314.5" y1="314" y2="314"/></g></g></g><g id="pSkill"><g id="perceptive"><path class="cls-2" d="M157.25,101.37,18.06,192.19,157.25,283l139.19-90.81Zm2.69,30,96.73,60.79L159.94,253l37.15-60.78Zm-5.38,0L117.4,192.19,154.56,253,57.82,192.19Z"/><polygon class="cls-2" points="218.69 59.27 201.6 30.78 177.15 89.64 198.87 103.89 218.69 59.27"/><polygon class="cls-2" points="256.69 110.1 241.84 84.03 224.94 120.61 244.76 133.62 256.69 110.1"/><polygon class="cls-2" points="96.08 59.27 113.18 30.78 137.62 89.64 115.91 103.89 96.08 59.27"/><polygon class="cls-2" points="58.08 110.1 72.93 84.03 89.83 120.61 70.01 133.62 58.08 110.1"/></g></g></g></svg>