<?xml version="1.0" encoding="utf-8"?>
<!-- Generator: Adobe Illustrator 25.2.0, SVG Export Plug-In . SVG Version: 6.00 Build 0)  -->
<svg version="1.1" id="Layer_1" xmlns="http://www.w3.org/2000/svg" xmlns:xlink="http://www.w3.org/1999/xlink" x="0px" y="0px"
	 viewBox="0 0 314.5 314" style="enable-background:new 0 0 314.5 314;" xml:space="preserve">
<style type="text/css">
	.st0{fill:none;}
	.st1{fill:#231F20;}
	.st2{fill:#FFFFFF;}
</style>
<g id="Layer_2_1_">
	<g id="Layer_1-2">
		<g id="a3d891e3-d1a8-45d9-8bb4-c816c9df960b">
			<g id="aab71d7e-7bf8-4474-9c42-a9921f90853b">
				<line class="st0" x1="0" y1="0" x2="314.5" y2="0"/>
				<line class="st0" x1="314.5" y1="314" x2="0" y2="314"/>
			</g>
		</g>
	</g>
	<g id="pSkill">
		<g id="regenerate">
			<polygon class="st1" points="253.5,113.9 235.3,95.7 217.1,113.9 235.3,132.1 			"/>
			<polygon class="st1" points="196.9,84 178.8,65.8 160.6,84 178.8,102.2 			"/>
			<polygon class="st1" points="154.4,32.4 136.2,14.2 118,32.4 136.2,50.2 			"/>
			<polygon class="st1" points="97.4,132.5 79.2,114.3 61,132.5 79.2,150.7 			"/>
		</g>
	</g>
</g>
<polygon class="st1" points="154.4,187 112.6,145.2 51.9,205.8 154.4,308.4 256.9,205.8 196.2,145.2 "/>
<polygon class="st2" points="78.9,205.8 154.4,281.4 229.9,205.8 "/>
</svg>
