<svg xmlns="http://www.w3.org/2000/svg" viewBox="0 0 314.5 314"><defs><style>.cls-1{fill:none;}.cls-2{fill:#231f20;}</style></defs><g id="Layer_2" data-name="Layer 2"><g id="Layer_1-2" data-name="Layer 1"><g id="a3d891e3-d1a8-45d9-8bb4-c816c9df960b"><g id="aab71d7e-7bf8-4474-9c42-a9921f90853b"><line class="cls-1" x2="314.5"/><line class="cls-1" x1="314.5" y1="314" y2="314"/></g></g></g><g id="pSkill"><g id="regenerate"><path class="cls-2" d="M193.13,173.64V122.19H120.46v51.45H69v72.67h51.45v.35l-.06,51.06.06.06h72.67V246.31h51.45l-.05-72.71ZM120.46,189l15.39-.33V137.58h41.9V189h15.4l36,0,0,21H84.4V189Z"/><polygon class="cls-2" points="253.47 113.92 235.28 95.73 217.09 113.92 235.28 132.11 253.47 113.92"/><polygon class="cls-2" points="196.95 83.99 178.77 65.79 160.56 83.99 178.77 102.19 196.95 83.99"/><polygon class="cls-2" points="154.4 32.42 136.21 14.22 118.01 32.42 136.21 50.17 154.4 32.42"/><polygon class="cls-2" points="97.41 132.53 79.23 114.33 61.03 132.53 79.23 150.73 97.41 132.53"/></g></g></g></svg>