<svg xmlns="http://www.w3.org/2000/svg" viewBox="0 0 314.5 314"><defs><style>.cls-1{fill:none;}.cls-2{fill:#231f20;}</style></defs><g id="Layer_2" data-name="Layer 2"><g id="Layer_1-2" data-name="Layer 1"><g id="a3d891e3-d1a8-45d9-8bb4-c816c9df960b"><g id="aab71d7e-7bf8-4474-9c42-a9921f90853b"><line class="cls-1" x2="314.5"/><line class="cls-1" x1="314.5" y1="314" y2="314"/></g></g></g><g id="pSkill"><g id="split"><polygon class="cls-2" points="264.57 145.6 248.41 129.42 228.95 109.94 209.44 90.45 209.44 109.94 209.44 129.21 209.57 129.33 209.66 129.42 225.84 145.6 228.95 148.71 237.25 157.01 228.95 165.29 225.84 168.42 209.7 184.54 209.57 184.67 209.44 184.79 209.44 204.03 209.44 223.55 228.95 204.03 248.45 184.54 264.57 168.42 276 157.01 264.57 145.6"/><polygon class="cls-2" points="85.54 109.94 85.58 109.99 85.54 109.94 66.04 129.46 49.92 145.6 38.5 157.01 49.88 168.37 66.04 184.54 85.54 204.03 85.58 204.01 85.63 204.03 85.58 204.08 105 223.49 105.05 204.03 105.05 184.79 104.91 184.67 104.79 184.54 93 172.76 93 172.76 88.45 168.2 85.58 165.33 85.58 165.34 77.25 157.01 86.37 147.87 88.67 145.6 104.79 129.46 104.91 129.33 105.05 129.21 105.05 109.94 105.05 90.45 85.58 109.9 85.54 109.94"/><polygon class="cls-2" points="141.72 286.47 157.13 286.47 157.24 286.47 157.36 286.47 172.77 286.47 174.37 223.49 174.37 204.08 174.37 200.92 174.37 184.58 174.37 168.42 174.37 157.03 174.37 145.6 174.37 129.42 174.37 113.08 174.37 109.99 174.37 90.49 174.37 74.33 172.77 27.53 157.36 27.53 157.24 27.53 157.01 27.53 141.72 27.53 141.72 286.47"/></g></g></g></svg>