<svg xmlns="http://www.w3.org/2000/svg" viewBox="0 0 314.5 314"><defs><style>.cls-1{fill:none;}.cls-2{fill:#231f20;}</style></defs><g id="Layer_2" data-name="Layer 2"><g id="Layer_1-2" data-name="Layer 1"><g id="a3d891e3-d1a8-45d9-8bb4-c816c9df960b"><g id="aab71d7e-7bf8-4474-9c42-a9921f90853b"><line class="cls-1" x2="314.5"/><line class="cls-1" x1="314.5" y1="314" y2="314"/></g></g></g><g id="pSkill"><path id="strategy" class="cls-2" d="M253.16,52l19.78,19.79,7.16-7.07V45l-.09-.07L270.13,35l-9.91,9.83H54.34L44.51,35l-9.9,9.83-.06.08-.15.14V64.63l7.22,7.22L61.47,52l14,14V247.86L61.4,261.94,41.55,242.15l-7.15,7.13v19.56l.15.16.06.07h.09l9.74,9.82,9.83-9.82h206l9.91,9.91,9.8-9.91L280,269l.09-.09V249.2l-7.08-7L253.16,262l-14-14.06V66ZM121,226.06l-11-8.21,8.21-10.93,10.94,8.2Zm31.14-36.68L148.61,194l-3.5,4.64-1.3,1.77-10.93-8.2,4.79-6.42,4.83-6.39,10.93,8.21Zm15.84-26h-.06l-4.79,6.38-10.87-8.17,1.28-1.77,3.49-4.65,3.5-4.65,1.34-1.72L172.71,157ZM208,121.81l-9.77,9.77-12.64-12.65-13,13-9.78-9.78,13-13L162.46,95.79,172.24,86l13.37,13.37,14.25-14.25,9.78,9.78-14.25,14.25Z"/></g></g></svg>