<?xml version="1.0" encoding="utf-8"?>
<!-- Generator: Adobe Illustrator 25.2.0, SVG Export Plug-In . SVG Version: 6.00 Build 0)  -->
<svg version="1.1" id="Layer_1" xmlns="http://www.w3.org/2000/svg" xmlns:xlink="http://www.w3.org/1999/xlink" x="0px" y="0px"
	 viewBox="0 0 314.5 314" style="enable-background:new 0 0 314.5 314;" xml:space="preserve">
<style type="text/css">
	.st0{fill:none;}
	.st1{fill:#231F20;}
</style>
<g id="Layer_2_1_">
	<g id="Layer_1-2">
		<g id="a3d891e3-d1a8-45d9-8bb4-c816c9df960b">
			<g id="aab71d7e-7bf8-4474-9c42-a9921f90853b">
				<line class="st0" x1="0" y1="0" x2="314.5" y2="0"/>
				<line class="st0" x1="314.5" y1="314" x2="0" y2="314"/>
			</g>
		</g>
	</g>
</g>
<rect x="149.4" y="27.9" transform="matrix(0.8421 -0.5393 0.5393 0.8421 -12.97 124.3366)" class="st1" width="112.9" height="112.9"/>
<g>
	<g>
		<polygon class="st1" points="68.5,291.7 68.5,268.6 86.1,269.8 86,291.7 		"/>
	</g>
	<g>
		<path class="st1" d="M92.4,232.7l-17-4.6L90,189.6l15.8,7.8L92.4,232.7z M126.3,166.2L112.7,155l28.1-29.4l11.9,12.9L126.3,166.2z
			"/>
	</g>
	<g>
		<path class="st1" d="M182.4,113.8l-10.7-14c6.2-4.7,12.7-9.4,19.3-14l10,14.5C194.7,104.7,188.4,109.2,182.4,113.8z"/>
	</g>
</g>
</svg>
