<svg xmlns="http://www.w3.org/2000/svg" viewBox="0 0 314.5 314"><defs><style>.cls-1{fill:#5400e7;}.cls-2{fill:#231f20;}</style></defs><g id="Layer_2" data-name="Layer 2"><g id="Layer_1-2" data-name="Layer 1"><g id="b5e31b63-280e-4f38-96cb-4ce3912872af"><g id="a7f2af64-ea2b-4d32-adbc-dcaa5fbad56d"><polyline class="cls-1" points="0 0 140.87 0 314.5 0"/><polyline class="cls-1" points="314.5 314 126.12 314 0 314"/></g></g></g><g id="Layer_2-2" data-name="Layer 2"><g id="Five_Senses"><path class="cls-2" d="M157.25,98.84,11.44,194l145.81,95.13L303.06,194Zm2.82,31.46L261.41,194,160.07,257.66,199,194Zm-5.64,0L115.51,194l38.92,63.68L53.09,194Z"/><polygon class="cls-2" points="221.61 54.73 203.71 24.89 178.1 86.55 200.85 101.48 221.61 54.73"/><polygon class="cls-2" points="261.42 107.99 245.87 80.67 228.17 119 248.93 132.62 261.42 107.99"/><polygon class="cls-2" points="93.18 54.73 111.08 24.89 136.69 86.55 113.94 101.48 93.18 54.73"/><polygon class="cls-2" points="53.37 107.99 68.92 80.67 86.62 119 65.86 132.62 53.37 107.99"/></g></g></g></svg>