<svg xmlns="http://www.w3.org/2000/svg" viewBox="0 0 314.5 314"><defs><style>.cls-1{fill:none;}.cls-2{fill:#231f20;}</style></defs><g id="Layer_2" data-name="Layer 2"><g id="Layer_1-2" data-name="Layer 1"><g id="a3d891e3-d1a8-45d9-8bb4-c816c9df960b"><g id="aab71d7e-7bf8-4474-9c42-a9921f90853b"><line class="cls-1" x2="314.5"/><line class="cls-1" x1="314.5" y1="314" y2="314"/></g></g></g><g id="mSkill"><path class="cls-2" d="M272.41,31.56,235.62,68.34H32.4l-.07.07-.13.13v104l109.92,109.9L186,240l12.68,12.66h17.87V234.78l-12.65-12.66L253.5,172.6V86.24l36.8-36.79V31.56ZM158.17,237.4l-15.08,15.08-.2-.38v.56L127.62,237.4,115,224.73l-2.41-2.41-6.5-6.51-6.5-6.49-2.41-2.42L84.47,194.24,69.18,179v-73.7H198.71L186,117.92,170.84,133.2l-2.48,2.4-12.8,12.88-12.67,12.6-8.91,9L125,179l9,9,8.91,8.91,12.67,12.66,12.8,12.8,2.48,2.48Zm58.41-89V179l-15.26,15.28-12.6,12.66-2.47-2.48-12.81-12.8L160.78,179l12.6-12.66,12.87-12.8,2.4-2.47,15.28-15.21,12.65-12.67ZM253.5,68.47l-.06-.06-.05-.07h.11Z"/></g></g></svg>