<?xml version="1.0" encoding="utf-8"?>
<!-- Generator: Adobe Illustrator 25.4.1, SVG Export Plug-In . SVG Version: 6.00 Build 0)  -->
<svg version="1.1" id="Layer_1" xmlns="http://www.w3.org/2000/svg" xmlns:xlink="http://www.w3.org/1999/xlink" x="0px" y="0px"
	 viewBox="0 0 314.5 314" style="enable-background:new 0 0 314.5 314;" xml:space="preserve">
<style type="text/css">
	.st0{fill:#5400E7;}
	.st1{fill:#1D1E1C;}
</style>
<g id="Layer_2_1_">
	<g id="Layer_1-2">
		<g id="aeb185af-abc3-4d29-985e-4961b12019ea">
			<g id="ee7f433f-5fc6-4db4-acb0-45285f089abd">
				<polyline class="st0" points="0,0 140.9,0 314.5,0 				"/>
				<polyline class="st0" points="314.5,314 126.1,314 0,314 				"/>
			</g>
		</g>
	</g>
</g>
<g>
	<path class="st1" d="M292.2,50.7l-16.5-32.4L195.3,62h-76.1L38.8,18.3L22.3,50.7L37,98.3L25.2,120L41.5,197l29.9,19.1l17.8,44.8
		h21.9l42.9-17.4l42.9,17.4H219l17.8-44.8l29.9-19.1L283,120l-7.9-14.4L292.2,50.7z M92.2,158.3l-20.7-34.1l44.6,13.7l8.4,27
		L92.2,158.3z M155.7,218.7L137.1,197h40.2L155.7,218.7z M216.1,158.3l-32.3,6.6l8.4-27l44.6-13.7L216.1,158.3z"/>
	<polygon class="st1" points="113.4,267.1 113.4,279.3 154.1,295.7 194.8,279.3 194.8,267.1 154.1,251.8 	"/>
</g>
</svg>
