<?xml version="1.0" encoding="utf-8"?>
<!-- Generator: Adobe Illustrator 25.4.1, SVG Export Plug-In . SVG Version: 6.00 Build 0)  -->
<svg version="1.1" id="Layer_1" xmlns="http://www.w3.org/2000/svg" xmlns:xlink="http://www.w3.org/1999/xlink" x="0px" y="0px"
	 viewBox="0 0 314.5 314" style="enable-background:new 0 0 314.5 314;" xml:space="preserve">
<style type="text/css">
	.st0{fill:#5400E7;}
</style>
<g id="f30efac4-6fee-409e-b6d5-4a351d677ddd">
	<g id="a9c291ef-0b65-4593-8e5b-761de8c0c2a6">
		<polyline class="st0" points="0,0 140.9,0 314.5,0 		"/>
		<polyline class="st0" points="314.5,314 126.1,314 0,314 		"/>
	</g>
</g>
<path d="M302.9,230.8l11.6-112.5l-87-75l-34.9,26l-35.3-18.4l-35.4,18.4L87,43.3l-87,75l11.6,112.5l90.7-22.4l2.8-22.3l22.9,23.6
	l14.4,72l26.7,14.7l40.8-0.2l29-48.1h-39.6l-5.9,8.1l-6-8.1l-0.1-0.6l0.5-37.9l21.5-23.6l2.7,22.3L302.9,230.8z M112.5,138.6
	l-3.8-16.9l25.3,8l2.1,23.1L112.5,138.6z M202.3,138.6l-23.5,14.1l2.1-23.1l25.3-8L202.3,138.6z"/>
</svg>
