<?xml version="1.0" encoding="utf-8"?>
<!-- Generator: Adobe Illustrator 25.2.0, SVG Export Plug-In . SVG Version: 6.00 Build 0)  -->
<svg version="1.1" id="Layer_1" xmlns="http://www.w3.org/2000/svg" xmlns:xlink="http://www.w3.org/1999/xlink" x="0px" y="0px"
	 viewBox="0 0 314.5 314" style="enable-background:new 0 0 314.5 314;" xml:space="preserve">
<style type="text/css">
	.st0{fill:none;}
</style>
<g id="Layer_2_1_">
	<g id="Layer_1-2">
		<g id="a3d891e3-d1a8-45d9-8bb4-c816c9df960b">
			<g id="aab71d7e-7bf8-4474-9c42-a9921f90853b">
				<line class="st0" x1="0" y1="0" x2="314.5" y2="0"/>
				<line class="st0" x1="314.5" y1="314" x2="0" y2="314"/>
			</g>
		</g>
	</g>
</g>
<path d="M297.9,68.1l-35.7,23l-38.9-46H90.9l-38.9,46l-35.7-23L-0.4,81.5l11,82l27,6.5l45.4,38.4l13.4,34.3l30.8,30.8h59.1l31-30.8
	l13.4-34.3l45.6-38.4l27-6.5l11-82L297.9,68.1z M105,144.8l-22.5-9.1l18.5-14.7l30.7,14.7L105,144.8z M156.7,194.4l-18.9-18.9h37.7
	L156.7,194.4z M208.5,144.8l-26.5-9.1l30.7-14.7l18.5,14.7L208.5,144.8z"/>
</svg>
