<?xml version="1.0" encoding="utf-8"?>
<!-- Generator: Adobe Illustrator 25.4.1, SVG Export Plug-In . SVG Version: 6.00 Build 0)  -->
<svg version="1.1" id="Layer_1" xmlns="http://www.w3.org/2000/svg" xmlns:xlink="http://www.w3.org/1999/xlink" x="0px" y="0px"
	 viewBox="0 0 314.5 314" style="enable-background:new 0 0 314.5 314;" xml:space="preserve">
<style type="text/css">
	.st0{fill:none;}
</style>
<g id="Layer_2_1_">
	<g id="Layer_1-2">
		<g id="a3d891e3-d1a8-45d9-8bb4-c816c9df960b">
			<g id="aab71d7e-7bf8-4474-9c42-a9921f90853b">
				<line class="st0" x1="0" y1="0" x2="314.5" y2="0"/>
				<line class="st0" x1="314.5" y1="314" x2="0" y2="314"/>
			</g>
		</g>
	</g>
	<g id="mSkill">
		<g id="morph">
			<polygon points="223.4,89.7 193.6,119.5 193.6,161.6 223.4,191.4 265.5,191.4 295.3,161.6 295.3,119.5 265.5,89.7 			"/>
			<polygon points="48.9,89.7 19.1,119.5 19.1,161.6 48.8,191.4 91,191.4 120.8,161.6 120.8,119.5 91,89.7 			"/>
			<polygon points="214.5,197.3 183.3,165.4 183.3,117 214.6,86 156.8,49.4 98.9,86 130.2,117 130.2,165.4 99,197.3 124.3,223.2 
				114.2,233.6 141,261.3 141,240.5 141,240.5 172.2,240.5 172.5,240.5 172.5,261.1 199,233.6 189.1,223.4 			"/>
		</g>
	</g>
</g>
</svg>
