<?xml version="1.0" encoding="utf-8"?>
<!-- Generator: Adobe Illustrator 25.2.0, SVG Export Plug-In . SVG Version: 6.00 Build 0)  -->
<svg version="1.1" id="Layer_1" xmlns="http://www.w3.org/2000/svg" xmlns:xlink="http://www.w3.org/1999/xlink" x="0px" y="0px"
	 viewBox="0 0 314.5 314" style="enable-background:new 0 0 314.5 314;" xml:space="preserve">
<style type="text/css">
	.st0{fill:none;}
</style>
<g id="Layer_2_1_">
	<g id="Layer_1-2">
		<g id="a3d891e3-d1a8-45d9-8bb4-c816c9df960b">
			<g id="aab71d7e-7bf8-4474-9c42-a9921f90853b">
				<line class="st0" x1="0" y1="0" x2="314.5" y2="0"/>
				<line class="st0" x1="314.5" y1="314" x2="0" y2="314"/>
			</g>
		</g>
	</g>
</g>
<polygon points="177.3,250.7 242.6,233.2 259.7,169.1 292.1,225.4 314.3,134.1 272.2,122.8 256.7,107.4 277.6,86.6 267,47.2 
	227.7,36.7 206.9,57.5 191.4,42.1 180.2,0 88.9,22.3 145.3,54.4 81,71.6 63.6,136.9 23.1,126.6 22.8,127.4 22.8,127.2 0.2,218.4 
	54.1,184.6 78.1,208.6 68,246.2 105.7,236.1 129.7,260.2 95.8,314 186.9,291.3 186.9,291.3 187.6,291.2 "/>
</svg>
