<?xml version="1.0" encoding="utf-8"?>
<!-- Generator: Adobe Illustrator 25.2.0, SVG Export Plug-In . SVG Version: 6.00 Build 0)  -->
<svg version="1.1" id="Layer_1" xmlns="http://www.w3.org/2000/svg" xmlns:xlink="http://www.w3.org/1999/xlink" x="0px" y="0px"
	 viewBox="0 0 314.5 314" style="enable-background:new 0 0 314.5 314;" xml:space="preserve">
<style type="text/css">
	.st0{fill:#5400E7;}
</style>
<g id="f30efac4-6fee-409e-b6d5-4a351d677ddd">
	<g id="a9c291ef-0b65-4593-8e5b-761de8c0c2a6">
		<polyline class="st0" points="0,0 140.9,0 314.5,0 		"/>
		<polyline class="st0" points="314.5,314 126.1,314 0,314 		"/>
	</g>
</g>
<g>
	<polygon points="308.6,242.6 293.5,226.6 257.4,217.5 257.4,197.6 212.5,153 157.1,153 101.8,153 56.8,197.6 56.8,217.5 21,226.6 
		5.9,242.6 3.2,260.9 15.8,250 30.8,241.4 72.4,239 82.9,249.5 57.1,275.5 52.5,297 59.8,314 64.8,298.2 73.2,283 99.2,265.5 
		157.1,265.5 214.9,265.5 240.9,283 249.2,298.2 254.4,314 261.5,297 257,275.5 231.2,249.6 241.8,239 283.7,241.4 298.7,250 
		311.3,260.9 	"/>
	<g>
		<polygon points="135.9,120.9 121.4,120.9 114.2,133.2 121.4,145.6 135.9,145.6 143.1,133.2 		"/>
		<polygon points="193.1,120.9 178.6,120.9 171.4,133.2 178.6,145.6 193.1,145.6 200.3,133.2 		"/>
	</g>
	<polygon points="46.9,56.4 27.7,139.9 41.8,142.5 72.9,148.8 132.4,50 129.9,38.4 94.9,74.4 	"/>
	<polygon points="54.7,47.1 84.3,58.6 99,21.5 122.6,5.5 83,0.9 	"/>
	<polygon points="246.4,63.7 293.1,131.1 272.3,140.7 247,151.9 177,79.1 176.9,68.6 208.9,88.2 	"/>
	<polygon points="239.3,55 216.6,70.8 196.6,41.5 173.4,32.4 205.9,20.5 	"/>
	<polygon points="90.4,166.8 83.3,145.4 27.7,139.9 72.3,191.8 	"/>
	<polygon points="226,172.1 234.4,149.1 273.3,134.6 293.1,131.1 245.7,201.8 	"/>
</g>
</svg>
