<?xml version="1.0" encoding="utf-8"?>
<!-- Generator: Adobe Illustrator 25.4.1, SVG Export Plug-In . SVG Version: 6.00 Build 0)  -->
<svg version="1.1" id="Layer_1" xmlns="http://www.w3.org/2000/svg" xmlns:xlink="http://www.w3.org/1999/xlink" x="0px" y="0px"
	 viewBox="0 0 314.5 314" style="enable-background:new 0 0 314.5 314;" xml:space="preserve">
<style type="text/css">
	.st0{fill:#5400E7;}
</style>
<g id="f30efac4-6fee-409e-b6d5-4a351d677ddd">
	<g id="a9c291ef-0b65-4593-8e5b-761de8c0c2a6">
		<polyline class="st0" points="0,0 140.9,0 314.5,0 		"/>
		<polyline class="st0" points="314.5,314 126.1,314 0,314 		"/>
	</g>
</g>
<path d="M227,43.2l-69.7-43l-69.7,43L26.8,240.9l130.4,72.9l130.5-72.9L227,43.2z M208.7,212.2l-2.3,44.5l-49,22.2l-49-22.2
	l-2.3-44.5l23-31.9l-27.7,0.7l-19.8-30.8l31.3-26.9l44.8,20.5l44.8-20.5l31.3,26.9l-20.1,30.9l-27.7-0.7L208.7,212.2z"/>
<g>
	<polygon points="105.6,151.6 144.4,151.6 124.8,167.8 	"/>
	<polygon points="208.8,151.6 170,151.6 189.7,167.8 	"/>
</g>
</svg>
