<svg xmlns="http://www.w3.org/2000/svg" viewBox="0 0 314.5 314"><defs><style>.cls-1{fill:none;}</style></defs><g id="Layer_2" data-name="Layer 2"><g id="Layer_1-2" data-name="Layer 1"><g id="a3d891e3-d1a8-45d9-8bb4-c816c9df960b"><g id="aab71d7e-7bf8-4474-9c42-a9921f90853b"><line class="cls-1" x2="314.5"/><line class="cls-1" x1="314.5" y1="314" y2="314"/></g></g></g><g id="pSkill"><g id="fast"><polygon points="305.27 129.34 226.15 50.22 113.49 168.59 176.63 263.78 245.4 258.45 222.34 189.49 249.6 169.71 259.15 181.5 274.13 169.85 265.53 158.16 277.83 149.24 287.13 160.17 303.14 147.71 294.65 137.04 305.27 129.34"/><polygon points="142 111.67 45.34 111.67 45.34 140.11 114.93 140.11 142 111.67"/><polygon points="98 178.87 91.1 168.47 9.23 168.47 9.23 196.91 109.96 196.91 98 178.87"/><polygon points="120.71 213.1 57.73 213.1 57.73 241.54 139.57 241.54 120.71 213.1"/></g></g></g></svg>