<?xml version="1.0" encoding="utf-8"?>
<!-- Generator: Adobe Illustrator 25.2.0, SVG Export Plug-In . SVG Version: 6.00 Build 0)  -->
<svg version="1.1" id="Layer_1" xmlns="http://www.w3.org/2000/svg" xmlns:xlink="http://www.w3.org/1999/xlink" x="0px" y="0px"
	 viewBox="0 0 314.5 314" style="enable-background:new 0 0 314.5 314;" xml:space="preserve">
<style type="text/css">
	.st0{fill:none;}
	.st1{fill:#9E45FF;}
	.st2{fill:#231F20;}
	.st3{fill:#FFFFFF;}
	.st4{fill:none;stroke:#000000;stroke-width:1.5;stroke-miterlimit:10;}
</style>
<g id="a3d891e3-d1a8-45d9-8bb4-c816c9df960b">
	<g id="aab71d7e-7bf8-4474-9c42-a9921f90853b">
		<line class="st0" x1="0" y1="0" x2="314.5" y2="0"/>
		<line class="st0" x1="314.5" y1="314" x2="0" y2="314"/>
	</g>
	<g id="bf9fa360-d2c5-4062-8d77-80d3e0496a64">
		<polygon id="f7cd3e8d-184d-4f48-9bea-01dfd9793ea9" class="st1" points="314.5,132.7 217.2,35.4 157.2,95.3 97.3,35.4 0,132.7 
			157.2,289.9 		"/>
	</g>
</g>
<g>
	<g>
		<polygon class="st2" points="353.7,-160.5 352.1,-164.2 348.1,-164.2 346.3,-160.5 		"/>
		<g>
			<polygon class="st2" points="358,-150.6 341.6,-150.6 339.2,-146.1 360.2,-146.1 			"/>
		</g>
	</g>
	<polygon class="st2" points="356.6,-153.9 354.6,-158.1 345.1,-158.1 342.9,-153.9 	"/>
</g>
<g>
	
		<rect x="350.4" y="-128.1" transform="matrix(0.7071 -0.7071 0.7071 0.7071 192.6154 211.564)" class="st2" width="2.7" height="2.7"/>
	<path class="st2" d="M359.3-107.1v-17.3l-1.6-1.6l-6,6l0,0v0h0l0,0l-6-6l-1.6,1.6v8.9l-2.9,2.9l2.1,2.1l-3.3,3.3H359.3z
		 M345.8-120.4l1.6,1.7l-1.6,1.6V-120.4z"/>
</g>
<g>
	<path class="st2" d="M479.1-164.2h-0.6h-2.7h-2.7h-0.6h-0.5h-1.1h-1.6l0,0l0,0v1.6v1.1v0.5v0.5v2.7v2.7l0.6,0.6l0,0l1.3,1.3
		l1.4,1.4l1.1,1.1l0.8,0.8l0.8,0.8l1.1,1.1l1.4,1.4l1.3,1.3h0.7v-19H479.1z M479.1-157.8L479.1-157.8l-2,0h-0.4h-1v1v0.4v2l0,0l1,1
		l0.7,0.7l0.7,0.7l1,1v3.2l-1.3-1.3l-1.1-1.1l-0.2-0.2l-0.6-0.6l-0.6-0.6l-0.2-0.2L474-153l-1.4-1.4v0v-2.7v-2.2v-1.6h1.6h2.2h2.7
		V-157.8z"/>
	<path class="st2" d="M482.4-164.2v19h0.7l1.3-1.3l1.4-1.4l1.1-1.1l0.8-0.8l0.8-0.8l1.1-1.1l1.4-1.4l1.3-1.3l0,0l0.6-0.6v-2.7v-2.7
		v-0.5v-0.5v-1.1v-1.6l0,0l0,0h-1.6h-1.1h-0.5h-0.6h-2.7h-2.7h-0.6H482.4z M483.1-160.9h2.7h2.2h1.6v1.6v2.2v2.7v0l-1.4,1.4
		l-1.1,1.1l-0.2,0.2l-0.6,0.6l-0.6,0.6l-0.2,0.2l-1.1,1.1l-1.3,1.3v-3.2l1-1l0.7-0.7l0.7-0.7l1-1l0,0v-2v-0.4v-1h-1h-0.4h-2l0,0
		V-160.9z"/>
</g>
<g>
	<g>
		<path class="st2" d="M488.1-123.9l1.2-1.2l1.7,1.7l0.6-0.6v-1.7l0,0l-0.8-0.8l-0.8,0.8h-17.5l-0.8-0.8l-0.8,0.8l0,0l0,0v1.7
			l0.6,0.6l1.7-1.7l1.2,1.2v15.5l-1.2,1.2l-1.7-1.7l-0.6,0.6v1.7l0,0l0,0h0l0.8,0.8l0.8-0.8h17.5l0.8,0.8l0.8-0.8l0,0l0,0v-1.7
			l-0.6-0.6l-1.7,1.7l-1.2-1.2V-123.9z"/>
	</g>
	<path class="st3" d="M484.4-120.3l1.2-1.2l-0.8-0.8l-1.2,1.2l-1.1-1.1l-0.8,0.8l1.1,1.1l-1.1,1.1l0.8,0.8l1.1-1.1l1.1,1.1l0.8-0.8
		L484.4-120.3z"/>
	<polygon class="st3" points="481.4,-116.7 481.1,-116.3 480.8,-115.9 480.7,-115.8 481.6,-115.1 482,-115.6 482,-115.6 
		482.4,-116.2 481.5,-116.9 	"/>
	<rect x="477.3" y="-111.7" transform="matrix(0.6 -0.8 0.8 0.6 280.0794 337.89)" class="st3" width="1.2" height="1.2"/>
	<polygon class="st3" points="480.1,-112.6 480.4,-113 480.7,-113.4 480.8,-113.6 479.9,-114.3 479.5,-113.7 479,-113.2 480,-112.5 
			"/>
</g>
<g>
	<g>
		<g>
			<text transform="matrix(0.9997 0 0 1 85.6228 -181.5858)" class="st2" style="font-family:'HeadlinerNo.45'; font-size:11px;">cost 2</text>
		</g>
		<polyline class="st4" points="-92.7,-82.9 -92.6,-180.6 75.9,-180.6 75.9,-195 117.9,-195 117.9,-82.9 		"/>
	</g>
</g>
<g>
	<g>
		<g>
			<text transform="matrix(0.9997 0 0 1 -124.0398 -181.586)" class="st2" style="font-family:'HeadlinerNo.45'; font-size:11px;">cost 1</text>
		</g>
		<polyline class="st4" points="-303.2,-82.9 -303,-180.6 -134.6,-180.6 -134.6,-195 -92.6,-195 -92.6,-82.9 		"/>
	</g>
</g>
<g>
	<g>
		<g>
			<text transform="matrix(0.9997 0 0 1 296.0677 -181.5858)" class="st2" style="font-family:'HeadlinerNo.45'; font-size:11px;">cost 3</text>
		</g>
		<polyline class="st4" points="117.8,-82.9 117.9,-180.6 286.4,-180.6 286.4,-195 328.4,-195 328.4,-82.9 		"/>
	</g>
</g>
<g>
	<g>
		<g>
			<text transform="matrix(0.9997 0 0 1 506.2722 -181.586)" class="st2" style="font-family:'HeadlinerNo.45'; font-size:11px;">cost 4</text>
		</g>
		<polyline class="st4" points="328.4,-82.9 328.5,-180.6 496.8,-180.6 496.8,-195 538.7,-195 538.7,-82.9 		"/>
	</g>
</g>
<g>
	<g>
		<polygon points="-278,-167 -278.1,-167 -278,-166.9 		"/>
	</g>
	<path class="st2" d="M-273.6-163.4l-1.9-0.1l0,0l0,0l-0.1-1.9l-3.1-3.1v6.2h0l-13.5,8.4l-1,8l0,0l0,0h0l7.7-0.3l3.6-5l3.6-1.5
		l-1.3-1.4l-0.6,0l3.5-6.3h6.2L-273.6-163.4z M-278.6-162.3"/>
	<path class="st2" d="M-268.8-155.4l-1,0.1l0,0l0,0l-0.2-1l-1.9-1.4l0.5,3.3l0,0l-6.4,5.6l0.2,4.3l0,0l0,0l0,0l4.1-0.8l3.4-8.3
		l3.3-0.5L-268.8-155.4z M-271.4-154.4"/>
</g>
<text transform="matrix(1 0 0 1 -288.8578 -135.2543)" class="st2" style="font-family:'Calibri'; font-size:8px;">Swim</text>
<g>
	<g>
		<text transform="matrix(1 0 0 1 -290.1099 -96.3952)" class="st2" style="font-family:'Calibri'; font-size:8px;">Range</text>
	</g>
</g>
<g>
	<g>
		<polygon class="st2" points="178.8,-111.1 185.2,-116 186.4,-119.6 183.3,-122.3 178.8,-118.1 178.8,-118.1 174.3,-122.3 
			174.3,-122.2 171.2,-119.6 172.4,-116.1 		"/>
		<polygon class="st2" points="184.7,-114.4 178.8,-109.5 173,-114.4 174.9,-108.2 178.8,-103.7 182.7,-108.2 182.7,-108.2 		"/>
		<g>
			<path class="st2" d="M178.8-119.7l5-5l-5-5l-5,5L178.8-119.7z M178.8-123.9L178.8-123.9L178.8-123.9L178.8-123.9L178.8-123.9
				L178.8-123.9z"/>
		</g>
	</g>
	<text transform="matrix(1 0 0 1 169.0347 -96.395)" class="st2" style="font-family:'Calibri'; font-size:8px;">Adapt</text>
</g>
<g>
	<polygon class="st2" points="-188.5,-155.7 -190.3,-153.9 -190.3,-153.9 -188.5,-152.1 -188.5,-152.1 -188.5,-152.1 -188.5,-152.1 
		-186.7,-153.9 -184.9,-155.7 -188.5,-155.7 	"/>
	<polygon class="st2" points="-192.2,-155.7 -195.9,-155.7 -195.9,-155.7 -194,-153.9 -192.2,-152.1 -190.4,-150.3 -188.5,-152.1 
		-190.3,-153.9 	"/>
	<polygon class="st2" points="-183.1,-147.6 -186.6,-147.6 -187.6,-147.6 -188.5,-147.6 -189.9,-147.6 -191.3,-147.6 -192.2,-147.6 
		-193.2,-147.6 -196.7,-147.6 -199,-147.6 -196.7,-145.3 -196.7,-145.3 -196.7,-145.3 -193.2,-145.3 -191.3,-145.3 -189.9,-145.3 
		-189.9,-145.3 -189.9,-145.3 -188.5,-145.3 -186.6,-145.3 -183.1,-145.3 -180.8,-147.6 	"/>
	<polygon class="st2" points="-187,-164.1 -190.3,-160.8 -193.6,-164.1 -197.5,-164.1 -190.4,-157 -183.3,-164.1 	"/>
</g>
<text transform="matrix(1 0 0 1 -195.6697 -135.2543)" class="st2" style="font-family:'Calibri'; font-size:8px;">Dig</text>
<g>
	<text transform="matrix(1 0 0 1 -79.3845 -135.2543)" class="st2" style="font-family:'Calibri'; font-size:8px;">Spin</text>
	<g>
		<polygon class="st2" points="-62.2,-158.4 -63.9,-160.1 -65.6,-161.8 -67.3,-160.1 -67.3,-160.1 -67.3,-160.1 -69,-158.4 
			-70.6,-156.8 -67.3,-156.8 -67.3,-156.8 -65.6,-158.4 -63.9,-156.8 -60.6,-156.8 		"/>
		<polygon class="st2" points="-68.7,-152 -70.4,-153.7 -72.1,-155.3 -72.1,-152 -72.1,-152 -70.4,-150.3 -72.1,-148.6 
			-72.1,-148.6 -72.1,-148.6 -72.1,-145.2 -70.4,-146.9 -68.7,-148.6 -68.7,-148.6 -67,-150.3 -68.7,-152 		"/>
		<polygon class="st2" points="-72.1,-158.2 -72.1,-161.5 -72.1,-161.5 -73.8,-163.2 -72.1,-164.9 -72.1,-168.3 -73.8,-166.6 
			-75.5,-164.9 -77.1,-163.2 -75.4,-161.5 -75.4,-161.5 -75.4,-161.5 -73.8,-159.9 -72.1,-158.2 -72.1,-158.2 		"/>
		<polygon class="st2" points="-76.9,-156.7 -78.5,-155.1 -78.5,-155.1 -76.9,-153.4 -76.9,-153.4 -76.9,-153.4 -76.9,-153.5 
			-75.2,-155.1 -73.6,-156.8 -76.8,-156.8 		"/>
		<polygon class="st2" points="-80.2,-156.8 -83.6,-156.8 -83.6,-156.7 -81.9,-155.1 -80.2,-153.4 -78.6,-151.7 -76.9,-153.4 
			-78.5,-155.1 		"/>
	</g>
</g>
<g>
	<g>
		<polygon class="st2" points="139.6,-157.5 137.4,-157.5 137.4,-157.5 137.4,-157.5 137.4,-157.5 135.2,-157.5 134.8,-157.5 
			133.6,-157.5 133.6,-156.3 133.6,-155.9 133.6,-153.7 133.6,-153.7 134.7,-152.6 135.5,-151.8 136.3,-151 137.4,-149.9 
			138.5,-151 139.3,-151.8 140.1,-152.6 141.2,-153.7 141.2,-153.7 141.2,-155.9 141.2,-156.3 141.2,-157.5 140.1,-157.5 		"/>
		<path class="st2" d="M148.3-164.5L148.3-164.5l-1.7,0h-1.3H144h-7.2h-3h-3h-0.6h-0.6h-1.3h-1.7l0,0l0,0v1.7v1.3v0.6v0.6v3v3
			l0.6,0.6l0,0l1.5,1.5l1.5,1.5l1.2,1.2l0.9,0.9l0.9,0.9l1.2,1.2l1.5,1.5l1.5,1.5v0l1.5-1.5l1.5-1.5h0l1.2-1.2l0.9-0.9h0l0.9-0.9
			l1.2-1.2l1.5-1.5l1.5-1.5l0.6-0.6v-3v-3v-0.6v-0.6v-1.3L148.3-164.5L148.3-164.5z M144.7-153.6l-1.5,1.5l-1.2,1.2l-0.2,0.2
			L141-150l-0.6,0.6l-0.2,0.2l-1.2,1.2l-1.5,1.5v0h0l-1.5-1.5l-1.2-1.2l-0.2-0.2l-0.6-0.6l-0.6-0.6l-0.2-0.2l-1.2-1.2l-1.5-1.5v0v-3
			v-2.5v-1.8h1.8h2.5h3h3h2.5h1.8v1.8v2.5V-153.6z"/>
	</g>
	<text transform="matrix(1 0 0 1 122.5109 -135.2541)" class="st2" style="font-family:'Calibri'; font-size:8px;">Resistant</text>
</g>
<g>
	<polygon class="st2" points="11.5,-109.6 13.6,-107.7 15.9,-111.7 17.8,-106.8 24.4,-106.8 21.2,-118.8 19.4,-116.5 16.5,-125.4 
		9.1,-113.8 6.3,-115.2 3.6,-106.8 10.4,-106.8 	"/>
	<text transform="matrix(1 0 0 1 7.8499 -96.395)" class="st2" style="font-family:'Calibri'; font-size:8px;">Fire</text>
</g>
<g>
	<polygon class="st2" points="64.1,-112.1 67.1,-115.2 64.1,-118.2 62.1,-116.3 58.6,-119.8 60.6,-121.7 57.5,-124.7 54.4,-121.7 
		56.3,-119.8 52.8,-116.3 50.9,-118.2 47.8,-115.2 50.9,-112.1 52.8,-114 56.3,-110.5 54.4,-108.6 57.5,-105.5 60.6,-108.6 
		58.6,-110.5 62.1,-114 	"/>
	<text transform="matrix(1 0 0 1 52.7881 -96.395)" class="st2" style="font-family:'Calibri'; font-size:8px;">Ice</text>
</g>
<g>
	<polygon class="st2" points="90.9,-109 93.9,-106.1 101,-106.1 104.1,-109.1 104.1,-113.7 97.5,-124.1 90.9,-113.9 	"/>
	<text transform="matrix(1 0 0 1 86.6118 -96.395)" class="st2" style="font-family:'Calibri'; font-size:8px;">Poison</text>
</g>
<g>
	<g>
		<polygon class="st2" points="-31.1,-119.3 -27.8,-122.5 -27.8,-126.8 -27.8,-126.8 -27.8,-126.8 -38.9,-116.2 -27.8,-116.2 
			-27.8,-116.2 -27.8,-116.2 -27.8,-116.1 -27.8,-116.2 -34.3,-109.9 -34.3,-105.4 -34.3,-105.4 -34.3,-105.4 -20,-119.3 		"/>
	</g>
	<text transform="matrix(1 0 0 1 -41.3469 -96.395)" class="st2" style="font-family:'Calibri'; font-size:8px;">Electric</text>
</g>
<g>
	<polygon class="st2" points="-70.1,-120.5 -70.1,-126.9 -74.1,-126.9 -74.1,-120.5 -80.1,-120.5 -80.1,-116.6 -74.1,-116.6 
		-74.1,-106.3 -74.1,-106.3 -70.1,-106.3 -70.1,-116.6 -64,-116.6 -64,-116.6 -64,-120.5 	"/>
	<g>
		<text transform="matrix(1 0 0 1 -79.4094 -96.395)" class="st2" style="font-family:'Calibri'; font-size:8px;">Holy</text>
	</g>
</g>
<g>
	<g>
		<path class="st2" d="M-104.4-154.6v-4h0l-6.5-6.5h-3.4l-7.9,7.9v9.7l0,0l0,0l4.1,4.1v-12.7l5.8-5.8l4.8,4.8l0,2.5h-3l4.5,4.5
			l4.3-4.5H-104.4z"/>
	</g>
	<text transform="matrix(1 0 0 1 -122.139 -135.2543)" class="st2" style="font-family:'Calibri'; font-size:8px;">Jump</text>
</g>
<g>
	<text transform="matrix(1 0 0 1 171.147 -135.2543)" class="st2" style="font-family:'Calibri'; font-size:8px;">Fast</text>
	<g>
		<g>
			<rect x="166.6" y="-160.1" width="10.4" height="2.8"/>
			<rect x="163.1" y="-154.6" width="15" height="2.8"/>
			<rect x="167.8" y="-150.3" width="13.3" height="2.8"/>
			<g>
				<polygon points="172,-154.7 184.1,-167.4 193.2,-158.3 184.8,-152.2 187.2,-145.1 178.8,-144.4 				"/>
				<path class="st3" d="M184.1-166.1l7.7,7.7l-8,5.8l2.2,6.7l-6.7,0.5l-6.1-9.2L184.1-166.1 M182.8-167.3l-10.9,11.5l-1,1l0.8,1.2
					l6.1,9.2l8.3,0.3l1.6-2.4l-1.8-5.4l7-5.1l1.7-1.2l-1.5-1.5l-7.7-7.7L182.8-167.3z"/>
			</g>
		</g>
		<polyline points="185.7,-155.3 187.3,-153.3 188.8,-154.5 187.2,-156.6 188.5,-157.2 190,-155.4 191.6,-156.6 189.9,-158.7 		"/>
	</g>
</g>
<g>
	<g>
		<polygon class="st2" points="-230.6,-148.6 -231.6,-149.6 -232.6,-150.6 -234,-152.1 -235.5,-150.6 -236.5,-149.6 -237.5,-148.6 
			-238.9,-147.2 -238.9,-147.2 -229.2,-147.2 -229.2,-147.2 		"/>
		<polygon class="st2" points="-219.2,-157.2 -220.6,-158.6 -221.6,-159.6 -221.6,-159.6 -221.6,-159.7 -222.6,-160.7 -224,-162.1 
			-225.7,-163.8 -227.5,-162.1 -229.9,-159.7 -232.3,-157.2 -234,-158.9 -235.8,-157.2 -238.2,-159.7 -240.6,-162.1 -242.3,-163.8 
			-242.3,-163.8 -244.1,-162.1 -245.5,-160.7 -246.5,-159.7 -246.5,-159.6 -246.5,-159.6 -247.5,-158.6 -248.9,-157.2 
			-250.6,-155.5 -250.6,-152.1 -248.9,-153.8 -247.2,-155.5 -246.5,-156.2 -245.8,-156.9 -244.8,-157.9 -243.8,-158.9 -243,-159.7 
			-242.3,-160.3 -241.6,-159.7 -237.5,-155.5 -235.8,-153.8 -234.1,-152.1 -234,-152.1 -234,-152.1 -232.3,-153.8 -230.6,-155.5 
			-226.4,-159.7 -225.7,-160.4 -225,-159.7 -224.3,-158.9 -223.3,-157.9 -222.3,-156.9 -221.6,-156.2 -220.9,-155.5 -219.2,-153.8 
			-217.4,-152.1 -217.4,-155.5 		"/>
	</g>
	<text transform="matrix(1 0 0 1 -238.4415 -135.2543)" class="st2" style="font-family:'Calibri'; font-size:8px;">Fly</text>
</g>
<g>
	<text transform="matrix(1 0 0 1 380.468 -135.2541)" class="st2" style="font-family:'Calibri'; font-size:8px;">Charm</text>
	<g>
		<path class="st2" d="M402.4-159.1l-1.5-1.5l-1-1l-1-1l-1.5-1.5l-1.8-1.8l-2.5,2.5l-1.8,1.8l-1.8-1.8l-2.5-2.5l-1.8,1.8l-1.5,1.5
			l-1,1h0v0l-1,1l-1.5,1.5l-1.8,1.8l2.5,2.5l1.8,1.8v0h0l1.8,1.8v0l1.5,1.5v0l0.3,0.3v0l0.8,0.8h0l0.8,0.8l0.3,0.3l1.5,1.5l1.8,1.8
			h0l1.8-1.8l1.5-1.5l0.3-0.3l0.8-0.8l0.8-0.8l0.3-0.3l1.5-1.5l1.8-1.8l1.8-1.8l2.5-2.5L402.4-159.1z M398.1-154.8l-1.8,1.8v0v0l0,0
			l-1.5,1.5l-1.1,1l-1,1.1l-1.5,1.5l0,0h0h0l0,0l-1.5-1.5l-1-1l-1-1l-1.5-1.5l0,0v0v0l-1.8-1.8l-1.8-1.8l1.5-1.5l1-1.1l1.1-1
			l1.5-1.5l1.8,1.8l1.8,1.8h0h0l1.8-1.8l1.8-1.8l1.5,1.5l1.1,1l1,1.1l1.5,1.5L398.1-154.8z"/>
		<polygon class="st2" points="394.8,-158.1 394.2,-158.1 392.7,-156.6 391.2,-155.1 389.7,-156.6 388.2,-158.1 387.6,-158.1 
			386.9,-157.3 386.1,-156.6 386.1,-156 387.6,-154.5 389.1,-153 390.2,-152 391.2,-150.9 391.2,-150.9 392.3,-152 393.3,-153 
			394.8,-154.5 396.3,-156 396.3,-156.6 395.5,-157.3 		"/>
	</g>
</g>
<g>
	<g>
		<path class="st2" d="M-149.5-165.4l0.5,5.4l0,0h0l0,0l0,0l4.3,0l-2.2,2.2l-4.4,0l-1.5,1.5l0.6,3.7l-6.3,6.3l-0.3-3.3l2.8-2.8
			l-0.6-4.4l4.9-4.9l-0.3-3.5L-149.5-165.4 M-141.3-161.4l-3.4,0l-3,0l-0.4-4.1l-0.1-1.4l-1.4,0.1l-2.5,0.2l-1.4,0.1l0.1,1.4
			l0.2,2.9l-4.4,4.5l-0.5,0.5l0.1,0.7l0.5,3.7l-2.3,2.3l-0.5,0.5l0.1,0.7l0.3,3.3l0.3,3l2.1-2.1l6.3-6.3l0.5-0.5l-0.1-0.7l-0.5-3
			l0.6-0.6l3.8,0l0.6,0l0.4-0.4l2.2-2.2L-141.3-161.4L-141.3-161.4z"/>
		<g>
			<polygon class="st2" points="-161.7,-143 -158.6,-142.5 -158.6,-142.5 -158.6,-142.5 -141,-160.1 -141.5,-163.2 			"/>
		</g>
	</g>
	<text transform="matrix(1 0 0 1 -161.5859 -135.2543)" class="st2" style="font-family:'Calibri'; font-size:8px;">Climb</text>
	<text transform="matrix(1 0 0 1 -168.8535 -96.3952)" class="st2" style="font-family:'Calibri'; font-size:8px;">Organized</text>
	<path class="st2" d="M-146.6-117.8v-9h-13.2v9h-4.9v10h24v-10H-146.6z M-146.5-116.6v7.6h-6.2v-7.6H-146.5z M-152.5-125.5v7.6h-6
		v-7.6H-152.5z M-157.9-116.6v7.6h-5.5v-7.6H-157.9z"/>
</g>
<g>
	<text transform="matrix(1 0 0 1 257.6302 -135.2543)" class="st2" style="font-family:'Calibri'; font-size:8px;">Strong</text>
	<path class="st2" d="M272.7-160.3l-0.7,0.3l-0.2,0.6l-0.8,2.4l0,0l0,0l0,0l-3.2-0.1l-1.4,2.4l-0.8,2.4l-0.1-0.3l-0.7-1.3l-0.8-1.6
		l1.2-3.7l1.3-0.7l0.9-0.5l1-0.5l1.3-0.7l-1.9-3.9l-0.5-0.2l-0.5-0.2l-1-0.3l-1.4-0.5l0,0l0,0l-6.3,18.8l0,0l1.4,0.5l1,0.3l0.5,0.2
		l0.5,0.2l2.4,0.8l15.7-7.8l1.3-4l0,0L272.7-160.3z"/>
</g>
<g>
	<text transform="matrix(1 0 0 1 301.1174 -135.2543)" class="st2" style="font-family:'Calibri'; font-size:8px;">Smart</text>
	<g>
		<path class="st2" d="M317.7-163h-5.6l-1.5,1.2L309-163h-5.2l-2.7,2.7v6.4l3.2,3.2h3.7l0.8-0.8l0.8,0.8l0,0l2.4,2.4l-1.3,1.3v0h0
			v2.6l2.6-2.6l1.1-1.1l-2.6-2.6l0.8-0.8l0.8,0.8h3.7l3.2-3.2v-6.4L317.7-163z"/>
	</g>
</g>
<g>
	<text transform="matrix(1 0 0 1 -247.4016 -96.3952)" class="st2" style="font-family:'Calibri'; font-size:8px;">Damage</text>
	<polygon class="st2" points="-225,-108.1 -227.5,-110.6 -225.8,-112.2 -225.8,-115.3 -228.1,-113 -231,-115.8 -224.9,-122 
		-224.9,-122 -224.9,-125 -227.9,-125 -227.9,-125 -234,-118.9 -240.1,-125 -240.1,-125 -243.2,-125 -243.2,-122 -243.2,-122 
		-237.1,-115.8 -239.9,-113 -242.2,-115.3 -242.2,-112.2 -240.6,-110.5 -243.1,-108.1 -244.1,-108.1 -244.1,-105.8 -244,-105.8 
		-244,-105.8 -241.9,-105.8 -241.8,-105.8 -241.8,-106.8 -239.4,-109.3 -237.6,-107.6 -234.6,-107.6 -236.9,-109.9 -234,-112.8 
		-231.2,-109.9 -233.5,-107.6 -230.5,-107.6 -228.7,-109.3 -226.3,-106.8 -226.3,-105.8 -226.2,-105.8 -224,-105.8 -224,-105.8 
		-224,-105.8 -224,-105.9 -224,-108 -224,-108.1 	"/>
</g>
<g>
	<text transform="matrix(1 0 0 1 129.7839 -96.3952)" class="st2" style="font-family:'Calibri'; font-size:8px;">Seek</text>
</g>
<text transform="matrix(1 0 0 1 306.3164 -96.3952)" class="st2" style="font-family:'Calibri'; font-size:8px;">Oil</text>
<g>
	<g>
		<path class="st2" d="M95.4-171.9"/>
	</g>
</g>
<g>
	<text transform="matrix(1 0 0 1 335.8741 -135.2543)" class="st2" style="font-family:'Calibri'; font-size:8px;">Teleport</text>
	<text transform="matrix(1 0 0 1 336.2491 -96.3952)" class="st2" style="font-family:'Calibri'; font-size:8px;">Swallow</text>
</g>
<text transform="matrix(1 0 0 1 384.0695 -96.3952)" class="st2" style="font-family:'Calibri'; font-size:8px;">Fear</text>
<g>
	<text transform="matrix(1 0 0 1 49.6445 -135.2543)" class="st2" style="font-family:'Calibri'; font-size:8px;">Push</text>
	<g>
		<g>
			<g>
				<path class="st2" d="M52.2-150.1"/>
				<path class="st2" d="M47.5-149.3"/>
			</g>
			<g>
				<polygon class="st2" points="61.9,-146.5 61.9,-151.7 61.9,-151.7 64.3,-154.3 61.9,-156.8 61.9,-156.9 61.9,-156.9 61.9,-162 
					69.2,-154.3 				"/>
				<polygon class="st2" points="55.5,-148 55.5,-152.1 55.6,-152.2 57.5,-154.3 55.5,-156.4 55.5,-156.4 55.5,-156.4 55.5,-160.6 
					61.5,-154.3 				"/>
			</g>
		</g>
		
			<rect x="47.1" y="-157.3" transform="matrix(0.7071 0.7071 -0.7071 0.7071 -94.4313 -80.6064)" class="st2" width="6" height="6"/>
	</g>
</g>
<text transform="matrix(1 0 0 1 467.6097 -96.3952)" class="st2" style="font-family:'Calibri'; font-size:8px;">Strategy</text>
<text transform="matrix(1 0 0 1 262.1069 -96.395)" class="st2" style="font-family:'Calibri'; font-size:8px;">Split</text>
<g>
	<polygon class="st2" points="278.2,-116.8 276.9,-118.1 275.2,-119.8 273.6,-121.4 273.6,-119.8 273.6,-118.2 273.6,-118.2 
		273.6,-118.1 275,-116.8 275.2,-116.5 275.9,-115.8 275.2,-115.1 275,-114.9 273.6,-113.5 273.6,-113.5 273.6,-113.5 273.6,-111.9 
		273.6,-110.2 275.2,-111.9 276.9,-113.5 278.2,-114.9 279.2,-115.8 	"/>
	<polygon class="st2" points="263.2,-119.8 263.2,-119.8 263.2,-119.8 261.6,-118.1 260.2,-116.8 259.2,-115.8 260.2,-114.9 
		261.6,-113.5 263.2,-111.9 263.2,-111.9 263.2,-111.9 263.2,-111.9 264.8,-110.2 264.8,-111.9 264.8,-113.5 264.8,-113.5 
		264.8,-113.5 263.8,-114.5 263.8,-114.5 263.4,-114.9 263.2,-115.1 263.2,-115.1 262.5,-115.8 263.3,-116.6 263.5,-116.8 
		264.8,-118.1 264.8,-118.2 264.8,-118.2 264.8,-119.8 264.8,-121.4 263.2,-119.8 	"/>
	<polygon class="st2" points="267.9,-104.9 269.2,-104.9 269.2,-104.9 269.2,-104.9 270.5,-104.9 270.7,-110.2 270.7,-111.9 
		270.7,-112.1 270.7,-113.5 270.7,-114.9 270.7,-115.8 270.7,-116.8 270.7,-118.1 270.7,-119.5 270.7,-119.8 270.7,-121.4 
		270.7,-122.8 270.5,-126.7 269.2,-126.7 269.2,-126.7 269.2,-126.7 267.9,-126.7 	"/>
</g>
<g>
	<g>
		<path class="st2" d="M515.8-110.8l-3.7-3.7h0l3.7-3.7l3.8-3.8l3.7,3.8l3.8,3.7l-3.8,3.8l-3.7,3.7L515.8-110.8z"/>
	</g>
	<g>
		<text transform="matrix(1 0 0 1 508.7097 -96.3952)" class="st2" style="font-family:'Calibri'; font-size:8px;">Spawn</text>
		<g>
			<polygon class="st2" points="528.4,-121.9 527.1,-120.6 526.2,-119.6 527.1,-118.7 528.1,-117.7 530.3,-120 			"/>
			<polygon class="st2" points="521.6,-124.2 521.6,-124.2 522.5,-123.3 523.5,-122.3 524.4,-123.3 525.8,-124.6 523.9,-126.5 			
				"/>
			<polygon class="st2" points="516.5,-123.3 517.5,-124.2 517.5,-124.2 515.2,-126.5 513.3,-124.6 514.6,-123.3 515.6,-122.3 			
				"/>
			<polygon class="st2" points="510.6,-121.9 508.7,-120 511,-117.7 511.9,-118.7 512.9,-119.6 511.9,-120.6 			"/>
		</g>
	</g>
</g>
<g>
	<text transform="matrix(1 0 0 1 -119.519 -96.395)" class="st2" style="font-family:'Calibri'; font-size:8px;">Hide</text>
	<path class="st2" d="M-106.7-122.7l-5.4,5.4l-5.4-5.4l-7.6,7.6l0,0l7.6,7.6l5.4-5.4l5.4,5.4l7.6-7.6L-106.7-122.7z M-121.2-115.1
		L-121.2-115.1l1.9-1.9l1.6-1.6l0.3,0.3l1.6,1.6l1.6,1.6H-121.2z M-109.8-115.1l1.6-1.6l1.6-1.6l0.3-0.3l1.6,1.6l1.9,1.9H-109.8z"/>
</g>
<g>
	<text transform="matrix(1 0 0 1 -200.4691 -96.3952)" class="st2" style="font-family:'Calibri'; font-size:8px;">Armor</text>
	<g>
		<path class="st2" d="M-181.6-125.8L-181.6-125.8l-16.9,0l0,0l0,0v10.2l8.5,8.5l8.5-8.5L-181.6-125.8L-181.6-125.8z"/>
	</g>
</g>
<polygon class="st2" points="-287.1,-113.4 -289.6,-110.9 -288.3,-109.6 -287,-109.6 -287,-108.3 -285.7,-107 -283.3,-109.4 
	-283.2,-112.2 -273.2,-122.2 -273.2,-121.2 -273.2,-120.8 -272.7,-120.8 -272.7,-120.8 -270.5,-120.8 -270.5,-120.8 -270.5,-126.2 
	-275.9,-126.2 -275.9,-126.2 -275.9,-124 -275.9,-123.5 -275.4,-123.5 -274.5,-123.5 -284.5,-113.5 "/>
<g>
	<text transform="matrix(1 0 0 1 426.9464 -96.3952)" class="st2" style="font-family:'Calibri'; font-size:8px;">Ritual</text>
</g>
<text transform="matrix(1 0 0 1 422.7198 -135.2541)" class="st2" style="font-family:'Calibri'; font-size:8px;">Immune</text>
<path class="st2" d="M448.1-167.2l-3.4,3.4h-18.6l0,0l0,0v9.5l10.1,10.1l4-3.9l1.2,1.2h1.6v-1.6l-1.2-1.2l4.5-4.5v-7.9l3.4-3.4v-1.6
	H448.1z M437.6-148.3l-1.4,1.4l0,0v0v0.1l-1.4-1.4l-1.2-1.2l-0.2-0.2l-0.6-0.6l-0.6-0.6l-0.2-0.2l-1.2-1.2l-1.4-1.4v0v-2.8v-2.3
	v-1.6v0h0h1.6h2.3h2.8h2.8h2.3l-1.2,1.2l-1.4,1.4l-0.2,0.2l-1.2,1.2l-1.2,1.2l-0.8,0.8l-0.8,0.8l0.8,0.8l0.8,0.8l1.2,1.2l1.2,1.2
	l0.2,0.2L437.6-148.3z M443-156.5v2.8l-1.4,1.4l-1.2,1.2l-0.2-0.2l-1.2-1.2l-1.2-1.2l1.2-1.2l1.2-1.2l0.2-0.2l1.4-1.4l1.2-1.2
	V-156.5z M446.3-163.8L446.3-163.8L446.3-163.8L446.3-163.8L446.3-163.8z"/>
<g>
	<text transform="matrix(1 0 0 1 470.6353 -135.2541)" class="st2" style="font-family:'Calibri'; font-size:8px;">Ignore</text>
</g>
<g>
	<g>
		<text transform="matrix(1 0 0 1 89.8832 -135.2536)" class="st2" style="font-family:'Calibri'; font-size:8px;">Hold</text>
	</g>
	<g>
		<g>
			<g>
				<g>
					<path class="st2" d="M104.4-160.8v0.4v4.3v2v0.4v0.4v3.9v0.4v0.4H104H91.4H91h-0.4v-0.4v-0.4v-8.7v-2.3v-0.4H91h0.4h5.2h1.9
						h5.2h0.4H104.4 M106.4-162.8h-1.1h-0.8H104h-0.4h-5.2h-1.9h-5.2H91h-0.4h-0.8h-1.1l0,0l0,0v1.1v0.8v0.4v2.3v8.7v0.4v1.2v1.1
						l0,0l0,0h0h1.1h0.8H91h0.4H104h0.4h0.8h1.1l0,0l0,0v-1.1v-0.8v-0.4v-0.4v-3.9v-0.4v-0.4v-2v-4.3v-0.4v-0.8L106.4-162.8
						L106.4-162.8L106.4-162.8L106.4-162.8z"/>
				</g>
				<path class="st2" d="M102.9-149"/>
				<polyline class="st2" points="104,-157.4 104,-155.7 104,-153.8 104,-151.8 104,-150.2 				"/>
				<path class="st2" d="M102.9-160.5"/>
				<path class="st2" d="M94.1-160.5"/>
				<polyline class="st2" points="91,-150.2 91,-151.8 91,-153.8 91,-153.8 91,-155.7 91,-157.4 				"/>
				<path class="st2" d="M94.1-149"/>
			</g>
		</g>
	</g>
	<rect x="96.4" y="-164.7" class="st3" width="2.1" height="22.2"/>
	
		<rect x="95.1" y="-157.1" transform="matrix(6.756178e-11 1 -1 6.756178e-11 -57.1635 -252.1723)" class="st2" width="4.8" height="4.8"/>
</g>
<g>
	<text transform="matrix(1 0 0 1 -36.6837 -135.2543)" class="st2" style="font-family:'Calibri'; font-size:8px;">Heal</text>
	<g>
		<path class="st2" d="M-27.4-159.8v3.5v1.5l1.5,0l3.5,0l0,4.1h-3.5l-1.5,0v1.5v3.5h-4.1l0-3.5l0-1.5H-33h-3.5v-4.1h3.5l1.5,0v-1.5
			v-3.5H-27.4 M-25.9-161.3H-33v5v0h0h-5v7.1h5h0v0l0,5l0,0h7.1v-5v0h0h5l0-7.1l-5,0v0V-161.3L-25.9-161.3z"/>
		
			<rect x="-23" y="-163.4" transform="matrix(0.7068 -0.7074 0.7074 0.7068 108.344 -62.9027)" class="st2" width="2.5" height="2.5"/>
		
			<rect x="-28.5" y="-166.4" transform="matrix(0.7068 -0.7074 0.7074 0.7068 108.7956 -67.6868)" class="st2" width="2.5" height="2.5"/>
		<polygon class="st2" points="-33.2,-170.2 -31.4,-168.4 -29.7,-170.2 -31.4,-171.9 		"/>
		
			<rect x="-38.3" y="-161.6" transform="matrix(0.7071 -0.7071 0.7071 0.7071 102.5263 -73.1405)" class="st2" width="2.5" height="2.5"/>
		<polygon class="st2" points="-21.7,-152.7 -37,-152.7 -37,-149.5 -32.5,-149.5 -32.5,-145.2 -27.3,-145.2 -27.3,-149.5 
			-21.7,-149.5 		"/>
	</g>
</g>
<g>
	<text transform="matrix(1 0 0 1 7.4995 -135.2543)" class="st2" style="font-family:'Calibri'; font-size:8px;">Pull</text>
	<g>
		<g>
			<g>
				<path class="st2" d="M7.7-150.1"/>
				<path class="st2" d="M3-149.3"/>
			</g>
			<g>
				<polygon class="st2" points="25.8,-146.4 25.8,-151.6 25.8,-151.7 23.3,-154.3 25.8,-156.9 25.8,-156.9 25.8,-156.9 
					25.8,-162.1 18.4,-154.3 				"/>
				<polygon class="st2" points="18,-147.9 18,-152.1 18,-152.2 16,-154.3 18,-156.4 18,-156.4 18,-156.4 18,-160.7 12,-154.3 				
					"/>
			</g>
		</g>
		
			<rect x="3.6" y="-157.3" transform="matrix(0.7071 0.7071 -0.7071 0.7071 -107.1647 -49.8648)" class="st2" width="6" height="6"/>
	</g>
</g>
<g>
	<g>
		<text transform="matrix(1 0 0 1 206.4983 -135.2543)" class="st2" style="font-family:'Calibri'; font-size:8px;">Perceptive</text>
	</g>
	<g>
		<path class="st2" d="M223.8-161.5l-11.9,7.8l11.9,7.8l11.9-7.8L223.8-161.5z M224-158.9l8.3,5.2l-8.3,5.2l3.2-5.2L224-158.9z
			 M223.5-158.9l-3.2,5.2l3.2,5.2l-8.3-5.2L223.5-158.9z"/>
		<g>
			<polygon class="st2" points="229,-165.1 227.6,-167.5 225.5,-162.5 227.3,-161.2 			"/>
			<polygon class="st2" points="232.3,-160.7 231,-162.9 229.5,-159.8 231.2,-158.7 			"/>
		</g>
		<g>
			<polygon class="st2" points="218.5,-165.1 220,-167.5 222.1,-162.5 220.2,-161.2 			"/>
			<polygon class="st2" points="215.3,-160.7 216.5,-162.9 218,-159.8 216.3,-158.7 			"/>
		</g>
	</g>
</g>
<text transform="matrix(1 0 0 1 209.2092 -96.395)" class="st2" style="font-family:'Calibri'; font-size:8px;">Combine</text>
<g>
	<g>
		<path class="st2" d="M227.8-125h-4h-4l-5.7,5.7v3v0h0l0,0l0,0v4l5.7,5.7h4v0h0v0h4h0l5.7-5.7v-4v-3L227.8-125z M231.5-116.3v3
			l-1.7,1.7l-1.2,1.2l-1.2,1.2l-0.8,0.8h-1.7l-1.2-1.2l-1.2,1.2h-0.5h-1.2l-0.8-0.8h0l-1.2-1.2l-1.2-1.2l-1.7-1.7l0,0l0,0v-3v-2
			l1.7-1.7l1.2-1.2l1.2-1.2l0.8-0.8h1.7l1.2,1.2v0l1.2-1.2h1.7l0.8,0.8l1.2,1.2l1.2,1.2l1.7,1.7V-116.3z"/>
	</g>
	<g>
		<polygon class="st2" points="223.8,-115.8 224.9,-117 223.8,-118.2 222.6,-117 		"/>
		<g>
			<polygon class="st2" points="223.8,-113.5 222.1,-111.8 223.8,-110.1 225.4,-111.8 			"/>
			<polygon class="st2" points="223.8,-110.1 221.7,-108.1 223.8,-107.1 225.8,-108.1 			"/>
			<polygon class="st2" points="223.8,-121.5 221.7,-123.6 223.8,-124.6 225.8,-123.6 			"/>
			<polygon class="st2" points="223.8,-113.5 223.8,-113.5 224.9,-114.7 223.8,-115.8 222.6,-114.6 			"/>
			<polygon class="st2" points="223.8,-118.2 225.4,-119.8 223.8,-121.5 222.1,-119.9 			"/>
		</g>
	</g>
</g>
<g>
	<text transform="matrix(1 0 0 1 509.8699 -135.2543)" class="st2" style="font-family:'Calibri'; font-size:8px;">Thorn</text>
	<g>
		<path class="st2" d="M529.7-156.3l-2-2v0l0,0l0-2.4l0-2.4l-2.4,0h-2.4l-2-2l-1.4-1.4l-1.4,1.4l-2,2h-2.4h-2.4v0v2.4v2.4l0,0l0,0v0
			l0,0l-2,2l-1.4,1.4l1.4,1.4l2,2v2.4v2.4l0,0h2.4l2.4,0l0,0l0,0.1l2,2l1.4,1.4l1.4-1.4l2-2l0,0l0,0l0,0h2.4h2.4v-2.4v-2.4l0,0l0,0
			v0l2-2l1.4-1.4L529.7-156.3z M522.5-147.7h-5.9l-4.2-4.2v-5.9l4.2-4.2h5.9l4.2,4.2v5.9L522.5-147.7z"/>
		<polygon class="st2" points="519.5,-158.1 517.9,-156.5 516.3,-154.9 516.3,-154.9 517.9,-153.3 519.5,-151.7 521.1,-153.3 
			522.7,-154.9 521.1,-156.5 		"/>
	</g>
</g>
<g>
	<g>
		<g>
			<path class="st2" d="M435.9-124.9l1.1,2.7l1.1,2.6l2-1.7l3.4,5.2l0.1,0.2c-2.3,0-6.7,0-7.8-0.1l-4.9-1.1L435.9-124.9
				 M436.3-129.2l-8.7,13.4l7.9,1.8c0,0,5.6,0.1,8.1,0.1c0.8,0,1.3,0,1.3,0l1.2-0.9l-0.9-2.3l-4.7-7.3l-1.6,1.4L436.3-129.2
				L436.3-129.2z"/>
		</g>
	</g>
	<polygon class="st2" points="431.4,-108.7 441.2,-108.7 442.3,-105.6 430.3,-105.6 	"/>
	<polygon class="st2" points="447.2,-117.7 425.4,-117.7 427.7,-110.3 431.5,-108.3 441.1,-108.3 445.2,-110.3 	"/>
</g>
<g>
	<polygon class="st2" points="397.2,-122.8 391.2,-128.8 385.2,-122.8 387,-121.1 382.8,-116.9 382.8,-116.9 382.8,-116.9 
		382.8,-106.9 399.6,-106.9 399.6,-116.9 395.4,-121.1 	"/>
	<polygon class="st3" points="394.7,-112.5 393.3,-115.1 393.3,-115.1 393.3,-115.1 392.4,-113.4 391.2,-115.1 390,-113.4 
		389.1,-115.1 389.1,-115.1 389.1,-115.1 387.7,-112.5 386,-115.1 386,-105.6 387,-105.6 391.2,-105.6 395.5,-105.6 396.5,-105.6 
		396.5,-115.1 	"/>
</g>
<polygon class="st2" points="321.2,-110.6 314,-113.6 313.3,-114.8 314,-116 318.5,-119.3 319,-122 317.2,-124 314.6,-123.9 
	310.8,-119.3 309.3,-119.1 308.1,-120.1 305.9,-126 303.9,-126.9 301.9,-125.8 301.6,-123.4 304.7,-119.4 304.6,-117 303.1,-115.8 
	300.8,-115.7 299.6,-114.5 299.7,-112.8 301.1,-111.8 303.7,-112.2 305,-111.5 305.3,-110.1 304,-107.4 304.2,-106.1 305.3,-105.6 
	306.4,-106.2 308,-110.4 308.8,-110.8 309.5,-110.3 310.1,-108.7 311,-108.1 312,-108.5 312.4,-109.7 312,-110.6 312,-111.2 
	312.6,-111.3 318.8,-106.2 320.9,-106.5 322,-108.5 "/>
<g>
	<polygon class="st2" points="138.3,-108.3 133.5,-118.3 130,-115 124,-115 129.8,-120.4 136.3,-120.4 140.9,-110.9 145.2,-115.2 
		142.8,-115.2 150.3,-119.5 151.1,-115.2 148.3,-115.2 141.3,-108.3 	"/>
	<path class="st2" d="M136.2-120.2l4.4,9.2l0.2,0.4l0.3-0.4l3.8-3.8l0.6-0.6h-0.9h-1.3l6.7-3.8l0.7,3.8h-2.5h-0.2l-0.1,0.1l-6.8,6.8
		h-2.9l-4.6-9.6l-0.2-0.4l-0.3,0.3l-3.2,3.1h-5.5l5.4-5H136.2 M136.4-120.6h-6.7l-6.2,5.8h0.8h5.8l3.3-3.2l4.7,9.8h3.3l6.9-6.9h3
		l-0.9-4.8l-8.3,4.8h2.7l-3.8,3.8L136.4-120.6L136.4-120.6z"/>
</g>
</svg>
