<?xml version="1.0" encoding="utf-8"?>
<!-- Generator: Adobe Illustrator 25.4.1, SVG Export Plug-In . SVG Version: 6.00 Build 0)  -->
<svg version="1.1" id="Layer_1" xmlns="http://www.w3.org/2000/svg" xmlns:xlink="http://www.w3.org/1999/xlink" x="0px" y="0px"
	 viewBox="0 0 34 34" style="enable-background:new 0 0 34 34;" xml:space="preserve">
<style type="text/css">
	.st0{fill:#546DFE;}
</style>
<g id="Layer_2_00000118375782363443545580000001501411862605686974_">
	<g id="Layer_1-2">
		<rect x="11.5" y="14.7" transform="matrix(0.7071 -0.7071 0.7071 0.7071 -9.6735 14.671)" class="st0" width="2.8" height="8.6"/>
		
			<rect x="11.9" y="15.6" transform="matrix(0.7071 -0.7071 0.7071 0.7071 -6.4046 18.4507)" class="st0" width="14.3" height="2.8"/>
	</g>
</g>
<path class="st0" d="M17,1.4c8.6,0,15.6,7,15.6,15.6s-7,15.6-15.6,15.6S1.4,25.6,1.4,17S8.4,1.4,17,1.4 M17,0C7.6,0,0,7.6,0,17
	s7.6,17,17,17s17-7.6,17-17S26.4,0,17,0L17,0z"/>
</svg>
