<?xml version="1.0" encoding="utf-8"?>
<!-- Generator: Adobe Illustrator 25.4.1, SVG Export Plug-In . SVG Version: 6.00 Build 0)  -->
<svg version="1.1" id="Layer_1" xmlns="http://www.w3.org/2000/svg" xmlns:xlink="http://www.w3.org/1999/xlink" x="0px" y="0px"
	 viewBox="0 0 336 314" style="enable-background:new 0 0 336 314;" xml:space="preserve">
<style type="text/css">
	.st0{fill:none;}
	.st1{fill:#546DFE;}
</style>
<g id="f9333fea-7dde-44ca-b8aa-c1eed0816d67">
	<g id="b9642ae6-3ba6-4d97-8d28-8bfd0ad93c91">
		<line class="st0" x1="152.9" y1="0" x2="327.4" y2="0"/>
		<line class="st0" x1="327.4" y1="314" x2="152.9" y2="314"/>
	</g>
	<g id="af47e241-3f25-4de1-9900-115dfde56aa9">
		<path id="a7044cdd-10e9-466b-ae18-0135f6ceec78" class="st1" d="M320.9,174.8c-4.6-9.9-11.2-18.7-19.5-25.8
			c-8.1-7.1-20.5-14.3-38-22.2C225.2,109.6,224,98.7,224,97.4c-0.1-3.8,1.4-7.5,4.3-9.9c3.1-2.9,8.2-4.3,15.2-4.3
			c14.6,0,28.1,4.3,41.4,13.1l12.4,8.2L319,47.7l-7.3-5.4c-10.1-7.3-23.4-12.2-40.8-14.8L271.1,0h-62v30.6
			c-13.5,4.2-25.6,12-35,22.5c-11.3,12.1-17.4,28.2-17.3,44.7c-0.1,10.6,2.1,20.9,6.3,30.6c4.2,9.3,10.3,17.4,18.2,23.9
			c7.5,6.3,20.4,13.6,39.6,22.6c20.7,9.5,29.4,16.5,33.1,20.4c4.4,4.8,6.7,9.7,6.7,14.8c0,3.7,0,12.3-26.1,12.3
			c-14.1,0-28.9-5-43.9-14.6l-11.6-7.6l-26,58.2l9.2,5.4c14.4,8.5,30.5,14.1,47.1,16.5V314h61.8v-38c15.7-4.8,28.6-12.7,38.3-23
			c11.8-12.3,18.3-28.6,18.2-45.6C327.7,196.1,325.3,185,320.9,174.8z"/>
	</g>
</g>
</svg>
