<?xml version="1.0" encoding="utf-8"?>
<!-- Generator: Adobe Illustrator 25.4.1, SVG Export Plug-In . SVG Version: 6.00 Build 0)  -->
<svg version="1.1" id="Layer_1" xmlns="http://www.w3.org/2000/svg" xmlns:xlink="http://www.w3.org/1999/xlink" x="0px" y="0px"
	 viewBox="0 0 242.4 314" style="enable-background:new 0 0 242.4 314;" xml:space="preserve">
<style type="text/css">
	.st0{fill:#231F20;}
</style>
<path class="st0" d="M172.5,0l-0.2,27.5l0,4.3l4.3,0.6c16.4,2.5,29,7,38.6,13.9l4.2,3.1l-18.1,47.4l-7.2-4.8
	c-14.2-9.4-28.6-13.9-44.2-13.9c-8.4,0-14.4,1.8-18.5,5.5c-3.9,3.3-6.1,8.3-6,13.7c0,5.6,5.7,17.4,42.3,33.9
	c17.1,7.7,29.2,14.7,36.8,21.4l0,0l0,0c7.7,6.6,13.8,14.7,18.2,24c4.2,9.8,6.4,20.1,6.4,30.6c0.1,15.8-5.9,30.7-16.8,42.1
	c-9.3,9.9-21.5,17.2-36.1,21.6l-3.5,1.1v3.7v38h-51.8v-33.7V276l-4.3-0.6c-16-2.3-31.6-7.8-45.3-15.9l-5.3-3.1l21.8-48.8l6.7,4.4
	l0,0l0,0c16,10.2,31.6,15.4,46.6,15.4c21.2,0,31.1-5.5,31.1-17.3c0-6.3-2.7-12.4-8-18.2l0,0l0,0c-6.2-6.5-18.1-13.9-34.6-21.5
	c-18.9-8.9-31.5-16-38.5-21.9l0,0l0,0c-7.2-5.9-12.9-13.4-16.8-22.1c-4-9.2-6-18.8-5.9-28.5l0,0l0,0c-0.1-15.5,5.6-30.1,16-41.3l0,0
	l0,0c8.8-9.9,20.2-17.1,32.8-21.1l3.5-1.1v-3.7V0H172.5"/>
</svg>
