<svg xmlns="http://www.w3.org/2000/svg" viewBox="0 0 149 146"><defs><style>.cls-1{fill:none;stroke:#f69200;stroke-miterlimit:10;stroke-width:2.5px;}.cls-2{fill:#f69200;}</style></defs><g id="Layer_2" data-name="Layer 2"><g id="Layer_1-2" data-name="Layer 1"><line class="cls-1" y1="1.25" x2="149" y2="1.25"/><line class="cls-1" x1="149" y1="144.75" y2="144.75"/><path class="cls-2" d="M62.88,111.52a1.26,1.26,0,0,1-.94-.43l-26.13-30A1.23,1.23,0,0,1,35.54,80a1.25,1.25,0,0,1,.76-.87l16.64-6.47.56-23.38a1.25,1.25,0,0,1,.4-.89l5.2-4.85a1.22,1.22,0,0,1,1.3-.25l4.8,1.85A1.25,1.25,0,0,1,66,46l1.54,8.46,4.14-4.69L82.19,35a1.27,1.27,0,0,1,1-.53h4.84a1.25,1.25,0,0,1,1.2.89L91,41a1.4,1.4,0,0,1,.05.41l1.84-2.53a1.25,1.25,0,0,1,1-.51h6.77a1.25,1.25,0,0,1,1.23,1l1,4.84a1.25,1.25,0,0,1-.21,1l-5,7,3.09-2.87a1.24,1.24,0,0,1,.85-.34h4.84a1.23,1.23,0,0,1,1.07.61l2.91,4.84a1.25,1.25,0,0,1-.17,1.51l-9.42,9.81L106,63.62a1.27,1.27,0,0,1,1.18.11l5.8,3.87a1.26,1.26,0,0,1,.43,1.61l-2.6,5.18a1.23,1.23,0,0,1-.49.52L92.55,85.21l-17,9.46L63.9,111a1.21,1.21,0,0,1-.95.52Zm-24-30.74,23.93,27.47L73.67,93a1.32,1.32,0,0,1,.41-.37L91.32,83l17.38-10.1,1.94-3.87-4.33-2.89L96.23,70.42a1.25,1.25,0,0,1-1.38-2l12.93-13.48-2-3.42h-3.64L90.6,62.18a1.25,1.25,0,0,1-1.87-1.63l11.54-16.39-.66-3.3H94.5L82.76,57a1.25,1.25,0,0,1-2.11-1.33l7.76-14.45L87.12,37H83.86L73.66,51.31a.76.76,0,0,0-.08.11l-5.89,6.67a1.25,1.25,0,0,1-2.17-.6L63.65,47.18l-3.42-1.32-4.24,4-.57,23.69a1.24,1.24,0,0,1-.79,1.14Z"/></g></g></svg>