<?xml version="1.0" encoding="utf-8"?>
<!-- Generator: Adobe Illustrator 25.4.1, SVG Export Plug-In . SVG Version: 6.00 Build 0)  -->
<svg version="1.1" id="Layer_1" xmlns="http://www.w3.org/2000/svg" xmlns:xlink="http://www.w3.org/1999/xlink" x="0px" y="0px"
	 viewBox="0 0 34 34" style="enable-background:new 0 0 34 34;" xml:space="preserve">
<style type="text/css">
	.st0{fill:#546DFE;}
</style>
<path class="st0" d="M21.7,15.9c-0.7-0.3-1.5-0.5-2.5-0.8V8.6c1.1,0.3,1.9,1,2.3,2h3.9c-0.3-1.6-1.1-3-2.4-4
	c-1.1-0.8-2.4-1.4-3.9-1.7V1.2h-3.9v3.6C13.5,5,12,5.6,10.8,6.6c-1.5,1.3-2.3,2.9-2.3,4.9c0,1.8,0.6,3.2,1.8,4.3
	c1,1,2.7,1.7,4.9,2.3v7.4c-0.7-0.2-1.4-0.5-1.9-0.9c-0.8-0.5-1.3-1.3-1.6-2.2H7.9c0.3,1.9,1.1,3.4,2.4,4.7c1.2,1.1,2.8,1.9,4.9,2.2
	v3.5h3.9v-3.4c1.8-0.2,3.3-0.9,4.6-2c1.6-1.4,2.4-3.2,2.4-5.3c0-1.7-0.4-3-1.3-4C23.9,17.1,22.9,16.4,21.7,15.9z M15.2,14.1
	c-1-0.3-1.7-0.6-2.1-0.9c-0.6-0.4-0.9-1-0.9-1.8c0-0.9,0.4-1.6,1.1-2.2c0.5-0.3,1.1-0.6,1.8-0.7V14.1z M21.1,24.9
	c-0.5,0.4-1.2,0.6-1.9,0.8v-6.5c0.8,0.3,1.5,0.5,1.9,0.8c0.9,0.5,1.3,1.3,1.3,2.4C22.4,23.4,22,24.2,21.1,24.9z"/>
</svg>
