<svg xmlns="http://www.w3.org/2000/svg" width="182.22" height="218.44" viewBox="0 0 182.22 218.44"><defs><style>.ebc557d1-6b6d-469c-a390-ef5a71602747{fill:#fff;}</style></defs><g id="a1e78729-e7c9-46a2-be9a-28dffade3884" data-name="Layer 2"><g id="b7573da9-0154-418c-909d-f0287052ce99" data-name="Layer 1"><path id="b7cc3fe3-e7af-4d80-9858-ffc3e280488e" data-name="Shop" class="ebc557d1-6b6d-469c-a390-ef5a71602747" d="M177.7,96.39,129.72,48,140.91,35.5l-25.52-3.75L143.15,0H41.31L66.75,35.32,4.53,96.39,0,174l42,44.43h94.47l45.77-37Zm-61.49,20H97.83V110l-1.7-1.7h-10l-1.7,1.7v5.17L116.21,134h0v24L104.3,169.86v0H96.44v6.78H85.78v-6.78H77.93v0L66,157.94v-15.7H84.39v6.29l1.7,1.7h10l1.7-1.7v-5.17L66,124.62h0v-24L77.93,88.72v0h7.85V81.9H96.44v6.8h7.86v0l11.91,11.91Z"/></g></g></svg>