<svg xmlns="http://www.w3.org/2000/svg" width="34" height="34" viewBox="0 0 34 34"><defs><style>.be5ebf74-3e10-4782-b378-837945bfca8c{fill:#546dfe;}</style></defs><g id="b957ae9b-46d9-4792-a096-b4b40f2574be" data-name="Layer 2"><g id="f37c4529-c2cb-4bde-921b-53679640bb2b" data-name="Layer 2"><path class="be5ebf74-3e10-4782-b378-837945bfca8c" d="M31,3V31H3V3H31m3-3H0V34H34V0Z"/><path class="be5ebf74-3e10-4782-b378-837945bfca8c" d="M15.16,21.08a4.7,4.7,0,0,1,1.67-3.32c.17-.16.64-.63.84-.81a4.53,4.53,0,0,0,1.91-2.8,2.55,2.55,0,0,0-.55-2.1,3,3,0,0,0-2.35-1,2.63,2.63,0,0,0-2.81,2.62l-2.66-.33a5.22,5.22,0,0,1,5.31-5.29,5.55,5.55,0,0,1,4.62,1.83,6,6,0,0,1,1.33,4.51,5.9,5.9,0,0,1-2.37,4.17c-.17.16-.64.57-.78.72a2.92,2.92,0,0,0-.82,1.77Z"/><rect class="be5ebf74-3e10-4782-b378-837945bfca8c" x="14.97" y="23.64" width="3.72" height="3.72"/></g></g></svg>