<svg xmlns="http://www.w3.org/2000/svg" width="34" height="34" viewBox="0 0 34 34"><defs><style>.fde6ae82-46c7-4003-b13a-914dd89304d8{fill:#546dfe;}</style></defs><g id="fff094ec-bcc0-4aa7-8840-15e1425bff96" data-name="Layer 2"><g id="e4e27023-4607-445d-b0a7-1b54bbf0ca39" data-name="Layer 2"><path class="fde6ae82-46c7-4003-b13a-914dd89304d8" d="M31,3V31H3V3H31m3-3H0V34H34V0Z"/><path class="fde6ae82-46c7-4003-b13a-914dd89304d8" d="M15.53,25.24A7.8,7.8,0,0,1,11.85,24L13,21.34a6.14,6.14,0,0,0,3.51,1.25c1.76,0,2.65-.61,2.65-1.83A2.65,2.65,0,0,0,18.44,19a8.27,8.27,0,0,0-2.57-1.75,12.35,12.35,0,0,1-2.57-1.58,4.12,4.12,0,0,1-1.05-1.49,5,5,0,0,1-.36-1.93,4.24,4.24,0,0,1,1-2.78A4.82,4.82,0,0,1,15.53,7.9V5.8h2.65v2a6,6,0,0,1,3.17,1l-.91,2.6a5.67,5.67,0,0,0-3.35-1.14,2.22,2.22,0,0,0-1.61.56,1.93,1.93,0,0,0-.58,1.42c0,1,1.08,2,3.23,3a10.69,10.69,0,0,1,2.46,1.54,4.72,4.72,0,0,1,1.14,1.63,5.32,5.32,0,0,1,.4,2.08,4.19,4.19,0,0,1-1.05,2.83A5.35,5.35,0,0,1,18.18,25v2.66H15.53Z"/></g></g></svg>