<svg xmlns="http://www.w3.org/2000/svg" viewBox="0 0 314.5 314"><defs><style>.cls-1{fill:#5400e7;}.cls-2{fill:#231f20;}</style></defs><g id="Layer_2" data-name="Layer 2"><g id="Layer_1-2" data-name="Layer 1"><g id="b5e31b63-280e-4f38-96cb-4ce3912872af"><g id="a7f2af64-ea2b-4d32-adbc-dcaa5fbad56d"><polyline class="cls-1" points="0 0 140.87 0 314.5 0"/><polyline class="cls-1" points="314.5 314 126.12 314 0 314"/></g></g></g><g id="Layer_2-2" data-name="Layer 2"><g id="HUNTER"><path class="cls-2" d="M205.27,193.3l-32.05-32.06,121-121-9-9-.21.2H188.57L147.66,72.37v32.87l-15.22,15.22L85.78,73.82H100.4V69l.08-11.58v-.16h-45v45l11.74-.08H72V87.5l46.7,46.7-13.53,13.53H72.31L29.92,190.11v96.35l9,9L159.49,175l32,32.06-.08,25.61,25.87,25.87,13.17-13.16V232.08h13.25l14-14-25-25Zm-34.36-78.45V82l27.3-27.28h54.15V64L164.18,152.2l-15.3-15.31ZM62.79,253.6H53.18V199.74L81.93,171H114.8l20.34-20.34L150.45,166Z"/></g></g></g></svg>