<svg id="Layer_1" data-name="Layer 1" xmlns="http://www.w3.org/2000/svg" viewBox="0 0 32 32"><polygon points="18.42 11.2 17.62 11.2 16.82 11.2 16.02 11.2 15.22 11.2 14.42 11.2 13.62 11.2 12.82 11.2 12.82 12 12.82 12.8 12.82 13.6 12.82 14.4 13.62 14.4 14.42 14.4 15.22 15.2 15.22 14.4 16.02 14.4 16.82 14.4 17.62 14.4 18.42 14.4 19.22 14.4 19.22 13.6 19.22 12.8 19.22 12 19.22 11.2 18.42 11.2" fill="#938c87"/><polygon points="8.02 22.4 8.02 23.2 8.02 24 8.02 24.8 8.02 25.6 8.02 26.4 8.02 27.2 8.82 28 9.62 28.8 9.62 28 9.62 27.2 9.62 26.4 9.62 25.6 9.62 24.8 9.62 24 9.62 23.2 9.62 22.4 8.82 22.4 8.02 22.4" fill="#938c87"/><polygon points="8.02 16 8.02 16.8 8.02 17.6 8.02 18.4 8.02 19.2 8.02 20 8.02 20.8 8.82 21.6 9.62 22.4 9.62 21.6 9.62 20.8 9.62 20 9.62 19.2 9.62 18.4 9.62 17.6 8.82 16.8 8.02 16" fill="#938c87"/><line x2="32" fill="#fff"/><line x1="32" y1="32" y2="32" fill="#fff"/></svg>