<svg id="Layer_1" data-name="Layer 1" xmlns="http://www.w3.org/2000/svg" viewBox="0 0 32 32"><polygon points="25.62 30.4 24.82 29.6 24.02 30.4 23.22 31.2 24.02 31.2 24.82 31.2 25.62 31.2 26.42 31.2 25.62 30.4" fill="#56504f"/><polygon points="24.02 28.8 24.82 28 24.02 27.2 24.02 26.4 24.02 25.6 23.22 24.8 24.02 24.8 24.02 24 24.02 23.2 24.02 22.4 24.02 21.6 24.02 20.8 24.02 20 24.02 19.2 24.02 18.4 24.02 17.6 24.02 16.8 24.02 16 23.22 15.2 22.42 14.4 21.62 13.6 20.82 12.8 20.02 12 19.22 11.2 19.22 12 19.22 12.8 19.22 13.6 19.22 14.4 20.02 15.2 20.82 16 21.62 16.8 22.42 17.6 21.62 18.4 22.42 19.2 22.42 20 22.42 20.8 22.42 21.6 22.42 22.4 22.42 23.2 22.42 24 22.42 24.8 22.42 25.6 22.42 26.4 22.42 27.2 22.42 28 22.42 28.8 21.62 28.8 20.82 28.8 20.02 28.8 19.22 28.8 18.42 28.8 17.62 28.8 16.82 28.8 16.02 28.8 15.22 28.8 14.42 28.8 13.62 28.8 12.82 28.8 12.02 28.8 11.22 28.8 10.42 28.8 9.62 28.8 8.82 28 8.02 27.2 7.22 28 8.02 28.8 8.82 29.6 9.62 30.4 10.42 30.4 11.22 30.4 12.02 30.4 12.82 30.4 13.62 30.4 14.42 30.4 15.22 30.4 16.02 30.4 16.82 30.4 17.62 30.4 18.42 30.4 19.22 30.4 20.02 30.4 20.82 30.4 21.62 30.4 22.42 30.4 23.22 29.6 24.02 28.8" fill="#5b5755"/><rect x="79.63" y="153.73" width="1.13" height="1.13" transform="translate(-149.79 -35.59) rotate(-45)" fill="#56504f"/><rect x="79.63" y="163.33" width="1.13" height="1.13" transform="translate(-156.58 -32.78) rotate(-45)" fill="#56504f"/><polygon points="12.82 25.6 13.62 25.6 14.42 25.6 14.42 24.8 14.42 24 15.22 23.2 16.02 22.4 16.82 23.2 17.62 24 17.62 24.8 17.62 25.6 18.42 25.6 19.22 25.6 19.22 24.8 20.02 24.8 20.02 24 20.02 23.2 19.22 23.2 18.42 23.2 17.62 22.4 16.82 21.6 17.62 20.8 18.42 20 19.22 20 20.02 20 20.02 19.2 20.02 18.4 19.22 18.4 19.22 17.6 18.42 17.6 17.62 17.6 17.62 18.4 17.62 19.2 16.82 20 16.02 20.8 15.22 20 14.42 19.2 14.42 18.4 14.42 17.6 13.62 17.6 12.82 17.6 12.82 18.4 12.02 18.4 12.02 19.2 12.02 20 12.82 20 13.62 20 14.42 20.8 15.22 21.6 14.42 22.4 13.62 23.2 12.82 23.2 12.02 23.2 12.02 24 12.02 24.8 12.82 24.8 12.82 25.6" fill="#56504f"/><polygon points="9.62 22.4 8.82 21.6 8.02 22.4 8.82 22.4 9.62 22.4" fill="#56504f"/><polygon points="8.02 30.4 7.22 31.2 6.42 32 7.22 32 8.02 32 8.82 32 9.62 32 8.82 31.2 8.02 30.4" fill="#56504f"/><polygon points="7.22 29.6 6.42 28.8 5.62 29.6 6.42 29.6 7.22 29.6" fill="#56504f"/><line x2="32" fill="#fff"/><line x1="32" y1="32" y2="32" fill="#fff"/></svg>