<svg id="Layer_1" data-name="Layer 1" xmlns="http://www.w3.org/2000/svg" viewBox="0 0 32 32"><line x2="32" fill="#fff"/><line x1="32" y1="32" y2="32" fill="#fff"/><polygon points="18.39 10.4 17.59 10.4 16.79 10.4 15.99 10.4 15.19 10.4 14.39 10.4 13.59 10.4 12.79 10.4 12.79 11.2 12.79 12 12.79 12.8 12.79 13.6 13.59 13.6 14.39 13.6 15.19 14.4 15.19 13.6 15.99 13.6 16.79 13.6 17.59 13.6 18.39 13.6 19.19 13.6 19.19 12.8 19.19 12 19.19 11.2 19.19 10.4 18.39 10.4" fill="#938c87"/><polygon points="7.99 21.6 7.99 22.4 7.99 23.2 7.99 24 7.99 24.8 7.99 25.6 7.99 26.4 8.79 27.2 9.59 28 9.59 27.2 9.59 26.4 9.59 25.6 9.59 24.8 9.59 24 9.59 23.2 9.59 22.4 9.59 21.6 8.79 21.6 7.99 21.6" fill="#938c87"/><polygon points="7.99 15.2 7.99 16 7.99 16.8 7.99 17.6 7.99 18.4 7.99 19.2 7.99 20 8.79 20.8 9.59 21.6 9.59 20.8 9.59 20 9.59 19.2 9.59 18.4 9.59 17.6 9.59 16.8 8.79 16 7.99 15.2" fill="#938c87"/></svg>