<svg id="Layer_1" data-name="Layer 1" xmlns="http://www.w3.org/2000/svg" viewBox="0 0 32 32"><line x2="32" fill="#fff"/><line x1="32" y1="32" y2="32" fill="#fff"/><polygon points="27.19 28 26.39 28.8 27.19 28.8 27.99 28.8 27.19 28" fill="#827d7a"/><path d="M63.61,153.49l-.8-.8-.8-.8-.8-.8h-4v.8l-.8-.8h-1.6l-.8.8-.8.8-.8.8-.8.8v11.2h12.8v-9.6l-.8-.8.8-.8Zm-1.6,2.4v.8h-1.6l-.8.8-.8.8.8.8.8.8H62v1.6h-.8v.8h-1.6v-1.6l-.8-.8-.8-.8-.8.8-.8.8v1.6h-1.6v-.8H54v-1.6h1.6l.8-.8.8-.8-.8-.8-.8-.8H54v-1.6h.8v-.8h1.6v1.6l.8.8.8.8.8-.8.8-.8v-1.6h1.6v.8H62Zm-4.8,7.2.8-.8.8.8-.8.8Zm1.6-9.6-.8.8-.8-.8.8-.8Z" transform="translate(-42.02 -137.49)" fill="#827d7a"/><polygon points="12.79 31.2 13.59 31.2 14.39 31.2 13.59 30.4 12.79 31.2" fill="#827d7a"/></svg>