<svg viewBox="0 0 32 32" xmlns="http://www.w3.org/2000/svg"><path d="m27.22 28.8-.8.8h.8.8z" fill="#827d7a"/><path d="m85.8 154.29-.8-.8-.8-.8-.8-.8h-4v.8l-.8-.8h-1.6l-.8.8-.8.8-.8.8-.8.8v11.2h12.8v-9.6l-.8-.8.8-.8zm-1.6 2.4v.8h-1.6l-.8.8-.8.8.8.8.8.8h1.6v1.6h-.8v.8h-1.6v-1.6l-.8-.8-.8-.8-.8.8-.8.8v1.6h-1.6v-.8h-.8v-1.6h1.6l.8-.8.8-.8-.8-.8-.8-.8h-1.6v-1.6h.8v-.8h1.6v1.6l.8.8.8.8.8-.8.8-.8v-1.6h1.6v.8h.8zm-4.8 7.2.8-.8.8.8-.8.8zm1.6-9.6-.8.8-.8-.8.8-.8z" fill="#726e6d" transform="translate(-64.18 -137.49)"/><path d="m12.82 32h.8.8l-.8-.8z" fill="#827d7a"/><g fill="#fff"><path d="m0 0h32"/><path d="m32 32h-32"/></g></svg>