<svg id="Layer_1" data-name="Layer 1" xmlns="http://www.w3.org/2000/svg" viewBox="0 0 32 32"><line x2="32" fill="#fff"/><line x1="32" y1="32" y2="32" fill="#fff"/><polygon points="25.59 29.6 24.79 28.8 23.99 29.6 23.19 30.4 23.99 30.4 24.79 30.4 25.59 30.4 26.39 30.4 25.59 29.6" fill="#6d6764"/><polygon points="23.99 28 24.79 27.2 23.99 26.4 23.99 25.6 23.99 24.8 23.19 24 23.99 24 23.99 23.2 23.99 22.4 23.99 21.6 23.99 20.8 23.99 20 23.99 19.2 23.99 18.4 23.99 17.6 23.99 16.8 23.99 16 23.99 15.2 23.19 14.4 22.39 13.6 21.59 12.8 20.79 12 19.99 11.2 19.19 10.4 19.19 11.2 19.19 12 19.19 12.8 19.19 13.6 19.99 14.4 20.79 15.2 21.59 16 22.39 16.8 21.59 17.6 22.39 18.4 22.39 19.2 22.39 20 22.39 20.8 22.39 21.6 22.39 22.4 22.39 23.2 22.39 24 22.39 24.8 22.39 25.6 22.39 26.4 22.39 27.2 22.39 28 21.59 28 20.79 28 19.99 28 19.19 28 18.39 28 17.59 28 16.79 28 15.99 28 15.19 28 14.39 28 13.59 28 12.79 28 11.99 28 11.19 28 10.39 28 9.59 28 8.79 27.2 7.99 26.4 7.19 27.2 7.99 28 8.79 28.8 9.59 29.6 10.39 29.6 11.19 29.6 11.99 29.6 12.79 29.6 13.59 29.6 14.39 29.6 15.19 29.6 15.99 29.6 16.79 29.6 17.59 29.6 18.39 29.6 19.19 29.6 19.99 29.6 20.79 29.6 21.59 29.6 22.39 29.6 23.19 28.8 23.99 28" fill="#6d6764"/><rect x="57.44" y="152.93" width="1.13" height="1.13" transform="translate(-133.56 -51.52) rotate(-45)" fill="#6d6764"/><rect x="57.44" y="162.53" width="1.13" height="1.13" transform="translate(-140.35 -48.71) rotate(-45)" fill="#6d6764"/><polygon points="12.79 24.8 13.59 24.8 14.39 24.8 14.39 24 14.39 23.2 15.19 22.4 15.99 21.6 16.79 22.4 17.59 23.2 17.59 24 17.59 24.8 18.39 24.8 19.19 24.8 19.19 24 19.99 24 19.99 23.2 19.99 22.4 19.19 22.4 18.39 22.4 17.59 21.6 16.79 20.8 17.59 20 18.39 19.2 19.19 19.2 19.99 19.2 19.99 18.4 19.99 17.6 19.19 17.6 19.19 16.8 18.39 16.8 17.59 16.8 17.59 17.6 17.59 18.4 16.79 19.2 15.99 20 15.19 19.2 14.39 18.4 14.39 17.6 14.39 16.8 13.59 16.8 12.79 16.8 12.79 17.6 11.99 17.6 11.99 18.4 11.99 19.2 12.79 19.2 13.59 19.2 14.39 20 15.19 20.8 14.39 21.6 13.59 22.4 12.79 22.4 11.99 22.4 11.99 23.2 11.99 24 12.79 24 12.79 24.8" fill="#6d6764"/><polygon points="9.59 21.6 8.79 20.8 7.99 21.6 8.79 21.6 9.59 21.6" fill="#6d6764"/><polygon points="7.99 29.6 7.19 30.4 6.39 31.2 7.19 31.2 7.99 31.2 8.79 31.2 9.59 31.2 8.79 30.4 7.99 29.6" fill="#6d6764"/><polygon points="7.19 28.8 6.39 28 5.59 28.8 6.39 28.8 7.19 28.8" fill="#6d6764"/></svg>