<svg viewBox="0 0 32 32" xmlns="http://www.w3.org/2000/svg"><path d="m25.62 30.4-.8-.8-.8.8-.8.8h.8.8.8.8z" fill="#56504f"/><path d="m24.02 28.8.8-.8-.8-.8v-.8-.8l-.8-.8h.8v-.8-.8-.8-.8-.8-.8-.8-.8-.8-.8-.8l-.8-.8-.8-.8-.8-.8-.8-.8-.8-.8-.8-.8v.8.8.8.8l.8.8.8.8.8.8.8.8-.8.8.8.8v.8.8.8.8.8.8.8.8.8.8.8.8h-.8-.8-.8-.8-.8-.8-.8-.8-.8-.8-.8-.8-.8-.8-.8-.8l-.8-.8-.8-.8-.8.8.8.8.8.8.8.8h.8.8.8.8.8.8.8.8.8.8.8.8.8.8.8.8l.8-.8z" fill="#5b5755"/><g fill="#56504f"><path d="m79.63 153.73h1.13v1.13h-1.13z" transform="matrix(.70710678 -.70710678 .70710678 .70710678 -149.79 -35.59)"/><path d="m79.63 163.33h1.13v1.13h-1.13z" transform="matrix(.70710678 -.70710678 .70710678 .70710678 -156.58 -32.78)"/><path d="m12.82 25.6h.8.8v-.8-.8l.8-.8.8-.8.8.8.8.8v.8.8h.8.8v-.8h.8v-.8-.8h-.8-.8l-.8-.8-.8-.8.8-.8.8-.8h.8.8v-.8-.8h-.8v-.8h-.8-.8v.8.8l-.8.8-.8.8-.8-.8-.8-.8v-.8-.8h-.8-.8v.8h-.8v.8.8h.8.8l.8.8.8.8-.8.8-.8.8h-.8-.8v.8.8h.8z"/><path d="m9.62 22.4-.8-.8-.8.8h.8z"/><path d="m8.02 30.4-.8.8-.8.8h.8.8.8.8l-.8-.8z"/><path d="m7.22 29.6-.8-.8-.8.8h.8z"/></g><path d="m0 0h32" fill="#fff"/><path d="m32 32h-32" fill="#fff"/></svg>