<svg id="Layer_1" data-name="Layer 1" xmlns="http://www.w3.org/2000/svg" viewBox="0 0 32 32"><polygon points="27.22 28.8 26.42 29.6 27.22 29.6 28.02 29.6 27.22 28.8" fill="#827d7a"/><path d="M85.8,154.29l-.8-.8-.8-.8-.8-.8h-4v.8l-.8-.8H77l-.8.8-.8.8-.8.8-.8.8v11.2H86.6v-9.6l-.8-.8.8-.8Zm-1.6,2.4v.8H82.6l-.8.8-.8.8.8.8.8.8h1.6v1.6h-.8v.8H81.8v-1.6l-.8-.8-.8-.8-.8.8-.8.8v1.6H77v-.8h-.8v-1.6h1.6l.8-.8.8-.8-.8-.8-.8-.8H76.2v-1.6H77v-.8h1.6v1.6l.8.8.8.8.8-.8.8-.8v-1.6h1.6v.8h.8Zm-4.8,7.2.8-.8.8.8-.8.8Zm1.6-9.6-.8.8-.8-.8.8-.8Z" transform="translate(-64.18 -137.49)" fill="#726e6d"/><polygon points="12.82 32 13.62 32 14.42 32 13.62 31.2 12.82 32" fill="#827d7a"/><line x2="32" fill="#fff"/><line x1="32" y1="32" y2="32" fill="#fff"/></svg>