<svg viewBox="0 0 320 320" xmlns="http://www.w3.org/2000/svg"><g fill="#606640"><path d="m276 208h4l-4-4z"/><path d="m256 244h4l-4-4z"/><path d="m256 192-4 4h4z"/><path d="m252 140-4 4h4z"/><path d="m248 112-4 4h4z"/><path d="m244 232v-4l-4 4z"/><path d="m236 132-4 4h4z"/><path d="m212 72h-4l4 4z"/><path d="m204 296h4l-4-4z"/><path d="m200 100h4l-4-4z"/><path d="m200 272v4h4z"/><path d="m184 88-4 4h4z"/><path d="m184 48-4 4h4z"/><path d="m176 108v-4l-4 4z"/><path d="m172 296h4l-4-4z"/><path d="m172 60-4 4h4z"/><path d="m160 268h4l-4-4z"/><path d="m160 292v-4l-4 4z"/><path d="m124 296h4l-4-4z"/><path d="m108 240h-4l4 4z"/><path d="m100 288v-4l-4 4z"/><path d="m88 200v-4-4-4-4l-4-4v4h-4-4-4v4h4v4h4v4h4v4z"/><path d="m76 256h4l-4-4z"/><path d="m72 204v-4l-4 4z"/><path d="m68 96h4l-4-4z"/><path d="m68 116-4 4h4z"/><path d="m68 80h4 4 4 4 4l4-4 4-4-4-4-4 4-4 4h-4-4-4v-4l-4 4h-4-4-4-4-4-4-4-4-4-4-4-4l4 4h4 4 4 4 4 4 4 4 4 4z"/><path d="m56 284h4l-4-4z"/><path d="m52 100v4h4z"/><path d="m52 248v-4l-4 4z"/><path d="m48 152-4 4h4z"/><path d="m44 0v4l4-4z"/><path d="m44 192h4l-4-4z"/><path d="m36 176v-4l-4 4z"/><path d="m32 92h4l-4-4z"/><path d="m32 196h4l-4-4z"/><path d="m324 44.33v16l4-4v-8z" transform="translate(-8 -8.33)"/><path d="m316 96v4l4-4-4-4z"/><path d="m316 120v4l4-4v-4h-4z"/><g transform="translate(-8 -8.33)"><path d="m324 152.33v12l4-4v-8l-4-4z"/><path d="m316 188.33-4 4v8l4 4v-8l4 4 4-4v-4h-4z"/><path d="m316 180.33v-8h-44v4h4v4h4v4h4v4h20v-4l4 4h8l-4-4z"/><path d="m316 16.33h-8v4h8z"/><path d="m300 16.33h-4l-4-4v8h8z"/><path d="m288 16.33h-8v4h8z"/><path d="m208 88.33h4v4h4v4h56v-4h-4l-4-4v4h-32v-4l-4 4h-8l-4-4v-8h-4v-4l-4 4h-4v4h4z"/><path d="m272 16.33h-8v4h8z"/><path d="m252 20.33 4-4-4-4-4 4h-8v4z"/><path d="m248 216.33v-32l-8-8-12-12v24l4 4 4-4v8l4-4v8l-4 4h-12v-4l-4 4h-4v4l-4 4h4v52h-60v-4h-8l-4-4v4h-16v-4l-4 4h-8l-4-4v-8h-16l20 20h8l4-4v4h96v-4l4 4h8v-52h4l4-4v4z"/><path d="m232 20.33v-4h-8l-4-4-4 4v4z"/></g><path d="m120 44v-4l-4 4z"/><g transform="translate(-8 -8.33)"><path d="m116 20.33v16l-12 12v4h-4l4 4h4v-4l12-12v-12h4l4-4v4h4l4-4v-4h4v-8l-4-4h-8l4 4h-4v-4h-4v8h-4v4z"/><path d="m116 12.33 4 4v-8h-8l-4 4v4h4z"/><path d="m104 68.33h-4v4h8v-12l-4-4z"/><path d="m92 60.33 4 4v-8l4-4h-8z"/><path d="m96 20.33h4l4-4h-16l4-4 4 4 8-8h-32v8l4 4zm-16-8v4l-4-4z"/><path d="m64 20.33v-12h-8l4 4h-8l4 4h-16l4 4z"/><path d="m44 12.33v-4h-4l-4 4h-4v4h8z"/><path d="m28 12.33-4 4v4h4z"/><path d="m16 32.33v4h4v-8h-4z"/><path d="m16 68.33h-4l4 4 4 4v-16l-4 4z"/></g><path d="m0 64 4 4 4-4h-4z"/><path d="m0 60v4l4-4z"/></g><g fill="none"><path d="m0 0h320"/><path d="m320 320h-320"/></g></svg>