<svg viewBox="0 0 640 640" xmlns="http://www.w3.org/2000/svg"><g fill="#939343"><path d="m471.36-45h-8v16l8-8h8v-8z" transform="translate(160.64 45)"/><path d="m463.36 187h-8l-8-8-8 8-24-24h-8v-8h-16l-8-8h-16l-8-8v-16l-8-8h-48v8h-24l-8 8-8-8h-32l-16-16 8-8h8v-8h16l-8-8h-16v-16l-8-8v-32h8v-16h8v-56h-48v8h-16v-8h-8v8h-8v-8h-24v48l24 24v-8h16v8h-16l8 8-8 8h-8v-8l-8 8h-16v8h-8l-8 8-48-48v-56h-72l-8 8 16 16-8 8h-8v8l-8 8h-48l16 16v16l8-8h8v-8l8-8 16 16h8v8h16l8 8v8h8v16l-8 8v16l-8 8v8h-24l8 8v16l8 8v-16h16v32h24v-8l8-8h8v8l8 8-8 8h-8v8l8 8-24 24v32h-16l8 8v32h-24v24l-8 8 8 8-8 8h-64v-8h-8v8h-8l-8 8v16l8 8v8h8l16 16v16h-16l-8 8h-8v-8l-8 8h-8v8l-16 16 8 8 8-8h16l-8-8h16l16 16 8-8h8v-72l8 8v8h8l8 8 8-8h24v-8h-16l8-8h8v8h8v24h16l8-8h16l-8-8h24v8l8 8-8 8h32l-8 8h24v-8l-8-8h-8v-8l-8-8v-16l8-8h16l-8-8v-16h8v-8l8-8h16l8-8 8 8h16l8 8h8v8l8 8v8h8v16l32 32-16 16 8 8-8 8-8-8-32 32h-48l16 16-16 16h-32v-8h-40l8-8h-16l-8 8h-16l-16 16h56v-8h16v8h8v16h24v8h8v8h8v8h8v8h8v8l8 8v48h24v-24h16l16-16 8 8h16l16 16v-32h-8v-8h8v-8h8v8h8v8h-8v24h16l8 8v-16l8-8h8v-8h32l24 24v16l8-8v8h-8v8h16v-24h16v-8h24l8 8h16l24 24v-16l16-16v-16l-16-16v-16l-16-16 16-16v-8h8v-8h-16v-24l8-8v-8h8v-16l16-16h8v-104l-8-8h-32v-8h-8l-24-24 8-8h16l8 8 24-24v-16l8-8h8v-16zm-320 296v8h-8zm56-40 8-8h16v-8h8l16-16-8-8 8-8v-16l8-8v-8h8v-8h24l8 8 8-8 8 8v16h8v24l-8 8 16 16-16 16v8h-24l-8 8h-80l-8-8zm-128-136v-8l8 8zm-48-16h8v8h-8zm16-40v8h-8zm0-32 8 8h-8zm24-32h16v8h-16zm8-56h-8v-8h16v8zm40-56v8h-8v-8zm24-8h8l-8 8h-8v-8zm40-16h8v8h-16zm-16-72h16v8h-16zm24 8h8v8h-8zm40 152h16v8h16v8h16v-8l8 8h-8v16h16v80h-16v8h-16v8h-64v-8h-16v-8h-16v-96h16v-8h16v-8zm96-8 8 8h-16zm-208 152h-8l8-8zm-64 56h-16v-8h8zm-16-16v-8h8zm16-56v-8h8v8zm8-48h8v8h-8zm48-72h8v8h-8zm-8-8h-8v-8h16v8zm24-56h16v8h-16zm72-8h-8l8-8zm208 120-8 8-8-8 8-8zm-24-8v16l8 8v8h-8l-16-16v-16l8-8zm-280 88-8-8 8-8 8 8zm-32-16h16v8h-16zm48-120v-8h8v8zm-16 112h-8v-8h16v8zm8-48 8 8h-8zm8 48v-8h8v8zm24-8v-8l8 8zm0-72-8-8 8-8 8 8zm0-24v-8l8 8zm16-16v-8l8 8zm-32 56h-8v-8zm-48 56h8v8h-16v-8zm288-24v40h-24l-16-16v-16l24-24zm-72 112v-8l8 8zm32-72v8h-8zm-8-24v8h-8zm32 160v8h-8zm-88 88-8 8-8-8 8-8zm112-232v-8l8 8zm-104 32h-8v-8zm-88-152v8h-8zm-72-32h8v8h-16v-8zm-8 16h8v8h-16zm8 48v8h-8v-8zm-24 56h8v8h-16v-8zm-8 64v8h-8zm264 168h-8v-8zm-120 24h-8v-8zm136-104h-8v-8zm24-96v-8l8 8zm-208-208v8h-16v-8zm-88 40v8h-8v-8zm8 40h8v8h-16v-8zm-24 56h8v8h-16v-8zm-24 72h8v8h-8l-8-8zm-24 40h8v8h-8l-8-8zm0 16h8v8h-16v-8zm48-8h-16l8-8h8zm-8-16h-8v-8h8l8 8zm136 0 8-8 8 8-8 8zm32 32v8h-8zm88 184v8h-8zm64 16 8-8 8 8-8 8zm48-152h-8l8-8zm-64-224h-8l8-8zm-160-192h8v8h-16v-8zm-16 0v8l-8-8zm-40 0 8 8-8 8-8-8zm8 40-8-8h-8v-8l8 8h16v8zm16-8h8l8 8h-16zm-16 48v8h-16l8-8zm-56 24h-16v-8h16zm-104-56v-8l8 8zm48 8h-8v-8zm-40-48v-8h16l24 24-16 16h-16l-8-8zm16 64v-8l8 8zm8 32 16-16h16l24 24-24 24h-16l-24-24zm-8 40 8 8h-8zm0 24v-8l8 8zm56 0v8h-8zm-8 24 8 8-8 8-8-8zm-16 24h8v8h-8zm-48 104h16v8h-16zm-16 40h8v8h-24l8-8zm-40 8h-8l8-8zm-24 8v-8l8 8zm24 8v-8h8v8zm32 0h-8v8h-8l8-8h-8v-8h16zm40 24h-8l8-8zm8-16 8-8v8zm40-8v8h-8zm24-32h-8l-8-8h16zm104 8v-8l8 8zm72 232h-8l8-8zm160-8-8-8v-16l8-8 8 8v16l8 8v8h-8zm16-80h-8v-8zm0-176 8 8v16l8 8v16l-24 24h-48l-24-24 56-56h16z" transform="translate(160.64 45)"/><path d="m351.36-37h8l8 8h8v-8l8-8h-48l8 8z" transform="translate(160.64 45)"/><path d="m103.36 435v-8h-16l8 8v8h24l-8-8z" transform="translate(160.64 45)"/><path d="m15.36 563h-64l-16-16v-56h-8l-8 8-8-8v32l-8 8 8 8-8 8h-16l-8 8h8v16h8v8h8l8 8v8h24l-8-8 8-8 8 8-8 8h16l16-16v8h8l16-16v8h8l8 8h16v-16l8-8zm-96 0v8h-8z" transform="translate(160.64 45)"/><path d="m-16.64 155h8v-16l-8 8z" transform="translate(160.64 45)"/><path d="m-24.64 251v-16l-8 8-8-8h-16l-8-8v-48l-8-8v-24h-8l-8 8v16l-8 8v16l8-8h16v24h-24v16l-8 8 8 8v24h8v-8h8l8-8 8 8h16l16 16h16l-8-8zm-56-16v-8l8 8z" transform="translate(160.64 45)"/><path d="m-40.64 115h8l-8-8h-16l8 8z" transform="translate(160.64 45)"/><path d="m-40.64 155-8-8h-8v8z" transform="translate(160.64 45)"/><path d="m-64.64 107h8l-8-8h-16l8 8z" transform="translate(160.64 45)"/><path d="m-80.64 91v-16h-8v16l8 8z" transform="translate(160.64 45)"/><path d="m-112.64 107v8l8-8 8 8 8-8-24-24v8h-8l8 8z" transform="translate(160.64 45)"/><path d="m32 448-8 8h8z"/></g><path d="m640 640h-640" fill="#9a9678"/><path d="m0 0h640" fill="#9a9678"/></svg>