<svg viewBox="0 0 320 320" xmlns="http://www.w3.org/2000/svg"><g fill="#9f9840"><path d="m312 188.33h-4l-4-4v4h-20v-4h-4v-4h-4v-4h-4v-80h-56v-4h-4v-4h-4v-4h-4v-52h4v-4h4v-4h4v-8l4-4-4-4h-28v4h-4v-4h-28v4h-4v-4h-16l4 4v8h-4v4l-4 4h-4v-4l-4 4h-4v12l-12 12v4h-4l4 4v12h-8v4l4 4-8 8h-64v8l-4 4 4 4 4-4v4h4l4-4h-4v-4l4 4v12h4l4-4v8l4-4v8l-8 8 4 4 4-4v8l4-4v8l4 4h-8l-4-4v4h-4v8l4-4v8l-4 4 4 4 4-4v4h-12l4 4h-8l-4 4 4 4h-12v4l-8 8h4v4l4 4v24l-4 4 4 4 4-4 4 4 4-4v8l4-4v8l4 4v8h4v4l4 4 4-4v4h-12v8l4-4v8l4-4v8l4 4h-8l4 4h-16l4 4h4v4l4-4v8l4 4h-8v8l4-4v8l12 12 4-4h4v-4h4v-12l4 4v-8l4 4 4-4 4 4 8-8v8l4 4v-8l4-4v4h-4l4 4h8l4 4 4-4v8h4v4l8 8h4v-4h4v-4l4-4h8l4-4 8 8h4v4h8l4 4h8l4-4h8l4-4 8 8h4v4l8-8v-4h4v-8l4 4v-12h4v-8l4 4v-4h4l4-4v-8l8 8v-8l4 4 4-4 4 4v-4h4v-8l4 4 8-8-4-4h-8l4-4v-8l4 4v-4h4l-8-8v-8l4 4v-8l4 4 4-4v-4h4l4-4h-8l4-4v-8l4 4v-8l4 4v-4h4v-8l4 4v-8l4-4zm-100 116v-4l4 4zm-80 0v-4l4 4zm-68-12v-4l4 4zm44-204h12v4h-12zm8-24h4v4h-4zm12-16v4h-4zm48-28v4h-8v-4zm8 0v4l4-4h4v4h-12v-4zm-4 284v-4l4 4zm-140-104 4 4h-4zm60-96h4v4h-8v-4zm20-20h-4v-4h8v4zm28-48h4v4h-4zm20-8h4v4h-8v-4zm16 0v4h-8l4-4zm8 12h-4v-4h4zm0 20h-4l4-4zm68 92h-4l4-4zm-24 112v4h-8l-4-4v4h-96v-4l-4 4h-8l-20-20v-40h-4v-4h-4v-4h-4v-4h-4v-52h4v-4h4v-4h4v-4h4v-4h8l4-4h4v-4l4 4v-8h4v-4l4 4v-4h4v-8l4 4 4-4 4 4h4v-4l4 4 4-4v8l4 4 4-4v8h4v4l4-4v8h4v4l4-4h16v-4h4v-4h32v44l20 20v32h-4v-4l-4 4h-4zm-28 20v-4l4 4zm-36-8h-4v-4zm-88-16 4 4h-4zm-4-48h-4l4-4zm-24-12h-4v-4zm36-96v4h-4v-4zm-8 12h8v4h-8zm44-24v-4h8v4zm0-28h8v4h-8zm8-12h4v4h-4zm16 0h4v4h-8v-4zm8-8h4v4h-4zm-4-4v-4h8v4zm20-4v4h-8v-4zm80 88h-4l4-4zm-4 116h-4l4-4zm-8-96h-4l4-4zm20 60h-4l4-4zm-120-104v-4h8v4zm-8 0v-4h4v4zm4-12h8v4h-8zm-4-4h-4v-4h12l-4 4zm-4-12h4v4h-4zm20-12v4h-8v-4zm8-8h8v4h-8zm8 52h-8v-4h8zm16 12h-4l4-4zm-12-4h-4v-4h4zm-20-20v-4h4v4zm-4-12h4v4h-4zm-4-4h-4v-4h8v4zm28-24h4v4h-4zm-16 28h8v4h-8zm-4-4v-4h4v4zm20 4v4h-4v-4zm-8-16v4h-4v-4zm16 8h-4l4-4zm0 32h-8v-4h8l4 4zm12-4h-4l4-4zm-40-56h4l-4 4h-8v-4zm-28 52h4v4h-8v-4zm-8 8v4h-4v-4zm-36 0h-4v-4zm-4 20v4h-4zm136-16h-4v-4zm-52-84h-8v-4h4zm-16 12v4h-4v-4zm-36 60v4h-8v-4zm156 156v-4l4 4zm-72-240h4v4h-4zm-16 0h4l-4 4h-4v-4zm-16 0h8v4h-8zm-100 96 4 4h-4zm-16 76h-4l4-4zm124 112v4h-4zm116-80v-4l4 4z" transform="translate(-8 -8.33)"/><path d="m288 272.33 4-4h-8v4z" transform="translate(-8 -8.33)"/><path d="m36 292 4-4h-4z"/><g transform="translate(-8 -8.33)"><path d="m40 240.33 4 4 4-4z"/><path d="m40 144.33 4 4 4-4z"/></g></g><g fill="none"><path d="m0 0h320"/><path d="m320 320h-320"/></g></svg>