<svg viewBox="0 0 640 640" xmlns="http://www.w3.org/2000/svg"><g fill="#546346"><path d="m592 520h8l-8-8z"/><path d="m399.36 195h-16l8 8z" transform="translate(160.64 45)"/><path d="m319.36 427h-24l16 16 16-16z" transform="translate(160.64 45)"/><path d="m416 328h8l-8-8z"/><path d="m479.36 91v-8h-16l8-8v-16h-16l8 8v8h-24l-8 8h-16l8-8h-16l-8 8-8-8h-16l-8-8h8v8l8-8v-8h-24l-8-8h-8v-8l-8 8 24 24h8v8l8 8 8-8 8 8h-16l8 8h48l8 8 8-8 8 8h24v-8h-16l8-8zm-32 0h-8l8-8 8 8z" transform="translate(160.64 45)"/><path d="m447.36 499h-16l16 16h8v-8l8-8z" transform="translate(160.64 45)"/><path d="m439.36 75 8-8-16-16-8 8 8 8h-16l8 8z" transform="translate(160.64 45)"/><path d="m423.36 547h-8l16 16h8v-8l-8-8z" transform="translate(160.64 45)"/><path d="m584 432v-8l-8 8z"/><path d="m423.36 371h8l24-24v-16l-8-8-24 24h-64l24 24z" transform="translate(160.64 45)"/><path d="m576 104h-8l8 8 8-8z"/><path d="m375.36 539 8 8 8-8z" transform="translate(160.64 45)"/><path d="m383.36 211-8-8h-16l16 16h8z" transform="translate(160.64 45)"/><path d="m536 312v8h8z"/><path d="m528 288v8h8z"/><path d="m359.36 251v-16l-8 8h-32l16 16h24z" transform="translate(160.64 45)"/><path d="m520 208v-8l-8 8z"/><path d="m512 632v-8l-8 8z"/><path d="m504 416h8l-8-8z"/><path d="m504 440-8 8h8z"/><path d="m335.36 67-8-8-8 8v-8h-16v8h-8v8l-8 8h-16l-8 8 16 16h-16l-8 8-8-8h-16l8-8h8v-8h-16v8h-8l-8 8 16 16h32l8 8 8-8h24v-8h48l8 8v16l8 8h16l8 8h16v8h8l24 24 8-8 8 8h24v-40h-16l8 8h-48l-16-16h-32l8-8-16-16v-16h-48l-16-16 8-8h32l8-8zm112 96 8 8h-16zm-152-64h-8l8-8 8 8z" transform="translate(160.64 45)"/><path d="m488 496h8l-8-8z"/><path d="m480 312v-8l-8 8z"/><path d="m472 96v8l8-8z"/><path d="m472 576v-8l-8 8z"/><path d="m472 288v-8l-8 8z"/><path d="m303.36 435h-8v-8l-8 8 8 8h-32l8 8h-32l8-8h-16l-8 8h-32l8 8h80l8-8h24v-8h-8z" transform="translate(160.64 45)"/><path d="m448 376h8l-8-8z"/><path d="m440 480h-8l8 8 8-8z"/><path d="m432 192v8h8z"/><path d="m424 608v-8l-8 8z"/><path d="m408 480h-8l8 8 8-8z"/><path d="m408 528h-8l8 8 8-8z"/><path d="m400 616v8l8-8v-8h-8z"/><path d="m384 392v-8l-8 8z"/><path d="m215.36 411h-16l8 8z" transform="translate(160.64 45)"/><path d="m368 520h8l-8-8z"/><path d="m207.36 307h-16l8 8z" transform="translate(160.64 45)"/><path d="m199.36 411 24-24h-16l-8 8h-16l-16 16h-16l8 8h16l8 8z" transform="translate(160.64 45)"/><path d="m352 376h8l-8-8z"/><path d="m352 112-8 8h8z"/><path d="m336 176-8 8h8z"/><path d="m159.36 251h16v8h16v8h64v-8h16v-8h16v-80h-16v72h-112z" transform="translate(160.64 45)"/><path d="m151.36 435h-8l-8-8h-16l8 8h-16l8 8h48l8-8v-8h-24l8 8z" transform="translate(160.64 45)"/><path d="m312 168v8h8z"/><path d="m143.36 419 8 8 8-8z" transform="translate(160.64 45)"/><path d="m151.36-21h-16l8 8z" transform="translate(160.64 45)"/><path d="m304 536v-8l-8 8z"/><path d="m296 208h-8l8 8 8-8z"/><path d="m296 40v8h8z"/><path d="m296 184v8h8z"/><path d="m296 288h8l-8-8z"/><path d="m135.36 547v24h-16l8 8v8h8l8 8v-48l-8-8z" transform="translate(160.64 45)"/><path d="m127.36 419h-40v8h16v8h8z" transform="translate(160.64 45)"/><path d="m127.36 467 8-8h-48l-8-8h-48l8-8 8 8 8-8v-8h-32v8l-24 24v16l16-16h16l8-8h16l-8 8h40v8h32z" transform="translate(160.64 45)"/><path d="m272 232h8l-8-8z"/><path d="m272 320-8 8h8z"/><path d="m264 248v8h8z"/><path d="m87.36 267 8 8 8-8z" transform="translate(160.64 45)"/><path d="m232 344v8h8z"/><path d="m232 328-8 8h8z"/><path d="m232 184-8 8h8z"/><path d="m71.36 27 32 32 8-8h8v-8h16l8-8h16l-16-16v8h-8v-8h8l-16-16v8h-72z" transform="translate(160.64 45)"/><path d="m71.36 171h-16l8 8z" transform="translate(160.64 45)"/><path d="m224 408v-8l-8 8z"/><path d="m216 200-8-8v8h-8v8h8z"/><path d="m39.36 587-8 8h16l8-8v-16z" transform="translate(160.64 45)"/><path d="m39.36 171-24 24v32h-48l8 8h48v-32l24-24z" transform="translate(160.64 45)"/><path d="m200 272h8l-8-8z"/><path d="m200 304v-8l-8 8z"/><path d="m31.36 91h-8l16 16h16l24-24-8-8-16 16z" transform="translate(160.64 45)"/><path d="m192 64v8h8z"/><path d="m31.36 555h-8l8-8h-96l16 16h80z" transform="translate(160.64 45)"/><path d="m192 408v-8l-8 8z"/><path d="m176 80v8h8z"/><path d="m176 168h8l-8-8z"/><path d="m176 184h8l-8-8z"/><path d="m176 424v-8l-8 8z"/><path d="m15.36 267h-40l8 8h32z" transform="translate(160.64 45)"/><path d="m15.36 11h8l16-16h-40v8l8 8z" transform="translate(160.64 45)"/><path d="m152 56v8h8z"/><path d="m152 624v-8l-8 8z"/><path d="m144 200v-8l-8 8z"/><path d="m-24.64 323h8l8-8h-72v8z" transform="translate(160.64 45)"/><path d="m128 632v-8l-8 8z"/><path d="m128 408v-8l-8 8z"/><path d="m-40.64 235 8 8 8-8z" transform="translate(160.64 45)"/><path d="m-32.64 115h-16l8 8z" transform="translate(160.64 45)"/><path d="m-40.64 227h-24l8 8h16l8-8z" transform="translate(160.64 45)"/><path d="m-56.64 123v16l16-16z" transform="translate(160.64 45)"/><path d="m-48.64 115-8-8h-16l16 16z" transform="translate(160.64 45)"/><path d="m-48.64 147 8 8h8v8l8 8v-24h8l8-8h-16l-8 8-8-8h-16v8z" transform="translate(160.64 45)"/><path d="m104 384v-8l-8 8z"/><path d="m-72.64 587 8 8 8-8z" transform="translate(160.64 45)"/><path d="m-64.64 491v-24h-16l-8 8 8 8h-16l-8 8v16l16 16v-32l8 8 8-8z" transform="translate(160.64 45)"/><path d="m96 216v-8h-8v8l8 8z"/><path d="m-72.64 115h-8l-8 8h16l8-8z" transform="translate(160.64 45)"/><path d="m88 176v-8l-8 8 8 8z"/><path d="m80 272v8h8z"/><path d="m80 616v-8l-8 8z"/><path d="m-104.64 523-8 8v8h-8l8-8h-24v8h8v8l8 8 8-8h16l8-8h-16l16-16z" transform="translate(160.64 45)"/><path d="m-96.64 187v-8l-8 8h-16l8 8v8h8l8-8z" transform="translate(160.64 45)"/><path d="m-104.64 139-8 8h16l8 8 8-8h8v-8h-16l8-8h-16l-8-8z" transform="translate(160.64 45)"/><path d="m56 152-8 8v8h8l8-8z"/><path d="m40 416v8l8-8z"/><path d="m-120.64 251v-8h8l-8 8h16l8 8v-16l-8-8 8-8v-16h24v-8h-32v16l-8 8v8h-8l-8 8h-8v16h8z" transform="translate(160.64 45)"/><path d="m-136.64 427 16-16v-8h8l8-8v8h8l8-8h16v-16l-16-16h-8v-8l-8-8v-16h-8v32h8l8 8h-16v8h-8l-8 8 8 8h-8v-8h-8v8h-16v16l8 8h8zm32-48 8 8h-16zm-24 24v8h-8z" transform="translate(160.64 45)"/><path d="m0 288h8v8h-8z"/></g><path d="m640 640h-640" fill="#9a9678"/><path d="m0 0h640" fill="#9a9678"/></svg>