<svg viewBox="0 0 320 320" xmlns="http://www.w3.org/2000/svg"><path d="m324 240.33h-4l-4-4v-4h-4v-8l4-4v-8l4-4v-4h-4l4-4-4-4v-8h-8l-4-4v4h-20v-4h-4v-4h-4v-4h-4v-80h-40l-4-4v4h-12v-4h-4v-4h-4v-4h-4v-52h4v-4h4v-4h4v-8l4-4-4-4h-28v4h-4v-4h-28v4h-4v-4h-16l4 4v8h-4v4l-4 4h-4v-4l-4 4h-4v12l-4 4-4 4-4 4v4h-4l4 4v12h-8v4l4 4-4 4-4 4h-64v8h-4v4l4 4 4 4-4 4v8l4 4v8l-4 4-4 4v4h-4v4h4l4 4v8h-8l4 4v12h4v8l-4 4-4 4 4 4v24l-4 4h-4v4h-8v4h8v4l4 4 4 4-4 4 4 4v8l4 4-4 4v8l4 4 4 4-4 4-4 4 4 4-4 4 4 4v4h4v8l4-4h8l4-4 4 4 4 4 4 4 4-4h4v-4h8l4-4h8v4h4l4-4h8l4 4h4v4l4 4 4-4h8l4 4h4v-4h4v-4l4-4h8l4-4 4 4 4 4h4v4h8l4 4h8l4-4h8l4-4 4 4 4 4h4v4l4-4 4-4 4 4 4-4h16v4h8v-4h8l4 4 4-4 4-4 4 4h8v-4h4l4-4h8l4-4-4-4v-8l4-4 4-4h4v-4l-4-4v-8l4-4v-8l-4-4v-4h4l4-4 4-4zm-284-140v-4l4 4zm76-36h4v4h-4zm60-44v4h-8v-4zm8 0v4l4-4h4v4h-12v-4zm-4 284v-4l4 4zm-140-72 4 4h-4zm76-152h8v4h-8zm32-44h4v4h-4zm20-8h4v4h-8v-4zm16 0v4h-8l4-4zm8 12h-4v-4h4zm0 20h-4l4-4zm112 152h-4l4-4zm-204-108h4v4h-8v-4zm28-40h8v4h-8zm8-12h4v4h-4zm16 0h4v4h-8v-4zm8-8h4v4h-4zm-4-4v-4h8v4zm20-4v4h-8v-4zm32 80h20v48l4 4 4 4 4 4 4 4 4 4v32h-4v-4l-4 4h-4v52h-8l-4-4v4h-96v-4l-4 4h-8l-4-4-4-4-4-4-4-4-4-4v-40h-4v-4h-4v-4h-4v-4h-4v-52h4v-4h4v-4h4v-4h4v-4h40l4 4 4-4h44v-4h4v-4h4v-4zm48 8h-4l4-4zm-124-44h12l-4 4h-8zm20-20v4h-8v-4zm8-8h8v4h-8zm84 88v4h-4zm-12 152v-4l4 4zm-24-8v-4l4 4zm56-32v-4l4 4zm-16 28h-4v-4zm-76-4h-4v-4zm-36-180h4v4h-4zm12-16h4v4h-4zm-4-4h-4v-4h8v4zm28-24h4v4h-4zm12 64h-4l4-4zm-108 12h-4l4-4zm12 136h-4v-4zm-8-52h-4l4-4zm64-112h8v4h-8zm8-12h4v4h-4zm4-8h8v4h-8zm-4-4v-4h4v4zm20 4v4h-4v-4zm-4 24h-8v-4h8zm-8 4v4h-8v-4zm-20 8v4h-4zm24-52v4h-4v-4zm-16 24v4h-8v-4zm-88 164v4h-4zm120-180h-4l4-4zm-116 40h-4v-4zm200 92h-4l4-4zm-140-108h4v4h-8v-4zm-8 8v4h-4v-4zm-60 56v4h-4zm236 80v-4l4 4zm-100-140h-4l4-4zm-40-56h4l-4 4h-8v-4zm-72 60h-4v-4zm28 188v4h-4zm104-184h-4v-4zm-52-84h-8v-4h4zm-16 12v4h-4v-4zm-100 144v4h-4zm4 116v4h-4zm84 8v-4l4 4zm172-76v-4l4 4zm-112-216h4v4h-4zm-16 0h4l-4 4h-4v-4zm-16 0h8v4h-8zm-120 156h-4v-4zm128 128v4h-4zm132 0v-4l4 4zm8-48v-4l4 4z" fill="#9f9840" transform="translate(-8 -8.33)"/><g fill="none"><path d="m0 0h320"/><path d="m320 320h-320"/></g></svg>