<svg viewBox="0 0 320 320" xmlns="http://www.w3.org/2000/svg"><g fill="#616749"><path d="m320 240v-4-4l-4 4z"/><path d="m316 148v4 4l4-4v-4-4h-4z"/><path d="m316 36v4 4 4 4l4-4v-4-4z"/><path d="m316 96v4l4-4-4-4z"/><path d="m316 120v4l4-4v-4h-4z"/><path d="m312 240h-4v4l4 4 4-4h4v-4h-4z"/><path d="m312 184-4-4v4 4l4 4 4-4 4-4h-4z"/><path d="m312 196v4h4 4v-4h-4z"/><path d="m308 300-4-4-4 4 4 4 4 4 4-4h4v-4h-4z"/><path d="m308 172v-4-4h-4-4-4-4-4-4-4-4-4-4-4v4h4v4h4v4h4v4h4 4 4 4 4v-4l4 4h4 4l-4-4z"/><path d="m308 12v-4h-4-4v4h4z"/><path d="m304 240-4-4v4z"/><path d="m296 216v4h4z"/><path d="m296 200-4 4h4z"/><path d="m292 288h4l-4-4z"/><path d="m292 12v-4h-4l-4-4v4 4h4z"/><path d="m284 232h4l-4-4z"/><path d="m280 12v-4h-4-4v4h4z"/><path d="m264 84v-4-4-4h-4-4-4-4l-4-4v4h-4-4-4-4-4-4-4-4-4-4-4-4v4h4v4h4v4h4v4h4 4 4v-4l4 4h4 4 4 4 4 4 4 4 4 4z"/><path d="m264 12v-4h-4-4v4h4z"/><path d="m256 244h4l-4-4z"/><path d="m256 192-4 4h4z"/><path d="m248 116v-4l-4 4z"/><path d="m240 12h4l4-4-4-4-4 4h-4-4v4h4z"/><path d="m236 272h4l-4-4z"/><path d="m236 132-4 4h4z"/><path d="m232 168-4-4-4-4-4-4v4 4 4 4 4 4 4h-4-4-4v4 4 4 4 4 4 4 4 4 4 4 4 4 4 4 4 4 4h-4-4-4-4-4-4-4-4-4-4-4-4-4-4-4v-4-4-4-4h-4-4-4-4-4-4-4-4-4-4-4-4-4-4-4l4 4 4 4 4 4 4 4 4 4h4 4l4-4v4h4 4 4 4 4 4 4 4 4 4 4 4 4 4 4 4 4 4 4 4 4 4 4 4v-4l4 4h4 4v-4-4-4-4-4-4-4-4-4-4-4-4-4h4l4-4v4h4v-4-4-4-4-4-4-4-4l-4-4z"/><path d="m224 284h4l-4-4z"/><path d="m216 12h4 4v-4h-4-4l-4-4-4 4v4h4z"/><path d="m200 96v4h4z"/><path d="m200 276h4l-4-4z"/><path d="m184 88-4 4h4z"/><path d="m184 48-4 4h4z"/><path d="m176 108v-4l-4 4z"/><path d="m172 296h4l-4-4z"/><path d="m172 60-4 4h4z"/><path d="m160 268h4l-4-4z"/><path d="m160 292v-4l-4 4z"/><path d="m132 112v-4l-4 4z"/><path d="m124 296h4l-4-4z"/><path d="m108 12v4 4 4 4l-4 4-4 4-4 4v4h-4l4 4h4v-4l4-4 4-4 4-4v-4-4-4h4l4-4v4h4l4-4v-4h4v-4-4l-4-4h-4-4l4 4h-4v-4h-4v4 4h-4v4z"/><path d="m112 0h-4-4l-4 4v4h4l4-4 4 4v-4z"/><path d="m100 288v-4l-4 4z"/><path d="m96 56v4h-4v4h4 4v-4-4-4l-4-4v4z"/><path d="m84 44v4 4l4 4v-4-4l4-4h-4z"/><path d="m88 200v-4-4-4-4h-4-4-4-4v4h4v4h4v4h4v4z"/><path d="m76 256h4l-4-4z"/><path d="m72 204v-4l-4 4z"/><path d="m80 20.33h20l4-4h-16l4-4 4 4 4-4 4-4h-32v8l4 4zm0-8v4l-4-4z" transform="translate(-8 -8.33)"/><path d="m68 96h4l-4-4z"/><path d="m68 116-4 4h4z"/><path d="m68 80h4 4 4 4 4l4-4 4-4-4-4-4 4-4 4h-4-4-4v-4l-4 4h-4-4-4-4-4-4-4-4-4-4-4-4l4 4h4 4 4 4 4 4 4 4 4 4z"/><path d="m52 104h4l-4-4z"/><path d="m52 248v-4l-4 4z"/><path d="m48 152-4 4h4z"/><path d="m44 0v4l4-4z"/><path d="m40 292v-4l-4 4z"/><path d="m40 12h4 4 4 4v-4-4-4h-4-4l4 4h-4-4l4 4h-4-4-4-4l4 4z"/><path d="m36 176v-4l-4 4z"/><path d="m32 88v4h4z"/><path d="m32 224v4h4z"/><path d="m32 8 4-4v-4h-4l-4 4h-4v4h4z"/><path d="m28 156v4h4z"/><path d="m24 296-4-4v4 4l-4 4-4 4 4 4 4-4 4 4 4-4v-4-4h-4z"/><path d="m24 148v-4l-4-4h-4v-4l-4 4v4 4l4-4 4 4h-4-4l4 4h4 4z"/><path d="m20 268-4 4 4 4v4 4l4-4 4-4-4-4z"/><path d="m20 8v-4l-4 4v4h4z"/><path d="m20 180 4-4h-4-4v-4h4l4 4v-4-4h-4v-4l-4 4-4 4h-4v4l4 4h4v4z"/><path d="m16 100h4v4 4h4v-4l4-4-4-4-4-4-4 4-4 4z"/><path d="m12 240h4l4-4-4-4-4-4v-4h-4-4v4 4h4l4 4z"/><path d="m12 68v-4-4-4-4l-4 4v4h-4l4 4z"/><path d="m12 24v-4h-4v4 4h4z"/><path d="m8 64h-4-4l4 4z"/><path d="m4 144v-4l-4-4v4 4l4 4z"/><path d="m0 60v4l4-4z"/></g><g fill="none"><path d="m0 0h320"/><path d="m320 320h-320"/></g></svg>