<svg viewBox="0 0 640 640" xmlns="http://www.w3.org/2000/svg"><g fill="#45544f"><path d="m447.36-45h-8v24h16v-24z" transform="translate(160.64 45)"/><path d="m423.36-37 8 8v-16h-8z" transform="translate(160.64 45)"/><path d="m399.36-45 16 16v-16z" transform="translate(160.64 45)"/><path d="m319.36 579v16h16v-16l-8-8z" transform="translate(160.64 45)"/><path d="m327.36 139-8-8-8 8z" transform="translate(160.64 45)"/><path d="m303.36 587h8v-16l-8 8z" transform="translate(160.64 45)"/><path d="m279.36 571v16l8 8h8v-24z" transform="translate(160.64 45)"/><path d="m279.36-45v24l8-8h8v-16z" transform="translate(160.64 45)"/><path d="m263.36-21h-8v-24h-16v32h8v8h32l-8-8 8-8z" transform="translate(160.64 45)"/><path d="m271.36-37v-8h-8v16h8z" transform="translate(160.64 45)"/><path d="m215.36 579v16h8v-8h8v-8z" transform="translate(160.64 45)"/><path d="m360 632h8v8h-8z"/><path d="m175.36 579v16h16v-16l-8 8z" transform="translate(160.64 45)"/><path d="m103.36-45v24h-24v-24h-16v32h8v8h40v-8h8v-32z" transform="translate(160.64 45)"/><path d="m87.36 267h16l-8-8z" transform="translate(160.64 45)"/><path d="m95.36-37v-8h-8v16h8z" transform="translate(160.64 45)"/><path d="m47.36 67v8h-8l-8 8 8 8h16l8-8z" transform="translate(160.64 45)"/><path d="m15.36 259v-16l-8 8z" transform="translate(160.64 45)"/><path d="m-.64 259h-16l-8-8v16h40v-8z" transform="translate(160.64 45)"/><path d="m-8.64 219-8-8v16h8z" transform="translate(160.64 45)"/><path d="m-16.64 299v8l8-8v-16l-8 8z" transform="translate(160.64 45)"/><path d="m-32.64 307h-32l-8 8h64l-8-8z" transform="translate(160.64 45)"/><path d="m88 192v8l8-8z"/><path d="m-72.64 195h-24l-8 8h32z" transform="translate(160.64 45)"/><path d="m471.36 107h-8v40h16v-40z" transform="translate(160.64 45)"/><path d="m471.36 211v8l8 8v-24h-8z" transform="translate(160.64 45)"/><path d="m431.36 323-8 8v16l24-24v-16z" transform="translate(160.64 45)"/><path d="m423.36 147v-8l8-8v-32h-8v24l-8 8v16l8 8z" transform="translate(160.64 45)"/><path d="m568 352v-8l-8 8z"/><path d="m399.36 107v24l-8 8h16v-40h-8z" transform="translate(160.64 45)"/><path d="m544 376h8l-8-8z"/><path d="m383.36 123v-24l-16-16v32l16 16z" transform="translate(160.64 45)"/><path d="m351.36 235v8l8-8v-16l-8 8z" transform="translate(160.64 45)"/><path d="m496 280v8l8-8-8-8z"/><path d="m335.36 91v-16h-16v8l16 16z" transform="translate(160.64 45)"/><path d="m295.36 419h-8l8 8h16l-8-8z" transform="translate(160.64 45)"/><path d="m424 464h8v8h-8z"/><path d="m239.36 427v8h8v-24l-8 8z" transform="translate(160.64 45)"/><path d="m400 600v8h8v-8l-8-8z"/><path d="m400 272-8 8h8z"/><path d="m215.36 435h-8l16 16 8-8-8-8z" transform="translate(160.64 45)"/><path d="m207.36 379v-8l-8-8v32l8-8z" transform="translate(160.64 45)"/><path d="m167.36 395v16l16-16-8-8z" transform="translate(160.64 45)"/><path d="m336 280h-8l8 8z"/><path d="m272 600v-8l-8 8z"/><path d="m103.36 459h16v-16z" transform="translate(160.64 45)"/><path d="m111.36 419v-16l-16 16z" transform="translate(160.64 45)"/><path d="m256 488v8l8-8z"/><path d="m71.36 395v48l-8 8h16v-48l8-8z" transform="translate(160.64 45)"/><path d="m71.36 171-8-8-8 8z" transform="translate(160.64 45)"/><path d="m224 552h8l-8-8z"/><path d="m216 544h8l-8-8z"/><path d="m208 608 8-8h-8z"/><path d="m47.36 379v56h8v-64h-8z" transform="translate(160.64 45)"/><path d="m47.36 147h-16v8h16z" transform="translate(160.64 45)"/><path d="m31.36 171h-8l-8 8v16l24-24v-16l-8 8z" transform="translate(160.64 45)"/><path d="m23.36 379v56h8l8-8v-48z" transform="translate(160.64 45)"/><path d="m23.36 571v16l8 8 8-8z" transform="translate(160.64 45)"/><path d="m176 544v8h8z"/><path d="m152 488 8-8h-8z"/><path d="m152 448h8l-8-8z"/><path d="m136 592v-8l-8 8z"/><path d="m-56.64 195h-8v8h24v-8z" transform="translate(160.64 45)"/><path d="m-88.64 435v40l8-8v-32l-8-8z" transform="translate(160.64 45)"/><path d="m-104.64 507v-64l-8-8h8v-8h-16v16l8 8-8 8 8 8v48l8 8h16z" transform="translate(160.64 45)"/></g><path d="m640 640h-640" fill="#9a9678"/><path d="m0 0h640" fill="#9a9678"/></svg>