<svg viewBox="0 0 640 640" xmlns="http://www.w3.org/2000/svg"><g fill="#38443b"><path d="m463.36 483-8-8h-8v8l-16 16h32l8-8h8v-8z" transform="translate(160.64 45)"/><path d="m471.36 203-8 8v16h16l-8-8z" transform="translate(160.64 45)"/><path d="m447.36 163-8 8h16z" transform="translate(160.64 45)"/><path d="m439.36 267h16l-8-8z" transform="translate(160.64 45)"/><path d="m439.36 251-8-8h-16l-8 8 8 8 8-8z" transform="translate(160.64 45)"/><path d="m423.36 147v8h48l-8-8v-40h-8l-8-8-8 8-8-8v32l-8 8z" transform="translate(160.64 45)"/><path d="m415.36 139v-8l8-8v-24h-16v40l8 8z" transform="translate(160.64 45)"/><path d="m552 384h8l-8-8z"/><path d="m383.36 99v32l-8 8h16l8-8v-32z" transform="translate(160.64 45)"/><path d="m375.36 539h16l-8-8z" transform="translate(160.64 45)"/><path d="m351.36 67-8 8h-8v24h32v-24h-8z" transform="translate(160.64 45)"/><path d="m335.36 243v-16l-8 8z" transform="translate(160.64 45)"/><path d="m319.36 83v-8h-8l-8 8 16 16h16z" transform="translate(160.64 45)"/><path d="m311.36 411-8 8 8 8h16z" transform="translate(160.64 45)"/><path d="m279.36 443h16l-8-8z" transform="translate(160.64 45)"/><path d="m247.36 411v24h8l8-8v-8h-8z" transform="translate(160.64 45)"/><path d="m239.36 483h16l-8-8z" transform="translate(160.64 45)"/><path d="m247.36 443-8-8v-16l-8 8h-8v8l8 8z" transform="translate(160.64 45)"/><path d="m392 280-8 8h8z"/><path d="m207.36 379v8h16l-16-16z" transform="translate(160.64 45)"/><path d="m207.36 435-16 16h32z" transform="translate(160.64 45)"/><path d="m199.36 411h16l-8-8z" transform="translate(160.64 45)"/><path d="m207.36 307-8-8-8 8z" transform="translate(160.64 45)"/><path d="m199.36 395v-32l-8 8v8h-8v8h-8l8 8z" transform="translate(160.64 45)"/><path d="m151.36 403h-8v8h24v-16l-8 8z" transform="translate(160.64 45)"/><path d="m151.36-21-8-8-8 8z" transform="translate(160.64 45)"/><path d="m135.36 155-8 8h16z" transform="translate(160.64 45)"/><path d="m119.36 443v16h16z" transform="translate(160.64 45)"/><path d="m111.36 419h16v-16l-8 8-8-8z" transform="translate(160.64 45)"/><path d="m103.36 443-8 8v-16l-8-8v-8h8l16-16h-32v48l8 8h16l16-16z" transform="translate(160.64 45)"/><path d="m264 608v-8l-8 8z"/><path d="m63.36 563v-16l-8 8z" transform="translate(160.64 45)"/><path d="m55.36 395v48l-8 8h16l8-8v-48z" transform="translate(160.64 45)"/><path d="m55.36 379v16l8-8z" transform="translate(160.64 45)"/><path d="m39.36 395v32l-8 8h16v-64h-16l8 8z" transform="translate(160.64 45)"/><path d="m39.36 555-8-8-8 8h8v8l-8 8 16 16 16-16z" transform="translate(160.64 45)"/><path d="m31.36 451h16l-8-8z" transform="translate(160.64 45)"/><path d="m23.36 435v-56l-8 8h-16v80l24-24z" transform="translate(160.64 45)"/><path d="m-24.64-37v16l-16 16h16v-8h8l8-8z" transform="translate(160.64 45)"/><path d="m-80.64 435v32h16v-40h-8z" transform="translate(160.64 45)"/><path d="m-88.64 467v-40l-8-8h-16l8 8v8h-8l8 8v48l8-8h16l-8-8z" transform="translate(160.64 45)"/><path d="m-104.64 539h16l-8-8z" transform="translate(160.64 45)"/><path d="m-112.64 515v-16h-8v8h-16l-8 8 8 8v8h24l8-8z" transform="translate(160.64 45)"/><path d="m40 480v-8l-8 8 8 8z"/></g><path d="m640 640h-640" fill="#9a9678"/><path d="m0 0h640" fill="#9a9678"/></svg>