<svg viewBox="0 0 640 640" xmlns="http://www.w3.org/2000/svg"><g fill="#6c987c" transform="translate(160.64 45)"><path d="m471.36 235h-16l-32 32 8 8h8v8h32l8 8v-24h-8l-8-8h16v-24zm-24 40-8-8 8-8 8 8z"/><path d="m-32.64-45-8 8v-8h-8l-16 16v16l-16 16h48l8-8h-16l16-16v-16l8-8z"/><path d="m-64.64-45h-48l-16 16v-16h-16l-8 8v16l-8 8h16v-16l8-8v16l-8 8 8 8 8-8h8v-8h16l8 8h8v8l24-24z"/><path d="m-160.64-45v16l8-8v-8z"/></g><path d="m640 640h-640" fill="#9a9678"/><path d="m0 0h640" fill="#9a9678"/></svg>