<svg viewBox="0 0 640 640" xmlns="http://www.w3.org/2000/svg"><g fill="#557560"><path d="m471.36 227h-8l-8 8h24v-8z" transform="translate(160.64 45)"/><path d="m463.36 259 8 8h8v-8z" transform="translate(160.64 45)"/><path d="m439.36 267 8 8 8-8z" transform="translate(160.64 45)"/><path d="m431.36 251h-8l-8 8 8 8 16-16z" transform="translate(160.64 45)"/><path d="m120 8 8-8h-8z"/><path d="m-64.64-45v16l16-16z" transform="translate(160.64 45)"/><path d="m-80.64-13-8 8 8 8 16-16v-16z" transform="translate(160.64 45)"/><path d="m-128.64-45v16l16-16z" transform="translate(160.64 45)"/><path d="m-144.64-21v8l8-8v-16l-8 8z" transform="translate(160.64 45)"/><path d="m8 0v8l8-8z"/><path d="m-160.64-21v8l8-8v-16l-8 8z" transform="translate(160.64 45)"/></g><path d="m640 640h-640" fill="#9a9678"/><path d="m0 0h640" fill="#9a9678"/></svg>