<svg viewBox="0 0 320 320" xmlns="http://www.w3.org/2000/svg"><g fill="#afa785"><path d="m312 32v4 4 4 4h4v-4-4-4-4z"/><path d="m312 96 4 4v-4-4h-4z"/><path d="m312 124v4h4v-4-4-4l-4 4z"/><path d="m312 148h-4v4h4v4h4v-4-4-4h-4z"/><path d="m308 28v-4-4h-4-4v4 4l4 4h4z"/><path d="m304 16h4 4v-4h-4-4-4-4-4-4-4-4-4-4-4-4-4-4-4-4-4-4-4-4-4-4-4-4-4l4 4h4 4 4 4 4 4 4 4 4 4 4 4 4 4 4 4 4 4 4 4 4z"/><path d="m288 20h-4-4v4l4 4 4-4h4 4v-4h-4z"/><path d="m244 20v4h4l4-4h-4z"/><path d="m232 20h-4v4 4h4 4l4-4v-4h-4z"/><path d="m220 24h4l-4-4z"/><path d="m204 164v4h4v-4-4l-4-4v4z"/><path d="m200 148h-4-4-4-4-4l4 4h4 4 4 4 4v4h4v-4-4h-4z"/><path d="m192 156h-4l4 4 4 4 4 4v-4-4-4h-4z"/><path d="m100 12h-4-4-4-4-4-4-4-4-4-4-4-4-4-4-4-4-4-4-4-4-4v4h4 4 4 4 4 4 4 4 4 4 4 4 4 4 4 4 4 4 4 4 4 4 4v-4h-4z"/><path d="m96 20h4v4h-4z"/><path d="m84 20v4 4h4 4v-4-4h-4z"/><path d="m80 24v-4h-4z"/><path d="m76 24v-4l-4 4z"/><path d="m56 20h-4v4 4l4-4h4 4v-4h-4z"/><path d="m40 20h-4v4h4l4 4 4 4v-4-4-4h-4z"/><path d="m40 28v-4l-4 4z"/><path d="m24 20h-4v4 4 4h4l4-4v-4h4l-4-4z"/><path d="m24 44v-4l-4-4v4 4 4 4h4 4l-4-4z"/><path d="m20 56v4h4 4v-4h-4z"/><path d="m20 72h4v-4-4l-4 4z"/><path d="m12 24v4 4 4l4 4v-4-4-4-4-4-4l-4 4z"/><path d="m12 56v4 4 4l4 4v-4-4-4-4-4-4l-4 4z"/></g><g fill="none"><path d="m0 0h320"/><path d="m320 320h-320"/></g></svg>