<svg viewBox="0 0 320 320" xmlns="http://www.w3.org/2000/svg"><g fill="#afa785"><g transform="translate(-8 -8.33)"><path d="m320 40.33v16h4v-16z"/><path d="m320 104.33 4 4v-8h-4z"/><path d="m320 132.33v4h4v-12l-4 4z"/><path d="m320 156.33v8h4v-12h-4z"/><path d="m320 20.33h-100l4 4h96z"/><path d="m308 28.33v8l4 4h4v-12z"/><path d="m296 28.33h-8v4l4 4 4-4h8v-4z"/><path d="m252 28.33v4h4l4-4z"/><path d="m240 28.33h-4v8h8l4-4v-4z"/></g><path d="m220 24h4l-4-4z"/><path d="m208 160.33h-16l4 4h16v8h4v-12z" transform="translate(-8 -8.33)"/><path d="m200 168.33 4 4h4v-4z" transform="translate(-8 -8.33)"/><path d="m108 20.33h-84v4h92v-4z" transform="translate(-8 -8.33)"/><path d="m96 20h4v4h-4z"/><path d="m92 28.33v8h8v-8z" transform="translate(-8 -8.33)"/><path d="m80 24v-4h-4z"/><path d="m76 24v-4l-4 4z"/><path d="m64 28.33h-4v8l4-4h8v-4z" transform="translate(-8 -8.33)"/><path d="m48 28.33h-4v4h4l8 8v-12z" transform="translate(-8 -8.33)"/><path d="m40 28v-4l-4 4z"/><g transform="translate(-8 -8.33)"><path d="m32 28.33h-4v12h4l4-4v-4h4l-4-4z"/><path d="m32 52.33v-4l-4-4v16h8l-4-4z"/><path d="m28 64.33v4h8v-4z"/><path d="m28 80.33h4v-8l-4 4z"/><path d="m20 32.33v12l4 4v-24l-4 4z"/><path d="m20 64.33v12l4 4v-24l-4 4z"/></g></g><g fill="none"><path d="m0 0h320"/><path d="m320 320h-320"/></g></svg>