<svg viewBox="0 0 320 320" xmlns="http://www.w3.org/2000/svg"><g fill="#8d8e79"><g transform="translate(-8 -8.33)"><path d="m320 104.33v-8l-4 4z"/><path d="m316 40.33v4l-4 4 8 8v-16l-4-4z"/><path d="m316 136.33v4l4-4v-8l-4 4z"/><path d="m312 148.33h-36v4h44l-4-4z"/><path d="m312 156.33h-36v4h44v-4z"/><path d="m312 164.33h-36v4h44v-4z"/><path d="m280 28.33h4l4 4v-4h16v4l4 4v-8h8l4-4h-48l4 4z"/></g><path d="m260 56h4v4h-4z"/><path d="m264 24.33h-40l12 12v-8h12v4h4v-4h16l4-4z" transform="translate(-8 -8.33)"/><path d="m260 64.33h-20l-4 4h32l-4-4z" transform="translate(-8 -8.33)"/><path d="m248 24v4h4z"/><g transform="translate(-8 -8.33)"><path d="m232 64.33h-16v4h20v-4z"/><path d="m216 56.33v-28h-4v4h-4v4h-4v36h4v-4h4v-4h4z"/><path d="m204 164.33h-8l4 4h8v4h4v-8z"/><path d="m204 232.33h-44v4h52v-4z"/><path d="m204 240.33h-44v4h52v-4z"/><path d="m204 248.33h-44v4h52v-4z"/><path d="m204 256.33h-44v4h52v-4z"/><path d="m196 148.33v-20h-4v24h4z"/><path d="m148 228.33h-24l-4 4h32l4-4z"/><path d="m116 228.33h-20v4h24v-4z"/><path d="m96 168.33v-32h-4v4h-4v4h-4v4h-4v36h4v-4h4v-4h4v-4h4z"/><path d="m84 28.33h4v4l4 4v-8h8v8h8l8-8v-4h-92v56h4v-4l8-8h-8v-4h8v4l4-4-4-4h-8v-16l4-4h-4v-12h8l4 4h4v-4h12v12l4-4v-8h12v4l4-4zm24 0v4h-4v-4z"/></g></g><g fill="none"><path d="m0 0h320"/><path d="m320 320h-320"/></g></svg>