<svg viewBox="0 0 320 320" xmlns="http://www.w3.org/2000/svg"><g fill="#b0a87d"><g transform="translate(-8 -8.33)"><path d="m316 68.33 4-4v-8l-4-4v12h-12v-8l4-4h8l-4-4h-4v-12l-4-4-4 4h-12v-4l-4-4v12h-12v-8l4-4-4-4-4 4v4h-12l4 4h8v12h-16v-12h4v-4h-8v12h-12v-8l-4-4v8h-8v-12h4l-4-4h-4v36h56v80h40v-4h-12v-8l4-4h8v8l4-4v-24l-4-4v8h-4v-8h4l4-4-4-4v4h-4v-16h4v4h4v-4l-4-4h-8v-8zm-84-12h-8v-12h4l4 4zm16 0h-12v-4l4-4h8zm8 0h-4v-4h4zm12 0h-8v-4h8zm40 24v12h-12v-12zm-20-40h16v8h-16zm0 16 4-4h8v8h-12zm0 8h8l8 8v4h-16zm-16-8v-8l4-4h8v12zm12 4v16h-4v-16zm8 76h-12v-8h8l4 4zm0-12h-12v-20h8l4 4zm0-24h-12v-12h8l4 4zm0-16h-12v-4h12zm8 44v8h-4v-16h4zm0-12h-4v-4h4zm-4-8v-12h8l4 4v8zm20 4v8h-12v-8z"/><path d="m200 124.33v24h24v-24zm12 20h-8v-12l12 12zm8-12v8l-12-12h12z"/><path d="m208 176.33v8l-4 4h-4v-20l-4-4h-8v-32h-88v92h112v-52h-4zm-20-8h8v4h-8zm0 8h8v12h-8zm-24-40h20v20h-20zm8 32v-8h12v8zm12 8v4h-12v-8h8zm-16-16v12h-12v-8l4-4zm0 16v4h-4v-4zm-16-12v8h-4v-8zm-4-4v-8h8v4l-4 4zm4 16h8v8h-12v-4zm4 12h8v4h-8zm-4-52h8v12h-8zm-16 0h8l4 4v8h-12zm-4 28-4-4v-8h16v12zm12 4v16h-12v-12l4-4zm-16-20v-4h4v4zm-4-12h8v4h-8zm-4 36v-8h4l4 4v4zm8 4v8h-8v4h-8v-12zm-4-16h-4l-4-4v-12h8zm-20-24h16v4h-16zm0 16v-8h8v12h-8zm0 16v-8h8l4 4v8h-12zm0 8h4v4h-4zm0 16v-8h4v12h-4zm0 8h4v4h-4zm12 20h-12v-12h8l4 4zm-4-20v-8h8v12h-4zm20 20h-12v-4h12zm0-8h-12v-4l8-8h4zm-4-16h-4v-8h12v4l-4 4zm16 24h-4l-4-4v-4h8zm0-12h-8v-8h8zm8 12h-4v-4h4zm0-8h-4v-12h4zm0-16h-12v-8h8l4 4zm16 24h-12v-8l4-4h8zm-4-16h-8v-8h8l4 4zm4-20h16v8l-4 4h-8l-4-4zm16 16v8h-12v-4l4-4zm-8 20h-4v-8h4zm24-4-4 4h-16v-8h20zm0-20v12h-8l-4-4v-12h12zm8 20v4h-4v-8h4zm0-8h-4v-4h4zm0-12v4h-4v-8h4z"/></g><path d="m184 4h4v4h-4z"/><path d="m192 20.33h-4l-4 4h8z" transform="translate(-8 -8.33)"/><path d="m180 28h4v4h-4z"/><path d="m176 12h-4l4 4z"/><path d="m172 24h4v-4h-4l-4 4z"/><path d="m164 92h4v4h-4z"/><path d="m168 44h-4l4 4z"/><path d="m168 24.33h8l-4-4h-4z" transform="translate(-8 -8.33)"/><path d="m160 28v4l4-4z"/><path d="m160 96v-4h-4z"/><path d="m156 44h4v4h-4z"/><path d="m156 20h4v4h-4z"/><path d="m164 12.33h-4v4h8z" transform="translate(-8 -8.33)"/><path d="m152 28h4v4h-4z"/><path d="m144 64h4v4h-4z"/><path d="m148 44-4 4h4z"/><path d="m144 12v4l4-4z"/><path d="m144 0v4h4z"/><path d="m140 72v4l4-4z"/><g transform="translate(-8 -8.33)"><path d="m148 60.33h-4v4h8z"/><path d="m144 48.33h8l-4-4h-4z"/><path d="m148 72.33h-8v4h8z"/></g><path d="m132 80v4l4-4z"/><path d="m132 28v4h4z"/><path d="m132 44-4 4h4z"/><path d="m136 80.33h-4v4h8z" transform="translate(-8 -8.33)"/><path d="m132 92-4-4v4z"/><path d="m136 64.33h-8v4h4z" transform="translate(-8 -8.33)"/><path d="m128 96.33h-8v4h4z" transform="translate(-8 -8.33)"/><path d="m120 80.33h-4v4h8z" transform="translate(-8 -8.33)"/><path d="m108 100-4-4v4z"/><path d="m120 88.33h-12v4h12z" transform="translate(-8 -8.33)"/><path d="m96 96-4 4h4z"/><path d="m104 56.33-4 4h-4v4h8z" transform="translate(-8 -8.33)"/><path d="m92 68.33v-20h12v-8l4-4h-8v8h-8v-8l-4-4v4h-12v-8l-4 4v12h-8v-4l-4-4-4 4h-12v-8h-4v8h-8l-4 4h12v12l-4 4 4 4h4v4h-4v-4l-8 8h12v8h16v-4h-12v-12h16v8l-4 4 4 4 4-4h8v4h4v-8h8l4 4 4-4h-4zm-40-8h-8v-4h8zm8 0h-4v-4h4zm0-8h-16v-8h16zm4 4v-8h8v8zm12 12-4 4h-4v-12h8zm12 0h-8v-8h4l4 4zm0-12h-12v-12l4-4h8z" transform="translate(-8 -8.33)"/><path d="m80 96h4v4h-4z"/><path d="m88 120.33h4v-4h-8z" transform="translate(-8 -8.33)"/><path d="m28 28 4-4h-4z"/></g><g fill="none"><path d="m0 0h320"/><path d="m320 320h-320"/></g></svg>