<svg viewBox="0 0 320 320" xmlns="http://www.w3.org/2000/svg"><g fill="#495150"><g transform="translate(-8 -8.33)"><path d="m316 152.33h-40v4h44v-4z"/><path d="m312 160.33h-36v4h44v-4z"/><path d="m284 148.33h32v-4h-40v4z"/><path d="m272 168.33v4h44l4-4h-44v-4h-4z"/></g><path d="m264 68v-4l-4 4 4 4z"/><path d="m264 60h-4l4 4z"/><g transform="translate(-8 -8.33)"><path d="m268 68.33h-56v4h-4v4h-4v4h4l4-4v4h8v-4l4 4 4-4 4 4h4v-4l4 4 4-4 4 4 4-4 4 4h4v-4l4 4 4-4z"/><path d="m220 152.33h-12l-4 4 4 4h8v32h4v-4l4 4h4v-8h-4l4-4v-28z"/><path d="m212 260.33h-52v-4h-4v8h60v-8h-4z"/><path d="m200 152.33h-4v4h-4v4h8l4-4v-4z"/><path d="m168 232.33h44v-4h-52v4z"/><path d="m168 240.33h44v-4h-52v4z"/><path d="m168 248.33h44v-4h-52v4z"/><path d="m168 256.33h44v-4h-52v4z"/><path d="m156 240.33v-4l-4-4h-56v8l4 4h8l4 4h4v-4l4 4 4-4v4h4l4-4 4 4h4v-4l4 4h4v-4l4 4 4-4z"/><path d="m112 40.33 4-4v-8l-12 12v8z"/><path d="m104 64.33h-8l4 4h4z"/><path d="m96 248.33h8l-4-4h-4z"/><path d="m100 52.33h4v-4h-12v4z"/></g><path d="m88 212h4l-4-4z"/><path d="m96 188.33v-12h-4v4h-4v4h-4v4h-4v4h12v-4l4 4z" transform="translate(-8 -8.33)"/><path d="m84 84.33h8l8-8v-8l-8 8v4h-12v4z" transform="translate(-8 -8.33)"/><path d="m76 80.33h-12l-4 4h16l4-4z" transform="translate(-8 -8.33)"/><path d="m56 80.33h-32l4 4h32v-4z" transform="translate(-8 -8.33)"/></g><g fill="none"><path d="m0 0h320"/><path d="m320 320h-320"/></g></svg>