<svg viewBox="0 0 640 640" xmlns="http://www.w3.org/2000/svg"><g fill="#84867a"><path d="m296 64h8v8h-8z"/><path d="m296 592v-8l-8 8z"/><path d="m288 568h-8l8 8z"/><path d="m280 592v-8l-8 8z"/><path d="m280 584v-8h-8z"/><path d="m272 568h8l-8-8z"/><path d="m264 584v-8h-8z"/><path d="m248 544h-8v8h-8-8-8-8-8-8-8-8-8-8-8l8 8h8 8 8 8 8 8 8 8l8 8h8 8v-8-8l8-8z"/><path d="m192 216v-8l-8 8z"/><path d="m176 240v-8-8l-8 8z"/><path d="m9.71 165.35h11.31v11.31h-11.31z" transform="matrix(.70710678 -.70710678 .70710678 .70710678 44.22 105.95)"/><path d="m176 208h8 8l-8-8h-8-8-8-8-8-8l8 8h8 8 8z"/><path d="m168 168h-8-8l8 8z"/><path d="m-6.29 165.35h11.31v11.31h-11.31z" transform="matrix(.70710678 -.70710678 .70710678 .70710678 39.53 94.63)"/><path d="m152 232 8 8h8v-8l-8-8z"/><path d="m152 536h-8-8-8-8l-8-8-8 8v8h8 8 8 8v8l8-8h8z"/><path d="m152 456h-8-8l-8 8h8 8 8z"/><path d="m152 216h-8-8l8 8z"/><path d="m136 504h-8-8-8-8v8h8 8 8 8 8 8v-8h-8z"/><path d="m136 488-8-8-8 8h-8-8v8h8 8 8 8 8 8v-8h-8v-8z"/><path d="m-22.29 181.35h11.31v11.31h-11.31z" transform="matrix(.70710678 -.70710678 .70710678 .70710678 23.53 88.01)"/><path d="m144 480h8v-8h-8-8-8-8-8-8v8h8 8 8 8z"/><path d="m136 224v-8l-8-8-8 8 8 8z"/><path d="m120 456h-8-8v8h8 8 8v-8z"/><path d="m128 528h8 8 8v-8h-8-8-8-8-8-8v8h8 8z"/><path d="m-54.29 165.35h11.31v11.31h-11.31z" transform="matrix(.70710678 -.70710678 .70710678 .70710678 25.48 60.69)"/><path d="m104 216v-8h8l-8-8h-8v8 8 8h8z"/></g><path d="m640 640h-640" fill="#9a9678"/><path d="m0 0h640" fill="#9a9678"/></svg>