<svg viewBox="0 0 320 320" xmlns="http://www.w3.org/2000/svg"><g fill="#3d403c"><path d="m268 76.33 4-4-4-4z" transform="translate(-8 -8.33)"/><path d="m268 60.33-4 4 4 4z" transform="translate(-8 -8.33)"/><path d="m228 60 4-4h-4z"/><path d="m220 176v-4l-4 4z"/><path d="m204 148.33v8l4-4z" transform="translate(-8 -8.33)"/><path d="m196 152h4l-4-4-4 4z"/><path d="m156 236.33v-8l-4 4z" transform="translate(-8 -8.33)"/><path d="m112 220v4l4-4-4-4z"/><path d="m104 244.33h-4l4 4h8l-4-4z" transform="translate(-8 -8.33)"/><path d="m88 236h4l-4-4z"/><path d="m52 72v4l4-4-4-4z"/></g><g fill="none"><path d="m0 0h320"/><path d="m320 320h-320"/></g></svg>