<svg viewBox="0 0 320 320" xmlns="http://www.w3.org/2000/svg"><g fill="#c4bb8e"><path d="m320 56.33v8l4-4v-4z" transform="translate(-8 -8.33)"/><path d="m312 100v4h4v-4l-4-4z"/><path d="m312 116v4l4-4-4-4z"/><g transform="translate(-8 -8.33)"><path d="m312 104.33v4h4v-8h-4z"/><path d="m312 84.33v12h4v-16h-4z"/><path d="m308 140.33h-32v-80h-8v4h4v100h4v-20h40v-4z"/><path d="m308 124.33-4 4v8h12v-12z"/><path d="m308 68.33v8h8v-8z"/><path d="m308 52.33-4 4v8h12v-12z"/><path d="m308 112.33h-4v8h12v-8z"/><path d="m308 36.33v12h4l4-4v-4h-4z"/><path d="m308 88.33v-8h-12v12h12z"/><path d="m304 108.33h4v-8l-4-4h-8v12z"/></g><path d="m288 104h4v4h-4z"/><path d="m300 36.33 4-4h-8l-4 4z" transform="translate(-8 -8.33)"/><path d="m296 124.33v12h4v-16h-4z" transform="translate(-8 -8.33)"/><path d="m296 76.33h8v-4l-8-8h-8v12z" transform="translate(-8 -8.33)"/><path d="m296 60.33h4v-8h-8l-4 4v4z" transform="translate(-8 -8.33)"/><path d="m296 48.33h8v-8h-16v8z" transform="translate(-8 -8.33)"/><path d="m292 120.33v-12l-4-4h-8v20h12z" transform="translate(-8 -8.33)"/><path d="m292 96.33v-4l-4-4h-8v12h12z" transform="translate(-8 -8.33)"/><path d="m280 24v4h4z"/><g transform="translate(-8 -8.33)"><path d="m284 128.33h-4v8h12v-4l-4-4z"/><path d="m280 80.33v4h12v-4z"/><path d="m284 72.33v-12h-4v16h4z"/><path d="m280 40.33h4v-12h-8l-4 4v8z"/><path d="m280 56.33h4v-12h-8l-4 4v8z"/><path d="m260 60.33h-40v-36h4l-4-4h-4v4h-4v4h4v36h48l4-4z"/><path d="m260 52.33v4h8v-4z"/><path d="m264 32.33h4v-4h-8l-4 4z"/><path d="m260 48.33h8v-12h-16v12z"/></g><path d="m244 44h4v4h-4z"/><path d="m244 56.33h4v-8h-8l-4 4v4z" transform="translate(-8 -8.33)"/><path d="m244 44.33h4v-12l-4 4h-8v8z" transform="translate(-8 -8.33)"/><path d="m224 28.33v12h8v-8h-4v-4z" transform="translate(-8 -8.33)"/><path d="m224 44.33v12h8v-8l-4-4z" transform="translate(-8 -8.33)"/><path d="m220 120.33h-24v4h-4v4h4v24h8v-4h-4v-24h24v24h-20l4 4h20v-32z" transform="translate(-8 -8.33)"/><path d="m216 204.33v-32h-4v40l4-4z" transform="translate(-8 -8.33)"/><path d="m216 136.33 4 4v-12h-12z" transform="translate(-8 -8.33)"/><path d="m204 56h4v4h-4z"/><path d="m212 144.33h4l-12-12v12z" transform="translate(-8 -8.33)"/><path d="m200 20h4v4h-4z"/><path d="m200 60h4v4h-4z"/><path d="m196 196h4v4h-4z"/><path d="m208 196.33v-4h-4v8h4z" transform="translate(-8 -8.33)"/><path d="m208 180.33v-8h-4l-4-4v20h4l4-4z" transform="translate(-8 -8.33)"/><path d="m196 24h4v4h-4z"/><path d="m196 64h4v4h-4z"/><path d="m204 216.33v4h4v-8h-4z" transform="translate(-8 -8.33)"/><path d="m200 204.33v-12h-12v12l4 4h8z" transform="translate(-8 -8.33)"/><path d="m196 172.33v-4h-8v4z" transform="translate(-8 -8.33)"/><path d="m192 148.33v-20h-16l-4 4h16v32h8l-4-4v-4h4v-4h-4z" transform="translate(-8 -8.33)"/><path d="m188 180.33v8h8v-12h-8z" transform="translate(-8 -8.33)"/><path d="m176 0h4v4h-4z"/><path d="m188 220.33h8l4-4v-4h-20v8z" transform="translate(-8 -8.33)"/><path d="m184 164.33v-4h-12v8h12z" transform="translate(-8 -8.33)"/><path d="m184 152.33v-16h-20v20h20z" transform="translate(-8 -8.33)"/><path d="m172 12v4h4z"/><path d="m184 104.33-4-4h-4v4z" transform="translate(-8 -8.33)"/><path d="m180 208.33h4v-8h-8l-4 4v4z" transform="translate(-8 -8.33)"/><path d="m180 12.33h-8v4h4z" transform="translate(-8 -8.33)"/><path d="m176 172.33h-4v8h12v-4l-4-4z" transform="translate(-8 -8.33)"/><path d="m176 216.33v-4h-4v8h4z" transform="translate(-8 -8.33)"/><path d="m176 196.33h4l4-4v-8h-16v8l4 4z" transform="translate(-8 -8.33)"/><path d="m168 12h-4l4 4z"/><path d="m176 40.33v-4h-4l-4 4z" transform="translate(-8 -8.33)"/><path d="m164 44v4h4z"/><path d="m168 128.33h-72v4h-4v4h4v36h-4v4h4v40l4 4v-88h72v-4z" transform="translate(-8 -8.33)"/><path d="m160 100h4v4h-4z"/><path d="m160 72h4v4h-4z"/><path d="m160 20h4v4h-4z"/><path d="m156 168h4v4h-4z"/><path d="m160 4h-4l4 4z"/><path d="m168 104.33-4-4h-4v4z" transform="translate(-8 -8.33)"/><path d="m164 196.33h-8v8h8l4-4z" transform="translate(-8 -8.33)"/><path d="m160 160.33-4 4v8h12v-12z" transform="translate(-8 -8.33)"/><path d="m152 44h4v4h-4z"/><path d="m152 36h4v4h-4z"/><path d="m152 56h4v4h-4z"/><path d="m164 220.33h4v-12h-8l-4 4v8z" transform="translate(-8 -8.33)"/><path d="m156 188.33v4h8v-4z" transform="translate(-8 -8.33)"/><path d="m148 28h4v4h-4z"/><path d="m156 84.33h8v-4h-8z" transform="translate(-8 -8.33)"/><path d="m160 24.33-4-4-4 4z" transform="translate(-8 -8.33)"/><path d="m156 184.33h4v-8h-8l-4 4v4z" transform="translate(-8 -8.33)"/><path d="m152 136.33v12h8v-12z" transform="translate(-8 -8.33)"/><path d="m148 0h-4l4 4z"/><path d="m156 44.33h-8l4 4z" transform="translate(-8 -8.33)"/><path d="m156 52.33h-8v4h4z" transform="translate(-8 -8.33)"/><path d="m144 80h4v4h-4z"/><path d="m152 208.33v-8h-4v12h4z" transform="translate(-8 -8.33)"/><path d="m152 192.33-4-4h-8v8h12z" transform="translate(-8 -8.33)"/><path d="m144 72-4 4h4z"/><path d="m144 52h-4l4 4z"/><path d="m140 28h4v4h-4z"/><path d="m148 152.33v8h4l4-4v-4z" transform="translate(-8 -8.33)"/><path d="m140 208h4v4h-4z"/><path d="m148 168.33v4h4v-8h-4z" transform="translate(-8 -8.33)"/><path d="m144 96.33v4h8v-4z" transform="translate(-8 -8.33)"/><path d="m144 220.33v-8h-8v4l4 4z" transform="translate(-8 -8.33)"/><path d="m144 204.33v-4h-8v8h8z" transform="translate(-8 -8.33)"/><path d="m140 92.33h8v-4h-4z" transform="translate(-8 -8.33)"/><path d="m136 28h-4l4 4z"/><path d="m144 80.33h-8l4 4z" transform="translate(-8 -8.33)"/><path d="m140 136.33h-4v12h12v-8l-4-4z" transform="translate(-8 -8.33)"/><path d="m136 168.33-4 4v12h12v-16z" transform="translate(-8 -8.33)"/><path d="m132 92v-4h-4z"/><path d="m128 44v4l4-4z"/><path d="m136 92.33v-4h-8v4z" transform="translate(-8 -8.33)"/><path d="m124 64h4v4h-4z"/><path d="m128 56-4 4h4z"/><path d="m132 152.33h-4v8l4 4h12v-12z" transform="translate(-8 -8.33)"/><path d="m136 192.33v-4h-12v8h8z" transform="translate(-8 -8.33)"/><path d="m132 208.33v-8h-4l-8 8v4h12z" transform="translate(-8 -8.33)"/><path d="m120 136h4v4h-4z"/><path d="m128 228.33h28v28h4v-28h52v28h4v-44h-4v12h-92l4 4z" transform="translate(-8 -8.33)"/><path d="m128 220.33h4v-4h-12v4z" transform="translate(-8 -8.33)"/><path d="m120 92v-4l-4 4z"/><path d="m124 136.33v4h8v-4z" transform="translate(-8 -8.33)"/><path d="m120 176.33h-8v12h8v-4h8v-8z" transform="translate(-8 -8.33)"/><path d="m116 76v-4h-4z"/><path d="m120 164.33v8h8v-4l-4-4z" transform="translate(-8 -8.33)"/><path d="m120 204.33v-12h-8v8l4 4z" transform="translate(-8 -8.33)"/><path d="m108 56h4v4h-4z"/><path d="m116 144.33v12l4 4h4v-16z" transform="translate(-8 -8.33)"/><path d="m112 136.33h-8v4h16v-4z" transform="translate(-8 -8.33)"/><path d="m108 96h-4l4 4z"/><path d="m108 100.33v-4h-8v4z" transform="translate(-8 -8.33)"/><path d="m104 148.33v8h8v-12h-8z" transform="translate(-8 -8.33)"/><path d="m104 164.33v8h12v-8l-4-4h-8z" transform="translate(-8 -8.33)"/><path d="m96 168h4v4h-4z"/><path d="m104 188.33v8h4v-12h-4z" transform="translate(-8 -8.33)"/><path d="m96 192h4v4h-4z"/><path d="m104 212.33v8h12v-8l-4-4h-8z" transform="translate(-8 -8.33)"/><path d="m96 104.33v4h4l4-4z" transform="translate(-8 -8.33)"/><path d="m88 48v4h4l4-4-4-4z"/><path d="m100 68.33-8-8v12h4z" transform="translate(-8 -8.33)"/><path d="m96 224.33v4h24v-4h-20v-4h-4z" transform="translate(-8 -8.33)"/><path d="m100 44.33v-8h-8v8z" transform="translate(-8 -8.33)"/><path d="m92 80.33v-4l-4-4h-8v8z" transform="translate(-8 -8.33)"/><path d="m80 128h4v4h-4z"/><path d="m80 168h4v4h-4z"/><path d="m88 68.33v-4l-4-4h-4v8z" transform="translate(-8 -8.33)"/><path d="m76 112h4l-4-4z"/><path d="m76 132h4v4h-4z"/><path d="m76 172h4v4h-4z"/><path d="m84 56.33h4v-16h-8l-4 4v12z" transform="translate(-8 -8.33)"/><path d="m84 36.33h4v-4l-4-4v4h-4l4-4h-8v8z" transform="translate(-8 -8.33)"/><path d="m72 136h4v4h-4z"/><path d="m72 176h4v4h-4z"/><path d="m68 76.33-4 4h12v-4z" transform="translate(-8 -8.33)"/><path d="m68 60.33v12h4l4-4v-8z" transform="translate(-8 -8.33)"/><path d="m64 48.33v8h8v-8z" transform="translate(-8 -8.33)"/><path d="m64 44.33h8v-12h-8l-4 4 4 4z" transform="translate(-8 -8.33)"/><path d="m64 68.33v-4h-16v12h12l4-4z" transform="translate(-8 -8.33)"/><path d="m48 48h4v4h-4z"/><path d="m52 40.33h4l-8-8v4h-4v4z" transform="translate(-8 -8.33)"/><path d="m52 52.33h8v-8h-16v8z" transform="translate(-8 -8.33)"/><path d="m52 60.33v-4h-8v4z" transform="translate(-8 -8.33)"/><path d="m36 24v4l4-4z"/><path d="m32 56h4v4h-4z"/><path d="m36 72.33h-4v8h12v-8z" transform="translate(-8 -8.33)"/><path d="m40 40.33v-8l-8 8z" transform="translate(-8 -8.33)"/><path d="m32 52.33v4l4 4 4-4v-12h-12l4 4z" transform="translate(-8 -8.33)"/></g><g fill="none"><path d="m0 0h320"/><path d="m320 320h-320"/></g></svg>