<svg viewBox="0 0 640 640" xmlns="http://www.w3.org/2000/svg"><g fill="#c4bb8e"><path d="m431.36 291h-16l-8 8v8h-8l24 24v-16l16-16z" transform="translate(160.64 45)"/><path d="m584 576v-8l-8 8z"/><path d="m528 232v-8l-8 8z"/><path d="m345.71 213.35h11.31v11.31h-11.31z" transform="matrix(.70710678 -.70710678 .70710678 .70710678 108.69 357.59)"/><path d="m335.36 211h16l-8-8z" transform="translate(160.64 45)"/><path d="m327.36 571h16l-8-8z" transform="translate(160.64 45)"/><path d="m319.36 547h-32v8h-8l-8 8 8 8h8v-8h16l8-8h16z" transform="translate(160.64 45)"/><path d="m255.36 171v56h8v-64h-8z" transform="translate(160.64 45)"/><path d="m239.36 163v56h8v-64h-8z" transform="translate(160.64 45)"/><path d="m217.71 149.35h11.31v11.31h-11.31z" transform="matrix(.70710678 -.70710678 .70710678 .70710678 116.46 248.34)"/><path d="m223.36 571h-8v8h24l-8-8z" transform="translate(160.64 45)"/><path d="m217.71 197.35h11.31v11.31h-11.31z" transform="matrix(.70710678 -.70710678 .70710678 .70710678 82.51 262.4)"/><path d="m217.71 181.35h11.31v11.31h-11.31z" transform="matrix(.70710678 -.70710678 .70710678 .70710678 93.83 257.71)"/><path d="m217.71 165.35h11.31v11.31h-11.31z" transform="matrix(.70710678 -.70710678 .70710678 .70710678 105.14 253.02)"/><path d="m201.71 149.35h11.31v11.31h-11.31z" transform="matrix(.70710678 -.70710678 .70710678 .70710678 111.77 237.02)"/><path d="m201.71 165.35h11.31v11.31h-11.31z" transform="matrix(.70710678 -.70710678 .70710678 .70710678 100.46 241.71)"/><path d="m201.71 181.35h11.31v11.31h-11.31z" transform="matrix(.70710678 -.70710678 .70710678 .70710678 89.14 246.4)"/><path d="m201.71 197.35h11.31v11.31h-11.31z" transform="matrix(.70710678 -.70710678 .70710678 .70710678 77.83 251.08)"/><path d="m199.36 555-16 16 8 8 8-8 8 8 8-8z" transform="translate(160.64 45)"/><path d="m344 32h8v8h-8z"/><path d="m183.36 163v56h8v-64h-8z" transform="translate(160.64 45)"/><path d="m344 16h-8l8 8z"/><path d="m183.36-37v-8h-8l-8 8z" transform="translate(160.64 45)"/><path d="m336 48v8h8z"/><path d="m167.36 171v56h8v-64h-8z" transform="translate(160.64 45)"/><path d="m328 24v8h8z"/><path d="m328 616h8v8h-8z"/><path d="m159.36 19h-8v8h16z" transform="translate(160.64 45)"/><path d="m312 48h8v8h-8z"/><path d="m312 0h8v8h-8z"/><path d="m312 112h8v8h-8z"/><path d="m151.36 51h-8l-8 8h16z" transform="translate(160.64 45)"/><path d="m127.36 67v8h8l8-8z" transform="translate(160.64 45)"/><path d="m127.36 563 8-8-8-8z" transform="translate(160.64 45)"/><path d="m288 584v8l8-8v-8h-8z"/><path d="m119.36 83v8h16v-8z" transform="translate(160.64 45)"/><path d="m119.36 523v16l8-8z" transform="translate(160.64 45)"/><path d="m280 592v8l8-8-8-8z"/><path d="m272 176v8h8z"/><path d="m111.36 531v-16l-8 8z" transform="translate(160.64 45)"/><path d="m264 120h8v8h-8z"/><path d="m264 192h8v8h-8z"/><path d="m95.36 107h16v-8h-16z" transform="translate(160.64 45)"/><path d="m95.36 131-8 8h16z" transform="translate(160.64 45)"/><path d="m95.36 499v16l8-8z" transform="translate(160.64 45)"/><path d="m256 160-8 8h8z"/><path d="m95.36 75v-8h-16v8z" transform="translate(160.64 45)"/><path d="m87.36 243v8h16l-8-8z" transform="translate(160.64 45)"/><path d="m248 560h8v8h-8z"/><path d="m87.36 539h8v-8l-8-8z" transform="translate(160.64 45)"/><path d="m87.36 315h-16l8 8h8z" transform="translate(160.64 45)"/><path d="m79.36 267v-8h-16v8z" transform="translate(160.64 45)"/><path d="m240 296v-8l-8 8z"/><path d="m240 168h-8l8 8z"/><path d="m232 528h8v8h-8z"/><path d="m232 568h8v8h-8z"/><path d="m232 248-8 8h8z"/><path d="m224 232v8l8-8z"/><path d="m224 520h-8l8 8 8-8z"/><path d="m216 560h8v8h-8z"/><path d="m55.36 539h8v-8l-8-8z" transform="translate(160.64 45)"/><path d="m55.36 299h-8v8h16z" transform="translate(160.64 45)"/><path d="m55.36 483h-64v8h64z" transform="translate(160.64 45)"/><path d="m47.36 323h16l-8-8z" transform="translate(160.64 45)"/><path d="m208 232h8v8h-8z"/><path d="m208 304h8v8h-8z"/><path d="m200 320h8v8h-8z"/><path d="m39.36 523v16h8v-24h-8z" transform="translate(160.64 45)"/><path d="m31.36 147h16v-8h-8z" transform="translate(160.64 45)"/><path d="m39.36 67h8l8-8h-16l-8 8z" transform="translate(160.64 45)"/><path d="m39.36 155h-16l8 8z" transform="translate(160.64 45)"/><path d="m184 336h8v8h-8z"/><path d="m23.36 523v8h8v-16h-8z" transform="translate(160.64 45)"/><path d="m184 32h8l-8-8-8 8z"/><path d="m176 336-8 8h8z"/><path d="m15.36-29h-16v8h8z" transform="translate(160.64 45)"/><path d="m168 560v8l8-8z"/><path d="m176 576-8-8v8z"/><path d="m-.64 211h-16l8 8h24v-24l-8 8v8z" transform="translate(160.64 45)"/><path d="m-6.29 197.35h11.31v11.31h-11.31z" transform="matrix(.70710678 -.70710678 .70710678 .70710678 16.91 104.01)"/><path d="m7.36 235h-16l8 8z" transform="translate(160.64 45)"/><path d="m-6.29 245.35h11.31v11.31h-11.31z" transform="matrix(.70710678 -.70710678 .70710678 .70710678 -17.03 118.06)"/><path d="m-.64 387v-24h-8v32h8z" transform="translate(160.64 45)"/><path d="m144 480h8v8h-8z"/><path d="m152 464h-8l8 8z"/><path d="m144 256 8-8-8-8-8 8h8z"/><path d="m144 280h-8l8 8 8-8z"/><path d="m-16.64 507v8h8v16h8v-16l-8-8z" transform="translate(160.64 45)"/><path d="m-16.64 387-8 8h16z" transform="translate(160.64 45)"/><path d="m-16.64 459h8v-8h-24l8 8z" transform="translate(160.64 45)"/><path d="m136 424h8v8h-8z"/><path d="m-22.29 245.35h11.31v11.31h-11.31z" transform="matrix(.70710678 -.70710678 .70710678 .70710678 -21.72 106.75)"/><path d="m136 448v8l8-8z"/><path d="m136 568h8v8h-8z"/><path d="m-24.64 507v-8h-16v8h8v8l8 8z" transform="translate(160.64 45)"/><path d="m-32.64 387h-8v8h16v-8z" transform="translate(160.64 45)"/><path d="m136 352h8l-8-8-8 8z"/><path d="m-30.29 285.35h11.31v11.31h-11.31z" transform="matrix(.70710678 -.70710678 .70710678 .70710678 -52.35 112.81)"/><path d="m-32.64 211h-24v-8h-8v16h48v-8l-8-8v8z" transform="translate(160.64 45)"/><path d="m-38.29 181.35h11.31v11.31h-11.31z" transform="matrix(.70710678 -.70710678 .70710678 .70710678 18.85 76.69)"/><path d="m-24.64 283h8v8l8-8v-8h-24l-8-8v16z" transform="translate(160.64 45)"/><path d="m128 512v8h8z"/><path d="m136 536-8-8v8z"/><path d="m-38.29 197.35h11.31v11.31h-11.31z" transform="matrix(.70710678 -.70710678 .70710678 .70710678 7.53 81.38)"/><path d="m-46.29 285.35h11.31v11.31h-11.31z" transform="matrix(.70710678 -.70710678 .70710678 .70710678 -57.03 101.5)"/><path d="m-40.64 427h16v-8h-16z" transform="translate(160.64 45)"/><path d="m120 536 8-8h-8z"/><path d="m-40.64 507-8-8v8h-8v8h8v8h-8v8h16v-8h8v-8h-8z" transform="translate(160.64 45)"/><path d="m-48.64 403v8h8l8-8z" transform="translate(160.64 45)"/><path d="m-48.64 307h16l-8-8z" transform="translate(160.64 45)"/><path d="m-40.64 203h-16l8 8z" transform="translate(160.64 45)"/><path d="m-40.64 443 8-8h-16v8z" transform="translate(160.64 45)"/><path d="m112 504h8v-8h-8l-8 8z"/><path d="m104 464h8v8h-8z"/><path d="m-54.29 181.35h11.31v11.31h-11.31z" transform="matrix(.70710678 -.70710678 .70710678 .70710678 14.16 65.38)"/><path d="m-48.64 163h16v-8h-24z" transform="translate(160.64 45)"/><path d="m-48.64 259h-16l8 8z" transform="translate(160.64 45)"/><path d="m104 488 8-8h-8z"/><path d="m-56.64 387h8v-8h-8v-16h-8v32h8z" transform="translate(160.64 45)"/><path d="m-64.64 307h16l-8-8z" transform="translate(160.64 45)"/><path d="m-62.29 285.35h11.31v11.31h-11.31z" transform="matrix(.70710678 -.70710678 .70710678 .70710678 -61.72 90.18)"/><path d="m-62.29 269.35h11.31v11.31h-11.31z" transform="matrix(.70710678 -.70710678 .70710678 .70710678 -50.41 85.5)"/><path d="m-64.64 179v16h8v-16z" transform="translate(160.64 45)"/><path d="m-56.64 123-8-8-8 8z" transform="translate(160.64 45)"/><path d="m-72.64 283 8-8-8-8z" transform="translate(160.64 45)"/><path d="m-78.29 253.35h11.31v11.31h-11.31z" transform="matrix(.70710678 -.70710678 .70710678 .70710678 -43.78 69.5)"/><path d="m-88.64 267 8 8v-16h-8z" transform="translate(160.64 45)"/><path d="m-80.64 195-8-8-8 8z" transform="translate(160.64 45)"/></g><path d="m640 640h-640" fill="#9a9678"/><path d="m0 0h640" fill="#9a9678"/></svg>