<svg viewBox="0 0 320 320" xmlns="http://www.w3.org/2000/svg"><g fill="#8d8e79"><path d="m204 252v-4h-4z"/><path d="m204 244v-4h-4z"/><path d="m204 236v-4h-4z"/><path d="m204 228v-4h-4z"/><path d="m312 96v-4-4l-4 4z"/><path d="m308 32v4l-4 4 4 4 4 4v-4-4-4-4l-4-4z"/><path d="m308 128v4l4-4v-4-4l-4 4z"/><path d="m308 144h4l-4-4z"/><path d="m308 156h4v4h-4z"/><path d="m304 148h4v4h-4z"/><path d="m308 20 4-4h-4-4-4-4-4-4-4-4-4-4-4-4l4 4h4 4l4 4v-4h4 4 4 4v4l4 4v-4-4h4z"/><path d="m256 16h-4-4-4-4-4-4-4-4-4-4l4 4 4 4 4 4v-4-4h4 4 4v4h4v-4h4 4 4 4l4-4h-4z"/><path d="m248 28h4l-4-4z"/><path d="m196 152h-4-4-4l4 4h4 4 4v4 4 4h4v-4-4-4-4h-4z"/><path d="m108 24.33h-84v56h4v-4l4-4 4-4h-8v-4h8v4l4-4-4-4h-8v-16l4-4h-4v-12h8l4 4h4v-4h12v12l4-4v-8h12v4l4-4h12v4l4 4v-8h8v8h8l4-4 4-4v-4zm0 8h-4v-4h4z" transform="translate(-8 -8.33)"/></g><g fill="none"><path d="m0 0h320"/><path d="m320 320h-320"/></g></svg>