<svg viewBox="0 0 320 320" xmlns="http://www.w3.org/2000/svg"><g fill="#b0a87d"><path d="m316 52.33v12h-12v-8l4-4h8l-4-4h-4v-12l-4-4-4 4h-12v-4l-4-4v12h-12v-8l4-4-4-4-4 4v4h-12l4 4h8v12h-16v-12h4v-4h-8v12h-12v-8l-4-4v8h-8v-12h4l-4-4h-4v36h56v80h40v-4h-12v-8l4-4h8v8l4-4v-24l-4-4v8h-4v-8h4l4-4-4-4v4h-4v-16h4v4h4v-4l-4-4h-8v-8h8l4-4v-8zm-84 0v4h-8v-12h4l4 4zm16 0v4h-12v-4l4-4h8zm8 4h-4v-4h4zm12 0h-8v-4h8zm40 24v12h-12v-12zm-20-36v-4h16v8h-16zm0 12 4-4h8v8h-12zm-12 0h-4v-8l4-4h8v12zm8 4v16h-4v-16zm8 76h-12v-8h8l4 4zm0-24v12h-12v-20h8l4 4zm0-16v4h-12v-12h8l4 4zm0-12h-12v-4h12zm0-8h-4v-12h8l4 4 4 4v4zm8 48v12h-4v-16h4zm0-8h-4v-4h4zm0-8h-4v-12h8l4 4v8zm12 4h4v8h-12v-8z" transform="translate(-8 -8.33)"/><path d="m300 140h4v4h-4z"/><path d="m300 156h4v4h-4z"/><path d="m296 148h4v4h-4z"/><path d="m292 140h4v4h-4z"/><path d="m292 156h4v4h-4z"/><path d="m288 148h4v4h-4z"/><path d="m284 140h4v4h-4z"/><path d="m284 156h4v4h-4z"/><path d="m280 148h4v4h-4z"/><path d="m276 140h4v4h-4z"/><path d="m276 156h4v4h-4z"/><path d="m272 148h4v4h-4z"/><path d="m268 140h4v4h-4z"/><path d="m268 156h4v4h-4z"/><path d="m216 120.33h-16v20h24v-20zm-4 16h-8v-12l4 4 4 4 4 4zm8-8v4l-4-4-4-4h8z" transform="translate(-8 -8.33)"/><path d="m204 20h4v4h-4z"/><path d="m204 28h4v4h-4z"/><path d="m204 36h4v4h-4z"/><path d="m204 44h4v4h-4z"/><path d="m204 52h4v4h-4z"/><path d="m200 56h4v4h-4z"/><path d="m200 48h4v4h-4z"/><path d="m200 40h4v4h-4z"/><path d="m200 32h4v4h-4z"/><path d="m200 24h4v4h-4z"/><path d="m208 180.33v4h-8l-4-4v-16l-4-4h-8v-28h-84v92h112v-48h-4zm-24-16h8v4h-8zm8 8v16h-4v-16zm-8 4v4h-12v-8h8zm-12-8v-8h8v8zm-8-16v-16h16v20h-16zm0 8h4v12h-12v-8l4-4zm4 16v4h-4v-4zm-4 12v4h-8v-4zm-12-44v-8h8v12h-8zm0 8h4v4l-4 4h-4v-8zm0 12v8h-4v-8zm-16-20v-8h8l4 4v8h-12zm0 8h8v12h-12l-4-4v-8zm8 16v16h-12v-12l4-4zm-16-20v-4h4v4zm-4-12h8v4h-8zm0 36h-4v-8h4l4 4v4zm4 4v8h-8v4h-8v-12zm-4-32v16h-4l-4-4v-12zm-20-8h16v4h-16zm0 16v-8h8v12h-8zm0 16v-8h8l4 4v8h-12zm0 8h4v4h-4zm0 16v-8h4v12h-4zm0 8h4v4h-4zm12 16v4h-12v-12h8l4 4zm0-12-4-4v-8h8v12zm16 16h-12v-4h12zm0-16v8h-12v-4l4-4 4-4h4zm0-8h-8v-8h12v4zm12 20v4h-4l-4-4v-4h8zm0-12v4h-8v-8h8zm8 16h-4v-4h4zm0-16v8h-4v-12h4zm0-8h-12v-8h8l4 4zm0-12h-4v-4l4-4h8v8zm16 28v8h-12v-8l4-4h8zm-4-8h-8v-8h8l4 4zm4-12v-8h16v8l-4 4h-8zm8 24v4h-4v-8h4zm0-8h-4v-4l4-4h8v8zm24 8-4 4h-16v-8h20zm0-20v12h-8l-4-4v-12h12zm8 20v4h-4v-8h4zm0-8h-4v-4h4zm0-12v4h-4v-8h4z" transform="translate(-8 -8.33)"/><path d="m200 236h4l-4-4z"/><path d="m200 252h4l-4-4z"/><path d="m196 240h4v4h-4z"/><path d="m196 224h4v4h-4z"/><path d="m196 60h4v4h-4z"/><path d="m196 52h4v4h-4z"/><path d="m196 44h4v4h-4z"/><path d="m196 36h4v4h-4z"/><path d="m196 28h4v4h-4z"/><path d="m192 232h4v4h-4z"/><path d="m192 248h4v4h-4z"/><path d="m188 240h4v4h-4z"/><path d="m188 224h4v4h-4z"/><path d="m184 132h4v4h-4z"/><path d="m184 124h4v4h-4z"/><path d="m184 116h4v4h-4z"/><path d="m184 4h4v4h-4z"/><path d="m184 232h4v4h-4z"/><path d="m184 248h4v4h-4z"/><path d="m180 240h4v4h-4z"/><path d="m180 28h4v4h-4z"/><path d="m180 120h4v4h-4z"/><path d="m180 128h4v4h-4z"/><path d="m180 136h4v4h-4z"/><path d="m180 224h4v4h-4z"/><path d="m184 16v-4h-4l-4 4h4z"/><path d="m176 232h4v4h-4z"/><path d="m176 248h4v4h-4z"/><path d="m172 240h4v4h-4z"/><path d="m176 12h-4l4 4z"/><path d="m172 224h4v4h-4z"/><path d="m172 24h4v-4h-4l-4 4z"/><path d="m168 232h4v4h-4z"/><path d="m168 248h4v4h-4z"/><path d="m164 240h4v4h-4z"/><path d="m168 44h-4l4 4z"/><path d="m164 224h4v4h-4z"/><path d="m160 16h4 4l-4-4h-4z"/><path d="m160 28v4l4-4z"/><path d="m160 232h4v4h-4z"/><path d="m160 248h4v4h-4z"/><path d="m156 240h4v4h-4z"/><path d="m160 96v-4h-4z"/><path d="m156 44h4v4h-4z"/><path d="m156 20h4v4h-4z"/><path d="m156 224h4v4h-4z"/><path d="m160 8-4-4h-4v4h4z"/><path d="m152 232h4v4h-4z"/><path d="m152 28h4v4h-4z"/><path d="m152 248h4v4h-4z"/><path d="m152 104v-4h-4l-4 4h4z"/><path d="m148 44-4 4h4z"/><path d="m144 12v4l4-4z"/><path d="m144 0v4h4z"/><path d="m144 64h4v4h-4z"/><path d="m140 72v4l4-4z"/><path d="m136 40h4 4l-4-4h-4z"/><path d="m136 52v4h4 4l-4-4z"/><path d="m140 68v-4h-4-4v4h4z"/><path d="m132 80v4l4-4z"/><path d="m132 28v4h4z"/><path d="m132 44-4 4h4z"/><path d="m128 72h-4v4h4 4z"/><path d="m128 92h4l-4-4z"/><path d="m128 56h-4-4v4h4z"/><path d="m112 88v4h4l4-4h-4z"/><path d="m116 76-4-4h-4v4h4z"/><path d="m104 96v4h4z"/><path d="m96 100v-4l-4 4z"/><path d="m96 56v-4-4l-4 4h-4v4h4z"/><path d="m84 160h4v4h-4z"/><path d="m84 152h4v4h-4z"/><path d="m84 144h4v4h-4z"/><path d="m84 136h4v4h-4z"/><path d="m84 128h4v4h-4z"/><path d="m92 68.33v-20h12v-8l4-4h-8v8h-8v-8l-4-4v4h-12v-8l-4 4v12h-8v-4l-4-4-4 4h-12v-8h-4v8h-8l-4 4h12v12l-4 4 4 4h4v4h-4v-4l-4 4-4 4h12v8h16v-4h-12v-12h16v8l-4 4 4 4 4-4h8v4h4v-8h8l4 4 4-4h-4zm-40-8h-8v-4h8zm8 0h-4v-4h4zm0-12v4h-16v-8h16zm4 8v-8h8v8zm12 8v4l-4 4h-4v-12h8zm12 4h-8v-8h4l4 4zm0-24v12h-12v-12l4-4h8z" transform="translate(-8 -8.33)"/><path d="m80 132h4v4h-4z"/><path d="m80 140h4v4h-4z"/><path d="m80 148h4v4h-4z"/><path d="m80 156h4v4h-4z"/><path d="m80 164h4v4h-4z"/><path d="m76 160h4v4h-4z"/><path d="m76 152h4v4h-4z"/><path d="m76 144h4v4h-4z"/><path d="m76 136h4v4h-4z"/><path d="m76 168h4v4h-4z"/><path d="m72 140h4v4h-4z"/><path d="m72 148h4v4h-4z"/><path d="m72 156h4v4h-4z"/><path d="m72 164h4v4h-4z"/><path d="m72 172h4v4h-4z"/><path d="m28 28 4-4h-4z"/></g><g fill="none"><path d="m0 0h320"/><path d="m320 320h-320"/></g></svg>