<svg viewBox="0 0 320 320" xmlns="http://www.w3.org/2000/svg"><g fill="#495150"><path d="m308 144h-4-4-4-4-4-4-4-4-4-4v4h4 4 4 4 4 4 4 4 4 4 4v-4z"/><path d="m304 152h-4-4-4-4-4-4-4-4-4v4h4 4 4 4 4 4 4 4 4 4 4v-4h-4z"/><path d="m276 140h4 4 4 4 4 4 4 4v-4h-4-4-4-4-4-4-4-4-4-4v4h4z"/><path d="m264 160v4h4 4 4 4 4 4 4 4 4 4 4l4-4h-4-4-4-4-4-4-4-4-4-4-4v-4h-4z"/><path d="m264 68v-4-4-4h-4v4l-4-4h-4-4-4-4-4-4-4-4-4-4-4-4v4h-4v4h-4l4 4 4 4h4 4 4 4 4 4 4 4 4v-4l4 4 4-4 4 4h4 4z"/><path d="m212 140v-4h-4-4-4v4h-4v4h-4l4 4h4 4 4v4 4h-4l4 4v4 4 4 4 4 4h4 4 4v-4-4h-4l4-4v-4-4-4-4-4-4-4-4-4h-4z"/><path d="m204 252h-4-4-4-4-4-4-4-4-4-4-4-4-4v-4h-4v4 4h4 4 4 4 4 4 4 4 4 4 4 4 4 4 4v-4-4h-4z"/><path d="m196 68h4v4h-4z"/><path d="m200 136h-4-4-4v4h-4v4h-4v4h4 4l4-4 4-4z"/><path d="m160 224h4 4 4 4 4 4 4 4 4 4 4v-4h-4-4-4-4-4-4-4-4-4-4-4-4-4v4h4z"/><path d="m160 232h4 4 4 4 4 4 4 4 4 4 4v-4h-4-4-4-4-4-4-4-4-4-4-4-4-4v4h4z"/><path d="m160 240h4 4 4 4 4 4 4 4 4 4 4v-4h-4-4-4-4-4-4-4-4-4-4-4-4-4v4h4z"/><path d="m160 248h4 4 4 4 4 4 4 4 4 4 4v-4h-4-4-4-4-4-4-4-4-4-4-4-4-4v4h4z"/><path d="m148 236h-4-4v4h4 4z"/><path d="m148 228v-4-4h-4-4-4-4-4-4-4-4-4-4-4-4-4-4-4v4 4 4l4 4h4 4l4 4h4 4 4 4 4 4 4 4l4-4 4-4z"/><path d="m104 32 4-4v-4-4l-4 4-4 4-4 4v4 4l4-4z"/><path d="m96 56h-4-4l4 4h4z"/><path d="m88 240h4 4l-4-4h-4z"/><path d="m92 44h4v-4h-4-4-4v4h4z"/><path d="m88 212h4l-4-4z"/><path d="m88 180v-4-4-4h-4v4h-4v4h-4v4h4v4h4 4z"/><path d="m72 180v4h4 4l-4-4z"/><path d="m76 76h4 4l4-4 4-4v-4-4l-4 4-4 4v4h-4-4-4v4z"/><path d="m68 72h-4-4-4l-4 4h4 4 4 4l4-4z"/><path d="m48 72h-4-4-4-4-4-4-4-4l4 4h4 4 4 4 4 4 4 4v-4z"/></g><g fill="none"><path d="m0 0h320"/><path d="m320 320h-320"/></g></svg>