<svg viewBox="0 0 640 640" xmlns="http://www.w3.org/2000/svg"><g fill="#aea67c"><path d="m439.36 299-16 16v16l24-24z" transform="translate(160.64 45)"/><path d="m335.36 211 8 8 8-8z" transform="translate(160.64 45)"/><path d="m319.36 555h-8l-8 8h-16v8h8l8 8 8-8h16l8-8-8-8z" transform="translate(160.64 45)"/><path d="m255.36 155v-8h-16v-8h-48v8h-16v8h-16v80h16v-8h-8v-64h8v8h8v-16h8v40l8 8 8-8-8-8 8-8-8-8 8-8-8-8 8-8 8 8 8-8 8 8-8 8 8 8-8 8 8 8-8 8 8 8-8 8-8-8-8 8-8-8-8 8v8h48v-64h8v64h-8v8h16v-64h8v64h-8v8h16v-80z" transform="translate(160.64 45)"/><path d="m209.71 157.35h11.31v11.31h-11.31z" transform="matrix(.70710678 -.70710678 .70710678 .70710678 108.46 245.02)"/><path d="m209.71 173.35h11.31v11.31h-11.31z" transform="matrix(.70710678 -.70710678 .70710678 .70710678 97.14 249.71)"/><path d="m209.71 189.35h11.31v11.31h-11.31z" transform="matrix(.70710678 -.70710678 .70710678 .70710678 85.83 254.4)"/><path d="m215.36 563h-8l8 8h16l-8-8z" transform="translate(160.64 45)"/><path d="m207.36-21v-8h-16v8z" transform="translate(160.64 45)"/><path d="m199.36 571-8 8 8 8h16v-16l-8 8z" transform="translate(160.64 45)"/><path d="m183.36 211v-40l-8 8v48h16v-8h-8z" transform="translate(160.64 45)"/><path d="m336 616v8l8 8 8-8-8-8z"/><path d="m336 104h8v-8h-8l-8 8z"/><path d="m328 48h8v8h-8z"/><path d="m336 24h-8l8 8z"/><path d="m328 0v8l8-8z"/><path d="m328 64h-8l8 8z"/><path d="m320 24h8v8h-8z"/><path d="m320 112h8v8h-8z"/><path d="m312 80h-8v8h8l8-8z"/><path d="m312 48h-8l8 8z"/><path d="m296 608v-8l-8 8z"/><path d="m296 600v-8h-8z"/><path d="m288 600v-8l-8 8z"/><path d="m127.36 531-8 8 8 8z" transform="translate(160.64 45)"/><path d="m280 560h-8l8 8z"/><path d="m272 288h8v8h-8z"/><path d="m280 176h-8l8 8z"/><path d="m272 568h8v8h-8z"/><path d="m103.36 523 8-8v-8h-8l-8 8v8h-8l8 8h8v8h8v8l8-8z" transform="translate(160.64 45)"/><path d="m264 544h-8l8 8z"/><path d="m264 296v-8h-8z"/><path d="m256 208h8v8h-8z"/><path d="m264 176h-8l8 8z"/><path d="m256 160h8v8h-8z"/><path d="m256 584h8l-8-8z"/><path d="m95.36 499-8 8v8h8z" transform="translate(160.64 45)"/><path d="m248 176v8l8-8z"/><path d="m87.36 227v-8h-16v8z" transform="translate(160.64 45)"/><path d="m79.36 531h-8v-8l-8-8v8h-8l8 8v16l8-8h16v-16h-8z" transform="translate(160.64 45)"/><path d="m79.36 155h16v-8h-16z" transform="translate(160.64 45)"/><path d="m79.36 243h-16v8h8z" transform="translate(160.64 45)"/><path d="m232 152h8v8h-8z"/><path d="m79.36 131-8-8h-8v8z" transform="translate(160.64 45)"/><path d="m232 240h8v-8h-8l-8 8z"/><path d="m224 368v-8h-8z"/><path d="m216 264h8v8h-8z"/><path d="m55.36 203v8h8l8-8z" transform="translate(160.64 45)"/><path d="m63.36 83 8-8-16-16-8 8z" transform="translate(160.64 45)"/><path d="m47.36 515v24h8v-24z" transform="translate(160.64 45)"/><path d="m39.36 331h-8v8h16z" transform="translate(160.64 45)"/><path d="m200 320h-8l8 8z"/><path d="m192 360v8l8-8z"/><path d="m31.36 523v8h-8v-16h-8l-8 8 8 8h-8v-16h-8v16h-8v-16h-8v-8h8v-8h-8l-8 8v16h8v8h-8v-8l-8-8v8h-8v8h-16v-8h8v-8h-8v-8h-8v32h104v-24h-8z" transform="translate(160.64 45)"/><path d="m23.36 339v-8h-16v8z" transform="translate(160.64 45)"/><path d="m23.36 315h-16l8 8h8z" transform="translate(160.64 45)"/><path d="m9.71-26.65h11.31v11.31h-11.31z" transform="matrix(.70710678 -.70710678 .70710678 .70710678 179.98 49.71)"/><path d="m1.71 237.35h11.31v11.31h-11.31z" transform="matrix(.70710678 -.70710678 .70710678 .70710678 -9.03 121.38)"/><path d="m15.36 291h-16v8h8z" transform="translate(160.64 45)"/><path d="m168 304h8l-8-8-8 8z"/><path d="m168 248-8 8h8z"/><path d="m-.64 195h-16l8 8z" transform="translate(160.64 45)"/><path d="m-14.29 237.35h11.31v11.31h-11.31z" transform="matrix(.70710678 -.70710678 .70710678 .70710678 -13.72 110.06)"/><path d="m-.64 259-8-8-8 8z" transform="translate(160.64 45)"/><path d="m-8.64 467h-24l8 8h16z" transform="translate(160.64 45)"/><path d="m-8.64 403v-8h-32v-8h16v-8h8v8l8 8v-24h-24l-8 8-8-8h-8v8h8v8h-8v24h8v-8h16l-8 8h8v8l8-8v-8h8l-8 8h16z" transform="translate(160.64 45)"/><path d="m-8.64 355h-8l-8 8h16z" transform="translate(160.64 45)"/><path d="m-8.64 331h-16l-8 8h24z" transform="translate(160.64 45)"/><path d="m152 256h8l-8-8-8 8z"/><path d="m-16.64 419h-8v8h16z" transform="translate(160.64 45)"/><path d="m-16.64 491h8v-8h-24l8 8z" transform="translate(160.64 45)"/><path d="m-16.64 307v-16l-8 8z" transform="translate(160.64 45)"/><path d="m144 328h-8l8 8z"/><path d="m136 248 8 8v-8z"/><path d="m-30.29 189.35h11.31v11.31h-11.31z" transform="matrix(.70710678 -.70710678 .70710678 .70710678 15.53 84.69)"/><path d="m136 432v8l8-8z"/><path d="m-16.64 435h-16l8 8z" transform="translate(160.64 45)"/><path d="m136 288v8l8-8-8-8z"/><path d="m-24.64 355v-8h-16v8z" transform="translate(160.64 45)"/><path d="m136 256v-8l-8 8z"/><path d="m-24.64 283h-16l8 8z" transform="translate(160.64 45)"/><path d="m128 528-8 8h8z"/><path d="m-38.29 293.35h11.31v11.31h-11.31z" transform="matrix(.70710678 -.70710678 .70710678 .70710678 -60.35 109.5)"/><path d="m-40.64 235h16l-8-8z" transform="translate(160.64 45)"/><path d="m120 208h-8l8 8 8-8z"/><path d="m-46.29 173.35h11.31v11.31h-11.31z" transform="matrix(.70710678 -.70710678 .70710678 .70710678 22.16 68.69)"/><path d="m-40.64 451v8h16l-8-8z" transform="translate(160.64 45)"/><path d="m120 232-8 8h8v8l8-8z"/><path d="m-32.64 211-8-8-8 8z" transform="translate(160.64 45)"/><path d="m120 552h8v8h-8z"/><path d="m120 544h-8l8 8z"/><path d="m120 528h-8l8 8z"/><path d="m-48.64 467h-8v8h24v-8z" transform="translate(160.64 45)"/><path d="m112 464h8v8h-8z"/><path d="m104 544h8v8h-8z"/><path d="m112 480-8 8h8z"/><path d="m104 392h8v8h-8z"/><path d="m-54.29 293.35h11.31v11.31h-11.31z" transform="matrix(.70710678 -.70710678 .70710678 .70710678 -65.03 98.18)"/><path d="m-56.64 283 8 8 8-8v-16l-8-8-8 8 8 8z" transform="translate(160.64 45)"/><path d="m104 224v8l8-8z"/><path d="m104 504 8-8h-8z"/><path d="m104 528v8l8-8z"/><path d="m104 240h8l-8-8z"/><path d="m104 248v8h8z"/><path d="m-70.29 261.35h11.31v11.31h-11.31z" transform="matrix(.70710678 -.70710678 .70710678 .70710678 -47.09 77.5)"/><path d="m96 344v8l8-8-8-8z"/><path d="m96 400v8h8z"/><path d="m-70.29 277.35h11.31v11.31h-11.31z" transform="matrix(.70710678 -.70710678 .70710678 .70710678 -58.41 82.18)"/><path d="m-72.64 195v-8h-16l8 8z" transform="translate(160.64 45)"/><path d="m80 312v8h8v-8l-8-8z"/><path d="m80 392h8l-8-8z"/></g><path d="m640 640h-640" fill="#9a9678"/><path d="m0 0h640" fill="#9a9678"/></svg>