<svg viewBox="0 0 320 320" xmlns="http://www.w3.org/2000/svg"><g fill="#3d403c"><path d="m256 56 4 4v-4-4z"/><path d="m248 72h4 4l-4-4z"/><path d="m220 176v-4l-4 4z"/><path d="m212 136v4l4-4z"/><path d="m208 188v-4l-4 4z"/><path d="m200 64v4 4h4 4l-4-4z"/><path d="m200 140v-4l-4 4z"/><path d="m196 144v-4l-4 4z"/><path d="m192 148h4l-4-4-4 4z"/><path d="m140 236h4 4v-4-4l-4 4z"/><path d="m140 240v-4l-4 4z"/><path d="m96 236h-4l4 4h4 4l-4-4z"/><path d="m88 236h4l-4-4z"/><path d="m80 184v-4h-4z"/><path d="m52 72v4l4-4-4-4z"/></g><g fill="none"><path d="m0 0h320"/><path d="m320 320h-320"/></g></svg>