<svg viewBox="0 0 320 320" xmlns="http://www.w3.org/2000/svg"><g fill="#c4bb8e"><path d="m312 48v4 4l4-4v-4z"/><path d="m312 100v4h4v-4l-4-4z"/><path d="m312 116v4l4-4-4-4z"/><path d="m304 96v4h4v-4-4h-4z"/><path d="m304 140h4v4h-4z"/><path d="m304 156h4v4h-4z"/><path d="m304 76v4 4 4h4v-4-4-4-4h-4z"/><path d="m300 148h4v4h-4z"/><path d="m300 132h-4-4-4-4-4-4-4-4v-4-4-4-4-4-4-4-4-4-4-4-4-4-4-4-4-4-4-4-4h-4-4v4h4v4 4 4 4 4 4 4 4 4 4 4 4 4 4 4 4 4 4 4 4 4 4 4 4 4h4v-4h4v-4h-4v-4-4-4h4 4 4 4 4 4 4 4 4 4v-4h-4z"/><path d="m300 116-4 4v4 4h4 4 4v-4-4-4h-4z"/><path d="m300 60v4 4h4 4v-4-4h-4z"/><path d="m300 44-4 4v4 4h4 4 4v-4-4-4h-4z"/><path d="m300 104h-4v4 4h4 4 4v-4-4h-4z"/><path d="m300 28v4 4 4h4l4-4v-4h-4z"/><path d="m296 140h4v4h-4z"/><path d="m300 80v-4-4h-4-4-4v4 4 4h4 4 4z"/><path d="m296 156h4v4h-4z"/><path d="m292 148h4v4h-4z"/><path d="m296 100h4v-4-4l-4-4h-4-4v4 4 4h4z"/><path d="m288 140h4v4h-4z"/><path d="m288 104h4v4h-4z"/><path d="m288 156h4v4h-4z"/><path d="m292 28 4-4h-4-4l-4 4h4z"/><path d="m288 116v4 4 4h4v-4-4-4-4h-4z"/><path d="m284 148h4v4h-4z"/><path d="m288 68h4 4v-4l-4-4-4-4h-4-4v4 4 4h4z"/><path d="m288 52h4v-4-4h-4-4l-4 4v4h4z"/><path d="m288 40h4 4v-4-4h-4-4-4-4v4 4h4z"/><path d="m280 140h4v4h-4z"/><path d="m284 112v-4-4-4l-4-4h-4-4v4 4 4 4 4h4 4 4z"/><path d="m284 88v-4l-4-4h-4-4v4 4 4h4 4 4z"/><path d="m280 156h4v4h-4z"/><path d="m280 24v4h4z"/><path d="m276 148h4v4h-4z"/><path d="m276 120h-4v4 4h4 4 4v-4l-4-4z"/><path d="m272 140h4v4h-4z"/><path d="m272 72v4h4 4 4v-4h-4-4z"/><path d="m276 64v-4-4-4h-4v4 4 4 4h4z"/><path d="m272 156h4v4h-4z"/><path d="m272 32h4v-4-4-4h-4-4l-4 4v4 4h4z"/><path d="m272 48h4v-4-4-4h-4-4l-4 4v4 4h4z"/><path d="m252 52h-4-4-4-4-4-4-4-4-4-4v-4-4-4-4-4-4-4-4-4h4l-4-4h-4v4h-4v4h4v4h-4v4h4v4h-4v4h4v4h-4v4h4v4h-4v4h4v4h4 4 4 4 4 4 4 4 4 4 4 4l4-4h-4z"/><path d="m252 44v4h4 4v-4h-4z"/><path d="m256 24h4v-4h-4-4l-4 4h4z"/><path d="m252 40h4 4v-4-4-4h-4-4-4-4v4 4 4h4z"/><path d="m244 44h4v4h-4z"/><path d="m236 48h4v-4-4h-4-4l-4 4v4h4z"/><path d="m236 36h4v-4-4-4l-4 4h-4-4v4 4h4z"/><path d="m216 20v4 4 4h4 4v-4-4h-4v-4z"/><path d="m216 36v4 4 4h4 4v-4-4l-4-4z"/><path d="m220 116.33h-24v4h-4v4h4v4h-4v4h4v4h-4v4h4v4h32v-28zm4 8v16h-24v-20h24z" transform="translate(-8 -8.33)"/><path d="m208 180v-4-4-4h-4v4 4 4 4 4l4-4z"/><path d="m204 116 4 4 4 4v-4-4h-4z"/><path d="m204 56h4v4h-4z"/><path d="m200 52h4v4h-4z"/><path d="m200 44h4v4h-4z"/><path d="m200 36h4v4h-4z"/><path d="m200 28h4v4h-4z"/><path d="m200 20h4v4h-4z"/><path d="m200 60h4v4h-4z"/><path d="m200 120-4-4v4 4 4h4 4 4l-4-4z"/><path d="m200 228h4l-4-4z"/><path d="m200 244h4l-4-4z"/><path d="m196 196h4v4h-4z"/><path d="m200 188v-4h-4v4 4h4z"/><path d="m200 172v-4l-4-4-4-4-4-4v4 4 4 4l4 4h4 4z"/><path d="m196 24h4v4h-4z"/><path d="m196 32h4v4h-4z"/><path d="m196 40h4v4h-4z"/><path d="m196 48h4v4h-4z"/><path d="m196 56h4v4h-4z"/><path d="m196 64h4v4h-4z"/><path d="m196 232h4v4h-4z"/><path d="m196 248h4v4h-4z"/><path d="m196 208v4h4v-4-4h-4z"/><path d="m192 240h4v4h-4z"/><path d="m192 224h4v4h-4z"/><path d="m192 196v-4-4-4h-4-4-4v4 4 4l4 4h4 4z"/><path d="m188 232h4v4h-4z"/><path d="m188 248h4v4h-4z"/><path d="m184 240h4v4h-4z"/><path d="m184 136h4v4h-4z"/><path d="m184 224h4v4h-4z"/><path d="m184 156h-4-4v4h4 4z"/><path d="m180 116h4v4h-4z"/><path d="m180 232h4v4h-4z"/><path d="m180 248h4v4h-4z"/><path d="m180 168v4 4 4h4v-4-4-4-4h-4z"/><path d="m176 240h4v4h-4z"/><path d="m180 136h4v-4h-4v-4h4v-4h-4v-4h-4-4-4-4-4-4-4-4-4-4-4l-4 4h4 4 4 4 4 4 4 4 4 4 4v4 4 4 4 4 4 4h4 4l-4-4v-4h4v-4h-4z"/><path d="m176 0h4v4h-4z"/><path d="m180 212h4 4l4-4v-4h-4-4-4-4-4v4 4h4z"/><path d="m176 224h4v4h-4z"/><path d="m172 232h4v4h-4z"/><path d="m172 248h4v4h-4z"/><path d="m172 16h4l-4-4z"/><path d="m168 240h4v4h-4z"/><path d="m172 200h4v-4-4h-4-4l-4 4v4h4z"/><path d="m172 160v-4-4h-4-4v4 4h4z"/><path d="m172 4h-4-4v4h4z"/><path d="m168 224h4v4h-4z"/><path d="m168 208v-4h-4v4 4h4z"/><path d="m168 188h4l4-4v-4-4h-4-4-4-4v4 4l4 4z"/><path d="m168 28h-4l-4 4h4 4z"/><path d="m168 12h-4l4 4z"/><path d="m164 128h-4-4v4 4 4 4 4h4 4 4 4v-4-4-4-4-4h-4z"/><path d="m164 232h4v4h-4z"/><path d="m164 248h4v4h-4z"/><path d="m164 48h4l-4-4z"/><path d="m164 168v4h4 4 4v-4l-4-4h-4-4z"/><path d="m160 240h4v4h-4z"/><path d="m160 20h4v4h-4z"/><path d="m160 72h4v4h-4z"/><path d="m160 224h4v4h-4z"/><path d="m156 232h4v4h-4z"/><path d="m156 168h4v4h-4z"/><path d="m160 4h-4l4 4z"/><path d="m156 248h4v4h-4z"/><path d="m160 96-4-4h-4v4h4z"/><path d="m156 188h-4-4v4 4h4 4l4-4z"/><path d="m152 152-4 4v4 4h4 4 4v-4-4-4h-4z"/><path d="m152 44h4v4h-4z"/><path d="m152 36h4v4h-4z"/><path d="m152 56h4v4h-4z"/><path d="m156 212h4v-4-4-4h-4-4l-4 4v4 4h4z"/><path d="m148 180v4h4 4v-4h-4z"/><path d="m148 28h4v4h-4z"/><path d="m148 76h4 4v-4h-4-4z"/><path d="m152 16-4-4-4 4h4z"/><path d="m148 176h4v-4-4h-4-4l-4 4v4h4z"/><path d="m144 128v4 4 4h4 4v-4-4-4h-4z"/><path d="m144 80h4v4h-4z"/><path d="m148 0h-4l4 4z"/><path d="m148 36h-4-4l4 4z"/><path d="m148 44h-4-4v4h4z"/><path d="m144 100v4l4-4z"/><path d="m144 200v-4-4h-4v4 4 4h4z"/><path d="m144 184-4-4h-4-4v4 4h4 4 4z"/><path d="m144 92h-4-4v4h4 4z"/><path d="m144 72-4 4h4z"/><path d="m144 52h-4l4 4z"/><path d="m140 28h4v4h-4z"/><path d="m140 144v4 4h4l4-4v-4h-4z"/><path d="m140 208h4v4h-4z"/><path d="m140 160v4h4v-4-4h-4z"/><path d="m136 212v-4-4h-4-4v4l4 4z"/><path d="m136 196v-4h-4-4v4 4h4 4z"/><path d="m132 84h4 4v-4h-4z"/><path d="m136 28h-4l4 4z"/><path d="m136 72h-4-4l4 4z"/><path d="m132 128h-4v4 4 4h4 4 4v-4-4l-4-4z"/><path d="m128 160-4 4v4 4 4h4 4 4v-4-4-4-4h-4z"/><path d="m132 92v-4h-4z"/><path d="m128 44v4l4-4z"/><path d="m128 56-4 4h4z"/><path d="m124 120h-4-4-4-4-4-4-4-4-4v4h-4v4h4v4h-4v4h4v4h-4v4h4v4h-4v4h4v4h-4v4h4v4h-4v4h4v4 4 4 4 4 4 4 4 4 4l4 4v-4-4-4-4-4-4-4-4-4-4-4-4-4-4-4-4-4-4-4-4-4-4h4 4 4 4 4 4 4 4 4 4l-4-4z"/><path d="m124 144h-4v4 4l4 4h4 4 4v-4-4-4h-4-4z"/><path d="m128 184v-4h-4-4-4v4 4h4 4z"/><path d="m124 200v-4-4h-4l-4 4-4 4v4h4 4 4z"/><path d="m120 136h4v4h-4z"/><path d="m120 212h4v-4h-4-4-4v4h4z"/><path d="m120 92v-4l-4 4z"/><path d="m116 128v4h4 4v-4h-4z"/><path d="m112 168h-4-4v4 4 4h4 4v-4h4 4v-4-4h-4z"/><path d="m116 76v-4h-4z"/><path d="m112 156v4 4h4 4v-4l-4-4z"/><path d="m112 196v-4-4-4h-4-4v4 4l4 4z"/><path d="m108 56h4v4h-4z"/><path d="m108 136v4 4 4l4 4h4v-4-4-4-4h-4z"/><path d="m104 128h-4-4v4h4 4 4 4v-4h-4z"/><path d="m108 96h-4l4 4z"/><path d="m96 140v4 4h4 4v-4-4-4h-4-4z"/><path d="m96 156v4 4h4 4 4v-4-4l-4-4h-4-4z"/><path d="m96 168h4v4h-4z"/><path d="m96 180v4 4h4v-4-4-4h-4z"/><path d="m96 192h4v4h-4z"/><path d="m96 204v4 4h4 4 4v-4-4l-4-4h-4-4z"/><path d="m92 44-4 4v4h4l4-4z"/><path d="m88 96v4h4l4-4h-4z"/><path d="m92 60-4-4-4-4v4 4 4h4z"/><path d="m88 216v4h4 4 4 4 4 4 4 4 4 4 4 4 4 4 4v4 4 4 4 4 4 4h4v-4h4v-4h-4v-4-4-4h4v-4h-4v-4h4 4 4 4 4 4 4 4 4 4 4 4 4v4 4 4 4 4 4 4h4v-4-4-4-4-4-4-4-4-4-4-4-4-4-4-4h-4v4 4 4 4 4 4 4h-4-4-4-4-4-4-4-4-4-4-4-4-4-4-4-4-4-4-4-4-4-4-4-4-4-4-4-4v-4h-4z"/><path d="m92 36v-4-4h-4-4v4 4h4z"/><path d="m80 128h4v4h-4z"/><path d="m80 136h4v4h-4z"/><path d="m80 144h4v4h-4z"/><path d="m80 152h4v4h-4z"/><path d="m80 160h4v4h-4z"/><path d="m80 168h4v4h-4z"/><path d="m76 164h4v4h-4z"/><path d="m76 156h4v4h-4z"/><path d="m76 148h4v4h-4z"/><path d="m76 140h4v4h-4z"/><path d="m76 132h4v4h-4z"/><path d="m80 60v-4l-4-4h-4v4 4h4z"/><path d="m76 172h4v4h-4z"/><path d="m72 168h4v4h-4z"/><path d="m72 160h4v4h-4z"/><path d="m72 152h4v4h-4z"/><path d="m72 144h4v4h-4z"/><path d="m72 136h4v4h-4z"/><path d="m76 48h4v-4-4-4-4h-4-4l-4 4v4 4 4h4z"/><path d="m76 28h4v-4l-4-4v4h-4l4-4h-4-4v4 4h4z"/><path d="m72 68v4h4 4 4v-4l-4-4h-4-4z"/><path d="m72 176h4v4h-4z"/><path d="m60 68-4 4h4 4 4v-4h-4z"/><path d="m60 52v4 4 4h4l4-4v-4-4h-4z"/><path d="m56 40v4 4h4 4v-4-4h-4z"/><path d="m56 36h4 4v-4-4-4h-4-4l-4 4 4 4z"/><path d="m56 60v-4h-4-4-4-4v4 4 4h4 4 4l4-4z"/><path d="m48 48h4v4h-4z"/><path d="m44 32h4l-4-4-4-4v4h-4v4h4z"/><path d="m44 44h4 4v-4-4h-4-4-4-4v4 4h4z"/><path d="m44 52v-4h-4-4v4h4z"/><path d="m36 24v4l4-4z"/><path d="m32 56h4v4h-4z"/><path d="m28 64h-4v4 4h4 4 4v-4-4h-4z"/><path d="m32 32v-4-4l-4 4-4 4h4z"/><path d="m24 44v4l4 4 4-4v-4-4-4h-4-4-4l4 4z"/></g><g fill="none"><path d="m0 0h320"/><path d="m320 320h-320"/></g></svg>