<svg viewBox="0 0 640 640" xmlns="http://www.w3.org/2000/svg"><g fill="#606161"><path d="m455.36-45v24l8-8v-16z" transform="translate(160.64 45)"/><path d="m431.36-37v8l8 8v-24h-8z" transform="translate(160.64 45)"/><path d="m423.36 531h-8v16h16v-16l-8-8z" transform="translate(160.64 45)"/><path d="m576 0h8v8h-8z"/><path d="m423.36 347v-16l-24-24-16 16 16 16h-8v-8h-8v-8l-24 24z" transform="translate(160.64 45)"/><path d="m399.36 195-8-8-8 8z" transform="translate(160.64 45)"/><path d="m375.36 203v-16l-8-8v8h-8v16z" transform="translate(160.64 45)"/><path d="m335.36 211-16 16v16h16l-8-8 8-8 8 8-8 8h16v-16z" transform="translate(160.64 45)"/><path d="m327.36 571 8 8v16h8v-24z" transform="translate(160.64 45)"/><path d="m311.36 571v16h-8v-8l-8-8v24h24v-16l8-8z" transform="translate(160.64 45)"/><path d="m456 0h8v8h-8z"/><path d="m271.36-37v8h-8v-16h-8v24h24v-24h-8z" transform="translate(160.64 45)"/><path d="m271.36 571v16h8v-16l-8-8z" transform="translate(160.64 45)"/><path d="m247.36 3v8l8-8h16v-8h-24v-8h-8v-32h-8v56l8-8z" transform="translate(160.64 45)"/><path d="m408 576h-8v8h-8v8h8l8 8v-8h8v-8h-8z"/><path d="m392 632 8-8h-8z"/><path d="m368 632h8v8h-8z"/><path d="m352 632v8h8v-8l-8-8z"/><path d="m167.36 587v8h8v-16h-8z" transform="translate(160.64 45)"/><path d="m71.36 11h56v-56h-8v32h-8v8h-40v-8h-8v-32h-8v56z" transform="translate(160.64 45)"/><path d="m95.36-21h8v-24h-8v16h-8v-16h-8v24z" transform="translate(160.64 45)"/><path d="m31.36 67-16 16 8 8h16l-8-8 8-8h8v-8z" transform="translate(160.64 45)"/><path d="m15.36-5h24l-8-8h-16l-8-8h-8v16z" transform="translate(160.64 45)"/><path d="m-72.64 587h16l-8-8z" transform="translate(160.64 45)"/><path d="m271.36 235h-16v-8h-16v8h-8v8h40z" transform="translate(160.64 45)"/><path d="m239.36 219h-48v8h-16v16h48l16-16z" transform="translate(160.64 45)"/><path d="m191.36 195v16l8-8z" transform="translate(160.64 45)"/><path d="m336 216v8l8-8z"/><path d="m159.36 235v8h16l-8-8z" transform="translate(160.64 45)"/><path d="m127.36 555h-8v-8h-8v8h-8v8h8v8h24v-8h-8z" transform="translate(160.64 45)"/><path d="m111.36 539h-40l-8 8v16h8v-8h16l8 8 16-16z" transform="translate(160.64 45)"/><path d="m71.36 507h8v-16h-8v-16l-8 8-8-8v16z" transform="translate(160.64 45)"/><path d="m49.71 557.35h11.31v11.31h-11.31z" transform="matrix(.70710678 -.70710678 .70710678 .70710678 -221.25 249.04)"/><path d="m55.36 555 8-8v-8h-88v8h56l16 16v-8z" transform="translate(160.64 45)"/><path d="m39.36 491h-48v16h24v-8l8 8h40v-8h-8v-8z" transform="translate(160.64 45)"/><path d="m31.36 163h-16l8 8z" transform="translate(160.64 45)"/><path d="m15.36 163h-16l8 8z" transform="translate(160.64 45)"/><path d="m7.36 227h8v-8h-24v8z" transform="translate(160.64 45)"/><path d="m160 240 8 8 8-8-8-8v8z"/><path d="m1.71 173.35h11.31v11.31h-11.31z" transform="matrix(.70710678 -.70710678 .70710678 .70710678 36.22 102.63)"/><path d="m7.36 155v-32l-8 8-8-8v32z" transform="translate(160.64 45)"/><path d="m-.64 419v-16h-8v32h8z" transform="translate(160.64 45)"/><path d="m152 440 8 8v-8z"/><path d="m-14.29 173.35h11.31v11.31h-11.31z" transform="matrix(.70710678 -.70710678 .70710678 .70710678 31.53 91.32)"/><path d="m-8.64 451v32h8v-48l-8 8z" transform="translate(160.64 45)"/><path d="m-16.64 195h16l-8-8z" transform="translate(160.64 45)"/><path d="m-8.64 171 8-8h-16l-8-8v16z" transform="translate(160.64 45)"/><path d="m144 224-8-8v8h-8l8 8z"/><path d="m-40.64 539h-24v8h32l8-8z" transform="translate(160.64 45)"/><path d="m-56.64 219h-8v8h48v-8z" transform="translate(160.64 45)"/><path d="m104 208v8l8-8z"/><path d="m112 224-8-8v8z"/><path d="m-64.64 403v104h8v-112h-8z" transform="translate(160.64 45)"/><path d="m-64.64 155h8v-32h-16v24h8l-8 8v8h8z" transform="translate(160.64 45)"/></g><path d="m640 640h-640" fill="#9a9678"/><path d="m0 0h640" fill="#9a9678"/></svg>