<svg viewBox="0 0 320 320" xmlns="http://www.w3.org/2000/svg"><g fill="#39442a" transform="translate(-8 -8.33)"><path d="m324 196.33-4 4-4-4v8l-8-8v8h-4v4l-4-4v8l-4-4v8l-4 4h8l-4 4h-4v4l-4 4-4-4v8l-4-4v8l8 8h-4v4l-4-4v8l-4 4h8l4 4-4 4h8l-4 4h-4v-4l-4 4-4-4v8h-4v4l-4-4-4 4-4-4v8l-8-8v8l-4 4h-4v4l-4-4v8h-4v12l-4-4v8h-4v4l4 4 4-4h16v4h8v-4h8l4 4 8-8 4 4h8v-4h4l4-4h8l8 8 4-4h4v-4h-8l-8-8v-8l8-8h4v-4l-4-4v-8l4-4v-8l4-4h4v-4h-8l8-8h-8l-4-4v-4h-4v-8l4-4v-8l4-4h8v-8z"/><path d="m228 204.33h8l4-4v-8l-4 4v-8l-4 4-4-4v4h-4l-4-4v4h-4v12h4l4-4v4z"/><path d="m224 92.33h4l4-4v4h32v-4l4 4h4v-12l-4-4-4 4-4-4v4h-4l-4-4-4 4-4-4-4 4-4-4v4h-4l-4-4-4 4-4-4v8l-4-4v8l4 4z"/><path d="m164 120.33h-4v-8l-4 4-4-4v-8l-4 4-4-4v4h-4l-4-4-4 4-4-4v8h-4v4l-4-4v4h-4v8l-4-4v4h-4l-4 4h64v-8l-4 4z"/><path d="m148 244.33v4h-4l-4-4v4h-4l-4-4-4 4h-4v-4l-4 4-4-4v8l-4-4v8l4 4h8l4-4v4h16v-4l4 4h8v-16l-4 4z"/><path d="m128 308.33h-4v-8l-4 4-4-4h-8l-4-4v8l-4-4v-8l-8 8-4-4-4 4-4-4v8l-4-4v12h4l4-4h8v4h4l4-4h8l4 4h4v4l4 4 4-4h8l-4-4z"/><path d="m60 136.33v-4l-4 4v-8l-4 4-4-4 8-8v-8l-4 4v-8l-4 4h-4v-12l-4 4h-4v-4l-4 4-4-4-4 4h-4v4h8v8h4v4l4 4v8l-8 8v4h-4l-4 4v8l8 8v12h12l-4-4 4-4h8l-4-4h8l-4-4 4-4v-8l-4 4v-8l-4 4-4-4h12v-4l4 4h8l-4-4z"/><path d="m56 268.33v-4l-4 4v-8l-4 4v-8h8l-4-4v-4h-4v-8l-4 4-4-4h8l-4-4v-8l-4 4v-8l-4 4-4-4-4 4-4-4-4 4h-8v12h4l4 4v4h4l4 4v8l4 4-4 4v8l-4 4 4 4v8l4 4-4 4v8l-8 8 4 4 4-4 4 4 8-8h8l4-4v-8l-4 4v-8l-4 4v-4h12l-4-4v-8l-4 4v-4h-4l-4-4h16l-4-4h8l-4-4z"/><path d="m12 152.33v-4l-4-4v8l4 4z"/></g><g fill="none"><path d="m0 0h320"/><path d="m320 320h-320"/></g></svg>