<svg viewBox="0 0 640 640" xmlns="http://www.w3.org/2000/svg"><g fill="#3c3b1e"><path d="m640 512v-8h-8z"/><path d="m471.36 43v-16l-8-8v32l8 8v16l-8 8h16v-40z" transform="translate(160.64 45)"/><path d="m471.36 419v16h-8l8 8 8-8v-16l-8-8z" transform="translate(160.64 45)"/><path d="m616 80h8l-8-8z"/><path d="m447.36 3v16l8-8z" transform="translate(160.64 45)"/><path d="m455.36 91-8-8-8 8z" transform="translate(160.64 45)"/><path d="m447.36 435v16h16z" transform="translate(160.64 45)"/><path d="m447.36 67-8 8h24v-8l-16-16v-16l-8 8h-16z" transform="translate(160.64 45)"/><path d="m592 64v8h8z"/><path d="m576 80-8 8h8z"/><path d="m415.36 11v-8l-8 8v16l8-8z" transform="translate(160.64 45)"/><path d="m407.36 59-8-8h-8v-16h8v-16l-16 16v8h-8l-8-8v16l8 8h8v8l-8 8h16l8 8 8-8h16z" transform="translate(160.64 45)"/><path d="m391.36-5v16l8-8z" transform="translate(160.64 45)"/><path d="m359.36 11v-16l-8 8v16h8z" transform="translate(160.64 45)"/><path d="m351.36 27h-8v8h24l-8-8z" transform="translate(160.64 45)"/><path d="m343.36 11-8 8 8 8z" transform="translate(160.64 45)"/><path d="m335.36 43v-16h-8v8h-8v16l-8 8h8v8l8-8h16l-8-8z" transform="translate(160.64 45)"/><path d="m327.36 3v-8l-8-8v32l8-8z" transform="translate(160.64 45)"/><path d="m319.36 19-24-24v16l8 8h8v16h8z" transform="translate(160.64 45)"/><path d="m295.36 387v8l-8 8h16v-16l-8-8z" transform="translate(160.64 45)"/><path d="m464 480-8-8v8z"/><path d="m287.36 99h16l-8-8z" transform="translate(160.64 45)"/><path d="m295.36 35v-8l-8 8v16l8-8z" transform="translate(160.64 45)"/><path d="m287.36 387v-16l-8 8v16h-16l16 16-8 8v8h-8l-8 8h32l8-8-8-8z" transform="translate(160.64 45)"/><path d="m287.36 59v-8l-8 8v16l8-8z" transform="translate(160.64 45)"/><path d="m432 488h8l-8-8-8 8z"/><path d="m263.36 51v-8l-8-8v32l8-8z" transform="translate(160.64 45)"/><path d="m247.36 443-8 8h32l-8-8z" transform="translate(160.64 45)"/><path d="m239.36 19v16l8-8z" transform="translate(160.64 45)"/><path d="m247.36 107 8 8 8-8h16l-16-16 16-16h-32l8 8-8 8v8h-8l-8 8z" transform="translate(160.64 45)"/><path d="m400 104v-8l-8 8v8h8z"/><path d="m167.36 419h-8l-8 8h32l-8-8z" transform="translate(160.64 45)"/><path d="m151.36 355v-24l-8 8v32l8-8z" transform="translate(160.64 45)"/><path d="m151.36 395 8-8v-16l-24 24z" transform="translate(160.64 45)"/><path d="m143.36 411v-8l-8-8v-32l-8 8v16l-8-8h-16l24 24v16l-8 8h16l8 8v-8h8l-8-8z" transform="translate(160.64 45)"/><path d="m119.36 363v-16l-8 8v16l8 8z" transform="translate(160.64 45)"/><path d="m-16.64 91v8l8-8v-16l-8 8z" transform="translate(160.64 45)"/><path d="m-24.64 59v16l8-8z" transform="translate(160.64 45)"/><path d="m-24.64 91v-16l-8 8-24-24v16l16 16v16l8 8-24 24h16l8 8 8-8h16l-8-8v-16l-8-8 8-8h-8z" transform="translate(160.64 45)"/><path d="m104 136v8h8z"/><path d="m-80.64 19v16l8-8z" transform="translate(160.64 45)"/><path d="m-80.64 99-8-8v-48l-8 8v32l-8-8-8 8 24 24-8 8h32z" transform="translate(160.64 45)"/><path d="m-88.64 299-8 8h16l8-8z" transform="translate(160.64 45)"/><path d="m-96.64 291-8 8v16l8-8z" transform="translate(160.64 45)"/><path d="m-104.64 27v16l8-8z" transform="translate(160.64 45)"/><path d="m56 640v-8l-8 8z"/><path d="m-104.64 59v-16l-8 8v16l8 8z" transform="translate(160.64 45)"/><path d="m48 368 8-8h-8z"/><path d="m-112.64 299v-8l-8-8v32l8-8z" transform="translate(160.64 45)"/><path d="m-128.64 179h16l8-8-8-8v8h-8z" transform="translate(160.64 45)"/><path d="m40 96v-8l-8 8 8 8z"/><path d="m-120.64 27v-16l-8 8v16h8z" transform="translate(160.64 45)"/><path d="m-128.64 315h-8l8 8v16l8 8v16h8v-40l-8-8z" transform="translate(160.64 45)"/><path d="m-128.64 211v16l8-8z" transform="translate(160.64 45)"/><path d="m32 632v8l8-8-8-8z"/><path d="m-128.64 371-8-8v16h8z" transform="translate(160.64 45)"/><path d="m-128.64 155v-8l-8 8v16l8-8z" transform="translate(160.64 45)"/><path d="m-128.64 115v-16l-16 16z" transform="translate(160.64 45)"/><path d="m24 504v8h8z"/><path d="m-136.64 259v-24l8-8h-16l-8 8v16l8 8z" transform="translate(160.64 45)"/><path d="m-136.64 211v-24l-8 8v16l8 8z" transform="translate(160.64 45)"/><path d="m16 424v8l8-8z"/><path d="m-144.64 83v16l8-8z" transform="translate(160.64 45)"/><path d="m16 632v8h8v-8l-8-8z"/><path d="m-144.64 107v-8l-8 8v16l8-8z" transform="translate(160.64 45)"/><path d="m-144.64 371v-16l-8 8v8h-8v16z" transform="translate(160.64 45)"/><path d="m-152.64 483h-8v16l8-8h16v-16l-8 8z" transform="translate(160.64 45)"/><path d="m8 544v8l8-8z"/><path d="m-152.64 291v8l8 8v-16l-8-8z" transform="translate(160.64 45)"/><path d="m-152.64 467v8l8-8v-16l-8 8z" transform="translate(160.64 45)"/><path d="m-152.64 547h8v-16l-8 8z" transform="translate(160.64 45)"/><path d="m8 624h8l-8-8z"/><path d="m-152.64 403v-8l8-8h-16v24h8z" transform="translate(160.64 45)"/><path d="m-152.64 219v-16l-8 8v16h8z" transform="translate(160.64 45)"/></g><path d="m640 640h-640" fill="#9a9678"/><path d="m0 0h640" fill="#9a9678"/></svg>