<svg viewBox="0 0 320 320" xmlns="http://www.w3.org/2000/svg"><g fill="#3a271b"><g transform="translate(-8 -8.33)"><path d="m328 152.33v-8l-4 4z"/><path d="m324 8.33h-4l8 8v-8z"/><path d="m324 96.33v4l4 4v-16l-4 4z"/><path d="m324 184.33v12l4 4v-16l-4-4z"/><path d="m324 224.33v12l4 4v-16l-4-4z"/><path d="m324 264.33v8h4v-8l-4-4z"/><path d="m324 320.33v4l4 4v-8l-4-4z"/><path d="m324 300.33v-8l-4 4v4h-4v4h4l4 4v4h4v-8h-4z"/><path d="m320 248.33h8v-8z"/><path d="m324 172.33-4 4 4 4z"/><path d="m324 76.33v-8l-4 4z"/></g><path d="m316 24v-4l-4 4 4 4z"/><path d="m312 84h4l-4-4z"/><path d="m312 220v-4l-4 4 4 4z"/><path d="m316 12.33v8h4v-12h-4z" transform="translate(-8 -8.33)"/><path d="m308 320h4l-4-4z"/><path d="m316 292.33-4 4 4 4z" transform="translate(-8 -8.33)"/><path d="m312 328.33v-8l-4 4z" transform="translate(-8 -8.33)"/><path d="m308 16.33v-4l4-4h-12v12h8z" transform="translate(-8 -8.33)"/><path d="m300 320.33v8h4v-8l-4-4z" transform="translate(-8 -8.33)"/><path d="m292 328.33h4v-8l-4 4z" transform="translate(-8 -8.33)"/><path d="m288 20.33h4v-12h-12l4 4h4z" transform="translate(-8 -8.33)"/><path d="m272 16.33v4h8v-12z" transform="translate(-8 -8.33)"/><path d="m268 8.33v4h8l-4-4z" transform="translate(-8 -8.33)"/><path d="m256 316v4h4v-4l-4-4z"/><path d="m264 16.33-4-4v-4h-12l8 8-4 4h12z" transform="translate(-8 -8.33)"/><path d="m244 320v-4l-4 4z"/><path d="m232 8.33h-8l4 4h4v8h8v-4z" transform="translate(-8 -8.33)"/><path d="m204 328.33h4v-8l-4 4z" transform="translate(-8 -8.33)"/><path d="m200 328.33v-8l-4 4z" transform="translate(-8 -8.33)"/><path d="m180 320v-4l-4 4z"/><path d="m160 316v4h4v-4l-4-4z"/><path d="m152 316v4h4v-4l-4-4z"/><path d="m152 324.33v4h4v-12l-4 4z" transform="translate(-8 -8.33)"/><path d="m124 320h4l-4-4z"/><path d="m120 12.33v4h4v-8h-4z" transform="translate(-8 -8.33)"/><path d="m108 320.33v8h4v-8l-4-4z" transform="translate(-8 -8.33)"/><path d="m104 8.33-8 8h12v-4l4-4z" transform="translate(-8 -8.33)"/><path d="m88 316v4h4v-4l-4-4z"/><path d="m88 16.33h8l-4-4z" transform="translate(-8 -8.33)"/><path d="m80 320.33v8h8z" transform="translate(-8 -8.33)"/><path d="m72 12.33v-4h-8v12h12l-4-4z" transform="translate(-8 -8.33)"/><path d="m68 328.33h4v-8l-4 4z" transform="translate(-8 -8.33)"/><path d="m44 312v4l4-4-4-4z"/><path d="m52 8.33h-8v4l-4 4h16l-4-4z" transform="translate(-8 -8.33)"/><path d="m32 316v4h4v-4l-4-4z"/><path d="m28 16.33v4h4v-8h-4z" transform="translate(-8 -8.33)"/><path d="m16 124v4l4-4-4-4z"/><path d="m12 208v4h4v-4l-4-4z"/><path d="m12 256v4l4-4-4-4z"/><path d="m12 320h4l-4-4z"/><path d="m20 312.33v-12l-8 8v4h4l4 4z" transform="translate(-8 -8.33)"/><path d="m16 136.33-4 4v16h8v-16l4-4z" transform="translate(-8 -8.33)"/><path d="m20 8.33h-4v8l4-4z" transform="translate(-8 -8.33)"/><path d="m8 216 4-4h-4z"/><path d="m20 100.33v-8l-8 8z" transform="translate(-8 -8.33)"/><path d="m16 124.33v4h4v-12l-4 4z" transform="translate(-8 -8.33)"/><path d="m8 284v4h4v-4l-4-4z"/><g transform="translate(-8 -8.33)"><path d="m16 36.33v-8h-4l-4 4 4 4z"/><path d="m16 56.33v-8l-8 8v8z"/><path d="m16 216.33v-8l-4 4v4h-4v8z"/><path d="m16 72.33-4-4-4 4z"/><path d="m12 176.33v4l4-4v-8l-4-4z"/><path d="m12 264.33v4l-4 4 4 4 4-4v-16l-4 4z"/><path d="m12 320.33v8h4v-8l-4-4z"/><path d="m12 296.33v-12l-4 4v8l4 4z"/><path d="m8 224.33v16h4v-12l4-4z"/><path d="m12 128.33v-4l-4 4v8l4-4z"/><path d="m12 104.33v-12l-4-4v24l4-4z"/><path d="m12 16.33v-4l-4 4v8l4-4z"/><path d="m8 200.33v8l4-4z"/></g></g><g fill="none"><path d="m0 0h320"/><path d="m320 320h-320"/></g></svg>