<svg viewBox="0 0 320 320" xmlns="http://www.w3.org/2000/svg"><g fill="#3a271b"><path d="m320 144v-4-4l-4 4z"/><path d="m316 0h-4l4 4 4 4v-4-4z"/><path d="m316 88v4l4 4v-4-4-4-4l-4 4z"/><path d="m316 176v4l4 4v-4-4l-4-4z"/><path d="m316 216v4 4 4l4 4v-4-4-4-4l-4-4z"/><path d="m316 256v4 4h4v-4-4l-4-4z"/><path d="m316 312v4l4 4v-4-4l-4-4z"/><path d="m316 292v-4-4l-4 4v4h-4v4h4l4 4v4h4v-4-4h-4z"/><path d="m312 240h4 4l-4-4z"/><path d="m312 192-4 4h4 4 4v-4-4-4l-4 4z"/><path d="m316 164-4 4 4 4v-4z"/><path d="m316 68v-4-4l-4 4z"/><path d="m316 24v-4l-4 4 4 4z"/><path d="m312 84h4l-4-4z"/><path d="m312 220v-4l-4 4 4 4z"/><path d="m308 4v4 4h4v-4-4-4h-4z"/><path d="m308 320h4l-4-4z"/><path d="m308 284-4 4 4 4v-4z"/><path d="m304 320v-4-4l-4 4z"/><path d="m300 8v-4l4-4h-4-4-4v4 4 4h4 4z"/><path d="m292 312v4 4h4v-4-4l-4-4z"/><path d="m284 320h4v-4-4l-4 4z"/><path d="m280 12h4v-4-4-4h-4-4-4l4 4h4v4z"/><path d="m264 8v4h4 4v-4-4-4l-4 4z"/><path d="m260 0v4h4 4l-4-4z"/><path d="m256 316v4h4v-4l-4-4z"/><path d="m256 8-4-4v-4h-4-4-4l4 4 4 4-4 4h4 4 4z"/><path d="m244 320v-4l-4 4z"/><path d="m224 0h-4-4l4 4h4v4 4h4 4v-4l-4-4z"/><path d="m196 320h4v-4-4l-4 4z"/><path d="m192 320v-4-4l-4 4z"/><path d="m180 320v-4l-4 4z"/><path d="m160 316v4h4v-4l-4-4z"/><path d="m152 316v4h4v-4l-4-4z"/><path d="m144 316v4h4v-4-4-4l-4 4z"/><path d="m124 320h4l-4-4z"/><path d="m112 4v4h4v-4-4h-4z"/><path d="m100 312v4 4h4v-4-4l-4-4z"/><path d="m96 0-4 4-4 4h4 4 4v-4l4-4h-4z"/><path d="m88 316v4h4v-4l-4-4z"/><path d="m80 8h4 4l-4-4z"/><path d="m72 312v4 4h4 4l-4-4z"/><path d="m64 4v-4h-4-4v4 4 4h4 4 4l-4-4z"/><path d="m60 320h4v-4-4l-4 4z"/><path d="m44 312v4l4-4-4-4z"/><path d="m44 0h-4-4v4l-4 4h4 4 4 4l-4-4z"/><path d="m32 316v4h4v-4l-4-4z"/><path d="m20 8v4h4v-4-4h-4z"/><path d="m16 120v4 4l4-4z"/><path d="m20 148-4-4-4 4h4z"/><path d="m12 208v4h4v-4l-4-4z"/><path d="m12 256v4l4-4-4-4z"/><path d="m12 320h4l-4-4z"/><path d="m12 304v-4-4-4l-4 4-4 4v4h4l4 4z"/><path d="m12 140v-4-4l4-4h-4-4l-4 4v4 4 4 4h4 4v-4z"/><path d="m12 0h-4v4 4l4-4z"/><path d="m8 216 4-4h-4z"/><path d="m12 92v-4-4l-4 4-4 4h4z"/><path d="m8 116v4h4v-4-4-4l-4 4z"/><path d="m8 284v4h4v-4l-4-4z"/><path d="m8 28v-4-4h-4l-4 4 4 4z"/><path d="m8 48v-4-4l-4 4-4 4v4 4l4-4z"/><path d="m8 208v-4-4l-4 4v4h-4v4 4l4-4z"/><path d="m8 64-4-4-4 4h4z"/><path d="m4 168v4l4-4v-4-4l-4-4v4 4z"/><path d="m4 256v4l-4 4 4 4 4-4v-4-4-4-4l-4 4z"/><path d="m4 312v4 4h4v-4-4l-4-4z"/><path d="m4 288v-4-4-4l-4 4v4 4l4 4z"/><path d="m0 216v4 4 4 4h4v-4-4-4l4-4h-4z"/><path d="m4 120v-4l-4 4v4 4l4-4z"/><path d="m4 96v-4-4-4l-4-4v4 4 4 4 4 4l4-4z"/><path d="m4 8v-4l-4 4v4 4l4-4z"/><path d="m0 192v4 4l4-4z"/></g><g fill="none"><path d="m0 0h320"/><path d="m320 320h-320"/></g></svg>