<svg viewBox="0 0 320 320" xmlns="http://www.w3.org/2000/svg"><g fill="#9e7a42"><path d="m320 216v-4-4l-4 4z"/><path d="m320 8h-4-4v4 4l-4 4 4 4 4-4 4-4-4-4h4z"/><path d="m316 104h-4l4 4 4-4v-4-4l-4 4z"/><path d="m316 128h-4l-4 4v4 4l4-4h4v-4l4 4v-4-4-4-4l-4 4z"/><path d="m320 312.33-4 4-4-4-4-4h-8l-4 4h-4v4h-8l-4-4-4 4-4 4-4-4h-8v4h-8v-4h-16l-4 4-4-4-4 4-4 4v-4h-4l-4-4-4-4-4 4h-8l-4 4h-8l-4-4h-8v-4h-4l-4 4-4-4h8l-4-4-4-4-4 4h-8l-4 4v4h-4v4h-4l-4-4h-8l-4 4-4-4v-4h-4l-4-4h-8l-4 4h-4v-4h-8l-4 4h-8v4h-4l-4 4-4-4-4-4-4-4-4 4h-8l-4 4-4 4-4-4-4 4-4-4-4-4h-8v16l4-4v-8l4 4v8l4-4h8l4 4 4-4 4 4v-8l4 4h8v-8l-4 4-4-4h8l4 4-4 4 4 4 4-4h8l4-4v8l4-4h4v-4l4 4 4-4 4 4 4-4 4 4h8v-8l-4 4-4-4h8l4 4v4h4l4 4 4-4h8l4 4h8l4-4 4-4 4-4v8l4-4 4 4h4v-4l4 4v4h12l4-4v4h12l-4-4 4-4v8l4-4 4-4v8h8l-4-4h4v4h16l4-4 4 4h8l4-4v4h12v-8l4 4h8l4-4h4v4l4 4h4v-4l4-4v8h4v-12l4 4 4-4 4 4 4 4 4-4 4 4v-8l4 4v-8zm-176 12h-4l4-4zm32-4h4v4zm68 4v-4h4z" transform="translate(-8 -8.33)"/><path d="m312 272v4h-4l-4 4-4 4v4 4l4-4 4-4v4 4l4-4 4-4v4 4h4v-4-4-4-4-4-4h-4z"/><path d="m312 248v4 4l4 4v-4-4l4 4v-4-4-4h-4z"/><path d="m312 200-4 4v4 4l-4 4 4 4 4-4 4 4v-4-4l-4-4h4 4v-4-4h-4z"/><path d="m312 72v4h-4v4h4l4 4 4-4v-4-4-4-4l-4 4z"/><path d="m312 56-4 4 4 4 4-4h4v-4-4-4l-4 4z"/><path d="m312 156v4l4 4 4-4v-4-4l-4 4z"/><path d="m8 120v-4-4l4-4v4 4l4 4 4-4 4 4 4 4v-4-4l-4-4v-4h-4v-4-4h-4-4-4-4l-4 4v4 4l4 4z"/><path d="m8 0h-4-4v4 4l4-4z"/><path d="m4 12h4 4l4 4v-4-4l-4-4-4 4-4-4v4z"/><path d="m8 192 4 4 4-4-4-4h4v4l4 4v-4-4l-4-4v-4h-4l-4-4h-4-4v4 4h4 4l-4 4-4-4v4 4l4 4z"/><path d="m8 248-4-4h4 4l-4 4v4 4l4 4v-4-4l4-4v4h-4l4 4 4 4 4-4-4-4v-4-4l-4-4h-4v-4l-4-4h-4-4v4h4l-4 4v4 4l4 4z"/><path d="m12 284.33v8l4 4v-8l4 4h8v-8l-4-4h-8l-4-4-4-4v8h4zm12 4h-4v-4z" transform="translate(-8 -8.33)"/><path d="m8 40 4 4 4-4-4-4v-4-4h-4-4l-4-4v4 4h4 4l-4 4-4-4v4 4h4z"/><path d="m8 80-4-4h4 4l-4 4h4 4l4-4-4-4-4-4-4-4-4 4-4-4v4 4 4 4h4z"/><path d="m12 168.33v-4l4 4h8l4-4-4-4-4-4h-8l-4-4v16l4 4zm8-4h-4v-4z" transform="translate(-8 -8.33)"/><path d="m0 272v4 4l4-4z"/></g><g fill="none"><path d="m0 0h320"/><path d="m320 320h-320"/></g></svg>