<svg viewBox="0 0 640 640" xmlns="http://www.w3.org/2000/svg"><g fill="#84593a"><path d="m479.36 451v-16l-8 8z" transform="translate(160.64 45)"/><path d="m640 464v-8h-8z"/><path d="m632 24 8 8v-8z"/><path d="m471.36 443-8-8-8 8 8 8h-16l8 8h-8v-24l-8 8v24h16v8l8 8h16v-16l-8-8h8v-8h-8zm0 24v8l-8-8z" transform="translate(160.64 45)"/><path d="m463.36 99h16v-8h-8z" transform="translate(160.64 45)"/><path d="m463.36 19 8 8v16h8v-24l-8-8z" transform="translate(160.64 45)"/><path d="m471.36-5h-16l8 8z" transform="translate(160.64 45)"/><path d="m463.36 35v-16l-8 8z" transform="translate(160.64 45)"/><path d="m455.36 27h-16l-8 8-16-16-8 8h8v16h-8l8 8h-8v-8l8-8-8-8h-8v8h-8v16h8l8 8h16l8-8-8-8h16l8-8v16l8 8h16l-8-8v-16h-8z" transform="translate(160.64 45)"/><path d="m439.36 11 8-8v-8h-8l-8 8h-16l16 16z" transform="translate(160.64 45)"/><path d="m431.36 75h-8l-8 8h16l8-8z" transform="translate(160.64 45)"/><path d="m584 56-8 8h8z"/><path d="m584 24-8 8h8z"/><path d="m399.36 3h16l-8-8z" transform="translate(160.64 45)"/><path d="m383.36 19-8-8-8 8h-16l-8-8v16h16l16 16h8v-8h-8v-8l8 8 8-8z" transform="translate(160.64 45)"/><path d="m536 48h-8l8 8 8-8z"/><path d="m536 120v-8h-8z"/><path d="m351.36 35 8 8h-8v-8h-8v-8l-16-16-8 8v16h8v-8h8v24l8-8v8h8l8 8h16l-8-8v-16z" transform="translate(160.64 45)"/><path d="m512 16-8 8h8z"/><path d="m343.36 3h8v-16l-16 16z" transform="translate(160.64 45)"/><path d="m335.36 59h-8l8 8h16l-8-8z" transform="translate(160.64 45)"/><path d="m335.36-13-16-16v16z" transform="translate(160.64 45)"/><path d="m480 0v8h8z"/><path d="m303.36 387 8 8h-8v8h-16v16h16l16-16v-16l-8-8z" transform="translate(160.64 45)"/><path d="m311.36 27v-8h-8v8h-8l8 8v16l-8 8h-8v8l-16 16h16l8-8v-8h8v-8h8v-8h8v-16h-8z" transform="translate(160.64 45)"/><path d="m295.36-21v16l8-8z" transform="translate(160.64 45)"/><path d="m295.36 11h-16l16 16 8-8z" transform="translate(160.64 45)"/><path d="m295.36 387v-8l8 8v-16h-16v32l8-8z" transform="translate(160.64 45)"/><path d="m440 96h-8l8 8 8-8z"/><path d="m273.71 365.35h11.31v11.31h-11.31z" transform="matrix(.70710678 -.70710678 .70710678 .70710678 -19.88 351.2)"/><path d="m279.36 59-8 8h-16v8h24z" transform="translate(160.64 45)"/><path d="m263.36 379 8 8-8 8h16v-16z" transform="translate(160.64 45)"/><path d="m271.36 43h8l8-8-16-16v8h-8l-8 8 8 8z" transform="translate(160.64 45)"/><path d="m424 416h-8l8 8 8-8z"/><path d="m255.36 435-8 8h16l8-8z" transform="translate(160.64 45)"/><path d="m247.36 387v8l8 8h-16l16 16h16l8-8-24-24z" transform="translate(160.64 45)"/><path d="m239.36 67h-8v-8l-8-8-8 8 8 8v16h16l8 8 8-8-8-8 8-8-8-8z" transform="translate(160.64 45)"/><path d="m408 96v-8l-8 8z"/><path d="m239.36 35h-16l8 8z" transform="translate(160.64 45)"/><path d="m191.36 363h-8l-8 8h-8v-8l-8 8v16l-8 8h-16l8 8h16l16-16-8-8h8v8h8v-8h8v-8l8-8-8-8z" transform="translate(160.64 45)"/><path d="m336 480 8-8h-8z"/><path d="m328 376-8 8h8z"/><path d="m167.36 363h16l8-8-8-8-8 8-8-8-16 16z" transform="translate(160.64 45)"/><path d="m145.71 365.35h11.31v11.31h-11.31z" transform="matrix(.70710678 -.70710678 .70710678 .70710678 -57.37 260.69)"/><path d="m151.36 315h-16l8 8z" transform="translate(160.64 45)"/><path d="m151.36 379h-16v16z" transform="translate(160.64 45)"/><path d="m143.36 427v8h16l-8-8z" transform="translate(160.64 45)"/><path d="m143.36 363h-8v16l8-8z" transform="translate(160.64 45)"/><path d="m119.36 363v16l8 8v-16l8-8z" transform="translate(160.64 45)"/><path d="m127.36 355 8-8 8 8v-16l-8-8-8 8-8-8-8 8v8h8z" transform="translate(160.64 45)"/><path d="m280 640v-8l-8 8z"/><path d="m111.36 363v-8l-8-8-8 8-8-8-8 8v16l8 8v8h8l8 8v8h8l8 8 8-8-24-24h16l-8-8zm-16 8-8-8h16z" transform="translate(160.64 45)"/><path d="m264 624v8l8-8z"/><path d="m71.36 587 8 8 8-8z" transform="translate(160.64 45)"/><path d="m224 624 8 8v-8z"/><path d="m-.64 59h-8l-8 8h16l-8 8v16l-16 16h24v-8l8-8v-16l8-8-8-8z" transform="translate(160.64 45)"/><path d="m-8.64 51h-16v8h16l8-8z" transform="translate(160.64 45)"/><path d="m-16.64 83 8-8-8-8-8 8v24h8z" transform="translate(160.64 45)"/><path d="m120 88 8-8h-8z"/><path d="m-48.64 67h16v-8h-8z" transform="translate(160.64 45)"/><path d="m-48.64 51-8-8-8 8z" transform="translate(160.64 45)"/><path d="m-56.64 75-8 8-8-8-8 8v16h16l8 8h16v-16zm8 24h-8v-8z" transform="translate(160.64 45)"/><path d="m88 112h-8l8 8 8-8z"/><path d="m-80.64 307h-16l-16 16v8h8l8-8h8v-8h16l8-8v-16z" transform="translate(160.64 45)"/><path d="m-72.64 51h-8l-8 8v16h8v-8l8-8z" transform="translate(160.64 45)"/><path d="m-72.64 299-8-8h-8v8z" transform="translate(160.64 45)"/><path d="m80 184h8l-8-8-8 8z"/><path d="m-88.64 115h-8l-8 8 8 8h16l8-8h-16l8-8z" transform="translate(160.64 45)"/><path d="m72 56v8h8z"/><path d="m-88.64 43 8-8h-16z" transform="translate(160.64 45)"/><path d="m-96.64 307 8-8-8-8z" transform="translate(160.64 45)"/><path d="m-88.64 283-8-8-8 8z" transform="translate(160.64 45)"/><path d="m-96.64 75v-24l-8 8v16l8 8z" transform="translate(160.64 45)"/><path d="m-104.64 579v-8l-8 8h-16l8 8-8 8h16l8-8v8h16v-8l-8-8z" transform="translate(160.64 45)"/><path d="m-96.64 387-8-8-8 8z" transform="translate(160.64 45)"/><path d="m56 304h-8l8 8z"/><path d="m-112.64 163 8 8-8 8h-16l8 8h16l16-16v-16l-8 8-8-8v8z" transform="translate(160.64 45)"/><path d="m-104.64 27 8-8h-16z" transform="translate(160.64 45)"/><path d="m-104.64 315v-16l8-8-8-8-8 8v16l-8 8 8 8v-8z" transform="translate(160.64 45)"/><path d="m48 584v-8l-8 8z"/><path d="m-120.64 219-16 16v8h8l8-8h8v-8l8-8v-16l-8 8v8z" transform="translate(160.64 45)"/><path d="m-112.64 123v-24l-8 8h-8v8h8v8z" transform="translate(160.64 45)"/><path d="m-120.64 59 8 8v-16l-8-8z" transform="translate(160.64 45)"/><path d="m-112.64 211h-16l8 8z" transform="translate(160.64 45)"/><path d="m40 288v8l8-8z"/><path d="m-112.64 3-8-8-8 8z" transform="translate(160.64 45)"/><path d="m-120.64 299-8-8v16l-16-16v16l8 8h16z" transform="translate(160.64 45)"/><path d="m-128.64 275h16l-8-8z" transform="translate(160.64 45)"/><path d="m32 144 8-8h-8z"/><path d="m-120.64 171h8v-8l8-8h-16l-16 16 8 8z" transform="translate(160.64 45)"/><path d="m32 248h-8l8 8 8-8z"/><path d="m-128.64 67-8 8 16 16h8v-8l8-8-8-8-8 8z" transform="translate(160.64 45)"/><path d="m32 184h8l-8-8z"/><path d="m-128.64 579-8 8v8h8z" transform="translate(160.64 45)"/><path d="m-128.64 451h-16l8 8z" transform="translate(160.64 45)"/><path d="m-128.64 291-8-8-8 8z" transform="translate(160.64 45)"/><path d="m-128.64 547v-8h-8l-8 8z" transform="translate(160.64 45)"/><path d="m-144.64 115 8-8-8-8z" transform="translate(160.64 45)"/><path d="m-144.64 371-16 16h16v-8h8v-24h8l-8 8 8 8v8h-8l-16 16h16v-8h8l8-8v-32l-8-8v8h-8v-16l-24 24v16h8v-8l8-8z" transform="translate(160.64 45)"/><path d="m-136.64 43 8 8 8-8-8-8h-16l-8-8v16z" transform="translate(160.64 45)"/><path d="m16 104h8l-8-8z"/><path d="m8 520h8v8l8-8-8-8z"/><path d="m8 488h8v-8z"/><path d="m-144.64 171v8l8-8v-16l-8 8v-8h-8l-8-8v32l8-8z" transform="translate(160.64 45)"/><path d="m-144.64 67h-16l8 8z" transform="translate(160.64 45)"/><path d="m-144.64 99-8-8-8 8z" transform="translate(160.64 45)"/><path d="m-144.64 147-8-8-8 8z" transform="translate(160.64 45)"/><path d="m-152.64 203v16l8-8z" transform="translate(160.64 45)"/><path d="m-144.64 275-8-8-8 8z" transform="translate(160.64 45)"/><path d="m-144.64 323-8-8-8 8z" transform="translate(160.64 45)"/><path d="m8 608h8l-8-8z"/><path d="m-152.64 571-8 8v16h16v-16h-8z" transform="translate(160.64 45)"/><path d="m8 584-8 8h8z"/><path d="m-152.64 499h8l-8 8 8 8 8-8h16v-8h8v-16l-8-8-8 8-8-8v16h-16l-8 8v8h8zm24-8h8l-8 8z" transform="translate(160.64 45)"/><path d="m-152.64 235 8-8h16v-16l-8 8-8-8v8h-8v8h-8v16h8z" transform="translate(160.64 45)"/><path d="m-152.64 115v-8l-8-8v24h8z" transform="translate(160.64 45)"/><path d="m0 376v8l8-8z"/><path d="m-160.64 467v16h16z" transform="translate(160.64 45)"/></g><path d="m640 640h-640" fill="#9a9678"/><path d="m0 0h640" fill="#9a9678"/></svg>