<svg viewBox="0 0 320 320" xmlns="http://www.w3.org/2000/svg"><g fill="#86573a"><path d="m12 188 4 4v-4z"/><path d="m320 16v-4h-4z"/><path d="m320 8.33v8h8z" transform="translate(-8 -8.33)"/><path d="m324 32.33v4l-8-8v8l4 4h4v4l4 4v-24l-4 4z" transform="translate(-8 -8.33)"/><path d="m316 64v4l4-4v-4h-4z"/><path d="m316 136h-4l-4 4 4 4h4v-4l4-4-4-4z"/><path d="m324 176.33v4l4 4v-16l-4 4z" transform="translate(-8 -8.33)"/><path d="m316 292h4v4h-4z"/><path d="m324 268.33-4-4-4 4v8l4 4 4-4h4v-4h-4z" transform="translate(-8 -8.33)"/><path d="m324 232.33v-4l-4-4v8l-8-8v8h4v4l4 4h8l-4-4z" transform="translate(-8 -8.33)"/><path d="m324 220.33 4-4h-8z" transform="translate(-8 -8.33)"/><path d="m324 172.33-4-4-4 4v8l-4 4 8 8h4v-12l-4-4z" transform="translate(-8 -8.33)"/><path d="m320 112.33v8l4 4h4v-12l-4 4z" transform="translate(-8 -8.33)"/><path d="m316 324.33 4 4h8l-8-8z" transform="translate(-8 -8.33)"/><path d="m312 288-4 4h4z"/><path d="m316 88.33v4l4 4v4h4v-8h-4v-4z" transform="translate(-8 -8.33)"/><path d="m316 76.33 4 4 4-4-8-8z" transform="translate(-8 -8.33)"/><path d="m324 308.33-4-4h-4v-4l-4-4-4 4 8 8z" transform="translate(-8 -8.33)"/><path d="m316 8.33h-4l-4 4v4h8z" transform="translate(-8 -8.33)"/><path d="m304 316v4h4v-4l-4-4z"/><g transform="translate(-8 -8.33)"><path d="m312 320.33-4-4-4 4v8h8l-4-4z"/><path d="m292 12.33 4 4h4v-8h-8z"/><path d="m284 320.33h-4l-4 4h-8v4h20l-4-4z"/><path d="m280 8.33v8h8v-4h-4z"/><path d="m276 12.33 4-4h-8z"/><path d="m268 8.33h-8v4l4 4h8l4-4h-8z"/><path d="m244 8.33h-12l8 8h8l4-4-4-4z"/></g><path d="m236 316 4-4h-4z"/><path d="m232 328.33h8l-4-4z" transform="translate(-8 -8.33)"/><path d="m232 12.33h-4l-4-4h-8l8 8h8z" transform="translate(-8 -8.33)"/><path d="m208 320v-4h-4z"/><path d="m196 320v-4l-4 4z"/><path d="m172 316v-4h-4z"/><path d="m156 316h4v4h-4z"/><path d="m164 316.33 4-4h-8z" transform="translate(-8 -8.33)"/><path d="m156 328.33h4v-8l-4 4z" transform="translate(-8 -8.33)"/><path d="m152 328.33v-8l-8 8z" transform="translate(-8 -8.33)"/><path d="m136 312-4 4h4z"/><path d="m120 4h4l-4-4z"/><path d="m120 328.33h12v-4h-8z" transform="translate(-8 -8.33)"/><path d="m112 324.33v4h8l-4-4z" transform="translate(-8 -8.33)"/><path d="m120 20.33v-4l-4-4-4 4h-8l-4 4z" transform="translate(-8 -8.33)"/><path d="m100 328.33h8v-4h-8z" transform="translate(-8 -8.33)"/><path d="m104 320.33 4-4h-8z" transform="translate(-8 -8.33)"/><path d="m88 320.33-4 4 4 4h8v-8l-4 4z" transform="translate(-8 -8.33)"/><path d="m72 8v-4h-4z"/><g transform="translate(-8 -8.33)"><path d="m72 328.33h8v-4h-4z"/><path d="m56 328.33h12v-4h-8z"/><path d="m56 8.33-4 4h8z"/><path d="m48 324.33h-4v4h12l-4-4z"/><path d="m48 320.33 4-4h-8z"/><path d="m32 16.33v4h12l-4-4z"/><path d="m32 328.33h8l-4-4z"/><path d="m24 136.33-4 4v8l4-4h4v-4l8-8-8-8-4 4 4 4z"/><path d="m28 12.33h8l4-4h-20v4l4 4z"/><path d="m28 276.33v-8l-4-4-4 4-4-4v8l-4 4 4 4h8z"/><path d="m24 324.33h-4l4 4h8l-4-4z"/><path d="m24 168.33-4 4h8z"/></g><path d="m16 248-4 4h4z"/><path d="m16 280-4-4v4z"/><path d="m12 320v-4l-4 4z"/><path d="m8 76h-4l4 4 4-4z"/><path d="m8 224.33h8v-4h4v-8l4 4v4h-4l-4 4-4 4h8l8-8v-16l-4-4-4 4-4-4-8 8v8h4v-4l4-4v8z" transform="translate(-8 -8.33)"/><path d="m20 316.33 8-8v-8l4-4-4-4h-8v4h-4l-4-4v8l-4-4v16h4v-4l8-8z" transform="translate(-8 -8.33)"/><path d="m8 156h4l-4-4z"/><path d="m16 256.33 4-4h-8z" transform="translate(-8 -8.33)"/><path d="m16 64.33 8-8v-8l-4 4-4-4v8l-8 8v4h8z" transform="translate(-8 -8.33)"/><path d="m16 28.33h4l4-4-4-4h-8l-4 4v8l4-4z" transform="translate(-8 -8.33)"/><path d="m8 4v-4l-4 4 4 4z"/><path d="m16 40.33h-8l4 4z" transform="translate(-8 -8.33)"/><path d="m16 192.33h-8l4 4z" transform="translate(-8 -8.33)"/><path d="m12 96.33v4l8-8v8h-8v8h8v-4h4l8-8v-8l-4-4-4 4h-16l4 4z" transform="translate(-8 -8.33)"/><path d="m20 188.33 8-8v-8l-4 4-4-4-4-4v8l-4 4v-8l-4-4v16h8z" transform="translate(-8 -8.33)"/><path d="m4 320v-4l-4 4z"/><path d="m4 272h-4l4 4z"/><path d="m12 264.33v-4l-4-4v16l4-4z" transform="translate(-8 -8.33)"/><path d="m12 144.33v-4l4-4h8v-8l-4-4v4h-4l-4-4v8l-4 4v8l4 4z" transform="translate(-8 -8.33)"/><path d="m8 56.33 8-8h-8z" transform="translate(-8 -8.33)"/><path d="m0 236v4l4-4z"/><path d="m0 116v4l4-4-4-4z"/></g><g fill="none"><path d="m0 0h320"/><path d="m320 320h-320"/></g></svg>