<svg viewBox="0 0 320 320" xmlns="http://www.w3.org/2000/svg"><g fill="#9e7a42" transform="translate(-8 -8.33)"><path d="m328 224.33v-8l-4 4z"/><path d="m328 16.33h-8v8l-4 4 4 4 8-8-4-4h4z"/><path d="m324 112.33h-4l4 4 4-4v-8l-4 4z"/><path d="m324 136.33h-4l-4 4v8l4-4h4v-4l4 4v-16l-4 4z"/><path d="m320 312.33-4 4-8-8h-8l-4 4h-4v4h-8l-4-4-8 8-4-4h-8v4h-8v-4h-16l-4 4-4-4-8 8v-4h-4l-8-8-4 4h-8l-4 4h-8l-4-4h-8v-4h-4l-4 4-4-4h8l-8-8-4 4h-8l-4 4v4h-4v4h-4l-4-4h-8l-4 4-4-4v-4h-4l-4-4h-8l-4 4h-4v-4h-8l-4 4h-8v4h-4l-4 4-12-12-4 4h-8l-8 8-4-4-4 4-8-8h-8v16l4-4v-8l4 4v8l4-4h8l4 4 4-4 4 4v-8l4 4h8v-8l-4 4-4-4h8l4 4-4 4 4 4 4-4h8l4-4v8l4-4h4v-4l4 4 4-4 4 4 4-4 4 4h8v-8l-4 4-4-4h8l4 4v4h4l4 4 4-4h8l4 4h8l12-12v8l4-4 4 4h4v-4l4 4v4h12l4-4v4h12l-4-4 4-4v8l8-8v8h8l-4-4h4v4h16l4-4 4 4h8l4-4v4h12v-8l4 4h8l4-4h4v4l4 4h4v-4l4-4v8h4v-12l4 4 4-4 8 8 4-4 4 4v-8l4 4v-8zm-176 12h-4l4-4zm32-4h4v4zm68 4v-4h4z"/><path d="m320 280.33v4h-4l-8 8v8l8-8v8l8-8v8h4v-24h-4z"/><path d="m320 256.33v8l4 4v-8l4 4v-12h-4z"/><path d="m320 208.33-4 4v8l-4 4 4 4 4-4 4 4v-8l-4-4h8v-8z"/><path d="m320 80.33v4h-4v4h4l4 4 4-4v-16z"/><path d="m320 64.33-4 4 4 4 4-4h4v-12z"/><path d="m320 164.33v4l4 4 4-4v-8l-4 4z"/><path d="m20 172.33 4 4 4-4z"/><path d="m16 128.33v-8l4-4v8l4 4 4-4 8 8v-8l-4-4v-4h-4v-8h-16l-4 4v8z"/><path d="m16 8.33h-8v8z"/><path d="m12 20.33h8l4 4v-8l-4-4-4 4-4-4z"/><path d="m16 200.33 4 4 4-4-4-4h4v4l4 4v-8l-4-4v-4h-4l-4-4h-8v8h8l-4 4-4-4v8l4 4z"/><path d="m16 256.33-4-4h8l-4 4v8l4 4v-8l4-4v4h-4l8 8 4-4-4-4v-8l-4-4h-4v-4l-4-4h-8v4h4l-4 4v8l4 4z"/><path d="m12 284.33v8l4 4v-8l4 4h8v-8l-4-4h-8l-8-8v8h4zm12 4h-4v-4z"/><path d="m16 48.33 4 4 4-4-4-4v-8h-8l-4-4v8h8l-4 4-4-4v8z"/><path d="m16 88.33-4-4h8l-4 4h8l4-4-12-12-4 4-4-4v16z"/><path d="m12 168.33v-4l8 8 4-4 4 4v-8l-8-8h-8l-4-4v16l4 4zm8-4h-4v-4z"/><path d="m8 280.33v8l4-4z"/></g><g fill="none"><path d="m0 0h320"/><path d="m320 320h-320"/></g></svg>