<svg viewBox="0 0 640 640" xmlns="http://www.w3.org/2000/svg"><g fill="#907643"><path d="m471.36-37-16 16h-16l-16-16h-8v8l-16-16h-16l-8 8v8h-8l-8-8h-16l-8-8h-16l8 8h-8v-8h-16v8h-8v8h-8l-16 16 8 8h-8v8h-16l-8 8v-8h-8l-8 8h-8v16h-8v32l8-8 8 8 16-16v8h-8v16l8-8 8 8v-32l8-8h8v-8l16 16 8-8-16-16h16v-32l8 8-8 8 24 24v-48l16 16h-16l8 8v16l8 8 8-8 8 8v-16h-16l16-16v16l8-8v24h8l8-8-8-8h16l-8 8 16 16 8-8v8h8v-16l8-8h-16l-8 8v-16l8 8 8-8 8 8h16l8-8h8v8l8 8-8 8v-16l-16 16 8 8h16l16-16 8 8v-32l-8-8h8v-16zm-232 72-8 8-8-8h16v-16l8 8zm104-56 8-8v8zm80 0v8h-8zm40 24-8-8h16z" transform="translate(160.64 45)"/><path d="m632 496h8l-8-8z"/><path d="m463.36 499-8 8v8h-8v16l16 16v16l-16 16v16h32v-104h-8z" transform="translate(160.64 45)"/><path d="m632 512h-8l8 8z"/><path d="m463.36 403-8 8v16h-8v8l8 8 8-8h8v-24h8v-16h-8z" transform="translate(160.64 45)"/><path d="m608 496v8h8z"/><path d="m431.36 579-8-8h-16l-8-8h-24v8h-16v24h88z" transform="translate(160.64 45)"/><path d="m431.36 19-8-8v8h-8l16 16 8-8h-8z" transform="translate(160.64 45)"/><path d="m431.36 67-8-8-8 8z" transform="translate(160.64 45)"/><path d="m415.36 3v16l8-8z" transform="translate(160.64 45)"/><path d="m576 72h-8l8 8z"/><path d="m568 96h8l-8-8z"/><path d="m544 136h8l-8-8-8 8z"/><path d="m536 72v8h8z"/><path d="m512 80v8h8z"/><path d="m480 432v-8h-8z"/><path d="m311.36 363-8-8-8 8-8-8h-24v8h-8v8h16l8-8 8 8h16v16l8-8z" transform="translate(160.64 45)"/><path d="m472 440-8-8v8z"/><path d="m464 488h8l-8-8z"/><path d="m464 64-8 8h8z"/><path d="m295.36 43-8 8v8h8l8-8v-16l-8-8z" transform="translate(160.64 45)"/><path d="m287.36 35-8 8h-16v16l-8 8h16l8-8-8-8h16z" transform="translate(160.64 45)"/><path d="m271.36 587v-8l-8-8h-16l-16 16h-8v8h64l-8-8z" transform="translate(160.64 45)"/><path d="m432 424h8l-8-8-8 8z"/><path d="m247.36 379v8h8l8 8 8-8-16-16z" transform="translate(160.64 45)"/><path d="m416 120v-8l-8 8z"/><path d="m255.36 403-8-8-8 8z" transform="translate(160.64 45)"/><path d="m352 408v-8l-8 8z"/><path d="m183.36 331-8-8v-8h-8l-8-8h-16l-8-8-8 8h-16l-8 8v8h-8v16l16 16 8-8h-8v-8l8-8 8 8 8-8 8 8 8-8v32l16-16 8 8 8-8 8 8v-16h-8zm-48-16h16l-8 8zm24 24 8-8v8z" transform="translate(160.64 45)"/><path d="m336 432v-8h-8z"/><path d="m167.36 363v8h8l8-8z" transform="translate(160.64 45)"/><path d="m151.36 363 8 8 8-8z" transform="translate(160.64 45)"/><path d="m143.36 411v8h16l-8-8z" transform="translate(160.64 45)"/><path d="m151.36 379-8-8-8 8z" transform="translate(160.64 45)"/><path d="m127.36 587v-8l-8-8h-8v-8h-16l-8-8h-16v8h-8l-8 8v16l-8 8h32l-16-16h8v8h16l-8 8h32l8-8v8h24l-8-8zm-24 0v-8h8z" transform="translate(160.64 45)"/><path d="m119.36 363h24v-8l-8-8-8 8-8-8z" transform="translate(160.64 45)"/><path d="m127.36 435-8-8-8 8z" transform="translate(160.64 45)"/><path d="m103.36 363h-16l8 8z" transform="translate(160.64 45)"/><path d="m87.36 347 8 8 8-8z" transform="translate(160.64 45)"/><path d="m15.36 587h-8l-8-8h-16l-8 8h-16l-8 8h80l-8-8z" transform="translate(160.64 45)"/><path d="m-.64 67h-16l8 8z" transform="translate(160.64 45)"/><path d="m-24.64 59 8 8 8-8z" transform="translate(160.64 45)"/><path d="m136 200 8-8h-8z"/><path d="m-40.64 123-8-8-8 8z" transform="translate(160.64 45)"/><path d="m-56.64 67v-8l8 8 8-8h8v8h-16l16 16 8-8v-24h24l-8 8h16l8 8v-16h-8v-8l-8-8h-16v-8h-8l-16-16-8 8v8h-8l-8 8v-16l-24-24v-8h-8l-8-8h-16v8h-8l-8 8-8-8h-16v80h16l-8 8-8-8v32l8-8 8 8v-16l8 8-8 8 8 8 8-8v-8h8l-16-16 8-8 8 8 8-8-24-24h-16v-16l8 8h16v-16l8-8v24h-8l16 16 8-8v-16l-8-8h16l-8 8 8 8h16v-16h-8v-8l16 16-16 16v16l8-8h8v8l-8 8h16l-8 8 8 8 8-8zm-80-8h-8v-8zm16-56h-8l8-8 8 8zm80 40v-8h8zm-16 0 8 8h-16z" transform="translate(160.64 45)"/><path d="m-72.64 275h-8l-8-8h-8v-8l-8-8h-16l-8 8h-16l-8-8h-8v24l8-8 8 8h-16v48l8-8 8 8h-16v8h8l-8 8v16l24-24v16h8v-24l-24-24v-16l8 8 8-8 16 16v-16l8 8 16-16 8 8h-16l16 16v-8h8l8 8 8-8-8-8zm-48 0h-8l8-8 8 8zm8-16h8v8z" transform="translate(160.64 45)"/><path d="m80 120v8l8-8-8-8z"/><path d="m-104.64 43v16l16-16-8-8z" transform="translate(160.64 45)"/><path d="m56 208v-8l-8 8z"/><path d="m-112.64 363h-8v8h24l-8-8z" transform="translate(160.64 45)"/><path d="m-112.64 563v-8h-8l-8-8h-32v32l8-8 16 16 8-8h16l8-8h-8zm-40 0v-8l8 8z" transform="translate(160.64 45)"/><path d="m48 424v-8l-8 8z"/><path d="m48 264v-8l-8 8z"/><path d="m32 544 8-8h-8z"/><path d="m32 152h8l8-8-8-8-8 8z"/><path d="m40 440-8-8v8z"/><path d="m24 408 8-8h-8z"/><path d="m24 256v8l8-8-8-8z"/><path d="m-144.64 291 16 16v-16z" transform="translate(160.64 45)"/><path d="m16 520h-8l8 8z"/><path d="m16 264v-8l-8 8z"/><path d="m-144.64 211v-16l8-8v16h16l-8 8h16l8-8h-8v-8l-24-24-8 8v-8h-8l-8 8v32l8-8z" transform="translate(160.64 45)"/><path d="m-144.64 155v8l16-16v16l8-8h16l8 8 8-8-8-8h-16l8-8v-16h-16v-8h-24l-8 8h-8v24l8-8 8 8h-16l8 8zm24-16h-8v-8z" transform="translate(160.64 45)"/><path d="m-144.64 531v16l8-8v-16l-16-16h-8v40z" transform="translate(160.64 45)"/><path d="m-152.64 467v-8l8-8h16l-8 8 8 8h-8v-8l-8-8v16l16 16 8-8 8 8v-16l-8-8 8-8-24-24v-8h-8l-8-8h-8v56l8 8zm8-32v8h-8z" transform="translate(160.64 45)"/><path d="m-160.64 99 8 8 8-8z" transform="translate(160.64 45)"/></g><path d="m640 640h-640" fill="#9a9678"/><path d="m0 0h640" fill="#9a9678"/></svg>