<svg xmlns="http://www.w3.org/2000/svg" viewBox="0 0 314.5 314"><defs><style>.cls-1{fill:#5400e7;}.cls-2{fill:#231f20;}</style></defs><g id="Layer_2" data-name="Layer 2"><g id="Layer_1-2" data-name="Layer 1"><g id="b5e31b63-280e-4f38-96cb-4ce3912872af"><g id="a7f2af64-ea2b-4d32-adbc-dcaa5fbad56d"><polyline class="cls-1" points="0 0 140.87 0 314.5 0"/><polyline class="cls-1" points="314.5 314 126.12 314 0 314"/></g></g></g><g id="Layer_2-2" data-name="Layer 2"><g id="Illusion"><polygon class="cls-2" points="61.56 250.18 60.58 269.78 253.93 269.78 252.95 250.18 61.56 250.18"/><polygon class="cls-2" points="64.73 203.22 249.79 203.22 246.71 171.77 193.65 118.71 222.63 82.25 157.27 16.89 91.91 82.25 120.89 118.71 67.83 171.77 64.73 203.22"/><polygon class="cls-2" points="256 295.11 255.02 284.11 59.48 284.11 58.5 295.11 256 295.11"/><polygon class="cls-2" points="63.64 216.9 62.65 236.5 251.86 236.5 250.88 216.9 63.64 216.9"/></g></g></g></svg>