<?xml version="1.0" encoding="utf-8"?>
<!-- Generator: Adobe Illustrator 25.2.0, SVG Export Plug-In . SVG Version: 6.00 Build 0)  -->
<svg version="1.1" id="Layer_1" xmlns="http://www.w3.org/2000/svg" xmlns:xlink="http://www.w3.org/1999/xlink" x="0px" y="0px"
	 viewBox="0 0 314.5 314" style="enable-background:new 0 0 314.5 314;" xml:space="preserve">
<style type="text/css">
	.st0{fill:#5400E7;}
	.st1{fill:#1D1D1B;}
</style>
<g id="Layer_2_1_">
	<g id="Layer_1-2">
		<g id="b5e31b63-280e-4f38-96cb-4ce3912872af">
			<g id="a7f2af64-ea2b-4d32-adbc-dcaa5fbad56d">
				<polyline class="st0" points="0,0 140.9,0 314.5,0 				"/>
				<polyline class="st0" points="314.5,314 126.1,314 0,314 				"/>
			</g>
		</g>
	</g>
</g>
<g>
	<path class="st1" d="M249.9,27.5l-92.6,19L64.6,27.5l-28.2-5.8l0.3,28.8l1.1,118.3l0.1,9.3l6.5,6.7l96.2,98.4l16.6,17l16.6-17
		l96.3-98.4l6.6-6.7l0.1-9.4l1-118.4l0.2-28.7L249.9,27.5z M61.1,168.6L60,50.3l94.9,19.4v194.9L61.1,168.6z M222.8,143.5l-48.3-0.4
		l39-28.6l27.5-6.3L222.8,143.5z"/>
	<polygon class="st1" points="102.4,115.7 74.2,109.2 92.9,145.6 142.5,145.2 	"/>
</g>
</svg>
