<svg xmlns="http://www.w3.org/2000/svg" viewBox="0 0 314.5 314"><defs><style>.cls-1{fill:#5400e7;}.cls-2{fill:#231f20;}</style></defs><g id="Layer_2" data-name="Layer 2"><g id="Layer_1-2" data-name="Layer 1"><g id="b5e31b63-280e-4f38-96cb-4ce3912872af"><g id="a7f2af64-ea2b-4d32-adbc-dcaa5fbad56d"><polyline class="cls-1" points="0 0 140.87 0 314.5 0"/><polyline class="cls-1" points="314.5 314 126.12 314 0 314"/></g></g></g><g id="Layer_2-2" data-name="Layer 2"><g id="NOBLE"><path class="cls-2" d="M240.35,63.66,209.18,94.77l-52-51.88L105.27,94.77,74.16,63.66,43,94.77H43L32.6,84.36,25.06,91.9V213.54H289.44V91.9l-7.54-7.54L271.48,94.77ZM25.06,225.74H289.44v33.37H25.06Zm49.1-120.55L94.91,126,74.16,146.73,53.37,126Zm166.19,41.54L219.58,126l20.77-20.77L261.13,126Zm-83.13,20.71L115.68,125.9l41.54-41.48L198.82,126Z"/></g></g></g></svg>