<svg xmlns="http://www.w3.org/2000/svg" width="314.5" height="314" viewBox="0 0 314.5 314"><defs><style>.a4b64b63-dfdd-47e2-a4da-61008c607d70{fill:none;}.aff853aa-2f52-48c5-89e6-b4410302b388{fill:#546dfe;}</style></defs><g id="f9333fea-7dde-44ca-b8aa-c1eed0816d67" data-name="Layer 2"><g id="b9642ae6-3ba6-4d97-8d28-8bfd0ad93c91" data-name="Layer 1"><line class="a4b64b63-dfdd-47e2-a4da-61008c607d70" x2="314.5"/><line class="a4b64b63-dfdd-47e2-a4da-61008c607d70" x1="314.5" y1="314" y2="314"/></g><g id="af47e241-3f25-4de1-9900-115dfde56aa9" data-name="Layer 2"><path id="a7044cdd-10e9-466b-ae18-0135f6ceec78" data-name="Money" class="aff853aa-2f52-48c5-89e6-b4410302b388" d="M223.81,171.69a61.84,61.84,0,0,0-16.14-21.27c-6.74-5.8-17-11.79-31.49-18.33-31.59-14.22-32.5-23.28-32.5-24.26a10.31,10.31,0,0,1,3.56-8.25c2.64-2.39,6.86-3.61,12.54-3.61C171.83,96,183,99.51,194,106.78l10.25,6.78,17.89-46.9-6-4.44C208,56.18,197,52.15,182.59,50l.15-22.8h-51.2V52.49a65.35,65.35,0,0,0-29,18.59,54.19,54.19,0,0,0-14.23,37,60.69,60.69,0,0,0,5.2,25.27,56.44,56.44,0,0,0,15,19.82c6.12,5.17,16.84,11.28,32.77,18.67,17.07,7.91,24.3,13.57,27.35,16.91,3.68,4,5.47,8,5.47,12.22,0,3.05,0,10.2-21.6,10.2-11.65,0-23.85-4.08-36.26-12.12l-9.66-6.26-21.45,48.1,7.56,4.47A105.78,105.78,0,0,0,131.54,259v27.87h51.14V255.36c13-4.05,23.66-10.44,31.69-19.06a53.83,53.83,0,0,0,15-37.74A64.17,64.17,0,0,0,223.81,171.69Z"/></g></g></svg>