<svg viewBox="0 0 32 32" xmlns="http://www.w3.org/2000/svg"><g fill="#c6b6ab"><path d="m23.2 20v.8h-.8l-.8.8-.8.8v.8.8l.8-.8.8-.8.8-.8.8-.8z"/><path d="m19.2 30.4h.8.8l-.8-.8z"/><path d="m19.2 23.2h-.8-.8-.8l-.8.8-.8-.8h-.8-.8-.8-.8l-.8.8.8.8.8.8h.8.8.8.8.8.8.8.8l.8-.8.8-.8-.8-.8z"/><path d="m11.2 30.4h.8.8l-.8-.8z"/><path d="m11.2 22.4-.8-.8-.8-.8h-.8v-.8l-.8.8.8.8.8.8.8.8.8.8v-.8z"/><path d="m75.38 152.69h10.4l.8-.8v-.8h-4.8v-.8l-.8-.8-.8-.8-.8.8-.8.8v.8h-4.8v.8l.8.8zm4.8-2.4.8.8-.8.8-.8-.8z" transform="translate(-64.18 -137.49)"/></g><path d="m0 0h32" fill="#fff"/><path d="m32 32h-32" fill="#fff"/></svg>