<svg id="Layer_1" data-name="Layer 1" xmlns="http://www.w3.org/2000/svg" viewBox="0 0 32 32"><polygon points="20 23.2 20.8 24 20.8 23.2 20.8 22.4 20 23.2" fill="#968981"/><polygon points="19.2 30.4 20 29.6 19.2 29.6 18.4 29.6 17.6 29.6 16.8 29.6 16.8 30.4 16.8 31.2 17.6 31.2 18.4 31.2 19.2 31.2 20 31.2 20.8 31.2 20.8 30.4 20 30.4 19.2 30.4" fill="#968981"/><polygon points="20 24.8 19.2 25.6 20 25.6 20 24.8" fill="#968981"/><polygon points="16 23.2 15.2 23.2 16 24 16.8 23.2 16 23.2" fill="#968981"/><polygon points="13.6 29.6 12.8 29.6 12 29.6 12.8 30.4 12 30.4 11.2 30.4 11.2 31.2 12 31.2 12.8 31.2 13.6 31.2 14.4 31.2 15.2 31.2 15.2 30.4 15.2 29.6 14.4 29.6 13.6 29.6" fill="#968981"/><polygon points="12 25.6 12.8 25.6 12 24.8 12 25.6" fill="#968981"/><polygon points="11.2 22.4 11.2 23.2 11.2 24 12 23.2 11.2 22.4" fill="#968981"/><line x2="32" fill="#fff"/><line x1="32" y1="32" y2="32" fill="#fff"/></svg>