<svg id="Layer_1" data-name="Layer 1" xmlns="http://www.w3.org/2000/svg" viewBox="0 0 32 32"><polygon points="24.8 24.8 24 24 23.2 24 22.4 24 21.6 24 20.8 24 20.8 24.8 21.6 24.8 22.4 24.8 23.2 24.8 24 25.6 24.8 26.4 25.6 27.2 25.6 26.4 25.6 25.6 24.8 24.8" fill="#6d7399"/><polygon points="18.4 26.4 19.2 27.2 20 26.4 19.2 26.4 18.4 26.4" fill="#6d7399"/><polygon points="18.4 16.8 19.2 16.8 20 16.8 19.2 16 18.4 16.8" fill="#6d7399"/><polygon points="16.8 26.4 17.6 27.2 18.4 26.4 17.6 26.4 16.8 26.4" fill="#6d7399"/><polygon points="16.8 13.6 16 12.8 16 13.6 15.2 13.6 16 14.4 16.8 13.6" fill="#6d7399"/><polygon points="15.2 26.4 16 27.2 16.8 26.4 16 26.4 15.2 26.4" fill="#6d7399"/><polygon points="13.6 26.4 14.4 27.2 15.2 26.4 14.4 26.4 13.6 26.4" fill="#6d7399"/><polygon points="13.6 16.8 12.8 16 12 16.8 12.8 16.8 13.6 16.8" fill="#6d7399"/><polygon points="12 26.4 12.8 27.2 13.6 26.4 12.8 26.4 12 26.4" fill="#6d7399"/><polygon points="9.6 24 8.8 24 8 24 7.2 24.8 6.4 25.6 6.4 26.4 6.4 27.2 7.2 26.4 8 25.6 8.8 24.8 9.6 24.8 10.4 24.8 11.2 24.8 11.2 24 10.4 24 9.6 24" fill="#6d7399"/><line x2="32" fill="#fff"/><line x1="32" y1="32" y2="32" fill="#fff"/></svg>