<svg id="Layer_1" data-name="Layer 1" xmlns="http://www.w3.org/2000/svg" viewBox="0 0 32 32"><polygon points="24.8 26.4 24 25.6 23.2 24.8 22.4 24.8 21.6 24.8 20.8 24.8 20.8 25.6 21.6 25.6 22.4 25.6 23.2 26.4 24 27.2 24.8 28 25.6 27.2 24.8 26.4" fill="#5a6385"/><polygon points="19.2 31.2 18.4 31.2 17.6 31.2 16.8 31.2 16.8 32 17.6 32 18.4 32 19.2 32 20 32 20.8 32 20.8 31.2 20 31.2 19.2 31.2" fill="#5a6385"/><polygon points="16.8 28.8 16.8 29.6 17.6 29.6 18.4 29.6 19.2 29.6 20 29.6 20 28.8 20 28 20 27.2 20 26.4 19.2 27.2 18.4 26.4 17.6 27.2 16.8 26.4 16 27.2 15.2 26.4 14.4 27.2 13.6 26.4 12.8 27.2 12 26.4 12 27.2 12 28 12 28.8 12 29.6 12.8 29.6 13.6 29.6 14.4 29.6 15.2 29.6 15.2 28.8 15.2 28 16 28 16.8 28 16.8 28.8" fill="#5a6385"/><polygon points="13.6 31.2 12.8 31.2 12 31.2 11.2 31.2 11.2 32 12 32 12.8 32 13.6 32 14.4 32 15.2 32 15.2 31.2 14.4 31.2 13.6 31.2" fill="#5a6385"/><polygon points="13.6 26.4 14.4 26.4 15.2 26.4 16 26.4 16.8 26.4 17.6 26.4 18.4 26.4 19.2 26.4 20 26.4 20 25.6 19.2 25.6 18.4 25.6 17.6 25.6 16.8 25.6 16 25.6 15.2 25.6 14.4 25.6 13.6 25.6 12.8 25.6 12 25.6 12 26.4 12.8 26.4 13.6 26.4" fill="#5a6385"/><polygon points="11.2 24.8 10.4 24.8 9.6 24.8 8.8 24.8 8 25.6 7.2 26.4 6.4 27.2 7.2 28 8 27.2 8.8 26.4 9.6 25.6 10.4 25.6 11.2 25.6 11.2 24.8" fill="#5a6385"/><line x2="32" fill="#fff"/><line x1="32" y1="32" y2="32" fill="#fff"/></svg>