<svg viewBox="0 0 32 32" xmlns="http://www.w3.org/2000/svg"><g fill="#5a6385"><path d="m24.8 26.4-.8-.8-.8-.8h-.8-.8-.8v.8h.8.8l.8.8.8.8.8.8.8-.8z"/><path d="m19.2 31.2h-.8-.8-.8v.8h.8.8.8.8.8v-.8h-.8z"/><path d="m16.8 28.8v.8h.8.8.8.8v-.8-.8-.8-.8l-.8.8-.8-.8-.8.8-.8-.8-.8.8-.8-.8-.8.8-.8-.8-.8.8-.8-.8v.8.8.8.8h.8.8.8.8v-.8-.8h.8.8z"/><path d="m13.6 31.2h-.8-.8-.8v.8h.8.8.8.8.8v-.8h-.8z"/><path d="m13.6 26.4h.8.8.8.8.8.8.8.8v-.8h-.8-.8-.8-.8-.8-.8-.8-.8-.8-.8v.8h.8z"/><path d="m11.2 24.8h-.8-.8-.8l-.8.8-.8.8-.8.8.8.8.8-.8.8-.8.8-.8h.8.8z"/></g><path d="m0 0h32" fill="#fff"/><path d="m32 32h-32" fill="#fff"/></svg>