<svg viewBox="0 0 32 32" xmlns="http://www.w3.org/2000/svg"><g fill="#6d7399"><path d="m24.8 24.8-.8-.8h-.8-.8-.8-.8v.8h.8.8.8l.8.8.8.8.8.8v-.8-.8z"/><path d="m18.4 26.4.8.8.8-.8h-.8z"/><path d="m18.4 16.8h.8.8l-.8-.8z"/><path d="m16.8 26.4.8.8.8-.8h-.8z"/><path d="m16.8 13.6-.8-.8v.8h-.8l.8.8z"/><path d="m15.2 26.4.8.8.8-.8h-.8z"/><path d="m13.6 26.4.8.8.8-.8h-.8z"/><path d="m13.6 16.8-.8-.8-.8.8h.8z"/><path d="m12 26.4.8.8.8-.8h-.8z"/><path d="m9.6 24h-.8-.8l-.8.8-.8.8v.8.8l.8-.8.8-.8.8-.8h.8.8.8v-.8h-.8z"/></g><path d="m0 0h32" fill="#fff"/><path d="m32 32h-32" fill="#fff"/></svg>