<svg viewBox="0 0 32 32" xmlns="http://www.w3.org/2000/svg"><g fill="#e0b12e"><path d="m25.6 17.6-.8-.8-.8-.8-.8-.8v-.8-.8l.8-.8v-.8-.8l-.8-.8-.8-.8-.8-.8-.8-.8-.8.8v-.8h-.8l-.8.8v-.8h-.8l-.8.8v-.8h-.8l-.8.8v-.8h-.8l-.8.8v-.8h-.8l-.8.8v-.8h-.8l-.8.8-.8.8-.8.8-.8.8v.8.8l.8.8v.8.8l-.8.8-.8.8-.8.8.8.8-.8.8h.8.8l-.8.8h.8.8v.8h.8.8.8l-.8-.8h.8.8l-.8-.8-.8-.8v-.8-.8-.8-.8l-.8-.8v-.8h.8l.8-.8h.8.8l.8.8h.8v-.8l.8-.8.8-.8.8.8.8.8v.8h.8l.8-.8h.8.8l.8.8h.8v.8l-.8.8v.8.8.8.8l-.8.8-.8.8h.8.8l-.8.8h.8.8.8v-.8h.8.8l-.8-.8h.8.8l-.8-.8z"/><path d="m16.8 19.2h-.8l.8.8h.8.8l-.8-.8z"/><path d="m15.2 21.6.8.8.8-.8h-.8z"/><path d="m14.4 19.2-.8.8h.8.8l.8-.8h-.8z"/></g><path d="m0 0h32" fill="#fff"/><path d="m32 32h-32" fill="#fff"/></svg>