<svg id="Layer_1" data-name="Layer 1" xmlns="http://www.w3.org/2000/svg" viewBox="0 0 32 32"><polygon points="25.6 17.6 24.8 16.8 24 16 23.2 15.2 23.2 14.4 23.2 13.6 24 12.8 24 12 24 11.2 23.2 10.4 22.4 9.6 21.6 8.8 20.8 8 20 8.8 20 8 19.2 8 18.4 8.8 18.4 8 17.6 8 16.8 8.8 16.8 8 16 8 15.2 8.8 15.2 8 14.4 8 13.6 8.8 13.6 8 12.8 8 12 8.8 12 8 11.2 8 10.4 8.8 9.6 9.6 8.8 10.4 8 11.2 8 12 8 12.8 8.8 13.6 8.8 14.4 8.8 15.2 8 16 7.2 16.8 6.4 17.6 7.2 18.4 6.4 19.2 7.2 19.2 8 19.2 7.2 20 8 20 8.8 20 8.8 20.8 9.6 20.8 10.4 20.8 11.2 20.8 10.4 20 11.2 20 12 20 11.2 19.2 10.4 18.4 10.4 17.6 10.4 16.8 10.4 16 10.4 15.2 9.6 14.4 9.6 13.6 10.4 13.6 11.2 12.8 12 12.8 12.8 12.8 13.6 13.6 14.4 13.6 14.4 12.8 15.2 12 16 11.2 16.8 12 17.6 12.8 17.6 13.6 18.4 13.6 19.2 12.8 20 12.8 20.8 12.8 21.6 13.6 22.4 13.6 22.4 14.4 21.6 15.2 21.6 16 21.6 16.8 21.6 17.6 21.6 18.4 20.8 19.2 20 20 20.8 20 21.6 20 20.8 20.8 21.6 20.8 22.4 20.8 23.2 20.8 23.2 20 24 20 24.8 20 24 19.2 24.8 19.2 25.6 19.2 24.8 18.4 25.6 17.6" fill="#e0b12e"/><polygon points="16.8 19.2 16 19.2 16.8 20 17.6 20 18.4 20 17.6 19.2 16.8 19.2" fill="#e0b12e"/><polygon points="15.2 21.6 16 22.4 16.8 21.6 16 21.6 15.2 21.6" fill="#e0b12e"/><polygon points="14.4 19.2 13.6 20 14.4 20 15.2 20 16 19.2 15.2 19.2 14.4 19.2" fill="#e0b12e"/><line x2="32" fill="#fff"/><line x1="32" y1="32" y2="32" fill="#fff"/></svg>