<svg id="Layer_1" data-name="Layer 1" xmlns="http://www.w3.org/2000/svg" viewBox="0 0 32 32"><polygon points="24.8 13.6 24 14.4 23.2 15.2 24 16 24.8 15.2 25.6 14.4 25.6 13.6 25.6 12.8 24.8 13.6" fill="#9e6c3a"/><polygon points="22.4 22.4 23.2 22.4 24 22.4 23.2 21.6 22.4 22.4" fill="#9e6c3a"/><polygon points="19.2 15.2 18.4 15.2 17.6 15.2 17.6 16 18.4 16 19.2 16 20 16 20.8 16 20 15.2 19.2 15.2" fill="#9e6c3a"/><polygon points="15.2 18.4 16 18.4 16.8 18.4 16 17.6 15.2 18.4" fill="#9e6c3a"/><polygon points="12.8 15.2 12 15.2 11.2 16 12 16 12.8 16 13.6 16 14.4 16 14.4 15.2 13.6 15.2 12.8 15.2" fill="#9e6c3a"/><polygon points="8 22.4 8.8 22.4 9.6 22.4 8.8 21.6 8 22.4" fill="#9e6c3a"/><polygon points="8.8 15.2 8 14.4 7.2 13.6 6.4 12.8 6.4 13.6 6.4 14.4 7.2 15.2 8 16 8.8 15.2" fill="#9e6c3a"/><polygon points="21.6 26.4 20.8 26.4 20.8 25.6 21.6 26.4" fill="#9e6c3a"/><polygon points="11.2 25.6 11.2 26.4 10.4 26.4 11.2 25.6" fill="#9e6c3a"/><line x2="32" fill="#fff"/><line x1="32" y1="32" y2="32" fill="#fff"/></svg>