<svg id="Layer_1" data-name="Layer 1" xmlns="http://www.w3.org/2000/svg" viewBox="0 0 32 32"><polygon points="25.6 11.2 24.8 12 24 12.8 23.2 13.6 23.2 14.4 23.2 15.2 24 14.4 24.8 13.6 25.6 12.8 25.6 13.6 25.6 14.4 24.8 15.2 24 16 24.8 16.8 25.6 16 26.4 15.2 26.4 14.4 26.4 13.6 26.4 12.8 26.4 12 26.4 11.2 26.4 10.4 25.6 11.2" fill="#c79563"/><polygon points="23.2 22.4 22.4 22.4 21.6 23.2 20.8 24 21.6 24 22.4 24 23.2 24 24 24 24.8 24.8 24.8 24 24.8 23.2 24 22.4 23.2 22.4" fill="#c79563"/><polygon points="23.2 26.4 22.4 25.6 21.6 25.6 20.8 25.6 21.6 26.4 20.8 26.4 20.8 25.6 20 26.4 20.8 27.2 21.6 28 22.4 28.8 23.2 28.8 24 28.8 24.8 28 24 27.2 23.2 26.4" fill="#c79563"/><path d="M85,159.89l.8-.8.8-.8H85l.8-.8h-1.6l.8-.8.8-.8v-3.2h-1.6l.8.8-.8.8h-1.6l-.8-.8v-.8h-3.2v.8l-.8.8h-1.6l-.8-.8.8-.8h-1.6v3.2l.8.8.8.8h-1.6l.8.8h-1.6l.8.8.8.8.8.8h8Zm-4.8-4.8.8.8h-1.6Zm-1.6,1.6h3.2l.8.8H81l-.8-.8-.8.8h-1.6Zm.8,2.4H81l-.8.8Z" transform="translate(-64.18 -137.49)" fill="#c79563"/><polygon points="20 13.6 20.8 13.6 21.6 13.6 20.8 12.8 20 12.8 19.2 12.8 18.4 13.6 19.2 13.6 20 13.6" fill="#c79563"/><polygon points="12 13.6 12.8 13.6 13.6 13.6 12.8 12.8 12 12.8 11.2 12.8 10.4 13.6 11.2 13.6 12 13.6" fill="#c79563"/><polygon points="11.2 26.4 10.4 26.4 11.2 25.6 10.4 25.6 9.6 25.6 8.8 26.4 8 27.2 7.2 28 8 28.8 8.8 28.8 9.6 28.8 10.4 28 11.2 27.2 12 26.4 11.2 25.6 11.2 26.4" fill="#c79563"/><polygon points="8 22.4 7.2 23.2 7.2 24 7.2 24.8 8 24 8.8 24 9.6 24 10.4 24 11.2 24 10.4 23.2 9.6 22.4 8.8 22.4 8 22.4" fill="#c79563"/><polygon points="8 16 7.2 15.2 6.4 14.4 6.4 13.6 6.4 12.8 7.2 13.6 8 14.4 8.8 15.2 8.8 14.4 8.8 13.6 8 12.8 7.2 12 6.4 11.2 5.6 10.4 5.6 11.2 5.6 12 5.6 12.8 5.6 13.6 5.6 14.4 5.6 15.2 6.4 16 7.2 16.8 8 16" fill="#c79563"/><line x2="32" fill="#fff"/><line x1="32" y1="32" y2="32" fill="#fff"/></svg>