<svg viewBox="0 0 32 32" xmlns="http://www.w3.org/2000/svg"><g fill="#9e6c3a"><path d="m24.8 13.6-.8.8-.8.8.8.8.8-.8.8-.8v-.8-.8z"/><path d="m22.4 22.4h.8.8l-.8-.8z"/><path d="m19.2 15.2h-.8-.8v.8h.8.8.8.8l-.8-.8z"/><path d="m15.2 18.4h.8.8l-.8-.8z"/><path d="m12.8 15.2h-.8l-.8.8h.8.8.8.8v-.8h-.8z"/><path d="m8 22.4h.8.8l-.8-.8z"/><path d="m8.8 15.2-.8-.8-.8-.8-.8-.8v.8.8l.8.8.8.8z"/><path d="m21.6 26.4h-.8v-.8z"/><path d="m11.2 25.6v.8h-.8z"/></g><path d="m0 0h32" fill="#fff"/><path d="m32 32h-32" fill="#fff"/></svg>