<svg viewBox="0 0 32 32" xmlns="http://www.w3.org/2000/svg"><g fill="#c79563"><path d="m25.6 11.2-.8.8-.8.8-.8.8v.8.8l.8-.8.8-.8.8-.8v.8.8l-.8.8-.8.8.8.8.8-.8.8-.8v-.8-.8-.8-.8-.8-.8z"/><path d="m23.2 22.4h-.8l-.8.8-.8.8h.8.8.8.8l.8.8v-.8-.8l-.8-.8z"/><path d="m23.2 26.4-.8-.8h-.8-.8l.8.8h-.8v-.8l-.8.8.8.8.8.8.8.8h.8.8l.8-.8-.8-.8z"/><path d="m85 159.89.8-.8.8-.8h-1.6l.8-.8h-1.6l.8-.8.8-.8v-3.2h-1.6l.8.8-.8.8h-1.6l-.8-.8v-.8h-3.2v.8l-.8.8h-1.6l-.8-.8.8-.8h-1.6v3.2l.8.8.8.8h-1.6l.8.8h-1.6l.8.8.8.8.8.8h8zm-4.8-4.8.8.8h-1.6zm-1.6 1.6h3.2l.8.8h-1.6l-.8-.8-.8.8h-1.6zm.8 2.4h1.6l-.8.8z" transform="translate(-64.18 -137.49)"/><path d="m20 13.6h.8.8l-.8-.8h-.8-.8l-.8.8h.8z"/><path d="m12 13.6h.8.8l-.8-.8h-.8-.8l-.8.8h.8z"/><path d="m11.2 26.4h-.8l.8-.8h-.8-.8l-.8.8-.8.8-.8.8.8.8h.8.8l.8-.8.8-.8.8-.8-.8-.8z"/><path d="m8 22.4-.8.8v.8.8l.8-.8h.8.8.8.8l-.8-.8-.8-.8h-.8z"/><path d="m8 16-.8-.8-.8-.8v-.8-.8l.8.8.8.8.8.8v-.8-.8l-.8-.8-.8-.8-.8-.8-.8-.8v.8.8.8.8.8.8l.8.8.8.8z"/></g><path d="m0 0h32" fill="#fff"/><path d="m32 32h-32" fill="#fff"/></svg>