<?xml version="1.0" encoding="utf-8"?>
<!-- Generator: Adobe Illustrator 25.2.0, SVG Export Plug-In . SVG Version: 6.00 Build 0)  -->
<svg version="1.1" id="Layer_1" xmlns="http://www.w3.org/2000/svg" xmlns:xlink="http://www.w3.org/1999/xlink" x="0px" y="0px"
	 viewBox="0 0 314.5 314" style="enable-background:new 0 0 314.5 314;" xml:space="preserve">
<style type="text/css">
	.st0{fill:#5400E7;}
</style>
<g id="aeb185af-abc3-4d29-985e-4961b12019ea">
	<g id="ee7f433f-5fc6-4db4-acb0-45285f089abd">
		<polyline class="st0" points="0,0 140.9,0 314.5,0 		"/>
		<polyline class="st0" points="314.5,314 126.1,314 0,314 		"/>
	</g>
</g>
<g>
	<polygon points="205.5,191.3 194.4,209.5 157.2,226.8 120.1,209.5 109,191.3 6.9,213.9 157.2,314 216.3,271.4 307.6,213.9 	"/>
	<path d="M233.7,92.1V40.9L192.9,0h-71.3L80.6,40.9v51.2L30.3,56.1l41,100.5h9.3v33.1l76.5,76.5l76.6-76.5v-33.1h9.3l41-100.5
		L233.7,92.1z M114,121.1l14.6,1.9l9.4,10.1h-30.4L114,121.1z M172.3,211.6l-4.9-10.4h-8h-6.7h-8l-4.9,10.4l-14.2-22.6h27.2h6.7
		h27.2L172.3,211.6z M176.5,133.1l9.4-10.1l14.6-1.9l6.4,12H176.5z"/>
</g>
</svg>
