<?xml version="1.0" encoding="utf-8"?>
<!-- Generator: Adobe Illustrator 25.2.0, SVG Export Plug-In . SVG Version: 6.00 Build 0)  -->
<svg version="1.1" id="Layer_1" xmlns="http://www.w3.org/2000/svg" xmlns:xlink="http://www.w3.org/1999/xlink" x="0px" y="0px"
	 viewBox="0 0 314.5 314" style="enable-background:new 0 0 314.5 314;" xml:space="preserve">
<style type="text/css">
	.st0{fill:#5400E7;}
	.st1{fill:#141414;}
</style>
<g id="Layer_2_1_">
	<g id="Layer_1-2">
		<g id="aeb185af-abc3-4d29-985e-4961b12019ea">
			<g id="ee7f433f-5fc6-4db4-acb0-45285f089abd">
				<polyline class="st0" points="0,0 140.9,0 314.5,0 				"/>
				<polyline class="st0" points="314.5,314 126.1,314 0,314 				"/>
			</g>
		</g>
	</g>
</g>
<path class="st1" d="M249.1,94.7l-27.3-47.3l-53.6,27.9h-22L92.7,47.4L65.4,94.7l-40.9,10l7.1,51.1l71.6,110.7h108l71.6-110.7
	l7.1-51.1L249.1,94.7z M98.8,92.1l-10.2-7.7l10.2-17.6l30.6,17.6l-10.2,7.7H98.8z M122.8,216.9v-25.3l18.5,15.5L122.8,216.9z
	 M191.7,216.9l-18.5-9.8l18.5-15.5V216.9z M215.5,92.1h-20.4l-10.2-7.7l30.6-17.6l10.2,17.6L215.5,92.1z"/>
</svg>
