<svg xmlns="http://www.w3.org/2000/svg" viewBox="0 0 314.5 314"><defs><style>.cls-1{fill:none;}.cls-2{fill:#231f20;}</style></defs><g id="Layer_2" data-name="Layer 2"><g id="Layer_1-2" data-name="Layer 1"><g id="a3d891e3-d1a8-45d9-8bb4-c816c9df960b"><g id="aab71d7e-7bf8-4474-9c42-a9921f90853b"><line class="cls-1" x2="314.5"/><line class="cls-1" x1="314.5" y1="314" y2="314"/></g></g></g><g id="mSkill"><g id="drain"><polygon class="cls-2" points="241.94 119.11 240.19 90.14 215.9 98.22 215.54 92.4 201.43 93.13 131.89 109.48 71.98 168.13 7.3 211.81 99.74 294.36 147.65 209.17 202.13 214.52 213.44 183.73 172.97 173.73 182.27 162.68 241.94 119.11"/><rect class="cls-2" x="215.19" y="48.05" width="12.83" height="12.83" transform="translate(103.42 -140.74) rotate(45)"/><rect class="cls-2" x="151.6" y="52.89" width="26.16" height="26.16" transform="translate(94.88 -97.13) rotate(45)"/><rect class="cls-2" x="232.44" y="150.13" width="12.83" height="12.83" transform="translate(180.66 -123.04) rotate(45)"/><rect class="cls-2" x="260.22" y="65.93" width="24.8" height="24.8" transform="translate(135.23 -169.83) rotate(45)"/><rect class="cls-2" x="275.28" y="29.82" width="12.83" height="12.83" transform="translate(108.13 -188.58) rotate(45)"/></g></g></g></svg>