<svg xmlns="http://www.w3.org/2000/svg" viewBox="0 0 314.5 314"><defs><style>.cls-1{fill:none;}.cls-2{fill:#1d1d1b;}</style></defs><g id="Layer_2" data-name="Layer 2"><g id="Layer_1-2" data-name="Layer 1"><g id="a3d891e3-d1a8-45d9-8bb4-c816c9df960b"><g id="aab71d7e-7bf8-4474-9c42-a9921f90853b"><line class="cls-1" x2="314.5"/><line class="cls-1" x1="314.5" y1="314" y2="314"/></g></g></g><g id="mSkill"><g id="ethereal"><polygon class="cls-2" points="155.38 89.06 106.57 40.31 57.77 89.06 72.07 103.36 37.63 137.88 37.64 137.89 37.56 137.88 37.56 247.26 65.98 275.69 65.98 138.05 66.18 137.88 94.72 109.26 80.47 95.02 106.57 68.86 132.73 95.02 118.42 109.32 146.97 137.88 147.17 137.68 147.17 137.88 147.17 138.05 147.17 275.69 175.57 247.26 175.57 137.88 141.08 103.36 155.38 89.06"/><polygon class="cls-2" points="158.12 40.31 206.93 89.06 192.63 103.36 227.12 137.88 227.12 247.26 198.72 275.69 198.72 138.05 198.72 137.88 198.72 137.68 198.52 137.88 169.97 109.32 184.28 95.02 158.12 68.86 158.12 40.31"/><polygon class="cls-2" points="209.94 40.31 258.75 89.06 244.45 103.36 278.94 137.88 278.94 247.26 250.54 275.69 250.54 138.05 250.54 137.88 250.54 137.68 250.35 137.88 221.79 109.32 236.1 95.02 209.94 68.86 209.94 40.31"/></g></g></g></svg>