<svg xmlns="http://www.w3.org/2000/svg" viewBox="0 0 314.5 314"><defs><style>.cls-1{fill:none;}.cls-2{fill:#231f20;}</style></defs><g id="Layer_2" data-name="Layer 2"><g id="Layer_1-2" data-name="Layer 1"><g id="a3d891e3-d1a8-45d9-8bb4-c816c9df960b"><g id="aab71d7e-7bf8-4474-9c42-a9921f90853b"><line class="cls-1" x2="314.5"/><line class="cls-1" x1="314.5" y1="314" y2="314"/></g></g></g><g id="mSkill"><g id="ignore"><path class="cls-2" d="M134.25,49.57H20.71l-.08.07-.13.14V156.69l6.61,6.61.07.06L42.82,179l15.7,15.71,13,13,9.17,9.14,9.16,9.18,13,13,15.72,15.7,15.65,15.67h8.08V49.57Zm0,73.89-.18-.18H94.6v39.48l.18.18,11.58,11.59,8.15,8.15,8.16,8.14,11.58,11.59V239L118.6,223.35l-13-13-2.47-2.49-6.68-6.68-6.68-6.69L87.25,192l-13-13L58.52,163.3V87.53h75.73Z"/><path class="cls-2" d="M172.17,49.57V270.43h8.08l15.65-15.67,15.72-15.7,13-13,9.16-9.18,9.17-9.14,13-13L271.68,179l15.64-15.63.07-.06,6.61-6.61V49.78l-.13-.14-.08-.07H172.17Zm8.08,38H256V163.3L240.27,179l-13,13-2.48,2.46-6.68,6.69-6.68,6.68-2.48,2.49-13,13L180.25,239V202.41l11.58-11.59,8.16-8.14,8.15-8.15,11.58-11.59.18-.18V123.28H180.43l-.18.18Z"/></g></g></g></svg>