<svg xmlns="http://www.w3.org/2000/svg" viewBox="0 0 314.5 314"><defs><style>.cls-1{fill:none;}.cls-2{fill:#231f20;}</style></defs><g id="Layer_2" data-name="Layer 2"><g id="Layer_1-2" data-name="Layer 1"><g id="a3d891e3-d1a8-45d9-8bb4-c816c9df960b"><g id="aab71d7e-7bf8-4474-9c42-a9921f90853b"><line class="cls-1" x2="314.5"/><line class="cls-1" x1="314.5" y1="314" y2="314"/></g></g></g><g id="mSkill"><polygon id="Splash" class="cls-2" points="285.57 223.57 201.03 188.22 193.04 174.26 200.16 159.63 254.02 121.44 259.55 89.99 238.77 65.7 207.92 67.55 163.08 120.72 145.66 123.41 131.52 111.77 105.02 41.93 81.49 31.62 58.94 45.42 54.98 72.56 90.85 120.49 90.58 148.6 72.63 162.83 45.67 163.4 31.33 177.17 33.02 198.05 49.43 209.72 79.97 204.78 95 213.02 98.03 229.91 82.67 261.41 85.81 275.87 98.89 282.15 111.69 275.36 130.41 225.63 139.01 221.47 147.77 226.54 154.33 246.11 165.42 252.97 177.58 247.7 181.32 234.43 176.67 223.91 177.29 216.14 184.05 214.79 257.39 275.49 282.12 272.03 294.83 248.63 285.57 223.57"/></g></g></svg>