<?xml version="1.0" encoding="utf-8"?>
<!-- Generator: Adobe Illustrator 25.2.0, SVG Export Plug-In . SVG Version: 6.00 Build 0)  -->
<svg version="1.1" id="Layer_1" xmlns="http://www.w3.org/2000/svg" xmlns:xlink="http://www.w3.org/1999/xlink" x="0px" y="0px"
	 viewBox="0 0 314.5 314" style="enable-background:new 0 0 314.5 314;" xml:space="preserve">
<style type="text/css">
	.st0{fill:#5400E7;}
	.st1{fill:#231F20;}
</style>
<g id="aeb185af-abc3-4d29-985e-4961b12019ea">
	<g id="ee7f433f-5fc6-4db4-acb0-45285f089abd">
		<polyline class="st0" points="0,0 140.9,0 314.5,0 		"/>
		<polyline class="st0" points="314.5,314 126.1,314 0,314 		"/>
	</g>
</g>
<path class="st1" d="M198.6,48.6l-0.2-0.2v-0.1h-82.3v0.1l-0.2,0.2L73.3,93l-5.5,140.7l-10.3,32.1v0.3l42.1-8.9l26,22.7l0.1-0.1
	l31.3-27.3l31.7,27.3l0.1,0.1l26-22.7l42.2,8.9v-0.3l-10.3-32.1L241.2,93L198.6,48.6z M115.1,145.5l-11.6-22.6l17.6,4l24.9,18.3
	L115.1,145.5z M199.9,144.3l-30-0.2l24.2-17.8l17.1-3.9L199.9,144.3z"/>
</svg>
