<?xml version="1.0" encoding="utf-8"?>
<!-- Generator: Adobe Illustrator 25.2.0, SVG Export Plug-In . SVG Version: 6.00 Build 0)  -->
<svg version="1.1" id="Layer_1" xmlns="http://www.w3.org/2000/svg" xmlns:xlink="http://www.w3.org/1999/xlink" x="0px" y="0px"
	 viewBox="0 0 314.5 314" style="enable-background:new 0 0 314.5 314;" xml:space="preserve">
<style type="text/css">
	.st0{fill:#5400E7;}
</style>
<g id="f30efac4-6fee-409e-b6d5-4a351d677ddd">
	<g id="a9c291ef-0b65-4593-8e5b-761de8c0c2a6">
		<polyline class="st0" points="0,0 140.9,0 314.5,0 		"/>
		<polyline class="st0" points="314.5,314 126.1,314 0,314 		"/>
	</g>
</g>
<g>
	<polygon points="297.7,241.6 283.7,226.6 250.2,218.1 250.2,199.4 208.5,157.7 157.1,157.7 105.8,157.7 64.1,199.4 64.1,218.1 
		30.8,226.6 16.8,241.6 14.3,258.7 26,248.5 39.9,240.4 78.5,238.2 88.3,248 64.3,272.4 60.1,292.5 66.8,308.4 71.5,293.6 
		79.3,279.4 103.4,263 157.1,263 210.7,263 234.9,279.4 242.6,293.6 247.4,308.4 254,292.5 249.8,272.4 225.9,248.1 235.7,238.2 
		274.6,240.4 288.5,248.5 300.2,258.7 	"/>
	<g>
		<polygon points="137.4,127.6 124,127.6 117.3,139.2 124,150.8 137.4,150.8 144.1,139.2 		"/>
		<polygon points="190.5,127.6 177.1,127.6 170.4,139.2 177.1,150.8 190.5,150.8 197.2,139.2 		"/>
	</g>
	<polygon points="54.9,67.3 37.1,145.4 50.1,147.9 79,153.8 134.2,61.3 131.9,50.4 99.4,84.1 	"/>
	<polygon points="62.1,58.6 89.6,69.3 103.2,34.6 125.1,19.6 88.4,15.3 	"/>
	<polygon points="240,74.1 283.3,137.2 264,146.2 240.5,156.7 175.6,88.5 175.5,78.7 205.2,97 	"/>
	<polygon points="233.4,66 212.3,80.7 193.8,53.3 172.2,44.8 202.4,33.7 	"/>
	<polygon points="95.2,170.6 88.6,150.6 37.1,145.4 78.4,194 	"/>
	<polygon points="221,175.6 228.8,154 264.9,140.5 283.3,137.2 239.3,203.4 	"/>
</g>
</svg>
