<?xml version="1.0" encoding="utf-8"?>
<!-- Generator: Adobe Illustrator 25.4.1, SVG Export Plug-In . SVG Version: 6.00 Build 0)  -->
<svg version="1.1" id="Layer_1" xmlns="http://www.w3.org/2000/svg" xmlns:xlink="http://www.w3.org/1999/xlink" x="0px" y="0px"
	 viewBox="0 0 314.5 314" style="enable-background:new 0 0 314.5 314;" xml:space="preserve">
<style type="text/css">
	.st0{fill:#5400E7;}
	.st1{fill:#231F20;}
</style>
<g id="Layer_2_00000098203646048398193020000012085182100070299803_">
	<g id="Layer_1-2">
		<g id="aeb185af-abc3-4d29-985e-4961b12019ea">
			<g id="ee7f433f-5fc6-4db4-acb0-45285f089abd">
				<polyline class="st0" points="0,0 140.9,0 314.5,0 				"/>
				<polyline class="st0" points="314.5,314 126.1,314 0,314 				"/>
			</g>
		</g>
	</g>
</g>
<path class="st1" d="M228.5,205.1l22.1-94.8L70.9,67.7l-4.2,18.2l-40.6-9.6L2.9,174l40.8,9.8l-7.3,12.6l28.9,50h57.1h0.7h57.1
	l15.3-26.6l23.6,5.6l0,0l4.4,1l84.5,20l5-21.3L228.5,205.1z M155.6,160.1h16.6l8.3,14.4L162.3,185l-2.2-3.8h-4.4V160.1z M52.4,196.4
	l5.3-9.2l20.2,4.8l1.1,0.6l-2.2,3.8l2.2,3.8l-18.3,10.5L52.4,196.4z M89.9,232.6H73.3L65,218.2l18.3-10.5l2.2,3.8h4.4V232.6z
	 M98.5,232.6v-21.1h3.8l12.2,21.1H98.5z M111.9,200.6l-0.4-0.7l0,0l-2-3.5l8.3-14.4l18.3,10.5l-2.2,3.8l2.2,3.8l-6.7,3.9l0,0
	l-6.5,3.8l0,0l-5,2.9L111.9,200.6z M147,211.6v20.9v0.2h-16.6l-8.3-14.4l0.1,0l-0.1-0.1l0.7-0.4l0.1,0.1l17.5-10.1l2.2,3.8h0.6
	l0.1-0.1h3.8V211.6z M147,181.2h-4.4l-2.2,3.8l-18.3-10.5l8.3-14.4H147V181.2z M180.5,218.4l-8.3,14.4h-16.6v-0.2v-20.9v-0.1h4.4
	l0.1-0.1l0.1,0l2.1-3.6l12,6.9l0.4,0.1l5.9,3.4V218.4L180.5,218.4z M184.8,210.7l-18.3-10.5l2.2-3.8l-2.2-3.8l18.3-10.6l8.3,14.4
	L184.8,210.7z"/>
</svg>
