<svg id="Layer_1" data-name="Layer 1" xmlns="http://www.w3.org/2000/svg" viewBox="0 0 32 32"><polygon points="23.2 20 22.4 20 22.4 20.8 23.2 20.8 24 20.8 24 20 23.2 20" fill="#cec1b9"/><polygon points="20.8 24 20 24 19.2 24 18.4 24 17.6 24 16.8 24 16 24 15.2 24 14.4 24 13.6 24 12.8 24 12 24 11.2 24 10.4 24 9.6 24 9.6 24.8 10.4 24.8 11.2 24.8 12 24.8 12.8 24.8 13.6 24.8 14.4 24.8 15.2 24.8 16 24.8 16.8 24.8 17.6 24.8 18.4 24.8 19.2 24.8 20 24.8 20.8 24.8 21.6 24.8 22.4 24.8 22.4 24 21.6 24 20.8 24" fill="#cec1b9"/><polygon points="20.8 29.6 20 29.6 19.2 29.6 18.4 29.6 17.6 29.6 16.8 29.6 16 29.6 15.2 29.6 14.4 29.6 13.6 29.6 12.8 29.6 12 29.6 11.2 29.6 10.4 29.6 9.6 29.6 9.6 30.4 10.4 30.4 11.2 30.4 12 30.4 12.8 30.4 13.6 30.4 14.4 30.4 15.2 30.4 16 30.4 16.8 30.4 17.6 30.4 18.4 30.4 19.2 30.4 20 30.4 20.8 30.4 21.6 30.4 22.4 30.4 22.4 29.6 21.6 29.6 20.8 29.6" fill="#cec1b9"/><polygon points="9.6 20 8.8 20 8 20 8 20.8 8.8 20.8 9.6 20.8 9.6 20" fill="#cec1b9"/><line x2="32" fill="#fff"/><line x1="32" y1="32" y2="32" fill="#fff"/></svg>