<svg id="Layer_1" data-name="Layer 1" xmlns="http://www.w3.org/2000/svg" viewBox="0 0 32 32"><polygon points="21.6 21.6 20.8 21.6 20 21.6 19.2 21.6 18.4 21.6 17.6 21.6 16.8 21.6 16 21.6 15.2 21.6 15.2 22.4 16 22.4 16.8 22.4 17.6 22.4 18.4 22.4 19.2 22.4 20 22.4 20.8 22.4 21.6 22.4 22.4 22.4 22.4 21.6 21.6 21.6" fill="#6b4528"/><polygon points="20.8 26.4 20.8 27.2 20.8 28 20.8 28.8 20.8 29.6 21.6 29.6 21.6 28.8 21.6 28 21.6 27.2 21.6 26.4 21.6 25.6 20.8 25.6 20.8 26.4" fill="#6b4528"/><polygon points="18.4 26.4 18.4 27.2 18.4 28 18.4 28.8 18.4 29.6 19.2 29.6 19.2 28.8 19.2 28 19.2 27.2 19.2 26.4 19.2 25.6 18.4 25.6 18.4 26.4" fill="#6b4528"/><polygon points="16 28 16 28.8 16 29.6 16.8 29.6 16.8 28.8 16.8 28 16.8 27.2 16 27.2 16 28" fill="#6b4528"/><polygon points="13.6 21.6 12.8 21.6 12 21.6 11.2 21.6 10.4 21.6 9.6 21.6 9.6 22.4 10.4 22.4 11.2 22.4 12 22.4 12.8 22.4 13.6 22.4 14.4 22.4 15.2 21.6 14.4 21.6 13.6 21.6" fill="#6b4528"/><polygon points="13.6 26.4 13.6 27.2 13.6 28 13.6 28.8 13.6 29.6 14.4 29.6 14.4 28.8 14.4 28 14.4 27.2 14.4 26.4 14.4 25.6 13.6 25.6 13.6 26.4" fill="#6b4528"/><polygon points="11.2 26.4 11.2 27.2 11.2 28 11.2 28.8 11.2 29.6 12 29.6 12 28.8 12 28 12 27.2 12 26.4 12 25.6 11.2 25.6 11.2 26.4" fill="#6b4528"/><line x2="32" fill="#fff"/><line x1="32" y1="32" y2="32" fill="#fff"/></svg>