<svg id="Layer_1" data-name="Layer 1" xmlns="http://www.w3.org/2000/svg" viewBox="0 0 16 16"><polygon points="15.2 4 14.4 4 14.4 4.8 15.2 4.8 16 4.8 16 4 15.2 4" fill="#cec1b9"/><polygon points="12.8 8 12 8 11.2 8 10.4 8 9.6 8 8.8 8 8 8 7.2 8 6.4 8 5.6 8 4.8 8 4 8 3.2 8 2.4 8 1.6 8 1.6 8.8 2.4 8.8 3.2 8.8 4 8.8 4.8 8.8 5.6 8.8 6.4 8.8 7.2 8.8 8 8.8 8.8 8.8 9.6 8.8 10.4 8.8 11.2 8.8 12 8.8 12.8 8.8 13.6 8.8 14.4 8.8 14.4 8 13.6 8 12.8 8" fill="#cec1b9"/><polygon points="12.8 13.6 12 13.6 11.2 13.6 10.4 13.6 9.6 13.6 8.8 13.6 8 13.6 7.2 13.6 6.4 13.6 5.6 13.6 4.8 13.6 4 13.6 3.2 13.6 2.4 13.6 1.6 13.6 1.6 14.4 2.4 14.4 3.2 14.4 4 14.4 4.8 14.4 5.6 14.4 6.4 14.4 7.2 14.4 8 14.4 8.8 14.4 9.6 14.4 10.4 14.4 11.2 14.4 12 14.4 12.8 14.4 13.6 14.4 14.4 14.4 14.4 13.6 13.6 13.6 12.8 13.6" fill="#cec1b9"/><polygon points="1.6 4 0.8 4 0 4 0 4.8 0.8 4.8 1.6 4.8 1.6 4" fill="#cec1b9"/><g id="chest"><line x2="16" fill="#fff"/><line x1="16" y1="16" y2="16" fill="#fff"/></g></svg>