<svg id="Layer_1" data-name="Layer 1" xmlns="http://www.w3.org/2000/svg" viewBox="0 0 32 32"><polygon points="23.2 19.2 22.4 19.2 21.6 20 22.4 20 23.2 20 24 20 24 19.2 23.2 19.2" fill="#948d88"/><path d="M86.58,158.29v4H73.78v-4h-1.6v6.4l.8.8h-.8v4h11.2l.8-.8.8.8h3.2v-11.2h-1.6Zm-6.4,4.8H81v.8h-1.6v-.8Zm4,4.8H73.78v-4.8h4.8v1.6h3.2v-1.6h4.8v4.8h-2.4Z" transform="translate(-64.18 -137.49)" fill="#948d88"/><polygon points="9.6 20 10.4 20 9.6 19.2 8.8 19.2 8 19.2 8 20 8.8 20 9.6 20" fill="#948d88"/><line x2="32" fill="#fff"/><line x1="32" y1="32" y2="32" fill="#fff"/></svg>