<svg id="Layer_1" data-name="Layer 1" xmlns="http://www.w3.org/2000/svg" viewBox="0 0 16 16"><polygon points="15.2 3.2 14.4 3.2 13.6 4 14.4 4 15.2 4 16 4 16 3.2 15.2 3.2" fill="#948d88"/><path d="M73.22,159.09v4H60.42v-4h-1.6v11.2h16v-11.2h-1.6Zm-6.4,4.8h.8v.8H66v-.8Zm4,4.8H60.42v-4.8h4.8v1.6h3.2v-1.6h4.8v4.8h-2.4Z" transform="translate(-58.82 -154.29)" fill="#948d88"/><polygon points="1.6 4 2.4 4 1.6 3.2 0.8 3.2 0 3.2 0 4 0.8 4 1.6 4" fill="#948d88"/><g id="chest"><line x2="16" fill="#fff"/><line x1="16" y1="16" y2="16" fill="#fff"/></g></svg>