<svg id="Layer_1" data-name="Layer 1" xmlns="http://www.w3.org/2000/svg" viewBox="0 0 16 16"><polygon points="13.6 4 12.8 4 12 4 11.2 4 10.4 4 9.6 4 8.8 4 8 4 7.2 4 6.4 4 5.6 4 4.8 4 4 4 3.2 4 2.4 4 1.6 4 1.6 4.8 1.6 6.4 1.6 6.67 1.6 7.2 1.6 8 2.4 8 3.2 8 4 8 4.8 8 5.6 8 6.4 8 7.2 8 8 8 8.8 8 9.6 8 10.4 8 11.2 8 12 8 12.8 8 13.6 8 14.4 8 14.4 7.2 14.4 6.67 14.4 6.4 14.4 4.8 14.4 4 13.6 4" fill="#8a3928"/><polygon points="13.86 9.6 13.6 9.6 9.6 9.6 9.6 10.4 9.6 11.2 8 11.2 7.53 11.2 7.2 11.2 6.4 11.2 6.4 10.4 6.4 9.6 4.8 9.6 3.2 9.6 2.67 9.6 2.4 9.6 1.6 9.6 1.6 10.4 1.6 11.2 1.6 12 1.6 12.8 1.6 13.6 2.4 13.6 2.67 13.6 3.2 13.6 4.8 13.6 6.4 13.6 7.2 13.6 7.53 13.6 8 13.6 9.6 13.6 13.6 13.6 13.86 13.6 14.4 13.6 14.4 12.8 14.4 12 14.4 11.2 14.4 10.4 14.4 9.6 13.86 9.6" fill="#8a3928"/><g id="chest"><line x2="16" fill="#fff"/><line x1="16" y1="16" y2="16" fill="#fff"/></g></svg>