<svg id="Layer_1" data-name="Layer 1" xmlns="http://www.w3.org/2000/svg" viewBox="0 0 16 16"><polygon points="15.2 0.8 14.4 0.8 13.6 0.8 12.8 0.8 12 0.8 11.2 0.8 10.4 0.8 9.6 0.8 8.8 0.8 8 0.8 7.2 0.8 6.4 0.8 5.6 0.8 4.8 0.8 4 0.8 3.2 0.8 2.4 0.8 1.6 0.8 0.8 0.8 0 0.8 0 1.6 0 2.4 0 3.2 0 4 0 4.8 0 5.6 0.8 5.6 1.6 5.6 2.4 5.6 2.4 4.8 1.6 4.8 1.6 4 1.6 3.2 1.6 2.4 1.6 1.6 2.4 1.6 3.2 1.6 4 1.6 4.8 1.6 5.6 1.6 6.4 1.6 7.2 1.6 8 1.6 8.8 1.6 9.6 1.6 10.4 1.6 11.2 1.6 12 1.6 12.8 1.6 13.6 1.6 14.4 1.6 14.4 2.4 14.4 3.2 14.4 4 14.4 4.8 13.6 4.8 13.6 5.6 14.4 5.6 15.2 5.6 16 5.6 16 4.8 16 4 16 3.2 16 2.4 16 1.6 16 0.8 15.2 0.8" fill="#948d88"/><polygon points="12 5.6 12 6.4 12.8 6.4 13.6 6.4 13.6 5.6 12.8 5.6 12 5.6" fill="#948d88"/><polygon points="11.2 4.8 10.4 4.8 9.6 4.8 8.8 4.8 8 4.8 7.2 4.8 6.4 4.8 5.6 4.8 4.8 4.8 4 4.8 4 5.6 4.8 5.6 5.6 5.6 6.4 5.6 7.2 5.6 8 5.6 8.8 5.6 9.6 5.6 10.4 5.6 11.2 5.6 12 5.6 12 4.8 11.2 4.8" fill="#948d88"/><polygon points="2.4 5.6 2.4 6.4 3.2 6.4 4 6.4 4 5.6 3.2 5.6 2.4 5.6" fill="#948d88"/><path d="M73.22,163.09H58.82v7.2h16v-7.2Zm-6.4.8h.8v.8H66v-.8Zm4,4.8H60.42v-4.8h4.8v1.6h3.2v-1.6h4.8v4.8h-2.4Z" transform="translate(-58.82 -154.29)" fill="#948d88"/><g id="chest"><line x2="16" fill="#fff"/><line x1="16" y1="16" y2="16" fill="#fff"/></g></svg>