<svg id="Layer_1" data-name="Layer 1" xmlns="http://www.w3.org/2000/svg" viewBox="0 0 16 16"><polygon points="13.6 1.6 12.8 1.6 12 1.6 11.2 1.6 10.4 1.6 9.6 1.6 8.8 1.6 8 1.6 7.2 1.6 6.4 1.6 5.6 1.6 4.8 1.6 4 1.6 3.2 1.6 2.4 1.6 1.6 1.6 1.6 2.4 1.6 3.2 1.6 4 1.6 4.8 2.4 4.8 3.2 4.8 4 4.8 4.8 4.8 5.6 4.8 6.4 4.8 7.2 4.8 8 4.8 8.8 4.8 9.6 4.8 10.4 4.8 11.2 4.8 12 4.8 12.8 4.8 13.6 4.8 14.4 4.8 14.4 4 14.4 3.2 14.4 2.4 14.4 1.6 13.6 1.6" fill="#6b4528"/><g id="chest"><line x2="16" fill="#fff"/><line x1="16" y1="16" y2="16" fill="#fff"/></g></svg>