<svg viewBox="0 0 16 16" xmlns="http://www.w3.org/2000/svg"><g fill="#948d88"><path d="m15.2.8h-.8-.8-.8-.8-.8-.8-.8-.8-.8-.8-.8-.8-.8-.8-.8-.8-.8-.8-.8v.8.8.8.8.8.8h.8.8.8v-.8h-.8v-.8-.8-.8-.8h.8.8.8.8.8.8.8.8.8.8.8.8.8.8.8.8v.8.8.8.8h-.8v.8h.8.8.8v-.8-.8-.8-.8-.8-.8z"/><path d="m12 5.6v.8h.8.8v-.8h-.8z"/><path d="m11.2 4.8h-.8-.8-.8-.8-.8-.8-.8-.8-.8v.8h.8.8.8.8.8.8.8.8.8.8v-.8z"/><path d="m2.4 5.6v.8h.8.8v-.8h-.8z"/><path d="m73.22 163.09h-14.4v7.2h16v-7.2zm-6.4.8h.8v.8h-1.62v-.8zm4 4.8h-10.4v-4.8h4.8v1.6h3.2v-1.6h4.8v4.8z" transform="translate(-58.82 -154.29)"/></g><path d="m0 0h16" fill="#fff"/><path d="m16 16h-16" fill="#fff"/></svg>