<svg id="Layer_1" data-name="Layer 1" xmlns="http://www.w3.org/2000/svg" viewBox="0 0 32 32"><polygon points="21.6 21.6 21.6 22.4 20.8 22.4 20 22.4 20 21.6 19.2 21.6 18.4 21.6 17.6 21.6 16.8 21.6 16 21.6 15.2 21.6 14.4 21.6 13.6 21.6 12.8 21.6 12 21.6 12 22.4 11.2 22.4 10.4 22.4 10.4 21.6 9.6 21.6 9.6 22.4 9.6 23.2 9.6 24 10.4 24 11.2 24 12 24 12.8 24 13.6 24 14.4 24 15.2 24 16 24 16.8 24 17.6 24 18.4 24 19.2 24 20 24 20.8 24 21.6 24 22.4 24 22.4 23.2 22.4 22.4 22.4 21.6 21.6 21.6" fill="#56504e"/><polygon points="15.2 25.6 15.2 26.4 16 26.4 16.8 26.4 16.8 25.6 16 25.6 15.2 25.6" fill="#56504e"/><line x2="32" fill="none"/><line x1="32" y1="32" y2="32" fill="none"/></svg>