<svg id="Layer_1" data-name="Layer 1" xmlns="http://www.w3.org/2000/svg" viewBox="0 0 32 32"><polygon points="23.2 16.8 22.4 16.8 21.6 16.8 20.8 16.8 20 16.8 19.2 16.8 18.4 16.8 17.6 16.8 16.8 16.8 16 16.8 15.2 16.8 14.4 16.8 13.6 16.8 12.8 16.8 12 16.8 11.2 16.8 10.4 16.8 9.6 16.8 8.8 16.8 8 16.8 8 17.6 8 18.4 8 19.2 8 20 8 20.8 8 21.6 8.8 21.6 9.6 21.6 10.4 21.6 10.4 20.8 9.6 20.8 9.6 20 9.6 19.2 9.6 18.4 9.6 17.6 10.4 17.6 11.2 17.6 12 17.6 12.8 17.6 13.6 17.6 14.4 17.6 15.2 17.6 16 17.6 16.8 17.6 17.6 17.6 18.4 17.6 19.2 17.6 20 17.6 20.8 17.6 21.6 17.6 22.4 17.6 22.4 18.4 22.4 19.2 22.4 20 22.4 20.8 21.6 20.8 21.6 21.6 22.4 21.6 23.2 21.6 24 21.6 24 20.8 24 20 24 19.2 24 18.4 24 17.6 24 16.8 23.2 16.8" fill="#948d88"/><path d="M86.58,162.29H72.18v2.4l.8.8h-.8v4h11.2l.8-.8.8.8h3.2v-7.2h-1.6Zm-6.4.8H81v.8h-1.6v-.8Zm4,4.8H73.78v-4.8h4.8v1.6h3.2v-1.6h4.8v4.8h-2.4Z" transform="translate(-64.18 -137.49)" fill="#948d88"/><polygon points="20 21.6 20 22.4 20.8 22.4 21.6 22.4 21.6 21.6 20.8 21.6 20 21.6" fill="#948d88"/><polygon points="19.2 20.8 18.4 20.8 17.6 20.8 16.8 20.8 16 20.8 15.2 20.8 14.4 20.8 13.6 20.8 12.8 20.8 12 20.8 12 21.6 12.8 21.6 13.6 21.6 14.4 21.6 15.2 21.6 16 21.6 16.8 21.6 17.6 21.6 18.4 21.6 19.2 21.6 20 21.6 20 20.8 19.2 20.8" fill="#948d88"/><polygon points="10.4 21.6 10.4 22.4 11.2 22.4 12 22.4 12 21.6 11.2 21.6 10.4 21.6" fill="#948d88"/><line x2="32" fill="#fff"/><line x1="32" y1="32" y2="32" fill="#fff"/></svg>