<svg id="Layer_1" data-name="Layer 1" xmlns="http://www.w3.org/2000/svg" viewBox="0 0 16 16"><polygon points="13.6 5.6 13.6 6.4 12.8 6.4 12 6.4 12 5.6 11.2 5.6 10.4 5.6 9.6 5.6 8.8 5.6 8 5.6 7.2 5.6 6.4 5.6 5.6 5.6 4.8 5.6 4 5.6 4 6.4 3.2 6.4 2.4 6.4 2.4 5.6 1.6 5.6 1.6 6.4 1.6 7.2 1.6 8 2.4 8 3.2 8 4 8 4.8 8 5.6 8 6.4 8 7.2 8 8 8 8.8 8 9.6 8 10.4 8 11.2 8 12 8 12.8 8 13.6 8 14.4 8 14.4 7.2 14.4 6.4 14.4 5.6 13.6 5.6" fill="#56504e"/><polygon points="8 9.6 7.2 9.6 7.2 10.4 8 10.4 8.8 10.4 8.8 9.6 8 9.6" fill="#56504e"/><g id="chest"><line x2="16" fill="#fff"/><line x1="16" y1="16" y2="16" fill="#fff"/></g></svg>