<svg id="Layer_1" data-name="Layer 1" xmlns="http://www.w3.org/2000/svg" viewBox="0 0 16 16"><polygon points="13.86 9.6 13.6 9.6 9.6 9.6 9.6 10.4 9.6 11.2 8 11.2 7.53 11.2 7.2 11.2 6.4 11.2 6.4 10.4 6.4 9.6 4.8 9.6 3.2 9.6 2.67 9.6 2.4 9.6 1.6 9.6 1.6 10.4 1.6 11.2 1.6 12 1.6 12.8 1.6 13.6 2.4 13.6 2.67 13.6 3.2 13.6 4.8 13.6 6.4 13.6 7.2 13.6 7.53 13.6 8 13.6 9.6 13.6 13.6 13.6 13.86 13.6 14.4 13.6 14.4 12.8 14.4 12 14.4 11.2 14.4 10.4 14.4 9.6 13.86 9.6" fill="#8a3928"/><g id="chest"><line x2="16" fill="#fff"/><line x1="16" y1="16" y2="16" fill="#fff"/></g></svg>