<svg xmlns="http://www.w3.org/2000/svg" width="2000" height="2000" viewBox="0 0 2000 2000"><defs><style>.a1c22d5a-53da-4d05-a003-3b3fca5c46e0{fill:#fff;}</style></defs><g id="f12020b2-9f96-45d8-bd25-80a6b1c7baad" data-name="Layer 2"><g id="badc63f7-ee29-449a-ac39-2bb0536abfc6" data-name="Frame"><g id="be62c7a6-e35c-4e36-bea1-09db6676adc3" data-name="Base"><line class="a1c22d5a-53da-4d05-a003-3b3fca5c46e0" x2="2000"/><line class="a1c22d5a-53da-4d05-a003-3b3fca5c46e0" y1="2000" x2="2000" y2="2000"/></g></g><g id="a3ecdaac-4b48-40cc-9b99-0a407c7a66ed" data-name="1"><path class="a1c22d5a-53da-4d05-a003-3b3fca5c46e0" d="M1435.91,1436H564.56V564.65h871.35Zm-827.25-44.18h783.16v-783H608.66Z"/><path class="a1c22d5a-53da-4d05-a003-3b3fca5c46e0" d="M805.65,805.93H751.1c-16.83,0-33.67,0-50.5.05-3,0-4.53-.61-4.52-4.12.12-34.5.08-69,.1-103.5a12.57,12.57,0,0,1,.36-1.88c1.36-.11,2.79-.32,4.22-.32q50,0,100-.06c3.2,0,5.27.16,5.26,4.4-.15,34.17-.09,68.33-.1,102.5C805.92,803.8,805.78,804.6,805.65,805.93Z"/><path class="a1c22d5a-53da-4d05-a003-3b3fca5c46e0" d="M1304.16,1304.43h-5.43c-32.79,0-65.59-.08-98.38.09-4.58,0-6-1.24-5.95-5.9.19-32.8.1-65.59.1-98.39v-5.72h5.18c33,0,65.92.06,98.89-.1,4.55,0,6,1.25,6,5.91-.19,33-.1,65.93-.11,98.89C1304.41,1300.68,1304.27,1302.15,1304.16,1304.43Z"/><path class="a1c22d5a-53da-4d05-a003-3b3fca5c46e0" d="M1054.58,1054.55H946V946.12h108.55Z"/></g></g></svg>