<svg xmlns="http://www.w3.org/2000/svg" width="2000" height="2000" viewBox="0 0 2000 2000"><defs><style>.efcdf354-4c2f-4b77-a84f-e0c4712c1129{fill:#fff;}</style></defs><g id="ba3d0f7c-b8af-4ba1-8f4d-76092b9a2b95" data-name="Layer 2"><g id="ef4707aa-5a02-464b-9255-10cf835940a7" data-name="Frame"><g id="e6b14262-5580-4577-9780-ecb2bb3fb096" data-name="Base"><line class="efcdf354-4c2f-4b77-a84f-e0c4712c1129" x2="2000"/><line class="efcdf354-4c2f-4b77-a84f-e0c4712c1129" y1="2000" x2="2000" y2="2000"/></g></g><g id="b97b7aad-99f6-44c1-b554-aca00ea0d16a" data-name="1"><path class="efcdf354-4c2f-4b77-a84f-e0c4712c1129" d="M564.58,564.5h871.3v871.3H564.58Zm44.06,827.31H1391.8v-783H608.64Z"/><path class="efcdf354-4c2f-4b77-a84f-e0c4712c1129" d="M805.71,805.94h-4.85c-33,0-66-.1-99,.1-4.67,0-5.84-1.36-5.82-5.92.19-32.83.1-65.66.1-98.49v-5.17c2-.13,3.41-.3,4.86-.3,33.33,0,66.67,0,100-.08,3.52,0,5,.72,5,4.66-.14,34-.08,68-.09,102C805.92,803.55,805.82,804.37,805.71,805.94Z"/><path class="efcdf354-4c2f-4b77-a84f-e0c4712c1129" d="M1304,696.14c.16,1.86.38,3.16.38,4.45,0,33.46,0,66.93.06,100.39,0,3.47-.72,5-4.67,5-34.3-.14-68.59-.09-102.89-.1-.49,0-1-.1-2.12-.23-.1-1.65-.28-3.39-.29-5.13,0-32.8.1-65.6-.1-98.4,0-4.85,1.38-6.14,6.16-6.11,32.64.2,65.27.1,97.9.1Z"/><path class="efcdf354-4c2f-4b77-a84f-e0c4712c1129" d="M805.93,1194.87c0,35.55,0,70.51,0,105.47,0,2.56-.53,4.1-3.53,4.1q-52.2-.11-104.39-.13a8.18,8.18,0,0,1-1.9-.67v-4.73c0-33.13.05-66.26-.06-99.39,0-3.5.7-5.09,4.62-5.08,34,.12,67.93.06,101.89.07C803.55,1194.51,804.51,1194.72,805.93,1194.87Z"/><path class="efcdf354-4c2f-4b77-a84f-e0c4712c1129" d="M1194.5,1194.5h5.88c32.63,0,65.26.08,97.89-.1,4.71,0,6.29,1.2,6.26,6.12-.21,32.8-.11,65.59-.12,98.39,0,1.63-.16,3.25-.27,5.26-2.05.09-3.83.25-5.61.25-32.63,0-65.26-.08-97.88.1-4.73,0-6.28-1.19-6.25-6.1.2-32.8.1-65.59.1-98.39Z"/><path class="efcdf354-4c2f-4b77-a84f-e0c4712c1129" d="M946.07,1054.46V946.16h108.47v108.3Z"/></g></g></svg>