<svg xmlns="http://www.w3.org/2000/svg" viewBox="0 0 529 529"><defs><style>.cls-1{fill:#2d5224;}.cls-2{fill:none;}</style></defs><g id="Layer_2" data-name="Layer 2"><g id="forest"><rect class="cls-1" x="446.35" y="49.59" width="16.53" height="16.53"/><polygon class="cls-1" points="314.1 314.1 330.63 330.63 330.63 314.1 314.1 314.1"/><polygon class="cls-1" points="396.75 446.35 396.75 462.88 380.22 462.88 363.69 462.88 347.16 446.35 347.16 429.81 330.63 429.81 314.1 446.35 314.1 462.88 314.1 479.41 314.1 495.94 314.1 512.47 314.1 529 330.63 529 347.16 529 363.69 529 380.22 512.47 396.75 495.94 396.75 479.41 396.75 462.88 413.28 446.35 396.75 446.35"/><rect class="cls-1" x="413.28" y="479.41" width="16.53" height="16.53"/><polygon class="cls-1" points="247.97 247.97 231.44 264.5 247.97 281.03 264.5 281.03 281.03 281.03 281.03 264.5 281.03 247.97 264.5 247.97 247.97 247.97"/><polygon class="cls-1" points="281.03 479.41 297.56 495.94 297.56 479.41 297.56 462.88 281.03 462.88 281.03 479.41"/><polygon class="cls-1" points="479.41 512.47 479.41 495.94 479.41 479.41 462.88 462.88 446.35 462.88 429.81 462.88 446.35 479.41 429.81 495.94 429.81 512.47 429.81 529 446.35 529 462.88 529 479.41 529 495.94 529 495.94 529 512.47 529 512.47 512.47 495.94 529 479.41 512.47"/><polygon class="cls-1" points="512.47 115.72 495.94 132.25 479.41 148.78 479.41 165.31 495.94 165.31 512.47 181.84 512.47 165.31 512.47 148.78 529 132.25 512.47 115.72"/><polygon class="cls-1" points="495.94 99.19 512.47 82.66 512.47 66.13 512.47 49.59 495.94 33.06 479.41 49.59 462.88 66.13 462.88 82.66 462.88 99.19 479.41 115.72 495.94 99.19"/><polygon class="cls-1" points="462.88 181.84 462.88 165.31 446.35 148.78 429.81 165.31 429.81 181.84 446.35 181.84 462.88 181.84"/><polygon class="cls-1" points="380.22 165.31 396.75 165.31 396.75 148.78 396.75 132.25 380.22 132.25 363.69 132.25 347.16 148.78 347.16 165.31 363.69 165.31 380.22 165.31"/><polygon class="cls-1" points="314.1 281.03 330.63 297.56 347.16 314.1 363.69 314.1 380.22 314.1 396.75 314.1 413.28 314.1 429.81 297.56 429.81 297.56 446.35 281.03 446.35 264.5 446.35 247.97 429.81 231.44 429.81 214.91 429.81 198.38 413.28 198.38 396.75 198.38 380.22 181.84 363.69 181.84 363.69 198.38 347.16 214.91 330.63 214.91 314.1 214.91 297.56 231.44 281.03 247.97 297.56 264.5 314.1 264.5 314.1 281.03"/><polygon class="cls-1" points="264.5 214.91 281.03 214.91 297.56 198.38 314.1 181.84 330.63 165.31 330.63 148.78 314.1 148.78 297.56 148.78 281.03 148.78 264.5 148.78 264.5 165.31 247.97 181.84 231.44 198.38 247.97 214.91 264.5 214.91"/><polygon class="cls-1" points="413.28 380.22 429.81 380.22 429.81 363.69 413.28 347.16 396.75 330.63 380.22 330.63 363.69 330.63 347.16 347.16 363.69 363.69 380.22 380.22 396.75 380.22 413.28 380.22"/><rect class="cls-1" x="87.5" y="302.41" width="23.38" height="23.38" transform="translate(38.39 195.2) rotate(-45)"/><polygon class="cls-1" points="363.69 429.81 363.69 446.35 380.22 446.35 396.75 429.81 380.22 413.28 363.69 429.81"/><line class="cls-2" x2="529"/><line class="cls-2" x1="529" y1="529" y2="529"/></g></g></svg>