<svg xmlns="http://www.w3.org/2000/svg" viewBox="0 0 529 529"><defs><style>.cls-1{fill:#91c257;}</style></defs><g id="Layer_2" data-name="Layer 2"><g id="grass"><g id="grass-2" data-name="grass"><rect class="cls-1" x="115.72" y="33.06" width="16.53" height="16.53"/><path class="cls-1" d="M512.47,314.09v33.07l-16.53,16.53-16.53,16.53H446.35l-16.54-16.53h49.6V347.16l-16.53-16.53-16.53,16.53-16.54,16.53-16.53-16.53V314.09h0l16.53-16.53L446.35,281l16.53-16.53h0V231.44l-16.53-16.53-16.54-16.53-16.53-16.54-16.53-16.53V132.25H363.69l-16.53,16.53v33.06l-16.53,16.54-16.54,16.53-16.53,16.53L281,248H248L231.44,264.5,248,281l-16.53,16.53L214.91,281H181.84L165.31,264.5,148.78,248V181.84l-16.53-16.53,16.53-16.53-16.53-16.53H66.13L49.59,148.78,33.06,165.31H16.53V148.78l16.53-16.53,16.53-16.53H82.66L99.19,99.19l16.53-16.53h33.06l16.53,16.53,16.53,16.53v33.06l16.54,16.53,16.53-16.53V115.72l16.53-16.53L248,82.66h66.12l16.54-16.53,16.53-16.54h66.12l16.53,16.54,16.54,16.53v33.06l-16.54,16.53v33.06h0v16.53h16.54l16.53,16.54h33.06l16.53,16.53V248L495.94,264.5,512.47,281,529,297.56V0H0V529H529V297.56ZM99.19,66.13V33.06l16.53-16.53h33.06V49.59L132.25,66.13H99.19Zm0,446.34H82.66l16.53-16.53,16.53,16.53Z"/><polygon class="cls-1" points="132.25 99.19 148.78 115.72 165.31 132.25 165.31 115.72 165.31 99.19 148.78 99.19 132.25 99.19"/><polygon class="cls-1" points="396.75 132.25 396.75 132.25 396.75 132.25 396.75 132.25"/><polygon class="cls-1" points="479.41 214.91 479.41 214.91 495.94 231.44 495.94 214.91 479.41 214.91"/><polygon class="cls-1" points="429.81 99.19 413.28 82.66 396.75 66.13 380.22 66.13 363.69 66.13 347.16 82.66 363.69 99.19 380.22 99.19 396.75 99.19 413.28 115.72 429.81 115.72 429.81 99.19"/><polygon class="cls-1" points="231.44 198.38 247.97 214.91 264.5 214.91 281.03 214.91 297.56 198.38 314.1 181.84 330.63 165.31 330.63 148.78 314.1 148.78 297.56 148.78 281.03 148.78 264.5 148.78 264.5 165.31 247.97 181.84 231.44 198.38"/><polygon class="cls-1" points="281.03 132.25 297.56 132.25 314.1 115.72 314.1 99.19 297.56 99.19 281.03 99.19 264.5 99.19 247.97 115.72 264.5 132.25 281.03 132.25"/><rect class="cls-1" x="429.81" y="314.09" width="16.53" height="16.53"/><polygon class="cls-1" points="198.38 198.38 181.84 181.84 165.31 198.38 165.31 214.91 165.31 231.44 181.84 247.97 198.38 247.97 214.91 247.97 198.38 231.44 198.38 214.91 198.38 198.38"/></g></g></g></svg>