<svg xmlns="http://www.w3.org/2000/svg" viewBox="0 0 529 529"><defs><style>.cls-1{fill:#804223;}.cls-2{fill:none;}</style></defs><g id="Layer_2" data-name="Layer 2"><g id="mountain"><polygon class="cls-1" points="16.53 363.69 16.53 347.16 0 330.63 0 347.16 0 363.69 16.53 380.22 16.53 363.69"/><rect class="cls-1" x="165.31" y="314.09" width="16.53" height="16.53"/><polygon class="cls-1" points="198.38 314.1 214.91 314.1 198.38 297.56 198.38 314.1"/><polygon class="cls-1" points="214.91 363.69 214.91 347.16 214.91 330.63 214.91 314.1 198.38 330.63 181.84 347.16 181.84 363.69 181.84 380.22 165.31 396.75 148.78 413.28 165.31 429.81 165.31 446.35 181.84 446.35 198.38 429.81 214.91 413.28 231.44 396.75 214.91 380.22 214.91 363.69"/><polygon class="cls-1" points="0 429.81 0 446.35 0 462.88 16.53 446.35 0 429.81"/><polygon class="cls-1" points="132.25 429.81 132.25 413.28 132.25 396.75 148.78 396.75 148.78 380.22 165.31 363.69 165.31 347.16 165.31 330.63 148.78 314.1 132.25 297.56 115.72 281.03 99.19 264.5 99.19 264.5 82.66 247.97 82.66 247.97 82.66 231.44 82.66 214.91 82.66 198.38 82.66 181.84 99.19 165.31 99.19 148.78 99.19 132.25 82.66 132.25 66.13 132.25 49.59 148.78 33.06 165.31 16.53 165.31 16.53 148.78 33.06 132.25 16.53 115.72 0 115.72 0 132.25 0 148.78 0 165.31 0 181.84 0 198.38 0 214.91 16.53 214.91 33.06 231.44 33.06 247.97 33.06 264.5 33.06 281.03 33.06 297.56 16.53 314.1 33.06 330.63 33.06 347.16 33.06 363.69 49.59 380.22 66.13 396.75 82.66 413.28 66.13 429.81 82.66 446.35 99.19 462.88 115.72 479.41 132.25 479.41 148.78 479.41 165.31 462.88 148.78 446.35 132.25 429.81"/><polygon class="cls-1" points="181.84 479.41 181.84 495.94 181.84 512.47 198.38 512.47 214.91 512.47 214.91 495.94 214.91 479.41 198.38 462.88 181.84 479.41"/><polygon class="cls-1" points="132.25 512.47 115.72 512.47 99.19 512.47 82.66 512.47 99.19 495.94 82.66 479.41 66.13 479.41 49.59 479.41 49.59 462.88 33.06 462.88 16.53 479.41 0 495.94 0 512.47 0 529 16.53 529 33.06 529 49.59 529 66.13 529 82.66 529 99.19 529 115.72 529 132.25 529 148.78 529 165.31 529 148.78 512.47 132.25 512.47"/><rect class="cls-1" y="66.13" width="16.53" height="16.53"/><polygon class="cls-1" points="214.91 148.78 214.91 132.25 214.91 115.72 198.38 132.25 181.84 148.78 198.38 165.31 214.91 148.78"/><rect class="cls-1" x="115.72" y="148.78" width="16.53" height="16.53"/><polygon class="cls-1" points="198.38 198.38 181.84 181.84 165.31 198.38 165.31 214.91 181.84 214.91 198.38 198.38"/><polygon class="cls-1" points="148.78 264.5 132.25 264.5 148.78 281.03 148.78 264.5"/><polygon class="cls-1" points="99.19 214.91 99.19 231.44 115.72 247.97 132.25 264.5 148.78 247.97 148.78 231.44 148.78 214.91 132.25 198.38 115.72 181.84 99.19 198.38 99.19 214.91"/><polygon class="cls-1" points="16.53 231.44 0 231.44 16.53 247.97 16.53 231.44"/><rect class="cls-1" x="281.03" y="314.09" width="16.53" height="16.53"/><polygon class="cls-1" points="264.5 330.63 247.97 347.16 231.44 363.69 247.97 380.22 264.5 396.75 281.03 396.75 281.03 380.22 297.56 363.69 281.03 347.16 264.5 330.63"/><rect class="cls-1" x="247.97" y="413.28" width="16.53" height="16.53"/><line class="cls-2" x2="529"/><line class="cls-2" x1="529" y1="529" y2="529"/></g></g></svg>