<svg xmlns="http://www.w3.org/2000/svg" viewBox="0 0 529 529"><defs><style>.cls-1{fill:#bb8f54;}</style></defs><g id="Layer_2" data-name="Layer 2"><g id="road"><polygon class="cls-1" points="33.06 264.5 16.53 247.97 0 231.44 0 247.97 0 264.5 0 281.03 0 297.56 16.53 281.03 33.06 264.5"/><polygon class="cls-1" points="512.47 16.53 495.94 16.53 479.41 16.53 462.88 16.53 446.35 16.53 429.81 16.53 413.28 16.53 396.75 0 380.22 0 363.69 0 380.22 16.53 396.75 33.06 413.28 33.06 429.81 33.06 446.35 33.06 462.88 33.06 479.41 33.06 495.94 33.06 512.47 49.59 529 66.13 529 49.59 529 33.06 512.47 16.53"/><polygon class="cls-1" points="495.94 413.28 479.41 413.28 462.88 396.75 446.35 396.75 429.81 396.75 413.28 396.75 396.75 396.75 380.22 396.75 363.69 396.75 347.16 396.75 330.63 396.75 314.1 396.75 297.56 396.75 281.03 413.28 264.5 429.81 247.97 429.81 231.44 429.81 214.91 429.81 198.38 429.81 181.84 446.35 165.31 462.88 165.31 479.41 165.31 495.94 148.78 495.94 132.25 495.94 115.72 479.41 99.19 462.88 82.66 446.35 66.13 429.81 66.13 413.28 66.13 396.75 49.59 380.22 33.06 363.69 33.06 347.16 33.06 330.63 16.53 314.1 0 297.56 0 314.1 0 330.63 16.53 347.16 16.53 363.69 16.53 380.22 33.06 396.75 49.59 413.28 49.59 429.81 49.59 446.35 66.13 462.88 82.66 479.41 99.19 495.94 115.72 512.47 132.25 512.47 148.78 512.47 165.31 529 181.84 529 198.38 529 181.84 512.47 181.84 495.94 181.84 479.41 198.38 462.88 214.91 462.88 231.44 462.88 247.97 462.88 264.5 462.88 281.03 446.35 297.56 429.81 314.1 413.28 330.63 413.28 347.16 413.28 363.69 413.28 380.22 413.28 396.75 413.28 413.28 413.28 429.81 413.28 446.35 413.28 462.88 429.81 479.41 429.81 495.94 429.81 512.47 446.35 529 462.88 529 446.35 529 429.81 512.47 413.28 495.94 413.28"/></g></g></svg>