<svg xmlns="http://www.w3.org/2000/svg" viewBox="0 0 529 529"><defs><style>.cls-1{fill:#538f32;}</style></defs><g id="Layer_2" data-name="Layer 2"><g id="Vegetation"><rect class="cls-1" x="16.53" y="413.28" width="16.53" height="16.53"/><polygon class="cls-1" points="66.13 413.28 66.13 429.81 82.66 413.28 66.13 396.75 66.13 413.28"/><polygon class="cls-1" points="49.59 462.88 49.59 479.41 66.13 479.41 82.66 479.41 66.13 462.88 49.59 462.88"/><polygon class="cls-1" points="181.84 49.59 165.31 49.59 165.31 66.13 181.84 82.66 181.84 99.19 198.38 99.19 214.91 82.66 214.91 66.13 214.91 49.59 198.38 49.59 181.84 49.59"/><rect class="cls-1" x="54.44" y="37.9" width="23.38" height="23.38" transform="translate(-15.7 61.28) rotate(-45)"/><polygon class="cls-1" points="33.06 16.53 33.06 0 16.53 0 0 0 0 16.53 0 33.06 0 49.59 0 66.13 16.53 66.13 16.53 82.66 0 82.66 0 99.19 0 115.72 16.53 115.72 33.06 132.25 49.59 115.72 33.06 99.19 49.59 82.66 49.59 66.13 49.59 49.59 33.06 33.06 33.06 16.53"/><polygon class="cls-1" points="297.56 66.13 314.1 49.59 297.56 49.59 297.56 66.13"/><polygon class="cls-1" points="281.03 66.13 281.03 49.59 264.5 33.06 247.97 33.06 247.97 49.59 247.97 66.13 264.5 66.13 281.03 66.13"/><rect class="cls-1" x="479.41" y="446.35" width="16.53" height="16.53"/><polygon class="cls-1" points="264.5 529 281.03 529 297.56 529 281.03 512.47 264.5 529"/><polygon class="cls-1" points="231.44 529 247.97 529 264.5 529 247.97 512.47 231.44 529"/><polygon class="cls-1" points="247.97 495.94 247.97 512.47 264.5 495.94 247.97 495.94"/><line class="cls-1" x2="529"/></g></g></svg>