<svg xmlns="http://www.w3.org/2000/svg" viewBox="0 0 314.5 314"><defs><style>.cls-1{fill:#5400e7;}.cls-2{fill:#231f20;}</style></defs><g id="Layer_2" data-name="Layer 2"><g id="Layer_1-2" data-name="Layer 1"><g id="b5e31b63-280e-4f38-96cb-4ce3912872af"><g id="a7f2af64-ea2b-4d32-adbc-dcaa5fbad56d"><polyline class="cls-1" points="0 0 140.87 0 314.5 0"/><polyline class="cls-1" points="314.5 314 126.12 314 0 314"/></g></g></g><g id="Layer_2-2" data-name="Layer 2"><g id="FIGHTER"><polygon class="cls-2" points="268.25 247.16 238.07 216.68 257.83 196.36 257.83 159.11 229.88 187.04 194.68 151.82 269.69 76.85 269.69 76.78 269.69 39.53 232.44 39.53 232.38 39.53 157.4 114.53 82.41 39.53 82.35 39.53 45.11 39.53 45.11 76.78 45.11 76.85 120.12 151.82 84.91 187.04 56.97 159.11 56.97 196.36 76.47 216.93 46.55 247.16 34.4 247.16 34.4 274.47 34.87 274.47 34.93 274.47 61.25 274.47 61.71 274.47 61.71 262.87 91.97 232.41 113.51 252.93 150.78 252.93 122.17 224.3 157.4 189.09 192.63 224.3 164.02 252.93 201.28 252.93 222.57 232.16 252.79 262.58 252.79 274.47 253.54 274.47 279.86 274.47 279.92 274.47 280.1 274.47 280.1 274.3 280.1 247.97 280.1 247.16 268.25 247.16"/></g></g></g></svg>