<svg xmlns="http://www.w3.org/2000/svg" viewBox="0 0 314.5 314"><defs><style>.cls-1{fill:#5400e7;}.cls-2{fill:#231f20;}</style></defs><g id="Layer_2" data-name="Layer 2"><g id="Layer_1-2" data-name="Layer 1"><g id="b5e31b63-280e-4f38-96cb-4ce3912872af"><g id="a7f2af64-ea2b-4d32-adbc-dcaa5fbad56d"><polyline class="cls-1" points="0 0 140.87 0 314.5 0"/><polyline class="cls-1" points="314.5 314 126.12 314 0 314"/></g></g></g><g id="Layer_2-2" data-name="Layer 2"><g id="mage"><polygon class="cls-2" points="264.65 249.57 251.79 236.71 58 236.71 43.85 250.88 43.85 272.95 58 287.11 251.79 287.11 264.65 274.25 264.65 249.57"/><path class="cls-2" d="M208.14,68.79,228,44.53l-.09-25.64H191.5l-80.71,49.9-46,157.45h181Zm-8.57,95.59-10.28,10.25L179,164.36l10.27-10.25Zm-23.76-41.23,10.29,10.27-10.29,10.24-10.26-10.27Zm-55.16,40.78,10.26-10.26,10.28,10.27L130.91,174.2Zm51.22,8.45L210.55,211l-77.29-.07Z"/></g></g></g></svg>