<svg id="Layer_1" data-name="Layer 1" xmlns="http://www.w3.org/2000/svg" viewBox="0 0 50 50"><g id="Layer_2" data-name="Layer 2"><g id="Layer_1-2" data-name="Layer 1-2"><g id="Layer_2-2" data-name="Layer 2-2"><g id="Layer_1-2-2" data-name="Layer 1-2-2"><line x2="50" fill="none"/><line x1="50" y1="50" y2="50" fill="none"/></g></g><polygon points="47.93 13.04 45.86 10.97 45.86 10.24 45.86 8.25 44.5 9.61 42.47 7.57 42.47 6.84 42.47 4.86 41.11 6.21 41.11 6.21 37.02 10.29 33.96 10.29 33.96 8.35 32.02 10.29 32.02 10.29 25.03 17.3 18.04 10.3 18.04 10.3 16.09 8.35 16.09 10.29 13.05 10.29 8.99 6.23 8.99 6.23 7.62 4.86 7.62 6.84 7.62 7.59 5.59 9.62 4.23 8.25 4.23 10.24 4.23 10.97 2.16 13.04 0.8 11.69 0.8 13.67 0.8 14.39 0.8 14.4 3.69 17.3 9.47 17.3 9.47 20.69 15.23 26.46 15.23 37.04 25.03 45.27 25.04 45.27 34.82 37.05 34.82 26.46 40.58 20.69 40.58 17.3 46.39 17.3 49.28 14.4 49.28 13.67 49.28 11.69 47.93 13.04" fill="#1d1d1b"/></g></g></svg>