<?xml version="1.0" encoding="utf-8"?>
<!-- Generator: Adobe Illustrator 25.2.0, SVG Export Plug-In . SVG Version: 6.00 Build 0)  -->
<svg version="1.1" id="Layer_1" xmlns="http://www.w3.org/2000/svg" xmlns:xlink="http://www.w3.org/1999/xlink" x="0px" y="0px"
	 viewBox="0 0 314.5 314" style="enable-background:new 0 0 314.5 314;" xml:space="preserve">
<style type="text/css">
	.st0{fill:none;}
	.st1{fill:#1D1D1B;}
</style>
<g id="Layer_2_1_">
	<g id="Layer_1-2">
		<g id="Layer_2-2">
			<g id="Layer_1-2-2">
				<line class="st0" x1="0" y1="0" x2="314.5" y2="0"/>
				<line class="st0" x1="314.5" y1="314" x2="0" y2="314"/>
			</g>
		</g>
	</g>
</g>
<path class="st1" d="M287.9,61.9l-25.4,25.3l-11.3-11.3l14.3-14.3h0l1.5-1.5l2.5,2.5l9.4-9.4V35.2h-18.1l-9.4,9.4l2.5,2.5
	l-15.8,15.8l-7.7-7.7l0,0l-3.4-3.4l25.3-25.4L169.7,0.1l-49.9,101.6l-4.3,8.6l-5.1,10.2l11.8-3.9l9.8,30.6l29.3-29.3l10.9,10.9
	l-8.9,8.9L83,217.9l-2.7-2.7l-9.9,9.9l2.7,2.7L8.6,292.3l-2.4-2.4l-6,6v0.1v0v0.1v17.7h17.7h0.1h0h0.1l6-6l-2.4-2.4L86.3,241
	l2.3,2.3l9.9-9.9l-2.3-2.3l89.1-89.1l11.2,11.2l-29.3,29.3l30.6,9.8l-3.9,11.8l10.2-5.1l8.6-4.3l101.6-49.9L287.9,61.9z
	 M194.6,106.5l-7.7-7.7l0,0l-3.3-3.3l23.6-23.6l11,11L194.6,106.5z M218.9,130.7l-11.2-11.2l23.6-23.6l11.2,11.2L218.9,130.7z"/>
</svg>
