<svg viewBox="0 0 50 50" xmlns="http://www.w3.org/2000/svg"><path d="m0 0h50" fill="none"/><path d="m50 50h-50" fill="none"/><path d="m178 141.86-4 4-1.79-1.8 2.27-2.28.24-.24.4.4 1.49-1.5v-2.86h-2.88l-1.49 1.49.4.4-2.54 2.53-1.22-1.23-.54-.54 4-4.05-13.11-4.18-7.93 16.17-.69 1.37-.81 1.63 1.88-.62 1.56 4.87 4.65-4.67 1.74 1.74-1.42 1.42-12.76 12.79-.43-.43-1.58 1.57.43.43-10.25 10.27-.38-.38-1 1v2.84h2.85l1-1-.38-.38 10.29-10.24.37.36 1.57-1.57-.37-.37 14.17-14.19 1.78 1.78-4.66 4.67 4.87 1.56-.62 1.88 1.62-.81 1.37-.69 16.15-7.94zm-14.81 7.14-1.19-1.27-.52-.52 3.75-3.76 1.75 1.75zm3.86 3.85-1.78-1.85 3.75-3.76 1.78 1.78z" fill="#1d1d1b" transform="translate(-132.25 -132)"/></svg>