<?xml version="1.0" encoding="utf-8"?>
<!-- Generator: Adobe Illustrator 25.2.0, SVG Export Plug-In . SVG Version: 6.00 Build 0)  -->
<svg version="1.1" id="Layer_1" xmlns="http://www.w3.org/2000/svg" xmlns:xlink="http://www.w3.org/1999/xlink" x="0px" y="0px"
	 viewBox="0 0 314.5 314" style="enable-background:new 0 0 314.5 314;" xml:space="preserve">
<style type="text/css">
	.st0{fill:none;}
	.st1{fill:#1D1D1B;}
</style>
<g id="Layer_2_1_">
	<g id="Layer_1-2">
		<g id="Layer_2-2">
			<g id="Layer_1-2-2">
				<line class="st0" x1="0" y1="0" x2="314.5" y2="0"/>
				<line class="st0" x1="314.5" y1="314" x2="0" y2="314"/>
			</g>
		</g>
	</g>
</g>
<polygon class="st1" points="271.9,31.2 263.1,39.9 253.9,30.7 253.9,45.1 253.9,49.2 231.1,72 221.8,62.7 221.8,77.2 221.8,81.2 
	199.1,104 189.8,94.7 189.8,109.2 189.8,113.3 167,136 157.8,126.8 157.8,141.2 157.8,145.3 135,168.1 125.7,158.8 125.7,173.2 
	125.7,177.3 106,197.1 106,197.1 102.3,194.1 101.9,193.7 101.4,193.2 93,201.5 83.4,191.9 73.3,208.7 87.9,223.2 27.2,283.8 
	20.5,283.8 20.5,304.1 42,304.1 42,297.7 102.2,237.5 117.3,252.6 134,242.5 124.9,233.4 134,225.8 131.8,223.6 128.2,219.2 
	294,53.4 294,53.4 294,9.9 "/>
</svg>
