<svg viewBox="0 0 50 50" xmlns="http://www.w3.org/2000/svg"><path d="m0 0h50" fill="none"/><path d="m50 50h-50" fill="none"/><path d="m44.67 18.12-2.46-.7-2.93 1.59 4.27-4.27-.37-2.88-2.56.02-4.6 4.6 5.06-7.04-1.05-2.58-2.48.51-4.85 6.74-.08-.07 3.58-6.16-1.13-2.51-2.43.49-3.34 5.75-1.94 2.34-.3-3.2-2.34-1.31-2.22 1.9-.34 2.53-.49 6.83-.56-.54-2.73 1.86.54.59-6.42 3.71.47.53-1.43-1.56-6.21 3.12 15 16.22 3.83-5.68-.98-1.07 4.72-5.54.75.8 2.38-3.08-.44-.44 5.98-4.06 7.64-4.57z" fill="#1d1d1b"/></svg>