<svg viewBox="0 0 50 50" xmlns="http://www.w3.org/2000/svg"><path d="m0 0h50" fill="none"/><path d="m50 50h-50" fill="none"/><g fill="#1d1d1b"><path d="m138.56 151.75 1.44 23.39 14.42.62.67 1.27h5.15l.66-1.27 13.5-.59 1.52-23.17-2.84.7-1.23 19.4-12.62 2-1.34 1.46-2-1.77-13.05-1.16-1.38-20.27m31.18-5.78-11 4.92-3.94 3.69-10.42-11.3 4.45 22.36 5.84 7.61.25-17.52 1.29 16.72 11.49-2.24zm-28 24.84 11.15 1.35-5.53-6.3-3-16.12-5.2-2.11z" transform="translate(-132.25 -132)"/><path d="m24.83 6.18 1.2-1.2 1.2 1.2-1.2 1.21z"/><path d="m10.24 12.33 1.03-1.02 1.02 1.02-1.02 1.03z"/><path d="m19.72 11.3 1.56-1.56 1.56 1.56-1.56 1.57z"/><path d="m24.41 16.23 1.99-2 1.99 2-1.99 1.99z"/><path d="m34.64 10.88 1.33-1.34 1.34 1.34-1.34 1.34z"/></g></svg>