<?xml version="1.0" encoding="utf-8"?>
<!-- Generator: Adobe Illustrator 25.2.0, SVG Export Plug-In . SVG Version: 6.00 Build 0)  -->
<svg version="1.1" id="Layer_1" xmlns="http://www.w3.org/2000/svg" xmlns:xlink="http://www.w3.org/1999/xlink" x="0px" y="0px"
	 viewBox="0 0 314.5 314" style="enable-background:new 0 0 314.5 314;" xml:space="preserve">
<style type="text/css">
	.st0{fill:none;}
	.st1{fill:#1D1D1B;}
</style>
<g id="Layer_2_1_">
	<g id="Layer_1-2">
		<g id="Layer_2-2">
			<g id="Layer_1-2-2">
				<line class="st0" x1="0" y1="0" x2="314.5" y2="0"/>
				<line class="st0" x1="314.5" y1="314" x2="0" y2="314"/>
			</g>
		</g>
		<polygon class="st1" points="281,113.8 265.5,109.4 247.1,119.4 273.9,92.6 271.6,74.5 255.5,74.6 226.6,103.5 258.4,59.3 
			251.8,43.1 236.2,46.3 205.7,88.6 205.2,88.2 227.7,49.5 220.6,33.7 205.3,36.8 184.3,72.9 172.1,87.6 170.2,67.5 155.5,59.3 
			141.5,71.2 139.4,87.1 136.3,130 132.8,126.6 115.6,138.3 119,142 78.6,165.3 81.6,168.6 72.6,158.8 33.5,178.4 127.9,280.3 
			152,244.6 145.8,237.9 175.5,203.1 180.2,208.1 195.2,188.8 192.4,186 230,160.5 230,160.5 278.1,131.8 		"/>
	</g>
</g>
</svg>
