<svg id="Layer_1" data-name="Layer 1" xmlns="http://www.w3.org/2000/svg" viewBox="0 0 50 50"><g id="Layer_2" data-name="Layer 2"><g id="Layer_1-2" data-name="Layer 1-2"><g id="Layer_2-2" data-name="Layer 2-2"><g id="Layer_1-2-2" data-name="Layer 1-2-2"><line x2="50" fill="none"/><line x1="50" y1="50" y2="50" fill="none"/></g></g><polygon points="45.01 34.38 45.01 30.16 45.01 30.14 42.54 27.69 38.17 27.69 38.49 22.64 39.83 22.48 40.43 16.43 38.97 16.64 39.27 13.34 25.68 15.3 25.71 15.32 26.28 34.38 25.52 34.38 25.77 37.26 45.37 37.26 45.79 34.38 45.01 34.38" fill="#1d1d1b"/><polygon points="24.21 15.32 24.25 15.3 10.65 13.34 10.95 16.64 9.49 16.43 10.1 22.48 11.43 22.64 11.75 27.69 7.38 27.69 4.91 30.14 4.91 30.16 4.91 34.38 4.13 34.38 4.55 37.26 24.15 37.26 24.4 34.38 23.64 34.38 24.21 15.32" fill="#1d1d1b"/></g></g></svg>