<?xml version="1.0" encoding="utf-8"?>
<!-- Generator: Adobe Illustrator 25.2.0, SVG Export Plug-In . SVG Version: 6.00 Build 0)  -->
<svg version="1.1" id="Layer_1" xmlns="http://www.w3.org/2000/svg" xmlns:xlink="http://www.w3.org/1999/xlink" x="0px" y="0px"
	 viewBox="0 0 314.5 314" style="enable-background:new 0 0 314.5 314;" xml:space="preserve">
<style type="text/css">
	.st0{fill:none;}
	.st1{fill:#1D1D1B;}
</style>
<g id="Layer_2_1_">
	<g id="Layer_1-2">
		<g id="Layer_2-2">
			<g id="Layer_1-2-2">
				<line class="st0" x1="0" y1="0" x2="314.5" y2="0"/>
				<line class="st0" x1="314.5" y1="314" x2="0" y2="314"/>
			</g>
		</g>
	</g>
</g>
<path class="st1" d="M282.7,67.9l18.5-18.6H194.1v-8.7l-39.9,39.9l-7.3-7.3V109l-4.9,4.9l4.2,4.2l-27.8,28.2l-4.4-4.4l-4.9,4.9H73.3
	l7.3,7.3l-26.7,26.7l-0.1,0.1l-13.1,13.1h8.7v107.2l18.6-18.5v-16.3L266.4,67.9H282.7z M67.9,255.2V250v-9.2v-34.9l0.4-13.2
	l27.6-27.6h27l7.1-7.1l-2.7-2.7l27.8-28.2l2.9,2.9l7.1-7.1v-27l28-28h48.5l9.1,0h4.5L67.9,255.2z"/>
</svg>
