<svg xmlns="http://www.w3.org/2000/svg" viewBox="0 0 314.5 314"><defs><style>.cls-1{fill:none;}</style></defs><g id="Layer_2" data-name="Layer 2"><g id="Layer_1-2" data-name="Layer 1"><line class="cls-1" x2="314.5"/><line class="cls-1" x1="314.5" y1="314" y2="314"/></g><g id="Heavy"><polygon id="battleAxe" points="270.8 76.53 262.27 68 270.87 59.4 254.89 43.42 246.29 52.02 237.69 43.42 261.41 19.64 209.1 3 147.06 65.18 163.87 117.42 192.87 88.35 201.41 96.89 70.47 227.81 67.24 224.57 55.15 236.62 58.4 239.88 13.48 284.79 10.53 281.83 3.28 289.11 3.28 289.27 3.28 311 25 311 25.16 311 32.42 303.74 29.46 300.77 74.39 255.85 77.14 258.61 89.21 246.58 86.44 243.81 217.39 112.88 225.87 121.35 196.8 150.35 249.04 167.16 311.22 105.12 294.58 52.81 270.8 76.53"/></g></g></svg>