<svg id="Layer_1" data-name="Layer 1" xmlns="http://www.w3.org/2000/svg" viewBox="0 0 50 50"><g id="Layer_2" data-name="Layer 2"><g id="Layer_1-2" data-name="Layer 1-2"><line x2="50" fill="none"/><line x1="50" y1="50" y2="50" fill="none"/></g><g id="Heavy"><polygon id="battleAxe" points="43.05 12.19 41.7 10.83 43.06 9.46 40.52 6.91 39.16 8.28 37.79 6.91 41.56 3.13 33.24 0.48 23.38 10.38 26.05 18.7 30.66 14.07 32.02 15.43 11.2 36.27 10.69 35.76 8.77 37.68 9.29 38.2 2.14 45.35 1.67 44.88 0.52 46.04 0.52 46.06 0.52 49.52 3.98 49.52 4 49.52 5.15 48.37 4.68 47.89 11.83 40.74 12.26 41.18 14.18 39.26 13.74 38.82 34.56 17.98 35.91 19.32 31.29 23.94 39.59 26.62 49.48 16.74 46.83 8.41 43.05 12.19"/></g></g></svg>