<svg id="Layer_1" data-name="Layer 1" xmlns="http://www.w3.org/2000/svg" viewBox="0 0 49.92 49.84"><g id="Layer_2" data-name="Layer 2"><g id="Layer_1-2" data-name="Layer 1-2"><line x1="0.01" y1="0.01" x2="49.92" y2="0.01" fill="none"/><line x1="49.92" y1="49.84" x2="0.01" y2="49.84" fill="none"/></g></g><g id="Layer_2-2" data-name="Layer 2"><g id="Layer_1-2-2" data-name="Layer 1-2"><line x1="0.03" y1="0.03" x2="49.9" y2="0.03" fill="none"/><line x1="49.9" y1="49.82" x2="0.03" y2="49.82" fill="none"/></g></g><g id="Layer_2-3" data-name="Layer 2"><g id="Layer_1-2-3" data-name="Layer 1-2"><line x2="49.92" fill="none"/><line x1="49.92" y1="49.84" y2="49.84" fill="none"/></g></g><polygon points="45.32 30.54 42.48 27.68 38 27.68 38 24.38 39.19 24.38 39.19 21.91 38 21.91 38 20.41 39.19 20.41 39.19 17.95 38 17.95 38 15.95 26.29 15.95 26.29 35.6 45.34 35.6 45.34 30.56 45.32 30.54" fill="#1d1d1b"/><polygon points="4.52 30.54 7.37 27.68 11.84 27.68 11.84 24.38 10.65 24.38 10.65 21.91 11.84 21.91 11.84 20.41 10.65 20.41 10.65 17.95 11.84 17.95 11.84 15.95 23.56 15.95 23.56 35.6 4.51 35.6 4.51 30.56 4.52 30.54" fill="#1d1d1b"/></svg>