<?xml version="1.0" encoding="utf-8"?>
<!-- Generator: Adobe Illustrator 25.2.0, SVG Export Plug-In . SVG Version: 6.00 Build 0)  -->
<svg version="1.1" id="Layer_1" xmlns="http://www.w3.org/2000/svg" xmlns:xlink="http://www.w3.org/1999/xlink" x="0px" y="0px"
	 viewBox="0 0 314.5 314" style="enable-background:new 0 0 314.5 314;" xml:space="preserve">
<style type="text/css">
	.st0{fill:none;}
	.st1{fill:#1D1D1B;}
</style>
<g id="Layer_2_1_">
	<g id="Layer_1-2">
		<line class="st0" x1="0" y1="0" x2="314.5" y2="0"/>
		<line class="st0" x1="314.5" y1="314" x2="0" y2="314"/>
	</g>
</g>
<polygon class="st1" points="285.5,192.4 267.6,174.4 239.4,174.4 239.4,153.6 246.9,153.6 246.9,138 239.4,138 239.4,128.6 
	246.9,128.6 246.9,113.1 239.4,113.1 239.4,100.5 165.6,100.5 165.6,224.3 285.6,224.3 285.6,192.5 "/>
<polygon class="st1" points="28.5,192.4 46.4,174.4 74.6,174.4 74.6,153.6 67.1,153.6 67.1,138 74.6,138 74.6,128.6 67.1,128.6 
	67.1,113.1 74.6,113.1 74.6,100.5 148.4,100.5 148.4,224.3 28.4,224.3 28.4,192.5 "/>
</svg>
