<svg id="Layer_1" data-name="Layer 1" xmlns="http://www.w3.org/2000/svg" viewBox="0 0 50 50"><g id="Layer_2" data-name="Layer 2"><g id="Layer_1-2" data-name="Layer 1-2"><line x2="50" fill="none"/><line x1="50" y1="50" y2="50" fill="none"/></g><g id="Heavy"><g id="Doublesword"><polyline points="14.96 37.11 36.84 15.18 38.31 16.58 39.76 15.13 39.25 14.63 47.68 6.18 47.69 6.18 47.69 2.3 43.81 2.3 35.38 10.74 35.33 10.69 34.88 10.24 33.43 11.69 34.77 13.11 12.89 35.04"/><polyline points="35.04 12.89 13.16 34.82 11.69 33.42 10.24 34.87 10.75 35.37 2.32 43.81 2.31 43.81 2.31 47.7 6.19 47.7 14.62 39.26 14.67 39.31 15.12 39.76 16.57 38.31 15.23 36.89 37.11 14.96"/></g></g></g></svg>