<svg xmlns="http://www.w3.org/2000/svg" viewBox="0 0 314.5 314"><defs><style>.cls-1{fill:none;}</style></defs><g id="Layer_2" data-name="Layer 2"><g id="Layer_1-2" data-name="Layer 1"><line class="cls-1" x2="314.5"/><line class="cls-1" x1="314.5" y1="314" y2="314"/></g><g id="Armor"><g id="Gloves"><polygon points="239.47 188.19 269.56 146.42 263.31 131.08 248.55 134.18 219.7 174.07 219.24 173.73 240.5 137.19 233.8 122.2 219.34 125.19 199.5 159.3 188 173.15 186.16 154.12 172.26 146.36 159.06 157.62 157.1 172.69 154.03 214.08 152.28 216.19 115.87 235.05 179.17 304 202.08 269.52 242.69 242.07 288.12 214.96 290.88 197.96 276.19 193.77 258.81 203.24 284.15 177.9 282.02 160.81 266.75 160.9 239.47 188.19"/><polygon points="109.83 157.32 150.44 129.86 195.88 102.75 198.63 85.75 183.94 81.56 166.56 91.03 191.9 65.7 189.77 48.61 174.5 48.7 147.22 75.99 177.31 34.22 171.06 18.88 156.3 21.97 127.45 61.87 126.98 61.52 148.25 24.98 141.55 10 127.09 12.98 107.25 47.1 95.75 60.95 93.91 41.92 80.01 34.16 66.81 45.41 64.85 60.48 61.78 101.88 60.03 103.98 23.63 122.84 86.92 191.79 109.83 157.32"/></g></g></g></svg>