<svg viewBox="0 0 49.92 49.84" xmlns="http://www.w3.org/2000/svg"><g fill="none"><path d="m.01.01h49.91"/><path d="m49.92 49.84h-49.91"/><path d="m.03.03h49.87"/><path d="m49.9 49.82h-49.87"/><path d="m0 0h49.92"/><path d="m49.92 49.84h-49.92"/><path d="m.08.08h49.76"/><path d="m49.84 49.76h-49.76"/><path d="m.08.08h49.76"/><path d="m49.84 49.76h-49.76"/></g><path d="m37.97 29.86 4.76-6.61-.99-2.43-2.33.49-4.57 6.31-.07-.05 3.36-5.78-1.06-2.37-2.29.47-3.13 5.4-1.82 2.19-.29-3.01-2.2-1.23-2.09 1.78-.31 2.38-.49 6.55-.27.34-5.77 2.98 10.02 10.91 3.62-5.46 6.43-4.34 7.19-4.29.43-2.69-2.32-.66-2.75 1.5 4.01-4.01-.34-2.71-2.41.02z"/><path d="m17.46 24.97 6.42-4.34 7.19-4.29.44-2.69-2.33-.66-2.75 1.49 4.01-4-.33-2.71-2.42.02-4.31 4.32 4.76-6.61-.99-2.43-2.34.49-4.56 6.31-.08-.05 3.37-5.78-1.06-2.37-2.29.47-3.14 5.4-1.82 2.19-.29-3.02-2.2-1.22-2.09 1.78-.31 2.38-.48 6.55-.28.33-5.76 2.99 10.02 10.91z"/></svg>