<svg id="Layer_1" data-name="Layer 1" xmlns="http://www.w3.org/2000/svg" viewBox="0 0 49.92 49.84"><g id="Layer_2" data-name="Layer 2"><g id="Layer_1-2" data-name="Layer 1-2"><line x1="0.01" y1="0.01" x2="49.92" y2="0.01" fill="none"/><line x1="49.92" y1="49.84" x2="0.01" y2="49.84" fill="none"/></g></g><g id="Layer_2-2" data-name="Layer 2"><g id="Layer_1-2-2" data-name="Layer 1-2"><line x1="0.03" y1="0.03" x2="49.9" y2="0.03" fill="none"/><line x1="49.9" y1="49.82" x2="0.03" y2="49.82" fill="none"/></g></g><g id="Layer_2-3" data-name="Layer 2"><g id="Layer_1-2-3" data-name="Layer 1-2"><line x2="49.92" fill="none"/><line x1="49.92" y1="49.84" y2="49.84" fill="none"/></g></g><g id="Layer_2-4" data-name="Layer 2"><g id="Layer_1-2-4" data-name="Layer 1-2"><line x1="0.08" y1="0.08" x2="49.84" y2="0.08" fill="none"/><line x1="49.84" y1="49.76" x2="0.08" y2="49.76" fill="none"/></g></g><g id="Layer_2-5" data-name="Layer 2"><g id="Layer_1-2-5" data-name="Layer 1-2"><line x1="0.08" y1="0.08" x2="49.84" y2="0.08" fill="none"/><line x1="49.84" y1="49.76" x2="0.08" y2="49.76" fill="none"/></g><g id="Armor"><g id="Gloves"><polygon points="37.97 29.86 42.73 23.25 41.74 20.82 39.41 21.31 34.84 27.62 34.77 27.57 38.13 21.79 37.07 19.42 34.78 19.89 31.65 25.29 29.83 27.48 29.54 24.47 27.34 23.24 25.25 25.02 24.94 27.4 24.45 33.95 24.18 34.29 18.41 37.27 28.43 48.18 32.05 42.72 38.48 38.38 45.67 34.09 46.1 31.4 43.78 30.74 41.03 32.24 45.04 28.23 44.7 25.52 42.29 25.54 37.97 29.86"/><polygon points="17.46 24.97 23.88 20.63 31.07 16.34 31.51 13.65 29.18 12.99 26.43 14.48 30.44 10.48 30.11 7.77 27.69 7.79 23.38 12.11 28.14 5.5 27.15 3.07 24.81 3.56 20.25 9.87 20.17 9.82 23.54 4.04 22.48 1.67 20.19 2.14 17.05 7.54 15.23 9.73 14.94 6.71 12.74 5.49 10.65 7.27 10.34 9.65 9.86 16.2 9.58 16.53 3.82 19.52 13.84 30.43 17.46 24.97"/></g></g></g></svg>