<svg xmlns="http://www.w3.org/2000/svg" viewBox="0 0 314.5 314"><defs><style>.cls-1{fill:none;}</style></defs><g id="Layer_2" data-name="Layer 2"><g id="Layer_1-2" data-name="Layer 1"><line class="cls-1" x2="314.5"/><line class="cls-1" x1="314.5" y1="314" y2="314"/></g><g id="Heavy"><polygon id="Halbeard" points="266.32 74.06 255.21 62.96 272.18 46 274.47 48.28 282.48 40.28 282.48 40.14 282.48 23.37 265.68 23.37 265.56 23.37 257.55 31.36 259.87 33.68 242.9 50.65 241.3 49.05 188.97 101.37 190.57 102.97 67.64 225.88 65.34 223.58 56.03 232.86 58.34 235.18 33.36 260.15 33.43 260.22 23.18 270.47 20.82 268.1 15.2 273.71 15.21 273.85 15.21 290.63 32 290.63 32.12 290.63 37.74 285.03 35.37 282.66 45.62 272.42 45.67 272.48 70.66 247.49 72.96 249.78 82.25 240.53 79.94 238.21 202.89 115.28 213.96 126.35 192.39 147.85 236 159.63 299.3 96.44 287.68 52.77 266.32 74.06"/></g></g></svg>