<svg id="Layer_1" data-name="Layer 1" xmlns="http://www.w3.org/2000/svg" viewBox="0 0 50 50"><g id="Layer_2" data-name="Layer 2"><g id="Layer_1-2" data-name="Layer 1-2"><line x2="50" fill="none"/><line x1="50" y1="50" y2="50" fill="none"/></g><g id="Heavy"><polygon id="Halbeard" points="42.34 11.79 40.57 10.03 43.27 7.33 43.64 7.69 44.91 6.41 44.91 6.39 44.91 3.72 42.24 3.72 42.22 3.72 40.95 4.99 41.31 5.36 38.62 8.06 38.36 7.81 30.04 16.14 30.3 16.4 10.75 35.97 10.39 35.6 8.91 37.08 9.28 37.45 5.3 41.42 5.32 41.44 3.69 43.07 3.31 42.69 2.42 43.58 2.42 43.61 2.42 46.28 5.09 46.28 5.11 46.28 6 45.39 5.62 45.01 7.25 43.38 7.26 43.39 11.23 39.41 11.6 39.77 13.08 38.3 12.71 37.93 32.26 18.36 34.02 20.12 30.59 23.54 37.52 25.42 47.58 15.36 45.74 8.4 42.34 11.79"/></g></g></svg>