<svg id="Layer_1" data-name="Layer 1" xmlns="http://www.w3.org/2000/svg" viewBox="0 0 50 50"><g id="Layer_2" data-name="Layer 2"><g id="Layer_1-2" data-name="Layer 1-2"><line x2="50" fill="none"/><line x1="50" y1="50" y2="50" fill="none"/></g><g id="Armor"><polygon id="heavyArmor" points="38.26 7.92 32.54 7.92 24.99 13.83 17.43 7.92 11.73 7.92 8.31 4.49 1.4 11.38 3.84 13.83 5.3 13.83 5.3 23.81 12.16 20.05 12.16 18.64 15.07 21.56 15.07 27.3 13.28 27.3 13.28 33.66 13.95 33.66 13.58 40.76 24.96 45.52 36.1 40.76 35.73 33.66 36.4 33.66 36.4 27.3 34.91 27.3 34.91 21.56 37.84 18.62 37.84 20.05 44.7 23.81 44.7 13.83 46.16 13.83 48.6 11.38 41.7 4.47 38.26 7.92"/></g></g></svg>