<svg id="Layer_1" data-name="Layer 1" xmlns="http://www.w3.org/2000/svg" viewBox="0 0 49.92 49.84"><g id="Layer_2" data-name="Layer 2"><g id="Layer_1-2" data-name="Layer 1-2"><line x1="0.01" y1="0.01" x2="49.92" y2="0.01" fill="none"/><line x1="49.92" y1="49.84" x2="0.01" y2="49.84" fill="none"/></g></g><g id="Layer_2-2" data-name="Layer 2"><g id="Layer_1-2-2" data-name="Layer 1-2"><line x1="0.03" y1="0.03" x2="49.9" y2="0.03" fill="none"/><line x1="49.9" y1="49.82" x2="0.03" y2="49.82" fill="none"/></g></g><g id="Layer_2-3" data-name="Layer 2"><g id="Layer_1-2-3" data-name="Layer 1-2"><line x2="49.92" fill="none"/><line x1="49.92" y1="49.84" y2="49.84" fill="none"/></g></g><g id="Layer_2-4" data-name="Layer 2"><g id="Layer_1-2-4" data-name="Layer 1-2"><line x1="0.08" y1="0.08" x2="49.84" y2="0.08" fill="none"/><line x1="49.84" y1="49.76" x2="0.08" y2="49.76" fill="none"/></g><g id="Armor"><polygon id="Helmet" points="8.52 22 8.52 26.71 11.13 26.71 11.13 37.35 15.59 40.69 15.59 26.71 34.34 26.71 34.34 40.69 38.8 37.35 38.8 26.71 41.4 26.71 41.4 22 39.8 22 32.38 9.16 17.55 9.16 10.13 22 8.52 22"/></g></g></svg>