<svg xmlns="http://www.w3.org/2000/svg" viewBox="0 0 314.5 314"><defs><style>.cls-1{fill:none;}</style></defs><g id="Layer_2" data-name="Layer 2"><g id="Layer_1-2" data-name="Layer 1"><line class="cls-1" x2="314.5"/><line class="cls-1" x1="314.5" y1="314" y2="314"/></g><g id="Ranged"><g id="Javelin"><polygon points="205.95 119.12 218.41 106.69 226.8 107.71 238.15 75.89 206.33 87.25 207.29 95.06 206.86 94.63 194.14 107.32 195.76 108.94 88.43 216.26 88.47 216.3 81.33 223.45 79.68 221.81 75.76 225.71 75.77 225.81 75.77 237.52 87.48 237.52 87.56 237.52 91.48 233.61 89.83 231.96 96.98 224.81 97.02 224.85 204.35 117.52 205.95 119.12"/><polygon points="238.86 119.77 239.81 127.58 239.38 127.15 226.67 139.84 228.29 141.46 120.95 248.78 121 248.83 113.85 255.98 112.2 254.33 108.28 258.24 108.29 258.33 108.29 270.05 120 270.05 120.09 270.05 124.01 266.14 122.36 264.48 129.51 257.33 129.55 257.37 236.88 150.05 238.48 151.65 250.94 139.21 259.33 140.23 270.68 108.42 238.86 119.77"/><polygon points="174.02 87.19 186.48 74.75 194.87 75.77 206.22 43.95 174.4 55.31 175.35 63.12 174.92 62.69 162.21 75.38 163.82 77 56.49 184.32 56.54 184.37 49.39 191.52 47.74 189.87 43.82 193.78 43.83 193.87 43.83 205.58 55.54 205.58 55.63 205.58 59.55 201.68 57.89 200.02 65.05 192.87 65.08 192.91 172.42 85.59 174.02 87.19"/></g></g></g></svg>