<svg viewBox="0 0 50 50" xmlns="http://www.w3.org/2000/svg"><path d="m0 0h50" fill="none"/><path d="m50 50h-50" fill="none"/><path d="m32.74 18.97 1.98-1.98 1.34.16 1.8-5.07-5.06 1.81.15 1.25-.06-.07-2.03 2.02.26.26-17.06 17.09-1.13 1.14-.26-.26-.63.62.01.02v1.86h1.86.01l.62-.62-.26-.26 1.14-1.14 17.07-17.09z"/><path d="m37.98 19.07.15 1.25-.07-.07-2.02 2.02.25.25-17.06 17.1h.01l-1.14 1.14-.26-.26-.63.62.01.01v1.87h1.86.01l.62-.62-.26-.26 1.14-1.14h.01l17.06-17.09.25.26 1.99-1.98 1.33.16 1.8-5.07z"/><path d="m27.67 13.88 1.98-1.98 1.33.16 1.8-5.06-5.05 1.81.15 1.24-.07-.07-2.02 2.02.26.26-17.07 17.09.01.01-1.14 1.14-.26-.27-.62.63v.01 1.87h1.86.01l.63-.62-.27-.27 1.14-1.14.01.01 17.06-17.09z"/></svg>