<svg viewBox="0 0 50 50" xmlns="http://www.w3.org/2000/svg"><path d="m0 0h50" fill="none"/><path d="m50 50h-50" fill="none"/><g transform="translate(-132.25 -132)"><path d="m160.72 155.74v5.16l-7.51 7.52-.23-.22-3.33.89-.9 3.34 2.44 2.45 3.34-.89.89-3.35-.22-.22 7.51-7.53h5.16l8.56-15.74zm-7.31 17.12-1.81.48-1.32-1.34.49-1.8 1.8-.49 1.33 1.33z"/><path d="m153.78 153.1 7.51-7.52.23.22 3.34-.89.89-3.34-2.44-2.45-3.31.88-.89 3.35.22.23-7.51 7.52h-5.16l-8.56 15.74 15.71-8.59zm7.31-12 1.81-.47 1.33 1.32-.5 1.8-1.81.49-1.32-1.33z"/></g></svg>