<svg xmlns="http://www.w3.org/2000/svg" viewBox="0 0 314.5 314"><defs><style>.cls-1{fill:none;}</style></defs><g id="Layer_2" data-name="Layer 2"><g id="Layer_1-2" data-name="Layer 1"><line class="cls-1" x2="314.5"/><line class="cls-1" x1="314.5" y1="314" y2="314"/></g><g id="Light"><polygon id="Mace" points="254.96 98.79 254.96 88.11 271.69 71.38 242.94 42.63 226.2 59.37 215.54 59.37 215.54 70.03 206.96 78.61 196.29 78.61 196.29 89.28 186.31 99.26 175.65 99.26 175.65 109.92 160.59 124.98 166.32 130.72 51.99 245.05 49.88 242.94 42.81 250.03 42.81 250.19 42.81 271.37 63.99 271.37 64.14 271.37 71.22 264.29 69.36 262.42 183.54 147.94 189.34 153.73 204.39 138.68 215.07 138.68 215.07 128 225.03 118.03 235.71 118.03 235.71 107.36 244.28 98.79 254.96 98.79"/></g></g></svg>