<svg id="Layer_1" data-name="Layer 1" xmlns="http://www.w3.org/2000/svg" viewBox="0 0 50 50"><g id="Layer_2" data-name="Layer 2"><g id="Layer_1-2" data-name="Layer 1-2"><line x2="50" fill="none"/><line x1="50" y1="50" y2="50" fill="none"/></g><g id="Light"><polygon id="Mace" points="40.53 15.73 40.53 14.03 43.19 11.37 38.62 6.79 35.96 9.45 34.27 9.45 34.27 11.15 32.9 12.52 31.21 12.52 31.21 14.22 29.62 15.81 27.93 15.81 27.93 17.5 25.53 19.9 26.44 20.82 8.27 39.02 7.93 38.69 6.81 39.81 6.81 39.84 6.81 43.21 10.17 43.21 10.2 43.21 11.32 42.08 11.03 41.79 29.18 23.56 30.1 24.48 32.49 22.08 34.19 22.08 34.19 20.38 35.78 18.8 37.47 18.8 37.47 17.1 38.84 15.73 40.53 15.73"/></g></g></svg>