<svg viewBox="0 0 50 50" xmlns="http://www.w3.org/2000/svg"><path d="m0 0h50" fill="none"/><path d="m50 50h-50" fill="none"/><path d="m36.35 9.39-2.68 2.68v2.92l-2 2.08-.57-.57-2.28 2.28.62.62-23.84 24.91-.33-.34-1.01 1.01v.02 3.01h3.01.03l1-1-.33-.34 24.86-23.87.62.62 2.28-2.28-.57-.58 2.09-2h2.9l2.68-2.69v-3.8l-2.68-2.68z"/><path d="m30.35 7.49 1.43-1.43 1.42 1.43-1.42 1.43z"/><path d="m34.66 6.29 1.22-1.22 1.23 1.22-1.23 1.23z"/><path d="m42.88 10.04 1.43-1.43 1.43 1.43-1.43 1.43z"/><path d="m38.83 3.8 1.82-1.81 1.81 1.81-1.81 1.82z"/></svg>