<svg viewBox="0 0 50 50" xmlns="http://www.w3.org/2000/svg"><path d="m0 .01h50" fill="none"/><path d="m50 50h-50" fill="none"/><path d="m9.38 44.05 5.36-5.35 4.64 4.64 1.97-1.99-3.23-3.23 26.36-26.41v-5.32h-5.31l-26.36 26.41-.06-.06-3.51-3.52-1.99 1.98 4.9 4.92-5.43 5.43h-1.2v3.66h3.86z"/><path d="m34.77 3.9 1.42-1.42 1.41 1.42-1.41 1.42z"/><path d="m30.69 7.38.99-1 .99 1-.99.99z"/><path d="m19.44 14.07.99-.99.99.99-.99.99z"/><path d="m26.53 13.06 1.42-1.41 1.42 1.41-1.42 1.42z"/><path d="m30.7.99.98-.99.99.99-.99.99z"/><path d="m17.56 22.48.99-.99.99.99-.99.99z"/><path d="m40.13 2.81.99-.99.99.99-.99.99z"/></svg>