<svg xmlns="http://www.w3.org/2000/svg" viewBox="0 0 314.5 314"><defs><style>.cls-1{fill:none;}</style></defs><g id="Layer_2" data-name="Layer 2"><g id="Layer_1-2" data-name="Layer 1"><line class="cls-1" x2="314.5"/><line class="cls-1" x1="314.5" y1="314" y2="314"/></g><g id="Magic"><g id="MagicStaff"><polygon points="228.67 58.95 211.8 75.81 211.8 94.11 199.23 107.22 195.6 103.59 181.26 117.93 185.19 121.86 35.25 278.24 33.13 276.12 26.82 282.45 26.82 282.6 26.82 301.53 45.75 301.53 45.89 301.53 52.21 295.2 50.13 293.12 206.51 143.18 210.41 147.08 224.75 132.73 221.15 129.14 234.29 116.54 252.52 116.54 269.39 99.67 269.39 75.81 252.52 58.95 228.67 58.95"/><rect x="193.52" y="40.67" width="12.7" height="12.7" transform="translate(25.3 155.11) rotate(-45)"/><rect x="220.25" y="34.09" width="10.89" height="10.89" transform="translate(38.15 171.16) rotate(-45)"/><rect x="272.35" y="56.69" width="12.7" height="12.7" transform="translate(37.05 215.53) rotate(-45)"/><rect x="247.58" y="15.82" width="16.15" height="16.15" transform="translate(57.99 187.77) rotate(-45)"/></g></g></g></svg>