<svg viewBox="0 0 50 50" xmlns="http://www.w3.org/2000/svg"><path d="m0 0h50" fill="none"/><path d="m50 50h-50" fill="none"/><path d="m6.92 43.71 1.12-1.15-.46-.46 23.34-23.36 2.16 2.17-4.57 4.58 8.23 2.66 9.79-9.79-2.62-8.26-3.74 3.74-2.19-2.18 1.61-1.61-2.51-2.52-1.61 1.61-.86-.88-7.07 7.09.85.86-23.32 23.36-.48-.46-1.12 1.15v.03 3.42h3.41z"/><path d="m30.24 6.12 1.42-1.42 1.41 1.42-1.41 1.42z"/><path d="m38.5 5.58.99-.99.99.99-.99.99z"/><path d="m32.08 1.67.99-.99.99.99-.99.99z"/><path d="m25.56 8.2.99-.99.99.99-.99.99z"/></svg>