<svg id="Layer_1" data-name="Layer 1" xmlns="http://www.w3.org/2000/svg" viewBox="0 0 50 50"><g id="Layer_2" data-name="Layer 2"><g id="Layer_1-2" data-name="Layer 1-2"><line x2="50" fill="none"/><line x1="50" y1="50" y2="50" fill="none"/></g><g id="Light"><polygon id="MorningStar" points="43.5 14.81 45.87 13.32 43.54 11.86 43.55 10.58 42.5 9.54 43.15 6.74 40.36 7.38 39.42 6.45 38.08 6.43 36.58 4.02 35.09 6.39 33.72 6.37 32.73 7.37 30.01 6.74 30.63 9.47 29.18 10.92 29.34 12.03 27.29 13.32 29.74 14.87 30.04 16.96 5.83 41.12 5.44 40.73 4.13 42.04 4.13 42.07 4.13 45.98 8.04 45.98 8.07 45.98 9.37 44.67 9.03 44.33 33.13 20.05 35.06 20.2 36.58 22.63 37.96 20.42 39.15 20.51 40.39 19.27 43.15 19.9 42.51 17.14 43.48 16.17 43.5 14.81"/></g></g></svg>