<?xml version="1.0" encoding="utf-8"?>
<!-- Generator: Adobe Illustrator 25.2.0, SVG Export Plug-In . SVG Version: 6.00 Build 0)  -->
<svg version="1.1" id="Layer_1" xmlns="http://www.w3.org/2000/svg" xmlns:xlink="http://www.w3.org/1999/xlink" x="0px" y="0px"
	 viewBox="0 0 314.5 314" style="enable-background:new 0 0 314.5 314;" xml:space="preserve">
<style type="text/css">
	.st0{fill:none;}
</style>
<g id="Layer_2_1_">
	<g id="Layer_1-2">
		<line class="st0" x1="0" y1="0" x2="314.5" y2="0"/>
		<line class="st0" x1="314.5" y1="314" x2="0" y2="314"/>
	</g>
	<g id="Magic">
		<polygon id="ritualDagger" points="113.8,244.5 113.8,236.7 148.7,201.8 180.6,233.8 186.4,206.5 174.2,194.2 224.1,144.3 
			224.1,144.2 224.1,144.2 224.1,110.5 224,110.5 224,76.7 140.4,160.4 130.4,150.4 101,154.2 132.1,185.2 97.8,219.6 90.4,219.6 
			90.4,244.5 		"/>
	</g>
</g>
<rect x="194.3" y="61.5" transform="matrix(0.7071 -0.7071 0.7071 0.7071 10.8026 161.7273)" width="12.6" height="12.6"/>
<rect x="209.3" y="24" transform="matrix(0.7071 -0.7071 0.7071 0.7071 42.5098 159.3968)" width="8.8" height="8.8"/>
<rect x="230.6" y="45.4" transform="matrix(0.7071 -0.7071 0.7071 0.7071 33.6504 180.7012)" width="8.8" height="8.8"/>
<rect x="166.7" y="93.1" transform="matrix(0.7071 -0.7071 0.7071 0.7071 -18.8258 149.4954)" width="8.8" height="8.8"/>
</svg>
