<svg id="Layer_1" data-name="Layer 1" xmlns="http://www.w3.org/2000/svg" viewBox="0 0 50 50"><g id="Layer_2" data-name="Layer 2"><g id="Layer_1-2" data-name="Layer 1-2"><line x2="50" fill="none"/><line x1="50" y1="50" y2="50" fill="none"/></g><g id="Heavy"><polygon id="Trident" points="47.46 5.1 47.46 2.51 44.87 2.51 44.85 2.51 40.16 7.2 39.31 6.35 41 4.65 41 4.64 41 2.87 39.23 2.87 39.22 2.87 37.13 4.95 37.13 8.39 38.05 9.31 38.05 9.31 38.32 9.58 37.22 10.69 36.73 10.2 35.05 11.87 35.54 12.37 6.05 41.9 6.06 41.91 4.05 43.92 3.56 43.42 2.54 44.44 2.54 44.46 2.54 47.49 5.57 47.49 5.59 47.49 6.6 46.48 6.11 45.98 8.11 43.97 8.12 43.98 37.62 14.44 38.1 14.93 39.78 13.26 39.29 12.77 40.4 11.66 40.66 11.93 40.67 11.93 41.66 12.92 44.98 12.92 47.12 10.78 47.11 10.76 47.11 8.99 45.34 8.99 45.33 8.99 43.64 10.69 42.77 9.82 47.46 5.12 47.46 5.1"/></g></g></svg>