<svg xmlns="http://www.w3.org/2000/svg" viewBox="0 0 314.5 314"><defs><style>.cls-1{fill:none;}</style></defs><g id="Layer_2" data-name="Layer 2"><g id="Layer_1-2" data-name="Layer 1"><line class="cls-1" x2="314.5"/><line class="cls-1" x1="314.5" y1="314" y2="314"/></g><g id="Heavy"><polygon id="Trident" points="298.51 32.04 298.51 15.75 282.2 15.75 282.08 15.75 252.6 45.22 247.26 39.87 257.9 29.22 257.9 29.13 257.9 18.01 246.76 18.01 246.68 18.01 233.58 31.1 233.58 52.69 239.36 58.47 239.35 58.47 241.05 60.17 234.09 67.13 231.02 64.05 220.47 74.57 223.56 77.66 38.04 263.15 38.11 263.22 25.49 275.84 22.36 272.71 15.99 279.07 16 279.22 16 298.25 35.03 298.25 35.17 298.25 41.53 291.9 38.4 288.76 51.02 276.15 51.08 276.21 236.61 90.7 239.66 93.75 250.19 83.26 247.12 80.18 254.1 73.21 255.78 74.89 255.79 74.89 262.03 81.13 282.9 81.13 296.36 67.67 296.35 67.59 296.35 56.46 285.22 56.46 285.13 56.46 274.48 67.11 269.02 61.65 298.51 32.17 298.51 32.04"/></g></g></svg>