<svg id="Layer_1" data-name="Layer 1" xmlns="http://www.w3.org/2000/svg" viewBox="0 0 50 50"><g id="Layer_2" data-name="Layer 2"><g id="Layer_1-2" data-name="Layer 1-2"><g id="Layer_2-2" data-name="Layer 2-2"><g id="Layer_1-2-2" data-name="Layer 1-2-2"><line x2="50" fill="none"/><line x1="50" y1="50" y2="50" fill="none"/></g></g><g id="ward"><path d="M157.25,148l-20,13.06,20,14,20-14Zm-.39,21.79-12.81-8.74,12.81-8.74-5.33,8.74Zm.78-17.48,12.81,8.74-12.81,8.74,5.33-8.74Z" transform="translate(-132.25 -132)"/><polygon points="33.82 9.95 31.36 5.85 27.86 14.31 30.97 16.36 33.82 9.95"/><polygon points="39.27 17.25 37.14 13.51 34.71 18.76 37.56 20.63 39.27 17.25"/><polygon points="16.22 9.95 18.68 5.85 22.18 14.31 19.07 16.36 16.22 9.95"/><polygon points="10.77 17.25 12.9 13.51 15.32 18.76 12.48 20.63 10.77 17.25"/></g></g></g></svg>