<svg id="Layer_1" data-name="Layer 1" xmlns="http://www.w3.org/2000/svg" viewBox="0 0 50 50"><g id="Layer_2" data-name="Layer 2"><g id="Layer_1-2" data-name="Layer 1-2"><line x2="50" fill="none"/><line x1="50" y1="50" y2="50" fill="none"/></g><g id="Heavy"><polygon id="war_Hammer" data-name="war Hammer" points="35.75 5.18 35.75 5.16 29.44 5.16 29.44 11.46 29.44 11.46 29.44 11.46 29.44 11.48 29.46 11.48 32.91 14.94 14.28 33.6 13.88 33.19 12.27 34.81 12.67 35.21 8.34 39.55 8.35 39.56 6.57 41.34 6.16 40.92 5.19 41.9 5.19 41.92 5.19 44.84 8.1 44.84 8.12 44.84 9.1 43.87 8.69 43.45 10.46 41.67 10.47 41.69 14.81 37.35 15.21 37.75 16.82 36.13 16.42 35.73 35.05 17.07 38.5 20.54 38.5 20.55 38.52 20.55 38.52 20.56 38.52 20.55 44.81 20.55 44.81 14.24 44.78 14.24 35.75 5.18"/></g></g></svg>