<?xml version="1.0" encoding="utf-8"?>
<!-- Generator: Adobe Illustrator 25.4.1, SVG Export Plug-In . SVG Version: 6.00 Build 0)  -->
<svg version="1.1" id="Layer_1" xmlns="http://www.w3.org/2000/svg" xmlns:xlink="http://www.w3.org/1999/xlink" x="0px" y="0px"
	 viewBox="0 0 640 640" style="enable-background:new 0 0 640 640;" xml:space="preserve">
<style type="text/css">
	.st0{fill:#538F40;}
</style>
<g>
	<polygon class="st0" points="624,208 608,208 592,208 576,224 560,224 544,224 528,208 512,208 496,208 480,208 480,224 496,224 
		512,224 528,240 544,240 560,240 576,240 592,240 608,224 624,240 640,240 640,224 	"/>
	<polygon class="st0" points="608,576 592,592 576,608 560,624 544,640 560,640 576,640 592,624 608,608 624,592 640,592 640,576 
		624,576 	"/>
	<polygon class="st0" points="624,112 608,96 592,112 608,112 	"/>
	<polygon class="st0" points="512,64 528,64 544,64 528,48 	"/>
	<polygon class="st0" points="496,32 512,32 528,16 544,0 528,0 512,0 496,16 480,16 464,16 448,16 432,16 416,16 400,16 384,0 
		368,0 352,0 368,16 384,32 400,32 416,32 432,32 448,32 464,32 480,32 	"/>
	<polygon class="st0" points="432,304 416,288 400,272 384,272 368,272 384,288 400,304 416,320 432,320 448,320 464,320 464,304 
		448,304 	"/>
	<polygon class="st0" points="304,384 320,384 304,368 	"/>
	<polygon class="st0" points="288,352 304,368 304,352 	"/>
	<polygon class="st0" points="240,256 224,256 224,272 240,272 256,288 272,272 256,256 	"/>
	<polygon class="st0" points="176,48 192,48 208,48 192,32 	"/>
	<polygon class="st0" points="128,512 144,512 160,512 160,496 144,496 	"/>
	<polygon class="st0" points="128,352 144,352 160,352 160,336 160,320 144,336 	"/>
	<polygon class="st0" points="96,512 80,496 80,512 80,528 96,528 112,528 128,512 112,512 	"/>
	<polygon class="st0" points="96,416 112,416 112,400 96,400 80,400 64,416 48,432 32,448 16,448 0,448 0,464 16,464 32,464 48,464 
		64,448 80,432 	"/>
	<polygon class="st0" points="32,544 48,544 64,544 48,528 	"/>
	<polygon class="st0" points="32,192 48,192 64,192 48,176 	"/>
	<polygon class="st0" points="48,496 32,480 16,496 32,496 	"/>
	<polygon class="st0" points="32,144 48,144 64,160 80,176 80,160 80,144 64,128 48,128 32,128 16,128 0,128 0,144 16,144 	"/>
</g>
</svg>
