<?xml version="1.0" encoding="utf-8"?>
<!-- Generator: Adobe Illustrator 25.4.1, SVG Export Plug-In . SVG Version: 6.00 Build 0)  -->
<svg version="1.1" id="Layer_1" xmlns="http://www.w3.org/2000/svg" xmlns:xlink="http://www.w3.org/1999/xlink" x="0px" y="0px"
	 viewBox="0 0 640 640" style="enable-background:new 0 0 640 640;" xml:space="preserve">
<style type="text/css">
	.st0{fill:#91C959;}
</style>
<g>
	<polygon class="st0" points="608,608 592,624 576,640 592,640 608,640 624,640 640,640 640,624 640,608 640,592 624,592 	"/>
	<path class="st0" d="M608,64l-16,16l-16,16h-16h-16h-16h-16l-16,16l-16,16h16h16l16,16h16h16l16-16h16h16l16,16l16,16v-16v-16v-16
		V96V80V64V48V32l-16,16L608,64z M608,112h-16l16-16l16,16H608z"/>
	<path class="st0" d="M608,224l-16,16h-16h-16h-16h-16l-16-16h-16h-16l16,16l16,16v16v16l-16,16l-16,16l-16,16v-16h-16h-16h-16
		l-16-16l-16-16v16v16l16,16l16,16l16,16l16-16h16h16l16-16l16-16l16-16h16h16l16-16v-16h16l16-16h16h16v-16h-16L608,224z M544,272
		h-16l16-16l16,16H544z"/>
	<path class="st0" d="M400,48h16h16h16h16v16v16v16v16l16-16l16-16h16h16h16h16l16-16l16-16l16-16l16-16l16-16h-16h-16h-16h-16h-16
		h-16l-16,16l-16,16h-16h-16h-16h-16h-16h-16h-16h-16l-16-16L352,0h-16h-16h-16h-16h-16h-16h-16h-16h-16h-16h-16h-16h-16h-16h-16H96
		l16,16l16,16l16,16l16,16v16v16l16-16h16h16l16-16l16-16V32V16h16h16h16h16l16,16h16h16l16,16h16H400z M544,64h-16h-16l16-16
		L544,64z M192,48h-16l16-16l16,16H192z"/>
	<polygon class="st0" points="288,368 272,368 288,384 304,384 304,368 288,352 	"/>
	<polygon class="st0" points="224,272 224,288 208,288 192,288 176,304 160,304 160,320 160,336 160,352 176,336 192,320 208,304 
		224,304 240,304 256,320 256,304 256,288 240,272 	"/>
	<polygon class="st0" points="128,512 112,528 96,528 80,528 80,512 80,496 64,512 48,528 64,544 48,544 32,544 48,560 64,560 
		80,560 96,576 112,560 128,544 144,528 160,528 160,512 144,512 	"/>
	<polygon class="st0" points="48,496 32,496 16,496 32,480 48,496 64,496 64,480 64,464 64,448 48,464 32,464 16,464 0,464 0,480 
		0,496 0,512 16,528 32,512 	"/>
	<polygon class="st0" points="32,224 48,240 64,240 80,240 96,256 112,272 112,256 112,240 112,224 96,224 80,224 64,224 64,208 
		64,192 48,192 32,192 48,176 64,192 80,176 64,160 48,144 32,144 16,144 0,144 0,160 0,176 0,192 0,208 16,208 	"/>
</g>
</svg>
