<?xml version="1.0" encoding="utf-8"?>
<!-- Generator: Adobe Illustrator 25.4.1, SVG Export Plug-In . SVG Version: 6.00 Build 0)  -->
<svg version="1.1" id="Layer_1" xmlns="http://www.w3.org/2000/svg" xmlns:xlink="http://www.w3.org/1999/xlink" x="0px" y="0px"
	 viewBox="0 0 640 640" style="enable-background:new 0 0 640 640;" xml:space="preserve">
<style type="text/css">
	.st0{fill:none;}
	.st1{fill:#C67854;}
</style>
<g id="Layer_2_00000098217330203509080400000000751454320027597472_">
	<g id="Layer_1-2">
		<line class="st0" x1="0" y1="0" x2="640" y2="0"/>
		<line class="st0" x1="640" y1="640" x2="0" y2="640"/>
		<g>
			<polygon class="st1" points="560,304 544,304 528,304 528,320 512,320 512,336 512,352 528,352 544,352 560,336 576,320 			"/>
			<polygon class="st1" points="496,464 480,464 464,464 448,464 432,464 448,480 464,496 448,512 432,528 416,528 400,528 384,528 
				368,528 384,544 400,560 416,576 432,576 448,576 464,560 480,544 496,528 496,512 512,512 528,496 528,480 528,464 512,464 			
				"/>
			<polygon class="st1" points="464,240 464,256 464,272 464,288 464,304 480,288 496,272 512,272 512,256 496,240 480,224 			"/>
			<polygon class="st1" points="384,416 400,432 416,432 416,416 400,416 			"/>
			<polygon class="st1" points="384,512 384,496 400,496 384,480 368,480 352,480 368,496 			"/>
			<path class="st1" d="M368,176l16-16l16,16h16h16h16v16l16-16l16-16l-16-16l-16-16l-16-16l-16-16l-16-16v16h-16l16,16l16,16h-16
				h-16h-16h-16l-16,16l16,16L368,176z M448,160h-16h-16l16-16L448,160z"/>
			<path class="st1" d="M352,384h-16h-16h-16h-16l-16-16h-16h-16l-16-16l16-16h-16h-16h-16h-16l-16,16h-16h-16h-16v16l16,16l16,16
				l16,16v16v16l16,16h16v16h16h16l16,16h16h16h16v-16l16-16l16-16h-16h-16h-16h-16v16h-16h-16h-16l-16-16l-16-16l16-16l16-16h16
				v-16h16h16l16,16l16,16l16,16l16,16v-16v-16l16-16L352,384z M192,368h-16l16-16l16,16H192z"/>
			<polygon class="st1" points="336,416 336,432 352,416 			"/>
			<polygon class="st1" points="320,272 336,272 352,256 336,240 320,240 304,240 288,240 272,240 288,256 304,256 304,272 			"/>
			<path class="st1" d="M128,160l-16,16v16v16h16h16l16,16l16-16l16,16l16,16h16v-16l16-16l-16-16l16-16l16-16l16,16l16,16v-16v-16
				l16-16h-16h-16l16-16l16,16h16h16v-16h-16l-16-16h-16h-16l-16,16h-16h-16h-16h-16v16h-16h-16v-16l16-16l16,16v-16V96l16-16h-16
				h-16l-16,16l-16,16h-16h-16H96H80l16,16l16,16L128,160z M144,192h-16l16-16l16,16H144z"/>
		</g>
	</g>
</g>
</svg>
