<?xml version="1.0" encoding="utf-8"?>
<!-- Generator: Adobe Illustrator 25.4.1, SVG Export Plug-In . SVG Version: 6.00 Build 0)  -->
<svg version="1.1" id="Layer_1" xmlns="http://www.w3.org/2000/svg" xmlns:xlink="http://www.w3.org/1999/xlink" x="0px" y="0px"
	 viewBox="0 0 640 640" style="enable-background:new 0 0 640 640;" xml:space="preserve">
<style type="text/css">
	.st0{fill:none;}
	.st1{fill:#7F4223;}
</style>
<g id="Layer_2_00000155129630948965953440000002712865954921858185_">
	<g id="Layer_1-2">
		<line class="st0" x1="0" y1="0" x2="640" y2="0"/>
		<line class="st0" x1="640" y1="640" x2="0" y2="640"/>
		<g>
			<polygon class="st1" points="624,352 608,352 608,368 608,384 624,384 640,384 640,368 640,352 			"/>
			<polygon class="st1" points="608,464 592,464 576,480 592,480 608,480 624,480 640,480 624,464 			"/>
			<polygon class="st1" points="576,544 592,544 608,544 592,528 			"/>
			<polygon class="st1" points="576,336 576,320 560,336 544,352 528,352 512,352 512,368 512,384 496,368 496,352 496,336 480,352 
				480,368 480,384 480,400 496,400 496,416 496,432 512,432 528,432 544,432 560,432 576,432 592,432 608,432 624,432 608,416 
				592,400 576,416 560,416 544,416 528,400 544,400 560,400 576,384 576,368 560,368 576,352 			"/>
			<polygon class="st1" points="544,560 528,560 512,544 512,560 512,576 512,592 528,592 544,592 560,592 576,576 560,560 			"/>
			<polygon class="st1" points="544,272 560,272 544,256 528,272 			"/>
			<polygon class="st1" points="528,528 528,512 528,496 512,512 496,512 496,528 512,544 528,544 			"/>
			<polygon class="st1" points="512,192 528,192 528,176 512,176 496,176 480,192 496,192 			"/>
			<polygon class="st1" points="496,304 512,288 512,272 496,272 480,288 464,304 464,320 464,336 480,320 			"/>
			<polygon class="st1" points="464,560 448,576 432,576 416,576 400,560 384,544 368,528 352,544 368,560 384,576 400,592 416,592 
				432,592 448,592 464,592 480,576 480,592 464,592 448,608 432,608 416,608 400,592 384,592 384,576 368,592 352,608 336,624 
				320,624 304,624 304,640 320,640 336,640 352,640 368,624 384,624 400,624 416,640 432,640 448,640 464,624 480,608 496,592 
				496,576 496,560 496,544 496,528 480,544 			"/>
			<polygon class="st1" points="464,272 464,256 464,240 448,256 432,240 416,224 400,224 400,240 416,256 432,272 448,288 464,288 
							"/>
			<polygon class="st1" points="464,496 448,480 432,464 432,480 432,496 448,512 			"/>
			<polygon class="st1" points="448,112 448,96 464,112 464,96 464,80 464,64 464,48 448,64 432,80 432,96 432,112 448,128 			"/>
			<polygon class="st1" points="432,448 432,432 416,416 416,432 400,432 384,416 384,432 384,448 400,448 416,448 			"/>
			<polygon class="st1" points="432,160 448,160 432,144 416,160 			"/>
			<polygon class="st1" points="416,384 432,384 448,384 432,368 416,352 400,368 416,368 			"/>
			<polygon class="st1" points="416,80 400,80 416,96 			"/>
			<polygon class="st1" points="416,512 400,496 384,496 384,512 400,512 			"/>
			<polygon class="st1" points="400,80 384,80 368,80 384,96 400,96 			"/>
			<polygon class="st1" points="384,128 400,128 416,128 400,112 384,96 368,112 352,128 368,128 			"/>
			<polygon class="st1" points="368,320 384,320 384,304 384,288 368,304 352,320 			"/>
			<polygon class="st1" points="368,368 384,384 400,384 416,384 400,368 384,352 368,352 352,352 336,352 336,368 352,368 			"/>
			<polygon class="st1" points="352,496 352,512 368,512 384,512 368,496 352,480 			"/>
			<polygon class="st1" points="336,112 320,96 304,80 304,96 288,96 272,96 256,96 240,112 224,112 208,112 192,112 192,128 
				208,128 224,128 240,128 256,128 272,112 288,112 304,112 320,128 336,128 336,144 352,128 			"/>
			<path class="st1" d="M336,608h16v-16h-16h-16h-16l-16-16v16h-16l-16-16l-16-16l-16-16h16h16l16,16l16,16l16-16l16-16v-16v-16v-16
				v-16l16-16l16-16v-16v-16l-16,16v-16h16v-16v-16l-16,16l-16,16v16v16l-16,16l-16,16v16h-16h-16h-16l-16-16h-16h-16v-16h-16
				l-16-16v-16v-16l-16-16l-16-16l-16-16v16v16v16v16h16h16l-16,16l-16-16v16v16l16,16l16-16h16v16v16v16v16v16v16h16h16h16l16,16
				l16,16l16,16h16h16l16,16l16-16H336z M192,496h16l16,16h16h16h16h16l16-16v16v16l-16,16l-16-16h-16h-16h-16h-16l-16-16l-16-16
				H192z"/>
			<polygon class="st1" points="336,304 352,288 352,272 352,256 336,272 320,272 304,272 304,288 304,304 320,304 			"/>
			<polygon class="st1" points="336,336 336,320 320,320 304,304 304,320 304,336 320,336 			"/>
			<polygon class="st1" points="320,64 336,48 320,48 304,48 288,48 272,48 256,32 240,16 240,32 240,48 240,64 240,80 256,80 
				272,80 288,96 304,80 			"/>
			<polygon class="st1" points="288,256 272,240 272,256 272,272 272,288 288,288 304,272 304,256 			"/>
			<polygon class="st1" points="288,352 304,352 304,336 288,320 288,336 			"/>
			<polygon class="st1" points="304,144 288,128 272,144 288,144 			"/>
			<polygon class="st1" points="288,416 272,400 256,416 240,432 224,416 208,400 192,416 176,432 192,448 208,464 224,464 240,464 
				256,464 256,448 272,432 288,448 304,448 320,448 304,432 			"/>
			<polygon class="st1" points="272,304 256,288 256,304 256,320 272,320 288,320 288,304 			"/>
			<polygon class="st1" points="256,368 272,368 272,352 272,336 256,352 240,336 224,352 240,368 			"/>
			<polygon class="st1" points="240,640 240,624 224,640 			"/>
			<polygon class="st1" points="224,400 240,400 224,384 			"/>
			<polygon class="st1" points="176,368 192,368 208,368 192,352 			"/>
			<polygon class="st1" points="160,640 176,640 192,640 192,624 192,608 176,624 			"/>
			<polygon class="st1" points="160,128 160,144 176,144 192,144 192,128 176,128 			"/>
			<polygon class="st1" points="144,192 160,192 144,176 128,192 			"/>
			<polygon class="st1" points="128,336 128,320 112,320 96,320 80,304 64,320 80,336 96,336 112,336 			"/>
			<polygon class="st1" points="112,304 128,320 128,304 			"/>
			<polygon class="st1" points="80,112 80,128 80,144 80,160 80,176 96,192 80,192 64,192 64,208 64,224 80,224 96,224 112,224 
				112,240 128,240 144,240 160,256 176,256 192,256 176,272 160,272 144,272 128,256 112,240 112,256 112,272 128,288 144,288 
				160,288 160,304 176,304 192,288 208,288 224,288 224,272 224,256 240,240 256,224 272,224 288,224 304,224 320,224 336,208 
				352,192 368,208 384,208 400,208 416,192 432,192 432,208 448,208 464,208 480,192 480,176 480,160 464,176 448,192 448,176 
				432,176 416,176 400,176 384,160 368,176 352,160 336,144 336,160 320,160 320,176 304,176 288,160 288,176 288,192 304,208 
				288,208 272,208 288,192 272,176 256,192 240,176 224,192 240,208 224,224 224,240 208,240 192,224 176,208 160,224 144,208 
				128,208 112,208 112,192 112,176 128,160 112,144 96,128 			"/>
			<polygon class="st1" points="80,80 96,80 96,64 80,64 64,64 48,80 64,80 			"/>
			<polygon class="st1" points="32,544 32,560 16,560 32,576 16,576 0,576 0,592 0,608 16,608 32,608 32,592 48,592 64,576 48,560 
							"/>
			<polygon class="st1" points="32,384 16,368 0,384 16,384 			"/>
		</g>
	</g>
</g>
</svg>
