<?xml version="1.0" encoding="utf-8"?>
<!-- Generator: Adobe Illustrator 25.4.1, SVG Export Plug-In . SVG Version: 6.00 Build 0)  -->
<svg version="1.1" id="Layer_1" xmlns="http://www.w3.org/2000/svg" xmlns:xlink="http://www.w3.org/1999/xlink" x="0px" y="0px"
	 viewBox="0 0 640 640" style="enable-background:new 0 0 640 640;" xml:space="preserve">
<style type="text/css">
	.st0{fill:none;}
	.st1{fill:#E58B65;}
</style>
<g id="Layer_2_00000103976179078715225810000009585040597506520483_">
	<g id="Layer_1-2">
		<line class="st0" x1="0" y1="0" x2="640" y2="0"/>
		<line class="st0" x1="640" y1="640" x2="0" y2="640"/>
		<g>
			<polygon class="st1" points="400,80 384,64 368,48 352,32 336,32 320,32 336,48 320,64 304,80 320,96 336,112 352,128 368,112 
				384,96 368,80 384,80 			"/>
			<polygon class="st1" points="304,144 288,160 304,176 320,176 320,160 336,160 336,144 320,144 			"/>
			<polygon class="st1" points="304,96 304,80 288,96 			"/>
			<polygon class="st1" points="256,80 240,80 240,64 240,48 224,64 208,80 192,96 192,112 208,112 224,112 240,112 256,96 272,96 
				288,96 272,80 			"/>
			<polygon class="st1" points="240,336 256,352 272,336 256,336 			"/>
			
				<rect x="244.7" y="164.7" transform="matrix(0.7071 -0.7071 0.7071 0.7071 -49.4701 232.5685)" class="st1" width="22.6" height="22.6"/>
			<polygon class="st1" points="240,384 224,384 240,400 224,400 208,400 224,416 240,432 256,416 272,400 256,384 			"/>
			<polygon class="st1" points="160,128 176,128 192,128 176,112 			"/>
		</g>
	</g>
</g>
</svg>
