<?xml version="1.0" encoding="utf-8"?>
<!-- Generator: Adobe Illustrator 25.4.1, SVG Export Plug-In . SVG Version: 6.00 Build 0)  -->
<svg version="1.1" id="Layer_1" xmlns="http://www.w3.org/2000/svg" xmlns:xlink="http://www.w3.org/1999/xlink" x="0px" y="0px"
	 viewBox="0 0 640 640" style="enable-background:new 0 0 640 640;" xml:space="preserve">
<style type="text/css">
	.st0{fill:none;}
	.st1{fill:#AA6341;}
</style>
<g id="Layer_2_00000002345953239685084950000002120175571167766199_">
	<g id="Layer_1-2">
		<line class="st0" x1="0" y1="0" x2="640" y2="0"/>
		<line class="st0" x1="640" y1="640" x2="0" y2="640"/>
		<g>
			<polygon class="st1" points="624,336 608,352 624,352 640,352 640,336 640,320 			"/>
			<polygon class="st1" points="592,464 608,464 624,464 608,448 			"/>
			<polygon class="st1" points="576,384 560,400 544,400 528,400 544,416 560,416 576,416 592,400 			"/>
			<polygon class="st1" points="576,352 560,368 576,368 			"/>
			<polygon class="st1" points="528,544 512,544 528,560 544,560 560,560 544,544 			"/>
			<polygon class="st1" points="528,304 512,320 528,320 			"/>
			<polygon class="st1" points="528,176 512,160 496,176 512,176 			"/>
			<polygon class="st1" points="512,368 512,352 512,336 512,320 496,336 496,352 496,368 512,384 			"/>
			<polygon class="st1" points="480,592 480,576 464,592 			"/>
			<polygon class="st1" points="448,208 432,208 432,192 416,192 400,208 400,224 416,224 432,240 448,256 464,240 480,224 480,208 
				480,192 464,208 			"/>
			<polygon class="st1" points="432,592 416,592 400,592 416,608 432,608 448,608 464,592 448,592 			"/>
			<polygon class="st1" points="416,368 400,368 416,384 			"/>
			<polygon class="st1" points="400,80 416,80 416,96 432,112 432,96 432,80 448,64 464,48 448,48 432,48 416,48 400,48 384,48 
				368,48 384,64 			"/>
			<polygon class="st1" points="384,592 400,592 384,576 			"/>
			<path class="st1" d="M352,544l16-16h16h16h16h16l16-16l-16-16v-16v-16h16h16l-16-16l-16-16v16h-16h-16h-16v-16h-16l-16-16v16v16
				l-16,16l-16,16v16v16v16v16l-16,16l-16,16l16,16h16h16h16v16l16-16l16-16l-16-16L352,544z M368,480h16l16,16l16,16h-16h-16h-16
				h-16v-16v-16H368z"/>
			<polygon class="st1" points="320,608 304,624 320,624 336,624 352,608 336,608 			"/>
			<polygon class="st1" points="320,320 336,320 336,336 336,352 352,352 368,352 384,352 400,368 416,352 400,336 384,320 368,320 
				352,320 368,304 384,288 368,272 352,256 352,272 352,288 336,304 320,304 304,304 			"/>
			<polygon class="st1" points="304,336 304,320 288,320 			"/>
			<polygon class="st1" points="304,208 288,192 272,208 288,208 			"/>
			<polygon class="st1" points="288,304 288,288 272,288 272,272 256,288 272,304 			"/>
			<polygon class="st1" points="256,544 240,544 224,544 240,560 256,576 272,592 288,592 288,576 272,560 			"/>
			<polygon class="st1" points="208,592 192,608 192,624 192,640 208,640 224,640 240,624 224,608 			"/>
			<polygon class="st1" points="208,528 224,528 240,528 256,528 272,528 288,544 304,528 304,512 304,496 288,512 272,512 256,512 
				240,512 224,512 208,496 192,496 176,496 192,512 			"/>
			<polygon class="st1" points="192,256 176,256 160,256 144,240 128,240 112,240 128,256 144,272 160,272 176,272 			"/>
			<polygon class="st1" points="112,432 128,448 144,432 128,432 			"/>
			<polygon class="st1" points="128,320 112,304 128,304 128,288 112,288 96,288 80,304 96,320 112,320 			"/>
			<polygon class="st1" points="96,64 96,48 80,48 64,64 80,64 			"/>
			<polygon class="st1" points="96,192 80,176 64,192 80,192 			"/>
			<polygon class="st1" points="0,544 0,560 0,576 16,576 32,576 16,560 32,560 32,544 16,544 			"/>
		</g>
	</g>
</g>
</svg>
