<svg xmlns="http://www.w3.org/2000/svg" viewBox="0 0 640 640"><defs><style>.cls-1{fill:none;}.cls-2{fill:#cc9659;}</style></defs><g id="Layer_2" data-name="Layer 2"><g id="Layer_1-2" data-name="Layer 1"><line class="cls-1" x1="640" y1="640" y2="640"/><line class="cls-1" x2="640"/><polygon class="cls-2" points="624 16 608 32 592 48 576 64 560 80 544 80 528 80 512 80 496 80 480 96 464 112 448 112 448 128 464 128 480 128 496 112 512 96 528 96 544 96 560 96 576 96 592 80 608 64 624 48 640 32 640 16 640 0 624 16"/></g></g></svg>