<svg xmlns="http://www.w3.org/2000/svg" viewBox="0 0 640 640"><defs><style>.cls-1{fill:none;}.cls-2{fill:#4db8e8;}</style></defs><g id="Layer_2" data-name="Layer 2"><g id="Layer_1-2" data-name="Layer 1"><line class="cls-1" x1="640" y1="640" y2="640"/><line class="cls-1" x2="640"/><polygon class="cls-2" points="288 288 288 304 288 320 304 320 304 304 304 288 288 288"/><polygon class="cls-2" points="256 320 240 304 224 304 208 304 192 320 176 336 192 336 208 336 224 336 240 336 256 336 272 336 272 352 272 368 288 368 288 352 288 336 288 320 272 320 256 320"/><polygon class="cls-2" points="80 432 64 448 64 464 64 480 64 496 48 496 32 512 16 528 0 544 16 544 32 544 48 528 64 512 80 496 80 480 80 464 96 448 112 432 112 416 96 416 80 432"/></g></g></svg>