<svg xmlns="http://www.w3.org/2000/svg" width="314.5" height="314" viewBox="0 0 314.5 314"><defs><style>.fdf98e36-852e-46e7-866b-489bf49eb9a8{fill:#5400e7;}.e27bd77e-b333-4d79-8f9b-6c278a158acc{fill:#fff;}</style></defs><g id="f482defd-d8df-4a00-bf23-045ab1bfea9f" data-name="Layer 2"><g id="fdbe71de-4cf7-4448-83e7-9b04fd06adbd" data-name="Layer 1"><polyline class="fdf98e36-852e-46e7-866b-489bf49eb9a8" points="0 0 140.87 0 314.5 0"/><polyline class="fdf98e36-852e-46e7-866b-489bf49eb9a8" points="314.5 314 126.12 314 0 314"/><g id="a6d03c55-122e-405f-a286-d5d58b66a914" data-name="Gnom"><polygon class="e27bd77e-b333-4d79-8f9b-6c278a158acc" points="215.78 120.9 169.87 120.88 157.25 133.49 144.62 120.85 101.56 120.83 53.94 168.79 144.62 168.79 157.25 154.27 169.87 168.79 260.56 168.79 215.78 120.9"/><polyline class="e27bd77e-b333-4d79-8f9b-6c278a158acc" points="144.62 209.13 157.25 194.62 169.87 209.13"/><polygon class="e27bd77e-b333-4d79-8f9b-6c278a158acc" points="157.25 258.02 124.36 209.13 190.14 209.13 157.25 258.02"/><polygon class="e27bd77e-b333-4d79-8f9b-6c278a158acc" points="129.65 55.98 85.99 55.98 64.17 93.78 85.99 131.59 129.65 131.59 151.47 93.78 129.65 55.98"/><polygon class="e27bd77e-b333-4d79-8f9b-6c278a158acc" points="228.51 55.98 184.85 55.98 163.03 93.78 184.85 131.59 228.51 131.59 250.33 93.78 228.51 55.98"/><rect class="e27bd77e-b333-4d79-8f9b-6c278a158acc" x="136.76" y="83.54" width="40.97" height="20.49"/></g></g></g></svg>