<svg xmlns="http://www.w3.org/2000/svg" width="314.5" height="314" viewBox="0 0 314.5 314"><defs><style>.a15d76ab-1351-4d47-b5bd-0108d7451678{fill:#5400e7;}.f57705c9-25bb-497e-a1ae-2158d80a2f48{fill:#fff;}</style></defs><g id="adaec5cb-cca1-4f05-a4ce-ce60340052ed" data-name="Layer 2"><g id="f22d59c2-351f-4e50-a78f-602d94e20d5b" data-name="Layer 1"><polyline class="a15d76ab-1351-4d47-b5bd-0108d7451678" points="0 0 140.87 0 314.5 0"/><polyline class="a15d76ab-1351-4d47-b5bd-0108d7451678" points="314.5 314 126.12 314 0 314"/><g id="f1395d1c-3949-488f-9568-030391c4ffc1" data-name="Orc"><path class="f57705c9-25bb-497e-a1ae-2158d80a2f48" d="M237.43,119.93l-80.3-80.3L76.76,120,.79,80.88l35.26,79.67L83,209.29l28.64,64.55,88.82.53,27.86-70.25,50.08-43.57,35.36-79.9ZM194.08,227,187,235.33H122.42l-8-8.29V200.52l19.1,25.93,1.9-5.33L143,230l6-5.67,5.12,5.41,5.12-5.41,6,5.75,7.84-9,1.91,5.33,19.1-25.93Z"/></g></g></g></svg>