<svg id="Layer_1" data-name="Layer 1" xmlns="http://www.w3.org/2000/svg" viewBox="0 0 150 143"><path d="M71.73,96.16H25.92V83a9.08,9.08,0,0,1,3.83-7.41l1.73-1.22a9.08,9.08,0,0,1,5.23-1.66H42V52.82h29.7ZM28.44,93.67H69.21V55.31H44.55V75.24h-7a9.08,9.08,0,0,0-5.23,1.66h0a9.06,9.06,0,0,0-3.84,7.41Z" transform="translate(0 0)" fill="#f69200"/><path d="M124.08,96.16H78.27V52.82H108V72.75h5.32a9.08,9.08,0,0,1,5.23,1.66l1.73,1.22A9.08,9.08,0,0,1,124.08,83ZM80.79,93.67h40.77V84.31a9.06,9.06,0,0,0-3.84-7.41h0a9.08,9.08,0,0,0-5.23-1.66h-7V55.31H80.79Z" transform="translate(0 0)" fill="#f69200"/><path d="M0,0H150" transform="translate(0 0)" fill="none"/><path d="M150,143H0" transform="translate(0 0)" fill="none"/></svg>