<svg id="Layer_1" data-name="Layer 1" xmlns="http://www.w3.org/2000/svg" viewBox="0 0 150 145"><path d="M0,0H150" transform="translate(0 0)" fill="none"/><path d="M150,145H0" transform="translate(0 0)" fill="none"/><path d="M86.85,35.7a2.31,2.31,0,0,1,1.48.52c1.7,1.34.67,4.17.67,4.17L81.19,55a1.27,1.27,0,0,0,.37,1.64,1.27,1.27,0,0,0,1.76-.3S93.76,42.54,95,40.78a4,4,0,0,1,3-2,2.85,2.85,0,0,1,1.75.64c1.74,1.3.72,3.3-.22,5.11S89.33,59.92,89.33,59.92a1.26,1.26,0,0,0,.1,1.55,1.25,1.25,0,0,0,.94.42,1.28,1.28,0,0,0,.84-.32s9.07-8.5,10.57-10.12a6.14,6.14,0,0,1,4-2.21,2.15,2.15,0,0,1,1.47.54c1.67,1.44,1.34,3.22-.22,5.33C105.6,57,95.49,67.89,95.49,67.89a1.27,1.27,0,0,0,1,2.08,1.31,1.31,0,0,0,.43-.08s6.36-2.51,9-3.82a7,7,0,0,1,2.93-.85,2.41,2.41,0,0,1,2.23,1.34c.89,1.55.17,3.33-3.25,5.91-2.77,2.1-15.9,10.13-15.9,10.13L74.58,92.34a1.25,1.25,0,0,0-.42.37L63.23,108.12,39.14,80.36,55,74.17A1.26,1.26,0,0,0,55.79,73s.43-18.21.58-21.46.51-6,3-7.11A4.08,4.08,0,0,1,61,44.06c2.1,0,3.54,2,4,5,.32,2.16,1,7.72,1,7.72a1.23,1.23,0,0,0,.41.72l0,0a1.25,1.25,0,0,0,.81.3,1.23,1.23,0,0,0,.94-.44,60.43,60.43,0,0,0,6-6.85c2.26-3.2,7.63-10.91,9-12.58,1-1.21,2.38-2.3,3.74-2.3m0-3h0c-3,0-5.26,2.4-6.08,3.43-1.08,1.35-4.41,6.08-7.08,9.88-.77,1.11-1.46,2.09-2,2.84a41.31,41.31,0,0,1-3.21,3.88c-.18-1.5-.38-3.09-.52-4-.83-5.62-4.14-7.62-7-7.62a7.15,7.15,0,0,0-2.9.64c-4.38,1.95-4.61,6.82-4.74,9.72s-.45,16.3-.55,20.38L38.05,77.57l-4,1.54,2.78,3.22L61,110.09,63.47,113l2.21-3.11,10.7-15.09,17-9.55,0,0,0,0c.54-.33,13.28-8.13,16.14-10.29,1.67-1.26,6.74-5.1,4-9.8a5.39,5.39,0,0,0-4.84-2.85,9.84,9.84,0,0,0-4.24,1.15c-.42.21-1,.45-1.53.7,2.72-3,5.58-6.15,6.34-7.18,3.72-5.06,1.08-8.24-.23-9.38a5.19,5.19,0,0,0-3.44-1.27,8.09,8.09,0,0,0-5,2c.71-1.09,1.23-1.93,1.44-2.33,1-1.81,3.18-6-.63-8.9A5.92,5.92,0,0,0,98,35.81a6.8,6.8,0,0,0-5.48,3.24l-.29.4a6.07,6.07,0,0,0-2.07-5.58,5.33,5.33,0,0,0-3.34-1.17Z" transform="translate(0 0)" fill="#f69200"/></svg>