<svg id="Layer_1" data-name="Layer 1" xmlns="http://www.w3.org/2000/svg" viewBox="0 0 150 143"><path d="M102.92,56.11c-.36-8.06-4.84-26-27.5-25.68-22.67-.32-27.14,17.62-27.51,25.68L45.33,107.8H71.68l.37-42.13h-11V57.05H89.78v8.62h-11l.37,42.13H105.5ZM81.63,105.22l-.37-37h11V54.51H58.57V68.2h11l-.37,37H48l2.42-46.55c0-11.11,5.93-25.71,25-25.71s25,14.6,25,25.71l2.42,46.55Z" transform="translate(0 0)" fill="#f69200"/><path d="M0,0H150" transform="translate(0 0)" fill="none"/><path d="M150,143H0" transform="translate(0 0)" fill="none"/></svg>