<svg id="Layer_1" data-name="Layer 1" xmlns="http://www.w3.org/2000/svg" viewBox="0 0 50 50"><g id="Layer_2" data-name="Layer 2"><g id="Layer_1-2" data-name="Layer 1-2"><g id="b5e31b63-280e-4f38-96cb-4ce3912872af"><g id="a7f2af64-ea2b-4d32-adbc-dcaa5fbad56d"><polyline points="0 0 22.4 0 50 0" fill="#5400e7"/><polyline points="50 50 20.1 50 0 50" fill="#5400e7"/></g></g></g><g id="Layer_2-2" data-name="Layer 2-2"><g id="MOVE"><polygon points="21.1 14.7 6.6 14.7 6.6 19.9 16.2 19.9 21.1 14.7"/><polygon points="50 17.9 35.5 3.5 22 17.7 19.9 19.9 19.9 19.9 14.9 25.1 20.3 33.3 20.3 33.3 22.3 36.3 26.5 42.5 39 41.6 34.8 28.9 40.4 24.9 41.7 26.5 43.9 24.8 42.7 23.2 44.5 21.9 45.8 23.4 48.2 21.6 47 20.1 50 17.9"/><polygon points="13.1 27 11.8 25.1 0 25.1 0 30.3 15.3 30.3 13.1 27"/><polygon points="8.9 33.3 8.9 38.5 20.7 38.5 17.2 33.3 8.9 33.3"/></g></g></g></svg>