<?xml version="1.0" encoding="utf-8"?>
<!-- Generator: Adobe Illustrator 25.2.0, SVG Export Plug-In . SVG Version: 6.00 Build 0)  -->
<svg version="1.1" id="Layer_1" xmlns="http://www.w3.org/2000/svg" xmlns:xlink="http://www.w3.org/1999/xlink" x="0px" y="0px"
	 viewBox="0 0 314.5 314" style="enable-background:new 0 0 314.5 314;" xml:space="preserve">
<style type="text/css">
	.st0{fill:#5400E7;}
	.st1{fill:#231F20;}
</style>
<g id="Layer_2_1_">
	<g id="Layer_1-2">
		<g id="b5e31b63-280e-4f38-96cb-4ce3912872af">
			<g id="a7f2af64-ea2b-4d32-adbc-dcaa5fbad56d">
				<polyline class="st0" points="0,0 140.9,0 314.5,0 				"/>
				<polyline class="st0" points="314.5,314 126.1,314 0,314 				"/>
			</g>
		</g>
	</g>
	<g id="Layer_2-2">
		<g id="Control_Matter">
			<polygon class="st1" points="275.1,85.1 275.1,117.7 298,94.8 281.7,78.5 			"/>
			<polygon class="st1" points="275.1,228.9 281.7,235.5 298,219.2 275.1,196.3 			"/>
			<path class="st1" d="M222.3,111l13.5-13.5v-19h-19.1L203.2,92l-46-46l-46,46L97.8,78.5H78.7v19.1L92.2,111l-46,46l0.1,0.1l46,46
				l-13.6,13.4v19.1h19l13.5-13.5l46.1,46l0,0l46-46l13.5,13.5h19.1v-19L222.3,203l46-46L222.3,111z M203.4,189.3v13.8h-13.8
				l-32.3,32.3v0.1h-0.1l-32.3-32.3h-13.8v-13.8L78.7,157h0.1l32.3-32.3v-13.8h13.8l32.3-32.3l32.3,32.3h13.9v13.8l32.3,32.3
				L203.4,189.3z"/>
			<polygon class="st1" points="196.7,274.9 219.6,297.7 235.8,281.5 229.1,274.9 			"/>
			<polygon class="st1" points="235.8,32.5 219.5,16.2 196.6,39.2 229.1,39.2 			"/>
			<polygon class="st1" points="157.2,137.9 138.2,157 157.2,176.1 157.2,176 176.3,157 			"/>
			<polygon class="st1" points="78.7,281.5 95,297.8 117.9,274.9 85.4,274.9 			"/>
			<polygon class="st1" points="117.9,39.2 95,16.2 78.7,32.5 78.7,32.6 85.4,39.2 			"/>
			<polygon class="st1" points="32.7,235.5 32.8,235.5 39.3,229 39.3,196.4 16.5,219.2 			"/>
			<polygon class="st1" points="16.5,94.8 39.3,117.6 39.3,85.1 32.8,78.5 			"/>
		</g>
	</g>
</g>
</svg>
