<svg xmlns="http://www.w3.org/2000/svg" viewBox="0 0 314.5 314"><defs><style>.cls-1{fill:#5400e7;}</style></defs><g id="Layer_2" data-name="Layer 2"><g id="Layer_1-2" data-name="Layer 1"><g id="b5e31b63-280e-4f38-96cb-4ce3912872af"><g id="a7f2af64-ea2b-4d32-adbc-dcaa5fbad56d"><polyline class="cls-1" points="0 0 140.87 0 314.5 0"/><polyline class="cls-1" points="314.5 314 126.12 314 0 314"/></g></g></g><g id="Senses"><g id="SIGHT"><path d="M157.25,95.54,3.17,196.07,157.25,296.61,311.33,196.07Zm-3,167.83L47.18,196.07l107.09-67.29-41.13,67.29Zm6-134.59,107.09,67.29-107.09,67.3,41.13-67.3Z"/><polygon points="225.26 48.93 206.34 17.39 179.29 82.56 203.32 98.33 225.26 48.93"/><polygon points="267.33 105.21 250.89 76.34 232.19 116.84 254.13 131.24 267.33 105.21"/><polygon points="135.52 82.56 108.46 17.39 89.54 48.93 111.48 98.33 135.52 82.56"/><polygon points="82.61 116.84 63.91 76.34 47.47 105.21 60.67 131.24 82.61 116.84"/></g></g></g></svg>