<?xml version="1.0" encoding="utf-8"?>
<!-- Generator: Adobe Illustrator 25.4.1, SVG Export Plug-In . SVG Version: 6.00 Build 0)  -->
<svg version="1.1" id="Layer_1" xmlns="http://www.w3.org/2000/svg" xmlns:xlink="http://www.w3.org/1999/xlink" x="0px" y="0px"
	 viewBox="0 0 314.5 314" style="enable-background:new 0 0 314.5 314;" xml:space="preserve">
<style type="text/css">
	.st0{fill:#5400E7;}
	.st1{fill:#FFFFFF;}
	.st2{fill:#606060;}
</style>
<g id="a04d20e5-c7d5-4f86-a362-60474a2ca6db">
	<g id="aa454394-c813-45be-9910-137885087b68">
		<polyline class="st0" points="0,0 140.9,0 314.5,0 		"/>
		<polyline class="st0" points="314.5,314 126.1,314 0,314 		"/>
		<g id="f8ad0dde-05cc-45e5-bed0-f16a01b225d7">
			<polygon class="st1" points="173.7,193 173.8,193 173.8,193 			"/>
			<polygon class="st1" points="140.7,193 140.7,193 140.7,193 			"/>
			<path class="st2" d="M237.6,116.3l-80.4-80.5l-80.5,80.5L0.5,77.1L35.8,157l121.3,121.1L278.6,157L314,77L237.6,116.3z
				 M198.9,204.9l-7.4,8.6H124l-8.4-8.6v-27.7l19.8,27.1l8.7-8.7l6.6,6.6l6.6-6.6l6.6,6.6l6.6-6.6l8.6,8.7l19.9-27.1V204.9z"/>
		</g>
	</g>
</g>
</svg>
