<?xml version="1.0" encoding="utf-8"?>
<!-- Generator: Adobe Illustrator 25.4.1, SVG Export Plug-In . SVG Version: 6.00 Build 0)  -->
<svg version="1.1" id="Layer_1" xmlns="http://www.w3.org/2000/svg" xmlns:xlink="http://www.w3.org/1999/xlink" x="0px" y="0px"
	 viewBox="0 0 314.5 314" style="enable-background:new 0 0 314.5 314;" xml:space="preserve">
<style type="text/css">
	.st0{fill:#5400E7;}
	.st1{fill:#231F20;}
</style>
<g id="aeb185af-abc3-4d29-985e-4961b12019ea">
	<g id="ee7f433f-5fc6-4db4-acb0-45285f089abd">
		<polyline class="st0" points="0,0 140.9,0 314.5,0 		"/>
		<polyline class="st0" points="314.5,314 126.1,314 0,314 		"/>
	</g>
</g>
<path class="st1" d="M263.5,92.5l-0.1-0.1l-0.1-0.1h-29.4l-34.9-34.9l-0.2-0.2V57h-82.9v0.1l-0.2,0.2l-34.9,35H51.4v0.1l-0.1,0.1
	V163L72,183.8l-14.7,14.7l0.1,0.1L72,213.2l44-0.2l-0.2,44l0.1,0.1l14.7-14.7l12.1,12.2l0.1-0.1l14.5-14.3l0.1-0.1v0.1l0.1-0.1
	l0.1,0.1V240l0.1,0.1l14.3,14.3l0.1,0.1l12.1-12.1l14.7,14.6l0.1-0.1l-0.2-44l44,0.2l14.6-14.7l0.1-0.1l-14.7-14.7l20.8-20.8V92.6
	L263.5,92.5L263.5,92.5z M165.9,207l-8.7-8.5l-8.5,8.5l-8.7-8.5l17.3-17.1l17.2,17.1L165.9,207z M157.2,139l-27.8-27.8l27.8-27.8
	l27.8,27.8L157.2,139z"/>
</svg>
