<?xml version="1.0" encoding="utf-8"?>
<!-- Generator: Adobe Illustrator 25.4.1, SVG Export Plug-In . SVG Version: 6.00 Build 0)  -->
<svg version="1.1" id="Layer_1" xmlns="http://www.w3.org/2000/svg" xmlns:xlink="http://www.w3.org/1999/xlink" x="0px" y="0px"
	 viewBox="0 0 314.5 314" style="enable-background:new 0 0 314.5 314;" xml:space="preserve">
<style type="text/css">
	.st0{fill:#5400E7;}
	.st1{fill:#231F20;}
</style>
<g id="Layer_2_00000098203646048398193020000012085182100070299803_">
	<g id="Layer_1-2">
		<g id="aeb185af-abc3-4d29-985e-4961b12019ea">
			<g id="ee7f433f-5fc6-4db4-acb0-45285f089abd">
				<polyline class="st0" points="0,0 140.9,0 314.5,0 				"/>
				<polyline class="st0" points="314.5,314 126.1,314 0,314 				"/>
			</g>
		</g>
		<path class="st1" d="M262.5,92.9L262.5,92.9l-29.1-0.1l-34.7-34.7l-0.2-0.2v-0.1h-82.3v0.1l-0.2,0.2L81.3,92.8H52.1V93L52,93.1
			V163l20.7,20.7l-14.6,14.5l0.1,0.1l14.4,14.4l43.7-0.2l-0.2,43.7l0.1,0.1l14.6-14.6v-0.1v0.1l12,12l0.1-0.1l14.4-14.2l0.1-0.1v0.1
			l0.1-0.1l0.1,0.1v-0.1l0.1,0.1l14.2,14.2l0.1,0.1l12-12v-0.1v0.1l14.6,14.4l0.1-0.1l-0.2-43.7l43.7,0.2l14.4-14.6l0.1-0.1
			l-14.6-14.6l20.7-20.7V92.8L262.5,92.9z M165.8,206.6l-8.6-8.6l-8.5,8.6l-8.6-8.6l17.2-17l17,17L165.8,206.6z"/>
	</g>
</g>
</svg>
