<?xml version="1.0" encoding="utf-8"?>
<!-- Generator: Adobe Illustrator 25.4.1, SVG Export Plug-In . SVG Version: 6.00 Build 0)  -->
<svg version="1.1" id="Layer_1" xmlns="http://www.w3.org/2000/svg" xmlns:xlink="http://www.w3.org/1999/xlink" x="0px" y="0px"
	 viewBox="0 0 314.5 314" style="enable-background:new 0 0 314.5 314;" xml:space="preserve">
<style type="text/css">
	.st0{fill:#5400E7;}
	.st1{fill:#1D1D1B;}
</style>
<g id="Layer_2_1_">
	<g id="Layer_1-2">
		<g id="aeb185af-abc3-4d29-985e-4961b12019ea">
			<g id="ee7f433f-5fc6-4db4-acb0-45285f089abd">
				<polyline class="st0" points="0,0 140.9,0 314.5,0 				"/>
				<polyline class="st0" points="314.5,314 126.1,314 0,314 				"/>
			</g>
		</g>
	</g>
</g>
<path class="st1" d="M234.4,123.6V98.2v-16h-15.8V69.9l-26.7-26.7h-34.5V32.4h-36L80.3,73.5v50H57.4v51.7l13.4,13.4h9.4v1.5v33.4
	l57.9,57.9h36.8l59.4-57.9v-33.4v-1.5h9.4l13.4-13.4v-51.7L234.4,123.6L234.4,123.6z M197,232h-7.6v-13.1h-23.6V232h-11v-13.1h-37
	V207l6.4-6.4v11.6h18.6v-14.8h9.6v9.3H171v-9.3h16.5l9.8,9.8v24.9L197,232L197,232z"/>
</svg>
