<?xml version="1.0" encoding="utf-8"?>
<!-- Generator: Adobe Illustrator 25.2.0, SVG Export Plug-In . SVG Version: 6.00 Build 0)  -->
<svg version="1.1" id="Layer_1" xmlns="http://www.w3.org/2000/svg" xmlns:xlink="http://www.w3.org/1999/xlink" x="0px" y="0px"
	 viewBox="0 0 314.5 314" style="enable-background:new 0 0 314.5 314;" xml:space="preserve">
<style type="text/css">
	.st0{fill:#5400E7;}
	.st1{fill:#231F20;}
</style>
<g id="Layer_2_1_">
	<g id="Layer_1-2">
		<g id="aeb185af-abc3-4d29-985e-4961b12019ea">
			<g id="ee7f433f-5fc6-4db4-acb0-45285f089abd">
				<polyline class="st0" points="0,0 140.9,0 314.5,0 				"/>
				<polyline class="st0" points="314.5,314 126.1,314 0,314 				"/>
			</g>
		</g>
	</g>
</g>
<g id="pSkill">
	<polygon id="pSkill-2" class="st1" points="276.8,254.3 244.4,221.5 265.6,199.7 265.6,159.7 235.6,189.7 197.7,151.8 278.4,71.2 
		278.4,71.1 278.4,31.1 238.3,31.1 238.3,31.1 157.7,111.7 77,31.1 77,31.1 36.9,31.1 36.9,71.1 36.9,71.2 117.6,151.8 79.7,189.7 
		49.7,159.7 49.7,199.7 70.7,221.8 38.5,254.3 25.4,254.3 25.4,283.7 25.9,283.7 26,283.7 54.3,283.7 54.8,283.7 54.8,271.2 
		87.3,238.5 110.5,260.5 150.5,260.5 119.8,229.7 157.7,191.9 195.5,229.7 164.8,260.5 204.8,260.5 227.7,238.2 260.2,270.9 
		260.2,283.7 261,283.7 289.3,283.7 289.4,283.7 289.6,283.7 289.6,283.5 289.6,255.2 289.6,254.3 	"/>
</g>
</svg>
