<svg viewBox="0 0 640 640" xmlns="http://www.w3.org/2000/svg"><path d="m0 0h640" fill="#86573a"/><path d="m640 640h-640" fill="#86573a"/><g fill="#616748"><path d="m628 612v-4h-4z"/><path d="m628 540-4 4h4z"/><path d="m304 252h-4l-4-4h-4v4h-4v-4h-4v-12h8v-8l-12-12v16l4-4 4 4h-8v20h-28v-16h-8l-4 4-8-8v-8l-4 4h-4v4l-4 4v8l8 8-4 4 4 4-4 4v8l4-4h4v-12h16v8l4 4v-12h36v24h4v-24h4l8 8 4-4v-4h4l-4-4z" transform="translate(320 320)"/><path d="m620 548v4h4z"/><path d="m280 296v-8l-4 4h-40l4 4h24l4 4h4v-4l4 4h12v-4z" transform="translate(320 320)"/><path d="m600 600 4 4v-4z"/><path d="m284 92 4-4h-8z" transform="translate(320 320)"/><path d="m604 352v-4l-4 4z"/><path d="m600 604v4l4-4z"/><path d="m268 76h-8l8 8h8l4-4v-8l-4 4z" transform="translate(320 320)"/><path d="m584 628h4l-4-4z"/><path d="m584 636h4l-4-4z"/><path d="m256 284v-12h-4v12l4 4z" transform="translate(320 320)"/><path d="m572 624h4l-4-4z"/><path d="m572 356-4 4h4z"/><path d="m244 308h-8l4 4h8l4-4-4-4z" transform="translate(320 320)"/><path d="m244 228 4 4h4v-4z" transform="translate(320 320)"/><path d="m560 540v-4l-4 4z"/><path d="m552 608 4 4v-4z"/><path d="m232 104h8l8 8 4-4-4-4v-8l-4-4v8h-16z" transform="translate(320 320)"/><path d="m224 172h4v-8l-4-4v8h-12v4z" transform="translate(320 320)"/><path d="m532 400h4l-4-4z"/><path d="m200 24h-8l4 4z" transform="translate(320 320)"/><path d="m188 16h-20l4 4h16l4-4z" transform="translate(320 320)"/><path d="m176 28h-4l4 4h8v-4z" transform="translate(320 320)"/><path d="m492 364 4-4h-4z"/><path d="m168 272h-28v4h32l4-4z" transform="translate(320 320)"/><path d="m488 420h4v-4h-4l-4 4z"/><path d="m164 20v4h-4v4h12z" transform="translate(320 320)"/><path d="m164 88h-4l-4 4h8l4-4-4-4z" transform="translate(320 320)"/><path d="m156 4h-8l4 4z" transform="translate(320 320)"/><path d="m148 84v-8l4-4h-12v4h4v4z" transform="translate(320 320)"/><path d="m140 284 4 4 4-4z" transform="translate(320 320)"/><path d="m464 488-4 4h4z"/><path d="m128 312 4 4h4v-4z" transform="translate(320 320)"/><path d="m128 248v4h-16v-4l-4 4h-8v-4h-12l4 4h-8l-4 4 4 4h-8l4-4h-8l-4 4 4 4h-8l4 4h8l4 4h-8l4 4h-8l4-4h-16l8 8h-8l4-4h-8v-8l-4 4h-16l4-4h-8l-4 4 4 4h-16v4h4l-4 4 8 8v-12h4l-4 4h28v4h4v4h8l12-12v4h4l4-4v-4h4v-8l4-4h8v-4h12l8 8h4v4l4-4v8h12v-16h-4l4-4v-4h-4zm-84 32h-12l4-4h8l4 4zm80-16h-4v-4h4l4 4z" transform="translate(320 320)"/><path d="m444 604v4h4z"/><path d="m440 620h4l-4-4z"/><path d="m432 324h4l-4-4z"/><path d="m108 148 4 4 4-4z" transform="translate(320 320)"/><path d="m104 304 4 4 4-4z" transform="translate(320 320)"/><path d="m108 284-4-4v4h-12l4 4h8z" transform="translate(320 320)"/><path d="m104 72h4v-4h8v-4h24v-4h-64l12 12h8l4-4v4z" transform="translate(320 320)"/><path d="m100 176v-4l-4-4h-8l8 8z" transform="translate(320 320)"/><path d="m96 160v4h8v-4z" transform="translate(320 320)"/><path d="m96 128-4-4h-8l12 12 4-4z" transform="translate(320 320)"/><path d="m412 504h4l-4-4z"/><path d="m84 284 4 4h4v-4z" transform="translate(320 320)"/><path d="m84 212-4 4v16l8-8-4-4 4-4z" transform="translate(320 320)"/><path d="m404 616h4l-4-4z"/><path d="m84 172-4-4v4h-16v4h8l12 12h4v-4l-8-8h4z" transform="translate(320 320)"/><path d="m80 128 4 4 4-4z" transform="translate(320 320)"/><path d="m400 612v-4l-4 4z"/><path d="m76 132-4-4-4 4h-8l4 4h-8l4-4h-8v8h8l4 4 4-4h8l-4-4z" transform="translate(320 320)"/><path d="m388 616h4l-4-4z"/><path d="m388 624v-4l-4 4z"/><path d="m384 588h-4l4 4 4-4z"/><path d="m384 356v-4l-4 4z"/><path d="m64 128h-8l4 4z" transform="translate(320 320)"/><path d="m380 584h-4l4 4 4-4z"/><path d="m56 156h-4l8 8h4v-4l-4-4z" transform="translate(320 320)"/><path d="m376 628h4l-4-4z"/><path d="m52 128h-4l4-4h-8l4-4-8-8h-16l4-4h-8v8h-8v4h12l4 4-4 4h16l4 4h8l4-4zm-16-12 4 4h-8z" transform="translate(320 320)"/><path d="m52 312h-4v4h8v-4l-4-4z" transform="translate(320 320)"/><path d="m372 624v-4l-4 4z"/><path d="m48 168h-8l4 4z" transform="translate(320 320)"/><path d="m364 612h4v4h-4z"/><path d="m40 312h-32v4h28l4 4h8l-4-4 4-4z" transform="translate(320 320)"/><path d="m44 268 4 4v-8h-8l-4 4 4 4z" transform="translate(320 320)"/><path d="m36 72h4l4-4v-4h4l4-4h4v-4l-4-4h-8l-4-4h-4v4h-8l-4 4 4 4 4-4 4 4h-16l8 8-4 4v-8l-4 4h-8l8 8h8l4-4zm4-16 4 4h-4zm-8 8 4 4h-4z" transform="translate(320 320)"/><path d="m28 204 4 4h8l-4-4z" transform="translate(320 320)"/><path d="m32 156v-8h-4v8l4 4z" transform="translate(320 320)"/><path d="m344 628h-4l4 4 4-4z"/><path d="m28 188 4 4h24l8-8h-4v-4l-4 4v4h-20l4-4h8l4-4v-8l-4 4v4h-12l-4 4h-8v4z" transform="translate(320 320)"/><path d="m20 204 4 4 4-4z" transform="translate(320 320)"/><path d="m24 176-4-4h-8l12 12z" transform="translate(320 320)"/><path d="m24 184h-8l4 4z" transform="translate(320 320)"/><path d="m20 204 4-4h8l4 4v-4h12l4-4h-40z" transform="translate(320 320)"/><path d="m336 480v4h4z"/><path d="m12 52v8l8-8v-4h-4z" transform="translate(320 320)"/><path d="m332 592v4l4-4z"/><g transform="translate(320 320)"><path d="m12 300h8l4-4h-16v4h-4l4-4v-4h-4v-4h-20l4 4h-4v-4h-8l-4 4h-20v-4l-8-8-4 4v8l4-4 8 8h8l4 4 4-4h8l4-4 4 4v4h12l4 4v4h4zm-16-4h-4l4-4 4 4z"/><path d="m4 60v4h-4v8h4v-4h8z"/><path d="m4 188 4-4h8l-4-4h-8v4h-4z"/><path d="m4 160v-12l-4-4v24l4-4z"/><path d="m4 284v-12h-12l4 4h-4v4l8 8z"/><path d="m0 60h4v-8l-4 4h-4v-4l-4 4h-4v4l4 4 4-4z"/><path d="m0 64h-8l4 4z"/><path d="m-4 196-4-4-4 4h-8l-4 4h-8l4 4-4 4h-16l8 8h16l8-8-4-4h8l4-4v4h12l4 4 4-4v-8h-8l4 4h-8z"/><path d="m-8 312h-12v-4h-8v4h-12l4 4h16l4 4h8l-4-4h12v-4z"/><path d="m-8 68h-4l4 4h-8l8-8h-12v4l-4 4h4v4l4 4 4-4h8l4-4-4-4z"/></g><path d="m312 604h-4l4 4 4-4z"/><path d="m-16 156v-4h-4v12l4-4z" transform="translate(320 320)"/><path d="m-20 60v-4h-4l-4-4v4h-4l4 4z" transform="translate(320 320)"/><path d="m-20 68-4-4h-8l4 4v4h4v-4z" transform="translate(320 320)"/><path d="m-32 60h-4l-4 4-4-4h-8l-4-4-4 4h4v4l8 8 4-4h-4v-4l4 4h8l8-8z" transform="translate(320 320)"/><path d="m-36 224h-12l4 4h8z" transform="translate(320 320)"/><path d="m-44 236 4 4 4-4z" transform="translate(320 320)"/><path d="m-40 180h12l4 4h-8v4h4l4 4 4-4v-4h4l4-4h8l-8-8v4h-20l-4-4v4h-4l-4 4z" transform="translate(320 320)"/><path d="m276 624v-4l-4 4z"/><path d="m-52 172 4 4h8v-4z" transform="translate(320 320)"/><path d="m-52 60 4-4v-4h-12l-4-4h-4v-4l-4 4 8 8h12z" transform="translate(320 320)"/><path d="m268 528h4l-4-4z"/><path d="m-52 192h8v-4l4-4h-16l4 4-4 4z" transform="translate(320 320)"/><path d="m-56 124h-4l8 8h4v-4l-4-4z" transform="translate(320 320)"/><path d="m256 636v-4l-4 4z"/><path d="m-68 292 4 4 4-4z" transform="translate(320 320)"/><path d="m252 568h4l-4-4z"/><path d="m252 436-4 4h4z"/><path d="m-72 56 4 4 4-4z" transform="translate(320 320)"/><path d="m248 604h-4l4 4 4-4z"/><path d="m-72 228v-4l4-4h-8l-4-4v12h4l4 4z" transform="translate(320 320)"/><path d="m-76 144h-4l8 8h12v-12l-4 4z" transform="translate(320 320)"/><path d="m244 568h4l-4-4z"/><path d="m-72 272v-4h4v-4h-20l8 8z" transform="translate(320 320)"/><path d="m-80 56-4 4h8l4-4-4-4z" transform="translate(320 320)"/><path d="m240 476v-4l-4 4z"/><path d="m-84 116 4 4h-8l-4 4 4 4h4v-4h8v-8z" transform="translate(320 320)"/><path d="m236 552v4l4-4z"/><path d="m-80 56v-4h-4l4-4-4-4v4h-4v8l-4 4v4h-8v4l16 16h-4v-4h-8l4-4h-24l8 8v-4h4l-4 4h-16l-4 4h8v8l4-4h4v-4l4 4 4-4h8l-4-4h8l4 4h8v-4h4l-8-8v-8l-4-4 4-4v-4zm-8 16h-4v-4z" transform="translate(320 320)"/><path d="m236 632h4l-4-4z"/><path d="m-84 244 4-4h8l4-4 4 4 4-4 4 4h-8l16 16-8 8 4 4h4v4l8-8 8 8 8-8-8-8 8-8h-4v-4l-4-4-8 8-20-20-4 4h-12v-4l-4 4 4 4h-8l-4-4h-8z" transform="translate(320 320)"/><path d="m236 464v-4l-4 4z"/><path d="m232 628v-4l-4 4z"/><path d="m232 616-4-4v4z"/><path d="m-92 264v-4l-4 4v16l-4 4 4 4h-8l4 4h-24l4 4h-16l4 4h-8l4 4h-8l4-4h-8v4h-4l4 4h16v-4h4l4-4h8v-4h4l-4 4h8l4 4 16-16v-16l-4-4z" transform="translate(320 320)"/><path d="m224 548v4l4-4z"/><path d="m224 456v4h4z"/><path d="m220 560h-4l4 4 4-4z"/><path d="m-112 248h-8v4h20l4-4h12v-4h-4v-4h-4v-4l-4 4 4 4h-16l4 4z" transform="translate(320 320)"/><path d="m208 636v-4l-4 4z"/><path d="m204 400h-4l4 4 4-4z"/><path d="m204 560h-4l4 4 4-4z"/><path d="m-116 72h4l4 4 4-4-4-4v-4h-4l-4 4h-8v8l4-4z" transform="translate(320 320)"/><path d="m200 396h-4v4h4l4-4z"/><path d="m-120 244h-4l-4 4h-8l4 4-4 4h8l12-12z" transform="translate(320 320)"/><path d="m-120 152-4 4 4 4h8z" transform="translate(320 320)"/><path d="m200 580h4l-4-4z"/><path d="m200 628v-4l-4 4z"/><path d="m196 500-4 4h4z"/><path d="m-124 148h-16l-4 4 4 4 4-4 4 4h8l-4-4z" transform="translate(320 320)"/><path d="m-132 220 4 4 4-4z" transform="translate(320 320)"/><path d="m188 512h4l-4-4z"/><path d="m-136 176h-8l4 4h8l4-4z" transform="translate(320 320)"/><path d="m-136 84h-4l4-4h-8l4-4 4 4 4-4v-8h-8l-4-4h-8l-8-8v4h-4v-4h4l-4-4h-8v-4h4l-8-8v12h-36l8 8-8 8h-16l8 8h8l12-12 4 4h4v4h8v4h-4l4 4 4-4h4v-4l4 4h8l4 4h8l8 8h16l-4-4zm-36-28h4l-4 4h-4v-4zm-16 8v-4h4v4zm-12-4v-4h8v4zm24 8h-4v-4h8v4zm24 8h-4l4-4h8l-4 4z" transform="translate(320 320)"/><path d="m-132 292h-8l-4 4 4 4z" transform="translate(320 320)"/><path d="m176 508h4l-4-4z"/><path d="m-152 148h-12l4 4h16l-4-4z" transform="translate(320 320)"/><path d="m-152 296v8l4-4z" transform="translate(320 320)"/><path d="m-156 308 4-4-4-4-4 4v8h8l4-4z" transform="translate(320 320)"/><path d="m168 408-4 4h4z"/><path d="m-160 236h4l-4 4h8v-4h4l-4 4h8l8-8-4-4 12-12 4 4h8l-4-4v-4h-20l4 4h-4v4l-4 4h-8l-4 4h-8l4 4h-8l8 8zm12-8 4 4h-8z" transform="translate(320 320)"/><path d="m156 404v4h4z"/><path d="m-164 308 4-4h-8v8h-8v4h4l4 4h8v-8h-4z" transform="translate(320 320)"/><path d="m-168 296 4 4 4-4z" transform="translate(320 320)"/><path d="m-164 12h-8l4 4z" transform="translate(320 320)"/><path d="m148 344h4l-4-4z"/><path d="m148 412v4h4z"/><path d="m-172 264h4v-8h-28v-4l-4-4h-32l4 4-4 4h-8v4h12l8-8h16l8 8h16l4 4z" transform="translate(320 320)"/><path d="m-172 244 4-4-4-4h-8z" transform="translate(320 320)"/><path d="m-176 148h-12l4 4h16v-4z" transform="translate(320 320)"/><path d="m136 484v-4l-4 4z"/><path d="m-188 236 4 4 8-8h-20v4z" transform="translate(320 320)"/><path d="m-196 156 4 4 4-4z" transform="translate(320 320)"/><path d="m-196 152h4v-4h-32v4z" transform="translate(320 320)"/><path d="m116 492v4h4z"/><path d="m116 484-4 4h4z"/><path d="m116 412-4 4h4z"/><path d="m112 524v-4l-4 4z"/><path d="m108 420-4-4v4h-4v4h4z"/><path d="m-216 248 4-4v-4h-12l-4 4 4 4 4-4z" transform="translate(320 320)"/><path d="m-220 312h-4l4 4h-8l-4 4h16l4-4v-4z" transform="translate(320 320)"/><path d="m-220 140v-8l-4-4v12h-4v4h4z" transform="translate(320 320)"/><path d="m96 356h4l-4-4z"/><path d="m96 524v-4l-4 4z"/><path d="m-224 120 8-8-4-4-4 4v4h-4l-4 4v8z" transform="translate(320 320)"/><path d="m-228 304h4l4-4h-8l4-4h-56l8 8z" transform="translate(320 320)"/><path d="m-228 28 8-8h-20v4l4 4z" transform="translate(320 320)"/><path d="m88 360v4h4z"/><path d="m88 400v4h4z"/><path d="m88 412h4l-4-4z"/><path d="m88 532v-4l-4 4z"/><path d="m-232 156h-20l4 4h16z" transform="translate(320 320)"/><path d="m-236 136h-20l4 4h16l4-4z" transform="translate(320 320)"/><path d="m76 352h4l-4-4z"/><path d="m76 632v-4l-4 4z"/><path d="m72 420v-4l-4 4z"/><path d="m-252 184h4l4-4h-36v4z" transform="translate(320 320)"/><path d="m64 636v-4l-4 4z"/><path d="m64 524v-4l-4 4z"/><path d="m-260 140 4 4 4-4z" transform="translate(320 320)"/><path d="m-256 80h-8l4 4z" transform="translate(320 320)"/><path d="m-260 136h-12l4 4h8l4-4z" transform="translate(320 320)"/><path d="m60 344v-4l-4 4z"/><path d="m-268 84v8l8-8z" transform="translate(320 320)"/><path d="m-264 80-4-4h-8l8 8z" transform="translate(320 320)"/><path d="m-264 96 4 4h4v4l4 4v-12h4l4-4h-8l-4 4-4-4h-8v4z" transform="translate(320 320)"/><path d="m52 512v-4l-4 4z"/><path d="m-276 316 4 4 4-4z" transform="translate(320 320)"/><path d="m-276 80h-4l-4 4h8l4-4z" transform="translate(320 320)"/><path d="m-276 108 4 4v-8h-4z" transform="translate(320 320)"/><path d="m44 408v-4l-4 4 4 4z"/><path d="m40 460h4l-4-4z"/><path d="m-280 284v-8h-12l8 8h-8l-4 4v4h-4l4-4h-12v4h4v4l4 4 4-4h8l4-4h-8l4-4 4 4 4-4z" transform="translate(320 320)"/><path d="m-288 132v-4h12v-4h-16v8l-4 4v4h-4l-4 4h-4v8h4l4-4v-4h4l-4 4h8l4 4v-8l-4-4 4-4z" transform="translate(320 320)"/><path d="m-288 116v-4l-4 4h-8l4 4v4h4l4-4z" transform="translate(320 320)"/><path d="m-292 92-4 4h8l4 4 4-4h4v-4h-8l4-4h-8l-4-4z" transform="translate(320 320)"/><path d="m28 396-4 4v4h4l4-4z"/><path d="m20 528v4l4-4z"/><path d="m-308 236 8-8v-4h4l4-4v4h4l4-4h4v-12l-4-4h-4v-4l-4-4v-8h-4v16h4l4 4h-8v4h-4l-4 4 4 4h-4v-4h-4v4h-8v8l4 4h4zm16-24 4 4h-8zm-12 12v4h-4z" transform="translate(320 320)"/><path d="m0 464h4v4h-4z"/><path d="m552 300v-4l-4 4z"/><path d="m548 284v4h4z"/><path d="m544 280-4 4h4z"/><path d="m208 0 4 4-4 4-4-4h-16l8 8h4v-4l4 4h8l4-4h4v-4l4-4-12-12v4h-4l-4 4z" transform="translate(320 320)"/><path d="m204-4-4 4 4 4z" transform="translate(320 320)"/><path d="m192-36h4v8h8l-4-4v-8h-8l-4 4z" transform="translate(320 320)"/><path d="m188-44h-8l-4 4h8l4 4z" transform="translate(320 320)"/><path d="m500 316h4v4h-4z"/><path d="m172-4h-8l4 4h8l4-4z" transform="translate(320 320)"/><path d="m492 304v-4l-4 4z"/><path d="m164-36-8-8-8 8z" transform="translate(320 320)"/><path d="m464 284h-4l4 4h4v-4l-4-4z"/><path d="m140-12 4 4 4-4z" transform="translate(320 320)"/><path d="m140-24v4h-16l4 4h16v-8l-4-4z" transform="translate(320 320)"/><path d="m456 320 4-4h-4z"/><path d="m452 260-4 4h4z"/><path d="m444 272v-4l-4 4z"/><path d="m444 252-4 4h4z"/><path d="m428 292 4 4v-4z"/><path d="m112-36v-36l4-4-4-4h4v4h8l4-4 8 8 4-4-4-4h4v4h4v-8h4l12-12v-4h4v-4h4l-4-4h-8l4 4h-8l4-4-4-4v4h-12l12 12h-16l4 4h-8l8-8h-16l4 4h-8l-4-4h8v-4h-4l-4-4-4 4v8l4 4h8l4 4-4 4-4-4-4 4h-8v56l4-4zm36-56v4h-4zm-12 4 4 4h-8z" transform="translate(320 320)"/><path d="m96-24 4 4h16l4-4h-16l-8-8h-4v4h-4v4z" transform="translate(320 320)"/><path d="m84-24h4l-8-8v4h-4l4 4z" transform="translate(320 320)"/><path d="m396 288h-4l4 4 4-4z"/><path d="m396 296v-4l-4 4z"/><path d="m72-40v-8h-64l-4-4v4h-8v4h-8l4 4h8l4-4 4 4h12v-4l4 4h20v-4l4 4h16l4-4v4z" transform="translate(320 320)"/><path d="m64-4v-4h-8l-4-4v4h-4l-4-4v8l4 4h8l4-4v4h4z" transform="translate(320 320)"/><path d="m372 284-4 4h4z"/><path d="m44-16h4v-8l-4-4v8h-8l4 4z" transform="translate(320 320)"/><path d="m352 284v-4l-4 4z"/><path d="m32-8h-8l4 4z" transform="translate(320 320)"/><path d="m340 288h4l-4-4z"/><path d="m12-24h-12v4h12l4-4v-4h-4z" transform="translate(320 320)"/><path d="m-8-24h-8l4 4h8l4-4z" transform="translate(320 320)"/><path d="m-12-48h-4v8h-4v4l-4 4h-8l-4-4v4h-4v4h20l4-4v-4h4v-8l4-4z" transform="translate(320 320)"/><path d="m304 252h4v4h-4z"/><path d="m292 260 4 4 4-4v-4h-4z"/><path d="m296 296-4-4v4z"/><path d="m272 284v4l4 4 4-4-4-4z"/><path d="m272 304-4 4h4z"/><path d="m268 280h-4l4 4 4-4z"/><path d="m-52-28h-8l4 4h4z" transform="translate(320 320)"/><path d="m-52-20-4-4-4 4h-16l4 4h16z" transform="translate(320 320)"/><path d="m260 320h4l-4-4z"/><path d="m-64-40h-8v-4h-4v8h16l4-4z" transform="translate(320 320)"/><path d="m256 316v-4l-4 4z"/><path d="m-96-32 4-4h-4v-4l-4 4h-8l4 4z" transform="translate(320 320)"/><path d="m-148-32h-4v8l4-4z" transform="translate(320 320)"/><path d="m-148-20h8l4-4h-16v4z" transform="translate(320 320)"/><path d="m164 312h4l-4-4z"/><g transform="translate(320 320)"><path d="m-160-24h-8l4 4h8l4-4z"/><path d="m-164-52 4-4h-8v4z"/><path d="m-176-24h-8l-4-4v4h-12v4h32v-4z"/><path d="m-192-48v-8l-4 4z"/><path d="m-200-136 4-4v-8h-8l4 4z"/><path d="m-204-156v4h8v-4z"/><path d="m-204-108v8l4 4v-16h-4z"/><path d="m-204-32h-4l-4-4v-8l-4-4v8l-8-8v8l20 20 4-4-4-4z"/><path d="m-224-8 4 4 4-4z"/><path d="m-220-128v-20h-4v20l4 4z"/></g><path d="m20 300 4-4h-4z"/><g transform="translate(320 320)"><path d="m-300-12-4-4v8h4z"/><path d="m312 192h-8l4 4h-8l4-4h-4v-12h-8l-4-4v4h-12l4-4v-4h-4l-4 4v8l12 12-4 4v8l8 8h8l4 4 4-4h-4v-4l4-4h4v8h4l4 4v-8h4v-12h-8l4-4h4v-4zm-32-4v-4h8l-4 4zm8 4 4-4h4v8h-8zm-4 12h4v4zm12 4h-4v-8h4l4 4z"/><path d="m316 120v-4h-8l4 4z"/><path d="m304 88v8h-4v4l4 4v-4h4v-8l4-4h-4v-4z"/><path d="m296 152h-4v12l4-4 4 4 4-4z"/><path d="m292 164 8 8v-4h12l-4-4z"/><path d="m292 68-4 4 4 4h8v-8l8-8v-8l-4-4h4v4l8-8h-16l-4 4v4h-4l-4 4 8 8v4zm8-16 4 4h-8z"/><path d="m296 176-8-8-4 4 4 4z"/></g><path d="m612 360v-4l-4 4z"/><path d="m604 400h4l-4-4z"/><path d="m284 160v-4h-8v-4h-4l-4-4h-8l4 4h4v4l-4-4-4 4 4 4h12v4l4-4z" transform="translate(320 320)"/><path d="m284 164h-8l-4 4 4 4z" transform="translate(320 320)"/><path d="m592 352v4h4z"/><path d="m588 488v4l4-4-4-4z"/><path d="m248 152h4v-4l-4-4z" transform="translate(320 320)"/><path d="m568 376v4h4z"/><path d="m544 396v-4l-4 4z"/><path d="m216 152h16l-8-8h12v4l-4 4h8v-8h8l4-4-4-4h-4v-4l-4-4h-4v4l4 4v4h-28l4 4h-8z" transform="translate(320 320)"/><path d="m208 136h-8l-4 4 4 4h8l4-4z" transform="translate(320 320)"/><path d="m528 492v-4l-4 4z"/><path d="m524 472h4l-4-4z"/><path d="m200 120h8v-4h-4z" transform="translate(320 320)"/><path d="m168 152h-28v4h32l4-4z" transform="translate(320 320)"/><path d="m136 152h-4v4h-4v-4l-4 4-4-4h-16l4-4h-8l4-4h8l4 4v-8l-4-4h-8l4 4h-8l4-4h-16l-4 4h4v4l4-4 4 4h-8l-4-4h-4v-8h-4v8l4 4v4h12l4 4h-8l-4-4v8l4 4 4-4 4 4 4-4 4 4h32l4-4h-4z" transform="translate(320 320)"/><path d="m8 112-4 4h-8l-4 4-8-8h-8l-4-4 4-4h-8l-4-4 4-4h-24l4-4h-8v-4h-12l4 4h-8l-4 4v16l4 4 4-4-4-4h8l4-4 4 4 4-4h8l4 4h8l8 8h4v4h4v-4l12 12 8-8h8l4-4h-4zm-80-16v4h-4zm8 4h-4l4-4 4 4zm20 0h4v4z" transform="translate(320 320)"/><path d="m8 92h12l4 4h8l-12-12v4h-12l-4 4z" transform="translate(320 320)"/><path d="m-8 88-4 4h-4v12l12-12h8v-4h4l4-4-4-4-8 8h-4v-4z" transform="translate(320 320)"/><path d="m296 580h4l-4-4z"/><path d="m-40 120h-8l4 4z" transform="translate(320 320)"/><path d="m-44 92h-8l4 4z" transform="translate(320 320)"/><path d="m-96 128h-8l-4 4h-8l-4 4v4h4l4-4h8l4-4h8l4-4z" transform="translate(320 320)"/><path d="m-96 160h-4v4l-4 4 4 4 8-8h8l-8-8h-4z" transform="translate(320 320)"/><path d="m-104 104-4 4 4 4h-8l4-4h-12v12l4-4 4 4 4-4h8l8-8h4v-4h4v-4l-8-8h-8v8l4-4 4 4h-8l4 4z" transform="translate(320 320)"/><path d="m316-236h-8l4 4h8v-8z" transform="translate(320 320)"/><path d="m636 280h4l-4-4z"/><path d="m312-224h-24l4 4h28v-4z" transform="translate(320 320)"/><path d="m312-108h-4l4-4h-8l-4-4v8l4 4h-8l-4 4h-4v-4l-4 4h-8l-4-4h-8l-4 4h8v4h12l4 4h4v4l8-8h8l-4-4h4v4l4 4 4-4 4 4h4v-8h-12l4-4h8v-4z" transform="translate(320 320)"/><path d="m620 36 4 4 4-4h-4v-4z"/><path d="m620 228-4 4h4z"/><path d="m300-308 8 8v-8h8l-4-4h-8v-4h-4l-4-4h-4v4z" transform="translate(320 320)"/><path d="m616 196v-4l-4 4z"/><path d="m612 236-4 4h4z"/><path d="m608 16v4h4z"/><path d="m288-208 8-8h-16z" transform="translate(320 320)"/><path d="m280-224h-48l4 4h48l4-4z" transform="translate(320 320)"/><path d="m600 8v4h4z"/><path d="m592 104-4 4h4z"/><path d="m268-276 4 4 4-4z" transform="translate(320 320)"/><path d="m268-112v-4l-8 8-4-4h-8l8 8h8l4-4z" transform="translate(320 320)"/><path d="m580 104v-4l-4 4z"/><path d="m256-284h24v-4l-4-4h-4v4h-4v-4h-12v4h-4v-4h-4v4l4 4z" transform="translate(320 320)"/><path d="m560 188h4l-4-4z"/><path d="m224-144h8l4 4h8l4 4-4 4h32l8 8 8-8 4 4v-8h-8l-4 4-12-12v4h-12l-4-4h-8l-8-8h-8l4-4v-4h-4l-4-4v8l-8 8h4z" transform="translate(320 320)"/><path d="m180-108-4-4v8l4 4h8l-4-4v-4z" transform="translate(320 320)"/><path d="m180-120v-4l4 4v-4h4l-8-8h-4v4l-4 4h-8l8 8 4-4z" transform="translate(320 320)"/><path d="m176-200v8l-8 8h8v-4h12z" transform="translate(320 320)"/><path d="m176-88-4-4h-4v4l-4 4h-4v4h8z" transform="translate(320 320)"/><path d="m492 36v4h4z"/><path d="m172-112v-4h-16l8 8 4-4z" transform="translate(320 320)"/><path d="m488 180v-4l-4 4z"/><path d="m488 104-4 4h4z"/><path d="m488 44v-4l-4 4z"/><path d="m164-224h-40v-4l-4 4h-16l4 4h8l4 4h8v-4h52l-4-4z" transform="translate(320 320)"/><path d="m160-196v4l4 4 8-8z" transform="translate(320 320)"/><path d="m480 32v4h4z"/><path d="m480 48v4h4z"/><path d="m156-152h-4l4 4h-16l4 4h16l4-4v4h4l8-8h8v-4h4l-4-4h-8l-4 4h-8l-4 4z" transform="translate(320 320)"/><path d="m476 112v-4l-4 4z"/><path d="m476 32v-4l-4 4 4 4z"/><path d="m148-164h-8l4 4h8l4-4z" transform="translate(320 320)"/><path d="m152-272 8-8h-16z" transform="translate(320 320)"/><path d="m152-184v-8l-4 4h-8l4 4z" transform="translate(320 320)"/><path d="m460 168v4l4-4z"/><path d="m452 20 4-4h-4z"/><g transform="translate(320 320)"><path d="m136-208h-8l4 4z"/><path d="m132-312h4l-4 4 4 4v-4h4l4-4-4-4h-8l-4 4v4h4z"/><path d="m132-276h8l12-12h-8l-8 8h-8l-4-4h-8l12 12v-4z"/><path d="m116-184h4l4 4h16l4-4h-20v-4h-4v-4l-4 4h-8l4 4z"/><path d="m112-308h4l8 8v-16l-4 4h-8l-4-4v4h-4l4 4z"/><path d="m104-312v-8l-4 4-4-4v8z"/><path d="m100-92v-8h-8l4 4h-4v-4h-8v4h4l4 4z"/><path d="m92-308v-8h-8v8l4-4z"/></g><path d="m408 228h-4l4 4 4-4z"/><path d="m88-304h16l4-4h-8l-4-4v4h-12v4h-4l4 4z" transform="translate(320 320)"/><path d="m80-248 4-4h-8z" transform="translate(320 320)"/><path d="m400 56-4 4h4z"/><path d="m76-188-4 4h8l4 4 12-12h8l4 4 4-4v-8l-8-8h-12v4l-8 8h4v8h-8v-4h-4zm20-12 4-4 8 8h-16z" transform="translate(320 320)"/><path d="m76-276 16 16 8-8h32l-4-4h-16l-12-12v8l-8 8-16-16-4 4v4z" transform="translate(320 320)"/><path d="m72-84h28l4-4h-40l4 4z" transform="translate(320 320)"/><path d="m68-172h-8l4 4h16l4 4h4v-4h8l4 4 4-4-4-4h-24l-4-4z" transform="translate(320 320)"/><path d="m72-96 4-4h-12v4l4 4z" transform="translate(320 320)"/><path d="m64-308h4l4 4 4-4 4 4v-12h-4v4h-12l4-4h-8l-4 4 4 4z" transform="translate(320 320)"/><path d="m56-160-4 4h-8l-4-4v4h-4v16l4 4h4v-16h8v4l12 12v-8l4-4h-8l-4-4z" transform="translate(320 320)"/><path d="m368 176-4 4h4z"/><path d="m364 4v4h4z"/><path d="m40-296 4 4h32l4-4h-32l-8-8-4 4z" transform="translate(320 320)"/><path d="m36-92v8h4v-8h12l4 4h8l4-4h-8l4-4-4-4-4 4h-20z" transform="translate(320 320)"/><path d="m36-120v8h8v-8h4l-4-4h-8z" transform="translate(320 320)"/><path d="m352 8v4h4z"/><path d="m28-84h4v-12h-4z" transform="translate(320 320)"/><path d="m28-280h4l4 4h8l4 4h16l8-8h-32l-8-8h-8l4 4z" transform="translate(320 320)"/><path d="m344 228h-4l4 4 4-4-4-4z"/><path d="m20-100-4 4-4-4-4 4h-8l8 8v-4h8v4l4-4z" transform="translate(320 320)"/><path d="m16-240-4-4v4h-12l12 12 12-12z" transform="translate(320 320)"/><path d="m336 232h4v4h-4z"/><path d="m336 240v-4h-4z"/><path d="m4-84 4 4 4-4z" transform="translate(320 320)"/><path d="m-4-252 4 4 4-4z" transform="translate(320 320)"/><path d="m320 32-4 4h4z"/><path d="m-4-260h8l8 8h16l4 4h32l8-8v-8l-8 8h-48l-12-12h-16z" transform="translate(320 320)"/><path d="m-12-156 4 4h4v-4z" transform="translate(320 320)"/><path d="m-8-96 4-4h-24l12 12z" transform="translate(320 320)"/><path d="m-16-80h-8l4 4z" transform="translate(320 320)"/><path d="m300 28v4h4z"/><path d="m300 160h4l-4-4z"/><path d="m-20-220h8l8-8-8-8h-8v8l4 4 4-4v4h-16v-4l-4-4-4 4 12 12z" transform="translate(320 320)"/><path d="m-24-116h20v-8h-8l4 4h-24l4 4z" transform="translate(320 320)"/><path d="m-24-184 4-4h16l-8-8h-8l4 4h-12v4l-4 4v8z" transform="translate(320 320)"/><path d="m-24-112h-16l8 8z" transform="translate(320 320)"/><path d="m292 216h-4l4 4 4-4z"/><path d="m296 176-4-4v4z"/><path d="m-44-104h-4l4 4h8l-4-4z" transform="translate(320 320)"/><path d="m272 100h-4l4 4z"/><path d="m-48-112 4-4h8l4-4h-16l-4 4v4h-4l4 4z" transform="translate(320 320)"/><path d="m-52-228v8l4-4z" transform="translate(320 320)"/><path d="m268 116-4 4h4z"/><path d="m264 248-4 4h4z"/><path d="m-56-228h-4v-4h-4v8l4 4 4-4z" transform="translate(320 320)"/><path d="m-60-148-4-4h-8l16 16h16l8-8v-4h4l8-8-8-8 8-8h16v-4h-16v-4l-4 4h-8l4 4-8 8 8 8-12 12h-16z" transform="translate(320 320)"/><path d="m248 92h4v4h-4z"/><path d="m-76-224v-4h-8l8 8z" transform="translate(320 320)"/><path d="m236 116v4h4z"/><path d="m232 92v-4l-4 4 4 4z"/><path d="m220 108v4h4z"/><path d="m-104-168 4 4h16l4-4h16l4-4v-8l-4-4v12h-20l-4 4z" transform="translate(320 320)"/><path d="m-100-220v-8l-4-4-4 4v8l4-4z" transform="translate(320 320)"/><path d="m-108-12 4 4 4-4z" transform="translate(320 320)"/><path d="m-108-188 8 8v-8z" transform="translate(320 320)"/><path d="m-108-120h12l-8 8h8l12 12 8-8 4 4h16l4-4h-8l4-4-4-4h-8l-4 4h-8l-4-4h-8l4-4-4-4h-16l-4 4z" transform="translate(320 320)"/><path d="m-108-52 4-4h-16l4 4h-8l4 4h8z" transform="translate(320 320)"/><path d="m208 288-4 4h4z"/><path d="m-112-212h4l4-4h8l4-4 8 8h8l4 4h8l4-4 4 4h16l4-4v-4h4l4-4h-12v-4l-4-4v16h-12v-4l-4-4h-12v4h-8l4-4h-8l4-4h-12v-4l-4-4v12h-12l-4 4h-8l4 4zm44-4h4l-4 4z" transform="translate(320 320)"/><path d="m-112-224v-4h-4l-4-4v8z" transform="translate(320 320)"/><path d="m-120-88h-8l-4 4h8l4 4 4-4z" transform="translate(320 320)"/><path d="m200 280v4h4z"/><path d="m-124-12h-8v8h8l4 4h8v-4h-4v-4h-4v-4z" transform="translate(320 320)"/><path d="m-120-124h12l4-4h-16l-4 4z" transform="translate(320 320)"/><path d="m-120-168 4 4 4-4-4-4h-8z" transform="translate(320 320)"/><path d="m196 116v4h4z"/><path d="m-124-228v-8l-8 8 4 4z" transform="translate(320 320)"/><path d="m-128-140h-12v4h4l4 4h8v4h4l4-4v-8z" transform="translate(320 320)"/><path d="m-132-52 4 4-4 4h-8l-4-4v4h-4l8 8v-4h12l4-4v-8z" transform="translate(320 320)"/><path d="m-132-220 4 4h-16l4 4h16l8-8h-8l4-4h-12v-4h-8l-4 4 8 8z" transform="translate(320 320)"/><path d="m-140-204h-24l-4 4h-8l-4-4v4h-4l-4 4h-8l4 4h8l4-4h24l4-4h16l4-4z" transform="translate(320 320)"/><path d="m176 124h-4l4 4 4-4z"/><path d="m-140-76 4-4h-8l8-8h-8v-4h-4v-8l-4 4-4-4v16l12 12zm-12-12h4v4z" transform="translate(320 320)"/><path d="m-152-72 4 4h24l4-4h8l-4-4h4v4l4 4h8l4 4-4 4h8l4-4h8l4-4h8l4-4h-4v-4l4 4 4-4h8l-8-8h8l8-8h-16l-8 8h-8l4 4h-24l4 4h-16l4-4-4-4h-8l4 4h-16l4 4h-8l4 4z" transform="translate(320 320)"/><path d="m-152-216h8l4-4h-12v-4h-8z" transform="translate(320 320)"/><path d="m-152-228h4l4-4h-8v-8l-4 4h-4v4l4 4z" transform="translate(320 320)"/><path d="m-160-180h-12l4 4h12v-4l-4-4z" transform="translate(320 320)"/><path d="m-160-224-4-4-4 4z" transform="translate(320 320)"/><path d="m152 256-4 4h4z"/><path d="m-172-84h-8l4-4 4 4 4-4v-8l-4-4-4 4 4 4h-8l4-4h-12v4l-4 4v8h8l4 4zm-16 0 4-4v4z" transform="translate(320 320)"/><path d="m-184-224 4 4h8l4-4z" transform="translate(320 320)"/><path d="m-188-228 4 4 4-4 4 4 4-4-4-4h4v4l4-4v-8l-4 4h-8v4h-4z" transform="translate(320 320)"/><path d="m-192-184 4 4 4-4z" transform="translate(320 320)"/><path d="m-200-76h-28l12 12 4-4v8l4 4h24l4 4v-4h12l-16-16h8l4 4h16l8-8h-8v4h-12l4-4-4-4-4 4h-16v4h-4l4-4zm16 12h-4v-4zm-16-4h-4l4-4 4 4z" transform="translate(320 320)"/><path d="m-220-212h4v4h8l8-8h-24z" transform="translate(320 320)"/><path d="m96 24v4h4z"/><path d="m84 228 4 4v-4z"/><path d="m-232-24 4-4v-4h-4l-4-4-12 12v4h4l4 4v8h8v-8l4-4h-8l-4-4z" transform="translate(320 320)"/><path d="m-240-84h4l4-4h-16l4 4z" transform="translate(320 320)"/><path d="m-244-180-8 8h4v4h16l4-4h8l4 4h8l-8-8v-8l-8 8h-8l-4 4h-8z" transform="translate(320 320)"/><path d="m-244-316 4-4h-12v4l4 4z" transform="translate(320 320)"/><path d="m68 48v-4l-4 4z"/><path d="m-268-92 4 4h8l4-4v4h4l8-8h-12v-4l4 4 4-4-4-4h-12v4l4 4-4 4z" transform="translate(320 320)"/><path d="m56 40-4 4h4z"/><path d="m52 32h-4l4 4 4-4z"/><path d="m-268-316h4v4l4 4h8l4 4h8l4-4 8 8h16l8-8h16v-4h4v-8h-8v8h-8l4-4v-4h-8v8h-4l4-4h-4v-4h-4v12h-8l4-4h-8l4-4h4v-4h-12v4h-8v4h-20l4-4h-8l4-4h-16l-4 4zm44 12h-4v-4z" transform="translate(320 320)"/><path d="m-280-264 4 4 4-4h8l-8-8h-8l-4-4v4h-4z" transform="translate(320 320)"/><path d="m-288-120v-4h-12l4 4z" transform="translate(320 320)"/><path d="m24 52h4l-4-4z"/><path d="m12 24v-4l-4 4 4 4z"/><path d="m-308-116h8l4-4h-24l4 4z" transform="translate(320 320)"/><path d="m-312-196h28v-4h-20l4-4-4-4h-16v4h4l-4 4v8l4-4z" transform="translate(320 320)"/><path d="m-312-252h4l4 4 4-4v-4h-20v4z" transform="translate(320 320)"/><path d="m-312-280h16l-4-4h-16z" transform="translate(320 320)"/><path d="m0 12h4v4h-4z"/><path d="m0 204v4l4-4z"/></g></svg>