<svg viewBox="0 0 640 640" xmlns="http://www.w3.org/2000/svg"><path d="m0 0h640" fill="#86573a"/><path d="m640 640h-640" fill="#86573a"/><g fill="#9e9740"><path d="m316 220-4-4h-8l-4 4-4-4h-8l-8-8v8l12 12v8h-8v4h28v8h-4v4l4 4h8v-32h-4zm-8 0v4h-4zm-8 12v-4l4 4z" transform="translate(320 320)"/><path d="m304 112v8l4 4 4-4z" transform="translate(320 320)"/><path d="m296 248 4 4h4v-4z" transform="translate(320 320)"/><path d="m292 20h-16l-4 4h-16l-4 4h-8l4 4h-8l-4 4 8 8v4h-12l-4-4-4 4h-8l16 16h-24l8 8h-12v4h-8l8 8-8 8h8l8 8v8h8l8 8 4-4h16l-8-8h-8l-4-4v-12h4l-4-4 8-8-4-4 4-4 4 4-4 4 8 8-4 4h4v4l4 4v8l4 4 4-4v-8l8-8h8v4h4l8 8 4-4h8v4h4v-4h4v-8l4-4h-8l-4-4 4-4h-8l-4-4 4-4h4v-4l-8-8 4-4h4v-4l4-4h8l4-4 4 4v-8h-8l-4-4h-8l-4-4zm-68 52v4h-4zm-8 8h-4v-4zm68-48h-4l4-4zm-8 4h-4v-4zm-24 24h-4v-4zm0-24v4h-4zm20 48h-4l-8-8 8-8h8l4 4v8l-4 4zm8 4 4-4 4 4-4 4zm8-8h-4v-4zm4-40h-4l4-4z" transform="translate(320 320)"/><path d="m276 300-4-4v4h-4l-4-4h-24l12 12-4 4h-8l-12-12 4-4h8l-8-8v-20h-4l-12 12 8 8v8l-8 8h8l12 12h8l4 4h32l-4-4v-4h4v-8l4-4zm-8 8h-4v-4zm-16-4v-4l4 4zm12 12v-4l4 4z" transform="translate(320 320)"/><path d="m280 204v-4l4-4-12-12v12h-8v4h12v4z" transform="translate(320 320)"/><path d="m588 488h-4l4 4z"/><g transform="translate(320 320)"><path d="m236 168h4l4 4v-8l4-4 4 4h8v4h4v-8l-4-4h-8v-4h-12l4 4h-4v-4h-16v8l4 4v-8h8l4 4-4 4h-8v8l4-4z"/><path d="m232 224v8l8 8 4-4h8l4-4h-8l-8-8 8-8-4-4v-4h-8v-4l-4-4h-8v16l4-4 4 4zm8-8v4h-4z"/><path d="m220 188h4v-4l4-4v-8h-16v-20h4l-8-8h-8l8 8h-4v-4h-8l8 8v8l-8 8h4v8h4l4 4 4-4zm-12-20v4h-4z"/><path d="m220 12h8l-4-4 8-8h8l-4-4 4-4v-4h-4l4-4-4-4 4-4h8l-8-8v-8l4-4h-12v-4l-4 4h-16l-4-4h-4v-4h-12v-4l4-4h-16l4 4v8l-4 4h16l4 4v8l12 12v8l12 12-4 4v4h-4l-4 4zm12-44h-4v-4zm0 12h-4l4-4zm-8-16h-4l4-4z"/><path d="m192 32 4-4-4-4v-4h4l4 4-4 4h8v-8l8-8h-8l-4-4v4h-4l-12-12h-4v-4l-4 4h-8l-4-4 8-8h8l4 4v-8l4-4h-4v-4l12-12h-8l-4-4h-16l4 4h-24l4 4v4h4l4 4-8 8h-8l4 4-4 4-4-4 4-4h-16v4h-8v-4h8l-4-4v-8l-8 8h-8v44h4v4h4l4 4v-4h12l4 4 4-4-4-4v-4h-4l-4-4h8l8-8h8l-4-4 4-4 4 4-4 4 4 4h8v8l8 8v-8l-4-4v-8l4-4h4v4l4-4 12 12-4 4h-8l4 4v8h-8l-4-4v8l4 4v-4h20zm-24-48 4-4v4zm-36 4h4v4l4 4-4 4h-4v-4l-4 4v-4h4l4-4h-8zm-12 28h-4v-4h4zm0-20h4v4h-4zm-8 4 4 4h-4zm12 24h-4v-4h4zm4-12h-4v-4h8v4zm12-4h-4v-4h4z"/><path d="m176 164v-4l-4-4h-32l-4 4h-4v4h4v28h4v8h4l4 4v-4h4l4-4 4 4h4v4l4-4h8v-8l-4-4v8h-8v-8h8l4-4v-8l4-4-4-4zm-12-4h4v4h-8v-4zm-12 8h8v4h-8zm0-8v4h-4v-4zm-12 0h4v4h-4zm4 8v4h4v4h-4v-4h-4zm-4 16h8v4h-8zm4 12v-4h4v4zm16-4h-8v-4h8zm-4-8h-4l-4-4h12v4zm16-4h-8v-4h8z"/><path d="m172 92h-16l4 4h12z"/><path d="m168 276h-44v-8l-4 4v-4h-4l-8-8h-12v4h-8l-4 4v8h-4v4l-4 4h-4v-4l-12 12h-8v-4h-4v8h-8v4h12v8l4 4v4h-8v-4l-4 4 4 4h16v-8l8-8h8l8 8v8h8v-8l4-4h8l-4-4 4-4 4 4-4 4h12v-4l4-4h-4v-4l4 4 12-12h8l-4-4 4-4 4 4-4 4h8l4-4h4v-4h8l4-4zm-84 20v-4l4 4zm4-16 4-4h8l8 8-4 4h-8l-4-4v4h-4l-4-4zm-8 12h-4l4-4zm-8 4h-4v-4zm-16 12v-4l4 4zm12-4h-4l4-4zm56-16v-4l4 4z"/><path d="m168 288 4-4-4-4z"/><path d="m164 100 8 8v-8z"/><path d="m136 72 4 4v-12h-12z"/><path d="m108 76v-4h-8v-4l-4 4h-8l4 4v4h4l4-4 4 4z"/></g><path d="m420 488v-4h-4v4l4 4z"/><path d="m88 228h4v-8l4-4h8l-4-4v-36h-4l-8-8v-8l-4-4v-8h-4v-4l-4-4h-8l-4 4-4-4h-8v-8h-8l-4-4h-8v4h4l-4 4v8l-4 4h12v-4l4-4v4h4l-8 8h-8v8l-4-4v-4h-4l-4 4h-8l-4 4v8l4 4 4-4h8l4 4 4-4 12 12h4v-4l4-4v8l-4 4h-8l-4 4h20v-4l4-4v4h4l-8 8h-16l4 4h8l-4 4h-12v4l4 4h-16l-12-12v8l-4 4-4-4h-12v-4l-4 4h-8l4 4-8 8h-16l4 4v8h-8l-4-4 8-8-8-8h-4v-4l4 4v-8l4-4v-4h-12l4-4-4-4-4 4v40l20 20 8-8 4 4v-8l4-4h4v-4l4-4h8l4-4h4v-4l4-4h16l8 8 4-4h8l4-4h4v-4l4-4 4 4 4-4h8v-8h-4v-4h4v-4h4v4h4v4h-4v8h12v8l4 4-4 4 4 4-4 4zm-128 12-4-4 4-4 4 4zm131-36 .08-.08v.08h.92l-.89.89v-.89zm5-20h-4v-4zm-80-20v-4l4 4zm28 8-4-4 4-4 4 4zm20 0v-8h-4l-8-8v-8l4-4 4 4v8l4 4h4v-12l4-4 4 4v12h4v8l4 4v4h-4l8 8v4h-4l-12-12h-8zm28 24 4 4h-8zm-4.07 11.92h-.82c.22-.21.67-.67.89-.89v.89h.08l-.08.08z" transform="translate(320 320)"/><path d="m40 72h-8l-4 4h8l-4 4h12v-4l4-4z" transform="translate(320 320)"/><path d="m360 376v4h4z"/><path d="m32 316h-24v-12l-4 4h-4v8h-12l4 4h48l-4-4z" transform="translate(320 320)"/><path d="m352 384v4h4z"/><g transform="translate(320 320)"><path d="m32 300v-4h-8l-4 4z"/><path d="m24 128v8l-8 8v4h4l4-4v-4h4v-8l4-4z"/><path d="m24 120h-8l-4 4v8l4 4h4v-12l4 4 4-4z"/><path d="m20 308h8v-4h-4z"/><path d="m20 96h4l-4-4h-8l4 4z"/><path d="m8 92h-12l-12 12 8 8 4-4h16l4-4-8-8v4h-12l4 4h-8l8-8h8l4-4z"/><path d="m4 148h4v-4l4-4-8-8v-8l4 4v-8h-8l-8 8 4 4v8h4v4z"/><path d="m0 56 4-4v-4h-4l-4-4-4 4h-4v8h4l4-4v4z"/><path d="m-12 256h-8v-4l-4-4-8 8 8 8-8 8h12v-4l4-4v-4h4zm-12 4v-4l4 4z"/><path d="m-16 128v8l-4 4 4 4 4-4v8l8 8 4-4-8-8v-16l-4-4z"/></g><path d="m304 444h4l-4-4z"/><path d="m-24 316h-12l-8-8 8-8-4-4h-8l-8-8-8 8-4-4v-4h4l4 4v-16l8-8-4-4 8-8-20-20-4 4h-8l-4 4v4h-12l-4 4h-20v-4l-8 8 4 4v8l4-4h8l4 4 12-12 4 4v8l4 4v16l-4 4 4 4h-4v-4l-12 12-4-4h-16l-4 4h-4v4h-16l-4 4h4v8h132l-4-4zm-96-56v-4l4 4zm36 52v-4l4 4zm-4-8v4h-4zm44 0h-4l4-4zm-28-16-4-4 4-4 4 4zm8-40h-4v-4zm-8 0h-4v-4zm-16 16 8-8h8v4h4v8h-4v4h-8zm-32 40v4h-4zm4 12 4-4v4zm48 0 4-4v4z" transform="translate(320 320)"/><path d="m292 368v4l4 4h4v-4l-4-4z"/><g transform="translate(320 320)"><path d="m-28 308h8l-8-8z"/><path d="m-28 184h4l-4-4h-8l4 4z"/><path d="m-28 300h4v-4h-8l-4 4z"/><path d="m-36 52 4 4h4v-4z"/><path d="m-36 180h-8l4 4z"/><path d="m-40 264-8 8 4 4 4-4h8z"/><path d="m-48 180h4l4-4h-8l-4-4 4-4h8v8h4v-4l4 4h8l8-8h4v-4l-4-4-4 4v-4h-12l4-4-16-16h8v-8l4-4v4h4l-4 4v8l8 8h8l-12-12h4v-4l4-4v-12h-4v-4h-4l-8-8h-8l-4-4h-8l-4 4-4-4-4 4h-8l4 4-4 4v8h-8v4h-4l-4 4h-8l-4 4h-8l4 4h8v8h4v8h4l8 8h4v4l8 8v-8l4-4h8v12h4v8l4-4zm-36-40v4h-4zm36-20 4-4 4 4-4 4zm-4-4v8l4 4v4h-4l-8-8v-8l4-4zm-16 0v4h-4zm0 8 8 8v20h-12l-8-8v-8zm-28 12 4 4h-4zm16 16v4h-4z"/><path d="m-132 208h4l4-4h-16l4 4z"/><path d="m-136 232h4v-4h8l4-4-4-4-4 4-4-4-8 8z"/><path d="m-160 312v8l8-8z"/><path d="m-156 180h4v4l4 4v4h4v8h16l4-4v-4h4v-8l4-4h8l4-4 4 4v-8l-4-4v-4h-4l4-4h-16l-4-4h-16l-4-4h-16l-4-4v-8h4v-4l-8-8v24h-16l-4-4v-8l-4-4v16l4 4-4 4-4-4 4-4h-16l-4 4h-4v-4h-8v-8h-4v-20l-4 4v8l-4 4 4 4v16h-12v12l-4 4 4 4-4 4h-32v-4h-4v4h-4l-4 4v8l4 4v4h4l4 4v-8h4v4l4 4h8l4 4 4-4h12v-4h-8l4-4h4v4h4v12h8l4-4h8l-4-4h8l8 8-4 4h16l-4 4h12v-4l-4-4h-4v-4l-4-4v-8l4-4h8l-4-4v-8h4v-4l4-4h8l4-4 4 4h8zm-48-4v-4l4 4zm-24-8h4v4h-4zm24 0h-4l4-4zm-8 8h-4v-4h4zm-4 16h-8v-4h4zm-8-8v-4h4zm-8-4h4v4h-4l-4-4zm0 8h4v4h-8v-4zm24-4h-8l4-4h4zm76-4h-8l-4-4 8-8 8 8zm-12 8v-4l4 4zm12 4v-4l4 4zm8-8h-4l4-4zm-60-24v4h-4zm-32 4h-4l-4-4h8zm-24 4h8v4h-8zm-8 20h4v4h-12l4-4zm-16 12h-4v-4h4zm-4-8h-4l4-4zm-12 4v-4l4 4zm8 8v-4l4 4zm20-4h-4v4h-4l4-4h-4v-4h8zm20 12h-4l4-4zm4-8 4-4v4zm20-4v4h-4zm12-16h-4l-4-4h8z"/><path d="m-172 124 4 4v-8l-4-4z"/><path d="m-172 264h-4l-4-4h-16l-8-8h-16l-8 8h-12v4h28v-4l4-4h4v8h4v8h8l4-4h8l4 4h8l-4-4 4-4z"/><path d="m-188 120v-20h12v12l4 4v-16h20v-4h4v-8h4l-8-8h-8l-4-4h-8l-4-4v4h-4l-4 4-4-4h-4v-8h-4l-4-4-12 12h-8l-12-12 12-12h8v-24l4-4h-4v-36l4 4 4-4v-4h12l4-4h-12v-4l-4 4-4-4h-8v-4h4l-12-12-4 4v16l-4 4 4 4v4h-12l4 4h-12v4l-4 4 8 8-4 4h-16l-4 4-4-4h-8l-4-4-4 4 4 4v4h8v4l4 4v8l4-4h4v-4l4-4 8 8h4v4h8l4 4v4h4v8l-4 4v8l-4 4v4h-12l4 4v8l4 4v-8h8v16h12v-4l4-4h4v4l4 4h20v28l4-4zm-56-88v-4l4 4zm24 4h-4v-4zm4-56h4v4h-8v-4zm-8-12h4v4h-4zm4 20 4 4-4 4-4-4zm-20 24v-4h8l12 12-8 8h-8l-4-4zm-24 12 4-4v4zm32 20v-4l4 4zm40 48h-4v-4h8v4zm-12-4h-4v-4h8v4zm24 0v4h-4v-4zm8 8v-4l4 4zm20-4h-4l4-4zm-8-4h-4v-4zm-28-8v4h-8l4-4zm-12-4v4h-4v-4zm-32 4 4 4h-4zm0 12v-4l4 4zm24 4 4-4v4z"/><path d="m-188 244h8l4 4 4-4-4-4h-8l-4-4h-8l4 4v4z"/><path d="m-192 128-4 4 4 4z"/></g><path d="m104 428v-4h-4v4l4 4z"/><path d="m-220 128v-12l-4 4v8l4 4z" transform="translate(320 320)"/><path d="m-232 304h-40l-8-8v-8l-8 8h-8l-4 4h4v8h4v4h4l4 4v4h12l-4-4 4-4 4 4-4 4h40l-4-4v-4h8v-4l4-4zm-12 8h-4l4-4zm-16 4 4-4v4z" transform="translate(320 320)"/><path d="m-248 100h4v-8l-4 4z" transform="translate(320 320)"/><path d="m-260 80h4l-4-4h-8l4 4z" transform="translate(320 320)"/><path d="m-268 96v4h8l-4-4z" transform="translate(320 320)"/><path d="m-272 76h4l-4-4h-8l4 4z" transform="translate(320 320)"/><path d="m-280 64v-4h-4v8l4 4z" transform="translate(320 320)"/><path d="m-284 104v4l-4 4v8l4-4h8v12h-12v8l-4 4 4 4v12h4v-4h4l4-4 4 4h8l8 8h8l-4-4v-16l-4 4-4-4h-8l-4-4v-24l-4-4v-12h-4l-4 4zm4 36v-4l4 4z" transform="translate(320 320)"/><path d="m-292 68-4-4v4h-4l4 4v8l4-4 4 4 4-4z" transform="translate(320 320)"/><path d="m-296 236h4l-4-4h16v-12h-4l-4 4h-4v-4l-4 4h-4v4l-8 8 4 4 4-4z" transform="translate(320 320)"/><path d="m16 548v-4l-4 4z"/><g transform="translate(320 320)"><path d="m-320 28v12l4 4v-8h4v-8z"/><path d="m320-40v-8l-4 4z"/><path d="m316-232h-4l8 8v-8z"/><path d="m316-44h-8l-4 4h8l4 4h4v-4h-4z"/><path d="m312-220h-20l4 4-8 8-8-8 4-4h-24v4h-4l4-4h-24v4h12v8l4-4 4 4h8l4 4h8l8 8 12-12 4 4 12-12h4v4l4 4v-12zm-40 4v4h-4z"/><path d="m312-96-4 4-4-4h-8l-8 8v-4h-4l-4-4h-8l8 8-4 4h8v8h4v4l8 8h8l4-4h8l4 4v-28h-4zm-12 4v4h-4zm-8 8v4h-4z"/><path d="m268-128h4l8 8h16l4-4-4-4v4h-4l4-4-4-4-8 8-8-8h-16l4 4z"/><path d="m256-100h4l4-4h-8l-4-4-4 4h4v4z"/><path d="m244-140h-8l-4-4h-8l4 4v8h8l4 4h16l4-4h-20v-4l4 4 4-4z"/><path d="m236-296h-4l12 12-8 8 12 12h40l12-12h-8l12-12-4-4 8-8-16-16v-4h-28l8 8h-12v4l-4 4h-12v8zm40 20-4 4-4-4 4-4zm16-8-4 4-4-4 8-8 4 4zm-12-28 4 4h-4zm12 12h-4v-4zm-44 0h28v8l4 4v4h-28l-4-4z"/><path d="m192-120-4-4h-4v4z"/><path d="m180-316h8v4h20l4 4 4-4h8l4-4h8l4-4h-64l-4 4z"/><path d="m152-300h-4l8 8v8l4 4-8 8-8-8-4 4h-12v4l4 4h-24v4h60l8-8h8v-8l-8-8v-4h-12l-8-8zm16 20v4h-4zm-8 12v-4l4 4zm16-12h-4v-4zm-12-4h-4v-4z"/><path d="m152-136 4 4 4-4h8l4-4h4v-4h8l4-4-4-4h-8l-8 8v4h-4l4-4h-4v-4l-4 4h-16v8z"/><path d="m148-24v-8h-4l-4-4v8l4 4v8l4-4z"/><path d="m136-168h4v-4l4-4h12v-4l4-4h4v-4l-4-4v-8l8-8h4v-4l8-8h-52v4h-8l-4-4h-8l4 4-4 4 8 8v8l8-8v4h20l8 8v8h-8l-4 4h-16l8 8v4zm20-44v4h-4zm12 0h-4l4-4zm-40 4 4-4 4 4-4 4z"/><path d="m132-44v4h-4l4-4h-4v-4l8-8h8l20 20 4-4v-4h-4l-4-4 8-8h-8v-8l-4-4v-4h12l8 8 8-8-4-4v-8l4-4h-8l-8 8h-8l-4-4v-8l-8 8h-4v8h-4l-4 4-8-8-4 4h-8l-4 4v40l4 4 4-4h-4v-8h4l-4 4h4v4l4-4h16zm-8-4h-4l4-4zm0-20v4h-4zm8 12h-4l4-4z"/><path d="m116-184h-4l-8-8h-8l-12 12 4 4h8l8 8v-8h8l4-4h8l-4-4z"/></g><path d="m432 296 4-4h-4z"/><path d="m104-28v-4h-8l4 4z" transform="translate(320 320)"/><path d="m412 284h4v4h-4z"/><path d="m88-24v-12h-4v4h-4z" transform="translate(320 320)"/><path d="m400 288-4 4h4z"/><path d="m400 296-4-4v4z"/><path d="m72-164h12l-4-4h-16l4 4z" transform="translate(320 320)"/><path d="m68-300h8l4 4-4 4h-32l4 4h40l-4-4 4-4v-4h4l4 4 4-4h8l4-4 8 8h24l-4-4 4-4h8l4-4-8-8v-4h-4l-4 4 4 4-4 4h-4v4l-4 4h-8l-8-8h-8l-4 4h-16l-4 4-8-8-4 4-4-4h-8z" transform="translate(320 320)"/><path d="m48-152h-4v12l4-4v4h-4v4h8v-4h8l-8-8v-4z" transform="translate(320 320)"/><path d="m48-268h12l4-4h-16l-4-4h-8l-4-4h-4v-4l-4-4-4 4h4v4l4 4v4h16v4z" transform="translate(320 320)"/><path d="m364 204v4h4v-4h4l-4-4h-4z"/><path d="m40-92v8h28l-4-4h-8l-4-4z" transform="translate(320 320)"/><path d="m28-300-4 4h8l4 4h8l-8-8 4-4h8l4 4 8-8-4-4 4-4-4-4h-24v8l4 4h-4v-4h-4v4h-8zm20-12h-4v-4z" transform="translate(320 320)"/><path d="m20-244 4 4-4 4 4 4h8l4 4v-8l8 8 16-16h8l4 4-4 4 4 4 28-28v-8l-8 8-16-16h-4v20l-8 8h-32l-4-4h-16zm60-20v4h-4zm0 8 4 4-4 4-4-4z" transform="translate(320 320)"/><path d="m336 232h-4v4z"/><path d="m4-100 4 4 4-4z" transform="translate(320 320)"/><path d="m-8-188h-12l-4 4h8l4 4h8v-8z" transform="translate(320 320)"/><path d="m-12-108 4 4 4-4v-8h-16z" transform="translate(320 320)"/><path d="m296 204h-4l4 4 4-4z"/><path d="m-24-104 8-8h-8l-4 4z" transform="translate(320 320)"/><path d="m296 264-4-4v4z"/><path d="m-48-48v-4h4l8-8h8l-4-4v-8h-8v-8h8l12 12v8l4-4v-8l12-12v-16l-12 12-24-24 4-4h-8l-4 4 12 12h-8l-8-8-4 4h-16l-4-4-8 8-12-12h-8l8-8h-16l4-4h-16l8 8v8h12v4l8 8h24v-4h20l8 8-8 8h-8l8 8h-8l-8 8 4 4v4h4l8 8v8l4 4zm8-20v8h-4l4-4h-8l4-4zm24-12-4 4-4-4 4-4zm-40 8v4h-4z" transform="translate(320 320)"/><path d="m252 248h4l-4-4z"/><g transform="translate(320 320)"><path d="m-68-28 8-8h-16v8z"/><path d="m-88-316h4l4 4 4-4v8h4v4l12-12 4 4h8l4-4h8l4-4h-36v4l-4-4h-24l4 4z"/><path d="m-96-272 8 8v4h4l4 4v-4h4l4-4v-8l4-4h8l4 4v-8h-40l4 4v4z"/><path d="m-112-4v4l4-4h8l4-4 4 4v8h4v-4l4-4h8l8 8h8l4 4v4h4l4 4v-4h4v-32l8 8 4-4 4 4h8l4-4 8 8v16l4-4h4v-4l4-4v-4h12l4 4h4v4h8l4 4 4-4 8 8v4h4l4 4v8h-8v4h4v8l-4 4v8h-8l4 4h8l4-4 4 4h-8l4 4v4h-4l-4 4h-4v4l4 4 8-8h4v-4h12v-84l4-4-4-4v-8h-4v-4l-4 4h-16l-4-4v4h-12v4h-4l4-4h-8l-4-4v4h-12l8 8v8l-4 4h-12v-4l-4 4h-8l-4-4 16-16h-8v4h-8v4l-4 4h-8l4 4h-4v-4h-12v-4l-4 4-4-4v-8l-4 4v12h-4l4 4-4 4h-16l-4-4h-4v-4l-4 4v-4h-12l-4-4 4-4h-8l-4-4v-8l16-16h-8l4-4-4-4h-8l-4-4h-8l-4 4h-8l4 4h8l4-4 8 8h4v4l-8 8h-8l-4-4v8l-4 4h-12v4l20 20v8h4v4zm136-4 4-4 4 4-4 4zm20 4v-8l4-4h-8l-4-4v-8l4-4h4v4l4 4v8l12-12 4 4v24h-4v-4l-4 4h-8zm20 40h-4l4-4zm-12-68h-4l4-4zm-32-4 4 4h-4zm-124 28-4-4 4-4 4 4zm40 0v4h-4zm4 8v-4l4 4zm12-16v4h-4zm-64-12h-4l4-4zm-4-8h-4v-4z"/><path d="m-124-128v-4h-8v8h8l4-4z"/><path d="m-148-32h4l-4-4h-8l4 4z"/><path d="m-156-196h-24l-4 4h-8l-8-8 8-8h8v-4h4l8-8h-8l-8-8 4-4h4v-4l-8-8h-8l-8 8-4-4-4 4h-16l-4 4h-16l4 4h-16l12 12v8l-12 12h8l8 8 4-4h8l4-4h8v4h4l16 16 4-4v8l8-8-4-4 4-4 4 4-4 4 16 16 8-8h8l8-8h8v-4h24v4l4 4v8l-8 8h8l-4 4h20v4l-4 4h16l-8 8h8l8 8 4-4 4 4h32l4-4 4 4h8v-8l4-4-4-4h8l8 8v-12h-4l-8-8h-4v-4l4 4 4-4h-4v-4l4-4h-8l-8 8 8 8-8 8 4 4h-4v-4h-4v4l-8 8h-16l-20-20 8-8h16l4-4h8l-12-12 12-12-4-4 4-4h8v-8l4-4h8l4 4v-8l4 4 4-4h8v-4h12v-8l-12-12 12-12-8-8h-8l-8-8 32-32h-8l-4 4h-40l-8 8 8 8v8h8l4 4v4h4v8l4 4v8l4 4-4 4 8 8-8 8h-8l-4 4h-12v4l-4 4h-16l-4-4-4 4h-8l-4-4h-8l-8-8-4 4h-8l-4 4h-8l-4-4-4 4h-8l4 4-8 8h-8l4 4-4 4-4-4 4-4h-8zm-52-32h4l4 4v8l-8 8h-8v-4h-4l-4-4 12-12zm208-56h-4l4-4zm-16-4h-4v-4zm20 36-4 4-4-4 4-4zm-160 76h-12l-4-4v-8h8l8 8zm56-8v4l-8-8 4-4 4 4zm20-16h-4v-4zm12 60h-8l4-4zm0-28h-12l-4 4h-16l-4-4 8-8v-8h8l4-4 4 4v-8h12v4l8 8v8l-4 4zm16-32h-4l4-4zm-44-8h-4v-4zm-24 8h-4v-4z"/><path d="m-156-68h-16l-4-4h-8l12 12 4-4v4h-4l4 4h8l4-4h-4v-4z"/><path d="m-168-312 4 4 8-8h4v-4h-24z"/><path d="m-168-40h8l4-4h-16l-4-4v8z"/><path d="m-176-320h-8v8z"/><path d="m-180-16h4v12h8v4h-8v40l8 8h4v4l8 8v-16l8-8h4v-12l8-8h4v-16h-4l-4-4h-8l4-4-8-8 4-4h-4v-4l-4 4h-8l-4-4v4h-20l4 4zm12 8h8v4h-4zm4 8h4v4h-4zm16 8v4l-4-4zm-8 8h-4v-4h8v4zm-12-8 4 4-4 4-4-4zm-4 12 4 4h8v4h-4l-4-4h-4zm0 12h4v4h-4zm8 12h-4v-4h8zm4-8h-4v-4h8v4zm8-8h-4v-4h4l4 4zm8-8h-4v-4h4zm8-8h-8v-4h8zm-12-12v4h-8v-4zm-4-8h-4v-4zm-12-8h4v4h-8v-4z"/></g><path d="m128 160-4 4h4z"/><path d="m-196-148v-4h-8v4z" transform="translate(320 320)"/><path d="m-196-44 4-4-4-4-8 8z" transform="translate(320 320)"/><path d="m-204-156h8l-4-4z" transform="translate(320 320)"/><path d="m-200-168h-8l-4 4h8z" transform="translate(320 320)"/><path d="m-216-48 4 4 4-4z" transform="translate(320 320)"/><path d="m96 168h4v4h-4z"/><path d="m-224-48v-8h16l-4-4v-8l-4 4-12-12v-8h-4v-4l-4 4 4 4h-8l4-4h-8l-4-4h-4v-4l-4 4h-8l4 4-4 4h-4v4l4 4h8l4 4v4h8v8h4l4 4-4 4 8 8h8zm0-16h-4v-4zm-32-12h-4l4-4h8v4zm20 8v4h-4z" transform="translate(320 320)"/><path d="m96 164h-4l4 4z"/><path d="m-228-164h4v-4h8l-4-4h-8l-4 4h-16v4h8v4h8l4 4z" transform="translate(320 320)"/><path d="m-240-16-4-4h-4v-4l-4 4 12 12z" transform="translate(320 320)"/><path d="m20 292v4h4z"/><path d="m-308-284h8l-4-4z" transform="translate(320 320)"/><path d="m-308-112h16v-4h4v-4h-8l-4 4h-16l-4 4v4h12z" transform="translate(320 320)"/><path d="m-308-308 8 8 8-8 4 4-8 8 8 8v4h4l20 20 4-4h16l4-4v4h4l12 12v-12h4l4-4h8l-8-8v-16h16v-4h16v-12h-4v4h-16l-8 8h-16l-8-8-4 4h-8l-4-4h-8v8l-4 4h-8l-4-4 8-8h8l-4-4h-8l4-4h-8l-4 4h-8l-4-4v-4h-20l-4 4zm44 28v4h-4zm16 0h-8v-4h4zm-8 8 4-4v4zm16-4v-4l8-8h8v8l-4 4zm20-16h-4v-4zm-12-8v4l-4 4v-8zm-20 0h8l4 4-8 8h-8v-8zm-12 12-4 4-4-4 4-4zm-16-20h4l-4 4-4-4zm-24-8h4l4 4h-12v-4z" transform="translate(320 320)"/><path d="m-312-244v-4h8l-4-4h-12v12l4-4z" transform="translate(320 320)"/><path d="m-312-272h8l8 8v8l4-4h8l4 4 4-4-20-20h-16l-4-4 8-8-12-12v32l4 4zm20 4h-4v-4z" transform="translate(320 320)"/><path d="m-312-184h8l-8-8h16l4-4h-24l-4 4v8z" transform="translate(320 320)"/></g></svg>