<svg xmlns="http://www.w3.org/2000/svg" viewBox="0 0 1282 1282"><defs><style>.cls-1{fill:#9e9740;}.cls-2{fill:none;}</style></defs><g id="Layer_2" data-name="Layer 2"><g id="Layer_1-2" data-name="Layer 1"><path class="cls-1" d="M1274,1081.69l-8-8h-16l-8,8-8-8h-16l-16-16v16l24,24v16h-16v8H1266v16h-8v8l8,8h16v-64.1h-8Zm-16,0v8h-8Zm-16,24v-8l8,8Z" transform="translate(0 0)"/><path class="cls-1" d="M1250,865.35v16l8,8,8-8Z" transform="translate(0 0)"/><path class="cls-1" d="M1233.92,1137.77l8,8h8v-8Z" transform="translate(0 0)"/><path class="cls-1" d="M1225.91,681.06h-32.05l-8,8h-32l-8,8h-16l8,8h-16l-8,8,16,16v8h-24l-8-8-8,8h-16l32,32.05h-48.07l16,16h-24v8h-16l16,16-16,16h16l16,16v16h16l16,16,8-8h32l-16-16h-16l-8-8v-24h8l-8-8,16-16-8-8,8-8,8,8-8,8,16,16-8,8h8v8l8,8v16l8,8,8-8v-16l16-16h16v8h8l16,16,8-8h16v8h8v-8h8v-16l8-8h-16l-8-8,8-8h-16l-8-8,8-8h8v-8l-16-16,8-8h8v-8l8-8h16l8-8,8,8v-16h-16l-8-8h-16l-8-8ZM1089.7,785.22v8h-8Zm-16,16h-8v-8Zm136.22-96.15h-8l8-8Zm-16,8h-8v-8Zm-48.07,48.08h-8v-8Zm0-48.08v8h-8Zm40.06,96.15h-8l-16-16,16-16h16l8,8v16l-8,8Zm16,8,8-8,8,8-8,8Zm16-16h-8v-8Zm8-80.13h-8l8-8Z" transform="translate(0 0)"/><path class="cls-1" d="M1193.86,1241.94l-8-8v8h-8l-8-8h-48.07l24,24-8,8h-16l-24-24,8-8h16l-16-16v-40.06h-8l-24,24,16,16v16l-16,16h16l24,24h16l8,8h64.1l-8-8v-8h8v-16l8-8Zm-16,16h-8v-8Zm-32-8v-8l8,8Zm24,24v-8l8,8Z" transform="translate(0 0)"/><path class="cls-1" d="M1201.87,1049.64v-8l8-8-24-24v24h-16v8h24v8Z" transform="translate(0 0)"/><polygon class="cls-1" points="1177.84 977.53 1169.83 977.53 1177.84 985.54 1177.84 977.53"/><path class="cls-1" d="M1113.74,977.52h8l8,8v-16l8-8,8,8h16v8h8v-16l-8-8h-16v-8h-24l8,8h-8v-8h-32v16l8,8v-16h16l8,8-8,8h-16v16l8-8Z" transform="translate(0 0)"/><path class="cls-1" d="M1105.72,1089.7v16l16,16,8-8h16l8-8h-16l-16-16,16-16-8-8v-8h-16v-8l-8-8h-16v32l8-8,8,8Zm16-16v8h-8Z" transform="translate(0 0)"/><path class="cls-1" d="M1081.69,1017.59h8v-8l8-8v-16h-32V945.47h8l-16-16h-16l16,16h-8v-8h-16l16,16v16l-16,16h8v16h8l8,8,8-8Zm-24-40.07v8h-8Z" transform="translate(0 0)"/><path class="cls-1" d="M1081.69,665h16l-8-8,16-16h16l-8-8,8-8v-8h-8l8-8-8-8,8-8h16l-16-16v-16l8-8h-24v-8l-8,8h-32l-8-8h-8v-8h-24v-8l8-8h-32l8,8v16l-8,8h32l8,8v16l24,24v16l24,24-8,8v8h-8l-8,8Zm24-88.14h-8v-8Zm0,24h-8l8-8Zm-16-32.05h-8l8-8Z" transform="translate(0 0)"/><path class="cls-1" d="M1025.6,705.1l8-8-8-8v-8h8l8,8-8,8h16v-16l16-16h-16l-8-8v8h-8l-24-24h-8v-8l-8,8h-16l-8-8,16-16h16l8,8V609l8-8h-8v-8l24-24h-16l-8-8H977.52l8,8H937.46l8,8v8h8l8,8-16,16h-16l8,8-8,8-8-8,8-8H897.4v8h-16v-8h16l-8-8v-16l-16,16h-16v88.13h8v8h8l8,8v-8h24l8,8,8-8-8-8v-8h-8l-8-8h16l16-16h16l-8-8,8-8,8,8-8,8,8,8h16v16l16,16v-16l-8-8V657l8-8h8v8l8-8,24,24-8,8h-16l8,8v16h-16l-8-8v16l8,8v-8h40.06ZM977.52,609l8-8v8Zm-72.11,8h8v8l8,8-8,8h-8v-8l-8,8v-8h8l8-8h-16Zm-24,56.09h-8v-8h8Zm0-40.06h8v8h-8Zm-16,8,8,8h-8Zm24,48.07h-8v-8h8Zm8-24h-8v-8h16v8Zm24-8h-8v-8h8Z" transform="translate(0 0)"/><path class="cls-1" d="M993.55,969.51v-8l-8-8h-64.1l-8,8h-8v8h8v56.09h8v16h8l8,8v-8h8l8-8,8,8h8v8l8-8h16v-16l-8-8v16h-16v-16h16l8-8v-16l8-8-8-8Zm-24-8h8v8h-16v-8Zm-24,16h16v8h-16Zm0-16v8h-8v-8Zm-24,0h8v8h-8Zm8,16v8h8v8h-8v-8h-8Zm-8,32.05h16v8h-16Zm8,24v-8h8v8Zm32-8h-16v-8h16Zm-8-16h-8l-8-8h24v8Zm32-8h-16v-8h16Z" transform="translate(0 0)"/><path class="cls-1" d="M985.54,825.29h-32l8,8h24Z" transform="translate(0 0)"/><path class="cls-1" d="M977.52,1193.86H889.39v-16l-8,8v-8h-8l-16-16h-24v8h-16l-8,8v16h-8v8l-8,8h-8v-8l-24,24h-16v-8h-8v16h-16v8h24v16l8,8v8h-16v-8l-8,8,8,8H769.2v-16l16-16h16l16,16v16h16v-16l8-8h16l-8-8,8-8,8,8-8,8h24v-8l8-8h-8v-8l8,8,24-24h16l-8-8,8-8,8,8-8,8h16l8-8h8v-8h16l8-8Zm-168.26,40.06v-8l8,8Zm8-32,8-8h16l16,16-8,8h-16l-8-8v8h-8l-8-8Zm-16,24h-8l8-8Zm-16,8h-8v-8Zm-32.05,24v-8l8,8Zm24-8h-8l8-8Zm112.18-32v-8l8,8Z" transform="translate(0 0)"/><path class="cls-1" d="M977.52,1217.9l8-8-8-8Z" transform="translate(0 0)"/><path class="cls-1" d="M969.51,841.31l16,16v-16Z" transform="translate(0 0)"/><path class="cls-1" d="M913.42,785.22l8,8v-24h-24Z" transform="translate(0 0)"/><path class="cls-1" d="M857.34,793.24v-8h-16v-8l-8,8h-16l8,8v8h8l8-8,8,8Z" transform="translate(0 0)"/><polygon class="cls-1" points="841.31 977.53 841.31 969.51 833.3 969.51 833.3 977.53 841.31 985.54 841.31 977.53"/><path class="cls-1" d="M817.27,1097.71h8v-16l8-8h16l-8-8V993.55h-8l-16-16v-16l-8-8v-16h-8v-8l-8-8h-16l-8,8-8-8h-16v-16h-16l-8-8h-16v8h8l-8,8v16l-8,8h24v-8l8-8v8h8l-16,16h-16v16l-8-8v-8h-8l-8,8H665l-8,8v16l8,8,8-8h16l8,8,8-8,24,24h8v-8l8-8v16l-8,8h-16l-8,8h40.06v-8l8-8v8h8c-4,4-12,12-16,16h-32l8,8h16l-8,8h-24v8l8,8h-32l-24-24v16l-8,8-8-8H625v-8l-8,8h-16l8,8-16,16h-32l8,8v16h-16l-8-8,16-16-16-16h-8v-8l8,8v-16l8-8v-8h-24l8-8-8-8-8,8v80.12l40.07,40.06,16-16,8,8v-16l8-8h8v-8l8-8h16l8-8h8v-8l8-8h32l16,16,8-8h16l8-8h8v-8l8-8,8,8,8-8h16v-16h-8v-8h8v-8h8v8h8v8h-8v16h24v16l8,8-8,8,8,8-8,8Zm-256.39,24-8-8,8-8,8,8Zm262.47-72.11.15-.15v.15h1.79l-1.79,1.79v-1.79Zm9.95-40.07h-8v-8ZM673.05,969.51v-8l8,8Zm56.09,16-8-8,8-8,8,8Zm40.06,0v-16h-8l-16-16v-16l8-8,8,8v16l8,8h8v-24l8-8,8,8v24h8v16l8,8v8h-8l16,16v8h-8l-24-24h-16Zm56.09,48.07,8,8h-16Zm-8.17,23.89h-1.63l1.78-1.79v1.79h.16l-.16.15Z" transform="translate(0 0)"/><path class="cls-1" d="M721.12,785.22h-16l-8,8h16l-8,8h24v-8l8-8Z" transform="translate(0 0)"/><polygon class="cls-1" points="721.13 753.18 721.13 761.19 729.14 761.19 721.13 753.18"/><path class="cls-1" d="M705.1,1274H657v-24l-8,8h-8v16H617l8,8h96.15l-8-8Z" transform="translate(0 0)"/><polygon class="cls-1" points="705.1 769.2 705.1 777.21 713.11 777.21 705.1 769.2"/><path class="cls-1" d="M705.1,1241.94v-8h-16l-8,8Z" transform="translate(0 0)"/><path class="cls-1" d="M689.07,897.4v16l-16,16v8h8l8-8v-8h8v-16l8-8Z" transform="translate(0 0)"/><path class="cls-1" d="M689.07,881.38h-16l-8,8v16l8,8h8v-24l8,8,8-8Z" transform="translate(0 0)"/><path class="cls-1" d="M681.06,1258h16v-8h-8Z" transform="translate(0 0)"/><path class="cls-1" d="M681.06,833.3h8l-8-8H665l8,8Z" transform="translate(0 0)"/><path class="cls-1" d="M657,825.29H633l-24,24,16,16,8-8h32l8-8-16-16v8H633l8,8H625l16-16h16l8-8Z" transform="translate(0 0)"/><path class="cls-1" d="M649,937.46h8v-8l8-8-16-16v-16l8,8v-16H641l-16,16,8,8v16h8v8Z" transform="translate(0 0)"/><path class="cls-1" d="M641,753.17l8-8v-8h-8l-8-8-8,8h-8v16h8l8-8v8Z" transform="translate(0 0)"/><path class="cls-1" d="M617,1153.8h-16v-8l-8-8-16,16,16,16-16,16h24v-8l8-8v-8h8Zm-24,8v-8l8,8Z" transform="translate(0 0)"/><path class="cls-1" d="M609,897.4v16l-8,8,8,8,8-8v16l16,16,8-8-16-16V897.4l-8-8Z" transform="translate(0 0)"/><polygon class="cls-1" points="608.95 889.39 616.96 889.39 608.95 881.38 608.95 889.39"/><path class="cls-1" d="M592.92,1274h-24l-16-16,16-16-8-8h-16l-16-16-16,16-8-8v-8h8l8,8v-32.05l16-16-8-8,16-16-40.06-40.06-8,8h-16l-8,8v8h-24l-8,8H400.62v-8l-16,16,8,8v16l8-8h16l8,8,24-24,8,8v16l8,8v32.05l-8,8,8,8h-8v-8l-24,24-8-8H392.61l-8,8h-8v8h-32l-8,8h8v16H609l-8-8Zm-192.3-112.18v-8l8,8ZM472.74,1266v-8l8,8Zm-8-16v8h-8Zm88.14,0h-8l8-8Zm-56.09-32-8-8,8-8,8,8Zm16-80.13h-8v-8Zm-16,0h-8v-8Zm-32,32,16-16h16v8h8v16h-8v8h-16ZM400.62,1250v8h-8Zm8,24,8-8v8Zm96.15,0,8-8v8Z" transform="translate(0 0)"/><polygon class="cls-1" points="584.91 737.15 584.91 745.16 592.92 753.18 600.94 753.18 600.94 745.16 592.92 737.15 584.91 737.15"/><path class="cls-1" d="M584.91,1258h16l-16-16Z" transform="translate(0 0)"/><path class="cls-1" d="M584.91,1009.57h8l-8-8h-16l8,8Z" transform="translate(0 0)"/><path class="cls-1" d="M584.91,1241.94h8v-8h-16l-8,8Z" transform="translate(0 0)"/><path class="cls-1" d="M568.89,745.16l8,8h8v-8Z" transform="translate(0 0)"/><path class="cls-1" d="M568.89,1001.56h-16l8,8Z" transform="translate(0 0)"/><path class="cls-1" d="M560.88,1169.82l-16,16,8,8,8-8h16Z" transform="translate(0 0)"/><path class="cls-1" d="M544.85,1001.56h8l8-8h-16l-8-8,8-8h16v16h8v-8l8,8h16l16-16h8v-8l-8-8-8,8v-8h-24l8-8-32-32h16v-16l8-8v8h8l-8,8v16l16,16h16l-24-24h8v-8l8-8v-24h-8v-8h-8l-16-16h-16l-8-8h-16l-8,8-8-8-8,8h-16l8,8-8,8v16h-16v8h-8l-8,8h-16l-8,8h-16l8,8h16v16h8v16h8l16,16h8v8l16,16v-16l8-8h16v24h8v16l8-8Zm-72.11-80.12v8h-8Zm72.11-40.06,8-8,8,8-8,8Zm-8-8v16l8,8v8h-8l-16-16v-16l8-8Zm-32.05,0v8h-8Zm0,16,16,16v40.06h-24l-16-16v-16Zm-56.09,24,8,8h-8Zm32.05,32.05v8h-8Z" transform="translate(0 0)"/><path class="cls-1" d="M376.59,1057.65h8l8-8H360.56l8,8Z" transform="translate(0 0)"/><path class="cls-1" d="M368.58,1105.72h8v-8h16l8-8-8-8-8,8-8-8-16,16Z" transform="translate(0 0)"/><path class="cls-1" d="M320.5,1266v16l16-16Z" transform="translate(0 0)"/><path class="cls-1" d="M328.51,1001.56h8v8l8,8v8h8v16H384.6l8-8v-8h8v-16l8-8h16l8-8,8,8v-16l-8-8v-8h-8l8-8H400.62l-8-8H360.56l-8-8H320.5l-8-8v-16h8v-8l-16-16v48.07H272.42l-8-8v-16l-8-8v32.05l8,8-8,8-8-8,8-8h-32l-8,8h-8v-8h-16v-16h-8V889.39l-8,8v16l-8,8,8,8v32h-24v24l-8,8,8,8-8,8H80.12v-8h-8v8h-8l-8,8v16l8,8v8h8l8,8v-16h8v8l8,8h16l8,8,8-8h24v-8h-16l8-8h8v8h8v24h16l8-8h16l-8-8h16l16,16-8,8h32l-8,8h24v-8l-8-8h-8v-8l-8-8v-16l8-8h16l-8-8v-16h8v-8l8-8h16l8-8,8,8h16Zm-96.15-8v-8l8,8Zm-48.07-16h8v8h-8Zm48.07,0h-8l8-8Zm-16,16h-8v-8h8Zm-8,32h-16v-8h8Zm-16-16v-8h8Zm-16-8h8v8h-8l-8-8Zm0,16h8v8h-16v-8Zm48.08-8h-16l8-8h8Zm152.24-8h-16l-8-8,16-16,16,16Zm-24,16v-8l8,8Zm24,8v-8l8,8Zm16-16h-8l8-8ZM272.42,961.5v8h-8Zm-64.09,8h-8l-8-8h16Zm-48.08,8h16v8h-16Zm-16,40.07h8v8h-24l8-8Zm-32,24h-8v-8h8Zm-8-16h-8l8-8Zm-24,8v-8l8,8Zm16,16v-8l8,8Zm40.06-8h-8v8h-8l8-8h-8v-8h16Zm40.06,24h-8l8-8Zm8-16,8-8v8Zm40.06-8v8h-8Zm24-32.06h-8l-8-8h16Z" transform="translate(0 0)"/><path class="cls-1" d="M296.46,889.39l8,8v-16l-8-8Z" transform="translate(0 0)"/><path class="cls-1" d="M296.46,1169.82h-8l-8-8H248.39l-16-16H200.31l-16,16h-24v8h56.09v-8l8-8h8v16h8v16h16l8-8h16l8,8h16l-8-8,8-8Z" transform="translate(0 0)"/><path class="cls-1" d="M264.41,881.38V841.31h24v24l8,8V841.31h40.06v-8h8v-16h8l-16-16h-16l-8-8h-16l-8-8v8h-8l-8,8-8-8h-8v-16h-8l-8-8-24,24h-16l-24-24,24-24h16V697.09l8-8h-8V617l8,8,8-8v-8h24l8-8h-24v-8l-8,8-8-8h-16v-8h8l-24-24-8,8v32.05l-8,8,8,8v8h-24l8,8h-24v8l-8,8,16,16-8,8h-32l-8,8-8-8h-16l-8-8-8,8,8,8v8h16v8l8,8v16l8-8h8v-8l8-8,16,16h8v8h16l8,8v8h8v16l-8,8v16l-8,8v8h-24l8,8v16l8,8v-16h16v32h24v-8l8-8h8v8l8,8H256.4V897.4l8-8ZM152.24,705.1v-8l8,8Zm48.07,8h-8v-8Zm8-112.17h8v8h-16v-8Zm-16-24h8v8h-8Zm8,40.06,8,8-8,8-8-8ZM160.25,665v-8h16l24,24-16,16h-16l-8-8Zm-48.08,24,8-8v8Zm64.1,40.07v-8l8,8Zm80.13,96.15h-8v-8h16v8Zm-24-8h-8v-8h16v8Zm48.08,0v8h-8v-8Zm16,16v-8l8,8Zm40.06-8h-8l8-8Zm-16-8h-8v-8Zm-56.09-16v8h-16l8-8Zm-24-8v8h-8v-8Zm-64.11,8,8,8h-8Zm0,24v-8l8,8Zm48.08,8,8-8v8Z" transform="translate(0 0)"/><path class="cls-1" d="M264.41,1129.76h16l8,8,8-8-8-8h-16l-8-8h-16l8,8v8Z" transform="translate(0 0)"/><path class="cls-1" d="M256.4,897.4l-8,8,8,8Z" transform="translate(0 0)"/><polygon class="cls-1" points="208.32 857.34 208.32 849.33 200.31 849.33 200.31 857.34 208.32 865.35 208.32 857.34"/><path class="cls-1" d="M200.31,897.4v-24l-8,8v16l8,8Z" transform="translate(0 0)"/><path class="cls-1" d="M176.27,1250H96.15l-16-16v-16l-16,16h-16l-8,8h8v16h8v8h8l8,8v8h24l-8-8,8-8,8,8-8,8h80.12l-8-8v-8h16v-8l8-8Zm-24,16h-8l8-8Zm-32.05,8,8-8v8Z" transform="translate(0 0)"/><path class="cls-1" d="M144.22,841.31h8v-16l-8,8Z" transform="translate(0 0)"/><path class="cls-1" d="M120.19,801.25h8l-8-8h-16l8,8Z" transform="translate(0 0)"/><path class="cls-1" d="M104.16,833.3v8h16l-8-8Z" transform="translate(0 0)"/><path class="cls-1" d="M96.15,793.24h8l-8-8h-16l8,8Z" transform="translate(0 0)"/><path class="cls-1" d="M80.12,769.2v-8h-8v16l8,8Z" transform="translate(0 0)"/><path class="cls-1" d="M72.11,849.32v8l-8,8v16l8-8h16v24h-24v16l-8,8,8,8v24h8v-8h8l8-8,8,8h16l16,16h16l-8-8v-32l-8,8-8-8h-16l-8-8V865.35l-8-8v-24h-8l-8,8Zm8,72.12v-8l8,8Z" transform="translate(0 0)"/><path class="cls-1" d="M56.09,777.21l-8-8v8h-8l8,8v16l8-8,8,8,8-8Z" transform="translate(0 0)"/><path class="cls-1" d="M48.08,1113.74h8l-8-8h32v-24h-8l-8,8h-8v-8l-8,8h-8v8l-16,16,8,8,8-8Z" transform="translate(0 0)"/><polygon class="cls-1" points="32.05 1097.71 32.05 1089.7 24.04 1097.71 32.05 1097.71"/><path class="cls-1" d="M0,697.09v24l8,8v-16h8v-16Z" transform="translate(0 0)"/><path class="cls-1" d="M1282,560.88v-16l-8,8Z" transform="translate(0 0)"/><path class="cls-1" d="M1274,176.27h-8l16,16v-16Z" transform="translate(0 0)"/><path class="cls-1" d="M1274,552.86h-16l-8,8h16l8,8h8v-8h-8Z" transform="translate(0 0)"/><path class="cls-1" d="M1266,200.31h-40.06l8,8-16,16-16-16,8-8h-48.08v8h-8l8-8h-48.07v8h24v16l8-8,8,8h16l8,8h16l16,16,24-24,8,8,24-24h8v8l8,8v-24Zm-80.12,8v8h-8Z" transform="translate(0 0)"/><path class="cls-1" d="M1266,448.7l-8,8-8-8h-16l-16,16v-8h-8l-8-8h-16l16,16-8,8h16v16h8v8l16,16h16l8-8h16l8,8V456.71h-8Zm-24,8v8h-8Zm-16,16v8h-8Z" transform="translate(0 0)"/><path class="cls-1" d="M1177.84,384.6h8l16,16h32.05l8-8-8-8v8h-8l8-8-8-8-16,16-16-16h-32l8,8Z" transform="translate(0 0)"/><path class="cls-1" d="M1153.8,440.69h8l8-8h-16l-8-8-8,8h8v8Z" transform="translate(0 0)"/><path class="cls-1" d="M1129.76,360.56h-16l-8-8h-16l8,8v16h16l8,8h32l8-8h-40.06v-8l8,8,8-8Z" transform="translate(0 0)"/><path class="cls-1" d="M1113.74,48.08h-8l24,24-16,16,24,24h80.13l24-24h-16l24-24-8-8,16-16L1225.91,8V0h-56.09l16,16h-24v8l-8,8h-24v16Zm80.12,40.06-8,8-8-8,8-8Zm32.05-16-8,8-8-8,16-16,8,8Zm-24-56.09,8,8h-8Zm24,24h-8v-8Zm-88.14,0h56.09v16l8,8v8h-56.08l-8-8Z" transform="translate(0 0)"/><path class="cls-1" d="M1025.6,400.62l-8-8h-8v8Z" transform="translate(0 0)"/><path class="cls-1" d="M1001.56,8h16v8h40.06l8,8,8-8h16l8-8h16l8-8H993.55l-8,8Z" transform="translate(0 0)"/><path class="cls-1" d="M945.47,40.06h-8l16,16v16l8,8-16,16-16-16-8,8h-24v8l8,8H857.34v8H977.52l16-16h16v-16l-16-16v-8h-24l-16-16Zm32,40.06v8h-8Zm-16,24v-8l8,8Zm32-24h-8v-8Zm-24-8h-8v-8Z" transform="translate(0 0)"/><path class="cls-1" d="M945.47,368.58l8,8,8-8h16l8-8h8v-8h16l8-8-8-8h-16l-16,16v8h-8l8-8h-8v-8l-8,8h-32v16Z" transform="translate(0 0)"/><path class="cls-1" d="M937.46,592.92v-16h-8l-8-8v16l8,8v16l8-8Z" transform="translate(0 0)"/><path class="cls-1" d="M913.42,304.47h8v-8l8-8h24v-8l8-8h8v-8l-8-8v-16l16-16h8v-8l16-16H897.4v8h-16l-8-8h-16l8,8-8,8,16,16v16l16-16v8h40.06l16,16v16h-16l-8,8H889.39l16,16v8Zm40.07-88.13v8h-8Zm24,0h-8l8-8Zm-80.12,8,8-8,8,8-8,8Z" transform="translate(0 0)"/><path class="cls-1" d="M905.41,552.86v8h-8l8-8h-8v-8l16-16h16l40.06,40.06,8-8v-8h-8l-8-8,16-16h-16v-16l-8-8v-8h24l16,16,16-16-8-8v-16l8-8h-16l-16,16h-16l-8-8v-16l-16,16h-8v16h-8l-8,8-16-16-8,8h-16l-8,8V576.9l8,8,8-8h-8v-16h8l-8,8h8v8l8-8h32.05Zm-16-8h-8l8-8Zm0-40.06v8h-8Zm16,24h-8l8-8Z" transform="translate(0 0)"/><path class="cls-1" d="M873.36,272.42h-8l-16-16h-16l-24,24,8,8h16l16,16v-16h16l8-8h16l-8-8Z" transform="translate(0 0)"/><polygon class="cls-1" points="865.35 592.93 873.36 584.91 865.35 584.91 865.35 592.93"/><path class="cls-1" d="M849.32,584.91v-8h-16l8,8Z" transform="translate(0 0)"/><rect class="cls-1" x="825.29" y="568.89" width="8.01" height="8.01"/><path class="cls-1" d="M817.27,592.92v-24h-8v8h-8Z" transform="translate(0 0)"/><polygon class="cls-1" points="801.25 576.9 793.24 584.91 801.25 584.91 801.25 576.9"/><polygon class="cls-1" points="801.25 592.93 793.24 584.91 793.24 592.93 801.25 592.93"/><path class="cls-1" d="M785.22,312.49h24l-8-8h-32l8,8Z" transform="translate(0 0)"/><path class="cls-1" d="M777.21,40.06h16l8,8-8,8h-64.1l8,8h80.12l-8-8,8-8v-8h8l8,8,8-8h16l8-8,16,16h48.08l-8-8,8-8h16l8-8-16-16V0h-8l-8,8,8,8-8,8h-8v8l-8,8h-16l-16-16h-16l-8,8H817.27l-8,8-16-16-8,8-8-8h-16Z" transform="translate(0 0)"/><path class="cls-1" d="M737.15,336.52h-8v24l8-8v8h-8v8h16v-8h16l-16-16v-8Z" transform="translate(0 0)"/><path class="cls-1" d="M737.15,104.16h24l8-8H737.15l-8-8h-16l-8-8h-8v-8l-8-8-8,8h8v8l8,8v8h32v8Z" transform="translate(0 0)"/><polygon class="cls-1" points="729.14 408.64 729.14 416.65 737.15 416.65 737.15 408.64 745.16 408.64 737.15 400.63 729.14 400.63 729.14 408.64"/><path class="cls-1" d="M721.12,456.71v16h56.09l-8-8h-16l-8-8Z" transform="translate(0 0)"/><path class="cls-1" d="M697.09,40.06l-8,8h16l8,8h16l-16-16,8-8h16l8,8,16-16-8-8,8-8-8-8H705.1V16l8,8h-8V16h-8v8h-16Zm40.06-24h-8V8Z" transform="translate(0 0)"/><path class="cls-1" d="M681.06,152.24l8,8-8,8,8,8h16l8,8v-16l16,16,32.05-32h16l8,8-8,8,8,8,56.09-56.08v-16l-16,16-32-32h-8V128.2l-16,16H705.1l-8-8H665Zm120.19-40.07v8h-8Zm0,16,8,8-8,8-8-8Z" transform="translate(0 0)"/><polygon class="cls-1" points="673.05 464.73 665.04 464.73 665.04 472.74 673.05 464.73"/><path class="cls-1" d="M649,440.69l8,8,8-8Z" transform="translate(0 0)"/><path class="cls-1" d="M625,264.41h-24l-8,8h16l8,8h16v-16Z" transform="translate(0 0)"/><path class="cls-1" d="M617,424.66l8,8,8-8v-16h-32Z" transform="translate(0 0)"/><polygon class="cls-1" points="592.92 408.64 584.91 408.64 592.92 416.65 600.94 408.64 592.92 408.64"/><path class="cls-1" d="M592.92,432.67l16-16h-16l-8,8Z" transform="translate(0 0)"/><polygon class="cls-1" points="592.92 528.83 584.91 520.81 584.91 528.83 592.92 528.83"/><path class="cls-1" d="M544.85,544.85v-8h8l16-16h16l-8-8v-16h-16v-16h16l24,24v16l8-8v-16l24-24V440.69l-24,24-48.07-48.07,8-8h-16l-8,8,24,24h-16l-16-16-8,8H496.77l-8-8-16,16-24-24h-16c4-4,12-12,16-16H416.65l8-8H392.61l16,16v16h24v8l16,16h48.07v-8h40.07l16,16-16,16h-16l16,16h-16l-16,16,8,8v8h8l16,16v16l8,8Zm16-40.06v16h-8l8-8h-16l8-8Zm48.07-24-8,8-8-8,8-8Zm-80.12,16v8h-8Z" transform="translate(0 0)"/><polygon class="cls-1" points="504.79 496.78 512.8 496.78 504.79 488.76 504.79 496.78"/><path class="cls-1" d="M504.79,584.91l16-16h-32v16Z" transform="translate(0 0)"/><path class="cls-1" d="M464.72,8h8l8,8,8-8V24h8v8l24-24,8,8h16l8-8h16l8-8H504.79V8l-8-8H448.7l8,8Z" transform="translate(0 0)"/><path class="cls-1" d="M448.7,96.15l16,16v8h8l8,8v-8h8l8-8v-16l8-8h16l8,8v-16H448.7l8,8v8Z" transform="translate(0 0)"/><path class="cls-1" d="M416.65,633v8l8-8h16l8-8,8,8v16h8v-8l8-8h16l16,16h16l8,8v8h8l8,8v-8h8v-64.1l16,16,8-8,8,8h16l8-8,16,16v32l8-8h8v-8l8-8v-8h24l8,8h8v8h16l8,8,8-8,16,16v8h8l8,8v16h-16v8h8v16l-8,8v16h-16l8,8h16l8-8,8,8h-16l8,8v8h-8l-8,8h-8v8l8,8,16-16h8v-8h24V592.92l8-8-8-8v-16h-8v-8l-8,8H737.15l-8-8v8h-24v8h-8l8-8h-16l-8-8v8H657l16,16v16l-8,8H641v-8l-8,8H617l-8-8,32-32H625v8H609v8l-8,8h-16l8,8h-8v-8h-24v-8l-8,8-8-8v-16l-8,8v24h-8l8,8-8,8H496.77l-8-8h-8v-8l-8,8v-8h-24l-8-8,8-8h-16l-8-8v-16l32-32.05h-16l8-8-8-8h-16l-8-8h-16l-8,8h-16l8,8h16l8-8,16,16h8v8l-16,16h-16l-8-8v16l-8,8h-24v8L400.62,609v16h8v8Zm272.42-8,8-8,8,8-8,8Zm40.07,8V617l8-8h-16l-8-8v-16l8-8h8v8l8,8v16l24-24,8,8V641h-8v-8l-8,8h-16Zm40.06,80.12h-8l8-8Zm-24-136.21h-8l8-8Zm-64.1-8,8,8h-8ZM432.67,625l-8-8,8-8,8,8Zm80.13,0v8h-8Zm8,16v-8l8,8Zm24-32v8h-8Zm-128.2-24h-8l8-8Zm-8-16h-8v-8Z" transform="translate(0 0)"/><path class="cls-1" d="M392.61,384.6v-8h-16v16h16l8-8Z" transform="translate(0 0)"/><path class="cls-1" d="M344.54,576.9h8l-8-8h-16l8,8Z" transform="translate(0 0)"/><path class="cls-1" d="M328.51,248.39H280.44l-8,8h-16l-16-16,16-16h16v-8h8l16-16h-16l-16-16,8-8h8v-8l-16-16h-16l-16,16-8-8-8,8H184.29l-8,8H144.22l8,8H120.19l24,24v16l-24,24h16l16,16,8-8h16l8-8h16v8h8c10,10,22,22,32,32.05l8-8v16l16-16-8-8,8-8,8,8-8,8,32,32.05,16-16h16l16-16h16v-8h48.08v8l8,8v16c-4,4-12,12-16,16h16l-8,8H448.7v8l-8,8h32.05l-16,16h16l16,16,8-8,8,8h64.1l8-8,8,8h16v-16l8-8-8-8h16l16,16v-24h-8l-16-16h-8v-8l8,8,8-8h-8v-8l8-8h-16l-16,16,16,16-16,16,8,8h-8v-8h-8v8l-16,16h-32l-40.07-40.07,16-16h32.05l8-8h16l-24-24,24-24-8-8,8-8h16v-16l8-8h16l8,8v-16l8,8,8-8h16v-8h24v-16l-24-24,24-24-16-16H633l-16-16c21.06-21,43-43,64.1-64.1H665l-8,8H576.9l-16,16,16,16v16h16l8,8v8h8v16l8,8v16l8,8-8,8,16,16-16,16h-16l-8,8h-24v8l-8,8h-32l-8-8-8,8h-16l-8-8h-16l-16-16-8,8h-16l-8,8h-16l-8-8-8,8h-16l8,8-16,16h-16l8,8-8,8-8-8,8-8h-16Zm-104.16-64.1h8l8,8v16l-16,16h-16v-8h-8l-8-8,24-24ZM641,72.11h-8l8-8Zm-32-8h-8v-8ZM649,136.21l-8,8-8-8,8-8ZM328.51,288.45h-24l-8-8v-16h16l16,16Zm112.18-16v8l-16-16,8-8,8,8Zm40.06-32h-8v-8Zm24,120.18h-16l8-8Zm0-56.09h-24l-8,8H440.69l-8-8,16-16v-16h16l8-8,8,8v-16h24v8l16,16v16l-8,8Zm32.05-64.09h-8l8-8Zm-88.14-16h-8v-8Zm-48.08,16h-8v-8Z" transform="translate(0 0)"/><path class="cls-1" d="M328.51,504.79H296.46l-8-8h-16l24,24,8-8v8h-8l8,8h16l8-8h-8v-8Z" transform="translate(0 0)"/><path class="cls-1" d="M304.47,16l8,8,16-16h8V0H288.45Z" transform="translate(0 0)"/><path class="cls-1" d="M304.47,560.88h16l8-8H296.46l-8-8v16Z" transform="translate(0 0)"/><path class="cls-1" d="M288.45,0h-16V16Z" transform="translate(0 0)"/><path class="cls-1" d="M280.44,609h8v24h16v8h-16v80.12l16,16h8v8l16,16V729.14l16-16h8v-24l16-16h8V641h-8l-8-8h-16l8-8-16-16,8-8h-8v-8l-8,8h-16l-8-8v8H264.41l8,8Zm24,16h16v8h-8Zm8,16h8v8h-8Zm32.05,16v8l-8-8Zm-16,16h-8v-8h16v8Zm-24-16,8,8-8,8-8-8Zm-8,24,8,8h16v8h-8l-8-8h-8Zm0,24h8v8h-8Zm16,24h-8v-8h16Zm8-16h-8v-8h16v8Zm16-16h-8v-8h8l8,8Zm16-16h-8v-8h8Zm16-16h-16v-8h16Zm-24-24v8h-16v-8Zm-8-16h-8v-8Zm-24-16h8v8h-16v-8Z" transform="translate(0 0)"/><polygon class="cls-1" points="256.4 320.5 248.39 328.51 256.4 328.51 256.4 320.5"/><path class="cls-1" d="M248.39,344.54v-8h-16v8Z" transform="translate(0 0)"/><path class="cls-1" d="M248.39,552.86l8-8-8-8-16,16Z" transform="translate(0 0)"/><path class="cls-1" d="M232.36,328.51h16l-8-8Z" transform="translate(0 0)"/><path class="cls-1" d="M240.38,304.47h-16l-8,8h16Z" transform="translate(0 0)"/><path class="cls-1" d="M208.33,544.85l8,8,8-8Z" transform="translate(0 0)"/><rect class="cls-1" x="192.3" y="336.53" width="8.01" height="8.01"/><path class="cls-1" d="M192.3,544.85v-16h32l-8-8v-16l-8,8-24-24v-16h-8v-8l-8,8,8,8h-16l8-8h-16l-8-8h-8v-8l-8,8h-16l8,8-8,8h-8v8l8,8h16l8,8v8h16v16h8l8,8-8,8,16,16h16Zm0-32.05h-8v-8Zm-64.1-24h-8l8-8h16v8Zm40.06,16v8h-8Z" transform="translate(0 0)"/><polygon class="cls-1" points="192.3 328.51 184.29 328.51 192.3 336.53 192.3 328.51"/><path class="cls-1" d="M184.29,312.49h8v-8h16l-8-8h-16l-8,8H144.22v8h16v8h16l8,8Z" transform="translate(0 0)"/><path class="cls-1" d="M160.25,609l-8-8h-8v-8l-8,8,24,24Z" transform="translate(0 0)"/><polygon class="cls-1" points="40.06 584.91 40.06 592.93 48.08 592.93 40.06 584.91"/><path class="cls-1" d="M24,72.11h16l-8-8Z" transform="translate(0 0)"/><path class="cls-1" d="M24,416.65H56.09v-8h8v-8h-16l-8,8H8l-8,8v8H24Z" transform="translate(0 0)"/><path class="cls-1" d="M24,24l16,16,16-16,8,8-16,16,16,16v8h8l40.06,40.06,8-8h32.05l8-8v8h8l24,24v-24h8l8-8h16l-16-16v-32h32v-8h32V16h-8v8H232.36l-16,16H184.29l-16-16-8,8h-16l-8-8h-16v16l-8,8h-16l-8-8,16-16h16l-8-8h-16l8-8h-16l-8,8h-16l-8-8V0H16L8,8Zm88.13,56.08v8h-8Zm32.05,0h-16v-8h8Zm-16,16,8-8v8Zm32.05-8v-8l16-16h16v16l-8,8Zm40.06-32h-8v-8Zm-24-16v8l-8,8v-16Zm-40.06,0h16l8,8-16,16h-16v-16Zm-24,24-8,8-8-8,8-8ZM80.12,24h8l-8,8-8-8ZM32.05,8h8l8,8H24V8Z" transform="translate(0 0)"/><path class="cls-1" d="M16,152.24v-8h16l-8-8H0v24l8-8Z" transform="translate(0 0)"/><path class="cls-1" d="M16,96.15h16l16,16v16l8-8h16l8,8,8-8L48.08,80.12H16l-8-8,16-16-24-24v64.1l8,8Zm40.07,8h-8v-8Z" transform="translate(0 0)"/><path class="cls-1" d="M16,272.42h16l-16-16H48.08l8-8H8l-8,8v16Z" transform="translate(0 0)"/><g id="Export"><line id="Export-2" data-name="Export" class="cls-2" x2="1282"/><line id="Export-3" data-name="Export" class="cls-2" x1="1282" y1="1282" y2="1282"/></g></g></g></svg>