<svg xmlns="http://www.w3.org/2000/svg" viewBox="0 0 1282 1282"><defs><style>.cls-1{fill:#616748;}.cls-2{fill:none;}</style></defs><g id="Layer_2" data-name="Layer 2"><g id="Layer_1-2" data-name="Layer 1"><polygon class="cls-1" points="1257.96 1225.91 1257.96 1217.9 1249.95 1217.9 1257.96 1225.91"/><polygon class="cls-1" points="1257.96 1081.69 1249.95 1089.7 1257.96 1089.7 1257.96 1081.69"/><path class="cls-1" d="M1250,1145.79h-8l-8-8h-8v8h-8v-8h-8v-24h16v-16l-24-24v32l8-8,8,8h-16v40.07h-56.08v-32h-16l-8,8-16-16v-16l-8,8h-8v8l-8,8v16l16,16-8,8,8,8-8,8v16l8-8h8v-24h32v16l8,8v-24h72.11v48.08h8V1153.8h8l16,16,8-8v-8h8l-8-8Z" transform="translate(0 0)"/><polygon class="cls-1" points="1241.94 1097.71 1241.94 1105.73 1249.95 1105.73 1241.94 1097.71"/><path class="cls-1" d="M1201.87,1233.92v-16l-8,8h-80.12l8,8h48.07l8,8h8v-8l8,8h24v-8Z" transform="translate(0 0)"/><polygon class="cls-1" points="1201.88 1201.88 1209.89 1209.89 1209.89 1201.88 1201.88 1201.88"/><path class="cls-1" d="M1209.89,825.29l8-8h-16Z" transform="translate(0 0)"/><polygon class="cls-1" points="1209.89 705.1 1209.89 697.09 1201.88 705.1 1209.89 705.1"/><polygon class="cls-1" points="1201.88 1209.89 1201.88 1217.9 1209.89 1209.89 1201.88 1209.89"/><path class="cls-1" d="M1177.84,793.24h-16l16,16h16l8-8v-16l-8,8Z" transform="translate(0 0)"/><polygon class="cls-1" points="1169.83 1257.96 1177.84 1257.96 1169.83 1249.95 1169.83 1257.96"/><polygon class="cls-1" points="1169.83 1273.99 1177.84 1273.99 1169.83 1265.98 1169.83 1273.99"/><path class="cls-1" d="M1153.8,1209.89v-24h-8v24l8,8Z" transform="translate(0 0)"/><polygon class="cls-1" points="1145.79 1249.95 1153.8 1249.95 1145.79 1241.94 1145.79 1249.95"/><polygon class="cls-1" points="1145.79 713.11 1137.78 721.13 1145.79 721.13 1145.79 713.11"/><path class="cls-1" d="M1129.76,1258h-16l8,8h16l8-8-8-8Z" transform="translate(0 0)"/><path class="cls-1" d="M1129.76,1097.71l8,8h8v-8Z" transform="translate(0 0)"/><polygon class="cls-1" points="1121.75 1081.69 1121.75 1073.68 1113.74 1081.69 1121.75 1081.69"/><polygon class="cls-1" points="1105.72 1217.9 1113.74 1225.91 1113.74 1217.9 1105.72 1217.9"/><path class="cls-1" d="M1105.72,849.32h16l16,16,8-8-8-8v-16l-8-8v16h-32Z" transform="translate(0 0)"/><path class="cls-1" d="M1089.7,985.54h8v-16l-8-8v16h-24v8Z" transform="translate(0 0)"/><polygon class="cls-1" points="1065.66 801.25 1073.67 801.25 1065.66 793.24 1065.66 801.25"/><path class="cls-1" d="M1041.62,689.07h-16l8,8Z" transform="translate(0 0)"/><path class="cls-1" d="M1017.59,673.05H977.52l8,8h32.05l8-8Z" transform="translate(0 0)"/><path class="cls-1" d="M993.55,697.09h-8l8,8h16v-8Z" transform="translate(0 0)"/><polygon class="cls-1" points="985.54 729.14 993.55 721.13 985.54 721.13 985.54 729.14"/><path class="cls-1" d="M977.52,1185.85H921.44v8h64.1l8-8Z" transform="translate(0 0)"/><polygon class="cls-1" points="977.52 841.31 985.54 841.31 985.54 833.3 977.52 833.3 969.51 841.31 977.52 841.31"/><path class="cls-1" d="M969.51,681.06v8h-8v8h24Z" transform="translate(0 0)"/><path class="cls-1" d="M969.51,817.27h-8l-8,8h16l8-8-8-8Z" transform="translate(0 0)"/><path class="cls-1" d="M953.49,649h-16l8,8Z" transform="translate(0 0)"/><path class="cls-1" d="M937.46,809.26v-16l8-8h-24v8h8v8Z" transform="translate(0 0)"/><path class="cls-1" d="M921.44,1209.89l8,8,8-8Z" transform="translate(0 0)"/><polygon class="cls-1" points="929.45 977.53 921.44 985.54 929.45 985.54 929.45 977.53"/><path class="cls-1" d="M897.4,1266l8,8h8v-8Z" transform="translate(0 0)"/><path class="cls-1" d="M897.4,1137.77v8h-32v-8l-8,8h-16v-8h-24l8,8h-16l-8,8,8,8h-16l8-8h-16l-8,8,8,8h-16l8,8h16l8,8h-16l8,8h-16l8-8H753.17l16,16h-16l8-8h-16v-16l-8,8h-32l8-8h-16l-8,8,8,8H665v8h8l-8,8,16,16v-24h8l-8,8h56.09v8h8v8h16l24-24v8h8l8-8v-8h8v-16l8-8h16v-8h24l16,16h8v8l8-8v16h24v-32h-8l8-8v-8h-8Zm-168.26,64.11h-24l8-8h16l8,8Zm160.25-32.06h-8v-8h8l8,8Z" transform="translate(0 0)"/><polygon class="cls-1" points="889.39 1209.89 889.39 1217.9 897.4 1217.9 889.39 1209.89"/><polygon class="cls-1" points="881.38 1241.94 889.39 1241.94 881.38 1233.93 881.38 1241.94"/><polygon class="cls-1" points="865.35 649.01 873.36 649.01 865.35 641 865.35 649.01"/><path class="cls-1" d="M857.34,937.46l8,8,8-8Z" transform="translate(0 0)"/><path class="cls-1" d="M849.32,1250l8,8,8-8Z" transform="translate(0 0)"/><path class="cls-1" d="M857.34,1209.89l-8-8v8h-24l8,8h16Z" transform="translate(0 0)"/><path class="cls-1" d="M849.32,785.22h8v-8h16v-8h48.08v-8H793.24l24,24h16l8-8v8Z" transform="translate(0 0)"/><path class="cls-1" d="M841.31,993.55v-8l-8-8h-16l16,16Z" transform="translate(0 0)"/><path class="cls-1" d="M833.3,961.5v8h16v-8Z" transform="translate(0 0)"/><path class="cls-1" d="M833.3,897.4l-8-8h-16l24,24,8-8Z" transform="translate(0 0)"/><polygon class="cls-1" points="825.29 1009.58 833.3 1009.58 825.29 1001.56 825.29 1009.58"/><path class="cls-1" d="M809.26,1209.89l8,8h8v-8Z" transform="translate(0 0)"/><path class="cls-1" d="M809.26,1065.66l-8,8v32l16-16-8-8,8-8Z" transform="translate(0 0)"/><polygon class="cls-1" points="809.26 1233.93 817.27 1233.93 809.26 1225.91 809.26 1233.93"/><path class="cls-1" d="M809.26,985.54l-8-8v8h-32v8h16l24,24h8v-8l-16-16h8Z" transform="translate(0 0)"/><path class="cls-1" d="M801.25,897.4l8,8,8-8Z" transform="translate(0 0)"/><polygon class="cls-1" points="801.25 1225.91 801.25 1217.9 793.24 1225.91 801.25 1225.91"/><path class="cls-1" d="M793.24,905.41l-8-8-8,8h-16l8,8h-16l8-8h-16v16h16l8,8,8-8h16l-8-8Z" transform="translate(0 0)"/><polygon class="cls-1" points="777.21 1233.93 785.23 1233.93 777.21 1225.91 777.21 1233.93"/><polygon class="cls-1" points="777.21 1249.95 777.21 1241.94 769.2 1249.95 777.21 1249.95"/><polygon class="cls-1" points="769.2 1177.84 761.19 1177.84 769.2 1185.85 777.21 1177.84 769.2 1177.84"/><polygon class="cls-1" points="769.2 713.11 769.2 705.1 761.19 713.11 769.2 713.11"/><path class="cls-1" d="M769.2,897.4h-16l8,8Z" transform="translate(0 0)"/><polygon class="cls-1" points="761.19 1169.83 753.17 1169.83 761.19 1177.84 769.2 1169.83 761.19 1169.83"/><path class="cls-1" d="M753.17,953.49h-8l16,16h8v-8l-8-8Z" transform="translate(0 0)"/><polygon class="cls-1" points="753.17 1257.96 761.19 1257.96 753.17 1249.95 753.17 1257.96"/><path class="cls-1" d="M745.16,897.4h-8l8-8h-16l8-8-16-16h-32l8-8h-16v16H665v8h24l8,8-8,8h32l8,8h16l8-8Zm-32-24,8,8h-16Z" transform="translate(0 0)"/><path class="cls-1" d="M745.16,1266h-8v8h16v-8l-8-8Z" transform="translate(0 0)"/><polygon class="cls-1" points="745.16 1249.95 745.16 1241.94 737.15 1249.95 745.16 1249.95"/><path class="cls-1" d="M737.15,977.52h-16l8,8Z" transform="translate(0 0)"/><rect class="cls-1" x="729.14" y="1225.91" width="8.01" height="8.01"/><path class="cls-1" d="M721.12,1266H657v8h56.09l8,8h16l-8-8,8-8Z" transform="translate(0 0)"/><path class="cls-1" d="M729.14,1177.84l8,8v-16h-16l-8,8,8,8Z" transform="translate(0 0)"/><path class="cls-1" d="M713.11,785.22h8l8-8v-8h8l8-8h8v-8l-8-8h-16l-8-8h-8v8h-16l-8,8,8,8,8-8,8,8H681.06l16,16-8,8v-16l-8,8H665l16,16h16l8-8Zm8-32.05,8,8h-8Zm-16,16,8,8h-8Z" transform="translate(0 0)"/><path class="cls-1" d="M697.09,1049.64l8,8h16l-8-8Z" transform="translate(0 0)"/><path class="cls-1" d="M705.1,953.49v-16h-8v16l8,8Z" transform="translate(0 0)"/><polygon class="cls-1" points="689.08 1257.96 681.06 1257.96 689.08 1265.98 697.09 1257.96 689.08 1257.96"/><path class="cls-1" d="M697.09,1017.59l8,8h48.07c4-4,12-12,16-16h-8v-8l-8,8v8H713.11l8-8h16l8-8v-16l-8,8v8h-24l-8,8h-16v8Z" transform="translate(0 0)"/><path class="cls-1" d="M681.06,1049.64l8,8,8-8Z" transform="translate(0 0)"/><path class="cls-1" d="M689.07,993.55l-8-8H665l24,24Z" transform="translate(0 0)"/><path class="cls-1" d="M689.07,1009.57h-16l8,8Z" transform="translate(0 0)"/><path class="cls-1" d="M681.06,1049.64l8-8h16l8,8v-8h24l8-8H665Z" transform="translate(0 0)"/><polygon class="cls-1" points="673.05 961.5 673.05 969.51 681.06 969.51 673.05 961.5"/><path class="cls-1" d="M665,745.16v16l16-16v-8h-8Z" transform="translate(0 0)"/><polygon class="cls-1" points="665.04 1185.85 665.04 1193.86 673.05 1185.85 665.04 1185.85"/><path class="cls-1" d="M665,1241.94h16l8-8H657v8h-8l8-8v-8h-8v-8H609l8,8h-8v-8h-16l-8,8H544.85v-8l-16-16-8,8v16l8-8,16,16h16l8,8,8-8h16l8-8,8,8v8h24l8,8v8h8Zm-32-8h-8l8-8,8,8Z" transform="translate(0 0)"/><path class="cls-1" d="M649,761.19v8h-8v16h8v-8h16Z" transform="translate(0 0)"/><path class="cls-1" d="M649,1017.59l8-8h16l-8-8H649v8h-8Z" transform="translate(0 0)"/><path class="cls-1" d="M649,961.5v-24l-8-8v48.07l8-8Z" transform="translate(0 0)"/><path class="cls-1" d="M649,1209.89v-24H625l8,8h-8v8l16,16Z" transform="translate(0 0)"/><path class="cls-1" d="M641,761.19h8v-16l-8,8h-8v-8l-8,8h-8v8l8,8,8-8Z" transform="translate(0 0)"/><path class="cls-1" d="M641,769.2H625l8,8Z" transform="translate(0 0)"/><path class="cls-1" d="M633,1033.61l-8-8-8,8h-16l-8,8h-16l8,8-8,8h-32l16,16h32l16-16-8-8h16l8-8v8h24l8,8,8-8v-16H649l8,8H641Z" transform="translate(0 0)"/><path class="cls-1" d="M625,1266h-24v-8h-16v8h-24l8,8h32.05l8,8h16l-8-8h24v-8Z" transform="translate(0 0)"/><path class="cls-1" d="M625,777.21h-8l8,8H609l16-16h-24v8l-8,8h8v8l8,8,8-8h16l8-8-8-8Z" transform="translate(0 0)"/><polygon class="cls-1" points="624.98 1209.89 616.96 1209.89 624.98 1217.9 632.99 1209.89 624.98 1209.89"/><path class="cls-1" d="M609,953.49v-8h-8v24l8-8Z" transform="translate(0 0)"/><path class="cls-1" d="M600.94,761.19v-8h-8l-8-8v8h-8l8,8Z" transform="translate(0 0)"/><path class="cls-1" d="M600.94,777.21l-8-8h-16l8,8v8h8v-8Z" transform="translate(0 0)"/><path class="cls-1" d="M576.9,761.19h-8l-8,8-8-8h-16l-8-8-8,8h8v8l16,16,8-8h-8v-8l8,8h16l16-16Z" transform="translate(0 0)"/><path class="cls-1" d="M568.89,1089.7h-24l8,8h16Z" transform="translate(0 0)"/><path class="cls-1" d="M552.86,1113.74l8,8,8-8Z" transform="translate(0 0)"/><path class="cls-1" d="M560.88,1001.56h24l8,8h-16v8h8l8,8,8-8v-8h8l8-8h16l-16-16v8H576.9l-8-8v8h-8l-8,8Z" transform="translate(0 0)"/><polygon class="cls-1" points="552.86 1249.95 552.86 1241.94 544.85 1249.95 552.86 1249.95"/><path class="cls-1" d="M536.84,985.54l8,8h16v-8Z" transform="translate(0 0)"/><path class="cls-1" d="M536.84,761.19l8-8v-8h-24l-8-8h-8v-8l-8,8,16,16h24Z" transform="translate(0 0)"/><polygon class="cls-1" points="536.84 1057.65 544.85 1057.65 536.84 1049.64 536.84 1057.65"/><path class="cls-1" d="M536.84,1025.6h16v-8l8-8h-32l8,8-8,8Z" transform="translate(0 0)"/><path class="cls-1" d="M528.83,889.39h-8l16,16h8v-8l-8-8Z" transform="translate(0 0)"/><polygon class="cls-1" points="512.8 1273.99 512.8 1265.98 504.79 1273.99 512.8 1273.99"/><path class="cls-1" d="M504.79,1225.91l8,8,8-8Z" transform="translate(0 0)"/><polygon class="cls-1" points="504.79 1137.78 512.8 1137.78 504.79 1129.76 504.79 1137.78"/><polygon class="cls-1" points="504.79 873.36 496.77 881.38 504.79 881.38 504.79 873.36"/><path class="cls-1" d="M496.77,753.17l8,8,8-8Z" transform="translate(0 0)"/><polygon class="cls-1" points="496.77 1209.89 488.76 1209.89 496.77 1217.9 504.79 1209.89 496.77 1209.89"/><path class="cls-1" d="M496.77,1097.71v-8l8-8h-16l-8-8v24h8l8,8Z" transform="translate(0 0)"/><path class="cls-1" d="M488.76,929.45h-8l16,16h24v-24l-8,8Z" transform="translate(0 0)"/><polygon class="cls-1" points="488.76 1137.78 496.77 1137.78 488.76 1129.76 488.76 1137.78"/><path class="cls-1" d="M496.77,1185.85v-8h8v-8H464.72l16,16Z" transform="translate(0 0)"/><path class="cls-1" d="M480.75,753.17l-8,8h16l8-8-8-8Z" transform="translate(0 0)"/><polygon class="cls-1" points="480.75 953.49 480.75 945.48 472.74 953.49 480.75 953.49"/><path class="cls-1" d="M472.74,873.36l8,8h-16l-8,8,8,8h8v-8h16v-16Z" transform="translate(0 0)"/><polygon class="cls-1" points="472.74 1105.73 472.74 1113.74 480.75 1105.73 472.74 1105.73"/><path class="cls-1" d="M480.75,753.17v-8h-8l8-8-8-8v8h-8v16l-8,8v8h-16v8l32.05,32h-8v-8h-16l8-8H408.64l16,16v-8h8l-8,8H392.61l-8,8h16v16l8-8h8v-8l8,8,8-8h16l-8-8h16l8,8h16v-8h8l-16-16v-16l-8-8,8-8v-8Zm-16,32.05h-8v-8Z" transform="translate(0 0)"/><polygon class="cls-1" points="472.74 1265.98 480.75 1265.98 472.74 1257.96 472.74 1265.98"/><path class="cls-1" d="M472.74,1129.76l8-8h16l8-8,8,8,8-8,8,8h-16l32.05,32-16,16,8,8h8v8l16-16,16,16,16-16-16-16,16-16h-8v-8l-8-8-16,16-40.07-40.06-8,8h-24v-8l-8,8,8,8h-16l-8-8h-16Z" transform="translate(0 0)"/><polygon class="cls-1" points="472.74 929.45 472.74 921.44 464.73 929.45 472.74 929.45"/><polygon class="cls-1" points="464.73 1257.96 464.73 1249.95 456.71 1257.96 464.73 1257.96"/><polygon class="cls-1" points="464.73 1233.93 456.71 1225.91 456.71 1233.93 464.73 1233.93"/><path class="cls-1" d="M456.71,1169.82v-8l-8,8v32.06l-8,8,8,8h-16l8,8H392.61l8,8h-32l8,8h-16l8,8h-16l8-8h-16v8h-8l8,8h32v-8h8l8-8h16v-8h8l-8,8h16l8,8,32.05-32v-32.05l-8-8Z" transform="translate(0 0)"/><polygon class="cls-1" points="448.7 1097.71 448.7 1105.73 456.71 1097.71 448.7 1097.71"/><polygon class="cls-1" points="448.7 913.43 448.7 921.44 456.71 921.44 448.7 913.43"/><polygon class="cls-1" points="440.69 1121.75 432.68 1121.75 440.69 1129.76 448.7 1121.75 440.69 1121.75"/><path class="cls-1" d="M416.65,1137.77h-16v8h40.07l8-8h24v-8h-8v-8h-8v-8l-8,8,8,8h-32l8,8Z" transform="translate(0 0)"/><polygon class="cls-1" points="416.65 1273.99 416.65 1265.98 408.64 1273.99 416.65 1273.99"/><polygon class="cls-1" points="408.64 801.25 400.63 801.25 408.64 809.26 416.65 801.25 408.64 801.25"/><polygon class="cls-1" points="408.64 1121.75 400.63 1121.75 408.64 1129.76 416.65 1121.75 408.64 1121.75"/><path class="cls-1" d="M408.64,785.22h8l8,8,8-8-8-8v-8h-8l-8,8h-16v16l8-8Z" transform="translate(0 0)"/><polygon class="cls-1" points="400.63 793.24 392.61 793.24 392.61 801.25 400.63 801.25 408.64 793.24 400.63 793.24"/><path class="cls-1" d="M400.62,1129.76h-8l-8,8h-16l8,8-8,8h16l24-24Z" transform="translate(0 0)"/><path class="cls-1" d="M400.62,945.47l-8,8,8,8h16Z" transform="translate(0 0)"/><polygon class="cls-1" points="400.63 1161.81 408.64 1161.81 400.63 1153.8 400.63 1161.81"/><polygon class="cls-1" points="400.63 1257.96 400.63 1249.95 392.61 1257.96 400.63 1257.96"/><polygon class="cls-1" points="392.61 1001.56 384.6 1009.58 392.61 1009.58 392.61 1001.56"/><path class="cls-1" d="M392.61,937.46H360.56l-8,8,8,8,8-8,8,8h16l-8-8Z" transform="translate(0 0)"/><path class="cls-1" d="M376.59,1081.69l8,8,8-8Z" transform="translate(0 0)"/><polygon class="cls-1" points="376.59 1025.6 384.6 1025.6 376.59 1017.59 376.59 1025.6"/><path class="cls-1" d="M368.58,993.55h-16l8,8h16l8-8Z" transform="translate(0 0)"/><path class="cls-1" d="M368.58,809.26h-8l8-8h-16l8-8,8,8,8-8v-16h-16l-8-8h-16l-16-16v8h-8v-8h8l-8-8h-16v-8h8l-16-16v24H216.34l16,16-16,16H184.29l16,16h16l24-24,8,8h8v8h16v8h-8l8,8,8-8h8v-8l8,8h16l8,8h16l16,16H384.6l-8-8Zm-72.12-56.09h8l-8,8h-8v-8Zm-32,16v-8h8v8Zm-24-8v-8h16v8Zm48.07,16h-8v-8h16v8Zm48.07,16h-8l8-8h16l-8,8Z" transform="translate(0 0)"/><path class="cls-1" d="M376.59,1225.91h-16l-8,8,8,8Z" transform="translate(0 0)"/><polygon class="cls-1" points="352.55 1017.59 360.56 1017.59 352.55 1009.58 352.55 1017.59"/><path class="cls-1" d="M336.52,937.46h-24l8,8h32.05l-8-8Z" transform="translate(0 0)"/><path class="cls-1" d="M336.52,1233.92v16l8-8Z" transform="translate(0 0)"/><path class="cls-1" d="M328.51,1258l8-8-8-8-8,8v16h16l8-8Z" transform="translate(0 0)"/><polygon class="cls-1" points="336.52 817.28 328.51 825.29 336.52 825.29 336.52 817.28"/><path class="cls-1" d="M320.5,1113.74h8l-8,8h16v-8h8l-8,8h16l16-16-8-8,24-24,8,8h16l-8-8v-8H360.56l8,8h-8v8l-8,8h-16l-8,8h-16l8,8h-16l16,16Zm24-16,8,8h-16Z" transform="translate(0 0)"/><polygon class="cls-1" points="312.49 809.26 312.49 817.28 320.5 817.28 312.49 809.26"/><path class="cls-1" d="M312.49,1258l8-8h-16v16h-16v8h8l8,8h16v-16h-8Z" transform="translate(0 0)"/><path class="cls-1" d="M304.47,1233.92l8,8,8-8Z" transform="translate(0 0)"/><path class="cls-1" d="M312.49,665h-16l8,8Z" transform="translate(0 0)"/><polygon class="cls-1" points="296.46 689.08 304.48 689.08 296.46 681.06 296.46 689.08"/><polygon class="cls-1" points="296.46 825.29 296.46 833.3 304.48 833.3 296.46 825.29"/><path class="cls-1" d="M296.46,1169.82h8v-16H248.39v-8l-8-8H176.27l8,8-8,8h-16v8h24l16-16h32.05l16,16h32.05l8,8Z" transform="translate(0 0)"/><path class="cls-1" d="M296.46,1129.76l8-8-8-8h-16Z" transform="translate(0 0)"/><path class="cls-1" d="M288.45,937.46h-24l8,8h32.05v-8Z" transform="translate(0 0)"/><polygon class="cls-1" points="272.43 969.51 272.43 961.5 264.41 969.51 272.43 969.51"/><path class="cls-1" d="M264.41,1113.74l8,8,16-16H248.39v8Z" transform="translate(0 0)"/><path class="cls-1" d="M248.39,953.49l8,8,8-8Z" transform="translate(0 0)"/><path class="cls-1" d="M248.39,945.47h8v-8H192.3v8Z" transform="translate(0 0)"/><polygon class="cls-1" points="232.36 985.54 232.36 993.55 240.38 993.55 232.36 985.54"/><polygon class="cls-1" points="232.36 969.51 224.35 977.53 232.36 977.53 232.36 969.51"/><polygon class="cls-1" points="232.36 825.29 224.35 833.3 232.36 833.3 232.36 825.29"/><polygon class="cls-1" points="224.35 1049.64 224.35 1041.63 216.34 1049.64 224.35 1049.64"/><polygon class="cls-1" points="216.34 841.31 208.32 833.3 208.32 841.31 200.31 841.31 200.31 849.33 208.32 849.33 216.34 841.31"/><path class="cls-1" d="M208.33,1137.77l8-8v-8h-24l-8,8,8,8,8-8Z" transform="translate(0 0)"/><path class="cls-1" d="M200.31,1266h-8l8,8h-16l-8,8h32.06l8-8v-8Z" transform="translate(0 0)"/><path class="cls-1" d="M200.31,921.44v-16l-8-8v24h-8v8h8Z" transform="translate(0 0)"/><polygon class="cls-1" points="192.3 713.11 200.31 713.11 192.3 705.1 192.3 713.11"/><polygon class="cls-1" points="192.3 1049.64 192.3 1041.63 184.29 1049.64 192.3 1049.64"/><path class="cls-1" d="M192.3,881.38l16-16-8-8-8,8v8h-8l-8,8v16Z" transform="translate(0 0)"/><path class="cls-1" d="M184.29,1250h8l8-8h-16l8-8H80.12l16,16Z" transform="translate(0 0)"/><path class="cls-1" d="M184.29,697.09l16-16H160.25v8l8,8Z" transform="translate(0 0)"/><polygon class="cls-1" points="176.28 721.13 176.28 729.14 184.29 729.14 176.28 721.13"/><polygon class="cls-1" points="176.28 801.25 176.28 809.26 184.29 809.26 176.28 801.25"/><polygon class="cls-1" points="176.28 825.29 184.29 825.29 176.28 817.28 176.28 825.29"/><polygon class="cls-1" points="176.28 1065.66 176.28 1057.65 168.26 1065.66 176.28 1065.66"/><path class="cls-1" d="M176.27,953.49H136.21l8,8h32.05Z" transform="translate(0 0)"/><path class="cls-1" d="M168.26,913.42H128.2l8,8h32l8-8Z" transform="translate(0 0)"/><polygon class="cls-1" points="152.24 705.1 160.25 705.1 152.24 697.09 152.24 705.1"/><polygon class="cls-1" points="152.24 1265.98 152.24 1257.96 144.22 1265.98 152.24 1265.98"/><polygon class="cls-1" points="144.22 841.31 144.22 833.3 136.21 841.31 144.22 841.31"/><path class="cls-1" d="M136.21,1009.57h8l8-8H80.12v8Z" transform="translate(0 0)"/><polygon class="cls-1" points="128.2 1273.99 128.2 1265.98 120.19 1273.99 128.2 1273.99"/><polygon class="cls-1" points="128.2 1049.64 128.2 1041.63 120.19 1049.64 128.2 1049.64"/><path class="cls-1" d="M120.19,921.44l8,8,8-8Z" transform="translate(0 0)"/><path class="cls-1" d="M128.2,801.25h-16l8,8Z" transform="translate(0 0)"/><path class="cls-1" d="M120.19,913.42h-24l8,8h16l8-8Z" transform="translate(0 0)"/><polygon class="cls-1" points="120.19 689.08 120.19 681.06 112.17 689.08 120.19 689.08"/><path class="cls-1" d="M104.16,809.26v16l16-16Z" transform="translate(0 0)"/><path class="cls-1" d="M112.17,801.25l-8-8h-16l16,16Z" transform="translate(0 0)"/><path class="cls-1" d="M112.17,833.3l8,8h8v8l8,8v-24h8l8-8h-16l-8,8-8-8h-16v8Z" transform="translate(0 0)"/><polygon class="cls-1" points="104.16 1025.6 104.16 1017.59 96.15 1025.6 104.16 1025.6"/><path class="cls-1" d="M88.14,1274l8,8,8-8Z" transform="translate(0 0)"/><path class="cls-1" d="M88.14,801.25h-8l-8,8h16l8-8Z" transform="translate(0 0)"/><path class="cls-1" d="M88.14,857.34l8,8v-16h-8Z" transform="translate(0 0)"/><polygon class="cls-1" points="88.14 817.28 88.14 809.26 80.13 817.28 88.14 825.29 88.14 817.28"/><polygon class="cls-1" points="80.13 921.44 88.14 921.44 80.13 913.43 80.13 921.44"/><path class="cls-1" d="M80.12,1209.89v-16h-24l16,16h-16l-8,8v8h-8l8-8H24v8h8v8l8,8,8-8h16l8-8h-16l8-8,8,8,8-8Z" transform="translate(0 0)"/><path class="cls-1" d="M64.1,905.41v-8h24v-8h-32v16l-8,8v8h-8l-8,8H24v16h8l8-8v-8h8l-8,8h16l8,8v-16l-8-8,8-8Z" transform="translate(0 0)"/><path class="cls-1" d="M64.1,873.36v-8l-8,8h-16l8,8v8h8l8-8Z" transform="translate(0 0)"/><path class="cls-1" d="M56.09,825.29l-8,8h16l8,8,8-8h8v-8h-16l8-8h-16l-8-8Z" transform="translate(0 0)"/><polygon class="cls-1" points="56.09 793.24 48.08 801.25 48.08 809.26 56.09 809.26 64.1 801.25 56.09 793.24"/><polygon class="cls-1" points="40.06 1057.65 40.06 1065.66 48.08 1057.65 40.06 1057.65"/><path class="cls-1" d="M24,1113.74l16-16v-8h8l8-8v8h8l8-8h8v-24l-8-8h-8v-8l-8-8v-16h-8v32.05h8l8,8h-16v8h-8l-8,8,8,8h-8v-8H24v8H8v16l8,8h8Zm32.05-48.08,8,8h-16Zm-24,24v8H24Z" transform="translate(0 0)"/><rect class="cls-1" y="929.45" width="8.01" height="8.01"/><polygon class="cls-1" points="1105.72 600.94 1105.72 592.93 1097.71 600.94 1105.72 600.94"/><polygon class="cls-1" points="1097.71 568.89 1097.71 576.9 1105.72 576.9 1097.71 568.89"/><polygon class="cls-1" points="1089.7 560.88 1081.69 568.89 1089.7 568.89 1089.7 560.88"/><path class="cls-1" d="M1057.65,641l8,8-8,8-8-8h-32.05l16,16h8v-8l8,8h16l8-8h8v-8l8-8-24-24v8h-8l-8,8Z" transform="translate(0 0)"/><path class="cls-1" d="M1049.64,633l-8,8,8,8Z" transform="translate(0 0)"/><path class="cls-1" d="M1025.6,568.89h8v16h16l-8-8v-16h-16l-8,8Z" transform="translate(0 0)"/><path class="cls-1" d="M1017.59,552.86h-16l-8,8h16l8,8Z" transform="translate(0 0)"/><rect class="cls-1" x="1001.56" y="632.99" width="8.01" height="8.01"/><path class="cls-1" d="M985.54,633h-16l8,8h16l8-8Z" transform="translate(0 0)"/><polygon class="cls-1" points="985.54 608.95 985.54 600.94 977.52 608.95 985.54 608.95"/><path class="cls-1" d="M969.51,568.89l-16-16-16,16Z" transform="translate(0 0)"/><polygon class="cls-1" points="929.45 568.89 921.44 568.89 929.45 576.9 937.46 576.9 937.46 568.89 929.45 560.88 929.45 568.89"/><path class="cls-1" d="M921.44,617l8,8,8-8Z" transform="translate(0 0)"/><path class="cls-1" d="M921.44,592.92v8H889.39l8,8h32.05v-16l-8-8Z" transform="translate(0 0)"/><polygon class="cls-1" points="913.42 641 921.44 632.99 913.42 632.99 913.42 641"/><polygon class="cls-1" points="905.41 520.81 897.4 528.83 905.41 528.83 905.41 520.81"/><polygon class="cls-1" points="889.39 544.85 889.39 536.84 881.38 544.85 889.39 544.85"/><polygon class="cls-1" points="889.39 504.79 881.38 512.8 889.39 512.8 889.39 504.79"/><polygon class="cls-1" points="857.34 584.91 865.35 592.93 865.35 584.91 857.34 584.91"/><path class="cls-1" d="M865.35,568.89V496.77l8-8-8-8h8v8h16l8-8,16,16,8-8-8-8h8v8h8v-16h8l24-24v-8h8v-8h8l-8-8h-16l8,8h-16l8-8-8-8v8h-24l24,24H913.42l8,8h-16l16-16H889.39l8,8h-16l-8-8h16v-8h-8l-8-8-8,8v16l8,8h16l8,8-8,8-8-8-8,8h-16V584.91l8-8Zm72.11-112.18v8h-8Zm-24,8,8,8h-16Z" transform="translate(0 0)"/><path class="cls-1" d="M833.3,592.92l8,8h32.05l8-8h-32l-16-16h-8v8h-8v8Z" transform="translate(0 0)"/><path class="cls-1" d="M809.26,592.92h8l-16-16v8h-8l8,8Z" transform="translate(0 0)"/><polygon class="cls-1" points="793.24 576.9 785.23 576.9 793.24 584.91 801.25 576.9 793.24 576.9"/><polygon class="cls-1" points="793.24 592.93 793.24 584.91 785.23 592.93 793.24 592.93"/><path class="cls-1" d="M785.22,560.88v-16H657l-8-8v8H633v8H617l8,8h16l8-8,8,8h24v-8l8,8h40.07v-8l8,8H769.2l8-8v8Z" transform="translate(0 0)"/><path class="cls-1" d="M769.2,633v-8h-16l-8-8v8h-8l-8-8v16l8,8h16l8-8v8h8Z" transform="translate(0 0)"/><polygon class="cls-1" points="745.16 568.89 737.15 576.9 745.16 576.9 745.16 568.89"/><path class="cls-1" d="M729.14,609h8v-16l-8-8v16h-16l8,8Z" transform="translate(0 0)"/><polygon class="cls-1" points="705.1 568.89 705.1 560.88 697.09 568.89 705.1 568.89"/><path class="cls-1" d="M705.1,625h-16l8,8Z" transform="translate(0 0)"/><polygon class="cls-1" points="681.06 576.9 689.08 576.9 681.06 568.89 681.06 576.9"/><path class="cls-1" d="M665,592.92H641v8h24l8-8v-8h-8Z" transform="translate(0 0)"/><path class="cls-1" d="M625,592.92H609l8,8h16l8-8Z" transform="translate(0 0)"/><path class="cls-1" d="M617,544.85h-8v16h-8v8l-8,8h-16l-8-8v8h-8v8h40.06l8-8v-8h8v-16l8-8Z" transform="translate(0 0)"/><rect class="cls-1" x="608.95" y="504.79" width="8.01" height="8.01"/><polygon class="cls-1" points="584.91 520.81 592.92 528.83 600.94 520.81 600.94 512.8 592.92 512.8 584.91 520.81"/><polygon class="cls-1" points="592.92 592.93 584.91 584.91 584.91 592.93 592.92 592.93"/><polygon class="cls-1" points="544.85 568.89 544.85 576.9 552.86 584.91 560.88 576.9 552.86 568.89 544.85 568.89"/><polygon class="cls-1" points="544.85 608.95 536.84 616.96 544.85 616.96 544.85 608.95"/><polygon class="cls-1" points="536.84 560.88 528.83 560.88 536.84 568.89 544.85 560.88 536.84 560.88"/><path class="cls-1" d="M536.84,584.91h-16l8,8h8Z" transform="translate(0 0)"/><path class="cls-1" d="M536.84,600.94l-8-8-8,8h-32l8,8h32.06Z" transform="translate(0 0)"/><polygon class="cls-1" points="520.81 641 528.83 641 520.81 632.99 520.81 641"/><path class="cls-1" d="M512.8,560.88h-16v-8h-8v16h32l8-8Z" transform="translate(0 0)"/><polygon class="cls-1" points="512.8 632.99 512.8 624.98 504.79 632.99 512.8 632.99"/><path class="cls-1" d="M448.7,576.9l8-8h-8v-8l-8,8h-16l8,8Z" transform="translate(0 0)"/><path class="cls-1" d="M344.54,576.9h-8v16l8-8Z" transform="translate(0 0)"/><path class="cls-1" d="M344.54,600.94h16l8-8H336.52v8Z" transform="translate(0 0)"/><polygon class="cls-1" points="328.51 624.98 336.52 624.98 328.51 616.96 328.51 624.98"/><path class="cls-1" d="M320.5,592.92h-16l8,8h16l8-8Z" transform="translate(0 0)"/><path class="cls-1" d="M312.49,536.84l8-8h-16v8Z" transform="translate(0 0)"/><path class="cls-1" d="M288.45,592.92h-16l-8-8v8h-24v8h64.09v-8Z" transform="translate(0 0)"/><path class="cls-1" d="M256.4,544.85v-16l-8,8Z" transform="translate(0 0)"/><path class="cls-1" d="M240.38,368.58l8-8v-16h-16l8,8Z" transform="translate(0 0)"/><path class="cls-1" d="M232.36,328.51v8h16v-8Z" transform="translate(0 0)"/><path class="cls-1" d="M232.36,424.66v16l8,8V416.65h-8Z" transform="translate(0 0)"/><path class="cls-1" d="M232.36,576.9h-8l-8-8v-16l-8-8v16l-16-16v16l40.06,40.06,8-8-8-8Z" transform="translate(0 0)"/><path class="cls-1" d="M192.3,625l8,8,8-8Z" transform="translate(0 0)"/><path class="cls-1" d="M200.31,384.6V344.54h-8V384.6l8,8Z" transform="translate(0 0)"/><polygon class="cls-1" points="40.06 600.94 48.08 592.93 40.06 592.93 40.06 600.94"/><path class="cls-1" d="M40.06,617l-8-8v16h8Z" transform="translate(0 0)"/><path class="cls-1" d="M1266,1025.6h-16l8,8h-16l8-8h-8v-24h-16l-8-8v8h-24l8-8v-8h-8l-8,8v16l24,24-8,8v16l16,16h16l8,8,8-8h-8v-8l8-8h8v16h8l8,8v-16h8v-24h-16l8-8h8v-8Zm-64.1-8v-8h16l-8,8Zm16,8,8-8h8v16h-16Zm-8,24h8v8Zm24,8h-8v-16h8l8,8Z" transform="translate(0 0)"/><path class="cls-1" d="M1274,881.38v-8h-16l8,8Z" transform="translate(0 0)"/><path class="cls-1" d="M1250,817.27v16h-8v8l8,8v-8h8v-16l8-8h-8v-8Z" transform="translate(0 0)"/><path class="cls-1" d="M1233.92,945.47h-8v24l8-8,8,8,8-8Z" transform="translate(0 0)"/><path class="cls-1" d="M1225.91,969.51l16,16v-8h24l-8-8Z" transform="translate(0 0)"/><path class="cls-1" d="M1225.91,777.21l-8,8,8,8h16v-16l16-16v-16l-8-8h8v8l16-16h-32l-8,8v8h-8l-8,8,16,16v8Zm16-32.05,8,8h-16Z" transform="translate(0 0)"/><path class="cls-1" d="M1233.92,993.55l-16-16-8,8,8,8Z" transform="translate(0 0)"/><polygon class="cls-1" points="1225.91 721.13 1225.91 713.11 1217.9 721.13 1225.91 721.13"/><polygon class="cls-1" points="1209.89 801.25 1217.9 801.25 1209.89 793.24 1209.89 801.25"/><path class="cls-1" d="M1209.89,961.5v-8h-16v-8h-8l-8-8h-16l8,8h8v8l-8-8-8,8,8,8h24v8l8-8Z" transform="translate(0 0)"/><path class="cls-1" d="M1209.89,969.51h-16l-8,8,8,8Z" transform="translate(0 0)"/><polygon class="cls-1" points="1185.85 705.1 1185.85 713.11 1193.86 713.11 1185.85 705.1"/><polygon class="cls-1" points="1177.84 977.53 1177.84 985.54 1185.85 977.53 1177.84 969.51 1177.84 977.53"/><path class="cls-1" d="M1137.77,945.47h8v-8l-8-8Z" transform="translate(0 0)"/><polygon class="cls-1" points="1137.78 753.18 1137.78 761.19 1145.79 761.19 1137.78 753.18"/><polygon class="cls-1" points="1089.7 793.24 1089.7 785.23 1081.69 793.24 1089.7 793.24"/><path class="cls-1" d="M1073.67,945.47h32l-16-16h24v8l-8,8h16v-16h16l8-8-8-8h-8v-8l-8-8h-8v8l8,8v8h-56.09l8,8h-16Z" transform="translate(0 0)"/><path class="cls-1" d="M1057.65,913.42h-16l-8,8,8,8h16l8-8Z" transform="translate(0 0)"/><polygon class="cls-1" points="1057.65 985.54 1057.65 977.53 1049.64 985.54 1057.65 985.54"/><polygon class="cls-1" points="1049.64 945.48 1057.65 945.48 1049.64 937.46 1049.64 945.48"/><path class="cls-1" d="M1041.62,881.38h16v-8h-8Z" transform="translate(0 0)"/><path class="cls-1" d="M977.52,945.47H921.44v8h64.1l8-8Z" transform="translate(0 0)"/><path class="cls-1" d="M913.42,945.47h-8v8h-8v-8l-8,8-8-8h-32l8-8h-16l8-8h16l8,8v-16l-8-8h-16l8,8h-16l8-8H817.27l-8,8h8v8l8-8,8,8h-16l-8-8h-8v-16h-8v16l8,8v8h24l8,8h-16l-8-8v16l8,8,8-8,8,8,8-8,8,8h64.1l8-8h-8Z" transform="translate(0 0)"/><path class="cls-1" d="M657,865.35l-8,8H633l-8,8-16-16h-16l-8-8,8-8h-16l-8-8,8-8H528.83l8-8h-16v-8h-24l8,8h-16l-8,8v32.05l8,8,8-8-8-8h16l8-8,8,8,8-8h16l8,8h16l16,16h8v8h8v-8l24,24,16-16h16l8-8h-8ZM496.77,833.3v8h-8Zm16,8h-8l8-8,8,8Zm40.06,0h8v8Z" transform="translate(0 0)"/><path class="cls-1" d="M657,825.29h24l8,8h16l-24-24v8H657l-8,8Z" transform="translate(0 0)"/><path class="cls-1" d="M625,817.27l-8,8h-8v24l24-24h16v-8h8l8-8-8-8-16,16h-8v-8Z" transform="translate(0 0)"/><polygon class="cls-1" points="592.92 1161.81 600.94 1161.81 592.92 1153.8 592.92 1161.81"/><path class="cls-1" d="M560.88,881.38h-16l8,8Z" transform="translate(0 0)"/><path class="cls-1" d="M552.86,825.29h-16l8,8Z" transform="translate(0 0)"/><path class="cls-1" d="M448.7,897.4h-16l-8,8h-16l-8,8v8h8l8-8h16l8-8h16l8-8Z" transform="translate(0 0)"/><path class="cls-1" d="M448.7,961.5h-8v8l-8,8,8,8,16-16h16l-16-16h-8Z" transform="translate(0 0)"/><path class="cls-1" d="M432.67,849.32l-8,8,8,8h-16l8-8h-24v24l8-8,8,8,8-8h16l16-16h8v-8h8v-8l-16-16h-16v16l8-8,8,8h-16l8,8Z" transform="translate(0 0)"/><path class="cls-1" d="M1274,168.26h-16l8,8h16v-16Z" transform="translate(0 0)"/><polygon class="cls-1" points="1273.99 560.88 1282 560.88 1273.99 552.86 1273.99 560.88"/><path class="cls-1" d="M1266,192.3H1217.9l8,8H1282v-8Z" transform="translate(0 0)"/><path class="cls-1" d="M1266,424.66h-8l8-8h-16l-8-8v16l8,8h-16l-8,8h-8v-8l-8,8h-16l-8-8h-16l-8,8h16v8h24l8,8h8v8l16-16h16l-8-8h8v8l8,8,8-8,8,8h8v-16h-24l8-8h16v-8Z" transform="translate(0 0)"/><polygon class="cls-1" points="1241.94 72.11 1249.95 80.13 1257.96 72.11 1249.95 72.11 1249.95 64.1 1241.94 72.11"/><polygon class="cls-1" points="1241.94 456.71 1233.92 464.73 1241.94 464.73 1241.94 456.71"/><path class="cls-1" d="M1241.94,24l16,16V24h16l-8-8h-16V8h-8l-8-8h-8V8Z" transform="translate(0 0)"/><polygon class="cls-1" points="1233.92 392.61 1233.92 384.6 1225.91 392.61 1233.92 392.61"/><polygon class="cls-1" points="1225.91 472.74 1217.9 480.75 1225.91 480.75 1225.91 472.74"/><polygon class="cls-1" points="1217.9 32.05 1217.9 40.06 1225.91 40.06 1217.9 32.05"/><path class="cls-1" d="M1217.9,224.35l16-16h-32.05Z" transform="translate(0 0)"/><path class="cls-1" d="M1201.87,192.3h-96.15l8,8h96.15l8-8Z" transform="translate(0 0)"/><polygon class="cls-1" points="1201.88 16.03 1201.88 24.04 1209.89 24.04 1201.88 16.03"/><polygon class="cls-1" points="1185.85 208.33 1177.84 216.34 1185.85 216.34 1185.85 208.33"/><path class="cls-1" d="M1177.84,88.14l8,8,8-8Z" transform="translate(0 0)"/><path class="cls-1" d="M1177.84,416.65v-8l-16,16-8-8h-16l16,16h16l8-8Z" transform="translate(0 0)"/><polygon class="cls-1" points="1161.81 208.33 1161.81 200.31 1153.8 208.33 1161.81 208.33"/><path class="cls-1" d="M1153.8,72.11h48.07v-8l-8-8h-8v8h-8v-8h-24v8h-8v-8h-8v8l8,8Z" transform="translate(0 0)"/><polygon class="cls-1" points="1121.75 376.59 1129.76 376.59 1121.75 368.58 1121.75 376.59"/><path class="cls-1" d="M1089.7,352.55h16l8,8h16l8,8-8,8h64.1l16,16,16-16,8,8v-16h-16l-8,8-24-24v8h-24l-8-8h-16l-16-16h-16l8-8v-8h-8l-8-8v16l-16,16h8Z" transform="translate(0 0)"/><path class="cls-1" d="M1001.56,424.66l-8-8v16l8,8h16l-8-8v-8Z" transform="translate(0 0)"/><path class="cls-1" d="M1001.56,400.62v-8l8,8v-8h8l-16-16h-8v8l-8,8h-16l16,16,8-8Z" transform="translate(0 0)"/><path class="cls-1" d="M993.55,240.38v16l-16,16h16v-8h24Z" transform="translate(0 0)"/><path class="cls-1" d="M993.55,464.72l-8-8h-8v8l-8,8h-8v8h16Z" transform="translate(0 0)"/><polygon class="cls-1" points="985.54 72.11 985.54 80.13 993.55 80.13 985.54 72.11"/><path class="cls-1" d="M985.54,416.65v-8h-32l16,16,8-8Z" transform="translate(0 0)"/><polygon class="cls-1" points="977.52 360.56 977.52 352.55 969.51 360.56 977.52 360.56"/><polygon class="cls-1" points="977.52 208.33 969.51 216.34 977.52 216.34 977.52 208.33"/><polygon class="cls-1" points="977.52 88.14 977.52 80.13 969.51 88.14 977.52 88.14"/><path class="cls-1" d="M969.51,192.3H889.39v-8l-8,8h-32l8,8h16l8,8h16v-8h104.16l-8-8Z" transform="translate(0 0)"/><path class="cls-1" d="M961.5,248.39v8l8,8,16-16Z" transform="translate(0 0)"/><polygon class="cls-1" points="961.5 64.1 961.5 72.11 969.51 72.11 961.5 64.1"/><polygon class="cls-1" points="961.5 96.15 961.5 104.16 969.51 104.16 961.5 96.15"/><path class="cls-1" d="M953.49,336.52h-8l8,8h-32l8,8h32l8-8v8h8l16-16h16v-8h8l-8-8h-16l-8,8h-16l-8,8Z" transform="translate(0 0)"/><polygon class="cls-1" points="953.49 224.35 953.49 216.34 945.48 224.35 953.49 224.35"/><polygon class="cls-1" points="953.49 64.1 953.49 56.09 945.48 64.1 953.49 72.11 953.49 64.1"/><path class="cls-1" d="M937.46,312.49h-16l8,8h16l8-8Z" transform="translate(0 0)"/><path class="cls-1" d="M945.47,96.15l16-16h-32Z" transform="translate(0 0)"/><path class="cls-1" d="M945.47,272.42v-16l-8,8h-16l8,8Z" transform="translate(0 0)"/><polygon class="cls-1" points="921.44 336.53 921.44 344.54 929.45 336.53 921.44 336.53"/><polygon class="cls-1" points="905.41 40.06 913.42 32.05 905.41 32.05 905.41 40.06"/><path class="cls-1" d="M913.42,224.35h-16l8,8Z" transform="translate(0 0)"/><path class="cls-1" d="M905.41,16h8l-8,8,8,8V24h8l8-8-8-8h-16l-8,8v8h8Z" transform="translate(0 0)"/><path class="cls-1" d="M905.41,88.14h16l24-24h-16l-16,16h-16l-8-8h-16l24,24v-8Z" transform="translate(0 0)"/><path class="cls-1" d="M873.36,272.42h8l8,8h32.05l8-8H889.39v-8h-8v-8l-8,8h-16l8,8Z" transform="translate(0 0)"/><path class="cls-1" d="M865.35,24h8l16,16V8l-8,8h-16l-8-8v8h-8l8,8Z" transform="translate(0 0)"/><path class="cls-1" d="M849.32,16V0l-8,8-8-8V16Z" transform="translate(0 0)"/><path class="cls-1" d="M841.31,456.71v-16h-16l8,8h-8v-8h-16v8h8l8,8Z" transform="translate(0 0)"/><path class="cls-1" d="M825.29,24V8h-16V24l8-8Z" transform="translate(0 0)"/><polygon class="cls-1" points="817.27 456.71 809.26 456.71 817.27 464.73 825.29 456.71 817.27 456.71"/><path class="cls-1" d="M817.27,32.05h32.05l8-8h-16l-8-8v8h-24v8h-8l8,8Z" transform="translate(0 0)"/><path class="cls-1" d="M801.25,144.22l8-8h-16Z" transform="translate(0 0)"/><polygon class="cls-1" points="801.25 112.18 793.24 120.19 801.25 120.19 801.25 112.18"/><path class="cls-1" d="M793.24,264.41l-8,8h16l8,8,24-24h16l8,8,8-8v-16l-16-16h-24v8l-16,16h8v16h-16v-8h-8Zm40.06-24,8-8,16,16H825.29Z" transform="translate(0 0)"/><path class="cls-1" d="M793.24,88.14l32,32.05,16-16h64.1l-8-8h-32l-24-24v16l-16,16-32-32-8,8v8Z" transform="translate(0 0)"/><path class="cls-1" d="M785.22,472.74h56.09l8-8H769.2l8,8Z" transform="translate(0 0)"/><path class="cls-1" d="M777.21,296.46h-16l8,8h32l8,8h8v-8h16l8,8,8-8-8-8H793.24l-8-8Z" transform="translate(0 0)"/><path class="cls-1" d="M785.22,448.7l8-8h-24v8l8,8Z" transform="translate(0 0)"/><path class="cls-1" d="M769.2,24h8l8,8,8-8,8,8V8h-8v8h-24l8-8h-16l-8,8,8,8Z" transform="translate(0 0)"/><path class="cls-1" d="M753.17,320.5l-8,8h-16l-8-8v8h-8v32.05l8,8h8V336.52h16v8l24,24v-16l8-8h-16l-8-8Z" transform="translate(0 0)"/><polygon class="cls-1" points="737.15 352.55 729.14 360.56 737.15 360.56 737.15 352.55"/><polygon class="cls-1" points="729.14 8.01 729.14 16.03 737.15 16.03 729.14 8.01"/><path class="cls-1" d="M721.12,48.08l8,8h64.1l8-8h-64.1l-16-16-8,8Z" transform="translate(0 0)"/><path class="cls-1" d="M713.11,456.71v16h8v-16h24l8,8h16l8-8h-16l8-8-8-8-8,8H713.11Z" transform="translate(0 0)"/><path class="cls-1" d="M713.11,400.62v16h16v-16h8l-8-8h-16Z" transform="translate(0 0)"/><polygon class="cls-1" points="705.1 16.03 705.1 24.04 713.11 24.04 705.1 16.03"/><path class="cls-1" d="M697.09,472.74h8v-24h-8Z" transform="translate(0 0)"/><path class="cls-1" d="M697.09,80.12h8l8,8h16l8,8H769.2l16-16h-64.1l-16-16h-16l8,8Z" transform="translate(0 0)"/><polygon class="cls-1" points="689.08 456.71 681.06 456.71 689.08 464.73 697.09 456.71 689.08 448.7 689.08 456.71"/><path class="cls-1" d="M681.06,440.69l-8,8-8-8-8,8H641l16,16v-8h16v8l8-8Z" transform="translate(0 0)"/><path class="cls-1" d="M673.05,160.25l-8-8v8H641l24,24,24-24Z" transform="translate(0 0)"/><rect class="cls-1" x="673.05" y="464.73" width="8.01" height="8.01"/><polygon class="cls-1" points="673.05 480.75 673.05 472.74 665.04 472.74 673.05 480.75"/><path class="cls-1" d="M649,472.74l8,8,8-8Z" transform="translate(0 0)"/><path class="cls-1" d="M633,136.21l8,8,8-8Z" transform="translate(0 0)"/><polygon class="cls-1" points="641 64.1 632.99 72.11 641 72.11 641 64.1"/><path class="cls-1" d="M633,120.19h16l16,16h32.05l8,8h64.1l16-16v-16l-16,16H673.05l-24-24H617Z" transform="translate(0 0)"/><path class="cls-1" d="M617,328.51l8,8h8v-8Z" transform="translate(0 0)"/><path class="cls-1" d="M625,448.7l8-8H584.91l24,24Z" transform="translate(0 0)"/><path class="cls-1" d="M609,480.75h-16l8,8Z" transform="translate(0 0)"/><polygon class="cls-1" points="600.94 56.09 600.94 64.1 608.95 64.1 600.94 56.09"/><polygon class="cls-1" points="600.94 320.5 608.95 320.5 600.94 312.49 600.94 320.5"/><path class="cls-1" d="M600.94,200.31h16l16-16-16-16h-16v16l8,8,8-8v8H584.91v-8l-8-8-8,8,24,24Z" transform="translate(0 0)"/><path class="cls-1" d="M592.92,408.64H633v-16H617l8,8H576.9l8,8Z" transform="translate(0 0)"/><path class="cls-1" d="M592.92,272.42l8-8h32l-16-16h-16l8,8h-24v8l-8,8v16Z" transform="translate(0 0)"/><path class="cls-1" d="M592.92,416.65h-32l16,16Z" transform="translate(0 0)"/><polygon class="cls-1" points="584.91 432.68 576.9 432.68 584.91 440.69 592.92 432.68 584.91 432.68"/><polygon class="cls-1" points="592.92 352.55 584.91 344.54 584.91 352.55 592.92 352.55"/><path class="cls-1" d="M552.86,432.67h-8l8,8h16l-8-8Z" transform="translate(0 0)"/><polygon class="cls-1" points="544.85 200.31 536.84 200.31 544.85 208.33 544.85 200.31"/><path class="cls-1" d="M544.85,416.65l8-8h16l8-8h-32l-8,8v8h-8l8,8Z" transform="translate(0 0)"/><path class="cls-1" d="M536.84,184.29v16l8-8Z" transform="translate(0 0)"/><polygon class="cls-1" points="536.84 232.36 528.83 240.38 536.84 240.38 536.84 232.36"/><polygon class="cls-1" points="528.83 496.78 520.81 504.79 528.83 504.79 528.83 496.78"/><path class="cls-1" d="M528.83,184.29h-8v-8h-8v16l8,8,8-8Z" transform="translate(0 0)"/><path class="cls-1" d="M520.81,344.54l-8-8h-16l32.06,32.06h32l16-16v-8h8l16-16-16-16,16-16h32v-8h-32v-8l-8,8h-16l8,8-16,16,16,16-24,24h-32Z" transform="translate(0 0)"/><rect class="cls-1" x="496.77" y="184.29" width="8.01" height="8.01"/><path class="cls-1" d="M488.76,192.3v-8h-16l16,16Z" transform="translate(0 0)"/><polygon class="cls-1" points="472.74 232.36 472.74 240.38 480.75 240.38 472.74 232.36"/><polygon class="cls-1" points="464.73 184.29 464.73 176.28 456.71 184.29 464.73 192.3 464.73 184.29"/><polygon class="cls-1" points="440.69 216.34 440.69 224.35 448.7 224.35 440.69 216.34"/><path class="cls-1" d="M432.67,304.47l8,8h32.05l8-8h32l8-8v-16l-8-8v24H472.74l-8,8Z" transform="translate(0 0)"/><path class="cls-1" d="M440.69,200.31v-16l-8-8-8,8v16l8-8Z" transform="translate(0 0)"/><path class="cls-1" d="M424.66,617l8,8,8-8Z" transform="translate(0 0)"/><path class="cls-1" d="M424.66,264.41l16,16v-16Z" transform="translate(0 0)"/><path class="cls-1" d="M424.66,400.62h24c-4,4-12,12-16,16h16l24,24,16-16,8,8h32.06l8-8h-16l8-8-8-8h-16l-8,8h-16l-8-8h-16l8-8-8-8h-32l-8,8Z" transform="translate(0 0)"/><path class="cls-1" d="M424.66,536.84l8-8H400.62l8,8h-16l8,8h16Z" transform="translate(0 0)"/><polygon class="cls-1" points="416.65 576.9 408.64 584.91 416.65 584.91 416.65 576.9"/><path class="cls-1" d="M416.65,216.34h8l8-8h16l8-8,16,16h16l8,8h16l8-8,8,8h32l8-8v-8h8l8-8h-24v-8l-8-8v32.05h-24v-8l-8-8h-24v8h-16l8-8h-16l8-8h-24v-8l-8-8v24h-24l-8,8h-16l8,8Zm88.14-8h8l-8,8Z" transform="translate(0 0)"/><path class="cls-1" d="M416.65,192.3v-8h-8l-8-8v16Z" transform="translate(0 0)"/><path class="cls-1" d="M400.62,464.72h-16l-8,8h16l8,8,8-8Z" transform="translate(0 0)"/><polygon class="cls-1" points="400.63 560.88 400.63 568.89 408.64 568.89 400.63 560.88"/><path class="cls-1" d="M392.61,617h-16v16h16l8,8h16v-8h-8v-8h-8v-8Z" transform="translate(0 0)"/><path class="cls-1" d="M400.62,392.61h24l8-8H400.62l-8,8Z" transform="translate(0 0)"/><path class="cls-1" d="M400.62,304.47l8,8,8-8-8-8h-16Z" transform="translate(0 0)"/><polygon class="cls-1" points="392.61 232.36 392.61 240.38 400.63 240.38 392.61 232.36"/><path class="cls-1" d="M392.61,184.29v-16l-16,16,8,8Z" transform="translate(0 0)"/><path class="cls-1" d="M384.6,360.56h-24v8h8l8,8h16v8h8l8-8v-16Z" transform="translate(0 0)"/><path class="cls-1" d="M376.59,536.84l8,8-8,8h-16l-8-8v8h-8l16,16v-8h24l8-8v-16Z" transform="translate(0 0)"/><path class="cls-1" d="M376.59,200.31l8,8H352.55l8,8h32.05l16-16h-16l8-8h-24v-8h-16l-8,8,16,16Z" transform="translate(0 0)"/><path class="cls-1" d="M360.56,232.36H312.49l-8,8h-16l-8-8v8h-8l-8,8h-16l8,8h16l8-8h48.07l8-8h32.06l8-8Z" transform="translate(0 0)"/><polygon class="cls-1" points="352.55 248.39 344.54 248.39 352.55 256.4 360.56 248.39 352.55 248.39"/><path class="cls-1" d="M360.56,488.76l8-8h-16l16-16h-16v-8h-8v-16l-8,8-8-8v32.05l24,24Zm-24-24h8v8Z" transform="translate(0 0)"/><path class="cls-1" d="M336.52,496.77l8,8h48.07l8-8h16l-8-8h8v8l8,8h16l8,8-8,8h16l8-8h16l8-8h16l8-8h-8v-8l8,8,8-8h16l-16-16h16l16-16H520.81l-16,16h-16l8,8H448.7l8,8h-32l8-8-8-8h-16l8,8h-32l8,8h-16l8,8Z" transform="translate(0 0)"/><path class="cls-1" d="M336.52,208.33h16l8-8h-24v-8h-16Z" transform="translate(0 0)"/><path class="cls-1" d="M336.52,184.29h8l8-8h-16v-16l-8,8h-8v8l8,8Z" transform="translate(0 0)"/><path class="cls-1" d="M320.5,280.44h-24l8,8h24v-8l-8-8Z" transform="translate(0 0)"/><path class="cls-1" d="M320.5,192.3l-8-8-8,8Z" transform="translate(0 0)"/><polygon class="cls-1" points="304.48 512.8 296.46 520.81 304.48 520.81 304.48 512.8"/><path class="cls-1" d="M296.46,472.74h-16l8-8,8,8,8-8v-16l-8-8-8,8,8,8h-16l8-8h-24v8l-8,8v16h16l8,8Zm-32,0,8-8v8Z" transform="translate(0 0)"/><path class="cls-1" d="M272.42,192.3l8,8h16l8-8Z" transform="translate(0 0)"/><path class="cls-1" d="M264.41,184.29l8,8,8-8,8,8,8-8-8-8h8v8l8-8v-16l-8,8h-16v8h-8Z" transform="translate(0 0)"/><path class="cls-1" d="M256.4,272.42l8,8,8-8Z" transform="translate(0 0)"/><path class="cls-1" d="M240.38,488.76H184.29l24,24,8-8v16l8,8h48.07l8,8v-8h24l-32.05-32.06h16l8,8h32.05l16-16h-16v8h-24l8-8-8-8-8,8h-32v8h-8l8-8Zm32,24h-8v-8Zm-32-8h-8l8-8,8,8Z" transform="translate(0 0)"/><path class="cls-1" d="M200.31,216.34h8v8h16l16-16H192.3Z" transform="translate(0 0)"/><polygon class="cls-1" points="192.3 48.08 192.3 56.09 200.31 56.09 192.3 48.08"/><polygon class="cls-1" points="168.26 456.71 176.28 464.73 176.28 456.71 168.26 456.71"/><path class="cls-1" d="M176.27,592.92l8-8v-8h-8l-8-8-24,24v8h8l8,8v16h16V609l8-8h-16l-8-8Z" transform="translate(0 0)"/><path class="cls-1" d="M160.25,472.74h8l8-8H144.22l8,8Z" transform="translate(0 0)"/><path class="cls-1" d="M152.24,280.44l-16,16h8v8h32.05l8-8h16l8,8h16l-16-16v-16l-16,16h-16l-8,8h-16Z" transform="translate(0 0)"/><path class="cls-1" d="M152.24,8l8-8h-24V8l8,8Z" transform="translate(0 0)"/><polygon class="cls-1" points="136.21 96.15 136.21 88.14 128.2 96.15 136.21 96.15"/><path class="cls-1" d="M104.16,456.71l8,8h16l8-8v8h8l16-16h-24v-8l8,8,8-8-8-8h-24v8l8,8-8,8Z" transform="translate(0 0)"/><polygon class="cls-1" points="112.17 80.13 104.16 88.14 112.17 88.14 112.17 80.13"/><polygon class="cls-1" points="104.16 64.1 96.15 64.1 104.16 72.11 112.17 64.1 104.16 64.1"/><path class="cls-1" d="M104.16,8h8v8l8,8h16l8,8h16l8-8,16,16h32.05l16-16h32.05V16h8V0h-16V16h-16l8-8V0h-16V16h-8l8-8h-8V0h-8V24h-16l8-8h-16l8-8h8V0h-24V8h-16v8H128.2l8-8h-16l8-8h-32l-8,8Zm88.14,24h-8V24Z" transform="translate(0 0)"/><path class="cls-1" d="M80.12,112.17l8,8,8-8h16l-16-16h-16l-8-8v8h-8Z" transform="translate(0 0)"/><path class="cls-1" d="M64.1,400.62v-8h-24l8,8Z" transform="translate(0 0)"/><polygon class="cls-1" points="48.08 104.16 56.09 104.16 48.08 96.15 48.08 104.16"/><polygon class="cls-1" points="24.04 48.08 24.04 40.06 16.02 48.08 24.04 56.09 24.04 48.08"/><path class="cls-1" d="M24,408.64h16l8-8H0l8,8Z" transform="translate(0 0)"/><path class="cls-1" d="M16,248.39H72.11v-8H32.05l8-8-8-8H0v8H8l-8,8v16l8-8Z" transform="translate(0 0)"/><path class="cls-1" d="M16,136.21h8l8,8,8-8v-8H0v8Z" transform="translate(0 0)"/><path class="cls-1" d="M16,80.12H48.08l-8-8H8Z" transform="translate(0 0)"/><rect class="cls-1" y="24.04" width="8.01" height="8.01"/><polygon class="cls-1" points="0 408.64 0 416.65 8.01 408.64 0 408.64"/><g id="Export"><line id="Export-2" data-name="Export" class="cls-2" x2="1282"/><line id="Export-3" data-name="Export" class="cls-2" x1="1282" y1="1282" y2="1282"/></g></g></g></svg>