<svg viewBox="0 0 640 640" xmlns="http://www.w3.org/2000/svg"><path d="m0 0h640" fill="#86573a"/><path d="m640 640h-640" fill="#86573a"/><g fill="#495150"><path d="m240 128v-16h-8v8l4 4v4z" transform="translate(320 320)"/><path d="m224 60v-4l-4-4v12h4z" transform="translate(320 320)"/><path d="m224 20v-8h-8v8h4l-4 4 4 4h8l-4-4z" transform="translate(320 320)"/><path d="m216 136v4h12v-24l-8-8h-4v20l4 4h-4z" transform="translate(320 320)"/><path d="m536 476v4l4-4z"/><path d="m528 456v-4h-4z"/><path d="m528 444v-4h-4v4l4 4z"/><path d="m208 112v-16l-4-4v24h4z" transform="translate(320 320)"/><path d="m200 32v8l4 4 4-4v-24l-4 4v8h-4z" transform="translate(320 320)"/><path d="m192 52v-16h-8v8h4v8l4 4z" transform="translate(320 320)"/><path d="m504 368v4h4z"/><path d="m176 56v8l8-8-4-4z" transform="translate(320 320)"/><path d="m172 300v20h4l4-4v-16z" transform="translate(320 320)"/><path d="m176 236v-20l-4 4v24h8l-4-4z" transform="translate(320 320)"/><path d="m492 456v-4l-4 4z"/><path d="m172 124v-8l-8 8h4v8h4z" transform="translate(320 320)"/><path d="m172 108-4 4 4 4z" transform="translate(320 320)"/><path d="m160 320h8v-8z" transform="translate(320 320)"/><path d="m452 444h4v4h-4z"/><path d="m116 124-4 4v8l4 4 8-8v-4h-4z" transform="translate(320 320)"/><path d="m92 196-4 4h8z" transform="translate(320 320)"/><path d="m88 124h4v-12h-4l-4 4h-4v4l4 4z" transform="translate(320 320)"/><path d="m68 124v-8l-4-4v8l-4 4 4 4z" transform="translate(320 320)"/><path d="m60 112h-4v8l4-4z" transform="translate(320 320)"/><path d="m48 120v-12h-4l-4-4v8z" transform="translate(320 320)"/><path d="m44 196-4-4h-8v4z" transform="translate(320 320)"/><path d="m356 440h4l-4-4-4 4z"/><g transform="translate(320 320)"><path d="m28 88v-12h-4v12l4 4z"/><path d="m28 108 4-4v-8h-16v8l4 4z"/><path d="m12 88h8v-4l-4-4h4v-4l-8-8h-4v12l4 4-4 4z"/><path d="m-8 76h-4l-4 4-4-4v24l4-4v-4h4l4-4v-4h-4l8-8z"/><path d="m-8 64-4 4h8z"/><path d="m-16 264-4 4v16l4-4 4 4h8l-4-4v-16l-4-4h-4z"/><path d="m-16 192v-8h-4v4l-4 4 4 4z"/><path d="m-16 112 8 8v-8l-8-8-8 8z"/><path d="m-28 280v-8h-4v8l-4 4v8h8l4-4-4-4z"/><path d="m-32 200h8l-4-4z"/><path d="m-28 100v-8l4-4v-16h-4v12l-4 4v8l-4 4 4 4z"/><path d="m-36 276v-4h-4l-4 4-4-4v16z"/><path d="m-44 188v8h8v-16z"/><path d="m-44 88v4l-4 4h8l4-4v-16l-4-4v-4h-4v12h4l-4 4z"/><path d="m-48 204v4h16l-8-8h-8z"/><path d="m-60 56h-4l-4 4v16l8 8v-16l4-4v-4h-4l4-4z"/><path d="m-64 140v4l4-4v-8l-4 4z"/><path d="m-64 172v-4h-8v8l4 4-4 4h8v-4h4l-4-4z"/><path d="m-72 224v8h8v-16z"/></g><path d="m252 400v-4l-4 4z"/><path d="m-68 140-4-4v8z" transform="translate(320 320)"/><path d="m-72 68v-12l-4 4h-4v4l8 8z" transform="translate(320 320)"/><path d="m-80 108v-20h-8v8l4 4v16h8l-4-4z" transform="translate(320 320)"/><path d="m-96 112 4 4v8l4-4v-12h-4z" transform="translate(320 320)"/><path d="m-96 220v8h4l4-4v-4z" transform="translate(320 320)"/><path d="m-100 280v-20l-4 4v24h8l-4-4z" transform="translate(320 320)"/><path d="m-100 104h4l-4-4v-12h-4l-4 4-4-4v16l4 4 4-4z" transform="translate(320 320)"/><path d="m-104 232v-4h-4v8h4z" transform="translate(320 320)"/><path d="m-104 220h-4v8l4-4z" transform="translate(320 320)"/><path d="m-108 120v12l4-4v-12h-4z" transform="translate(320 320)"/><path d="m212 432h4l-4-4-4 4z"/><path d="m-116 276-4-4v8l8 8 4-4z" transform="translate(320 320)"/><path d="m-116 268v-4h-4v8h4z" transform="translate(320 320)"/><path d="m-120 232v8h4v-20h-8l4 4z" transform="translate(320 320)"/><path d="m-124 284v8h8z" transform="translate(320 320)"/><path d="m-128 144v4h4v8l4-4v-24l-4 4h-8l4 4z" transform="translate(320 320)"/><path d="m-128 240v-12h-4v4h-4v4h4l-4 4 8 8 4-4z" transform="translate(320 320)"/><path d="m-136 284h-4v8h8l4-4-4-4z" transform="translate(320 320)"/><path d="m-136 144v-12h-4v16h8z" transform="translate(320 320)"/><path d="m-140 172h8l-4-4z" transform="translate(320 320)"/><path d="m-140 216v-12l-4 4v16l4-4z" transform="translate(320 320)"/><path d="m-152 240v8l4-4h4v-4z" transform="translate(320 320)"/><path d="m168 420v4l4-4z"/><path d="m168 444h4l4-4v-4h-4v4h-4z"/><path d="m-156 228v-8l-4 4z" transform="translate(320 320)"/><path d="m-164 140v8l4-4z" transform="translate(320 320)"/><path d="m152 560-4 4h4z"/><path d="m148 592h-4l4 4 4-4z"/><path d="m-172 244v12h4l4-4z" transform="translate(320 320)"/><path d="m-176 280v8h8v-8l-4-4h-4z" transform="translate(320 320)"/><path d="m136 620v-4l-4 4z"/><path d="m-188 252-4 4h12v-12z" transform="translate(320 320)"/><path d="m-184 232v-8l-8 8z" transform="translate(320 320)"/><path d="m132 624v-4l-4 4z"/><path d="m128 568 4-4h-4z"/><path d="m-204 240v4l-4 4h8v-16l-4 4z" transform="translate(320 320)"/><path d="m112 596h4l-4-4z"/><path d="m-208 304v-8l-4 4z" transform="translate(320 320)"/><path d="m108 592h4l-4-4z"/><path d="m104 624 4-4h-4z"/><path d="m-216 240h4v-12l-4-4v-16h-4v24h4l-4 4z" transform="translate(320 320)"/><path d="m-216 96h-8v4h8z" transform="translate(320 320)"/><path d="m100 632h4l-4-4z"/><path d="m-220 104v-4l-4 4v4h-4l-4 4v8l4-4h4v-4l4-4z" transform="translate(320 320)"/><path d="m-228 216v28l4-4v-28h-4z" transform="translate(320 320)"/><path d="m88 596h4l-4-4z"/><path d="m-232 236v-20h-8v8l4 4v16l4 4h8l-8-8z" transform="translate(320 320)"/><path d="m-236 316 4 4v-8h-4z" transform="translate(320 320)"/><path d="m76 564 4-4h-4z"/><path d="m76 544h4l-4-4z"/><path d="m68 616v-4l-4 4z"/><path d="m-264 124h4v-4h-12v4z" transform="translate(320 320)"/><path d="m40 572h4l-4-4z"/><path d="m-288 264h8v-4h-4z" transform="translate(320 320)"/><path d="m-292 276v-32l-4-4h4v-4h-8v8l4 4-4 4 4 4v24l4 4h8z" transform="translate(320 320)"/><path d="m320-56v-8l-4 4z" transform="translate(320 320)"/><path d="m316-244-8 8h8l4-4v-8z" transform="translate(320 320)"/><path d="m632 208 4 4h4v-4l-4-4z"/><g transform="translate(320 320)"><path d="m316-216h-4l-8 8v16h8l-4 4-4-4-4 4v16l4-4h8v-4h8v-28l-4-4zm-4 16-4-4h8z"/><path d="m304-116v-8h-4v8l4 4z"/><path d="m300-228h-68v-4l-8-8h-8l-4-4h-16l-4 4h-8l-8 8v4h-52v4h52l4 4v-8l8-8h8l4-4h8l4 4h8l8 8v16h8v16l8 8h-8v12h4l8-8v-32h-16v-8h72l8-8-4-4z"/><path d="m296-108v-4l-4-4v16l4-4z"/><path d="m296-56 4-4v-4h-4l-4-4-8 8 8 8z"/><path d="m288-200-4 4v16h8l-4 4-4-4v8l8 8h4v-28l-4-4h4v-12z"/><path d="m280-72-4 4 4 4 8-8v-4h-4z"/><path d="m280-216h16l-8-8z"/><path d="m280-88-8-8-8 8 8 8z"/><path d="m272-200v32l-4 4v8l-12 12 4 4 16-16v-48h-4z"/><path d="m272-128h-4v20l-4 4h8l4 4 4-4v-8l-4 4-4-4h8v-8z"/><path d="m260-92 8-8h-8l-8 8 4 4z"/><path d="m256-116v-4l4-4v-8l-4 4h-4v16h4z"/><path d="m248-160-8 8 8 8 4-4v-16l12-12v-16l-4-4h4v-12h-8v24l-20 20h8l4-4z"/></g><path d="m568 224v4h4z"/><path d="m248-264-8-8v8z" transform="translate(320 320)"/><path d="m248-120v-8h-8v8z" transform="translate(320 320)"/><path d="m244-100 4-4v-16l-4 4-4-4v12h4l-4 4z" transform="translate(320 320)"/><path d="m232-152h8l-4-4z" transform="translate(320 320)"/><path d="m232-56h8l4-4v4h16v-4h4v-4h-28v4h-4z" transform="translate(320 320)"/><path d="m216-224-4 4h8l4-4z" transform="translate(320 320)"/><path d="m220-300 8-8-4-4h-8l-4 4z" transform="translate(320 320)"/><path d="m532 228 4-4h-4z"/><path d="m200-96h8v-4h-4z" transform="translate(320 320)"/><path d="m192-80h-8v4h4z" transform="translate(320 320)"/><path d="m188-300v-16h-8v8z" transform="translate(320 320)"/><path d="m184-128v-16h-8v12h4z" transform="translate(320 320)"/><path d="m496 204v4l4 4h4v-4l4-4v-4h-4l-4-4v4h-4z"/><path d="m180-4v-8h-8v8z" transform="translate(320 320)"/><path d="m172-100-4 4v4h12z" transform="translate(320 320)"/><path d="m172-124v-16l-4 4h-4v12z" transform="translate(320 320)"/><path d="m168-196v-12l-8 8v4z" transform="translate(320 320)"/><path d="m160-72 8 8h8l-8-8z" transform="translate(320 320)"/><path d="m164-88v-12h-4v16h4z" transform="translate(320 320)"/><path d="m160-128v-8l-4 4-4-4v8l4 4v8h8l-4-4z" transform="translate(320 320)"/><path d="m156-180v16l8 8h8l-4-4v-4h-4l4-4v-8l-4 4-4-4h8v-16l-4 4v4h-4z" transform="translate(320 320)"/><path d="m476 216h4l-4-4-4 4z"/><path d="m152-288 4-4-8-8v-4h-4v8z" transform="translate(320 320)"/><path d="m148-128v-4l-4-4-8 8 4 4v4h4l4-4z" transform="translate(320 320)"/><path d="m144-112-4 4h8v-12h-4z" transform="translate(320 320)"/><path d="m148-188v-8l-4-4h-4v12z" transform="translate(320 320)"/><path d="m140-168h-4v8l4 4v4h4l4-4 4 4h8l-8-8h-8l-4-4h8v-12h-4l-4 4z" transform="translate(320 320)"/><path d="m140-284 4-4-4-4v-4h-8v12l4 4z" transform="translate(320 320)"/><path d="m132-108v8h8l4-4-4-4-4 4z" transform="translate(320 320)"/><path d="m132-196v-4h-8v16h12l-4-4z" transform="translate(320 320)"/><path d="m120-100h-4l4 4h8l-4-4z" transform="translate(320 320)"/><path d="m120-284h4v-8l-4 4-4-4h8v-4h-4l-8-8v16l4 4z" transform="translate(320 320)"/><path d="m116-116-4-4v8h4z" transform="translate(320 320)"/><path d="m100-276v-24l-4 4-4-4v16l4 4h-4v12z" transform="translate(320 320)"/><path d="m96-176h-8l4 4z" transform="translate(320 320)"/><path d="m400 68v-4l-4 4z"/><g transform="translate(320 320)"><path d="m72-148v-12h8l4-4h-16l-4 4v8l-4 4z"/><path d="m68-244h-8v16l-4 4v8h4v-4l12-12-4-4 4-4z"/><path d="m60-296h8v-4l-8-8-8 8v4z"/><path d="m52-284-4 4h24l4-4v-4h-28l-4-4v8z"/><path d="m48-104 4 4 4-4v4h-4l4 4 4-4h8v-4h-4v-4h-12l-4-4h-8z"/><path d="m48-280-4-4-4 4z"/><path d="m48-256h16v-8l-4 4-4-4h8v-8l-4 4h-16v8l-4 4z"/><path d="m40-136v8l4 4v-8l4-4z"/><path d="m40-212v12l4-4v-8l4-4v-16l-4 4-8-8v16l4 4z"/><path d="m28-212-4-4v8l12 12v-16l-4-4z"/><path d="m32-288v-8h-8v8z"/><path d="m32-216v-16h-8v16z"/><path d="m12-260 4 4 16-16h-4v-4l-4-4v-4h-4l-16 16z"/><path d="m12-204 4 4h8l-8-8v-24l-4 4v8h-8v8l4 4v4z"/><path d="m4-252-4-4-4 4z"/><path d="m0-204v-12h-8v8l4 4z"/></g><path d="m316 216v-4l-4 4 4 4z"/><path d="m-4-124v-16l-8-8v24z" transform="translate(320 320)"/><path d="m-12-168h4l-4 4h8v-8h-8z" transform="translate(320 320)"/><path d="m300 236-4 4h4z"/><path d="m300 192v-4h-4v4l-4 4v4h4l4-4z"/><g transform="translate(320 320)"><path d="m-20-196h8v-8l-4 4-4-4h8v-8l-4-4v8l-4-4h-8v8z"/><path d="m-24-104-4-4-4 4z"/><path d="m-44-132v12h8v-12z"/><path d="m-40-184 8 8v-8l4-4-12-12-4 4 4 4-4 4z"/><path d="m-60-164h-8l20 20h8v-8l-4 4-4-4h8l-8-8-4 4-4-4h8l-4-4z"/><path d="m-56-304v-8l-4-4-4 4v8z"/><path d="m-60-120v-12h-8v16h8z"/><path d="m-68-84 8-8-8-8h-4v4h-4v4z"/><path d="m-76-128v-4l-4-4v16l4-4z"/><path d="m-80-188v4l-4-4-4 4v8l4 4h20v-4l-16-16z"/><path d="m-80-96h-8v8z"/><path d="m-84-124v-16h-4v4l-4 4v8l4 4z"/><path d="m-88-304h8v-8l-4-4h-8l-4-4v16z"/><path d="m-96-136v-12h-4l4-4v-4h-8v20l4 4z"/><path d="m-96-168h8l-8-8-8 8z"/><path d="m-100-312v-8h-4v8l4 4z"/><path d="m-100-84 4 4 4-4v-12h-4l-12 12 4 4z"/><path d="m-108-144v-12h-4v12l4 4z"/><path d="m-124-92h-4v4h8l4 4 12-12v-12h-8v4l4 4-8 8z"/></g><path d="m192 300v4l4-4z"/><path d="m-128-152-12 12h16l4-4v-8l-4 4z" transform="translate(320 320)"/><path d="m-128-160v8h8v-16l-4-4h4v-12h-8v20h-4z" transform="translate(320 320)"/><path d="m188 308 4-4h-4z"/><path d="m-132-56v-12h-16l8 8h4v4l4 4z" transform="translate(320 320)"/><path d="m-136-88v-8l-4 4h-4v4z" transform="translate(320 320)"/><path d="m180 288v-4l-4 4 4 4z"/><path d="m-140-204h8v-8h-8l-8 8z" transform="translate(320 320)"/><path d="m-140-4 4 4v-8l-4-4v-8h-8v8l4 4v4z" transform="translate(320 320)"/><path d="m172 292v4h4z"/><path d="m-156-156h8v4h4l4-4v-16l-4 4-4-4h8v-8h-8l-8 8h-4v4l4 4z" transform="translate(320 320)"/><path d="m-164-188h-8v4h4z" transform="translate(320 320)"/><path d="m-168-224v8l4 4v8h8v-8z" transform="translate(320 320)"/><path d="m-168-308h4l-12-12v12z" transform="translate(320 320)"/><path d="m-172-100-4-4-4 4h-8v4h12z" transform="translate(320 320)"/><path d="m-176-216-4 4h-4v12h4v-4l4 4h8l-8-8z" transform="translate(320 320)"/><path d="m-180-148h4v-4l4-4h4v-12l-4 4-16-16v16l8 8z" transform="translate(320 320)"/><path d="m-184-288 4-4-4-4v-4h-8v12l4 4z" transform="translate(320 320)"/><path d="m128 216h4v4h-4z"/><path d="m-200-280 4-4-4-4v-8h-8v16z" transform="translate(320 320)"/><path d="m-204-176v8h4v-8l-4-4z" transform="translate(320 320)"/><path d="m-208-36v4h4v-8h-4z" transform="translate(320 320)"/><path d="m-208-260h4l-4-4h-8l4 4z" transform="translate(320 320)"/><path d="m-208-176v-8l-8-8v16l4 4z" transform="translate(320 320)"/><path d="m-208-224h8l-4-4h-8l-4 4z" transform="translate(320 320)"/><path d="m-216-56v8l4-4z" transform="translate(320 320)"/><path d="m-224-176v-20h-4l-4 4v16z" transform="translate(320 320)"/><path d="m-228-140v-16l-4-4v8l-4 4v4h4z" transform="translate(320 320)"/><path d="m-232-100h4v-4h-4l-4-4v12h4z" transform="translate(320 320)"/><path d="m84 296h-4l4 4 4-4z"/><path d="m-240-44v12l4-4 4 4v-8l-8-8z" transform="translate(320 320)"/><path d="m-240-176v-16l-4 4v16h4z" transform="translate(320 320)"/><path d="m-244-104v-4l-4-4v8l4 4z" transform="translate(320 320)"/><path d="m-248-148v4h4v-4l4-4v-12h-4v8l-4 4z" transform="translate(320 320)"/><path d="m72 188v-4l-4 4z"/><path d="m-248-56v-8h-4v-4l-4-4v16l4 4z" transform="translate(320 320)"/><path d="m-256-192v32h4v-36h-4z" transform="translate(320 320)"/><path d="m64 164h4l-4-4-4 4z"/><path d="m-260-256h12l-12-12-4 4h-4v4l4 4z" transform="translate(320 320)"/><path d="m-264-88v8l4-4z" transform="translate(320 320)"/><path d="m-264-60v-12l-4-4v16l4 4z" transform="translate(320 320)"/><path d="m-264-224-4-4-4 4z" transform="translate(320 320)"/><path d="m-268-116-4-4-4 4z" transform="translate(320 320)"/><path d="m44 240h-4l4 4z"/><path d="m-292-196-4 4v56l8 8v-40l4-4v-24zm0 24v-4h4z" transform="translate(320 320)"/><path d="m-296-56h-8l4 4z" transform="translate(320 320)"/><path d="m-304-240-4 4h4v4l-4-4v16l4 4h4v4l-4-4v8l4 4 4-4v-32l8-8v-12h-4l-4 4v8z" transform="translate(320 320)"/><path d="m-300-108h12v-8h-4v4h-16v4h-8l8 8z" transform="translate(320 320)"/><path d="m12 28 4-4h-4z"/><path d="m-304-256h4v-12l-4-4h-4v12l-4 4z" transform="translate(320 320)"/><path d="m-308-304v4h4v4l4-4-20-20v8h4v4h4v4z" transform="translate(320 320)"/><path d="m-312-124h4l4 4h8l-8-8v-8h-8l-4 4 4 4z" transform="translate(320 320)"/><path d="m-312-168v8l4 4v-24l4-4h-16v12h4z" transform="translate(320 320)"/><path d="m-312-304h-8l8 8 4-4h-4z" transform="translate(320 320)"/><path d="m0 116v4l4-4z"/><path d="m0 188v4l4-4z"/><path d="m-320-104v8l4-4v-8h-4z" transform="translate(320 320)"/><path d="m312 176h-12v16h20v-16z" transform="translate(320 320)"/><path d="m308 268 4 4h4v-4z" transform="translate(320 320)"/><path d="m624 568h4v4h-4z"/><path d="m624 588h4l-4-4z"/><path d="m300 284v4h8v-4z" transform="translate(320 320)"/><path d="m616 600 4 4v-4z"/><path d="m612 596h4v4h-4z"/><path d="m608 568h4v4h-4z"/><path d="m284 292h-4v4h8l4-4z" transform="translate(320 320)"/><path d="m608 588v-4l-4 4 4 4z"/><path d="m288 280v-4h-4l-4-4v8z" transform="translate(320 320)"/><path d="m280 264h-4v-4l-4-4v8l8 8 4-4z" transform="translate(320 320)"/><path d="m280 284h4l-4-4-8 8h-20v-4l-4 4h-12v4h40l4-4z" transform="translate(320 320)"/><path d="m276 208h-20v4h20z" transform="translate(320 320)"/><path d="m268 232v-4h-4v8h4z" transform="translate(320 320)"/><path d="m268 244 4 4v-4h4v-24h-4v-4h-12v4h-4v12l-4 4v8l4-4 4 4zm-8-4v-16h12v16z" transform="translate(320 320)"/><path d="m580 580 4-4h-4z"/><path d="m260 268v-8l-4 4z" transform="translate(320 320)"/><path d="m252 268v4h4v-8h-4z" transform="translate(320 320)"/><path d="m240 304h-8l4 4h8l4-4z" transform="translate(320 320)"/><path d="m236 84v8l8-8z" transform="translate(320 320)"/><path d="m236 280h-4v8h4z" transform="translate(320 320)"/><path d="m228 96v4h16v-4z" transform="translate(320 320)"/><path d="m224 164h-12v4h12z" transform="translate(320 320)"/><path d="m532 480v4l4-4z"/><path d="m212 188h-8l-4 4 4 4v-4h8v20h-12v-20l-4 4-4-4v24l-4 4h4v4l4 4-4 4v8h4v4h12v4l4-4h4v-4h4v-44zm-4 48h-8v-20h12v20z" transform="translate(320 320)"/><path d="m204 204v4h4v-12h-4z" transform="translate(320 320)"/><path d="m204 224v8h4v-12h-4z" transform="translate(320 320)"/><path d="m188 268v8l8 8v-8z" transform="translate(320 320)"/><path d="m188 0v-12l-4-4v16l4 4z" transform="translate(320 320)"/><path d="m184 8v8l4-4z" transform="translate(320 320)"/><path d="m492 400h-4l4 4z"/><path d="m480 340h4v4h-4z"/><path d="m152 68h-12v4h12l4-4z" transform="translate(320 320)"/><path d="m152 28h8v-4h-16v4z" transform="translate(320 320)"/><path d="m468 400v4l4-4-4-4z"/><path d="m144 316h-4v-8h-8l-4 4h8v8h16l-4-4z" transform="translate(320 320)"/><path d="m128 300h-4v8h8l-4-4z" transform="translate(320 320)"/><path d="m440 580v4l4-4z"/><path d="m124 244h4v-4h4v-52h-4v-4h-20v4h-4v12l-4 4h4v36h4v4zm-4-8h-8v-20h12v20zm-4-44h8v20h-12v-20z" transform="translate(320 320)"/><path d="m120 204v-8h-4v12h4z" transform="translate(320 320)"/><path d="m116 224v8h4v-12h-4z" transform="translate(320 320)"/><path d="m424 640v-4h-4z"/><path d="m96 312v8l4-4v-4z" transform="translate(320 320)"/><path d="m100 244v-8l-4 4z" transform="translate(320 320)"/><path d="m100 228v-12h-4v20h4z" transform="translate(320 320)"/><path d="m88 244v-16h-4v24h8l-4-4z" transform="translate(320 320)"/><path d="m84 320h4v-8l-4 4z" transform="translate(320 320)"/><path d="m84 60h56l4-4h-32v-4h-4l4-4h-32l4 4h-4v-4h-8v12zm8-8v4h-4z" transform="translate(320 320)"/><path d="m72 148v20l4-4v-16l-4-4z" transform="translate(320 320)"/><path d="m72 188h-4v4h-4v4h4v8h4v-8h4v-4h-4z" transform="translate(320 320)"/><path d="m384 576 4 4 4-4v-4h-4z"/><path d="m384 640 4-4h-4z"/><path d="m44 308h-16l-4 4h28v-4z" transform="translate(320 320)"/><path d="m40 300v-4h-8l4 4v8l4-4z" transform="translate(320 320)"/><path d="m36 260v8l4-4v-8h-4z" transform="translate(320 320)"/><path d="m32 184v-8h-8v8z" transform="translate(320 320)"/><path d="m24 292v-4l-4-4v8l4 4z" transform="translate(320 320)"/><path d="m16 308h-4l-4 4h16l-4-4z" transform="translate(320 320)"/><path d="m20 196-4-4-4 4z" transform="translate(320 320)"/><path d="m12 268v4h4l4-4v-8l-4 4h-4z" transform="translate(320 320)"/><path d="m8 192 8-8h-8l-8 8 4 4h4z" transform="translate(320 320)"/><path d="m-8 308h-4l-4-4v-8l-4 4v12h20v-8l-4 4z" transform="translate(320 320)"/><path d="m-12 12v-12h-8v12z" transform="translate(320 320)"/><path d="m-24 4v-8h-4v8l4 4z" transform="translate(320 320)"/><path d="m-36 308-4 4h12v-4z" transform="translate(320 320)"/><path d="m-32 8v-12h-8v12z" transform="translate(320 320)"/><path d="m284 624h4l-4-4-4 4z"/><path d="m-96 4v-4h-4v12l4-4z" transform="translate(320 320)"/><path d="m-104 8-4-4v20h4v-4h4l-4-4z" transform="translate(320 320)"/><path d="m-116 20v-12h-4v8l-4-4v-8l-4-4v16h4v4l4 4h4z" transform="translate(320 320)"/><path d="m-196 156h8l-4-4z" transform="translate(320 320)"/><path d="m-196 24v8h4v-12h-4z" transform="translate(320 320)"/><path d="m-208 64-8-8v4h-4l-4 4 4 4h8z" transform="translate(320 320)"/><path d="m-232 144-4 4 4 4z" transform="translate(320 320)"/><path d="m-244 168v-4l-4 4v8l4-4z" transform="translate(320 320)"/><path d="m72 452v4h4v-4l-4-4z"/><path d="m-244 156h12v-4h-16l-4-4v8z" transform="translate(320 320)"/><path d="m-248 176h-24l-4 4h32z" transform="translate(320 320)"/><path d="m44 416v4l4-4z"/><path d="m-288 120-4 4h16v-4z" transform="translate(320 320)"/><path d="m588 28h4v4h-4z"/><path d="m572 28h4v4h-4z"/><path d="m204-12v8l4-4h4v-12z" transform="translate(320 320)"/><path d="m504 296h4v4h-4z"/><path d="m184-48-4-4-12 12h8z" transform="translate(320 320)"/><path d="m176-212h4v-8l-4 4z" transform="translate(320 320)"/><path d="m152-24v8l4-4v-8h-4z" transform="translate(320 320)"/><path d="m144-36v-4l4 4 4-4-8-8-8 8 4 4z" transform="translate(320 320)"/><path d="m116-228-4 4h8l4-4z" transform="translate(320 320)"/><path d="m432 288v4h4z"/><path d="m424 288h4v4h-4z"/><path d="m96-32h8l-4-4z" transform="translate(320 320)"/><path d="m420 100-4 4h4z"/><path d="m92-36-4-4-4 4z" transform="translate(320 320)"/><path d="m404 284-4 4h4z"/><path d="m400 280 4 4v-4z"/><path d="m72-40v8h8v-4h-4v-8l-4-4z" transform="translate(320 320)"/><path d="m380 148 4-4h-4z"/><path d="m60-8h4l-8-8h-8l-4 4 4 4h4v-4l4 4z" transform="translate(320 320)"/><path d="m368 120-4 4h4z"/><path d="m44-24h-8v4h8z" transform="translate(320 320)"/><path d="m40-164h-4v4h16v-4z" transform="translate(320 320)"/><path d="m32-92v8h4v-12h-4z" transform="translate(320 320)"/><path d="m336 288-4 4h4z"/><path d="m332 292-4 4h4z"/><path d="m12-48h60v-4h-68l4 4z" transform="translate(320 320)"/><path d="m320 268h4v4h-4z"/><path d="m0-88v-8h-4v12h4z" transform="translate(320 320)"/><path d="m0-24h8l-8-8v4h-12l-4 4z" transform="translate(320 320)"/><path d="m312 256-4-4v4z"/><path d="m-8-48h8l-4-4h-16l4 4z" transform="translate(320 320)"/><path d="m304 252h4l-4-4z"/><path d="m300 252-4 4h4z"/><path d="m296 268v4l4-4-4-4z"/><path d="m292 256v4l4-4z"/><path d="m-28-32h4l4-4v-4h4v-8h-4v4l-8 8h-8l4 4z" transform="translate(320 320)"/><path d="m-44-36 4 4h4v-4l-4-4h-8v4z" transform="translate(320 320)"/><path d="m-52-44h-16l-4-4v-8h-8l4 4v8h4v4h24z" transform="translate(320 320)"/><path d="m-60-32h-4l-4 4h16v-4z" transform="translate(320 320)"/><path d="m-68-20h8l4-4-4-4z" transform="translate(320 320)"/><path d="m-80-64h-4v4l4 4z" transform="translate(320 320)"/><path d="m-84-44v8l4-4z" transform="translate(320 320)"/><path d="m232 264 4-4h-4z"/><path d="m-92-52-4 4v4h4z" transform="translate(320 320)"/><path d="m228 284 4-4-4-4v4h-4v4z"/><path d="m-104-40-4-4v8h8l4-4z" transform="translate(320 320)"/><path d="m-188-4v16h-12v-16h-4l-4-4v48h4v4h20v-4h4v-48h-4zm-4 40h-8v-20h12v20z" transform="translate(320 320)"/><path d="m128 236v-4l-4 4 4 4z"/><path d="m-196 0v8h4v-8l-4-4z" transform="translate(320 320)"/><path d="m-200-104 4 4v-8l-4-4z" transform="translate(320 320)"/><path d="m112 164v4l4-4-4-4z"/><path d="m-212-128v8h4v-16l-4 4z" transform="translate(320 320)"/><path d="m-212-104v8h4v-8l-4-4z" transform="translate(320 320)"/><path d="m-224-92v4h4v4h20v-4h4v-4l-8-8v8h-12v-20h16v-16l4-4v-8l-4 4v-8h-20v20l-4-4v28h-4l4 4zm8-32v-12h12v4l-4 4h4v12h-12z" transform="translate(320 320)"/><path d="m232 220h-8v8h4l4-4z" transform="translate(320 320)"/><path d="m176 188v4l4-4v-8l-4 4z" transform="translate(320 320)"/><path d="m496 468v-4l-4 4v4h4z"/><path d="m172 268h-8l4 4h4z" transform="translate(320 320)"/><path d="m488 556v-4l-4 4 4 4z"/><path d="m484 436 4-4h-4z"/><path d="m160 144v8l4-4z" transform="translate(320 320)"/><path d="m480 568-4 4h4z"/><path d="m468 552v-4l-4 4 4 4z"/><path d="m464 588h4l-4-4z"/><path d="m464 456v-4h-4z"/><path d="m140 152v-8h-4v-16l-8 8v12h4l4 4v4h4z" transform="translate(320 320)"/><path d="m136 268v8h4v-12h-4z" transform="translate(320 320)"/></g></svg>