<svg viewBox="0 0 640 640" xmlns="http://www.w3.org/2000/svg"><path d="m0 0h640" fill="#86573a"/><path d="m640 640h-640" fill="#86573a"/><g fill="#3d403c"><path d="m316 160h-4l-4-4v-8l-4-4-8 8 8 8-4 4h8l4 4h8v-4h-4z" transform="translate(320 320)"/><path d="m240 112v16l4 4 4-4v-16z" transform="translate(320 320)"/><path d="m240 316h-4l-12-12h-4v16h28l-4-4z" transform="translate(320 320)"/><path d="m560 364v4h4v-4l-4-4z"/><path d="m232 0-8 8 4 4 12-12z" transform="translate(320 320)"/><path d="m236 140h4v-4l-4-4v-8l-4-4v-8l-4 4v24z" transform="translate(320 320)"/><path d="m232 64-8-8v8z" transform="translate(320 320)"/><path d="m544 336 4-4h-4z"/><path d="m224 248-4-4v16l4 4 4-4-4-4 4-4z" transform="translate(320 320)"/><path d="m220 288v12l4-4v-8l-4-4z" transform="translate(320 320)"/><path d="m540 476-4 4h4z"/><path d="m220 28-4-4 4-4h-4v-8h-4l-4 4v16l4-4z" transform="translate(320 320)"/><path d="m216 136v-4h4l-4-4v-20h-4v-8l-4-4v32l-4-4v-4h-4l4-4v-24h-4v20l-4 4v24l4-4h8l-4-4h4v4l4 4h4z" transform="translate(320 320)"/><path d="m532 392h4l-4-4z"/><path d="m212 140-4 4h8z" transform="translate(320 320)"/><path d="m212 4-8-8v8l4 4z" transform="translate(320 320)"/><path d="m200 0-4 4h8z" transform="translate(320 320)"/><path d="m200 40v-12h-4l-4 4 4 4h-4v12l4-4h8z" transform="translate(320 320)"/><path d="m200 64-4 4h8z" transform="translate(320 320)"/><path d="m520 404v4l4-4-4-4z"/><path d="m196 268h8l-4-4z" transform="translate(320 320)"/><path d="m196 156 4 4v8l4-4v-8l-8-8z" transform="translate(320 320)"/><path d="m516 428-4-4h-4v4l4 4z"/><path d="m192 148h12l-8-8-4 4z" transform="translate(320 320)"/><path d="m192 224-4 4v8l8-8z" transform="translate(320 320)"/><path d="m184 72h-4v4h8z" transform="translate(320 320)"/><path d="m184 152-4 4h8z" transform="translate(320 320)"/><path d="m180 124 4 4 4-4z" transform="translate(320 320)"/><path d="m500 496v-4l-4 4z"/><path d="m172 260h8l-4-4z" transform="translate(320 320)"/><path d="m176 208v-8l-4 4z" transform="translate(320 320)"/><path d="m496 508v-4l-4 4 4 4z"/><path d="m176 140v-52l-4 4v48l4 4z" transform="translate(320 320)"/><path d="m176 68v-12l4-4 4 4h8l-4-4h-4v-4l4 4v-8h-4v-8h-8v4l-4 4v8l4-4v4h-4v24l4-4z" transform="translate(320 320)"/><path d="m492 360h4l-4-4z"/><path d="m172 284v-8l-4 4z" transform="translate(320 320)"/><path d="m172 240v-20l-8 8 4 4v12h-4l4 4 4-4z" transform="translate(320 320)"/><path d="m168 312v8h4v-12h-4z" transform="translate(320 320)"/><path d="m168 292h4v-8l-4 4z" transform="translate(320 320)"/><path d="m168 260v-12l-4 4v8l4 4z" transform="translate(320 320)"/><path d="m148 4h8l-4-4z" transform="translate(320 320)"/><path d="m456 580v-4l-4 4z"/><path d="m120 264h8l-4-4z" transform="translate(320 320)"/><path d="m104 128-8-8v-8h-4v12l8 8-4 4h16v-8l-4-4z" transform="translate(320 320)"/><path d="m424 460h4l-4-4-4 4z"/><path d="m96 236v-20l-4 4v8h-4v20h12v-4l-4-4 4-4z" transform="translate(320 320)"/><path d="m92 152h4l-4-4h-8l4 4z" transform="translate(320 320)"/><path d="m408 452h4l-4-4-4 4z"/><path d="m84 236v-8l-4 4z" transform="translate(320 320)"/><path d="m80 120v-4h-4v8l4 4h8z" transform="translate(320 320)"/><path d="m400 580h4l-4-4-4 4z"/><path d="m76 252h-4v4h8l4-4v-8z" transform="translate(320 320)"/><path d="m64 256h-8v8h16z" transform="translate(320 320)"/><path d="m384 452h4l-4-4-4 4z"/><path d="m60 128h4l-4-4 4-4v-8h-4v4l-4 4v-8l-4-4h-4v12l-4 4h8l-4 4z" transform="translate(320 320)"/><path d="m40 256v8h8v-8l-4-4z" transform="translate(320 320)"/><path d="m32 272h8l-4-4z" transform="translate(320 320)"/><path d="m36 260v-4h-4l-4 4h-8v8l-8 8h16l-4-4 4-4h8z" transform="translate(320 320)"/><path d="m36 92 8-8v-4h-12l4-4h-8v16l4 4v8l-8 8h16v-8l-4-4z" transform="translate(320 320)"/><path d="m348 516h4v-4l-4-4h-4v-4l-4 4 4 4v4z"/><path d="m24 88v-12h-4v4h-4z" transform="translate(320 320)"/><path d="m16 96-4-4-4 4 8 8z" transform="translate(320 320)"/><path d="m12 116h8v-8l-4-4-4 4h-16l-4 4v8l4-4h8l4-4v4z" transform="translate(320 320)"/><path d="m0 96-4 4h12v-4z" transform="translate(320 320)"/><path d="m-4 264h-4v8h12v-8z" transform="translate(320 320)"/><path d="m0 88 8-8v-12h-4v4h-4l-12 12h4v4l4-4v4z" transform="translate(320 320)"/><path d="m316 596-4-4v4z"/><g transform="translate(320 320)"><path d="m-16 188v4l8-8v-4h-4l-4 4z"/><path d="m-16 280-4 4v-12h-8v12l4 4h16z"/><path d="m-24 104-4 4 4 4 8-8v-8l-4 4v-28h-4v16l-4 4v8l-4 4z"/><path d="m-36 276-12 12v4h12v-8l4-4v-8h-4z"/><path d="m-32 96v-8l4-4v-16l-4-4-4 4h-4v4l4 4v16l-4 4z"/><path d="m-48 280v-12h-4l-8 8v8l4-4 8 8z"/><path d="m-56 92h12v-8l4-4h-4v-12l-4 4-8-8-4 4v16l-8-8v4h-4l4-4v-16l-4-4v16l-8-8v-4h-4l-4 4 4 4v8l8 8h-4v12l4-4h8l-4-4h12v4z"/><path d="m-68 288v4h8l-4-4z"/><path d="m-72 280-4 4h8z"/><path d="m-72 144v-8l-4 4z"/><path d="m-72 264h4v-4h-4v-4h-8l-8 8z"/><path d="m-80 120-4-4v-12h-4v16z"/><path d="m-92 124v-8l-4-4-4 4h-4v12h16z"/><path d="m-92 92 4 4v-8l-4-4h-8l4 4h-4v4z"/><path d="m-100 260v24l4-4v-16l4-4-4-4z"/><path d="m-100 244h8l-4-4z"/><path d="m-104 284v-20l-4 4-4-4h-4v8h-4l12 12-4 4-8-8v-8l-4 4v4h-8v4l4 4-8 8h16l-4-4v-8l8 8h16l-4-4z"/></g><path d="m216 544-4 4h4z"/><path d="m-108 236v-16h-8v20h4z" transform="translate(320 320)"/><path d="m-112 132h4v-16l-4 4-4-4-4 4v16l4-4z" transform="translate(320 320)"/><path d="m-112 96v-4h-4l-4 4v12h12l-4-4z" transform="translate(320 320)"/><path d="m-120 264-4 4 4 4z" transform="translate(320 320)"/><path d="m-120 244h4l-4-4v-16l-4 4h-4v12l4 4z" transform="translate(320 320)"/><path d="m-124 156v-8l-4 4z" transform="translate(320 320)"/><path d="m-124 220-4-4-4 4z" transform="translate(320 320)"/><path d="m-132 248h4l-8-8 4-4h-4v-4l-8 8v4h4l4 4z" transform="translate(320 320)"/><path d="m-136 132v12l4 4h4v-12l-4-4z" transform="translate(320 320)"/><path d="m-132 204h8l-4-4h-16l4 4z" transform="translate(320 320)"/><path d="m-132 212h8v-8l-4 4h-8l-4-4v8z" transform="translate(320 320)"/><path d="m184 536-4-4v4z"/><path d="m-144 176h16l-4-4h-8z" transform="translate(320 320)"/><path d="m-140 148v-16l-4 4-4-4v16l4 4z" transform="translate(320 320)"/><path d="m-144 220v-8h-4v4h-4l-4 4v8l4-4h8z" transform="translate(320 320)"/><path d="m-148 288h-4v4h4l4 4 4-4v-8l-4 4z" transform="translate(320 320)"/><path d="m-152 232h8l-4-4z" transform="translate(320 320)"/><path d="m-152 244v-4h-16v4h-4l8 8v-4h4l4 4 4-4z" transform="translate(320 320)"/><path d="m-164 224h-4v4h12l-4-4z" transform="translate(320 320)"/><path d="m-168 284v4l8 8v-8l-4-4z" transform="translate(320 320)"/><path d="m152 332h4l-4-4-4 4z"/><path d="m-180 244v12h8v-12l-4 4z" transform="translate(320 320)"/><path d="m-180 268h-8l-4 4h4v4h4v4h4v4h4v-8h4z" transform="translate(320 320)"/><path d="m-184 232h8v-8l-4 4-4-4z" transform="translate(320 320)"/><path d="m-188 244-4 4v-8l-4-4v-4h4l8-8h-16l4-4h-16l4-4-8-8v16l4 4v16l-4 4h8l4-4v-8l4-4v16l4 4v4h4l12-12z" transform="translate(320 320)"/><path d="m-220 232v-20h-4v28h8l-4-4 4-4z" transform="translate(320 320)"/><path d="m-224 248h8l-4-4z" transform="translate(320 320)"/><path d="m96 528 4 4v-4z"/><path d="m-224 308v-4l-4 4v4h-4v8l4-4h8l-4-4z" transform="translate(320 320)"/><path d="m96 620v-4l-4 4z"/><path d="m-228 240v-28l-4 4v24l4 4z" transform="translate(320 320)"/><path d="m-228 252-8-8v-16l-4-4v32h8z" transform="translate(320 320)"/><path d="m-252 4v8l-4 4h8l4-4z" transform="translate(320 320)"/><path d="m-288 232h-8l4 4v4h-4l4 4v32h12v-12h-8l4-4h4v-28z" transform="translate(320 320)"/><path d="m-292 292h8l-4-4z" transform="translate(320 320)"/><path d="m-296 280v-8h-4v4h-8l-4 4 4 4v4h12l4-4z" transform="translate(320 320)"/><path d="m-300 244v-8l-4 4z" transform="translate(320 320)"/><path d="m316-68h-8l-4 4h-4v4l-8 8h24l-4 4h8v-8l-4-4 4-4z" transform="translate(320 320)"/><path d="m632 116h-4l4 4 4-4z"/><g transform="translate(320 320)"><path d="m312-40h-8l-4 4 8 8h12v-8h-4z"/><path d="m312-192h-8l4 4z"/><path d="m308-120h-4v8h8l4-4h-4v-4z"/><path d="m312-224h8l-8-8-8 8z"/><path d="m296-32-4 4h12v-4z"/><path d="m296-104h8l-4-4v-16l-4 4h-16v16l-4 4h8l4-4v4h4v-16l4 4z"/><path d="m296-188v24h4v-24l4-4v-16l-4 4-4-4v12h-4l4 4z"/><path d="m292-180h-8l4 4z"/><path d="m288-72-8 8h8l4-4z"/><path d="m284-76v-8h-8l-8 8 4 4h8z"/><path d="m276-200v44l-16 16h12v-4l12 12 4-4h8l-4-4 8-8-8-8v-8l-8-8v-24l-8-8z"/><path d="m272-112 4 4 4-4z"/><path d="m268-276h8l-4-4z"/><path d="m272-96h-4v-4l-12 12h8z"/><path d="m272-312-8-8v8z"/><path d="m264-184v8l-12 12v16l-4 4h8l12-12v-8l4-4v-36h-4l-4-4v12h-4l4 4z"/><path d="m260-132v8l-4 4v8l4 4 8-8v-12h-4z"/><path d="m260-100h-8v-4h-4l-8 8 4 4h4v-4l4 4z"/><path d="m248-112h4v-16h-4z"/><path d="m248-104 4-4-4-4z"/><path d="m248-204v20l-8 8h-4v-4l-4 4v8l-4 4 4 4h4v4l4 4 8-8v-8l-4 4h-8l20-20v-24l-4-4-4 4z"/><path d="m248-120h-8l4 4z"/><path d="m244-8v-16h-4l-4 4 4 4-4 4h4v4l-4 4 4 4 4-4z"/></g><path d="m564 260-4 4h4z"/><path d="m564 232h4l-4-4-4 4z"/><path d="m244-108h-4v-20l-4-4h-8l4 4v24l-4 4h16l-4-4z" transform="translate(320 320)"/><path d="m244-188-4-4-4 4z" transform="translate(320 320)"/><path d="m240-36v4l4 4v-16l-4 4z" transform="translate(320 320)"/><path d="m236-300-4-4-4 4z" transform="translate(320 320)"/><path d="m232-224v8h4v-4z" transform="translate(320 320)"/><path d="m232-276v4l8 8v-8l-4-4 8-8-12-12v16l-4 4z" transform="translate(320 320)"/><path d="m232-308h4l12-12h-8l-4 4h-8l-4 4 4 4z" transform="translate(320 320)"/><path d="m224-136h-8l8 8 4-4v-4z" transform="translate(320 320)"/><path d="m224-156v4l4-4v-8l-4 4z" transform="translate(320 320)"/><path d="m224-96-4-4-4 4z" transform="translate(320 320)"/><path d="m216-104h8l-4-4z" transform="translate(320 320)"/><path d="m216-220h-4l-4 4h16v-8l-4 4z" transform="translate(320 320)"/><path d="m220-180h-16l8 8z" transform="translate(320 320)"/><path d="m536 228h4l-4-4-4 4z"/><path d="m212-144h-12l8 8 8-8z" transform="translate(320 320)"/><path d="m208-100v4h-8v4h12v-4h4l-4-4z" transform="translate(320 320)"/><path d="m200-104h8l-8-8-8 8z" transform="translate(320 320)"/><path d="m200-40-4-4h-8v8l4-4z" transform="translate(320 320)"/><path d="m196-300h24l-12-12h-20v12z" transform="translate(320 320)"/><path d="m196-52v-8l-4 4v4z" transform="translate(320 320)"/><path d="m188-28h8v-8z" transform="translate(320 320)"/><path d="m192-160 8-8h-16z" transform="translate(320 320)"/><path d="m192-288-4-4-4 4z" transform="translate(320 320)"/><path d="m184-64h8l-4-4z" transform="translate(320 320)"/><path d="m184-140v12l4 4v-24l-4 4z" transform="translate(320 320)"/><path d="m184-108v4l4 4h8l-4-4v-16h-4v4l-4 4z" transform="translate(320 320)"/><path d="m184-80-4 4 4 4h16l-8-8-4 4h-4z" transform="translate(320 320)"/><path d="m500 312v4h4v-4l-4-4z"/><path d="m180-308v-8h-4v4l-4 4z" transform="translate(320 320)"/><path d="m176-132v-8h-4v16l4-4z" transform="translate(320 320)"/><path d="m176-192v-24l-4 4v4h-4v12h4l-4 4v8z" transform="translate(320 320)"/><path d="m168-168-4 4h4v4l4 4 4-4h8l-4-4v-8l-4-4h4v-4l4-4v-4h-8v4h-8z" transform="translate(320 320)"/><path d="m168-4h4v-8l-8 8z" transform="translate(320 320)"/><path d="m164-36h8l-4-4z" transform="translate(320 320)"/><path d="m164-100v16l4-4v-8l4-4 4 4h8l-8-8v-16l-4 4v4h-4l-4 4 4 4h-4z" transform="translate(320 320)"/><path d="m164-124v-12h-4v16l4 4h8z" transform="translate(320 320)"/><path d="m164-172 4-4h-8z" transform="translate(320 320)"/><path d="m160-56 8-8-8-8h-4v4l4 4z" transform="translate(320 320)"/><path d="m156-116v-8l-4-4v-8h-8l4 4v8l-4 4h4v12h4v-4l4 4h8z" transform="translate(320 320)"/><path d="m156-88v4l4 4v-16l-4 4z" transform="translate(320 320)"/><path d="m476 296v4l4-4-4-4z"/><path d="m156-156 4 4 4-4-8-8-4 4z" transform="translate(320 320)"/><path d="m148-172v8h8v-12h-8z" transform="translate(320 320)"/><path d="m148-196v8l4-4z" transform="translate(320 320)"/><path d="m152-16v-16l-4-4v16l-4 4z" transform="translate(320 320)"/><path d="m144-152-4 4h16l-8-8z" transform="translate(320 320)"/><path d="m144-280h16l-8-8z" transform="translate(320 320)"/><path d="m148-288h4l-8-8h-4v4l4 4z" transform="translate(320 320)"/><path d="m144-16-4 4h8z" transform="translate(320 320)"/><path d="m144-304-4 4 4 4z" transform="translate(320 320)"/><path d="m144-96h8l-8-8-8 8z" transform="translate(320 320)"/><path d="m140-196v-4h-8v12l4 4h8l-4-4z" transform="translate(320 320)"/><path d="m132-4h8l-4-4z" transform="translate(320 320)"/><path d="m456 236h4l-4-4-4 4z"/><path d="m456 156v-4h-4v4l4 4z"/><path d="m136-208-4-4-4 4z" transform="translate(320 320)"/><path d="m124-284 4 4h8l-4-4v-12h-8z" transform="translate(320 320)"/><path d="m124-292h-8l4 4z" transform="translate(320 320)"/><path d="m120-188h4v-16l-8 8v-8l-8-8 4-4-4-4-12 12h8l8 8v8l-4 4h8l4-4z" transform="translate(320 320)"/><path d="m432 292v-4l-4 4z"/><path d="m108-276 4 4h16l-16-16v-16l-4 4h-8v16z" transform="translate(320 320)"/><path d="m104-196h4l-8-8-8 8z" transform="translate(320 320)"/><path d="m96-176-4 4h8z" transform="translate(320 320)"/><path d="m96-100h4l-4-4h-8l-4 4z" transform="translate(320 320)"/><path d="m84-180-4-4h-8l-12 12h8l4-4 4 4h16z" transform="translate(320 320)"/><path d="m80-288h-4v4l16 16v-12h4l-4-4v-16h-4v4l-4 4 4 4z" transform="translate(320 320)"/><path d="m400 64v4h4z"/><path d="m80-188h8v-8h-4l-4 4z" transform="translate(320 320)"/><path d="m76-296h4l-4-4h-8v4z" transform="translate(320 320)"/><path d="m64-256 8-8v-16l-8 8z" transform="translate(320 320)"/><path d="m64-264h-8l4 4z" transform="translate(320 320)"/><path d="m376 216-4 4h4z"/><path d="m52-164v4h-12l4 4h8l4-4v8l4 4 4-4v-8l4-4-8-8z" transform="translate(320 320)"/><path d="m48-232v16l-4 4v8l12-12v-8l4-4v-16z" transform="translate(320 320)"/><path d="m52-284h-8l4 4z" transform="translate(320 320)"/><path d="m48-296h4v-4l-4-4h-8z" transform="translate(320 320)"/><path d="m44-108-4-4h-4v16h20z" transform="translate(320 320)"/><path d="m40-136-4-4v16h8l-4-4z" transform="translate(320 320)"/><path d="m40-280 4-4v-8h-8l-4-4v8z" transform="translate(320 320)"/><path d="m356 160h4v4h-4z"/><path d="m36-228-4-4v16l4 4v12h4v-16l-4-4z" transform="translate(320 320)"/><path d="m24-216 4 4 4-4z" transform="translate(320 320)"/><path d="m24-264-8 8h24l4-4v-12h-12z" transform="translate(320 320)"/><path d="m24-224v-8l-4-4-4 4v24l8 8h8l-8-8z" transform="translate(320 320)"/><path d="m16-248-4-4-12 12h12v-4l4 4h8z" transform="translate(320 320)"/><path d="m12-200h4l-4-4h-4v-4l-4-4v-8h-4v16h4v4z" transform="translate(320 320)"/><path d="m4-92-4-4v8h8z" transform="translate(320 320)"/><path d="m-4-268h8l20-20v-8l4-4-4-4-36 36z" transform="translate(320 320)"/><path d="m-12-196 8 8v-16l-4-4v-8l-4 4z" transform="translate(320 320)"/><path d="m308 152v-4l-4 4v4h4l4-4z"/><path d="m-12-156h8v-8h-8l-4 4z" transform="translate(320 320)"/><path d="m-20-204 4 4 4-4z" transform="translate(320 320)"/><path d="m-20-136v12l-4 4h16l-4-4v-24h-8l4 4-4 4z" transform="translate(320 320)"/><path d="m300 236v4h4z"/><path d="m-24-104-4 4h24l-12-12z" transform="translate(320 320)"/><path d="m-24-112h8l-4-4z" transform="translate(320 320)"/><path d="m-24-176 4-4v4h16v-4h-8l-4-4h-8l-8 8z" transform="translate(320 320)"/><path d="m-28-124 4-4v-4h-4l-4-4-4 4v12h8z" transform="translate(320 320)"/><path d="m-28-212-4 4v8h-8l12 12v-4h12l-12-12z" transform="translate(320 320)"/><path d="m-32-120-8 8h16z" transform="translate(320 320)"/><path d="m-40-152v8l12-12-8-8 8-8-16-16-8 8 12 12h-8l-4 4z" transform="translate(320 320)"/><path d="m-44-104h4l-8-8-4 4 4 4z" transform="translate(320 320)"/><path d="m-48-152 4 4 4-4z" transform="translate(320 320)"/><path d="m-48-308h12v-4h4l4-4h8l4-4h-16l-4 4h-8l-4 4h-8v8l4-4z" transform="translate(320 320)"/><path d="m-48-160h-8l4 4z" transform="translate(320 320)"/><path d="m-52-116 4-4h4v-12h-16v16l4 4h4z" transform="translate(320 320)"/><path d="m264 212h4l-4-4-4 4z"/><path d="m-64-100h-4l8 8h16l-8-8z" transform="translate(320 320)"/><path d="m-68-164-8 8 4 4h8l8 8h8z" transform="translate(320 320)"/><path d="m252 0h-4l4 4z"/><path d="m-76-140h8l-4-4z" transform="translate(320 320)"/><path d="m-72-184 8 8v-8l-4-4v-4h-12z" transform="translate(320 320)"/><path d="m-72-300h4l4-4v-8l-8 8v-4h-4v-8l-4 4v8l4 4z" transform="translate(320 320)"/><path d="m-80-128v-8l-4-4v16l-8 8h8l4 4h8l4-4v-16l-4-4-4 4v8l-4 4z" transform="translate(320 320)"/><path d="m-88-184h-8v8l8 8 4-4-4-4z" transform="translate(320 320)"/><path d="m-88-80h16l-4-4h8l-8-8v-4h-4l-8 8v-8h-4v12l-4 4z" transform="translate(320 320)"/><path d="m224 44v4h4v-4l-4-4z"/><path d="m-96-312v-8h-4v12h4z" transform="translate(320 320)"/><path d="m-100-188-4-4-4 4z" transform="translate(320 320)"/><path d="m-100-76h8l-8-8-8 8z" transform="translate(320 320)"/><path d="m-104-60h-4l-8-8-4 4h-8l-4-4v16h16l-4-4h16z" transform="translate(320 320)"/><path d="m-108-84 12-12-8-8v8l-12 12z" transform="translate(320 320)"/><path d="m-112-168v-8l-4-4v-4h-4v12h4z" transform="translate(320 320)"/><path d="m204 240h4l-4-4-4 4z"/><path d="m-120-144-4 4h8v8l-4 4h16l-4 4h16v-8l4-4v-4h-4l8-8h-12v12l-4 4-4-4v-20h-4v16l-4-4v-12h-4l4-4h-8z" transform="translate(320 320)"/><path d="m-120-168v8l4-4z" transform="translate(320 320)"/><path d="m-120-152h-8l4 4z" transform="translate(320 320)"/><path d="m-132-212v8l4-4z" transform="translate(320 320)"/><path d="m-136-24-4 4v8l4 4v8h4v-12l-4-4z" transform="translate(320 320)"/><path d="m-136-60h-4l-12-12-8 8v4h4l-4 4 12 12h4v-4l4 4h8l4-4-8-8z" transform="translate(320 320)"/><path d="m-140-180v24l-4 4v8l4 4 12-12v-8l-4-4h4v-20h-12z" transform="translate(320 320)"/><path d="m-140-196-4-4-4 4z" transform="translate(320 320)"/><path d="m176 316v-4l-4 4z"/><g transform="translate(320 320)"><path d="m-148-172 4 4 4-4z"/><path d="m-148-12v-8l-4 4z"/><path d="m-156-160v-4l-4-4v-4h-4l-4 4v12h12z"/><path d="m-164-76-4 4h12v-4l-4-4z"/><path d="m-160-216 4 4v8h8l8-8-4-4h-8l-8-8h-8z"/><path d="m-168-184h-4v4h12v-4l-4-4z"/><path d="m-176-216v8l8 8 4-4v-8l-4-4v-8z"/><path d="m-176-292h4l-4-4v-24l-8 8v16l4 4z"/><path d="m-184-184-4-4-4 4z"/><path d="m-192-208-8 8 4 4h8l4-4v-8z"/><path d="m-192-152v16l4-4v-8h8v-8l-8-8v-16l-8 8v-8l-4 4v8h4v4l4 4z"/><path d="m-192-284h4l-4-4v-12h-8v12l4 4z"/><path d="m-208-180v4l-4 4 4 4h4v-12l-4-4z"/><path d="m-212-256h12l-4-4h-8l-4-4-4 4v4z"/><path d="m-212-280h4v-16h-8v16l4 4z"/><path d="m-216-184v-8h-4v-4h-4v20z"/><path d="m-216-216h16v-8h-16l-8 8z"/><path d="m-232-40v8h4v-4l4-4z"/></g><path d="m88 308v4h4v-4l-4-4z"/><path d="m-232-20h4v-8l-8 8z" transform="translate(320 320)"/><path d="m-232-176v-16h-8v20h4z" transform="translate(320 320)"/><path d="m-236-144v-4l4-4v-8h-8v8l-4 4v4z" transform="translate(320 320)"/><path d="m80 316h4l-4-4z"/><path d="m-240-36v-12l4-4-4-4h-4v-8h-4v8l-4 4v4h8v12l4 4z" transform="translate(320 320)"/><path d="m-240-96v-12h-4v8l-4 4z" transform="translate(320 320)"/><path d="m-244-180v-8l-8-8v24z" transform="translate(320 320)"/><path d="m72 88v4h4z"/><g transform="translate(320 320)"><path d="m-252-36h8l-4-4z"/><path d="m-248-208v-8l-8-8v24z"/><path d="m-252-260h24l-8-8h-4v-4l-4 4h-16z"/><path d="m-256-60v-12h-8v16h8z"/><path d="m-260-156v24l-4 4h8v-4h4l4-4v-16l4-4v-8h-4v-8h-4v12h-4l4 4z"/><path d="m-256-104h8v-8l-4 4h-8l-4-4v20h4l4-4-4-4v-4z"/><path d="m-260-220-4-4h-8v16z"/><path d="m-264-288-4-4-4 4z"/><path d="m-276-84h8l-4-4z"/><path d="m-276-116v8l-4 4-4-4-8 8h12v4l-4 4h16v-24zm4 16v4l-4-4 4-4z"/><path d="m-276-140 8 8v-8z"/><path d="m-276-196 8 8v-8z"/><path d="m-280-232h8l-4-4z"/><path d="m-284-76v4h8v-4l-4-4z"/><path d="m-288-168 8 8v-8z"/><path d="m-288-256v8l-8 8v32l-8 8h20v-40h4l4-4h8l-4-4 8-8-4-4v-4h-4l-8 8-4-4h-4z"/><path d="m-288-124v-4l-8-8v-56h-16l8 8-4 4v24l4-4v8l4 4-4 4v16l4 4z"/><path d="m-296-72-4 4h8z"/><path d="m-296-48h4v-4l-4-4-4 4-4-4v8z"/></g><path d="m20 212-4 4h4z"/><path d="m20 104h-4l4 4z"/><path d="m16 84h-4l4 4z"/><path d="m12 20h4v4h-4z"/><path d="m-312-288-4 4h8l20-20-4-4z" transform="translate(320 320)"/><path d="m8 16h4v4h-4z"/><path d="m-308-4-4-4-4 4z" transform="translate(320 320)"/><path d="m4 12h4v4h-4z"/><path d="m-312-256 4-4v-12h-4l-4 4-4-4v16z" transform="translate(320 320)"/><path d="m-312-208h8v-8l-4-4v-16l12-12v-16l-4-4v16l-4 4h-8v4h-4l-4 4v32z" transform="translate(320 320)"/><path d="m-312-120h8l-4-4h-4v-4l-4-4-4 4v8z" transform="translate(320 320)"/><path d="m-316-108v8h8z" transform="translate(320 320)"/><path d="m0 8h4v4h-4z"/></g></svg>