<svg xmlns="http://www.w3.org/2000/svg" viewBox="0 0 1282 1282"><defs><style>.cls-1{fill:#3d403c;}.cls-2{fill:none;}</style></defs><g id="Layer_2" data-name="Layer 2"><g id="Layer_1-2" data-name="Layer 1"><path class="cls-1" d="M1274,961.5h-8l-8-8v-16l-8-8-16,16,16,16-8,8h16l8,8h16v-8h-8Z" transform="translate(0 0)"/><path class="cls-1" d="M1121.75,865.35v32l8,8,8-8v-32Z" transform="translate(0 0)"/><path class="cls-1" d="M1121.75,1274h-8l-24-24h-8v32h56.08l-8-8Z" transform="translate(0 0)"/><polygon class="cls-1" points="1121.75 729.14 1121.75 737.15 1129.76 737.15 1129.76 729.14 1121.75 721.13 1121.75 729.14"/><path class="cls-1" d="M1105.72,641l-16,16,8,8,24-24Z" transform="translate(0 0)"/><path class="cls-1" d="M1113.74,921.44h8v-8l-8-8v-16l-8-8v-16l-8,8v48.08Z" transform="translate(0 0)"/><path class="cls-1" d="M1105.72,769.2l-16-16v16Z" transform="translate(0 0)"/><polygon class="cls-1" points="1089.7 673.05 1097.71 665.04 1089.7 665.04 1089.7 673.05"/><path class="cls-1" d="M1089.7,1137.77l-8-8v32l8,8,8-8-8-8,8-8Z" transform="translate(0 0)"/><path class="cls-1" d="M1081.69,1217.9v24l8-8v-16l-8-8Z" transform="translate(0 0)"/><polygon class="cls-1" points="1081.69 953.49 1073.67 961.5 1081.69 961.5 1081.69 953.49"/><path class="cls-1" d="M1081.69,697.09l-8-8,8-8h-8V665h-8l-8,8V705.1l8-8Z" transform="translate(0 0)"/><path class="cls-1" d="M1073.67,913.42v-8h8l-8-8V857.34h-8v-16l-8-8v64.1l-8-8v-8h-8l8-8V825.29h-8v40.06l-8,8v48.08l8-8h16l-8-8h8v8l8,8h8Z" transform="translate(0 0)"/><polygon class="cls-1" points="1065.66 785.23 1073.67 785.23 1065.66 777.21 1065.66 785.23"/><path class="cls-1" d="M1065.66,921.44l-8,8h16Z" transform="translate(0 0)"/><path class="cls-1" d="M1065.66,649l-16-16v16l8,8Z" transform="translate(0 0)"/><path class="cls-1" d="M1041.62,641l-8,8h16Z" transform="translate(0 0)"/><path class="cls-1" d="M1041.62,721.12v-24h-8l-8,8,8,8h-8v24l8-8h16Z" transform="translate(0 0)"/><path class="cls-1" d="M1041.62,769.2l-8,8h16Z" transform="translate(0 0)"/><polygon class="cls-1" points="1041.63 809.26 1041.63 817.28 1049.64 809.26 1041.63 801.25 1041.63 809.26"/><path class="cls-1" d="M1033.61,1177.84h16l-8-8Z" transform="translate(0 0)"/><path class="cls-1" d="M1033.61,953.49l8,8v16l8-8v-16l-16-16Z" transform="translate(0 0)"/><polygon class="cls-1" points="1033.61 857.34 1025.6 849.33 1017.59 849.33 1017.59 857.34 1025.6 865.35 1033.61 857.34"/><path class="cls-1" d="M1025.6,937.46h24l-16-16-8,8Z" transform="translate(0 0)"/><path class="cls-1" d="M1025.6,1089.7l-8,8v16l16-16Z" transform="translate(0 0)"/><path class="cls-1" d="M1009.57,785.22h-8v8h16Z" transform="translate(0 0)"/><path class="cls-1" d="M1009.57,945.47l-8,8h16Z" transform="translate(0 0)"/><path class="cls-1" d="M1001.56,889.39l8,8,8-8Z" transform="translate(0 0)"/><polygon class="cls-1" points="1001.56 993.55 1001.56 985.54 993.55 993.55 1001.56 993.55"/><path class="cls-1" d="M985.54,1161.81h16l-8-8Z" transform="translate(0 0)"/><path class="cls-1" d="M993.55,1057.65v-16l-8,8Z" transform="translate(0 0)"/><polygon class="cls-1" points="993.55 1017.59 993.55 1009.58 985.54 1017.59 993.55 1025.6 993.55 1017.59"/><path class="cls-1" d="M993.55,921.44V817.27l-8,8v96.15l8,8Z" transform="translate(0 0)"/><path class="cls-1" d="M993.55,777.21v-24l8-8,8,8h16l-8-8h-8v-8l8,8v-16h-8v-16h-16v8l-8,8v16l8-8v8h-8v48.08l8-8Z" transform="translate(0 0)"/><polygon class="cls-1" points="985.54 721.13 993.55 721.13 985.54 713.11 985.54 721.13"/><path class="cls-1" d="M985.54,1209.89v-16l-8,8Z" transform="translate(0 0)"/><path class="cls-1" d="M985.54,1121.75v-40.06l-16,16,8,8v24h-8l8,8,8-8Z" transform="translate(0 0)"/><path class="cls-1" d="M977.52,1266v16h8v-24h-8Z" transform="translate(0 0)"/><path class="cls-1" d="M977.52,1225.91h8v-16l-8,8Z" transform="translate(0 0)"/><path class="cls-1" d="M977.52,1161.81v-24l-8,8v16l8,8Z" transform="translate(0 0)"/><path class="cls-1" d="M937.46,649h16l-8-8Z" transform="translate(0 0)"/><polygon class="cls-1" points="913.42 1161.81 913.42 1153.8 905.41 1161.81 913.42 1161.81"/><path class="cls-1" d="M881.37,1169.82h16l-8-8Z" transform="translate(0 0)"/><path class="cls-1" d="M849.32,897.4l-16-16v-16h-8v24l16,16-8,8h32.05v-16l-8-8Z" transform="translate(0 0)"/><polygon class="cls-1" points="849.33 921.44 857.34 921.44 849.33 913.43 841.31 921.44 849.33 921.44"/><path class="cls-1" d="M833.3,1113.74v-40.07l-8,8v16h-8v40.06h24v-8l-8-8,8-8Z" transform="translate(0 0)"/><path class="cls-1" d="M825.29,945.47h8l-8-8h-16l8,8Z" transform="translate(0 0)"/><polygon class="cls-1" points="817.27 905.41 825.29 905.41 817.27 897.4 809.26 905.41 817.27 905.41"/><path class="cls-1" d="M809.26,1113.74v-16l-8,8Z" transform="translate(0 0)"/><path class="cls-1" d="M801.25,881.38v-8h-8v16l8,8h16Z" transform="translate(0 0)"/><polygon class="cls-1" points="801.25 1161.81 809.26 1161.81 801.25 1153.8 793.24 1161.81 801.25 1161.81"/><path class="cls-1" d="M793.24,1145.79h-8v8h16l8-8v-16Z" transform="translate(0 0)"/><path class="cls-1" d="M769.2,1153.8h-16v16h32.05Z" transform="translate(0 0)"/><polygon class="cls-1" points="769.2 905.41 777.21 905.41 769.2 897.4 761.19 905.41 769.2 905.41"/><path class="cls-1" d="M761.19,897.4h8l-8-8,8-8v-16h-8v8l-8,8v-16l-8-8h-8v24l-8,8h16l-8,8Z" transform="translate(0 0)"/><path class="cls-1" d="M721.12,1153.8v16h16v-16l-8-8Z" transform="translate(0 0)"/><path class="cls-1" d="M705.1,1185.85h16l-8-8Z" transform="translate(0 0)"/><path class="cls-1" d="M713.11,1161.81v-8h-8l-8,8h-16v16l-16,16h32.05l-8-8,8-8h16Z" transform="translate(0 0)"/><path class="cls-1" d="M713.11,825.29l16-16v-8h-24l8-8h-16v32l8,8v16l-16,16h32v-16l-8-8Z" transform="translate(0 0)"/><polygon class="cls-1" points="697.09 1033.61 705.1 1033.61 705.1 1025.6 697.09 1017.59 689.08 1017.59 689.08 1009.58 681.06 1017.59 689.08 1025.6 689.08 1033.61 697.09 1033.61"/><path class="cls-1" d="M689.07,817.27v-24h-8v8h-8Z" transform="translate(0 0)"/><path class="cls-1" d="M673.05,833.3l-8-8-8,8,16,16Z" transform="translate(0 0)"/><path class="cls-1" d="M665,873.36h16v-16l-8-8-8,8H633l-8,8v16l8-8h16l8-8v8Z" transform="translate(0 0)"/><path class="cls-1" d="M641,833.3l-8,8h24v-8Z" transform="translate(0 0)"/><path class="cls-1" d="M633,1169.82h-8v16h24v-16Z" transform="translate(0 0)"/><path class="cls-1" d="M641,817.27l16-16v-24h-8v8h-8l-24,24h8v8l8-8v8Z" transform="translate(0 0)"/><polygon class="cls-1" points="632.99 1193.86 624.98 1185.85 624.98 1193.86 632.99 1193.86"/><path class="cls-1" d="M609,1017.59v8l16-16v-8h-8l-8,8Z" transform="translate(0 0)"/><path class="cls-1" d="M609,1201.88l-8,8v-24h-16v24l8,8H625Z" transform="translate(0 0)"/><path class="cls-1" d="M592.92,849.32l-8,8,8,8,16-16v-16l-8,8V785.22h-8v32l-8,8v16l-8,8Z" transform="translate(0 0)"/><path class="cls-1" d="M568.89,1193.86l-24,24v8h24v-16l8-8v-16h-8Z" transform="translate(0 0)"/><path class="cls-1" d="M576.9,833.3v-16l8-8v-32l-8-8-8,8h-8v8l8,8v32l-8,8Z" transform="translate(0 0)"/><path class="cls-1" d="M544.85,1201.88v-24h-8l-16,16v16l8-8,16,16Z" transform="translate(0 0)"/><path class="cls-1" d="M528.83,825.29h24v-16l8-8h-8v-24l-8,8-16-16-8,8v32l-16-16v8h-8l8-8v-32l-8-8v32.05l-16-16v-8h-8l-8,8,8,8v16l16,16h-8v24l8-8h16l-8-8h24v8Z" transform="translate(0 0)"/><path class="cls-1" d="M504.79,1217.9v8h16l-8-8Z" transform="translate(0 0)"/><path class="cls-1" d="M496.77,1201.88l-8,8h16Z" transform="translate(0 0)"/><path class="cls-1" d="M496.77,929.45v-16l-8,8Z" transform="translate(0 0)"/><path class="cls-1" d="M496.77,1169.82h8v-8h-8v-8h-16l-16,16Z" transform="translate(0 0)"/><path class="cls-1" d="M480.75,881.38l-8-8v-24h-8v32.06Z" transform="translate(0 0)"/><path class="cls-1" d="M456.71,889.39v-16l-8-8-8,8h-8v24h32.05Z" transform="translate(0 0)"/><path class="cls-1" d="M456.71,825.29l8,8v-16l-8-8h-16l8,8h-8v8Z" transform="translate(0 0)"/><path class="cls-1" d="M440.69,1161.81v48.08l8-8v-32.06l8-8-8-8Z" transform="translate(0 0)"/><path class="cls-1" d="M440.69,1129.76h16l-8-8Z" transform="translate(0 0)"/><path class="cls-1" d="M432.67,1209.89v-40.07l-8,8-8-8h-8v16h-8l24,24-8,8-16-16v-16l-8,8v8h-16v8l8,8-16,16h32l-8-8v-16l16,16h32.05l-8-8Z" transform="translate(0 0)"/><polygon class="cls-1" points="432.68 1089.7 424.66 1097.71 432.68 1097.71 432.68 1089.7"/><path class="cls-1" d="M424.66,1113.74v-32h-16v40.06h8Z" transform="translate(0 0)"/><path class="cls-1" d="M416.65,905.41h8v-32l-8,8-8-8-8,8v32l8-8Z" transform="translate(0 0)"/><path class="cls-1" d="M416.65,833.3v-8h-8l-8,8v24h24l-8-8Z" transform="translate(0 0)"/><path class="cls-1" d="M400.62,1169.82l-8,8,8,8Z" transform="translate(0 0)"/><path class="cls-1" d="M400.62,1129.76h8l-8-8v-32l-8,8h-8v24l8,8Z" transform="translate(0 0)"/><path class="cls-1" d="M392.61,953.49v-16l-8,8Z" transform="translate(0 0)"/><path class="cls-1" d="M392.61,1081.69l-8-8-8,8Z" transform="translate(0 0)"/><path class="cls-1" d="M376.59,1137.77h8l-16-16,8-8h-8v-8l-16,16v8h8l8,8Z" transform="translate(0 0)"/><path class="cls-1" d="M368.58,905.41v24l8,8h8v-24l-8-8Z" transform="translate(0 0)"/><path class="cls-1" d="M376.59,1049.64h16l-8-8H352.55l8,8Z" transform="translate(0 0)"/><path class="cls-1" d="M376.59,1065.66h16v-16l-8,8h-16l-8-8v16Z" transform="translate(0 0)"/><polygon class="cls-1" points="368.57 1073.68 360.56 1065.66 360.56 1073.68 368.57 1073.68"/><path class="cls-1" d="M352.55,993.55H384.6l-8-8h-16Z" transform="translate(0 0)"/><path class="cls-1" d="M360.56,937.46V905.41l-8,8-8-8v32.05l8,8Z" transform="translate(0 0)"/><path class="cls-1" d="M352.55,1081.69v-16h-8v8h-8l-8,8v16l8-8h16Z" transform="translate(0 0)"/><path class="cls-1" d="M344.54,1217.9h-8v8h8l8,8,8-8v-16l-8,8Z" transform="translate(0 0)"/><path class="cls-1" d="M336.52,1105.72h16l-8-8Z" transform="translate(0 0)"/><path class="cls-1" d="M336.52,1129.76v-8h-32v8h-8l16,16v-8h8l8,8,8-8Z" transform="translate(0 0)"/><path class="cls-1" d="M312.49,1089.7h-8v8h24l-8-8Z" transform="translate(0 0)"/><path class="cls-1" d="M304.47,1209.89v8l16,16v-16l-8-8Z" transform="translate(0 0)"/><polygon class="cls-1" points="304.48 665.04 312.49 665.04 304.48 657.03 296.46 665.04 304.48 665.04"/><path class="cls-1" d="M280.44,1129.76v24h16v-24l-8,8Z" transform="translate(0 0)"/><path class="cls-1" d="M280.44,1177.84h-16l-8,8h8v8h8v8h8v8h8v-16h8Z" transform="translate(0 0)"/><path class="cls-1" d="M272.42,1105.72h16v-16l-8,8-8-8Z" transform="translate(0 0)"/><path class="cls-1" d="M264.41,1129.76l-8,8v-16l-8-8v-8h8l16-16h-32l8-8h-32l8-8-16-16v32l8,8v32l-8,8h16l8-8v-16l8-8v32l8,8v8h8l24-24Z" transform="translate(0 0)"/><path class="cls-1" d="M200.31,1105.72v-40.06h-8v56.09h16l-8-8,8-8Z" transform="translate(0 0)"/><path class="cls-1" d="M192.3,1137.77h16l-8-8Z" transform="translate(0 0)"/><polygon class="cls-1" points="192.3 1057.65 200.31 1065.66 200.31 1057.65 192.3 1057.65"/><path class="cls-1" d="M192.3,1258v-8l-8,8v8h-8v16l8-8h16l-8-8Z" transform="translate(0 0)"/><polygon class="cls-1" points="192.3 1241.94 192.3 1233.93 184.29 1241.94 192.3 1241.94"/><path class="cls-1" d="M184.29,1121.75v-56.09l-8,8v48.08l8,8Z" transform="translate(0 0)"/><path class="cls-1" d="M184.29,1145.79l-16-16v-32l-8-8v64.1h16Z" transform="translate(0 0)"/><path class="cls-1" d="M136.21,649v16l-8,8h16l8-8Z" transform="translate(0 0)"/><path class="cls-1" d="M64.1,1105.72h-16l8,8v8h-8l8,8v64.1h24v-24h-16l8-8h8v-56.09Z" transform="translate(0 0)"/><path class="cls-1" d="M56.09,1225.91h16l-8-8Z" transform="translate(0 0)"/><path class="cls-1" d="M48.08,1201.88v-16h-8v8H24l-8,8,8,8v8h24l8-8Z" transform="translate(0 0)"/><path class="cls-1" d="M40.06,1129.76v-16l-8,8Z" transform="translate(0 0)"/><path class="cls-1" d="M1274,504.79h-16l-8,8h-8v8l-16,16H1274l-8,8h16v-16l-8-8,8-8Z" transform="translate(0 0)"/><polygon class="cls-1" points="1265.97 232.36 1257.96 232.36 1265.97 240.38 1273.99 232.36 1265.97 232.36"/><path class="cls-1" d="M1266,560.88h-16l-8,8,16,16h24v-16h-8Z" transform="translate(0 0)"/><path class="cls-1" d="M1266,256.4h-16l8,8Z" transform="translate(0 0)"/><path class="cls-1" d="M1258,400.62h-8v16h16l8-8h-8v-8Z" transform="translate(0 0)"/><path class="cls-1" d="M1266,192.3h16l-16-16-16,16Z" transform="translate(0 0)"/><path class="cls-1" d="M1233.92,576.9l-8,8h24v-8Z" transform="translate(0 0)"/><path class="cls-1" d="M1233.92,432.67h16l-8-8V392.61l-8,8h-32.05v32.05l-8,8h16l8-8v8h8V408.64l8,8Z" transform="translate(0 0)"/><path class="cls-1" d="M1233.92,264.41v48.08h8V264.41l8-8v-32l-8,8-8-8v24h-8l8,8Z" transform="translate(0 0)"/><path class="cls-1" d="M1225.91,280.44h-16l8,8Z" transform="translate(0 0)"/><path class="cls-1" d="M1217.9,496.77l-16,16h16l8-8Z" transform="translate(0 0)"/><path class="cls-1" d="M1209.89,488.76v-16h-16l-16,16,8,8h16Z" transform="translate(0 0)"/><path class="cls-1" d="M1193.86,240.38v88.13l-32,32.05h24v-8l24,24,8-8h16l-8-8,16-16-16-16v-16l-16-16V248.39l-16-16Z" transform="translate(0 0)"/><path class="cls-1" d="M1185.85,416.65l8,8,8-8Z" transform="translate(0 0)"/><path class="cls-1" d="M1177.84,88.14h16l-8-8Z" transform="translate(0 0)"/><path class="cls-1" d="M1185.85,448.7h-8v-8l-24,24h16Z" transform="translate(0 0)"/><path class="cls-1" d="M1185.85,16l-16-16V16Z" transform="translate(0 0)"/><path class="cls-1" d="M1169.82,272.42v16l-24,24v32.05l-8,8h16l24-24v-16l8-8V232.36h-8l-8-8v24h-8l8,8Z" transform="translate(0 0)"/><path class="cls-1" d="M1161.81,376.59v16l-8,8v16l8,8,16-16v-24h-8Z" transform="translate(0 0)"/><path class="cls-1" d="M1161.81,440.69h-16v-8h-8l-16,16,8,8h8v-8l8,8Z" transform="translate(0 0)"/><path class="cls-1" d="M1137.77,416.65h8v-32h-8Z" transform="translate(0 0)"/><path class="cls-1" d="M1137.77,432.67l8-8-8-8Z" transform="translate(0 0)"/><path class="cls-1" d="M1137.77,232.36v40.06l-16,16h-8v-8l-8,8v16l-8,8,8,8h8v8l8,8,16-16v-16l-8,8h-16l40.06-40.07V224.35l-8-8-8,8Z" transform="translate(0 0)"/><path class="cls-1" d="M1137.77,400.62h-16l8,8Z" transform="translate(0 0)"/><path class="cls-1" d="M1129.76,625V592.92h-8l-8,8,8,8-8,8h8v8l-8,8,8,8,8-8Z" transform="translate(0 0)"/><polygon class="cls-1" points="1129.76 520.81 1121.75 528.83 1129.76 528.83 1129.76 520.81"/><polygon class="cls-1" points="1129.76 464.73 1137.78 464.73 1129.76 456.71 1121.75 464.73 1129.76 464.73"/><path class="cls-1" d="M1129.76,424.66h-8V384.6l-8-8h-16l8,8v48.07l-8,8h32l-8-8Z" transform="translate(0 0)"/><path class="cls-1" d="M1129.76,264.41l-8-8-8,8Z" transform="translate(0 0)"/><path class="cls-1" d="M1121.75,568.89v8l8,8v-32l-8,8Z" transform="translate(0 0)"/><path class="cls-1" d="M1113.74,40.06l-8-8-8,8Z" transform="translate(0 0)"/><path class="cls-1" d="M1105.72,192.3v16h8v-8Z" transform="translate(0 0)"/><path class="cls-1" d="M1105.72,88.14v8l16,16v-16l-8-8,16-16-24-24v32l-8,8Z" transform="translate(0 0)"/><path class="cls-1" d="M1105.72,24h8l24-24h-16l-8,8h-16l-8,8,8,8Z" transform="translate(0 0)"/><path class="cls-1" d="M1089.7,368.58h-16l16,16,8-8v-8Z" transform="translate(0 0)"/><path class="cls-1" d="M1089.7,328.51v8l8-8v-16l-8,8Z" transform="translate(0 0)"/><path class="cls-1" d="M1089.7,448.7l-8-8-8,8Z" transform="translate(0 0)"/><path class="cls-1" d="M1073.67,432.67h16l-8-8Z" transform="translate(0 0)"/><path class="cls-1" d="M1073.67,200.31h-8l-8,8h32v-16l-8,8Z" transform="translate(0 0)"/><path class="cls-1" d="M1081.69,280.44h-32l16,16Z" transform="translate(0 0)"/><polygon class="cls-1" points="1073.67 456.71 1081.69 456.71 1073.67 448.7 1065.66 456.71 1073.67 456.71"/><path class="cls-1" d="M1065.66,352.55h-24l16,16,16-16Z" transform="translate(0 0)"/><path class="cls-1" d="M1057.65,440.69v8h-16v8h24v-8h8l-8-8Z" transform="translate(0 0)"/><path class="cls-1" d="M1041.62,432.67h16l-16-16-16,16Z" transform="translate(0 0)"/><path class="cls-1" d="M1041.62,560.88l-8-8h-16v16l8-8Z" transform="translate(0 0)"/><path class="cls-1" d="M1033.61,40.06h48.08l-24-24h-40.06v24Z" transform="translate(0 0)"/><path class="cls-1" d="M1033.61,536.84v-16l-8,8v8Z" transform="translate(0 0)"/><path class="cls-1" d="M1017.59,584.91h16v-16Z" transform="translate(0 0)"/><path class="cls-1" d="M1025.6,320.5l16-16h-32Z" transform="translate(0 0)"/><path class="cls-1" d="M1025.6,64.1l-8-8-8,8Z" transform="translate(0 0)"/><path class="cls-1" d="M1009.57,512.8h16l-8-8Z" transform="translate(0 0)"/><path class="cls-1" d="M1009.57,360.56v24l8,8V344.54l-8,8Z" transform="translate(0 0)"/><path class="cls-1" d="M1009.57,424.66v8l8,8h16l-8-8V400.62h-8v8l-8,8Z" transform="translate(0 0)"/><path class="cls-1" d="M1009.57,480.75l-8,8,8,8h32l-16-16-8,8h-8Z" transform="translate(0 0)"/><polygon class="cls-1" points="1001.56 624.98 1001.56 632.99 1009.58 632.99 1009.58 624.98 1001.56 616.96 1001.56 624.98"/><path class="cls-1" d="M1001.56,24V8h-8v8l-8,8Z" transform="translate(0 0)"/><path class="cls-1" d="M993.55,376.59v-16h-8v32.05l8-8Z" transform="translate(0 0)"/><path class="cls-1" d="M993.55,256.4V208.33l-8,8v8h-8v24h8l-8,8v16Z" transform="translate(0 0)"/><path class="cls-1" d="M977.52,304.47l-8,8h8v8l8,8,8-8h16l-8-8v-16l-8-8h8v-8l8-8v-8h-16v8h-16Z" transform="translate(0 0)"/><path class="cls-1" d="M977.52,633h8V617l-16,16Z" transform="translate(0 0)"/><path class="cls-1" d="M969.51,568.89h16l-8-8Z" transform="translate(0 0)"/><path class="cls-1" d="M969.51,440.69v32.05l8-8v-16l8-8,8,8h16l-16-16V400.62l-8,8v8h-8l-8,8,8,8h-8Z" transform="translate(0 0)"/><path class="cls-1" d="M969.51,392.61v-24h-8v32l8,8h16Z" transform="translate(0 0)"/><path class="cls-1" d="M969.51,296.46l8-8h-16Z" transform="translate(0 0)"/><path class="cls-1" d="M961.5,528.83l16-16-16-16h-8v8l8,8Z" transform="translate(0 0)"/><path class="cls-1" d="M953.49,408.64v-16l-8-8v-16h-16l8,8v16l-8,8h8v24h8v-8l8,8h16Z" transform="translate(0 0)"/><path class="cls-1" d="M953.49,464.72v8l8,8V448.7l-8,8Z" transform="translate(0 0)"/><polygon class="cls-1" points="953.49 592.93 953.49 600.94 961.5 592.93 953.49 584.91 953.49 592.93"/><path class="cls-1" d="M953.49,328.51l8,8,8-8-16-16-8,8Z" transform="translate(0 0)"/><path class="cls-1" d="M937.46,296.46v16h16v-24h-16Z" transform="translate(0 0)"/><path class="cls-1" d="M937.46,248.39v16l8-8Z" transform="translate(0 0)"/><path class="cls-1" d="M945.47,609V576.9l-8-8v32.05l-8,8Z" transform="translate(0 0)"/><path class="cls-1" d="M929.45,336.52l-8,8h32l-16-16Z" transform="translate(0 0)"/><path class="cls-1" d="M929.45,80.12h32l-16-16Z" transform="translate(0 0)"/><path class="cls-1" d="M937.46,64.1h8l-16-16h-8v8l8,8Z" transform="translate(0 0)"/><path class="cls-1" d="M929.45,609l-8,8h16Z" transform="translate(0 0)"/><path class="cls-1" d="M929.45,32.05l-8,8,8,8Z" transform="translate(0 0)"/><path class="cls-1" d="M929.45,448.7h16l-16-16c-4,4-12,12-16,16Z" transform="translate(0 0)"/><path class="cls-1" d="M921.44,248.39v-8h-16v24l8,8h16l-8-8Z" transform="translate(0 0)"/><path class="cls-1" d="M905.41,633h16l-8-8Z" transform="translate(0 0)"/><polygon class="cls-1" points="913.42 472.74 921.44 472.74 913.42 464.73 905.41 472.74 913.42 472.74"/><polygon class="cls-1" points="913.42 312.49 913.42 304.48 905.41 304.48 905.41 312.49 913.42 320.5 913.42 312.49"/><path class="cls-1" d="M913.42,224.35l-8-8-8,8Z" transform="translate(0 0)"/><path class="cls-1" d="M889.39,72.11l8,8h16l-8-8v-24h-16Z" transform="translate(0 0)"/><path class="cls-1" d="M889.39,56.09h-16l8,8Z" transform="translate(0 0)"/><path class="cls-1" d="M881.37,264.41h8V232.36l-16,16v-16l-16-16,8-8-8-8-24,24h16l16,16v16l-8,8h16l8-8Z" transform="translate(0 0)"/><polygon class="cls-1" points="865.35 584.91 865.35 576.9 857.34 584.91 865.35 584.91"/><path class="cls-1" d="M857.34,88.14l8,8h32l-32-32.05v-32l-8,8h-16V72.11Z" transform="translate(0 0)"/><path class="cls-1" d="M849.32,248.39h8l-16-16-16,16Z" transform="translate(0 0)"/><path class="cls-1" d="M833.3,288.45l-8,8h16Z" transform="translate(0 0)"/><path class="cls-1" d="M833.3,440.69h8l-8-8h-16l-8,8Z" transform="translate(0 0)"/><path class="cls-1" d="M809.26,280.44l-8-8h-16l-24,24h16l8-8,8,8h32Z" transform="translate(0 0)"/><path class="cls-1" d="M801.25,64.1h-8v8l32,32.05v-24h8l-8-8v-32h-8v8l-8,8,8,8Z" transform="translate(0 0)"/><polygon class="cls-1" points="801.25 128.2 801.25 136.21 809.26 136.21 801.25 128.2"/><path class="cls-1" d="M801.25,264.41h16v-16h-8l-8,8Z" transform="translate(0 0)"/><path class="cls-1" d="M793.24,48.08h8l-8-8h-16v8Z" transform="translate(0 0)"/><path class="cls-1" d="M769.2,128.2l16-16v-32l-16,16Z" transform="translate(0 0)"/><path class="cls-1" d="M769.2,112.17h-16l8,8Z" transform="translate(0 0)"/><polygon class="cls-1" points="753.17 432.68 745.16 440.69 753.17 440.69 753.17 432.68"/><path class="cls-1" d="M745.16,312.49v8h-24l8,8h16l8-8v16l8,8,8-8v-16l8-8-16-16Z" transform="translate(0 0)"/><path class="cls-1" d="M737.15,176.27v32.06l-8,8v16l24-24v-16l8-8v-32Z" transform="translate(0 0)"/><path class="cls-1" d="M745.16,72.11h-16l8,8Z" transform="translate(0 0)"/><path class="cls-1" d="M737.15,48.08h8v-8l-8-8h-16Z" transform="translate(0 0)"/><path class="cls-1" d="M729.14,424.66l-8-8h-8V448.7h40.06Z" transform="translate(0 0)"/><path class="cls-1" d="M721.12,368.58l-8-8v32.05h16l-8-8Z" transform="translate(0 0)"/><path class="cls-1" d="M721.12,80.12l8-8v-16h-16l-8-8v16Z" transform="translate(0 0)"/><rect class="cls-1" x="713.11" y="320.5" width="8.01" height="8.01"/><path class="cls-1" d="M713.11,184.29l-8-8v32.06l8,8v24h8v-32l-8-8Z" transform="translate(0 0)"/><path class="cls-1" d="M689.07,208.33l8,8,8-8Z" transform="translate(0 0)"/><path class="cls-1" d="M689.07,112.17l-16,16h48.07l8-8v-24h-24Z" transform="translate(0 0)"/><path class="cls-1" d="M689.07,192.3v-16l-8-8-8,8v48.08l16,16h16l-16-16Z" transform="translate(0 0)"/><path class="cls-1" d="M673.05,144.22l-8-8-24,24h24v-8l8,8h16Z" transform="translate(0 0)"/><path class="cls-1" d="M665,240.38h8l-8-8h-8v-8l-8-8v-16h-8v32.05h8v8Z" transform="translate(0 0)"/><path class="cls-1" d="M649,456.71l-8-8v16h16Z" transform="translate(0 0)"/><path class="cls-1" d="M633,104.16h16C661.86,91.32,676.23,77,689.07,64.1v-16l8-8-8-8C665.32,55.81,640.72,80.4,617,104.16Z" transform="translate(0 0)"/><path class="cls-1" d="M617,248.39l16,16V232.36l-8-8v-16l-8,8Z" transform="translate(0 0)"/><polygon class="cls-1" points="616.96 304.48 616.96 296.46 608.95 304.48 608.95 312.49 616.96 312.49 624.98 304.48 616.96 304.48"/><path class="cls-1" d="M617,328.51h16v-16H617l-8,8Z" transform="translate(0 0)"/><path class="cls-1" d="M600.94,232.36l8,8,8-8Z" transform="translate(0 0)"/><path class="cls-1" d="M600.94,368.58v24l-8,8H625l-8-8V344.54h-16l8,8-8,8Z" transform="translate(0 0)"/><polygon class="cls-1" points="600.94 472.74 600.94 480.75 608.95 480.75 600.94 472.74"/><path class="cls-1" d="M592.92,432.67l-8,8H633l-24-24Z" transform="translate(0 0)"/><path class="cls-1" d="M592.92,416.65h16l-8-8Z" transform="translate(0 0)"/><path class="cls-1" d="M592.92,288.45l8-8v8h32v-8H617l-8-8h-16l-16,16Z" transform="translate(0 0)"/><path class="cls-1" d="M584.91,392.61l8-8v-8h-8l-8-8-8,8v24h16Z" transform="translate(0 0)"/><path class="cls-1" d="M584.91,216.34l-8,8v16h-16l24,24v-8h24l-24-24Z" transform="translate(0 0)"/><path class="cls-1" d="M576.9,400.62l-16,16h32Z" transform="translate(0 0)"/><path class="cls-1" d="M560.88,336.52v16l24-24-16-16,16-16-32-32-16,16,24,24h-16l-8,8Z" transform="translate(0 0)"/><path class="cls-1" d="M552.86,432.67h8l-16-16-8,8,8,8Z" transform="translate(0 0)"/><path class="cls-1" d="M544.85,336.52l8,8,8-8Z" transform="translate(0 0)"/><path class="cls-1" d="M544.85,24h24V16h8l8-8h16l8-8H576.9l-8,8h-16l-8,8h-16v16l8-8Z" transform="translate(0 0)"/><path class="cls-1" d="M544.85,320.5h-16l8,8Z" transform="translate(0 0)"/><path class="cls-1" d="M536.84,408.64l8-8h8v-24H520.81v32.05l8,8h8Z" transform="translate(0 0)"/><polygon class="cls-1" points="528.83 424.66 536.84 424.66 528.83 416.65 520.81 424.66 528.83 424.66"/><path class="cls-1" d="M512.8,440.69h-8l16,16h32.05l-16-16Z" transform="translate(0 0)"/><path class="cls-1" d="M504.79,312.49l-16,16,8,8h16l16,16h16Z" transform="translate(0 0)"/><polygon class="cls-1" points="504.79 0 496.77 0 504.79 8.01 504.79 0"/><path class="cls-1" d="M488.76,360.56h16l-8-8Z" transform="translate(0 0)"/><path class="cls-1" d="M496.77,272.42l16,16v-16l-8-8v-8h-24Z" transform="translate(0 0)"/><path class="cls-1" d="M496.77,40.06h8l8-8V16l-16,16V24h-8V8l-8,8v16l8,8Z" transform="translate(0 0)"/><path class="cls-1" d="M480.75,384.6v-16l-8-8v32.05l-16,16h16l8,8h16l8-8V376.59l-8-8-8,8v16l-8,8Z" transform="translate(0 0)"/><path class="cls-1" d="M464.72,272.42h-16v16l16,16,8-8-8-8Z" transform="translate(0 0)"/><path class="cls-1" d="M464.72,480.75h32l-8-8h16l-16-16v-8h-8l-16,16v-16h-8v24l-8,8Z" transform="translate(0 0)"/><polygon class="cls-1" points="448.7 88.14 448.7 96.15 456.71 96.15 456.71 88.14 448.7 80.13 448.7 88.14"/><path class="cls-1" d="M448.7,16V0h-8V24h8Z" transform="translate(0 0)"/><path class="cls-1" d="M440.69,264.41l-8-8-8,8Z" transform="translate(0 0)"/><path class="cls-1" d="M440.69,488.76h16l-16-16-16,16Z" transform="translate(0 0)"/><path class="cls-1" d="M432.67,520.81h-8l-16-16-8,8h-16l-8-8v32.05h32.05l-8-8h32.05Z" transform="translate(0 0)"/><path class="cls-1" d="M424.66,472.74l24-24-16-16v16l-24,24Z" transform="translate(0 0)"/><path class="cls-1" d="M416.65,304.47v-16l-8-8v-8h-8v24h8Z" transform="translate(0 0)"/><polygon class="cls-1" points="408.64 480.75 416.65 480.75 408.64 472.74 400.63 480.75 408.64 480.75"/><path class="cls-1" d="M400.62,352.55l-8,8h16v16l-8,8h32.05l-8,8h32v-16l8-8v-8h-8l16-16h-24v24l-8,8-8-8V328.51h-8v32.05l-8-8v-24h-8l8-8h-16Z" transform="translate(0 0)"/><path class="cls-1" d="M400.62,304.47v16l8-8Z" transform="translate(0 0)"/><path class="cls-1" d="M400.62,336.52h-16l8,8Z" transform="translate(0 0)"/><path class="cls-1" d="M376.59,216.34v16l8-8Z" transform="translate(0 0)"/><path class="cls-1" d="M368.58,592.92l-8,8v16l8,8v16h8V617l-8-8Z" transform="translate(0 0)"/><path class="cls-1" d="M368.58,520.81h-8l-24-24-16,16v8h8l-8,8,24,24h8v-8l8,8h16l8-8-16-16Z" transform="translate(0 0)"/><path class="cls-1" d="M360.56,280.44v48.07l-8,8v16l8,8,24-24v-16l-8-8h8V272.42h-24Z" transform="translate(0 0)"/><path class="cls-1" d="M360.56,248.39l-8-8-8,8Z" transform="translate(0 0)"/><polygon class="cls-1" points="352.55 632.99 352.55 624.98 344.54 632.99 352.55 632.99"/><path class="cls-1" d="M344.54,296.46l8,8,8-8Z" transform="translate(0 0)"/><path class="cls-1" d="M344.54,617v-16l-8,8Z" transform="translate(0 0)"/><path class="cls-1" d="M328.51,320.5v-8l-8-8v-8h-8l-8,8v24h24Z" transform="translate(0 0)"/><path class="cls-1" d="M312.49,488.76l-8,8h24v-8l-8-8Z" transform="translate(0 0)"/><path class="cls-1" d="M320.5,208.33l8,8v16h16l16-16-8-8h-16l-16-16h-16Z" transform="translate(0 0)"/><path class="cls-1" d="M304.47,272.42h-8v8h24v-8l-8-8Z" transform="translate(0 0)"/><path class="cls-1" d="M288.45,208.33v16l16,16,8-8v-16l-8-8v-16Z" transform="translate(0 0)"/><path class="cls-1" d="M288.45,56.09h8l-8-8V0l-16,16V48.08l8,8Z" transform="translate(0 0)"/><path class="cls-1" d="M272.42,272.42l-8-8-8,8Z" transform="translate(0 0)"/><path class="cls-1" d="M256.4,224.35l-16,16,8,8h16l8-8v-16Z" transform="translate(0 0)"/><path class="cls-1" d="M256.4,336.52v32.06l8-8v-16h16v-16l-16-16V280.44l-16,16v-16l-8,8v16h8v8l8,8Z" transform="translate(0 0)"/><path class="cls-1" d="M256.4,72.11h8l-8-8v-24h-16v24l8,8Z" transform="translate(0 0)"/><path class="cls-1" d="M224.35,280.44v8l-8,8,8,8h8v-24l-8-8Z" transform="translate(0 0)"/><path class="cls-1" d="M216.34,128.2h24l-8-8h-16l-8-8-8,8v8Z" transform="translate(0 0)"/><path class="cls-1" d="M216.34,80.12h8v-32h-16v32l8,8Z" transform="translate(0 0)"/><path class="cls-1" d="M208.33,272.42v-16h-8v-8h-8v40.06Z" transform="translate(0 0)"/><path class="cls-1" d="M208.33,208.33h32v-16h-32l-16,16Z" transform="translate(0 0)"/><path class="cls-1" d="M176.27,560.88v16h8v-8l8-8Z" transform="translate(0 0)"/><polygon class="cls-1" points="176.28 616.96 176.28 624.98 184.29 624.98 184.29 616.96 176.28 608.95 176.28 616.96"/><path class="cls-1" d="M176.27,600.94h8v-16l-16,16Z" transform="translate(0 0)"/><path class="cls-1" d="M176.27,288.45V256.4h-16v40.06h8Z" transform="translate(0 0)"/><path class="cls-1" d="M168.26,352.55v-8l8-8v-16h-16v16l-8,8v8Z" transform="translate(0 0)"/><polygon class="cls-1" points="160.25 632.99 168.26 632.99 160.25 624.98 160.25 632.99"/><path class="cls-1" d="M160.25,568.89v-24l8-8-8-8h-8v-16h-8v16l-8,8v8h16v24l8,8Z" transform="translate(0 0)"/><path class="cls-1" d="M160.25,448.7v-24h-8v16l-8,8Z" transform="translate(0 0)"/><path class="cls-1" d="M152.24,280.44v-16l-16-16v48.07Z" transform="translate(0 0)"/><polygon class="cls-1" points="144.22 176.28 144.22 184.29 152.24 184.29 144.22 176.28"/><path class="cls-1" d="M136.21,568.89h16l-8-8Z" transform="translate(0 0)"/><path class="cls-1" d="M144.22,224.35v-16l-16-16v48.08Z" transform="translate(0 0)"/><path class="cls-1" d="M136.21,120.19h48.08l-16-16h-8v-8l-8,8H120.19Z" transform="translate(0 0)"/><path class="cls-1" d="M128.2,520.81v-24h-16v32.06h16Z" transform="translate(0 0)"/><path class="cls-1" d="M120.19,328.51v48.08l-8,8h16v-8h8l8-8V336.52l8-8v-16h-8v-16h-8v24h-8l8,8Z" transform="translate(0 0)"/><path class="cls-1" d="M128.2,432.67h16v-16l-8,8h-16l-8-8v40.06h8l8-8-8-8v-8Z" transform="translate(0 0)"/><path class="cls-1" d="M120.19,200.31l-8-8h-16v32Z" transform="translate(0 0)"/><path class="cls-1" d="M112.17,64.1l-8-8-8,8Z" transform="translate(0 0)"/><path class="cls-1" d="M88.14,472.74h16l-8-8Z" transform="translate(0 0)"/><path class="cls-1" d="M88.14,408.64v16l-8,8-8-8-16,16h24v8l-8,8h32.05V408.64Zm8,32.05v8l-8-8,8-8Z" transform="translate(0 0)"/><path class="cls-1" d="M88.14,360.56l16,16v-16Z" transform="translate(0 0)"/><path class="cls-1" d="M88.14,248.39l16,16v-16Z" transform="translate(0 0)"/><path class="cls-1" d="M80.12,176.27h16l-8-8Z" transform="translate(0 0)"/><path class="cls-1" d="M72.11,488.76v8h16v-8l-8-8Z" transform="translate(0 0)"/><path class="cls-1" d="M64.1,304.47l16,16v-16Z" transform="translate(0 0)"/><path class="cls-1" d="M64.1,128.2v16l-16,16v64.1l-16,16H72.11V160.25h8l8-8h16l-8-8,16-16-8-8v-8h-8c-4,4-12,12-16,16l-8-8h-8Z" transform="translate(0 0)"/><path class="cls-1" d="M64.1,392.61v-8l-16-16V256.4H16l16,16-8,8v48.07l8-8v16l8,8-8,8V384.6l8,8Z" transform="translate(0 0)"/><path class="cls-1" d="M48.08,496.77l-8,8h16Z" transform="translate(0 0)"/><path class="cls-1" d="M48.08,544.85h8v-8l-8-8-8,8-8-8v16Z" transform="translate(0 0)"/><polygon class="cls-1" points="40.06 424.66 32.05 432.68 40.06 432.68 40.06 424.66"/><polygon class="cls-1" points="40.06 208.33 32.05 208.33 40.06 216.34 40.06 208.33"/><polygon class="cls-1" points="32.05 168.26 24.04 168.26 32.05 176.28 32.05 168.26"/><rect class="cls-1" x="24.04" y="40.06" width="8.01" height="8.01"/><path class="cls-1" d="M16,64.1l-8,8H24L64.1,32.05l-8-8Z" transform="translate(0 0)"/><rect class="cls-1" x="16.02" y="32.05" width="8.01" height="8.01"/><path class="cls-1" d="M24,633l-8-8-8,8Z" transform="translate(0 0)"/><rect class="cls-1" x="8.01" y="24.04" width="8.01" height="8.01"/><path class="cls-1" d="M16,128.2l8-8v-24H16l-8,8-8-8v32Z" transform="translate(0 0)"/><path class="cls-1" d="M16,224.35h16v-16l-8-8V168.26l24-24v-32l-8-8v32.05l-8,8H16v8H8l-8,8v64.1Z" transform="translate(0 0)"/><path class="cls-1" d="M16,400.62h16l-8-8H16v-8l-8-8-8,8v16Z" transform="translate(0 0)"/><path class="cls-1" d="M8,424.66v16H24Z" transform="translate(0 0)"/><rect class="cls-1" y="16.03" width="8.01" height="8.01"/><g id="Export"><line id="Export-2" data-name="Export" class="cls-2" x2="1282"/><line id="Export-3" data-name="Export" class="cls-2" x1="1282" y1="1282" y2="1282"/></g></g></g></svg>