<svg xmlns="http://www.w3.org/2000/svg" viewBox="0 0 1282 1282"><defs><style>.cls-1{fill:#495150;}.cls-2{fill:none;}</style></defs><g id="Layer_2" data-name="Layer 2"><g id="Layer_1-2" data-name="Layer 1"><path class="cls-1" d="M1121.75,897.4v-32h-16v16l8,8v8Z" transform="translate(0 0)"/><path class="cls-1" d="M1089.7,761.19v-8l-8-8v24h8Z" transform="translate(0 0)"/><path class="cls-1" d="M1089.7,681.06V665h-16v16h8l-8,8,8,8h16l-8-8Z" transform="translate(0 0)"/><path class="cls-1" d="M1073.67,913.42v8h24V873.36l-16-16h-8V897.4l8,8h-8Z" transform="translate(0 0)"/><polygon class="cls-1" points="1073.67 953.49 1073.67 961.5 1081.69 953.49 1073.67 953.49"/><polygon class="cls-1" points="1057.65 913.43 1057.65 905.41 1049.64 905.41 1057.65 913.43"/><polygon class="cls-1" points="1057.65 889.39 1057.65 881.38 1049.64 881.38 1049.64 889.39 1057.65 897.4 1057.65 889.39"/><path class="cls-1" d="M1057.65,865.35V833.3l-8-8v48.07h8Z" transform="translate(0 0)"/><path class="cls-1" d="M1041.62,705.1v16l8,8,8-8V673.05l-8,8v16h-8Z" transform="translate(0 0)"/><path class="cls-1" d="M1025.6,745.16v-32h-16v16h8v16l8,8Z" transform="translate(0 0)"/><polygon class="cls-1" points="1009.58 737.15 1009.58 745.16 1017.59 745.16 1009.58 737.15"/><path class="cls-1" d="M993.55,753.17v16l16-16-8-8Z" transform="translate(0 0)"/><path class="cls-1" d="M985.54,1241.94V1282h8l8-8v-32Z" transform="translate(0 0)"/><path class="cls-1" d="M993.55,1113.74v-40.07l-8,8v48.07h16l-8-8Z" transform="translate(0 0)"/><polygon class="cls-1" points="985.54 913.43 985.54 905.41 977.52 913.43 985.54 913.43"/><path class="cls-1" d="M985.54,889.39v-16l-16,16h8v16h8Z" transform="translate(0 0)"/><path class="cls-1" d="M985.54,857.34l-8,8,8,8Z" transform="translate(0 0)"/><path class="cls-1" d="M961.5,1282h16v-16Z" transform="translate(0 0)"/><rect class="cls-1" x="905.41" y="889.39" width="8.01" height="8.01"/><path class="cls-1" d="M873.36,889.39l-8,8v16l8,8,16-16v-8h-8Z" transform="translate(0 0)"/><path class="cls-1" d="M825.29,1033.61l-8,8h16Z" transform="translate(0 0)"/><path class="cls-1" d="M817.27,889.39h8v-24h-8l-8,8h-8v8l8,8Z" transform="translate(0 0)"/><path class="cls-1" d="M777.21,889.39v-16l-8-8v16l-8,8,8,8Z" transform="translate(0 0)"/><path class="cls-1" d="M761.19,865.35h-8v16l8-8Z" transform="translate(0 0)"/><path class="cls-1" d="M737.15,881.38v-24h-8l-8-8v16Z" transform="translate(0 0)"/><path class="cls-1" d="M729.14,1033.61l-8-8h-16v8Z" transform="translate(0 0)"/><polygon class="cls-1" points="713.11 881.38 721.13 881.38 713.11 873.36 705.1 881.38 713.11 881.38"/><path class="cls-1" d="M697.09,817.27v-24h-8v24l8,8Z" transform="translate(0 0)"/><path class="cls-1" d="M697.09,857.34l8-8v-16H673.05v16l8,8Z" transform="translate(0 0)"/><path class="cls-1" d="M665,817.27h16v-8l-8-8h8v-8l-16-16h-8v24l8,8-8,8Z" transform="translate(0 0)"/><path class="cls-1" d="M625,793.24h-8l-8,8-8-8v48.07l8-8v-8h8l8-8v-8h-8l16-16Z" transform="translate(0 0)"/><path class="cls-1" d="M625,769.2l-8,8h16Z" transform="translate(0 0)"/><path class="cls-1" d="M609,1169.82l-8,8v32.05l8-8,8,8h16l-8-8v-32.06l-8-8h-8Z" transform="translate(0 0)"/><path class="cls-1" d="M609,1025.6v-16h-8v8l-8,8,8,8Z" transform="translate(0 0)"/><path class="cls-1" d="M609,865.35l16,16v-16l-16-16-16,16Z" transform="translate(0 0)"/><path class="cls-1" d="M584.91,1201.88v-16h-8v16l-8,8v16h16l8-8-8-8Z" transform="translate(0 0)"/><path class="cls-1" d="M576.9,1041.63h16l-8-8Z" transform="translate(0 0)"/><path class="cls-1" d="M584.91,841.31v-16l8-8v-32h-8v24l-8,8v16l-8,8,8,8Z" transform="translate(0 0)"/><path class="cls-1" d="M568.89,1193.86v-8h-8l-8,8-8-8v32.05Z" transform="translate(0 0)"/><path class="cls-1" d="M552.86,1017.59v16h16v-32Z" transform="translate(0 0)"/><path class="cls-1" d="M552.86,817.27v8l-8,8h16l8-8v-32l-8-8v-8h-8v24h8l-8,8Z" transform="translate(0 0)"/><path class="cls-1" d="M544.85,1049.64v8h32l-16-16h-16Z" transform="translate(0 0)"/><path class="cls-1" d="M520.81,753.17h-8l-8,8v32l16,16v-32l8-8v-8h-8l8-8Z" transform="translate(0 0)"/><path class="cls-1" d="M512.8,921.44v8l8-8v-16l-8,8Z" transform="translate(0 0)"/><path class="cls-1" d="M512.8,985.54v-8h-16v16l8,8-8,8h16v-8h8l-8-8Z" transform="translate(0 0)"/><path class="cls-1" d="M496.77,1089.7v16h16v-32Z" transform="translate(0 0)"/><polygon class="cls-1" points="504.79 801.25 504.79 793.24 496.77 801.25 504.79 801.25"/><path class="cls-1" d="M504.79,921.44l-8-8v16Z" transform="translate(0 0)"/><path class="cls-1" d="M496.77,777.21v-24l-8,8h-8v8l16,16Z" transform="translate(0 0)"/><path class="cls-1" d="M480.75,857.34V817.27h-16v16l8,8v32.05h16l-8-8Z" transform="translate(0 0)"/><path class="cls-1" d="M448.7,865.35l8,8v16l8-8v-24h-8Z" transform="translate(0 0)"/><path class="cls-1" d="M448.7,1081.69v16h8l8-8v-8Z" transform="translate(0 0)"/><path class="cls-1" d="M440.69,1201.88v-40.07l-8,8v48.08h16l-8-8Z" transform="translate(0 0)"/><path class="cls-1" d="M440.69,849.32h8l-8-8v-24h-8l-8,8-8-8v32.05l8,8,8-8Z" transform="translate(0 0)"/><path class="cls-1" d="M432.67,1105.72v-8h-8v16h8Z" transform="translate(0 0)"/><path class="cls-1" d="M432.67,1081.69h-8v16l8-8Z" transform="translate(0 0)"/><path class="cls-1" d="M424.66,881.38v24l8-8v-24h-8Z" transform="translate(0 0)"/><polygon class="cls-1" points="424.66 865.35 432.68 865.35 424.66 857.34 416.65 865.35 424.66 865.35"/><path class="cls-1" d="M408.64,1193.86l-8-8v16l16,16,8-8Z" transform="translate(0 0)"/><path class="cls-1" d="M408.64,1177.84v-8h-8v16h8Z" transform="translate(0 0)"/><path class="cls-1" d="M400.62,1105.72v16h8v-40.06h-16l8,8Z" transform="translate(0 0)"/><path class="cls-1" d="M392.61,1209.89v16h16Z" transform="translate(0 0)"/><path class="cls-1" d="M384.6,929.45v8h8v16l8-8V897.4l-8,8h-16l8,8Z" transform="translate(0 0)"/><path class="cls-1" d="M384.6,1121.75v-24h-8v8h-8v8h8l-8,8,16,16,8-8Z" transform="translate(0 0)"/><path class="cls-1" d="M368.58,1209.89h-8v16h16l8-8-8-8Z" transform="translate(0 0)"/><path class="cls-1" d="M368.58,929.45v-24h-8v32.05h16Z" transform="translate(0 0)"/><path class="cls-1" d="M360.56,985.54h16l-8-8Z" transform="translate(0 0)"/><path class="cls-1" d="M360.56,1073.67v-24l-8,8v32l8-8Z" transform="translate(0 0)"/><path class="cls-1" d="M336.52,1121.75v16l8-8h8v-8Z" transform="translate(0 0)"/><polygon class="cls-1" points="336.52 841.31 336.52 849.33 344.54 841.31 336.52 841.31"/><polygon class="cls-1" points="336.52 889.39 344.54 889.39 352.55 881.38 352.55 873.36 344.54 873.36 344.54 881.38 336.52 881.38 336.52 889.39"/><path class="cls-1" d="M328.51,1097.71v-16l-8,8Z" transform="translate(0 0)"/><path class="cls-1" d="M312.49,921.44v16l8-8Z" transform="translate(0 0)"/><polygon class="cls-1" points="304.48 1121.75 296.46 1129.76 304.48 1129.76 304.48 1121.75"/><polygon class="cls-1" points="296.46 1185.85 288.45 1185.85 296.46 1193.86 304.48 1185.85 296.46 1185.85"/><path class="cls-1" d="M296.46,1129.76v24h8l8-8Z" transform="translate(0 0)"/><path class="cls-1" d="M288.45,1201.88v16h16v-16l-8-8h-8Z" transform="translate(0 0)"/><polygon class="cls-1" points="272.43 1241.94 272.43 1233.93 264.41 1241.94 272.43 1241.94"/><path class="cls-1" d="M264.41,1145.79l-8,8h24v-24Z" transform="translate(0 0)"/><path class="cls-1" d="M272.42,1105.72v-16l-16,16Z" transform="translate(0 0)"/><polygon class="cls-1" points="264.41 1249.95 264.41 1241.94 256.4 1249.95 264.41 1249.95"/><polygon class="cls-1" points="256.4 1137.78 264.41 1129.76 256.4 1129.76 256.4 1137.78"/><path class="cls-1" d="M232.36,1121.75v8l-8,8h16v-32l-8,8Z" transform="translate(0 0)"/><polygon class="cls-1" points="224.35 1193.86 232.36 1193.86 224.35 1185.85 224.35 1193.86"/><path class="cls-1" d="M224.35,1250v-16l-8,8Z" transform="translate(0 0)"/><polygon class="cls-1" points="216.34 1185.85 224.35 1185.85 216.34 1177.84 216.34 1185.85"/><polygon class="cls-1" points="208.32 1249.95 216.34 1241.94 208.32 1241.94 208.32 1249.95"/><path class="cls-1" d="M208.33,1121.75h8v-24l-8-8v-32h-8v48.07h8l-8,8Z" transform="translate(0 0)"/><path class="cls-1" d="M208.33,833.3h-16v8h16Z" transform="translate(0 0)"/><polygon class="cls-1" points="200.31 1265.98 208.32 1265.98 200.31 1257.96 200.31 1265.98"/><path class="cls-1" d="M200.31,849.32v-8l-8,8v8h-8l-8,8v16l8-8h8v-8l8-8Z" transform="translate(0 0)"/><path class="cls-1" d="M184.29,1073.67v56.09l8-8v-56.09h-8Z" transform="translate(0 0)"/><polygon class="cls-1" points="176.28 1193.86 184.29 1193.86 176.28 1185.85 176.28 1193.86"/><path class="cls-1" d="M176.27,1113.74v-40.07h-16v16l8,8v32l8,8h16l-16-16Z" transform="translate(0 0)"/><path class="cls-1" d="M168.26,1274l8,8v-16h-8Z" transform="translate(0 0)"/><polygon class="cls-1" points="152.24 1129.76 160.25 1121.75 152.24 1121.75 152.24 1129.76"/><polygon class="cls-1" points="152.24 1089.7 160.25 1089.7 152.24 1081.69 152.24 1089.7"/><polygon class="cls-1" points="136.21 1233.93 136.21 1225.91 128.2 1233.93 136.21 1233.93"/><path class="cls-1" d="M112.17,889.39h8v-8h-24v8Z" transform="translate(0 0)"/><polygon class="cls-1" points="80.13 1145.79 88.14 1145.79 80.13 1137.78 80.13 1145.79"/><path class="cls-1" d="M64.1,1169.82h16v-8h-8Z" transform="translate(0 0)"/><path class="cls-1" d="M56.09,1193.86v-64.1l-8-8h8v-8h-16v16l8,8-8,8,8,8v48.08l8,8h16Z" transform="translate(0 0)"/><path class="cls-1" d="M1282,528.83v-16l-8,8Z" transform="translate(0 0)"/><path class="cls-1" d="M1274,152.24l-16,16h16l8-8v-16Z" transform="translate(0 0)"/><polygon class="cls-1" points="1265.97 416.65 1273.99 424.66 1282 424.66 1282 416.65 1273.99 408.64 1265.97 416.65"/><path class="cls-1" d="M1274,208.33h-8l-16,16v32h16l-8,8-8-8-8,8v32l8-8h16v-8h16V224.35l-8-8Zm-8,32-8-8h16Z" transform="translate(0 0)"/><path class="cls-1" d="M1250,408.64v-16h-8v16l8,8Z" transform="translate(0 0)"/><path class="cls-1" d="M1241.94,184.29H1105.72v-8l-16-16h-16l-8-8h-32.05l-8,8h-16l-16,16v8H889.39v8H993.55l8,8v-16l16-16h16l8-8h16l8,8h16l16,16v32.05h16v32l16,16h-16v24h8l16-16V208.33h-32v-16H1250l16-16-8-8Z" transform="translate(0 0)"/><path class="cls-1" d="M1233.92,424.66v-8l-8-8v32.05l8-8Z" transform="translate(0 0)"/><path class="cls-1" d="M1233.92,528.83l8-8v-8h-8l-8-8-16,16,16,16Z" transform="translate(0 0)"/><path class="cls-1" d="M1217.9,240.38l-8,8v32.05h16l-8,8-8-8v16l16,16h8V256.4l-8-8h8v-24Z" transform="translate(0 0)"/><path class="cls-1" d="M1201.87,496.77l-8,8,8,8,16-16v-8h-8Z" transform="translate(0 0)"/><path class="cls-1" d="M1201.87,208.33h32.05l-16-16Z" transform="translate(0 0)"/><path class="cls-1" d="M1201.87,464.72l-16-16-16,16,16,16Z" transform="translate(0 0)"/><path class="cls-1" d="M1185.85,240.38v64.09l-8,8v16l-24,24,8,8,32-32.05V232.36h-8Z" transform="translate(0 0)"/><path class="cls-1" d="M1185.85,384.6h-8v40.06l-8,8h16l8,8,8-8v-16l-8,8-8-8h16v-16Z" transform="translate(0 0)"/><path class="cls-1" d="M1161.81,456.71l16-16h-16l-16,16,8,8Z" transform="translate(0 0)"/><path class="cls-1" d="M1153.8,408.64v-8l8-8v-16l-8,8h-8v32h8Z" transform="translate(0 0)"/><path class="cls-1" d="M1137.77,320.5l-16,16,16,16,8-8V312.49l24-24V256.4l-8-8h8v-24h-16v48.07l-40.06,40.07h16l8-8Z" transform="translate(0 0)"/><polygon class="cls-1" points="1137.78 448.7 1137.78 456.71 1145.79 456.71 1137.78 448.7"/><path class="cls-1" d="M1137.77,112.17l-16-16v16Z" transform="translate(0 0)"/><path class="cls-1" d="M1137.77,400.62v-16h-16v16Z" transform="translate(0 0)"/><path class="cls-1" d="M1129.76,440.69l8-8V400.62l-8,8-8-8v24h8l-8,8Z" transform="translate(0 0)"/><path class="cls-1" d="M1105.72,336.52h16l-8-8Z" transform="translate(0 0)"/><path class="cls-1" d="M1105.72,528.83h16l8-8v8h32v-8h8v-8h-56.08v8h-8Z" transform="translate(0 0)"/><path class="cls-1" d="M1073.67,192.3l-8,8h16l8-8Z" transform="translate(0 0)"/><path class="cls-1" d="M1081.69,40.06l16-16-8-8h-16l-8,8Z" transform="translate(0 0)"/><polygon class="cls-1" points="1065.66 456.71 1073.67 448.7 1065.66 448.7 1065.66 456.71"/><path class="cls-1" d="M1041.62,448.7h16v-8h-8Z" transform="translate(0 0)"/><path class="cls-1" d="M1025.6,480.75h-16v8h8Z" transform="translate(0 0)"/><path class="cls-1" d="M1017.59,40.06V8h-16V24Z" transform="translate(0 0)"/><path class="cls-1" d="M1009.57,384.6V352.55h-16v24h8Z" transform="translate(0 0)"/><polygon class="cls-1" points="993.55 408.64 993.55 416.65 1001.56 424.66 1009.58 424.66 1009.58 416.65 1017.59 408.64 1017.59 400.63 1009.58 400.63 1001.56 392.61 1001.56 400.63 993.55 400.63 993.55 408.64"/><path class="cls-1" d="M1001.56,633V617h-16v16Z" transform="translate(0 0)"/><path class="cls-1" d="M985.54,440.69l-8,8v8h24Z" transform="translate(0 0)"/><path class="cls-1" d="M985.54,392.61V360.56l-8,8h-8v24Z" transform="translate(0 0)"/><path class="cls-1" d="M977.52,248.39v-24l-16,16v8Z" transform="translate(0 0)"/><path class="cls-1" d="M961.5,496.77l16,16h16l-16-16Z" transform="translate(0 0)"/><path class="cls-1" d="M969.51,464.72v-24h-8v32.05h8Z" transform="translate(0 0)"/><path class="cls-1" d="M961.5,384.6v-16l-8,8-8-8v16l8,8v16h16l-8-8Z" transform="translate(0 0)"/><path class="cls-1" d="M953.49,280.44v32.05l16,16h16l-8-8v-8h-8l8-8v-16l-8,8-8-8h16V256.4l-8,8v8h-8Z" transform="translate(0 0)"/><polygon class="cls-1" points="953.49 432.68 961.5 432.68 953.49 424.66 945.48 432.68 953.49 432.68"/><path class="cls-1" d="M945.47,64.1l8-8-16-16v-8h-8v16Z" transform="translate(0 0)"/><path class="cls-1" d="M937.46,384.6v-8l-8-8-16,16,8,8v8h8l8-8Z" transform="translate(0 0)"/><path class="cls-1" d="M929.45,416.65l-8,8h16v-24h-8Z" transform="translate(0 0)"/><path class="cls-1" d="M937.46,264.41v-16l-8-8h-8v24Z" transform="translate(0 0)"/><path class="cls-1" d="M921.44,304.47h-8v16l8,8v8h8l8-8,8,8h16l-16-16h-16l-8-8h16v-24h-8l-8,8Z" transform="translate(0 0)"/><path class="cls-1" d="M921.44,72.11l8-8-8-8v-8h-16v24l8,8Z" transform="translate(0 0)"/><path class="cls-1" d="M905.41,424.66v16h16l8-8-8-8-8,8Z" transform="translate(0 0)"/><path class="cls-1" d="M905.41,248.39v-8h-16v32h24l-8-8Z" transform="translate(0 0)"/><path class="cls-1" d="M881.37,440.69h-8l8,8h16l-8-8Z" transform="translate(0 0)"/><path class="cls-1" d="M881.37,72.11h8v-16l-8,8-8-8h16v-8h-8l-16-16V64.1l8,8Z" transform="translate(0 0)"/><path class="cls-1" d="M873.36,408.64l-8-8v16h8Z" transform="translate(0 0)"/><path class="cls-1" d="M841.31,88.14V40.06l-8,8-8-8V72.11l8,8h-8v24Z" transform="translate(0 0)"/><path class="cls-1" d="M833.3,288.45h-16l8,8Z" transform="translate(0 0)"/><polygon class="cls-1" points="801.25 136.21 801.25 128.2 793.24 136.21 801.25 136.21"/><path class="cls-1" d="M785.22,344.54v-24h16l8-8h-32l-8,8v16l-8,8Z" transform="translate(0 0)"/><path class="cls-1" d="M777.21,152.24h-16v32l-8,8v16h8v-8l24-24-8-8,8-8Z" transform="translate(0 0)"/><path class="cls-1" d="M761.19,48.08h16v-8l-16-16-16,16v8Z" transform="translate(0 0)"/><path class="cls-1" d="M745.16,72.11l-8,8h48.07l8-8v-8H737.15l-8-8v16Z" transform="translate(0 0)"/><path class="cls-1" d="M737.15,432.67l8,8,8-8v8h-8l8,8,8-8h16v-8h-8v-8h-24l-8-8h-16Z" transform="translate(0 0)"/><path class="cls-1" d="M737.15,80.12l-8-8-8,8Z" transform="translate(0 0)"/><path class="cls-1" d="M737.15,128.2H769.2v-16l-8,8-8-8h16v-16l-8,8H729.14v16l-8,8Z" transform="translate(0 0)"/><path class="cls-1" d="M721.12,368.58v16l8,8v-16l8-8Z" transform="translate(0 0)"/><path class="cls-1" d="M721.12,216.34v24l8-8v-16l8-8V176.27l-8,8-16-16v32.05l8,8Z" transform="translate(0 0)"/><path class="cls-1" d="M697.09,216.34l-8-8v16l24,24v-32l-8-8Z" transform="translate(0 0)"/><path class="cls-1" d="M705.1,64.1v-16h-16v16Z" transform="translate(0 0)"/><path class="cls-1" d="M705.1,208.33V176.27h-16v32.06Z" transform="translate(0 0)"/><path class="cls-1" d="M665,120.19l8,8,32.05-32h-8v-8l-8-8v-8h-8l-32,32.05Z" transform="translate(0 0)"/><path class="cls-1" d="M665,232.36l8,8h16l-16-16V176.27l-8,8v16H649v16l8,8v8Z" transform="translate(0 0)"/><path class="cls-1" d="M649,136.21l-8-8-8,8Z" transform="translate(0 0)"/><path class="cls-1" d="M641,232.36v-24H625v16l8,8Z" transform="translate(0 0)"/><polygon class="cls-1" points="632.99 432.68 632.99 424.66 624.98 432.68 632.99 440.69 632.99 432.68"/><path class="cls-1" d="M633,392.61V360.56l-16-16v48.07Z" transform="translate(0 0)"/><path class="cls-1" d="M617,304.47h8l-8,8h16v-16H617Z" transform="translate(0 0)"/><polygon class="cls-1" points="600.94 472.74 592.92 480.75 600.94 480.75 600.94 472.74"/><polygon class="cls-1" points="600.94 384.6 600.94 376.59 592.92 376.59 592.92 384.6 584.91 392.61 584.91 400.63 592.92 400.63 600.94 392.61 600.94 384.6"/><path class="cls-1" d="M600.94,248.39h16v-16l-8,8-8-8h16v-16l-8-8v16l-8-8h-16v16Z" transform="translate(0 0)"/><path class="cls-1" d="M592.92,432.67l-8-8-8,8Z" transform="translate(0 0)"/><path class="cls-1" d="M552.86,376.59v24h16v-24Z" transform="translate(0 0)"/><path class="cls-1" d="M560.88,272.42l16,16v-16l8-8-24-24-8,8,8,8-8,8Z" transform="translate(0 0)"/><path class="cls-1" d="M520.81,312.49h-16l40.06,40.06h16v-16l-8,8-8-8h16l-16-16-8,8-8-8h16l-8-8Z" transform="translate(0 0)"/><path class="cls-1" d="M528.83,32.05V16l-8-8-8,8v16Z" transform="translate(0 0)"/><path class="cls-1" d="M520.81,400.62v-24h-16v32.05h16Z" transform="translate(0 0)"/><path class="cls-1" d="M504.79,472.74l16-16-16-16h-8v8h-8v8Z" transform="translate(0 0)"/><path class="cls-1" d="M488.76,384.6v-8l-8-8v32l8-8Z" transform="translate(0 0)"/><path class="cls-1" d="M480.75,264.41v8l-8-8-8,8v16l8,8H512.8v-8l-32-32.05Z" transform="translate(0 0)"/><path class="cls-1" d="M480.75,448.7h-16v16Z" transform="translate(0 0)"/><path class="cls-1" d="M472.74,392.61V360.56h-8v8l-8,8v16l8,8Z" transform="translate(0 0)"/><path class="cls-1" d="M464.72,32.05h16V16l-8-8h-16l-8-8V32.05Z" transform="translate(0 0)"/><path class="cls-1" d="M448.7,368.58v-24h-8l8-8v-8h-16v40.07l8,8Z" transform="translate(0 0)"/><path class="cls-1" d="M448.7,304.47h16l-16-16-16,16Z" transform="translate(0 0)"/><path class="cls-1" d="M440.69,16V0h-8V16l8,8Z" transform="translate(0 0)"/><path class="cls-1" d="M440.69,472.74l8,8,8-8v-24h-8l-24,24,8,8Z" transform="translate(0 0)"/><path class="cls-1" d="M424.66,352.55v-24h-8v24l8,8Z" transform="translate(0 0)"/><path class="cls-1" d="M392.61,456.71h-8v8h16l8,8,24-24v-24h-16v8l8,8-16,16Z" transform="translate(0 0)"/><polygon class="cls-1" points="384.6 600.94 384.6 608.95 392.61 600.94 384.6 600.94"/><path class="cls-1" d="M384.6,336.52l-24,24h32.05l8-8v-16l-8,8Z" transform="translate(0 0)"/><path class="cls-1" d="M384.6,320.5v16h16v-32l-8-8h8v-24h-16v40.07h-8Z" transform="translate(0 0)"/><polygon class="cls-1" points="376.59 616.96 384.6 608.95 376.59 608.95 376.59 616.96"/><path class="cls-1" d="M376.59,528.83v-24h-32l16,16h8v8l8,8Z" transform="translate(0 0)"/><path class="cls-1" d="M368.58,464.72v-16l-8,8h-8v8Z" transform="translate(0 0)"/><polygon class="cls-1" points="360.56 576.9 360.56 568.89 352.55 576.9 360.56 584.91 360.56 576.9"/><path class="cls-1" d="M360.56,232.36h16v-16h-16l-16,16Z" transform="translate(0 0)"/><path class="cls-1" d="M360.56,633l8,8V625l-8-8v-16h-16v16l8,8v8Z" transform="translate(0 0)"/><polygon class="cls-1" points="344.54 584.91 344.54 592.93 352.55 592.93 344.54 584.91"/><path class="cls-1" d="M328.51,328.51h16v8h8l8-8V296.46l-8,8-8-8h16v-16h-16l-16,16h-8v8l8,8Z" transform="translate(0 0)"/><path class="cls-1" d="M312.49,264.41h-16v8h8Z" transform="translate(0 0)"/><path class="cls-1" d="M304.47,192.3v16l8,8v16h16v-16Z" transform="translate(0 0)"/><path class="cls-1" d="M304.47,24h8l-24-24V24Z" transform="translate(0 0)"/><path class="cls-1" d="M296.46,440.69l-8-8-8,8h-16v8h24Z" transform="translate(0 0)"/><path class="cls-1" d="M288.45,208.33l-8,8h-8v24h8v-8l8,8h16l-16-16Z" transform="translate(0 0)"/><path class="cls-1" d="M280.44,344.54h8v-8l8-8h8v-24l-8,8-32-32.05v32.05l16,16Z" transform="translate(0 0)"/><path class="cls-1" d="M272.42,64.1l8-8-8-8v-8h-16v24l8,8Z" transform="translate(0 0)"/><rect class="cls-1" x="256.4" y="432.68" width="8.01" height="8.01"/><path class="cls-1" d="M240.38,80.12l8-8-8-8v-16h-16v32Z" transform="translate(0 0)"/><path class="cls-1" d="M232.36,288.45v16h8v-16l-8-8Z" transform="translate(0 0)"/><path class="cls-1" d="M224.35,568.89v8h8v-16h-8Z" transform="translate(0 0)"/><path class="cls-1" d="M224.35,120.19h8l-8-8h-16l8,8Z" transform="translate(0 0)"/><path class="cls-1" d="M224.35,288.45v-16l-16-16v32.05l8,8Z" transform="translate(0 0)"/><path class="cls-1" d="M224.35,192.3h16l-8-8h-16l-8,8Z" transform="translate(0 0)"/><path class="cls-1" d="M208.33,528.83v16l8-8Z" transform="translate(0 0)"/><path class="cls-1" d="M192.3,288.45V248.39h-8l-8,8v32.05Z" transform="translate(0 0)"/><path class="cls-1" d="M184.29,360.56V328.51l-8-8v16l-8,8v8h8Z" transform="translate(0 0)"/><path class="cls-1" d="M176.27,440.69h8v-8h-8l-8-8v24h8Z" transform="translate(0 0)"/><polygon class="cls-1" points="168.26 592.93 160.25 592.93 168.26 600.94 176.28 592.93 168.26 592.93"/><path class="cls-1" d="M160.25,552.86v24l8-8,8,8v-16l-16-16Z" transform="translate(0 0)"/><path class="cls-1" d="M160.25,288.45V256.4l-8,8v32h8Z" transform="translate(0 0)"/><path class="cls-1" d="M152.24,432.67v-8l-8-8v16l8,8Z" transform="translate(0 0)"/><path class="cls-1" d="M144.22,344.54v8h8v-8l8-8v-24h-8v16l-8,8Z" transform="translate(0 0)"/><polygon class="cls-1" points="144.22 376.59 144.22 368.58 136.21 376.59 144.22 376.59"/><path class="cls-1" d="M144.22,528.83v-16h-8v-8l-8-8v32.06l8,8Z" transform="translate(0 0)"/><path class="cls-1" d="M128.2,256.4v64.1h8V248.39h-8Z" transform="translate(0 0)"/><polygon class="cls-1" points="128.2 328.51 136.21 328.51 128.2 320.5 120.19 328.51 128.2 328.51"/><path class="cls-1" d="M120.19,128.2h24l-24-24-8,8h-8v8l8,8Z" transform="translate(0 0)"/><path class="cls-1" d="M112.17,464.72v16l8-8Z" transform="translate(0 0)"/><path class="cls-1" d="M112.17,520.81v-24l-8-8v32l8,8Z" transform="translate(0 0)"/><path class="cls-1" d="M112.17,192.3l-8-8-8,8Z" transform="translate(0 0)"/><path class="cls-1" d="M104.16,408.64l-8-8-8,8Z" transform="translate(0 0)"/><polygon class="cls-1" points="88.14 480.75 80.13 480.75 88.14 488.76 88.14 480.75"/><path class="cls-1" d="M56.09,248.39l-8,8V368.58l16,16V304.47l8-8V248.39Zm0,48.07v-8h8Z" transform="translate(0 0)"/><path class="cls-1" d="M48.08,528.83h-16l8,8Z" transform="translate(0 0)"/><path class="cls-1" d="M32.05,160.25l-8,8h8v8l-8-8v32.05l8,8h8v8l-8-8v16l8,8,8-8v-64.1l16-16v-24h-8l-8,8v16Z" transform="translate(0 0)"/><path class="cls-1" d="M40.06,424.66h24v-16h-8v8H24v8H8l16,16Z" transform="translate(0 0)"/><polygon class="cls-1" points="24.04 56.09 32.05 48.08 24.04 48.08 24.04 56.09"/><path class="cls-1" d="M32.05,128.2h8v-24l-8-8H24v24l-8,8Z" transform="translate(0 0)"/><path class="cls-1" d="M24,32.05v8h8v8l8-8L0,0V16H8v8h8v8Z" transform="translate(0 0)"/><path class="cls-1" d="M16,392.61h8l8,8h16l-16-16v-16H16l-8,8,8,8Z" transform="translate(0 0)"/><path class="cls-1" d="M16,304.47v16l8,8V280.44l8-8H0v24H8Z" transform="translate(0 0)"/><path class="cls-1" d="M16,32.05H0l16,16,8-8H16Z" transform="translate(0 0)"/><polygon class="cls-1" points="0 232.36 0 240.38 8.01 232.36 0 232.36"/><polygon class="cls-1" points="0 376.59 0 384.6 8.01 376.59 0 376.59"/><path class="cls-1" d="M0,432.67v16l8-8v-16H0Z" transform="translate(0 0)"/><path class="cls-1" d="M1266,993.55h-24v32H1282v-32Z" transform="translate(0 0)"/><path class="cls-1" d="M1258,1177.84l8,8h8v-8Z" transform="translate(0 0)"/><rect class="cls-1" x="1249.95" y="1137.78" width="8.01" height="8.01"/><polygon class="cls-1" points="1249.95 1177.84 1257.96 1177.84 1249.95 1169.83 1249.95 1177.84"/><path class="cls-1" d="M1241.94,1209.89v8h16v-8Z" transform="translate(0 0)"/><polygon class="cls-1" points="1233.92 1201.88 1241.94 1209.89 1241.94 1201.88 1233.92 1201.88"/><rect class="cls-1" x="1225.91" y="1193.86" width="8.01" height="8.01"/><rect class="cls-1" x="1217.9" y="1137.78" width="8.01" height="8.01"/><path class="cls-1" d="M1209.89,1225.91h-8v8h16l8-8Z" transform="translate(0 0)"/><polygon class="cls-1" points="1217.9 1177.84 1217.9 1169.83 1209.89 1177.84 1217.9 1185.85 1217.9 1177.84"/><path class="cls-1" d="M1217.9,1201.88v-8h-8l-8-8v16Z" transform="translate(0 0)"/><path class="cls-1" d="M1201.87,1169.82h-8v-8l-8-8v16l16,16,8-8Z" transform="translate(0 0)"/><path class="cls-1" d="M1201.87,1209.89h8l-8-8-16,16h-40.06v-8l-8,8h-24v8h80.12l8-8Z" transform="translate(0 0)"/><path class="cls-1" d="M1193.86,1057.65H1153.8v8h40.06Z" transform="translate(0 0)"/><path class="cls-1" d="M1177.84,1105.72v-8h-8v16h8Z" transform="translate(0 0)"/><path class="cls-1" d="M1177.84,1129.76l8,8v-8h8v-48.07h-8v-8h-24v8h-8v24l-8,8v16l8-8,8,8Zm-16-8v-32h24v32Z" transform="translate(0 0)"/><polygon class="cls-1" points="1161.81 1161.81 1169.83 1153.8 1161.81 1153.8 1161.81 1161.81"/><path class="cls-1" d="M1161.81,1177.84v-16l-8,8Z" transform="translate(0 0)"/><path class="cls-1" d="M1145.79,1177.84v8h8v-16h-8Z" transform="translate(0 0)"/><path class="cls-1" d="M1121.75,1250h-16l8,8h16l8-8Z" transform="translate(0 0)"/><path class="cls-1" d="M1113.74,809.26v16l16-16Z" transform="translate(0 0)"/><path class="cls-1" d="M1113.74,1201.88h-8v16h8Z" transform="translate(0 0)"/><path class="cls-1" d="M1097.71,833.3v8h32v-8Z" transform="translate(0 0)"/><path class="cls-1" d="M1089.7,969.51h-24v8h24Z" transform="translate(0 0)"/><polygon class="cls-1" points="1065.66 961.5 1065.66 969.51 1073.67 961.5 1065.66 961.5"/><path class="cls-1" d="M1065.66,1017.59h-16l-8,8,8,8v-8h16v40.06h-24V1025.6l-8,8-8-8v48.07l-8,8h8v8l8,8-8,8v16h8v8h24v8l8-8h8v-8h8v-88.14Zm-8,96.15h-16v-40.07h24v40.07Z" transform="translate(0 0)"/><path class="cls-1" d="M1049.64,1049.64v8h8v-24h-8Z" transform="translate(0 0)"/><path class="cls-1" d="M1049.64,1089.7v16h8v-24h-8Z" transform="translate(0 0)"/><path class="cls-1" d="M1017.59,1177.84v16l16,16v-16Z" transform="translate(0 0)"/><path class="cls-1" d="M1017.59,641V617l-8-8v32l8,8Z" transform="translate(0 0)"/><path class="cls-1" d="M1009.57,657v16l8-8Z" transform="translate(0 0)"/><polygon class="cls-1" points="985.54 801.25 977.52 801.25 985.54 809.26 985.54 801.25"/><rect class="cls-1" x="961.5" y="681.06" width="8.01" height="8.01"/><path class="cls-1" d="M945.47,777.21h-24v8h24l8-8Z" transform="translate(0 0)"/><path class="cls-1" d="M945.47,697.09h16v-8h-32v8Z" transform="translate(0 0)"/><polygon class="cls-1" points="937.46 801.25 937.46 809.26 945.48 801.25 937.46 793.24 937.46 801.25"/><path class="cls-1" d="M929.45,1274h-8v-16h-16l-8,8h16v16h32.05l-8-8Z" transform="translate(0 0)"/><path class="cls-1" d="M897.4,1241.94h-8v16h16l-8-8Z" transform="translate(0 0)"/><polygon class="cls-1" points="881.38 1161.81 881.38 1169.83 889.39 1161.81 881.38 1161.81"/><path class="cls-1" d="M889.39,1129.76h8v-8h8V1017.59h-8v-8H857.34v8h-8v24l-8,8h8v72.11h8v8Zm-8-16h-16v-40.07h24v40.07Zm-8-88.14h16v40.06h-24V1025.6Z" transform="translate(0 0)"/><path class="cls-1" d="M881.37,1049.64v-16h-8v24h8Z" transform="translate(0 0)"/><path class="cls-1" d="M873.36,1089.7v16h8v-24h-8Z" transform="translate(0 0)"/><polygon class="cls-1" points="849.33 1282 849.33 1273.99 841.31 1273.99 849.33 1282"/><path class="cls-1" d="M833.3,1266v16l8-8v-8Z" transform="translate(0 0)"/><path class="cls-1" d="M841.31,1129.76v-16l-8,8Z" transform="translate(0 0)"/><path class="cls-1" d="M841.31,1097.71v-24h-8v40.07h8Z" transform="translate(0 0)"/><path class="cls-1" d="M817.27,1129.76v-32h-8v48.08h16l-8-8Z" transform="translate(0 0)"/><path class="cls-1" d="M809.26,1282h8v-16l-8,8Z" transform="translate(0 0)"/><path class="cls-1" d="M809.26,761.19H921.44l8-8h-64.1v-8h-8l8-8h-64.1l8,8h-8v-8h-16v24Zm16-16v8h-8Z" transform="translate(0 0)"/><path class="cls-1" d="M785.22,937.46v40.06l8-8v-32l-8-8Z" transform="translate(0 0)"/><path class="cls-1" d="M785.22,1017.59h-8v8h-8v8h8v16h8v-16h8v-8h-8Z" transform="translate(0 0)"/><polygon class="cls-1" points="769.2 1153.8 777.21 1161.81 785.23 1153.8 785.23 1145.79 777.21 1145.79 769.2 1153.8"/><polygon class="cls-1" points="769.2 1282 777.21 1273.99 769.2 1273.99 769.2 1282"/><path class="cls-1" d="M729.14,1258h-32l-8,8h56.09v-8Z" transform="translate(0 0)"/><path class="cls-1" d="M721.12,1241.94v-8h-16l8,8v16l8-8Z" transform="translate(0 0)"/><path class="cls-1" d="M713.11,1161.81v16l8-8v-16h-8Z" transform="translate(0 0)"/><path class="cls-1" d="M705.1,1009.57v-16h-16v16Z" transform="translate(0 0)"/><path class="cls-1" d="M689.07,1225.91v-8l-8-8v16l8,8Z" transform="translate(0 0)"/><path class="cls-1" d="M673.05,1258h-8l-8,8h32.05l-8-8Z" transform="translate(0 0)"/><path class="cls-1" d="M681.06,1033.61l-8-8-8,8Z" transform="translate(0 0)"/><path class="cls-1" d="M665,1177.84v8h8l8-8v-16l-8,8h-8Z" transform="translate(0 0)"/><path class="cls-1" d="M657,1025.6l16-16H657l-16,16,8,8h8Z" transform="translate(0 0)"/><path class="cls-1" d="M625,1258h-8l-8-8v-16l-8,8v24H641v-16l-8,8Z" transform="translate(0 0)"/><path class="cls-1" d="M617,665V641h-16v24Z" transform="translate(0 0)"/><path class="cls-1" d="M592.92,649V633h-8v16l8,8Z" transform="translate(0 0)"/><path class="cls-1" d="M568.89,1258l-8,8h24v-8Z" transform="translate(0 0)"/><path class="cls-1" d="M576.9,657V633h-16v24Z" transform="translate(0 0)"/><polygon class="cls-1" points="568.89 1249.95 576.9 1249.95 568.89 1241.94 560.88 1249.95 568.89 1249.95"/><path class="cls-1" d="M448.7,649v-8h-8v24l8-8Z" transform="translate(0 0)"/><path class="cls-1" d="M432.67,657l-8-8v40.06h8v-8h8l-8-8Z" transform="translate(0 0)"/><path class="cls-1" d="M408.64,681.06V657h-8v16l-8-8V649l-8-8v32h8v8l8,8h8Z" transform="translate(0 0)"/><path class="cls-1" d="M248.39,953.49h16l-8-8Z" transform="translate(0 0)"/><path class="cls-1" d="M248.39,689.07v16h8v-24h-8Z" transform="translate(0 0)"/><path class="cls-1" d="M224.35,769.2l-16-16v8h-8l-8,8,8,8h16Z" transform="translate(0 0)"/><path class="cls-1" d="M176.27,929.45l-8,8,8,8Z" transform="translate(0 0)"/><path class="cls-1" d="M152.24,977.52v-8l-8,8v16l8-8Z" transform="translate(0 0)"/><polygon class="cls-1" points="144.22 905.41 144.22 913.43 152.24 913.43 152.24 905.41 144.22 897.4 144.22 905.41"/><path class="cls-1" d="M152.24,953.49h24v-8H144.22l-8-8v16Z" transform="translate(0 0)"/><path class="cls-1" d="M144.22,993.55H96.15l-8,8h64.1Z" transform="translate(0 0)"/><polygon class="cls-1" points="88.14 833.3 88.14 841.31 96.15 833.3 88.14 833.3"/><path class="cls-1" d="M64.1,881.38l-8,8H88.14v-8Z" transform="translate(0 0)"/><rect class="cls-1" x="1177.84" y="56.09" width="8.01" height="8.01"/><rect class="cls-1" x="1145.79" y="56.09" width="8.01" height="8.01"/><path class="cls-1" d="M1049.64,617v16l8-8h8v-24Z" transform="translate(0 0)"/><rect class="cls-1" x="1009.57" y="592.93" width="8.01" height="8.01"/><path class="cls-1" d="M1009.57,544.85l-8-8-24,24h16Z" transform="translate(0 0)"/><path class="cls-1" d="M993.55,216.34h8v-16l-8,8Z" transform="translate(0 0)"/><path class="cls-1" d="M945.47,592.92v16l8-8v-16h-8Z" transform="translate(0 0)"/><path class="cls-1" d="M929.45,568.89v-8l8,8,8-8-16-16-16,16,8,8Z" transform="translate(0 0)"/><path class="cls-1" d="M873.36,184.29l-8,8h16l8-8Z" transform="translate(0 0)"/><polygon class="cls-1" points="865.35 576.9 865.35 584.91 873.36 584.91 865.35 576.9"/><rect class="cls-1" x="849.32" y="576.9" width="8.01" height="8.01"/><path class="cls-1" d="M833.3,576.9h16l-8-8Z" transform="translate(0 0)"/><polygon class="cls-1" points="841.31 200.31 833.3 208.33 841.31 208.33 841.31 200.31"/><path class="cls-1" d="M825.29,568.89l-8-8-8,8Z" transform="translate(0 0)"/><polygon class="cls-1" points="809.26 568.89 801.25 576.9 809.26 576.9 809.26 568.89"/><polygon class="cls-1" points="801.25 560.88 809.26 568.89 809.26 560.88 801.25 560.88"/><path class="cls-1" d="M785.22,560.88v16h16v-8h-8v-16l-8-8Z" transform="translate(0 0)"/><polygon class="cls-1" points="761.19 296.46 769.2 288.45 761.19 288.45 761.19 296.46"/><path class="cls-1" d="M761.19,625h8l-16-16h-16l-8,8,8,8h8v-8l8,8Z" transform="translate(0 0)"/><polygon class="cls-1" points="737.15 240.38 729.14 248.39 737.15 248.39 737.15 240.38"/><path class="cls-1" d="M729.14,592.92h-16v8h16Z" transform="translate(0 0)"/><path class="cls-1" d="M721.12,312.49h-8v8h32v-8Z" transform="translate(0 0)"/><path class="cls-1" d="M705.1,456.71v16h8v-24h-8Z" transform="translate(0 0)"/><polygon class="cls-1" points="673.05 576.9 665.04 584.91 673.05 584.91 673.05 576.9"/><polygon class="cls-1" points="665.04 584.91 657.02 592.93 665.04 592.93 665.04 584.91"/><path class="cls-1" d="M665,544.85H785.22v-8H649l8,8Z" transform="translate(0 0)"/><rect class="cls-1" x="641" y="536.84" width="8.01" height="8.01"/><path class="cls-1" d="M641,464.72v-16h-8v24h8Z" transform="translate(0 0)"/><path class="cls-1" d="M641,592.92h16l-16-16v8H617l-8,8Z" transform="translate(0 0)"/><polygon class="cls-1" points="624.98 512.8 616.96 504.79 616.96 512.8 624.98 512.8"/><path class="cls-1" d="M625,544.85h16l-8-8h-32l8,8Z" transform="translate(0 0)"/><polygon class="cls-1" points="608.95 504.79 616.96 504.79 608.95 496.78 608.95 504.79"/><polygon class="cls-1" points="600.94 504.79 592.92 512.8 600.94 512.8 600.94 504.79"/><polygon class="cls-1" points="592.92 536.84 592.92 544.85 600.94 536.84 592.92 528.83 592.92 536.84"/><polygon class="cls-1" points="584.91 512.8 584.91 520.81 592.92 512.8 584.91 512.8"/><path class="cls-1" d="M584.91,576.9h8l8-8v-8h8v-16h-8v8l-16,16h-16l8,8Z" transform="translate(0 0)"/><path class="cls-1" d="M552.86,568.89l8,8h8v-8l-8-8h-16v8Z" transform="translate(0 0)"/><path class="cls-1" d="M536.84,552.86H504.79l-8-8v-16h-16l8,8v16h8v8h48.08Z" transform="translate(0 0)"/><path class="cls-1" d="M520.81,576.9h-8l-8,8h32.05v-8Z" transform="translate(0 0)"/><path class="cls-1" d="M504.79,600.94h16l8-8-8-8Z" transform="translate(0 0)"/><path class="cls-1" d="M480.75,512.8h-8v8l8,8Z" transform="translate(0 0)"/><path class="cls-1" d="M472.74,552.86v16l8-8Z" transform="translate(0 0)"/><polygon class="cls-1" points="464.73 528.83 472.74 520.81 464.73 520.81 464.73 528.83"/><path class="cls-1" d="M456.71,536.84l-8,8v8h8Z" transform="translate(0 0)"/><polygon class="cls-1" points="456.71 568.89 464.73 560.88 456.71 552.86 456.71 560.88 448.7 560.88 448.7 568.89 456.71 568.89"/><path class="cls-1" d="M432.67,560.88l-8-8v16h16l8-8Z" transform="translate(0 0)"/><path class="cls-1" d="M264.41,633v32h-24V633h-8l-8-8v96.15h8v8h40.06v-8h8V625h-8Zm-8,80.12h-16V673.05h24v40.06Z" transform="translate(0 0)"/><polygon class="cls-1" points="256.4 472.74 256.4 464.73 248.39 472.74 256.4 480.75 256.4 472.74"/><path class="cls-1" d="M248.39,641v16h8V641l-8-8Z" transform="translate(0 0)"/><path class="cls-1" d="M240.38,432.67l8,8v-16l-8-8Z" transform="translate(0 0)"/><polygon class="cls-1" points="224.35 328.51 224.35 336.53 232.36 328.51 224.35 320.5 224.35 328.51"/><path class="cls-1" d="M216.34,384.6v16h8v-32l-8,8Z" transform="translate(0 0)"/><path class="cls-1" d="M216.34,432.67v16h8v-16l-8-8Z" transform="translate(0 0)"/><path class="cls-1" d="M192.3,456.71v8h8v8h40.07v-8h8v-8l-16-16v16h-24V416.65h32v-32l8-8v-16l-8,8v-16H200.31v40.06l-8-8v56.09h-8l8,8Zm16-64.1v-24h24v8l-8,8h8v24h-24Z" transform="translate(0 0)"/><path class="cls-1" d="M1105.72,1081.69h-16v16h8l8-8Z" transform="translate(0 0)"/><path class="cls-1" d="M993.55,1017.59v8l8-8v-16l-8,8Z" transform="translate(0 0)"/><polygon class="cls-1" points="993.55 937.46 993.55 929.45 985.54 937.46 985.54 945.48 993.55 945.48 993.55 937.46"/><path class="cls-1" d="M985.54,1177.84h-16l8,8h8Z" transform="translate(0 0)"/><polygon class="cls-1" points="977.52 1113.74 977.52 1105.73 969.51 1113.74 977.52 1121.75 977.52 1113.74"/><polygon class="cls-1" points="969.51 873.36 977.52 865.35 969.51 865.35 969.51 873.36"/><path class="cls-1" d="M961.5,929.45v16l8-8Z" transform="translate(0 0)"/><polygon class="cls-1" points="961.5 1137.78 953.49 1145.79 961.5 1145.79 961.5 1137.78"/><polygon class="cls-1" points="937.46 1105.73 937.46 1097.71 929.45 1105.73 937.46 1113.74 937.46 1105.73"/><polygon class="cls-1" points="929.45 1177.84 937.46 1177.84 929.45 1169.83 929.45 1177.84"/><polygon class="cls-1" points="929.45 913.43 929.45 905.41 921.44 905.41 929.45 913.43"/><path class="cls-1" d="M921.44,945.47v-16h-8V897.4l-16,16v24h8l8,8v8h8Z" transform="translate(0 0)"/><path class="cls-1" d="M913.42,1177.84v16h8v-24h-8Z" transform="translate(0 0)"/><g id="Export"><line id="Export-2" data-name="Export" class="cls-2" x2="1282"/><line id="Export-3" data-name="Export" class="cls-2" x1="1282" y1="1282" y2="1282"/></g></g></g></svg>