<svg xmlns="http://www.w3.org/2000/svg" viewBox="0 0 1282 1282"><defs><style>.cls-1{fill:#576d64;}.cls-2{fill:none;}</style></defs><g id="Layer_2" data-name="Layer 2"><g id="Layer_1-2" data-name="Layer 1"><polygon class="cls-1" points="1217.9 649.01 1217.9 657.03 1225.91 649.01 1217.9 641 1217.9 649.01"/><path class="cls-1" d="M1185.85,665v8l8-8V649l-8,8Z" transform="translate(0 0)"/><path class="cls-1" d="M1169.82,673.05l-8,8h16l8-8Z" transform="translate(0 0)"/><polygon class="cls-1" points="1137.78 689.08 1145.79 681.06 1137.78 681.06 1137.78 689.08"/><path class="cls-1" d="M1113.74,681.06l-8,8h16l8-8Z" transform="translate(0 0)"/><path class="cls-1" d="M1081.69,713.11l8,8,8-8Z" transform="translate(0 0)"/><path class="cls-1" d="M1081.69,697.09h-16l-8,8v16l-8,8h-16l-8,8v16h-16l-16,16v16l-8,8v16l8,8v-16l8-8v-16l16-16h16v-16l8-8h16l16-16v-16h32l-8-8Z" transform="translate(0 0)"/><path class="cls-1" d="M1081.69,1153.8v-8h-64.1l16,16h16v16l8,8h8v8h8v8l16-16v-16l-8-8Z" transform="translate(0 0)"/><polygon class="cls-1" points="1065.66 753.18 1065.66 761.19 1073.67 753.18 1065.66 753.18"/><path class="cls-1" d="M1065.66,1266v16h8v-16l-8-8Z" transform="translate(0 0)"/><path class="cls-1" d="M1057.65,1225.91h-8l16,16h8v-16Z" transform="translate(0 0)"/><path class="cls-1" d="M1049.64,1250v32h8v-32l-8-8Z" transform="translate(0 0)"/><polygon class="cls-1" points="1041.63 777.21 1033.61 777.21 1041.63 785.23 1049.64 777.21 1041.63 777.21"/><path class="cls-1" d="M1033.61,1177.84l8,8,8-8Z" transform="translate(0 0)"/><polygon class="cls-1" points="1041.63 865.35 1041.63 857.34 1033.61 857.34 1025.6 865.35 1033.61 873.36 1041.63 865.35"/><path class="cls-1" d="M1033.61,1001.56h8v-16h-8Z" transform="translate(0 0)"/><polygon class="cls-1" points="1033.61 1233.93 1033.61 1241.94 1041.63 1233.93 1033.61 1225.91 1033.61 1233.93"/><path class="cls-1" d="M1033.61,1209.89h-24v8l8,8h16Z" transform="translate(0 0)"/><path class="cls-1" d="M1033.61,809.26v-16l-8,8Z" transform="translate(0 0)"/><path class="cls-1" d="M1025.6,953.49v8l8,8v16l8-8v-16l-8-8v-16h-8Z" transform="translate(0 0)"/><polygon class="cls-1" points="1017.59 817.28 1017.59 825.29 1025.6 817.28 1017.59 809.26 1017.59 817.28"/><polygon class="cls-1" points="1017.59 1282 1025.6 1282 1017.59 1273.99 1017.59 1282"/><path class="cls-1" d="M1017.59,953.49h-16l8,8Z" transform="translate(0 0)"/><polygon class="cls-1" points="1009.58 841.31 1009.58 849.33 1017.59 841.31 1009.58 833.3 1009.58 841.31"/><path class="cls-1" d="M1009.57,1113.74v-8l-8-8,8-8v-16l-8-8,8-8v-8h8v-16l-8,8h-8v-24l-8,8v96.15l8,8,8-8Z" transform="translate(0 0)"/><path class="cls-1" d="M1009.57,801.25l8-8h-16v8Z" transform="translate(0 0)"/><polygon class="cls-1" points="1001.56 1153.8 1009.58 1153.8 1001.56 1145.79 1001.56 1153.8"/><path class="cls-1" d="M1001.56,1266v8l-8,8h16v-16l-8-8Z" transform="translate(0 0)"/><path class="cls-1" d="M993.55,833.3V945.47l-8,8,8,8v16l8,8V937.46h24v-8l-8-8V889.39l-8,8-8-8h16l-8-8,8-8v16l8,8v32.05l8-8V873.36h-8v-8l-8-8h-8v8l-8,8V825.29l-8-8Zm16,88.14v8l-8-8,8-8Z" transform="translate(0 0)"/><path class="cls-1" d="M993.55,1169.82l8-8h-16l8-8-8-8,16-16h-16l-8,8v32l8,8v8h8Z" transform="translate(0 0)"/><path class="cls-1" d="M985.54,1201.88v24l8,8v-48.07l-8,8Z" transform="translate(0 0)"/><path class="cls-1" d="M80.12,673.05h16V657Z" transform="translate(0 0)"/><path class="cls-1" d="M1282,544.85h-16l8,8Z" transform="translate(0 0)"/><path class="cls-1" d="M1266,584.91h-8l-8-8v8h-24l8,8h16l8,8h16l8,8v-24Z" transform="translate(0 0)"/><polygon class="cls-1" points="1241.94 576.9 1249.95 576.9 1241.94 568.89 1241.94 576.9"/><polygon class="cls-1" points="1233.92 616.96 1241.94 616.96 1233.92 608.95 1233.92 616.96"/><path class="cls-1" d="M1217.9,568.89v-8h-16v8h8l8,8Z" transform="translate(0 0)"/><path class="cls-1" d="M1201.87,528.83l8,8h8v8l8,8h32l16-16h-48.08l-16-16,8-8h-16Z" transform="translate(0 0)"/><path class="cls-1" d="M1201.87,600.94v24l8,8V592.92h-8Z" transform="translate(0 0)"/><path class="cls-1" d="M1193.86,504.79l8-8h-16l-8-8v16h8v8h16Z" transform="translate(0 0)"/><path class="cls-1" d="M1185.85,600.94v8l8,8v-16l-8-8Z" transform="translate(0 0)"/><path class="cls-1" d="M1177.84,584.91h-32l16,16h16l8-8v-8Z" transform="translate(0 0)"/><path class="cls-1" d="M1177.84,472.74l-8-8h-16l-8-8h-16l8,8h-16l8,8h16v8h8l8,8h16l8-8Z" transform="translate(0 0)"/><path class="cls-1" d="M1177.84,625v-8l-8,8v16l8-8Z" transform="translate(0 0)"/><path class="cls-1" d="M1161.81,528.83h-56.09l16,16h56.09v-8h-8v-8Z" transform="translate(0 0)"/><path class="cls-1" d="M1145.79,625h-8l8-8-16-16v32l-40.06,40.06v16l8,8v-16l8-8h16l-8-8,24-24h16l-8-8Z" transform="translate(0 0)"/><path class="cls-1" d="M1145.79,24l24-24h-16l-24,24Z" transform="translate(0 0)"/><path class="cls-1" d="M1121.75,448.7l8-8h-32l8-8V384.6l-8-8-8,8-16-16h24v-8l-8-8v-8h-8l8-8v-16l16-16v-16l8-8v-16l8-8-8-8v-32h-16l8,8v32l-8,8V224.35h-8v-16h-32l16,16h-8v24l-8-8v-16H1025.6l-16-16V176.27l-8,8v32.05h-8v24l24,24h-8v8l-8,8v8h-8l8,8v16l16,16h-8v8l8,8v48.07l8,8v32.05l16-16V368.58l8,8v32.05l-8,8,16,16H1025.6l8,8h-32l8,8h-16l8,8h-16l8,8h24v-8l8-8h16l8-8h16l8,8,8-8,8,8h-16l8,8h16l8,8h16l8-8Zm-32-48.08v16l-8-8v-16Zm-8-80.12v8l-8,8v-32l8,8Zm-40.07,24h-8l8-8,8,8Zm-8-72.12v-24l8-8v48.07l-8-8Zm24-8v8l-8-8Zm16,16h8l-16,16-16-16Zm8,16,8-8v16Zm-8-48.07v-8l8,8v16l-8,8Zm-56.08,0v-16l8,8v16Zm0,40.06v8l-8-8Zm0,24-8-8h32l-16,16Zm32.05,48.07-8-8h16V320.5l8,8v16l-8,8h16l-16,16Zm16,56.09V376.59l8,8v40.06h-8Zm16,16h-8l8-8,8,8Z" transform="translate(0 0)"/><polygon class="cls-1" points="1089.7 472.74 1089.7 480.75 1097.71 472.74 1089.7 472.74"/><polygon class="cls-1" points="1089.7 488.76 1089.7 480.75 1081.69 488.76 1089.7 496.78 1089.7 488.76"/><path class="cls-1" d="M1073.67,528.83h-16l8,8h16l8-8Z" transform="translate(0 0)"/><path class="cls-1" d="M1073.67,72.11v8l32-32h-16l-16,16Z" transform="translate(0 0)"/><path class="cls-1" d="M1065.66,456.71h-24v8l8,8h32v-16Z" transform="translate(0 0)"/><path class="cls-1" d="M1073.67,48.08h-16l8,8Z" transform="translate(0 0)"/><path class="cls-1" d="M1057.65,488.76h-8l8,8h16l-8-8Z" transform="translate(0 0)"/><polygon class="cls-1" points="1049.64 72.11 1049.64 80.13 1057.65 80.13 1049.64 72.11"/><path class="cls-1" d="M1041.62,200.31v8l8,8V184.29l-8,8Z" transform="translate(0 0)"/><path class="cls-1" d="M1041.62,72.11v-8l-8-8v24h8Z" transform="translate(0 0)"/><path class="cls-1" d="M1033.61,216.34v-16h-8v-24l-8-8v32.05Z" transform="translate(0 0)"/><polygon class="cls-1" points="1025.6 464.73 1025.6 472.74 1033.61 472.74 1025.6 464.73"/><path class="cls-1" d="M1009.57,48.08l-16-16v16Z" transform="translate(0 0)"/><path class="cls-1" d="M985.54,520.81l8-8h-16l-16,16h16Z" transform="translate(0 0)"/><polygon class="cls-1" points="977.52 48.08 977.52 40.06 969.51 40.06 977.52 48.08"/><path class="cls-1" d="M977.52,32.05l-8-8V0h-8V32.05Z" transform="translate(0 0)"/><path class="cls-1" d="M689.07,0l-16,16h16l16-16Z" transform="translate(0 0)"/><path class="cls-1" d="M665,0h-8L633,24H617l-8,8h32l32-32Z" transform="translate(0 0)"/><path class="cls-1" d="M617,8l8-8H609l-8,8h-16l-8,8h-8v8h-32l-8,8h-16l-8,8h-16l-8-8H448.7V24h-8l-8-8v24h40.07l8,8h32l8-8h16l8-8h32V24h8V16h24Z" transform="translate(0 0)"/><path class="cls-1" d="M536.84,56.09H504.79l-8,8h48.08l8-8v-16Z" transform="translate(0 0)"/><path class="cls-1" d="M448.7,56.09h-24l-8,8h48.07l-8-8Z" transform="translate(0 0)"/><path class="cls-1" d="M408.64,0h-8V16l-8,8V56.09l8-8v-16l8-8V8l8-8Z" transform="translate(0 0)"/><polygon class="cls-1" points="392.61 0 384.6 0 392.61 8.01 392.61 0"/><path class="cls-1" d="M360.56,8l-24,24v16L368.58,16V0h-8Z" transform="translate(0 0)"/><path class="cls-1" d="M352.55,48.08l-8,8h-16l-16,16h16l8-8h16l16-16v-16Z" transform="translate(0 0)"/><path class="cls-1" d="M320.5,96.15h16v-16Z" transform="translate(0 0)"/><polygon class="cls-1" points="312.49 48.08 312.49 40.06 304.48 48.08 312.49 56.09 312.49 48.08"/><path class="cls-1" d="M296.46,40.06v-8h8l8-8h-24v24l8,8Z" transform="translate(0 0)"/><path class="cls-1" d="M288.45,56.09h-8l-16,16h-16l-8,8h-24v8l8,8,8-8h16l8-8h16l16-16h16l-8-8Z" transform="translate(0 0)"/><path class="cls-1" d="M280.44,88.14l-8,8h16l8-8v-16Z" transform="translate(0 0)"/><path class="cls-1" d="M256.4,96.15h-16l-8,8h32.05l8-8Z" transform="translate(0 0)"/><path class="cls-1" d="M240.38,144.22h16v-16Z" transform="translate(0 0)"/><path class="cls-1" d="M232.36,128.2H200.31v8l8,8h16l16-16Z" transform="translate(0 0)"/><path class="cls-1" d="M200.31,152.24H168.26v16l8-8h32.06l8-8Z" transform="translate(0 0)"/><path class="cls-1" d="M184.29,136.21l8,8,8-8Z" transform="translate(0 0)"/><path class="cls-1" d="M160.25,144.22h16l-8-8h-16l-16,16-16-16h16l8-8h-32l-16,16,16,16h8v8l-8,8h16l8,8h8v-8h16l-16-16Z" transform="translate(0 0)"/><path class="cls-1" d="M160.25,128.2H192.3l-8-8H136.21l8,8Z" transform="translate(0 0)"/><path class="cls-1" d="M152.24,552.86v-8h-16v-8l-8-8h-16l-8-8v16l8,8h16l8,8v8h8l8,8Z" transform="translate(0 0)"/><path class="cls-1" d="M144.22,568.89h-8l8,8v16l16-16-8-8Z" transform="translate(0 0)"/><polygon class="cls-1" points="128.2 584.91 128.2 592.93 136.21 584.91 128.2 576.9 128.2 584.91"/><path class="cls-1" d="M120.19,625v24l8-8V625l-8-8Z" transform="translate(0 0)"/><path class="cls-1" d="M112.17,592.92l8-8v-16l-16-16h-16l24,24Z" transform="translate(0 0)"/><path class="cls-1" d="M104.16,625v8l-8,8v16l16-16V609l-8,8Z" transform="translate(0 0)"/><path class="cls-1" d="M88.14,472.74l8,8,8-8Z" transform="translate(0 0)"/><path class="cls-1" d="M88.14,456.71h-16l8-8v-8h-24l8,8v16H96.15l8,8v8h8v-16l-8-8Z" transform="translate(0 0)"/><polygon class="cls-1" points="96.15 440.69 88.14 440.69 96.15 448.7 96.15 440.69"/><path class="cls-1" d="M88.14,152.24l-8,8h-8v8h16l16-16Z" transform="translate(0 0)"/><path class="cls-1" d="M88.14,512.8v-16h-16v8l8,8Z" transform="translate(0 0)"/><path class="cls-1" d="M80.12,625H32.05v32h24v-8h8v-8h8v-8h8Z" transform="translate(0 0)"/><path class="cls-1" d="M72.11,184.29V296.46l-8,8h16v16l-16-16V424.66h-24v8h-8l-8,8H8l-8,8v16l16-16h16l16-16h16l8-8,8,8,8-8V376.59l8,8v16l8,8v48.07h8V384.6l8-8V328.51l8-8V248.39h-8l8-8v-16l-8-8v-16l-24,24v-32l-8-8,8-8h-16l-8-8Zm32.05,112.17-8,8v-16Zm-24,80.13v24l-8,8V328.51l8,8Zm24-16v16l-16-16h16v-8h8Zm16-96.15v48.08l-16,16v16l-8,8V320.5l16-16V256.4Zm-8-24h-8v-8Zm-24-40.07v48.08h16v16l-16-16v32.05l-8,8V192.3Z" transform="translate(0 0)"/><path class="cls-1" d="M72.11,528.83v8l8,8v-16l-8-8Z" transform="translate(0 0)"/><polygon class="cls-1" points="56.09 288.45 56.09 296.46 64.1 288.45 56.09 288.45"/><path class="cls-1" d="M48.08,456.71H24l-8,8v16l16-16h16l8-8Z" transform="translate(0 0)"/><path class="cls-1" d="M48.08,472.74h-8l-8,8v16l24-24Z" transform="translate(0 0)"/><polygon class="cls-1" points="48.08 504.79 40.06 504.79 48.08 512.8 56.09 504.79 48.08 504.79"/><path class="cls-1" d="M40.06,544.85h-8l8,8h16v-8Z" transform="translate(0 0)"/><path class="cls-1" d="M24,552.86l-16-16v16l8,8h16Z" transform="translate(0 0)"/><path class="cls-1" d="M24,520.81l8-8H16l-8,8v16Z" transform="translate(0 0)"/><path class="cls-1" d="M8,633l8,8,8-8Z" transform="translate(0 0)"/><g id="Export"><line id="Export-2" data-name="Export" class="cls-2" x2="1282"/><line id="Export-3" data-name="Export" class="cls-2" x1="1282" y1="1282" y2="1282"/></g></g></g></svg>