<svg xmlns="http://www.w3.org/2000/svg" viewBox="0 0 1282 1282"><defs><style>.cls-1{fill:#729b8e;}.cls-2{fill:none;}</style></defs><g id="Layer_2" data-name="Layer 2"><g id="Layer_1-2" data-name="Layer 1"><path class="cls-1" d="M1073.67,1209.89v32h-8l-16-16v-40.06h8l-8-8-8,8-8-8,8-8,8,8v-16h-16l-16-16v-48.08l8-8-8-8v-32h-8v8l-8,8,8,8v16l-8,8,8,8v16l-24,24,16,16-8,8v64.1h8v24l8,8v16h8v-8l8,8h24v-40.06l8,8v32h8v-24l8,8v16h8v-32h-8l8-8v-32l-8-8Zm-72.11-56.09v-8l8,8Zm32,88.14v-16h-16l-8-8v-48.08l24,24v32.05l8,8Z" transform="translate(0 0)"/><polygon class="cls-1" points="1025.6 865.35 1025.6 873.36 1033.61 873.36 1025.6 865.35"/><path class="cls-1" d="M1017.59,905.41v16l8,8V897.4l-8-8Z" transform="translate(0 0)"/><path class="cls-1" d="M1017.59,873.36l-8,8,8,8Z" transform="translate(0 0)"/><polygon class="cls-1" points="1009.58 921.44 1009.58 913.43 1001.56 921.44 1009.58 929.45 1009.58 921.44"/><path class="cls-1" d="M1001.56,945.47v8l8-8,8,8-8,8-8-8v72.11h8l8,8v-16h8v-8l8-8v-32l-8-8v-24h-24Zm24,24v16h-8v-16Z" transform="translate(0 0)"/><path class="cls-1" d="M1274,600.94h-16l-8-8h-16l-8-8,8-8h8v-8l16-16h-32l-8-8v32l-8-8h-8v-24h16v-8h-8l-8-8v-16h-16v-8h-8v-16h-16l-8-8v16h16v24h-8v8h8v8h8v8h-56.09l-32-32.05,16-16v-16h16v8h8l8-8h8v-8h-16l-8-8h-16l-8-8h-16v16h-32l-8-8v-16h-16l-8,8v8h-8l-8,8v16l8-8h16l16,16h-32l-24,24h48.07v16h16v8h8l8,8h32l8-8v8h24v32l8,8h-8v8l16,16-8,8h8v8l8,8h-16l-24,24,8,8h-16l-8,8v16l8,8h-32v16l-16,16h-16l-8,8v16h-16l-16,16v8h8l8,8-8,8h-8v-8l-8,8v16l8,8v48.07l8-8v-8h8v-8h8l8,8h8V825.29h-8l8-8v-16l-8-8v16l-8-8,8-8h16v-8h16v-8l-8-8h24v-24l-8-8h16l8-8,8,8h16v-16l-8-8,8-8h16l-8-8h16l8-8h32l8-8h32.05l-8-8,8-8V649l-8,8V641l8,8h8v-8l8-8h8v-8h8v-8l8-8,8,8,8-8ZM1089.7,472.74h8l-8,8v16l-8-8,8-8Zm-64.1,0v-8l8,8Zm32.05,16h8l8,8h-16l-8-8Zm-40.06,24h-8l8-8,8,8Zm40.06,16-8-8,16-16,24,24-8,8h-16Zm-48.08,320.49v-16l8,8Zm16-32.05-8,8v-16Zm16-32-8-8,8-8,8,8Zm24-24v-8h8Zm16-48.08h16l-8,8Zm64.1-136.21v-8l8-8h32v32l8,8v16l-8-8v-16l-8,8h-16l-16-16Zm24,56.09v-8l8-8v16l-8,8Zm-56.08,56.08h-8l8-8h16l-8,8Zm24,0v-8h8Zm40.07-8h-16l8-8h16V657l8-8v16Zm24-56.09V592.92h8V633Zm32.05-8v-8l8,8Z" transform="translate(0 0)"/><path class="cls-1" d="M1274,552.86l-8-8-8,8Z" transform="translate(0 0)"/><path class="cls-1" d="M1097.71,240.38v24l8-8v-32l-8-8V184.29l-16-16h-16l-8-8h-16l-8,8h-16l8,8v24h8v16l-16-16V168.26l-8,8v32.06l16,16h32.05v16l8,8v-24h8l-16-16,16-16h16v32h8Zm-48.07-32v8l-8-8v-16l8-8Z" transform="translate(0 0)"/><path class="cls-1" d="M1089.7,64.1l-16,16,16,16h16v-8h-8l8-8v-32Z" transform="translate(0 0)"/><path class="cls-1" d="M1089.7,408.64v-8l-8-8v16l8,8Z" transform="translate(0 0)"/><polygon class="cls-1" points="1089.7 296.46 1089.7 288.45 1081.69 296.46 1089.7 304.48 1089.7 296.46"/><path class="cls-1" d="M1081.69,256.4v-8l-8-8v32l8-8Z" transform="translate(0 0)"/><path class="cls-1" d="M1073.67,312.49v24l8-8v-16l-8-8Z" transform="translate(0 0)"/><path class="cls-1" d="M1073.67,416.65v-32l-8-8v48.07h8Z" transform="translate(0 0)"/><path class="cls-1" d="M1065.66,336.52v-8l-8-8v32.05l8-8Z" transform="translate(0 0)"/><polygon class="cls-1" points="1057.65 264.41 1049.64 264.41 1057.65 272.43 1057.65 264.41"/><path class="cls-1" d="M1041.62,336.52l-8,8h16Z" transform="translate(0 0)"/><path class="cls-1" d="M1041.62,376.59v40.06l8-8V376.59l-8-8Z" transform="translate(0 0)"/><path class="cls-1" d="M1041.62,280.44V240.38l-8,8v32.05l8,8Z" transform="translate(0 0)"/><path class="cls-1" d="M1017.59,240.38v8l8,8v-16l-8-8Z" transform="translate(0 0)"/><polygon class="cls-1" points="1017.59 296.46 1017.59 288.45 1009.58 288.45 1017.59 296.46"/><path class="cls-1" d="M993.55,56.09v8l16,16v16c4-4,12-12,16-16h8v-24l8,8v16h8v-8l8,8h16v-16l16-16h40.06v-16h24l8-8V16h8V0l-24,24h-16l24-24h-16l-24,24h-16l-16,16h-64.1l-16-16h-16l8-8V8h-8l8-8h-24V24l8,8h-16V0h-24V8l16,16-8,8h-8v8h16l16,16Zm112.17-24,8,8h-16ZM1017.59,64.1h-8l8-8,8,8Zm48.07-16h8l-8,8-8-8Zm-64.1-8,8,8h-16v-16Zm-32,0h8v8Z" transform="translate(0 0)"/><path class="cls-1" d="M689.07,16h-16l16-16h-16L641,32.05H609l8-8h16L657,0H625L609,16h-24v8h-8v8h-32l-8,8h-16l-8,8h-32l-8-8H432.67V0h-16l-8,8V24l-8,8v16l-8,8V24l8-8V0h-8V8l-8-8h-16V16L336.52,48.08v-16l24-24V0h-24V8h-8l-24,24h-8v24l8,8h-16l-16,16h-16l-8,8h-16l-8,8h-16l-8,8h-8v24H144.22l-8,8h-16l16,16,16-16h16l8,8h-16l-16,16,16,16h16l8-8h32.05l8-8,8,8,16-16h16v-16l8-8v-24h8l8-8h-16l-8,8H232.36l8-8h32l24-24v16l-8,8h16v-8h8l8,8,16-16v16h-16l8,8h16v-16l8-8h16l8-8h16l8,8h8v8l8,8,8-8h16v8h8v-16h80.13l8-8h16v-8h8l16-16H657l8-8h16l8-8-8-8h16V16h8V0ZM208.33,160.25H176.27l-8,8v-16h48.08Zm48.07-24v8h-16l16-16Zm-24-16,8,8-16,16h-16l-8-8-8,8-8-8h16v-16l8-8h16ZM456.71,64.1H416.65l8-8h32l8,8Zm-152.24-16,8-8v16Zm16,24h-8l16-16h16l24-24v16l-16,16h-16l-8,8Zm224.35-8H496.77l8-8h32.05l16-16v16Z" transform="translate(0 0)"/><path class="cls-1" d="M144.22,609l-8-8,8-8v-16l-8-8,8-8h-8v-8l-8-8h-16l-8-8v-64.1l-8,8-8-8,8-8H64.1v-16l-8-8,8-8h-16l-16,16H16l-16,16V697.09H16v-8l16-16h8v-8h16l8,8,8-8,8,8,16-16V641l8-8V617l8-8v32l-16,16v16l8,8,8-8h16l8-8V649l8-8v-8h16v-8Zm-8-24-8,8v-16Zm-24-24,8,8v16l-8,8v-16l-24-24h16Zm-80.12-16v-16h16l8,8v16h-16Zm16-48.08,8,8-8,8-8-8Zm32,32.06v16l-8-8v-16Zm8-48.08v32h-8l-8-8v-16l8-8Zm-40.06,0-16,16v-16l8-8h16Zm-24-24H56.09l-8,8h-16l-16,16v-16ZM8,544.85v-24l8-8h16l-24,24,24,24H16l-8-8ZM16,625l8,8-8,8-8-8Zm32.06,32h-16V576.9l8-8h16v8h8v8h8v8h8V633h-8v8h-8v8h-8v8Zm72.11-8V617l8,8v16Z" transform="translate(0 0)"/><path class="cls-1" d="M120.19,312.49V264.41l-8-8v48.07l-16,16v32.05l8-8v-16Z" transform="translate(0 0)"/><polygon class="cls-1" points="104.16 360.56 112.17 352.55 104.16 352.55 104.16 360.56"/><polygon class="cls-1" points="104.16 232.36 104.16 240.38 112.17 240.38 104.16 232.36"/><path class="cls-1" d="M96.15,288.45v16l8-8Z" transform="translate(0 0)"/><polygon class="cls-1" points="96.15 440.69 96.15 432.68 88.14 440.69 96.15 440.69"/><path class="cls-1" d="M96.15,392.61v-8l-8-8v32.05l8-8Z" transform="translate(0 0)"/><path class="cls-1" d="M88.14,184.29l8,8,8-8,16,16v16l8,8v-32l-8-8h16l-8-8h-16l8-8v-8h-8l-8-8-16,16,8,8Z" transform="translate(0 0)"/><path class="cls-1" d="M88.14,272.42V200.31l-8-8v96.15l8-8Z" transform="translate(0 0)"/><path class="cls-1" d="M88.14,168.26h-16l8,8Z" transform="translate(0 0)"/><path class="cls-1" d="M80.12,392.61V336.52l-8-8v80.13l8-8Z" transform="translate(0 0)"/><g id="Export"><line id="Export-2" data-name="Export" class="cls-2" x2="1282"/><line id="Export-3" data-name="Export" class="cls-2" x1="1282" y1="1282" y2="1282"/></g></g></g></svg>