<svg viewBox="0 0 640 640" xmlns="http://www.w3.org/2000/svg"><g fill="#729b8e"><path d="m216 284v16h-4l-8-8v-20h4l-4-4-4 4-4-4 4-4 4 4v-8h-8l-8-8v-24l4-4-4-4v-16h-4v4l-4 4 4 4v8l-4 4 4 4v8l-12 12 8 8-4 4v32h4v12l4 4v8h4v-4l4 4h12v-20l4 4v16h4v-12l4 4v8h4v-16h-4l4-4v-16l-4-4zm-36-28v-4l4 4zm16 44v-8h-8l-4-4v-24l12 12v16l4 4z" transform="translate(320 320)"/><path d="m512 432v4h4z"/><path d="m188 132v8l4 4v-16l-4-4z" transform="translate(320 320)"/><path d="m188 116-4 4 4 4z" transform="translate(320 320)"/><path d="m504 460v-4l-4 4 4 4z"/><g transform="translate(320 320)"><path d="m180 152v4l4-4 4 4-4 4-4-4v36h4l4 4v-8h4v-4l4-4v-16l-4-4v-12h-12zm12 12v8h-4v-8z"/><path d="m316-20h-8l-4-4h-8l-4-4 4-4h4v-4l8-8h-16l-4-4v16l-4-4h-4v-12h8v-4h-4l-4-4v-8h-8v-4h-4v-8h-8l-4-4v8h8v12h-4v4h4v4h4v4h-28l-16-16 8-8v-8h8v4h4l4-4h4v-4h-8l-4-4h-8l-4-4h-8v8h-16l-4-4v-8h-8l-4 4v4h-4l-4 4v8l4-4h8l8 8h-16l-12 12h24v8h8v4h4l4 4h16l4-4v4h12v16l4 4h-4v4l8 8-4 4h4v4l4 4h-8l-12 12 4 4h-8l-4 4v8l4 4h-16v8l-8 8h-8l-4 4v8h-8l-8 8v4h4l4 4-4 4h-4v-4l-4 4v8l4 4v24l4-4v-4h4v-4h4l4 4h4v-16h-4l4-4v-8l-4-4v8l-4-4 4-4h8v-4h8v-4l-4-4h12v-12l-4-4h8l4-4 4 4h8v-8l-4-4 4-4h8l-4-4h8l4-4h16l4-4h16l-4-4 4-4v-8l-4 4v-8l4 4h4v-4l4-4h4v-4h4v-4l4-4 4 4 4-4zm-92-64h4l-4 4v8l-4-4 4-4zm-32 0v-4l4 4zm16 8h4l4 4h-8l-4-4zm-20 12h-4l4-4 4 4zm20 8-4-4 8-8 12 12-4 4h-8zm-24 160v-8l4 4zm8-16-4 4v-8zm8-16-4-4 4-4 4 4zm12-12v-4h4zm8-24h8l-4 4zm32-68v-4l4-4h16v16l4 4v8l-4-4v-8l-4 4h-8l-8-8zm12 28v-4l4-4v8l-4 4zm-28 28h-4l4-4h8l-4 4zm12 0v-4h4zm20-4h-8l4-4h8v-8l4-4v8zm12-28v-16h4v20zm16-4v-4l4 4z"/><path d="m316-44-4-4-4 4z"/><path d="m228-200v12l4-4v-16l-4-4v-16l-8-8h-8l-4-4h-8l-4 4h-8l4 4v12h4v8l-8-8v-16l-4 4v16l8 8h16v8l4 4v-12h4l-8-8 8-8h8v16h4zm-24-16v4l-4-4v-8l4-4z"/><path d="m224-288-8 8 8 8h8v-4h-4l4-4v-16z"/><path d="m224-116v-4l-4-4v8l4 4z"/></g><path d="m544 148v-4l-4 4 4 4z"/><g transform="translate(320 320)"><path d="m220-192v-4l-4-4v16l4-4z"/><path d="m216-164v12l4-4v-8l-4-4z"/><path d="m216-112v-16l-4-4v24h4z"/><path d="m212-152v-4l-4-4v16l4-4z"/></g><path d="m528 132h-4l4 4z"/><g transform="translate(320 320)"><path d="m200-152-4 4h8z"/><path d="m200-132v20l4-4v-16l-4-4z"/><path d="m200-180v-20l-4 4v16l4 4z"/><path d="m188-200v4l4 4v-8l-4-4z"/></g><path d="m508 148v-4h-4z"/><g transform="translate(320 320)"><path d="m176-292v4l8 8v8l8-8h4v-12l4 4v8h4v-4l4 4h8v-8l8-8h20v-8h12l4-4v-4h4v-8l-12 12h-8l12-12h-8l-12 12h-8l-8 8h-32l-8-8h-8l4-4v-4h-4l4-4h-12v12l4 4h-8v-16h-12v4l8 8-4 4h-4v4h8l8 8zm56-12 4 4h-8zm-44 16h-4l4-4 4 4zm24-8h4l-4 4-4-4zm-32-4 4 4h-8v-8zm-16 0h4v4z"/><path d="m24-312h-8l8-8h-8l-16 16h-16l4-4h8l12-12h-16l-8 8h-12v4h-4v4h-16l-4 4h-8l-4 4h-16l-4-4h-20v-20h-8l-4 4v8l-4 4v8l-4 4v-16l4-4v-8h-4v4l-4-4h-8v8l-16 16v-8l12-12v-4h-12v4h-4l-12 12h-4v12l4 4h-8l-8 8h-8l-4 4h-8l-4 4h-8l-4 4h-4v12h-24l-4 4h-8l8 8 8-8h8l4 4h-8l-8 8 8 8h8l4-4h16l4-4 4 4 8-8h8v-8l4-4v-12h4l4-4h-8l-4 4h-16l4-4h16l12-12v8l-4 4h8v-4h4l4 4 8-8v8h-8l4 4h8v-8l4-4h8l4-4h8l4 4h4v4l4 4 4-4h8v4h4v-8h40l4-4h8v-4h4l8-8h40l4-4h8l4-4-4-4h8v-4h4v-8zm-240 72h-16l-4 4v-8h24zm24-12v4h-8l8-8zm-12-8 4 4-8 8h-8l-4-4-4 4-4-4h8v-8l4-4h8zm112-28h-20l4-4h16l4 4zm-76-8 4-4v8zm8 12h-4l8-8h8l12-12v8l-8 8h-8l-4 4zm112-4h-24l4-4h16l8-8v8z"/><path d="m-248-16-4-4 4-4v-8l-4-4 4-4h-4v-4l-4-4h-8l-4-4v-32l-4 4-4-4 4-4h-16v-8l-4-4 4-4h-8l-8 8h-8l-8 8v116h8v-4l8-8h4v-4h8l4 4 4-4 4 4 8-8v-8l4-4v-8l4-4v16l-8 8v8l4 4 4-4h8l4-4v-8l4-4v-4h8v-4zm-4-12-4 4v-8zm-12-12 4 4v8l-4 4v-8l-12-12h8zm-40-8v-8h8l4 4v8h-8zm8-24 4 4-4 4-4-4zm16 16v8l-4-4v-8zm4-24v16h-4l-4-4v-8l4-4zm-20 0-8 8v-8l4-4h8zm-12-12h16l-4 4h-8l-8 8v-8zm-8 44v-12l4-4h8l-12 12 12 12h-8l-4-4zm4 40 4 4-4 4-4-4zm16 16h-8v-40l4-4h8v4h4v4h4v4h4v20h-4v4h-4v4h-4v4zm36-4v-16l4 4v8z"/><path d="m-260-164v-24l-4-4v24l-8 8v16l4-4v-8z"/></g><path d="m52 180 4-4h-4z"/><path d="m52 116v4h4z"/><path d="m-272-176v8l4-4z" transform="translate(320 320)"/><path d="m48 220v-4l-4 4z"/><g transform="translate(320 320)"><path d="m-272-124v-4l-4-4v16l4-4z"/><path d="m-276-228 4 4 4-4 8 8v8l4 4v-16l-4-4h8l-4-4h-8l4-4v-4h-4l-4-4-8 8 4 4z"/><path d="m-276-184v-36l-4-4v48l4-4z"/><path d="m-276-236h-8l4 4z"/><path d="m-280-124v-28l-4-4v40l4-4z"/></g></g></svg>