<svg viewBox="0 0 640 640" xmlns="http://www.w3.org/2000/svg"><g fill="#576d64"><path d="m608 324v4l4-4-4-4z"/><path d="m272 12v4l4-4v-8l-4 4z" transform="translate(320 320)"/><path d="m264 16-4 4h8l4-4z" transform="translate(320 320)"/><path d="m568 344 4-4h-4z"/><path d="m236 20-4 4h8l4-4z" transform="translate(320 320)"/><path d="m220 36 4 4 4-4z" transform="translate(320 320)"/><path d="m220 28h-8l-4 4v8l-4 4h-8l-4 4v8h-8l-8 8v8l-4 4v8l4 4v-8l4-4v-8l8-8h8v-8l4-4h8l8-8v-8h16l-4-4z" transform="translate(320 320)"/><path d="m220 256v-4h-32l8 8h8v8l4 4h4v4h4v4l8-8v-8l-4-4z" transform="translate(320 320)"/><path d="m532 376v4l4-4z"/><path d="m212 312v8h4v-8l-4-4z" transform="translate(320 320)"/><path d="m208 292h-4l8 8h4v-8z" transform="translate(320 320)"/><path d="m204 304v16h4v-16l-4-4z" transform="translate(320 320)"/><path d="m520 388h-4l4 4 4-4z"/><path d="m196 268 4 4 4-4z" transform="translate(320 320)"/><path d="m520 432v-4h-4l-4 4 4 4z"/><path d="m196 180h4v-8h-4z" transform="translate(320 320)"/><path d="m516 616v4l4-4-4-4z"/><path d="m196 284h-12v4l4 4h8z" transform="translate(320 320)"/><path d="m196 84v-8l-4 4z" transform="translate(320 320)"/><path d="m192 156v4l4 4v8l4-4v-8l-4-4v-8h-4z" transform="translate(320 320)"/><path d="m508 408v4l4-4-4-4z"/><path d="m508 640h4l-4-4z"/><path d="m188 156h-8l4 4z" transform="translate(320 320)"/><path d="m504 420v4l4-4-4-4z"/><path d="m184 236v-4l-4-4 4-4v-8l-4-4 4-4v-4h4v-8l-4 4h-4v-12l-4 4v48l4 4 4-4z" transform="translate(320 320)"/><path d="m184 80 4-4h-8v4z" transform="translate(320 320)"/><path d="m500 576h4l-4-4z"/><g transform="translate(320 320)"><path d="m180 312v4l-4 4h8v-8l-4-4z"/><path d="m176 96v56l-4 4 4 4v8l4 4v-24h12v-4l-4-4v-16l-4 4-4-4h8l-4-4 4-4v8l4 4v16l4-4v-24h-4v-4l-4-4h-4v4l-4 4v-24l-4-4zm8 44v4l-4-4 4-4z"/><path d="m176 264 4-4h-8l4-4-4-4 8-8h-8l-4 4v16l4 4v4h4z"/><path d="m172 280v12l4 4v-24l-4 4z"/><path d="m-280 16h8v-8z"/><path d="m320-48h-8l4 4z"/><path d="m312-28h-4l-4-4v4h-12l4 4h8l4 4h8l4 4v-12z"/></g><path d="m620 288h4l-4-4z"/><path d="m616 308h4l-4-4z"/><g transform="translate(320 320)"><path d="m288-36v-4h-8v4h4l4 4z"/><path d="m280-56 4 4h4v4l4 4h16l8-8h-24l-8-8 4-4h-8z"/><path d="m280-20v12l4 4v-20h-4z"/><path d="m276-68 4-4h-8l-4-4v8h4v4h8z"/><path d="m272-20v4l4 4v-8l-4-4z"/><path d="m268-28h-16l8 8h8l4-4v-4z"/><path d="m268-84-4-4h-8l-4-4h-8l4 4h-8l4 4h8v4h4l4 4h8l4-4z"/><path d="m268-8v-4l-4 4v8l4-4z"/><path d="m260-56h-28l8 8h28v-4h-4v-4z"/><path d="m252-8h-4l4-4-8-8v16l-20 20v8l4 4v-8l4-4h8l-4-4 12-12h8l-4-4z"/><path d="m252-308 12-12h-8l-12 12z"/><path d="m240-96 4-4h-16l4-4v-24l-4-4-4 4-8-8h12v-4l-4-4v-4h-4l4-4v-8l8-8v-8l4-4v-8l4-4-4-4v-16h-8l4 4v16l-4 4v-20h-4v-8h-16l8 8h-4v12l-4-4v-8h-16l-8-8v-16l-4 4v16h-4v12l12 12h-4v4l-4 4v4h-4l4 4v8l8 8h-4v4l4 4v24l4 4v16l8-8v-24l4 4v16l-4 4 8 8h-16l4 4h-16l4 4h-8l4 4h-8l4 4h12v-4l4-4h8l4-4h8l4 4 4-4 4 4h-8l4 4h8l4 4h8l4-4zm-16-24v8l-4-4v-8zm-4-40v4l-4 4v-16l4 4zm-20 12h-4l4-4 4 4zm-4-36v-12l4-4v24l-4-4zm12-4v4l-4-4zm8 8h4l-8 8-8-8zm4 8 4-4v8zm-4-24v-4l4 4v8l-4 4zm-28 0v-8l4 4v8zm0 20v4l-4-4zm0 12-4-4h16l-8 8zm16 24-4-4h8v-16l4 4v8l-4 4h8l-8 8zm8 28v-20l4 4v20h-4zm8 8h-4l4-4 4 4z"/></g><path d="m544 236v4l4-4z"/><path d="m544 244v-4l-4 4 4 4z"/><g transform="translate(320 320)"><path d="m216-56h-8l4 4h8l4-4z"/><path d="m216-284v4l16-16h-8l-8 8z"/><path d="m212-92h-12v4l4 4h16v-8z"/><path d="m216-296h-8l4 4z"/><path d="m208-76h-4l4 4h8l-4-4z"/></g><path d="m524 36v4h4z"/><path d="m200-220v4l4 4v-16l-4 4z" transform="translate(320 320)"/><path d="m200-284v-4l-4-4v12h4z" transform="translate(320 320)"/><path d="m196-212v-8h-4v-12l-4-4v16z" transform="translate(320 320)"/><path d="m512 232v4h4z"/><path d="m184-296-8-8v8z" transform="translate(320 320)"/><path d="m172-60 4-4h-8l-8 8h8z" transform="translate(320 320)"/><path d="m488 24v-4h-4z"/><g transform="translate(320 320)"><path d="m168-304-4-4v-12h-4v16z"/><path d="m24-320-8 8h8l8-8z"/><path d="m12-320h-4l-12 12h-8l-4 4h16l16-16z"/><path d="m-12-316 4-4h-8l-4 4h-8l-4 4h-4v4h-16l-4 4h-8l-4 4h-8l-4-4h-16v-4h-4l-4-4v12h20l4 4h16l4-4h8l4-4h16v-4h4v-4h12z"/><path d="m-52-292h-16l-4 4h24l4-4v-8z"/><path d="m-96-292h-12l-4 4h24l-4-4z"/><path d="m-116-320h-4v8l-4 4v16l4-4v-8l4-4v-8l4-4z"/></g><path d="m196 0h-4l4 4z"/><path d="m-140-316-12 12v8l16-16v-8h-4z" transform="translate(320 320)"/><path d="m-144-296-4 4h-8l-8 8h8l4-4h8l8-8v-8z" transform="translate(320 320)"/><path d="m-160-272h8v-8z" transform="translate(320 320)"/><path d="m156 24v-4l-4 4 4 4z"/><g transform="translate(320 320)"><path d="m-172-300v-4h4l4-4h-12v12l4 4z"/><path d="m-176-292h-4l-8 8h-8l-4 4h-12v4l4 4 4-4h8l4-4h8l8-8h8l-4-4z"/><path d="m-180-276-4 4h8l4-4v-8z"/><path d="m-192-272h-8l-4 4h16l4-4z"/><path d="m-200-248h8v-8z"/><path d="m-204-256h-16v4l4 4h8l8-8z"/><path d="m-220-244h-16v8l4-4h16l4-4z"/><path d="m-228-252 4 4 4-4z"/><path d="m-240-248h8l-4-4h-8l-8 8-8-8h8l4-4h-16l-8 8 8 8h4v4l-4 4h8l4 4h4v-4h8l-8-8z"/><path d="m-240-256h16l-4-4h-24l4 4z"/><path d="m-244-44v-4h-8v-4l-4-4h-8l-4-4v8l4 4h8l4 4v4h4l4 4z"/><path d="m-248-36h-4l4 4v8l8-8-4-4z"/></g><path d="m64 292v4l4-4-4-4z"/><g transform="translate(320 320)"><path d="m-260-8v12l4-4v-8l-4-4z"/><path d="m-264-24 4-4v-8l-8-8h-8l12 12z"/><path d="m-268-8v4l-4 4v8l8-8v-16l-4 4z"/><path d="m-276-84 4 4 4-4z"/><path d="m-276-92h-8l4-4v-4h-12l4 4v8h16l4 4v4h4v-8l-4-4z"/></g><path d="m48 220h-4l4 4z"/><path d="m-276-244-4 4h-4v4h8l8-8z" transform="translate(320 320)"/><path d="m-276-64v-8h-8v4l4 4z" transform="translate(320 320)"/><path d="m-280-8h-24v16h12v-4h4v-4h4v-4h4z" transform="translate(320 320)"/><path d="m-284-228v56l-4 4h8v8l-8-8v60h-12v4h-4l-4 4h-8l-4 4v8l8-8h8l8-8h8l4-4 4 4 4-4v-24l4 4v8l4 4v24h4v-36l4-4v-24l4-4v-36h-4l4-4v-8l-4-4v-8l-12 12v-16l-4-4 4-4h-8l-4-4zm16 56-4 4v-8zm-12 40v12l-4 4v-40l4 4zm12-8v8l-8-8h8v-4h4zm8-48v24l-8 8v8l-4 4v-16l8-8v-24zm-4-12h-4v-4zm-12-20v24h8v8l-8-8v16l-4 4v-48z" transform="translate(320 320)"/><path d="m-284-56v4l4 4v-8l-4-4z" transform="translate(320 320)"/><path d="m28 144v4l4-4z"/><path d="m-296-92h-12l-4 4v8l8-8h8l4-4z" transform="translate(320 320)"/><path d="m-296-84h-4l-4 4v8l12-12z" transform="translate(320 320)"/><path d="m24 252h-4l4 4 4-4z"/><path d="m-300-48h-4l4 4h8v-4z" transform="translate(320 320)"/><path d="m-308-44-8-8v8l4 4h8z" transform="translate(320 320)"/><path d="m-308-60 4-4h-8l-4 4v8z" transform="translate(320 320)"/><path d="m-316-4 4 4 4-4z" transform="translate(320 320)"/></g></svg>