<svg viewBox="0 0 640 640" xmlns="http://www.w3.org/2000/svg"><path d="m0 0h640" fill="#86573a"/><path d="m640 640h-640" fill="#86573a"/><g fill="#84867a"><g transform="translate(320 320)"><path d="m316 216v4h4v-8h-4z"/><path d="m312 256v4h8v-4z"/><path d="m300 212v4h8v-8h-4z"/><path d="m296 200h-4v8h4l4-4z"/><path d="m296 196v-8h-4l-4 4v4z"/></g><path d="m612 584v4l4-4v-4h-4z"/><path d="m288 240h-4v8h12z" transform="translate(320 320)"/><path d="m608 584v-4h-4z"/><path d="m608 528v-4h-4z"/><path d="m604 504h-4v4h4l4-4z"/><path d="m280 172v4l-4 4h12v-4l-4-4z" transform="translate(320 320)"/><path d="m276 260v4h4l4-4z" transform="translate(320 320)"/><path d="m592 492h-4l4 4 4-4z"/><path d="m592 584v-4h-4z"/><path d="m268 160v4l4 4 4-4v-4z" transform="translate(320 320)"/><path d="m260 260v8l8-8z" transform="translate(320 320)"/><path d="m264 152-4-4h-8v4h4l4 4z" transform="translate(320 320)"/><path d="m572 584h4l-4-4z"/><path d="m244 268h8l-4-4z" transform="translate(320 320)"/><path d="m568 580h-4l4 4z"/><g transform="translate(320 320)"><path d="m240 152h8v-8h-8z"/><path d="m244 260h-12v4l4 4h8l-4-4z"/><path d="m232 216-4-4-4 4v4h8z"/><path d="m224 144 8 8 4-4v-4z"/><path d="m168 140h-28v-4h4l-4-4v-4h28v-4h-32v20h40l-4-4z"/><path d="m168 212h-28l-4-4v56h32l-4-4h-24v-4h24v-4h-24v-4h28l-4-4h-24v-4h28l-4-4h-24v-4h4l4-4h-8v-4h28l4-4h-32v-4h36v-4z"/><path d="m168 152h4v-4h-8l-4 4z"/><path d="m160 100h-8v4h16l-4-4z"/><path d="m160 108h-8v4h16l4-4z"/><path d="m160 268h-20v4h28l-4-4z"/><path d="m156 148h-16v4h20v-4z"/><path d="m152 92h-4l4 4h8l-4-4z"/><path d="m152 136h16l4-4h-28v4z"/><path d="m152 232h16l-4-4h-16v4z"/><path d="m144 116v4h24l4-4z"/></g><path d="m156 376h4v4h-4z"/><path d="m-168 48h-4v4h8z" transform="translate(320 320)"/><path d="m152 624v-4h-4z"/><path d="m-172 288h-4v8h8v-4h-4z" transform="translate(320 320)"/><path d="m-176 56v4h4l4-4z" transform="translate(320 320)"/><path d="m-172 68v-4h-8v4z" transform="translate(320 320)"/><path d="m140 604 4 4v-4z"/><path d="m140 616v-4l-4 4z"/><path d="m140 612v-4h-4z"/><path d="m136 604h4l-4-4z"/><path d="m-184 72h-8l4 4h4z" transform="translate(320 320)"/><path d="m132 380h4v4h-4z"/><path d="m132 612v-4h-4z"/><path d="m-192 60v-4h-8v4z" transform="translate(320 320)"/><path d="m-196 272h-4v4h-44l4 4h32l4 4h8v-8l4-4z" transform="translate(320 320)"/><path d="m96 428v-4l-4 4z"/><path d="m-232 120v-8l-4 4z" transform="translate(320 320)"/><path d="m-234.83 105.17h5.66v5.66h-5.66z" transform="matrix(.70710678 -.70710678 .70710678 .70710678 175.68 187.58)"/><path d="m-232 104h8l-4-4h-24l4 4z" transform="translate(320 320)"/><path d="m-236 84h-8l4 4z" transform="translate(320 320)"/><path d="m-242.83 105.17h5.66v5.66h-5.66z" transform="matrix(.70710678 -.70710678 .70710678 .70710678 173.34 181.93)"/><path d="m76 436 4 4h4v-4l-4-4z"/><path d="m-244 268h-16l-4-4-4 4h-8v4h24v4l4-4h4z" transform="translate(320 320)"/><path d="m-244 108h-8l4 4z" transform="translate(320 320)"/><path d="m-250.83 113.17h5.66v5.66h-5.66z" transform="matrix(.70710678 -.70710678 .70710678 .70710678 165.34 178.61)"/><path d="m-248 232h4v-4h-8l-4 4z" transform="translate(320 320)"/><path d="m68 432v-4l-4-4-4 4 4 4z"/><path d="m-256 240-4 4h-16v4h32v-4h-4v-4l-4 4z" transform="translate(320 320)"/><path d="m-256 264h12v-4h-24l-4-4v4h-4v4z" transform="translate(320 320)"/><path d="m-266.83 105.17h5.66v5.66h-5.66z" transform="matrix(.70710678 -.70710678 .70710678 .70710678 166.31 164.96)"/><g transform="translate(320 320)"><path d="m-264 232h8v-4h-20v4z"/><path d="m-264 256h20v-4h-32v4z"/><path d="m-272 104v8h4v-8h4l-4-4h-4z"/><path d="m-276 236v4h32v-4h-28v-4z"/><path d="m316-276-24 24h-48l-12-12h-8l-8-8h-24l-8 8h-8l-12 12h-56v4h-4v4h-4v4h-4v4h-4v4h-4v4h-4v4h-4v4h-4v4h-4v4h-4v4h-4v4h-4v4h-4v4h-4v4h-4v4h-48v4h48l64-64h56l12-12h8l8-8h16l8 8h8l12 12h56l24-24v-8z"/><path d="m232-248-4 4 8 8 4-4z"/></g><path d="m217.17-250.83h5.66v5.66h-5.66z" transform="matrix(.70710678 -.70710678 .70710678 .70710678 559.8 402.93)"/><path d="m185.17-250.83h5.66v5.66h-5.66z" transform="matrix(.70710678 -.70710678 .70710678 .70710678 550.43 380.3)"/><path d="m172-244-4 4 4 4 8-8-4-4z" transform="translate(320 320)"/><path d="m456 316h-4l4 4z"/><g transform="translate(320 320)"><path d="m96-80h-16l8 8h8l4-4v4h4v-8z"/><path d="m28-168h-8v4h12v4h-32v-4h20l-4-4h-16v-4h-4v24l4-4v-4h32v4h-32v4h20l4 4v-4h8v4h-24l4 4h20v4h-32v-12h-4v24h16v-4h-12v-4h32v12h-16l4 4h12v4h-4v4h4v4h-24v4h24v4h4v-76l-4 4z"/><path d="m24-128h-8l-4 4h16l4-4z"/><path d="m20-112h-4l-4 4h16l-4-4z"/><path d="m4-28 4 4 4-4z"/><path d="m8-40-4-4-4 4z"/><path d="m0-104v-4h12v-4h-12v-4h16v-4h-20v24h4v-4h4l4-4z"/><path d="m0-144 4 4h4v-4z"/><path d="m-12-44h8v-4h-4z"/><path d="m-12-36 4-4-4-4z"/><path d="m-72-68h-4l-4 4v4h12l4-4-4-4z"/><path d="m-168-52h-24v4h32l-4-4z"/></g><path d="m56 4h-4l4 4z"/><path d="m-272-320h-8l4 4z" transform="translate(320 320)"/><path d="m-302.83-290.83h5.66v5.66h-5.66z" transform="matrix(.70710678 -.70710678 .70710678 .70710678 435.78 23.51)"/></g></svg>