<svg viewBox="0 0 640 640" xmlns="http://www.w3.org/2000/svg"><path d="m0 0h640" fill="#86573a"/><path d="m640 640h-640" fill="#86573a"/><g fill="#aea67c"><path d="m640 584v-4h-4z"/><path d="m316 272h4v-8l-4 4z" transform="translate(320 320)"/><path d="m636 596v-4h-4z"/><path d="m632 588h4l-4-4-4 4z"/><path d="m308 272h-4v4h-4l8 8v-4h4l-4-4 4-4-4-4z" transform="translate(320 320)"/><path d="m308 264h4l4-4h-8l-4 4 4 4z" transform="translate(320 320)"/><path d="m628 568v-4l-4 4z"/><path d="m628 588h-4v-4l-4 4 4 4z"/><path d="m624 560-4 4h4z"/><path d="m616 580v4l4-4z"/><path d="m293.17 265.17h5.66v5.66h-5.66z" transform="matrix(.70710678 -.70710678 .70710678 .70710678 217.19 607.8)"/><path d="m292 284-4 4h8l4-4-4-4v4z" transform="translate(320 320)"/><path d="m612 592v4h4v4l4-4-4-4z"/><path d="m288 280 4 4 4-4z" transform="translate(320 320)"/><path d="m604 592h4v4h-4z"/><path d="m604 600v4l4-4z"/><path d="m280 288h8l-4-4z" transform="translate(320 320)"/><path d="m596 592v-4l-4 4 4 4 4-4z"/><path d="m596 600v4l4-4z"/><path d="m276 208v8h4v-12h-4z" transform="translate(320 320)"/><path d="m596 596-4 4h4z"/><path d="m268 284h8l-4-4z" transform="translate(320 320)"/><path d="m592 596v-4l-4 4z"/><path d="m272 264-4 4 4 4z" transform="translate(320 320)"/><path d="m592 392v-4h-4z"/><path d="m261.17 265.17h5.66v5.66h-5.66z" transform="matrix(.70710678 -.70710678 .70710678 .70710678 207.82 585.17)"/><g transform="translate(320 320)"><path d="m260 272v-4l-4 4 8 8 4-4-4-4z"/><path d="m256 280 4 4 4-4z"/><path d="m252 276v-8l-4 4z"/><path d="m244 284h8v-8z"/><path d="m248 272-4 4 4 4z"/></g><path d="m564 588 4 4v-4z"/><path d="m560 620v-4l-4 4z"/><path d="m236 268 4 4 4-4z" transform="translate(320 320)"/><path d="m556 600v4l4-4-4-4-4 4z"/><path d="m556 588-4 4 4 4h4v-4h-4z"/><path d="m232 88v8l4-4z" transform="translate(320 320)"/><path d="m228 300h8l-4-4z" transform="translate(320 320)"/><path d="m228 156v4h4l4-4z" transform="translate(320 320)"/><path d="m212 180v8l8 8v-8z" transform="translate(320 320)"/><path d="m532 600h4l-4-4z"/><path d="m204 180v8h8z" transform="translate(320 320)"/><path d="m524 600h4l-4-4z"/><path d="m196 180v4h-4v4h4l-4 4 4 4 8-8z" transform="translate(320 320)"/><path d="m192 20v4h8l-4-4z" transform="translate(320 320)"/><path d="m188 168v4h4v-8h-4z" transform="translate(320 320)"/><path d="m188 192v12l4-4v-8l-4-4z" transform="translate(320 320)"/><path d="m504 588h4l-4-4z"/><path d="m180 20h-8l4 4h8z" transform="translate(320 320)"/><path d="m172 4-4 4 4 4h12v-4l-4-4-4 4v-4z" transform="translate(320 320)"/><path d="m492 468 4-4h-4z"/><g transform="translate(320 320)"><path d="m172 200h-4l-4 4-4-4h-12v4l-4-4h-4v12h4v-4h4v4h16v-4h8v4h4v-4l-4-4 4-4zm-16 8h-4v-4h8v4z"/><path d="m168 216-4 4h8l4-4z"/><path d="m172 176h-8v4h8z"/><path d="m168 292v4h8l-4-4z"/><path d="m168 80 4-4h-4v-8h4v-4h-4l-4 4h-8l-4 4v4h-4l4 4-4 4h8v8l4-4h4v-4l4 4h4v4l4-4zm-8 0h-4v-8h4l4 4v4z"/><path d="m172 116-4-4-4 4z"/><path d="m172 140v-4h-8v4z"/></g><path d="m488 468h4l-4-4z"/><path d="m488 516h4l-4-4z"/><path d="m488 428h4l-4-4-4 4z"/><path d="m164 92h8l-4-4z" transform="translate(320 320)"/><path d="m168 120h-8v4h4z" transform="translate(320 320)"/><path d="m484 480h4v4h-4z"/><path d="m168 224h-8l4 4z" transform="translate(320 320)"/><path d="m484 568h-4v4h4l4-4z"/><path d="m168 304h-8l4 4z" transform="translate(320 320)"/><path d="m160 296v8l4-4h4v-4z" transform="translate(320 320)"/><path d="m160 264-4 4h8l4-4z" transform="translate(320 320)"/><path d="m164 244h4v-4h-8z" transform="translate(320 320)"/><path d="m484 464h-4l4 4z"/><path d="m160 96v4h4l4-4z" transform="translate(320 320)"/><path d="m480 432h4v4h-4z"/><path d="m480 576-4 4h4z"/><path d="m480 508h-4l4 4z"/><path d="m480 488-4 4h4z"/><path d="m160 132v-4h-8l4 4z" transform="translate(320 320)"/><path d="m156 216v4h8l-4-4z" transform="translate(320 320)"/><path d="m476 552h4v4h-4z"/><path d="m156 12-4-4h-8l-8 8 8 8h16v-4h4v-8l-4 4zm-12 4 4-4 4 4-4 4z" transform="translate(320 320)"/><path d="m160 64h8v-32h-56v4h-4v8l4-4v12h24v4h8v-8h8v8h-8l-4 4v8h4v-8h8v8h4v-4zm4-28v12h-4v-12zm-48 12v-12h4v12zm16 0h-8v-8h4l8 8zm8-4-4-4v-4h8v8zm12 0h-4v-8h8v8zm4 12v-4h8v8h-8z" transform="translate(320 320)"/><path d="m160 288h8v-8l-4 4-4-4v4h-4l-4 4z" transform="translate(320 320)"/><path d="m152 304v8h8v-8z" transform="translate(320 320)"/><path d="m152 248 4 4 4-4z" transform="translate(320 320)"/><path d="m472 488h4v4h-4z"/><path d="m472 416v4h4z"/><path d="m152 108h8v-4h-8z" transform="translate(320 320)"/><path d="m472 432h4v4h-4z"/><path d="m472 440h4v4h-4z"/><path d="m472 456h4v4h-4z"/><path d="m152 288v8l4-4z" transform="translate(320 320)"/><path d="m152 296h-8v8h8z" transform="translate(320 320)"/><path d="m152 268v-4h-8l4 4z" transform="translate(320 320)"/><path d="m468 560h4v4h-4z"/><path d="m152 184h4v-4h-8z" transform="translate(320 320)"/><path d="m468 480h4v4h-4z"/><path d="m152 148h8v-4h-16l4 4z" transform="translate(320 320)"/><path d="m148 224v4h8v-4z" transform="translate(320 320)"/><path d="m468 568h4v4h-4z"/><path d="m148 84v8h8z" transform="translate(320 320)"/><path d="m144 216h-4v4h8l4-4z" transform="translate(320 320)"/><path d="m144 120-4 4h8l4-4z" transform="translate(320 320)"/><path d="m464 512h4v4h-4z"/><path d="m460 348 4 4v-4z"/><path d="m140 132h8v-4h-8z" transform="translate(320 320)"/><path d="m140 140h8l-4-4h-4z" transform="translate(320 320)"/><path d="m460 464h4v4h-4z"/><path d="m460 480h4v4h-4z"/><path d="m140 188h8l-4-4h-4z" transform="translate(320 320)"/><path d="m460 544h4v4h-4z"/><path d="m140 236h8l-4-4h-4z" transform="translate(320 320)"/><path d="m140 244h8l-4-4h-4z" transform="translate(320 320)"/><path d="m460 568h4v4h-4z"/><path d="m140 260h16l-4-4h-12z" transform="translate(320 320)"/><path d="m460 584h4v4h-4z"/><path d="m144 296v-8h-4v4l-4 4z" transform="translate(320 320)"/><path d="m136 304v-8l-8 8 4 4h8v8h8l-4-4v-8z" transform="translate(320 320)"/><path d="m456 340v-4l-4 4z"/><path d="m128 312h-8l4 4-4 4h16z" transform="translate(320 320)"/><path d="m444 328h4v4h-4z"/><path d="m444 624v-4l-4 4z"/><path d="m440 340h4v4h-4z"/><path d="m120 168 8-8h-16z" transform="translate(320 320)"/><path d="m120 312h-16l4 4-4 4h16l-4-4z" transform="translate(320 320)"/><path d="m428 348-4 4h4z"/><path d="m104 168v-4h-4v16h36v-16h-4v12h-28z" transform="translate(320 320)"/><path d="m104 28v-44h4v-4h-8l-4-4h-8l4 4-4 4h-8v-8h-8l4 4v16l-4 4h4v44h24l4 4v-8l4-4-4-4zm-4-16v12h-4v-16h4zm0-8h-4v-4h4zm-4-20h4v12h-8v-8zm-16 12v-8h8v12h-8zm0 8h12v8h-8l-4-4zm0 20v-8h8l4 4-8 8h-4zm4 16h-4v-8h8v8zm16-8v4l-4 4h-4v-12h8z" transform="translate(320 320)"/><path d="m96 320h8l-4-4z" transform="translate(320 320)"/><path d="m100 276h-8l-4 4h8z" transform="translate(320 320)"/><path d="m412 476-4 4h4z"/><path d="m80 304-8 8h8v8h4v-4l4-4z" transform="translate(320 320)"/><path d="m76 164 4 4v-8h-4z" transform="translate(320 320)"/><path d="m80 208 4-4h-12v4z" transform="translate(320 320)"/><path d="m396 488v-4l-4 4z"/><path d="m392 324h4l-4-4z"/><path d="m396 532-4-4v4z"/><path d="m64 320h8v-8z" transform="translate(320 320)"/><path d="m388 484v-4h-4z"/><path d="m60 204-4 4h8z" transform="translate(320 320)"/><path d="m40 284h-4l8 8h4v-8z" transform="translate(320 320)"/><path d="m28 308h8l-4-4z" transform="translate(320 320)"/><path d="m28 284 4 4 4-4z" transform="translate(320 320)"/><path d="m344 608v4h4z"/><path d="m328 628v4l4-4v-4h-4z"/><path d="m-8 304v4h4l4-4z" transform="translate(320 320)"/><path d="m-20 300v-8l-4 4z" transform="translate(320 320)"/><path d="m-36 300 4 4 4-4z" transform="translate(320 320)"/><path d="m-42.83 305.17h5.66v5.66h-5.66z" transform="matrix(.70710678 -.70710678 .70710678 .70710678 90.5 381.93)"/><path d="m252 488h4l-4-4z"/><path d="m-72 128 4 4 4-4z" transform="translate(320 320)"/><path d="m-108 0v4h4v4l4-4v-4z" transform="translate(320 320)"/><path d="m-112 12h4v-8l-4 4z" transform="translate(320 320)"/><path d="m-116 4-4-4v8h8v-4z" transform="translate(320 320)"/><path d="m-128 88h-20v28h4v-12l4-4h-4v-8h8v36l4-4v-32l4 4 4-4v36h-12l-4-4-4 4v-8l-4 4h-4v-4l-4 4 4 4h4v4l4 4 4-4h16l4-4v-40z" transform="translate(320 320)"/><path d="m-130.83 97.17h5.66v5.66h-5.66z" transform="matrix(.70710678 -.70710678 .70710678 .70710678 211.8 258.78)"/><path d="m192 432 4-4-4-4-4 4h4z"/><path d="m-130.83 113.17h5.66v5.66h-5.66z" transform="matrix(.70710678 -.70710678 .70710678 .70710678 200.49 263.47)"/><path d="m-130.83 121.17h5.66v5.66h-5.66z" transform="matrix(.70710678 -.70710678 .70710678 .70710678 194.83 265.81)"/><path d="m184 424-4-4v4h-4l4 4z"/><path d="m180 444 4-4-4-4-4 4h4z"/><path d="m-142.83 93.17h5.66v5.66h-5.66z" transform="matrix(.70710678 -.70710678 .70710678 .70710678 211.11 249.12)"/><path d="m-142.83 109.17h5.66v5.66h-5.66z" transform="matrix(.70710678 -.70710678 .70710678 .70710678 199.8 253.81)"/><path d="m-144 8v4h8v-4z" transform="translate(320 320)"/><path d="m168 460v-4l-4 4z"/><path d="m-152 136v-8l-4 4z" transform="translate(320 320)"/><path d="m168 428v-4l-4 4 4 4z"/><path d="m168 332h-4l4 4z"/><path d="m164 320v4l4-4z"/><path d="m164 344h4v4h-4z"/><path d="m-152 120v-8l-8 8 4 4v-4z" transform="translate(320 320)"/><path d="m164 356v-4h-4z"/><path d="m160 332h4v4h-4z"/><path d="m160 448 4-4h-4z"/><path d="m160 452v4l4-4z"/><path d="m-156 116-4-4 4-4-4-4-4 4h-4v4h4v4z" transform="translate(320 320)"/><path d="m160 460h4l-4-4z"/><path d="m160 628v-4l-4 4z"/><path d="m-160 40h-8v4h4z" transform="translate(320 320)"/><path d="m156 424h4l-4-4z"/><path d="m156 440h4l-4-4z"/><path d="m156 344h-4l4 4z"/><path d="m152 460v-4l-4 4z"/><path d="m-168 136v-8l-4 4z" transform="translate(320 320)"/><path d="m148 352v4l4-4z"/><path d="m148 624v4h4v-4l-4-4z"/><path d="m144 624 4-4h-4z"/><path d="m-178.83 129.17h5.66v5.66h-5.66z" transform="matrix(.70710678 -.70710678 .70710678 .70710678 175.11 234.21)"/><path d="m140 620h4v-4z"/><path d="m-176 288-4 4 4 4z" transform="translate(320 320)"/><path d="m-180 140h8l-4-4z" transform="translate(320 320)"/><path d="m-178.83 121.17h5.66v5.66h-5.66z" transform="matrix(.70710678 -.70710678 .70710678 .70710678 180.77 231.87)"/><path d="m144 428v-4l-4 4 4 4z"/><path d="m-180 116 4 4v-8h-4z" transform="translate(320 320)"/><path d="m140 600h-4l4 4z"/><path d="m140 436-4-4-4 4 4 4h4z"/><path d="m-180 104h-8v4l4 4 4-4z" transform="translate(320 320)"/><path d="m140 408h-4l4 4z"/><path d="m136 604h4v4h-4z"/><path d="m-184 120h-4v4l-4 4h8l4-4z" transform="translate(320 320)"/><path d="m-188 132v8h4v-4l4-4-4-4z" transform="translate(320 320)"/><path d="m-188 284 4-4v-4h-4l-4 4v4h-4l4 4h4v4h4v4l4-4z" transform="translate(320 320)"/><path d="m132 592h-4l4 4z"/><path d="m132 408h-4l4 4z"/><path d="m128 400h4v4h-4z"/><path d="m128 612h4l-4-4z"/><path d="m-192 272-4 4v4h4z" transform="translate(320 320)"/><path d="m128 460v-4l-4 4z"/><path d="m128 428h-4l4 4z"/><path d="m124 408v4l4-4z"/><path d="m-196 124h4v-4l-4-4z" transform="translate(320 320)"/><path d="m128 456-4-4v4z"/><path d="m-196 108h-4v4l-4 4 4 4v-4h4z" transform="translate(320 320)"/><path d="m124 424h-4l4 4z"/><path d="m-200 288h-4v-4l-4-4v4h-4l4 4v8l4-4h8v-8h-4z" transform="translate(320 320)"/><path d="m-204 180 4 4h4v-4z" transform="translate(320 320)"/><path d="m-204 140h8l-4-4z" transform="translate(320 320)"/><path d="m116 444 4 4v-4h4l-4-4z"/><path d="m120 424-4 4h4z"/><path d="m116 396h4v4h-4z"/><path d="m116 452 4 4 4-4-4-4h-4z"/><path d="m-208 136-4 4h8v-4z" transform="translate(320 320)"/><path d="m-208 84v4h8l-4-4z" transform="translate(320 320)"/><path d="m-210.83 113.17h5.66v5.66h-5.66z" transform="matrix(.70710678 -.70710678 .70710678 .70710678 177.05 206.9)"/><path d="m-210.83 105.17h5.66v5.66h-5.66z" transform="matrix(.70710678 -.70710678 .70710678 .70710678 182.71 204.55)"/><path d="m-210.83 129.17h5.66v5.66h-5.66z" transform="matrix(.70710678 -.70710678 .70710678 .70710678 165.74 211.58)"/><path d="m-210.83 121.17h5.66v5.66h-5.66z" transform="matrix(.70710678 -.70710678 .70710678 .70710678 171.4 209.24)"/><path d="m-212 52-4 4 8 8 4-4z" transform="translate(320 320)"/><path d="m-208 184v-4h-4l-4 4z" transform="translate(320 320)"/><path d="m-216 280v12h4v-12z" transform="translate(320 320)"/><path d="m104 456h4v4h-4z"/><path d="m108 432h-4l-4 4 4 4 4-4z"/><path d="m104 424h4v4h-4z"/><path d="m104 492h4v4h-4z"/><path d="m-218.83 121.17h5.66v5.66h-5.66z" transform="matrix(.70710678 -.70710678 .70710678 .70710678 169.05 203.58)"/><path d="m-218.83 129.17h5.66v5.66h-5.66z" transform="matrix(.70710678 -.70710678 .70710678 .70710678 163.4 205.93)"/><path d="m-216 164v-4h-8l4 4z" transform="translate(320 320)"/><path d="m100 460 4-4h-4z"/><path d="m-220 188h-4v4h8z" transform="translate(320 320)"/><path d="m96 504 4-4h-4z"/><path d="m96 600h4v4h-4z"/><path d="m92 488h4v4h-4z"/><path d="m-228 124v8h4v-4z" transform="translate(320 320)"/><path d="m-236 284h8v-4h-4z" transform="translate(320 320)"/><path d="m-236 188v4h8v-4z" transform="translate(320 320)"/><path d="m-236 180 4 4h4v-4z" transform="translate(320 320)"/><path d="m-234.83 9.17h5.66v5.66h-5.66z" transform="matrix(.70710678 -.70710678 .70710678 .70710678 243.56 159.47)"/><path d="m-238.83 141.17h5.66v5.66h-5.66z" transform="matrix(.70710678 -.70710678 .70710678 .70710678 149.05 195.3)"/><path d="m80 600h4v4h-4z"/><path d="m-240 168v4h8v-4z" transform="translate(320 320)"/><path d="m84 472h4l-4-4-4 4z"/><path d="m84 444-4 4h4z"/><path d="m-240 120h-8l4 4z" transform="translate(320 320)"/><path d="m-246.83 141.17h5.66v5.66h-5.66z" transform="matrix(.70710678 -.70710678 .70710678 .70710678 146.71 189.64)"/><g transform="translate(320 320)"><path d="m-244 280h-4v-4h4v-4h-4l-4 4v8h8l4-4-4-4z"/><path d="m-244 256h-12l4 4h8z"/><path d="m-244 224v-4h-16v-4h8v-4h4v4l4 4v-12h-12l-4 4-4-4h-8l-4-4v24h12v-4h8l-4 4h4v4l4-4v-4h4l-4 4h8zm-28-12h8v4h-8zm4 12h-4v-4h4z"/><path d="m-244 200h-4l-4 4h8z"/><path d="m-244 188h-8l-4 4h12z"/><path d="m-248 152h8l-4-4z"/></g><path d="m76 448h4l-4-4-4 4z"/><path d="m-248 232h-4v4h8z" transform="translate(320 320)"/><path d="m-248 268h4v-4h-12l4 4z" transform="translate(320 320)"/><path d="m-248 176v-8l-4 4z" transform="translate(320 320)"/><path d="m72 484h-4l4 4z"/><path d="m68 444 4 4v-4z"/><path d="m-254.83 117.17h5.66v5.66h-5.66z" transform="matrix(.70710678 -.70710678 .70710678 .70710678 161.34 176.96)"/><path d="m68 536v4l4-4z"/><path d="m-248 240h-8l4 4z" transform="translate(320 320)"/><path d="m68 464v4l4-4-4-4z"/><path d="m-252 200v-4h-8v4z" transform="translate(320 320)"/><path d="m68 448v-4l-4 4z"/><path d="m-252 164h-8l4 4z" transform="translate(320 320)"/><path d="m64 604h4l-4-4z"/><path d="m60 596h4v4h-4z"/><path d="m64 584-4 4h4z"/><path d="m-258.83 169.17h5.66v5.66h-5.66z" transform="matrix(.70710678 -.70710678 .70710678 .70710678 123.4 189.36)"/><path d="m-260 140h8l-4-4z" transform="translate(320 320)"/><path d="m60 424h-4l4 4 4-4z"/><path d="m-262.83 109.17h5.66v5.66h-5.66z" transform="matrix(.70710678 -.70710678 .70710678 .70710678 164.65 168.96)"/><path d="m-260 248v4h8l-4-4z" transform="translate(320 320)"/><path d="m60 436-4 4h4v4l4-4z"/><path d="m-256 128-4-4-4 4z" transform="translate(320 320)"/><path d="m60 592h-4l4 4z"/><path d="m56 584 4 4v-4z"/><path d="m-264 256h-8l4 4h12v-4z" transform="translate(320 320)"/><path d="m56 552h4v4h-4z"/><path d="m-264 276v-4h-8l4 4z" transform="translate(320 320)"/><path d="m56 564v-4l-4 4z"/><path d="m52 516h4v4h-4z"/><path d="m-266.83 169.17h5.66v5.66h-5.66z" transform="matrix(.70710678 -.70710678 .70710678 .70710678 121.05 183.7)"/><path d="m-268 164 4 4 4-4v-8l-4-4-4 4 4 4z" transform="translate(320 320)"/><path d="m52 432v4l4-4z"/><path d="m-268 280h-4l4 4h4v4l4-4v-4z" transform="translate(320 320)"/><path d="m52 440h4l-4-4z"/><path d="m52 444v4h4z"/><path d="m-272 264h-4v4h8l4-4z" transform="translate(320 320)"/><path d="m-272 276v-4h-4v12h4v-4l4-4z" transform="translate(320 320)"/><path d="m-274.83 161.17h5.66v5.66h-5.66z" transform="matrix(.70710678 -.70710678 .70710678 .70710678 124.37 175.7)"/><path d="m48 492v4l4-4-4-4z"/><path d="m48 520v4h4z"/><path d="m48 552h4v4h-4z"/><path d="m-274.83 153.17h5.66v5.66h-5.66z" transform="matrix(.70710678 -.70710678 .70710678 .70710678 130.02 173.36)"/><path d="m44 556 4-4h-4z"/><path d="m44 560h4v4h-4z"/><path d="m-276 252h8l4-4h-12z" transform="translate(320 320)"/><path d="m44 576h4v4h-4z"/><path d="m-276 120v-4h-8l4 4z" transform="translate(320 320)"/><path d="m40 476v4h4v-4l-4-4z"/><path d="m40 512v4h4z"/><path d="m636 60 4-4-4-4-4 4h4z"/><path d="m308-252 4-4v-8l-8 8h4z" transform="translate(320 320)"/><path d="m304-256v8l4-4z" transform="translate(320 320)"/><path d="m300-252v8l4-4z" transform="translate(320 320)"/><path d="m296-244v-4h-8l4 4z" transform="translate(320 320)"/><path d="m612 80v-4l-4 4z"/><path d="m608 76v-4l-4 4 4 4z"/><path d="m604 80v-4l-4 4z"/><path d="m604 72h-4l4 4z"/><path d="m600 76v-4l-4 4 4 4z"/><path d="m596 80v-4l-4 4z"/><path d="m596 72h-4l4 4z"/><path d="m588 280h4v4h-4z"/><path d="m592 76v-4l-4 4 4 4z"/><path d="m588 80v-4l-4 4z"/><path d="m588 72h-4l4 4z"/><path d="m268-300h-8l4 4z" transform="translate(320 320)"/><path d="m584 76v-4l-4 4 4 4z"/><path d="m580 80v-4l-4 4z"/><path d="m580 72h-4l4 4z"/><path d="m576 280-4 4h4z"/><path d="m576 76v-4l-4 4 4 4z"/><path d="m256-296 4-4h-12v8h4z" transform="translate(320 320)"/><path d="m572 80v-4l-4 4z"/><path d="m572 72h-4l4 4z"/><path d="m568 240v4h4z"/><path d="m568 252h4l-4-4z"/><path d="m568 76v-4l-4 4 4 4z"/><path d="m564 80v-4l-4 4z"/><path d="m564 72h-4l4 4z"/><path d="m560 244v-4l-4 4z"/><path d="m560 76v-4l-4 4 4 4z"/><path d="m556 72v-4l-4 4 4 4z"/><path d="m552 68v-4l-4 4 4 4z"/><path d="m548 68-4 4h4z"/><path d="m548 64v-4l-4 4 4 4z"/><path d="m224-256-4 4 4 4z" transform="translate(320 320)"/><path d="m544 60h-4l4 4z"/><path d="m220-260-4 4 4 4z" transform="translate(320 320)"/><path d="m536 68v-4l-4 4z"/><path d="m216-264-4 4 4 4z" transform="translate(320 320)"/><path d="m532 252v4h4z"/><path d="m212-260-4 4 4 4z" transform="translate(320 320)"/><path d="m532 56v-4l-4 4 4 4z"/><path d="m528 68v-4l-4 4z"/><path d="m208-264-4 4 4 4z" transform="translate(320 320)"/><path d="m528 52h-4l4 4z"/><path d="m204-260-4 4 4 4z" transform="translate(320 320)"/><path d="m524 56v-4l-4 4 4 4z"/><path d="m520 68v-4l-4 4z"/><path d="m200-264-4 4 4 4z" transform="translate(320 320)"/><path d="m520 52h-4l4 4z"/><path d="m196-260-4 4 4 4z" transform="translate(320 320)"/><path d="m516 56v-4l-4 4 4 4z"/><path d="m512 68v-4l-4 4z"/><path d="m192-264-4 4 4 4z" transform="translate(320 320)"/><path d="m184-16 4 4h16l8-8-8-8h-16l-4 4h4v4zm20-4-4 4-4-4 4-4z" transform="translate(320 320)"/><path d="m188-260-4 4 4 4z" transform="translate(320 320)"/><path d="m184-248v-8l-4 4z" transform="translate(320 320)"/><path d="m500 60 4 4v-4z"/><path d="m500 72v-4l-4 4z"/><path d="m180-260-4 4 4 4z" transform="translate(320 320)"/><path d="m172-60-12 12 4 4v-4h4v8l12-12v-8zm4 8h-4v-4h4z" transform="translate(320 320)"/><path d="m176-256-4 4 4 4z" transform="translate(320 320)"/><path d="m172-244v-8l-4 4z" transform="translate(320 320)"/><path d="m168-240v-8l-4 4z" transform="translate(320 320)"/><path d="m484 80v-4l-4 4z"/><path d="m480 72 4 4v-4z"/><path d="m160-248-4 4 4 4z" transform="translate(320 320)"/><path d="m476 80v-4l-4 4z"/><path d="m472 72 4 4v-4z"/><path d="m152-248-4 4 4 4z" transform="translate(320 320)"/><path d="m468 80v-4l-4 4z"/><path d="m464 72 4 4v-4z"/><path d="m144-248-4 4 4 4z" transform="translate(320 320)"/><path d="m460 80v-4l-4 4z"/><path d="m456 72 4 4v-4z"/><path d="m140-44 4-4v-8h-8l-8 8v4h4l4 4zm-4-8h4v4h-4z" transform="translate(320 320)"/><path d="m136-12h-4l-4 4h8z" transform="translate(320 320)"/><path d="m136-248-4 4 4 4z" transform="translate(320 320)"/><path d="m452 280v-4l-4 4z"/><path d="m452 80v-4l-4 4z"/><path d="m448 72 4 4v-4z"/><path d="m128-248-4 4 4 4z" transform="translate(320 320)"/><path d="m444 80v-4l-4 4z"/><path d="m440 72 4 4v-4z"/><path d="m440 304v4h4z"/><path d="m120-28h4v4h16v-8h-4l4-4h-16l-8 8zm12-4v4h-4v-4z" transform="translate(320 320)"/><path d="m120-248-4 4 4 4z" transform="translate(320 320)"/><path d="m436 280v4l4-4z"/><path d="m112-248-4 4h8v-4z" transform="translate(320 320)"/><path d="m428 316-4 4h4z"/><path d="m104-236v4l4-4v-8l-4 4z" transform="translate(320 320)"/><path d="m416 248h4v-4z"/><path d="m100-232v-4l-4 4v8l4-4z" transform="translate(320 320)"/><path d="m412 100 4-4-4-4-4 4h4z"/><path d="m88-220v-4l-4 4v8l4-4z" transform="translate(320 320)"/><path d="m404 284 4-4h-4z"/><g transform="translate(320 320)"><path d="m88-80h16v8l4-4v-8h-32l4 4z"/><path d="m76-204 8-8h-4v-4l-8 8h4z"/><path d="m72-204v-4l-4 4v8l4-4z"/><path d="m68-196h-4v-4l-4 4v8z"/><path d="m60-20 4-4-4-4-12 12h8z"/><path d="m56-188h4l-4-4-4 4v8l4-4z"/></g><path d="m372 140h-4v-4l-4 4 4 4z"/><path d="m364 144v-4l-4 4z"/><path d="m364 136h-4l4 4z"/><path d="m360 140v-4l-4 4 4 4z"/><path d="m36-24h4v-8l-4 4z" transform="translate(320 320)"/><path d="m356 144v-4l-4 4z"/><path d="m356 136h-4l4 4z"/><path d="m352 204h-4l4 4z"/><path d="m352 196v-4l-4 4z"/><path d="m348 164h4v4h-4z"/><path d="m32-168v-8l-4 4z" transform="translate(320 320)"/><path d="m352 140v-4l-4 4 4 4z"/><path d="m348 172h4v4h-4z"/><path d="m348 188h4v4h-4z"/><path d="m28-56h4v-4h8v4h36v20h4v4l4-4-4-4v-8h8v8l4 4 4-4h-4v-16h4l4 4v12h-4v8l4-4 4 4v-40h-4v12h-8v-8l4-4h-8v8h-8l-4-4v-8h8l-4-4h-48l-4-4v-8l-4 4-4-4-4 4h4v4h-4v4l-4-4-4 4 4 4v8h-8l-4-4v-8h-8l-4 4h8v8l-4 4h-8l-8 8 4 4v-4h20v-8h8l4 4-4 4zm24-4h-8l8-8h4v8zm36 0v8h-8v-4l4-4zm-16 0h-12v-8h8l4 4zm-20-16h20v4h-24v-4zm-16 0h8v8l-4 4h-8v-12zm-16-4h4l4 4h-8zm0 20h-4v-12h8l4 4v8z" transform="translate(320 320)"/><path d="m28-116h-4v4l4 4z" transform="translate(320 320)"/><path d="m348 152v-4l-4 4z"/><path d="m28-172v-8l-4 4z" transform="translate(320 320)"/><path d="m348 136h-4l4 4z"/><path d="m28-100h-8v8z" transform="translate(320 320)"/><path d="m344 196h-4l4 4z"/><path d="m24-164h-4l-4 4h8z" transform="translate(320 320)"/><path d="m24-176-4 4 4 4z" transform="translate(320 320)"/><path d="m344 140v-4l-4 4 4 4z"/><path d="m20-156-4 4h8z" transform="translate(320 320)"/><path d="m24-136-4-4-4 4z" transform="translate(320 320)"/><path d="m24-128 4-4h-12v4z" transform="translate(320 320)"/><path d="m340 152v-4l-4 4z"/><path d="m20-172v-8l-4 4z" transform="translate(320 320)"/><path d="m340 136h-4l4 4z"/><path d="m16-148h-4l4 4h8l-4-4z" transform="translate(320 320)"/><path d="m336 196h-4v4h4l4-4z"/><path d="m336 200v4h4z"/><path d="m336 236v-4l-4 4z"/><path d="m12-100 4 4 4-4z" transform="translate(320 320)"/><path d="m16-116h-4v8l4-4z" transform="translate(320 320)"/><path d="m336 180h-4l4 4z"/><path d="m16-176-4 4 4 4z" transform="translate(320 320)"/><path d="m336 140v-4l-4 4 4 4z"/><path d="m332 192v4l4-4z"/><path d="m16-104h16l-4-4h-28v4z" transform="translate(320 320)"/><path d="m12-152v-4h-8l4 4z" transform="translate(320 320)"/><path d="m332 152v-4l-4 4z"/><path d="m12-172v-8l-4 4z" transform="translate(320 320)"/><path d="m332 136h-4l4 4z"/><path d="m12-84v-4h4v-4h-8v4h-4v4z" transform="translate(320 320)"/><path d="m8-40h-8l-8 8h24z" transform="translate(320 320)"/><path d="m328 216-4 4h4z"/><path d="m324 180v4h4l4-4-4-4v4z"/><path d="m328 148v-4l-4 4 4 4z"/><path d="m328 140v-4l-4 4 4 4z"/><path d="m8-160v-4h-8v4z" transform="translate(320 320)"/><path d="m8-144v-4h-8v4z" transform="translate(320 320)"/><path d="m8-120v-4h-8v4z" transform="translate(320 320)"/><path d="m8-96-4-4h-4v4z" transform="translate(320 320)"/><path d="m8-80-8-8v8z" transform="translate(320 320)"/><path d="m320 188h4v4h-4z"/><path d="m324 152v-4l-4 4z"/><path d="m4-180-4 4 4 4z" transform="translate(320 320)"/><path d="m320 136 4 4v-4z"/><path d="m320 164v4l4-4z"/><path d="m320 204v4l4-4z"/><path d="m320 176v4h4z"/><path d="m0-48v-8l-4 4z" transform="translate(320 320)"/><path d="m312 280-4 4h4z"/><path d="m-24-12v4l4 4 4-4v-4z" transform="translate(320 320)"/><path d="m-24-64 4-4-8-8h-12v4h8v8l4 4v-4z" transform="translate(320 320)"/><path d="m288 312 4 4h4v-4l-4-4z"/><path d="m-28-60h-4v12h-8l-4-4h-4v8h4l4 4h4v4l12-12v-8h-4z" transform="translate(320 320)"/><path d="m-32-16-4 4 4 4z" transform="translate(320 320)"/><path d="m280 308v4l4-4-4-4z"/><path d="m280 260v-4l-4 4z"/><path d="m-40-64v-4h-4l-4 4z" transform="translate(320 320)"/><path d="m268 276v-4h-4z"/><path d="m264 268h4l-4-4z"/><path d="m-64-32h8l-4-4z" transform="translate(320 320)"/><path d="m-64-56 4-4h-4v-4l-4 4v8l4 4v4h8v-4z" transform="translate(320 320)"/><path d="m-68-28h-8v-12h-4l-4 4v-16l4-4-4-4-8 8v8l4 4-12 12 4 4h12v4l4-4v4h4z" transform="translate(320 320)"/><path d="m-96-48-8 8h12v-4h-4z" transform="translate(320 320)"/><path d="m-128-4h-4l8 8v-4h4l-4-4z" transform="translate(320 320)"/><path d="m184 288-4-4v4z"/><path d="m-152-40 8 8 4-4h-4v-4l-8-8h-8z" transform="translate(320 320)"/><path d="m-160-8h-8l4 4h4z" transform="translate(320 320)"/><path d="m-160-16h-8v4h4z" transform="translate(320 320)"/><path d="m156 284h4v4h-4z"/><path d="m-168-44h4l-4-4h-8l4 4z" transform="translate(320 320)"/><path d="m-188-36 4 4h16l4-4z" transform="translate(320 320)"/><path d="m-184-8-4-4-4 4z" transform="translate(320 320)"/><path d="m128 284h4v4h-4z"/><path d="m128 308h4l-4-4z"/><g transform="translate(320 320)"><path d="m-196-44 4 4h8l4 4v-4h4v-8h-16z"/><path d="m-192-152v-4h-4v8h4z"/><path d="m-196-164v8l4-4z"/><path d="m-200-12h-4l-4 4h8l4 4 4-4-4-4z"/><path d="m-208-56h-8l4 4h16l-4-4z"/><path d="m-208-40h4v4l4 4 4-4-12-12-4 4z"/><path d="m-212-152h-8v4h16v-4z"/><path d="m-212-28-4 4h8z"/></g><path d="m108 272h4l-4-4-4 4z"/><path d="m-220-20v4h4l4-4z" transform="translate(320 320)"/><path d="m-216-56h-8l8 8z" transform="translate(320 320)"/><path d="m-220-156 4-4h4v-4l4-4h-8l-8 8v-4h-4v8z" transform="translate(320 320)"/><path d="m-224-152-4-4v8h4z" transform="translate(320 320)"/><path d="m84 24v4l4-4z"/><path d="m-240-276h4l4-4v-8l-8 8z" transform="translate(320 320)"/><path d="m-244-296h4l-4-4h-8l4 4z" transform="translate(320 320)"/><path d="m64 36v4l4-4z"/><path d="m-260-304h-4v8l4-4z" transform="translate(320 320)"/><path d="m36 308 4-4h-4z"/><path d="m-284-272v-4l-12-12-4 4 12 12z" transform="translate(320 320)"/><path d="m-284-312h4l-8-8h-4v4l4 4z" transform="translate(320 320)"/><path d="m-288-24v8l4-4z" transform="translate(320 320)"/><path d="m-298.83-294.83h5.66v5.66h-5.66z" transform="matrix(.70710678 -.70710678 .70710678 .70710678 439.78 25.17)"/><path d="m-300-36-4 4 4 4 8-8z" transform="translate(320 320)"/><path d="m-300-316h-8v4h4z" transform="translate(320 320)"/></g></svg>