<svg xmlns="http://www.w3.org/2000/svg" viewBox="0 0 1282 1282"><defs><style>.cls-1{fill:#c4bb8e;}.cls-2{fill:none;}</style></defs><g id="Layer_2" data-name="Layer 2"><g id="Layer_1-2" data-name="Layer 1"><rect class="cls-1" x="1273.99" y="1081.69" width="8.01" height="8.01"/><polygon class="cls-1" points="1257.96 1177.84 1265.97 1169.83 1257.96 1169.83 1257.96 1177.84"/><polygon class="cls-1" points="1257.96 1185.85 1257.96 1177.84 1249.95 1185.85 1257.96 1185.85"/><path class="cls-1" d="M1250,1121.75v8h-8l8-8h-32l16,16h16l8-8v8h8v-16Z" transform="translate(0 0)"/><path class="cls-1" d="M1241.94,1209.89h16l-8-8Z" transform="translate(0 0)"/><polygon class="cls-1" points="1249.95 1193.86 1249.95 1185.85 1241.94 1193.86 1249.95 1193.86"/><polygon class="cls-1" points="1241.94 1217.9 1241.94 1209.89 1233.92 1217.9 1241.94 1217.9"/><polygon class="cls-1" points="1233.92 1209.89 1233.92 1201.88 1225.91 1209.89 1233.92 1209.89"/><polygon class="cls-1" points="1225.91 1177.84 1225.91 1185.85 1233.92 1185.85 1225.91 1177.84"/><polygon class="cls-1" points="1201.88 1185.85 1209.89 1193.86 1209.89 1185.85 1217.9 1185.85 1209.89 1177.84 1201.88 1185.85"/><polygon class="cls-1" points="1193.86 1185.85 1201.88 1185.85 1193.86 1177.84 1193.86 1185.85"/><polygon class="cls-1" points="1201.88 1201.88 1193.86 1193.86 1193.86 1201.88 1201.88 1201.88"/><polygon class="cls-1" points="1193.86 1209.89 1193.86 1201.88 1185.85 1201.88 1193.86 1209.89"/><polygon class="cls-1" points="1185.85 1177.84 1185.85 1185.85 1193.86 1177.84 1185.85 1169.83 1185.85 1177.84"/><polygon class="cls-1" points="1177.84 1193.86 1185.85 1201.88 1193.86 1193.86 1185.85 1185.85 1185.85 1193.86 1177.84 1193.86"/><path class="cls-1" d="M1177.84,969.51v-8h-8v16h8Z" transform="translate(0 0)"/><path class="cls-1" d="M1161.81,1209.89h16l-8-8Z" transform="translate(0 0)"/><polygon class="cls-1" points="1161.81 1185.85 1169.83 1185.85 1161.81 1177.84 1161.81 1185.85"/><path class="cls-1" d="M1153.8,1201.88h16l-8-8Z" transform="translate(0 0)"/><path class="cls-1" d="M1161.81,953.49l-8-8h-8v8Z" transform="translate(0 0)"/><polygon class="cls-1" points="1137.78 1177.84 1137.78 1185.85 1145.79 1177.84 1137.78 1177.84"/><path class="cls-1" d="M1137.77,1201.88l8-8-8-8Z" transform="translate(0 0)"/><polygon class="cls-1" points="1121.75 953.49 1129.76 953.49 1121.75 945.48 1121.75 953.49"/><polygon class="cls-1" points="1121.75 1185.85 1121.75 1193.86 1113.74 1193.86 1121.75 1201.88 1129.76 1193.86 1121.75 1185.85"/><polygon class="cls-1" points="1121.75 1241.94 1129.76 1241.94 1121.75 1233.93 1121.75 1241.94"/><polygon class="cls-1" points="1121.75 1209.89 1129.76 1209.89 1121.75 1201.88 1113.74 1209.89 1121.75 1209.89"/><path class="cls-1" d="M1121.75,961.5l-8-8-8,8h-8v8h16Z" transform="translate(0 0)"/><polygon class="cls-1" points="1113.74 1185.85 1121.75 1185.85 1113.74 1177.84 1113.74 1185.85"/><path class="cls-1" d="M1081.69,1025.6v8h8v-16h-8Z" transform="translate(0 0)"/><path class="cls-1" d="M1073.67,945.47h-8v16h8v-8h8v8h-8l-8,8h24v-24Z" transform="translate(0 0)"/><path class="cls-1" d="M1065.66,1017.59v-16l-8,8Z" transform="translate(0 0)"/><path class="cls-1" d="M1049.64,1009.57v-8h-16l16,16Z" transform="translate(0 0)"/><polygon class="cls-1" points="1033.61 1009.58 1033.61 1001.56 1025.6 1009.58 1033.61 1009.58"/><path class="cls-1" d="M1017.59,1017.59l8,8,8-8Z" transform="translate(0 0)"/><path class="cls-1" d="M1009.57,1185.85v8h8v-16h-8Z" transform="translate(0 0)"/><path class="cls-1" d="M1001.56,993.55h-8v16l8-8Z" transform="translate(0 0)"/><polygon class="cls-1" points="985.54 937.46 985.54 929.45 977.52 929.45 985.54 937.46"/><polygon class="cls-1" points="985.54 825.29 985.54 817.28 977.52 817.28 985.54 825.29"/><polygon class="cls-1" points="985.54 801.25 985.54 793.24 977.52 801.25 985.54 801.25"/><path class="cls-1" d="M977.52,785.22v8h8v-16h-8Z" transform="translate(0 0)"/><path class="cls-1" d="M969.51,1177.84h16l-8-8Z" transform="translate(0 0)"/><path class="cls-1" d="M969.51,1017.59v16h8v-8l8,8v-16Z" transform="translate(0 0)"/><path class="cls-1" d="M977.52,905.41v-8h-16v8Z" transform="translate(0 0)"/><path class="cls-1" d="M969.51,697.09H929.45v8h48.07v64.1h8V697.09Z" transform="translate(0 0)"/><polygon class="cls-1" points="969.51 849.33 961.5 849.33 961.5 857.34 969.51 857.34 977.52 849.33 969.51 849.33"/><rect class="cls-1" x="969.51" y="929.45" width="8.01" height="8.01"/><path class="cls-1" d="M969.51,1057.65v8h16v-8Z" transform="translate(0 0)"/><polygon class="cls-1" points="969.51 1073.68 961.5 1073.68 969.51 1081.69 977.52 1073.68 969.51 1073.68"/><path class="cls-1" d="M977.52,1105.72h-16v8h8Z" transform="translate(0 0)"/><path class="cls-1" d="M961.5,1250h16v-8h-8Z" transform="translate(0 0)"/><path class="cls-1" d="M961.5,1201.88l8,8,8-8Z" transform="translate(0 0)"/><polygon class="cls-1" points="969.51 1041.63 961.5 1041.63 969.51 1049.64 969.51 1041.63"/><rect class="cls-1" x="961.5" y="961.5" width="8.01" height="8.01"/><path class="cls-1" d="M969.51,913.42h-16v8h16Z" transform="translate(0 0)"/><path class="cls-1" d="M961.5,769.2h-8v8h16l8-8Z" transform="translate(0 0)"/><path class="cls-1" d="M969.51,729.14v-16h-8v24h8Z" transform="translate(0 0)"/><path class="cls-1" d="M969.51,665h-16l8,8Z" transform="translate(0 0)"/><path class="cls-1" d="M969.51,1097.71l-8-8h-8v8Z" transform="translate(0 0)"/><path class="cls-1" d="M961.5,1121.75h-16v8h24Z" transform="translate(0 0)"/><rect class="cls-1" x="961.5" y="1153.8" width="8.01" height="8.01"/><path class="cls-1" d="M961.5,1049.64h-16v8h16Z" transform="translate(0 0)"/><rect class="cls-1" x="953.49" y="1001.56" width="8.01" height="8.01"/><rect class="cls-1" x="953.49" y="865.35" width="8.01" height="8.01"/><path class="cls-1" d="M961.5,833.3h-16l8,8h8Z" transform="translate(0 0)"/><path class="cls-1" d="M953.49,745.16v16h16v-16Z" transform="translate(0 0)"/><path class="cls-1" d="M953.49,785.22v16h16v-8l-8-8Z" transform="translate(0 0)"/><rect class="cls-1" x="953.49" y="881.38" width="8.01" height="8.01"/><polygon class="cls-1" points="953.49 977.53 953.49 985.54 961.5 977.53 953.49 977.53"/><path class="cls-1" d="M961.5,1169.82h-16v8h8Z" transform="translate(0 0)"/><path class="cls-1" d="M961.5,1233.92v-16h-16l8,8-8,8Z" transform="translate(0 0)"/><path class="cls-1" d="M945.47,1153.8l8,8,8-8Z" transform="translate(0 0)"/><path class="cls-1" d="M953.49,1073.67h-8l-8,8h16Z" transform="translate(0 0)"/><path class="cls-1" d="M945.47,1041.63h16l-8-8Z" transform="translate(0 0)"/><path class="cls-1" d="M945.47,1017.59v8h16l-8-8Z" transform="translate(0 0)"/><path class="cls-1" d="M945.47,1250l8-8-8-8Z" transform="translate(0 0)"/><path class="cls-1" d="M945.47,897.4h-8v8h16Z" transform="translate(0 0)"/><path class="cls-1" d="M953.49,1113.74v-8h-16v8Z" transform="translate(0 0)"/><polygon class="cls-1" points="945.48 1137.78 945.48 1145.79 953.49 1145.79 945.48 1137.78"/><polygon class="cls-1" points="945.48 881.38 937.46 889.39 945.48 889.39 945.48 881.38"/><path class="cls-1" d="M937.46,809.26l16,16v-16Z" transform="translate(0 0)"/><polygon class="cls-1" points="945.48 785.23 937.46 793.24 945.48 793.24 945.48 785.23"/><path class="cls-1" d="M937.46,713.11v16h16v-16Z" transform="translate(0 0)"/><path class="cls-1" d="M945.47,673.05h-16l8,8Z" transform="translate(0 0)"/><path class="cls-1" d="M929.45,1266l16,16v-16Z" transform="translate(0 0)"/><polygon class="cls-1" points="937.46 1121.75 929.45 1121.75 937.46 1129.76 937.46 1121.75"/><rect class="cls-1" x="929.45" y="1089.7" width="8.01" height="8.01"/><polygon class="cls-1" points="937.46 1017.59 937.46 1009.58 929.45 1009.58 937.46 1017.59"/><path class="cls-1" d="M937.46,921.44h8v-8h-16Z" transform="translate(0 0)"/><path class="cls-1" d="M929.45,737.15v16h16v-16Z" transform="translate(0 0)"/><path class="cls-1" d="M929.45,761.19v16h16v-16Z" transform="translate(0 0)"/><rect class="cls-1" x="929.45" y="985.54" width="8.01" height="8.01"/><path class="cls-1" d="M929.45,873.36h16v-8h-16Z" transform="translate(0 0)"/><polygon class="cls-1" points="929.45 937.46 937.46 937.46 929.45 929.45 929.45 937.46"/><rect class="cls-1" x="929.45" y="1057.65" width="8.01" height="8.01"/><rect class="cls-1" x="929.45" y="1137.78" width="8.01" height="8.01"/><path class="cls-1" d="M929.45,721.12v-8h-16v8l8,8h8Z" transform="translate(0 0)"/><path class="cls-1" d="M913.42,705.1h16l-8-8Z" transform="translate(0 0)"/><rect class="cls-1" x="913.42" y="649.01" width="8.01" height="8.01"/><path class="cls-1" d="M913.42,1033.61v24l8,8V1025.6h-8Z" transform="translate(0 0)"/><path class="cls-1" d="M905.41,681.06l8-8h-16Z" transform="translate(0 0)"/><rect class="cls-1" x="897.4" y="657.03" width="8.01" height="8.01"/><path class="cls-1" d="M897.4,697.09h-16v8h32l-8-8Z" transform="translate(0 0)"/><path class="cls-1" d="M897.4,721.12h-8v16h24Z" transform="translate(0 0)"/><path class="cls-1" d="M889.39,969.51l-8,8-16-16h-16v24h8l8-8,8,8h32v-24h-8Z" transform="translate(0 0)"/><rect class="cls-1" x="873.36" y="665.04" width="8.01" height="8.01"/><path class="cls-1" d="M873.36,721.12v16h8v-24h-8Z" transform="translate(0 0)"/><path class="cls-1" d="M873.36,753.17h40.06v-8H865.35v8Z" transform="translate(0 0)"/><path class="cls-1" d="M865.35,697.09v-8h-8V641h-8v64.1l8-8v8h-8l8,8h8v-8h16l-8-8Z" transform="translate(0 0)"/><polygon class="cls-1" points="865.35 745.16 865.35 737.15 857.34 745.16 865.35 745.16"/><path class="cls-1" d="M849.32,729.14v8h16v-16l-8,8v-16l-8,8Z" transform="translate(0 0)"/><path class="cls-1" d="M841.31,681.06V657h-8v32.05h8Z" transform="translate(0 0)"/><rect class="cls-1" x="833.3" y="641" width="8.01" height="8.01"/><path class="cls-1" d="M841.31,713.11v-16h-16v24h8Z" transform="translate(0 0)"/><path class="cls-1" d="M833.3,729.14H793.24v-8h-8v16h64.1l-8-8Z" transform="translate(0 0)"/><path class="cls-1" d="M825.29,681.06l-8-8h-16v24h8Z" transform="translate(0 0)"/><path class="cls-1" d="M817.27,721.12v-16h-16v16Z" transform="translate(0 0)"/><path class="cls-1" d="M801.25,657l8,8h16V649h-24Z" transform="translate(0 0)"/><polygon class="cls-1" points="793.24 977.53 801.25 977.53 793.24 969.51 793.24 977.53"/><path class="cls-1" d="M785.22,1057.65l8,8,8-8Z" transform="translate(0 0)"/><path class="cls-1" d="M793.24,705.1V649h-8v72.11l8-8Z" transform="translate(0 0)"/><polygon class="cls-1" points="785.23 641 793.24 649.01 793.24 641 785.23 641"/><path class="cls-1" d="M785.22,945.47v-16l-8,8Z" transform="translate(0 0)"/><path class="cls-1" d="M777.21,969.51l-8-8v16h16Z" transform="translate(0 0)"/><path class="cls-1" d="M761.19,1049.64l16,16v-16Z" transform="translate(0 0)"/><polygon class="cls-1" points="753.17 937.46 753.17 929.45 745.16 937.46 753.17 937.46"/><path class="cls-1" d="M737.15,1241.94h-16v8l8,8h16v-8h-8l8-8Z" transform="translate(0 0)"/><path class="cls-1" d="M729.14,1225.91l-16-16-8,8v8Z" transform="translate(0 0)"/><polygon class="cls-1" points="705.1 993.55 713.11 985.54 705.1 985.54 705.1 993.55"/><path class="cls-1" d="M689.07,1209.89h-8l16,16,8-8-8-8Z" transform="translate(0 0)"/><path class="cls-1" d="M689.07,1241.94h-8l-8,8h-8v8h16l8-8h8v8l8-8v-8Z" transform="translate(0 0)"/><polygon class="cls-1" points="665.04 1025.6 665.04 1017.59 657.02 1025.6 665.04 1033.61 665.04 1025.6"/><path class="cls-1" d="M625,1250h16l-8-8Z" transform="translate(0 0)"/><path class="cls-1" d="M609,1250l8,8h8v-8Z" transform="translate(0 0)"/><path class="cls-1" d="M600.94,1225.91v16l8-8Z" transform="translate(0 0)"/><polygon class="cls-1" points="592.92 1249.95 592.92 1241.94 584.91 1241.94 592.92 1249.95"/><polygon class="cls-1" points="576.9 1017.59 576.9 1025.6 584.91 1017.59 576.9 1017.59"/><path class="cls-1" d="M568.89,1250h-8l8,8h16v-16l-8,8Z" transform="translate(0 0)"/><polygon class="cls-1" points="560.88 1073.68 552.86 1081.69 560.88 1081.69 560.88 1073.68"/><path class="cls-1" d="M560.88,1041.63l8-8h-16l-8,8Z" transform="translate(0 0)"/><polygon class="cls-1" points="528.83 873.36 528.83 865.35 520.81 873.36 528.83 873.36"/><polygon class="cls-1" points="520.81 1001.56 528.83 993.55 520.81 993.55 520.81 1001.56"/><polygon class="cls-1" points="512.8 969.51 504.79 969.51 512.8 977.53 520.81 969.51 512.8 969.51"/><rect class="cls-1" x="507.13" y="899.75" width="11.33" height="11.33" transform="translate(-490.03 627.79) rotate(-45)"/><path class="cls-1" d="M496.77,1009.57l8,8,8-8Z" transform="translate(0 0)"/><polygon class="cls-1" points="504.79 977.53 504.79 969.51 496.77 977.53 504.79 977.53"/><path class="cls-1" d="M496.77,897.4h16l-8-8Z" transform="translate(0 0)"/><polygon class="cls-1" points="432.68 649.01 424.66 649.01 432.68 657.03 432.68 649.01"/><rect class="cls-1" x="408.64" y="657.03" width="8.01" height="8.01"/><path class="cls-1" d="M392.61,649l8,8V641h-8Z" transform="translate(0 0)"/><polygon class="cls-1" points="392.61 897.4 392.61 889.39 384.6 897.4 392.61 897.4"/><path class="cls-1" d="M392.61,889.39v-16l-8,8Z" transform="translate(0 0)"/><path class="cls-1" d="M392.61,873.36v-16l-8,8Z" transform="translate(0 0)"/><path class="cls-1" d="M392.61,857.34v-16l-8,8Z" transform="translate(0 0)"/><path class="cls-1" d="M392.61,841.31v-16l-8,8Z" transform="translate(0 0)"/><path class="cls-1" d="M384.6,857.34h-8v16l8-8Z" transform="translate(0 0)"/><path class="cls-1" d="M376.59,825.29v16l8-8Z" transform="translate(0 0)"/><path class="cls-1" d="M376.59,841.31v16l8-8Z" transform="translate(0 0)"/><path class="cls-1" d="M376.59,873.36v16l8-8Z" transform="translate(0 0)"/><path class="cls-1" d="M368.58,897.4h16l-8-8Z" transform="translate(0 0)"/><path class="cls-1" d="M368.58,881.38l-8,8,8,8Z" transform="translate(0 0)"/><path class="cls-1" d="M368.58,881.38v-16l-8,8Z" transform="translate(0 0)"/><path class="cls-1" d="M368.58,865.35v-16l-8,8Z" transform="translate(0 0)"/><polygon class="cls-1" points="368.57 841.31 368.57 833.3 360.56 841.31 368.57 849.33 368.57 841.31"/><polygon class="cls-1" points="368.57 825.29 360.56 825.29 368.57 833.3 368.57 825.29"/><path class="cls-1" d="M352.55,881.38v16l8-8v-8Z" transform="translate(0 0)"/><polygon class="cls-1" points="360.56 841.31 352.55 849.33 360.56 849.33 360.56 841.31"/><polygon class="cls-1" points="352.55 825.29 352.55 833.3 360.56 825.29 352.55 825.29"/><polygon class="cls-1" points="352.55 841.31 360.56 841.31 352.55 833.3 352.55 841.31"/><path class="cls-1" d="M352.55,849.32v16l8-8Z" transform="translate(0 0)"/><path class="cls-1" d="M352.55,865.35v16l8-8Z" transform="translate(0 0)"/><rect class="cls-1" x="344.54" y="673.05" width="8.01" height="8.01"/><polygon class="cls-1" points="344.54 665.04 344.54 657.03 336.52 657.03 344.54 665.04"/><path class="cls-1" d="M344.54,641h-8l-8,8h16Z" transform="translate(0 0)"/><path class="cls-1" d="M336.52,913.42v8h8v-24h-8Z" transform="translate(0 0)"/><polygon class="cls-1" points="336.52 697.09 344.54 697.09 336.52 689.08 336.52 697.09"/><rect class="cls-1" x="336.52" y="833.3" width="8.01" height="8.01"/><path class="cls-1" d="M336.52,857.34v24h8V841.31l-8,8Z" transform="translate(0 0)"/><path class="cls-1" d="M328.51,1274h16v-8h-8Z" transform="translate(0 0)"/><polygon class="cls-1" points="328.51 889.39 336.52 881.38 328.51 881.38 328.51 889.39"/><polygon class="cls-1" points="328.51 673.05 336.52 673.05 328.51 665.04 328.51 673.05"/><rect class="cls-1" x="322.85" y="907.76" width="11.33" height="11.33" transform="translate(-549.67 499.83) rotate(-45)"/><rect class="cls-1" x="322.85" y="891.73" width="11.33" height="11.33" transform="translate(-538.34 495.14) rotate(-45)"/><rect class="cls-1" x="322.85" y="859.68" width="11.33" height="11.33" transform="translate(-515.68 485.75) rotate(-45)"/><path class="cls-1" d="M328.51,857.34l8-8v-8h-24Z" transform="translate(0 0)"/><path class="cls-1" d="M320.5,921.44h-8l8,8h16v-8Z" transform="translate(0 0)"/><path class="cls-1" d="M312.49,873.36l8,8,8-8Z" transform="translate(0 0)"/><rect class="cls-1" x="312.49" y="641" width="8.01" height="8.01"/><rect class="cls-1" x="312.49" y="689.08" width="8.01" height="8.01"/><path class="cls-1" d="M312.49,713.11h16l-8-8h-8Z" transform="translate(0 0)"/><path class="cls-1" d="M312.49,881.38v-16h-8v16l8,8h16l-8-8Z" transform="translate(0 0)"/><polygon class="cls-1" points="312.49 737.15 304.48 737.15 312.49 745.16 312.49 737.15"/><path class="cls-1" d="M312.49,857.34l8-8h-8v-8h-16v16l8,8v-8Z" transform="translate(0 0)"/><polygon class="cls-1" points="304.48 705.1 296.46 713.11 304.48 713.11 304.48 705.1"/><rect class="cls-1" x="290.8" y="891.73" width="11.33" height="11.33" transform="translate(-547.73 472.48) rotate(-45)"/><rect class="cls-1" x="290.8" y="907.76" width="11.33" height="11.33" transform="translate(-559.06 477.17) rotate(-45)"/><path class="cls-1" d="M288.45,881.38l8,8v-16l-8-8Z" transform="translate(0 0)"/><rect class="cls-1" x="288.45" y="1233.93" width="8.01" height="8.01"/><path class="cls-1" d="M280.44,921.44l8-8-8-8-8,8v8h-8v8h40.06v-8Z" transform="translate(0 0)"/><path class="cls-1" d="M288.45,841.31h-24v8h16v8l8-8Z" transform="translate(0 0)"/><polygon class="cls-1" points="280.44 873.36 280.44 881.38 272.43 881.38 280.44 889.39 288.45 881.38 280.44 873.36"/><rect class="cls-1" x="274.77" y="891.73" width="11.33" height="11.33" transform="translate(-552.42 461.14) rotate(-45)"/><path class="cls-1" d="M280.44,1209.89v16l8-8Z" transform="translate(0 0)"/><polygon class="cls-1" points="280.44 1233.93 280.44 1241.94 288.45 1233.93 280.44 1225.91 280.44 1233.93"/><polygon class="cls-1" points="280.44 865.35 288.45 865.35 280.44 857.34 272.43 865.35 280.44 873.36 280.44 865.35"/><polygon class="cls-1" points="272.43 825.29 280.44 825.29 272.43 817.28 272.43 825.29"/><path class="cls-1" d="M272.42,1217.9v-16l-8,8Z" transform="translate(0 0)"/><path class="cls-1" d="M264.41,857.34v16l8-8Z" transform="translate(0 0)"/><polygon class="cls-1" points="264.41 881.38 272.43 881.38 264.41 873.36 264.41 881.38"/><path class="cls-1" d="M256.4,897.4l8,8,8-8Z" transform="translate(0 0)"/><polygon class="cls-1" points="256.4 785.23 256.4 793.24 264.41 793.24 256.4 785.23"/><path class="cls-1" d="M256.4,1185.85v16l8-8Z" transform="translate(0 0)"/><polygon class="cls-1" points="256.4 825.29 264.41 825.29 256.4 817.28 248.39 825.29 256.4 825.29"/><polygon class="cls-1" points="256.4 801.25 248.39 809.26 256.4 809.26 256.4 801.25"/><path class="cls-1" d="M248.39,873.36l8,8v-16l-8-8Z" transform="translate(0 0)"/><rect class="cls-1" x="248.39" y="1201.88" width="8.01" height="8.01"/><path class="cls-1" d="M248.39,1225.91h8v-8l-8-8Z" transform="translate(0 0)"/><path class="cls-1" d="M256.4,929.45v-8H208.33v-8l-16,16Z" transform="translate(0 0)"/><polygon class="cls-1" points="248.39 921.44 256.4 913.43 248.39 913.43 248.39 905.41 240.38 913.43 248.39 921.44"/><path class="cls-1" d="M240.38,881.38l8,8v-16h-8Z" transform="translate(0 0)"/><path class="cls-1" d="M240.38,897.4l8,8v-16h-8Z" transform="translate(0 0)"/><polygon class="cls-1" points="240.38 857.34 248.39 857.34 240.38 849.33 240.38 857.34"/><polygon class="cls-1" points="240.38 857.34 232.36 857.34 224.35 865.35 232.36 873.36 240.38 865.35 240.38 857.34"/><polygon class="cls-1" points="240.38 817.28 240.38 809.26 232.36 809.26 240.38 817.28"/><rect class="cls-1" x="226.7" y="875.71" width="11.33" height="11.33" transform="translate(-555.17 422.45) rotate(-45)"/><rect class="cls-1" x="232.36" y="1169.83" width="8.01" height="8.01"/><polygon class="cls-1" points="232.36 905.41 224.35 913.43 232.36 913.43 232.36 921.44 240.38 913.43 232.36 905.41"/><rect class="cls-1" x="232.36" y="1209.89" width="8.01" height="8.01"/><path class="cls-1" d="M232.36,1153.8h-8l-8,8h16Z" transform="translate(0 0)"/><polygon class="cls-1" points="232.36 905.41 232.36 897.4 240.38 897.4 232.36 889.39 224.35 897.4 232.36 905.41"/><path class="cls-1" d="M232.36,857.34l8-8h8v8h8v-16H216.34l-8,8h8v8l8-8Z" transform="translate(0 0)"/><rect class="cls-1" x="210.67" y="875.71" width="11.33" height="11.33" transform="translate(-559.86 411.12) rotate(-45)"/><polygon class="cls-1" points="216.34 921.44 224.35 913.43 216.34 905.41 208.32 913.43 216.34 913.43 216.34 921.44"/><rect class="cls-1" x="216.34" y="1201.88" width="8.01" height="8.01"/><path class="cls-1" d="M216.34,1225.91h8v-8l-8-8Z" transform="translate(0 0)"/><polygon class="cls-1" points="216.34 857.34 208.32 857.34 208.32 865.35 216.34 865.35 216.34 873.36 224.35 865.35 216.34 857.34"/><rect class="cls-1" x="210.67" y="891.73" width="11.33" height="11.33" transform="translate(-571.2 415.82) rotate(-45)"/><path class="cls-1" d="M216.34,1169.82h-64.1v8h64.1Z" transform="translate(0 0)"/><path class="cls-1" d="M216.34,745.16h-16l-8,8h16Z" transform="translate(0 0)"/><path class="cls-1" d="M200.31,1209.89l8,8v-16h-8Z" transform="translate(0 0)"/><path class="cls-1" d="M208.33,833.3v-8h-8l-8,8Z" transform="translate(0 0)"/><path class="cls-1" d="M200.31,873.36v16l8-8Z" transform="translate(0 0)"/><path class="cls-1" d="M200.31,889.39v16l8-8Z" transform="translate(0 0)"/><polygon class="cls-1" points="200.31 913.43 208.32 913.43 200.31 905.41 200.31 913.43"/><path class="cls-1" d="M200.31,841.31h-16l8,8Z" transform="translate(0 0)"/><rect class="cls-1" x="184.29" y="905.41" width="8.01" height="8.01"/><polygon class="cls-1" points="192.3 889.39 192.3 881.38 184.29 889.39 192.3 897.4 192.3 889.39"/><path class="cls-1" d="M184.29,1209.89h-24v-8l-8,8h-24v-8h-8v8l-8,8H192.3v-16h-8Z" transform="translate(0 0)"/><path class="cls-1" d="M192.3,673.05l-8-8-8,8Z" transform="translate(0 0)"/><path class="cls-1" d="M176.27,905.41v-24l-8,8v8h-24l8,8Z" transform="translate(0 0)"/><polygon class="cls-1" points="168.26 1201.88 168.26 1209.89 176.28 1201.88 168.26 1201.88"/><rect class="cls-1" x="154.58" y="883.72" width="11.33" height="11.33" transform="translate(-581.96 373.81) rotate(-45)"/><polygon class="cls-1" points="160.25 921.44 152.24 921.44 160.25 929.45 168.26 921.44 160.25 921.44"/><path class="cls-1" d="M160.25,665h8l8-8h-16Z" transform="translate(0 0)"/><path class="cls-1" d="M160.25,1073.67v-24h-8v32h8Z" transform="translate(0 0)"/><rect class="cls-1" x="154.58" y="931.8" width="11.33" height="11.33" transform="translate(-615.95 387.89) rotate(-45)"/><path class="cls-1" d="M152.24,1137.77h-24l8,8h16Z" transform="translate(0 0)"/><rect class="cls-1" x="144.22" y="1121.75" width="8.01" height="8.01"/><polygon class="cls-1" points="152.24 1105.73 144.22 1105.73 152.24 1113.74 152.24 1105.73"/><polygon class="cls-1" points="144.22 921.44 136.21 921.44 144.22 929.45 152.24 921.44 144.22 921.44"/><rect class="cls-1" x="144.22" y="1193.86" width="8.01" height="8.01"/><polygon class="cls-1" points="144.22 881.38 136.21 889.39 144.22 889.39 144.22 897.4 152.24 889.39 144.22 881.38"/><path class="cls-1" d="M144.22,1073.67l-8,8h16Z" transform="translate(0 0)"/><rect class="cls-1" x="136.21" y="1065.66" width="8.01" height="8.01"/><rect class="cls-1" x="138.56" y="931.8" width="11.33" height="11.33" transform="translate(-620.64 376.56) rotate(-45)"/><polygon class="cls-1" points="136.21 1089.7 136.21 1097.71 144.22 1089.7 136.21 1089.7"/><path class="cls-1" d="M136.21,897.4H104.16v-8h-8v16h48.07v-8l-8-8Z" transform="translate(0 0)"/><path class="cls-1" d="M128.2,1073.67h-8v8h16v-8Z" transform="translate(0 0)"/><polygon class="cls-1" points="136.21 993.55 144.22 993.55 136.21 985.54 128.2 993.55 136.21 993.55"/><rect class="cls-1" x="130.55" y="971.86" width="11.33" height="11.33" transform="translate(-651.32 382.63) rotate(-45)"/><rect class="cls-1" x="122.53" y="883.72" width="11.33" height="11.33" transform="translate(-591.34 351.15) rotate(-45)"/><path class="cls-1" d="M128.2,1201.88l8,8v-24h-16v8h8Z" transform="translate(0 0)"/><rect class="cls-1" x="122.53" y="867.7" width="11.33" height="11.33" transform="translate(-580.01 346.45) rotate(-45)"/><path class="cls-1" d="M136.21,969.51h8v8l8-8v-8h-24l-8-8v16Z" transform="translate(0 0)"/><polygon class="cls-1" points="128.2 1153.8 128.2 1161.81 136.21 1161.81 128.2 1153.8"/><polygon class="cls-1" points="136.21 1177.84 128.2 1169.83 128.2 1177.84 136.21 1177.84"/><rect class="cls-1" x="114.52" y="971.86" width="11.33" height="11.33" transform="translate(-656.01 371.3) rotate(-45)"/><path class="cls-1" d="M120.19,1113.74h16v-8h-16Z" transform="translate(0 0)"/><polygon class="cls-1" points="120.19 1177.84 128.2 1169.83 120.19 1169.83 120.19 1177.84"/><path class="cls-1" d="M112.17,1089.7v8h8l8-8Z" transform="translate(0 0)"/><path class="cls-1" d="M112.17,993.55h16l-8-8Z" transform="translate(0 0)"/><path class="cls-1" d="M112.17,841.31h-8l8,8h16v-8Z" transform="translate(0 0)"/><path class="cls-1" d="M120.19,889.39h-16l8,8Z" transform="translate(0 0)"/><path class="cls-1" d="M120.19,1129.76l8-8h-16v8Z" transform="translate(0 0)"/><path class="cls-1" d="M120.19,1145.79v-8h-8l-8,8Z" transform="translate(0 0)"/><path class="cls-1" d="M104.16,1209.89l-8-8v8h-8v-40.07h-8v48.08h32.05v-8Z" transform="translate(0 0)"/><rect class="cls-1" x="106.51" y="867.7" width="11.33" height="11.33" transform="translate(-584.71 335.12) rotate(-45)"/><path class="cls-1" d="M112.17,945.47h-16l8,8Z" transform="translate(0 0)"/><rect class="cls-1" x="104.16" y="1105.73" width="8.01" height="8.01"/><path class="cls-1" d="M112.17,1201.88h8v-8l-8-8v8h-8l-8,8Z" transform="translate(0 0)"/><path class="cls-1" d="M96.15,993.55h16l-8-8Z" transform="translate(0 0)"/><rect class="cls-1" x="98.5" y="971.86" width="11.33" height="11.33" transform="translate(-660.71 359.97) rotate(-45)"/><rect class="cls-1" x="98.5" y="955.83" width="11.33" height="11.33" transform="translate(-649.37 355.27) rotate(-45)"/><path class="cls-1" d="M96.15,865.35v16h8v-16Z" transform="translate(0 0)"/><path class="cls-1" d="M96.15,1065.66v8h16v-8Z" transform="translate(0 0)"/><rect class="cls-1" x="96.15" y="1081.69" width="8.01" height="8.01"/><path class="cls-1" d="M104.16,809.26l-8-8-8,8Z" transform="translate(0 0)"/><path class="cls-1" d="M96.15,1129.76h8l8-8h-16Z" transform="translate(0 0)"/><polygon class="cls-1" points="96.15 1193.86 104.16 1193.86 96.15 1185.85 96.15 1193.86"/><rect class="cls-1" x="82.47" y="939.81" width="11.33" height="11.33" transform="translate(-642.73 339.24) rotate(-45)"/><polygon class="cls-1" points="88.14 961.5 88.14 969.51 96.15 961.5 88.14 953.49 88.14 961.5"/><path class="cls-1" d="M80.12,1049.64v32h8v-40.06h-8Z" transform="translate(0 0)"/><polygon class="cls-1" points="80.13 953.49 80.13 945.48 72.11 945.48 72.11 953.49 80.13 961.5 80.13 953.49"/><path class="cls-1" d="M80.12,881.38l-8-8-8,8Z" transform="translate(0 0)"/><path class="cls-1" d="M1282,112.17v-16l-8,8Z" transform="translate(0 0)"/><path class="cls-1" d="M1274,56.09l-24,24-8-8-16,16h16l-24,24h-96.15l8,8h96.15L1282,64.1v-16Z" transform="translate(0 0)"/><path class="cls-1" d="M1274,112.17h-8v16l-24,24v-16l-8,8v8h-8v8h-8l-8-8v8h-8l-8-8v8h-8l-8-8v8h-8l-8-8v8h-8l-8-8v8h-8l-8-8v8h-8l-8,8h128.2L1282,128.2v-16l-8,8Z" transform="translate(0 0)"/><polygon class="cls-1" points="1257.96 128.2 1249.95 128.2 1257.96 136.21 1257.96 128.2"/><polygon class="cls-1" points="1249.95 136.21 1249.95 128.2 1241.94 136.21 1249.95 144.23 1249.95 136.21"/><path class="cls-1" d="M1225.91,72.11l8-8-8-8-16,16,8,8Z" transform="translate(0 0)"/><path class="cls-1" d="M1217.9,160.25l8-8-8-8Z" transform="translate(0 0)"/><polygon class="cls-1" points="1209.89 144.23 1209.89 152.24 1217.9 144.23 1209.89 144.23"/><path class="cls-1" d="M1201.87,160.25l8-8-8-8Z" transform="translate(0 0)"/><polygon class="cls-1" points="1193.86 144.23 1193.86 152.24 1201.88 144.23 1193.86 144.23"/><path class="cls-1" d="M1185.85,160.25l8-8-8-8Z" transform="translate(0 0)"/><polygon class="cls-1" points="1177.84 144.23 1177.84 152.24 1185.85 144.23 1177.84 144.23"/><path class="cls-1" d="M1169.82,160.25l8-8-8-8Z" transform="translate(0 0)"/><polygon class="cls-1" points="1161.81 144.23 1161.81 152.24 1169.83 144.23 1161.81 144.23"/><path class="cls-1" d="M1153.8,160.25l8-8-8-8Z" transform="translate(0 0)"/><path class="cls-1" d="M1161.81,56.09h32v-16h-16l-8,8-8-8-16,16Z" transform="translate(0 0)"/><polygon class="cls-1" points="1145.79 144.23 1145.79 152.24 1153.8 144.23 1145.79 144.23"/><path class="cls-1" d="M1137.77,160.25l8-8-8-8Z" transform="translate(0 0)"/><polygon class="cls-1" points="1129.76 144.23 1129.76 152.24 1137.78 144.23 1129.76 144.23"/><path class="cls-1" d="M1121.75,144.22v16l8-8Z" transform="translate(0 0)"/><polygon class="cls-1" points="1113.74 144.23 1113.74 152.24 1121.75 144.23 1113.74 136.21 1113.74 144.23"/><polygon class="cls-1" points="1105.72 136.21 1105.72 144.23 1113.74 136.21 1105.72 128.2 1105.72 136.21"/><path class="cls-1" d="M1105.72,104.16h8l-8-8h-16l8,8Z" transform="translate(0 0)"/><path class="cls-1" d="M1097.71,136.21l8-8-8-8Z" transform="translate(0 0)"/><path class="cls-1" d="M1097.71,144.22h-8l-8,8h16l8-8-8-8Z" transform="translate(0 0)"/><polygon class="cls-1" points="1089.7 120.19 1089.7 128.2 1097.71 120.19 1089.7 120.19"/><path class="cls-1" d="M1089.7,128.2v16l8-8Z" transform="translate(0 0)"/><polygon class="cls-1" points="1081.69 128.2 1081.69 136.21 1089.7 128.2 1081.69 120.19 1081.69 128.2"/><path class="cls-1" d="M1073.67,128.2l8-8-8-8Z" transform="translate(0 0)"/><path class="cls-1" d="M1073.67,136.21h-8l-8-8v8h-8l-8-8v8h-8l-8-8v8h-8l8,8h48.07l8-8-8-8Z" transform="translate(0 0)"/><path class="cls-1" d="M1065.66,120.19l8-8-8-8Z" transform="translate(0 0)"/><polygon class="cls-1" points="1065.66 128.2 1065.66 136.21 1073.67 128.2 1065.66 120.19 1065.66 128.2"/><path class="cls-1" d="M1057.65,512.8l-8,8h24v-8h-8v-8Z" transform="translate(0 0)"/><polygon class="cls-1" points="1057.65 104.16 1057.65 112.18 1065.66 104.16 1057.65 104.16"/><path class="cls-1" d="M1057.65,128.2l8-8-8-8Z" transform="translate(0 0)"/><path class="cls-1" d="M1049.64,120.19l8-8-8-8Z" transform="translate(0 0)"/><polygon class="cls-1" points="1049.64 128.2 1049.64 136.21 1057.65 128.2 1049.64 120.19 1049.64 128.2"/><polygon class="cls-1" points="1041.63 104.16 1041.63 112.18 1049.64 104.16 1041.63 104.16"/><path class="cls-1" d="M1041.62,128.2l8-8-8-8Z" transform="translate(0 0)"/><path class="cls-1" d="M1049.64,600.94l-8-8-8,8Z" transform="translate(0 0)"/><path class="cls-1" d="M1033.61,136.21l8-8-8-8Z" transform="translate(0 0)"/><path class="cls-1" d="M1033.61,104.16v16l8-8Z" transform="translate(0 0)"/><path class="cls-1" d="M1033.61,88.14h48.08l-8-8H1025.6l-8,8Z" transform="translate(0 0)"/><path class="cls-1" d="M1025.6,112.17v16l8-8Z" transform="translate(0 0)"/><path class="cls-1" d="M1017.59,120.19v16l8-8Z" transform="translate(0 0)"/><polygon class="cls-1" points="1009.58 120.19 1009.58 128.2 1017.59 120.19 1009.58 120.19"/><polygon class="cls-1" points="1009.58 136.21 1009.58 144.23 1017.59 136.21 1009.58 128.2 1009.58 136.21"/><path class="cls-1" d="M1001.56,120.19v16l8-8Z" transform="translate(0 0)"/><path class="cls-1" d="M1001.56,144.22h-8l8,8h16l-16-16Z" transform="translate(0 0)"/><path class="cls-1" d="M1001.56,104.16l8-8h-16l-8,8Z" transform="translate(0 0)"/><path class="cls-1" d="M993.55,128.2v16l8-8Z" transform="translate(0 0)"/><polygon class="cls-1" points="993.55 528.83 985.54 536.84 993.55 536.84 993.55 528.83"/><polygon class="cls-1" points="985.54 144.23 985.54 152.24 993.55 144.23 985.54 136.21 985.54 144.23"/><polygon class="cls-1" points="977.52 152.24 977.52 160.25 985.54 152.24 977.52 144.23 977.52 152.24"/><polygon class="cls-1" points="977.52 544.85 969.51 552.86 977.52 552.86 977.52 544.85"/><polygon class="cls-1" points="969.51 144.23 969.51 152.24 977.52 144.23 969.51 144.23"/><path class="cls-1" d="M969.51,160.25h-8l-8-8v8h-8l-8-8v8h-8l-8-8v8h-8l-8-8v8h-8l-8-8v8h-8l-8-8v16H985.54l-16-16Z" transform="translate(0 0)"/><path class="cls-1" d="M961.5,160.25l8-8-8-8Z" transform="translate(0 0)"/><polygon class="cls-1" points="953.49 144.23 953.49 152.24 961.5 144.23 953.49 144.23"/><path class="cls-1" d="M945.47,160.25l8-8-8-8Z" transform="translate(0 0)"/><polygon class="cls-1" points="937.46 144.23 937.46 152.24 945.48 144.23 937.46 144.23"/><path class="cls-1" d="M929.45,160.25l8-8-8-8Z" transform="translate(0 0)"/><polygon class="cls-1" points="921.44 144.23 921.44 152.24 929.45 144.23 921.44 144.23"/><polygon class="cls-1" points="921.44 536.84 913.42 544.85 921.44 544.85 921.44 536.84"/><path class="cls-1" d="M913.42,160.25l8-8-8-8Z" transform="translate(0 0)"/><polygon class="cls-1" points="905.41 144.23 905.41 152.24 913.42 144.23 905.41 144.23"/><polygon class="cls-1" points="913.42 641 905.41 632.99 905.41 641 913.42 641"/><polygon class="cls-1" points="905.41 576.9 897.4 576.9 905.41 584.91 905.41 576.9"/><path class="cls-1" d="M897.4,160.25l8-8-8-8Z" transform="translate(0 0)"/><polygon class="cls-1" points="897.4 641 905.41 632.99 897.4 632.99 897.4 641"/><polygon class="cls-1" points="889.39 144.23 889.39 152.24 897.4 144.23 889.39 144.23"/><path class="cls-1" d="M881.37,609l8,8h8v-8Z" transform="translate(0 0)"/><path class="cls-1" d="M881.37,160.25l8-8-8-8Z" transform="translate(0 0)"/><rect class="cls-1" x="881.37" y="632.99" width="8.01" height="8.01"/><polygon class="cls-1" points="873.36 144.23 873.36 152.24 881.38 144.23 873.36 144.23"/><rect class="cls-1" x="873.36" y="568.89" width="8.01" height="8.01"/><path class="cls-1" d="M857.34,152.24l8,8,8-8Z" transform="translate(0 0)"/><path class="cls-1" d="M857.34,120.19H969.51l8-8H857.34Z" transform="translate(0 0)"/><path class="cls-1" d="M857.34,625V609h-8v32l8-8Z" transform="translate(0 0)"/><path class="cls-1" d="M857.34,592.92h8l-8-8h-16l8,8Z" transform="translate(0 0)"/><path class="cls-1" d="M857.34,520.81v-32l-8,8v32.06h8Z" transform="translate(0 0)"/><path class="cls-1" d="M857.34,104.16h-16l8,8Z" transform="translate(0 0)"/><path class="cls-1" d="M849.32,576.9h8v-16h-8Z" transform="translate(0 0)"/><polygon class="cls-1" points="857.34 536.84 849.33 528.83 849.33 536.84 857.34 536.84"/><polygon class="cls-1" points="849.33 552.86 849.33 560.88 857.34 552.86 849.33 544.85 849.33 552.86"/><path class="cls-1" d="M841.31,625V609h-8l-8,8v16h16Z" transform="translate(0 0)"/><path class="cls-1" d="M841.31,552.86v-16l-8-8h-8v32h16Z" transform="translate(0 0)"/><path class="cls-1" d="M841.31,520.81v-24h-8l-8,8v16Z" transform="translate(0 0)"/><path class="cls-1" d="M833.3,176.27l-8,8,8,8Z" transform="translate(0 0)"/><rect class="cls-1" x="817.27" y="568.89" width="8.01" height="8.01"/><path class="cls-1" d="M817.27,592.92h-16v16h16l8-8Z" transform="translate(0 0)"/><path class="cls-1" d="M817.27,536.84v-16h-8l-8,8v8Z" transform="translate(0 0)"/><path class="cls-1" d="M817.27,641V617h-16v24Z" transform="translate(0 0)"/><path class="cls-1" d="M809.26,512.8h8v-16l-8-8h-16v16l8,8Z" transform="translate(0 0)"/><path class="cls-1" d="M809.26,200.31l-8,8v8h8Z" transform="translate(0 0)"/><path class="cls-1" d="M801.25,552.86v8h16v-16h-16Z" transform="translate(0 0)"/><path class="cls-1" d="M793.24,625v-24l-8-8V641l8-8Z" transform="translate(0 0)"/><path class="cls-1" d="M793.24,480.75h8l-8-8H697.09l8,8Z" transform="translate(0 0)"/><path class="cls-1" d="M785.22,488.76H737.15v8h48.07Z" transform="translate(0 0)"/><path class="cls-1" d="M777.21,232.36l-8,8v8h8Z" transform="translate(0 0)"/><path class="cls-1" d="M769.2,504.79h-8v16h24v-8l-8-8Z" transform="translate(0 0)"/><path class="cls-1" d="M769.2,625V592.92l-16,16Z" transform="translate(0 0)"/><path class="cls-1" d="M761.19,248.39l-8,8,8,8Z" transform="translate(0 0)"/><path class="cls-1" d="M745.16,280.44v-16l-8,8v8Z" transform="translate(0 0)"/><path class="cls-1" d="M745.16,520.81h8v-16h-8l-16,16Z" transform="translate(0 0)"/><polygon class="cls-1" points="729.14 272.43 729.14 280.44 737.15 272.43 729.14 272.43"/><path class="cls-1" d="M729.14,488.76h-24v24h16l8-8Z" transform="translate(0 0)"/><path class="cls-1" d="M721.12,288.45l8-8-8-8Z" transform="translate(0 0)"/><path class="cls-1" d="M729.14,248.39,849.32,128.2l-8-8-80.12,80.12v8h-8l-32,32h-8v8Z" transform="translate(0 0)"/><path class="cls-1" d="M721.12,584.91v8h8v-16h-8Z" transform="translate(0 0)"/><polygon class="cls-1" points="713.11 272.43 713.11 280.44 721.13 272.43 713.11 272.43"/><path class="cls-1" d="M705.1,288.45v8h40.06L865.35,176.27l-8-8-8,8v-16l-8,8v16l-16,16v-8h-8v16l-24,24v-8h-8v16c-7.13,7.13-16.9,16.89-24,24h-8v8l-16,16-8-8v8h-8l-8-8v8Z" transform="translate(0 0)"/><path class="cls-1" d="M705.1,288.45l8-8-8-8Z" transform="translate(0 0)"/><path class="cls-1" d="M705.1,312.49h-16v8h16Z" transform="translate(0 0)"/><polygon class="cls-1" points="697.09 272.43 697.09 280.44 705.1 272.43 697.09 272.43"/><path class="cls-1" d="M697.09,296.46l8-8-8-8Z" transform="translate(0 0)"/><polygon class="cls-1" points="705.1 304.48 697.09 296.46 697.09 304.48 705.1 304.48"/><path class="cls-1" d="M705.1,400.62v-8h-16v8Z" transform="translate(0 0)"/><polygon class="cls-1" points="697.09 408.64 697.09 416.65 705.1 416.65 697.09 408.64"/><polygon class="cls-1" points="697.09 448.7 705.1 448.7 697.09 440.69 697.09 448.7"/><rect class="cls-1" x="689.07" y="344.54" width="8.01" height="8.01"/><path class="cls-1" d="M689.07,288.45l8-8-8-8Z" transform="translate(0 0)"/><polygon class="cls-1" points="689.08 296.46 689.08 304.48 697.09 296.46 689.08 288.45 689.08 296.46"/><path class="cls-1" d="M689.07,480.75h-8v8h16Z" transform="translate(0 0)"/><path class="cls-1" d="M689.07,520.81h8v-16l-8-8h-16v24Z" transform="translate(0 0)"/><path class="cls-1" d="M681.06,360.56l8,8h16v-8Z" transform="translate(0 0)"/><path class="cls-1" d="M681.06,328.51l8,8h8v-8Z" transform="translate(0 0)"/><polygon class="cls-1" points="681.06 272.43 681.06 280.44 689.08 272.43 681.06 272.43"/><path class="cls-1" d="M681.06,296.46l8-8-8-8Z" transform="translate(0 0)"/><polygon class="cls-1" points="681.06 304.48 689.08 304.48 681.06 296.46 681.06 304.48"/><path class="cls-1" d="M689.07,416.65v-8h-16v8Z" transform="translate(0 0)"/><path class="cls-1" d="M673.05,400.62h16l-8-8Z" transform="translate(0 0)"/><path class="cls-1" d="M673.05,288.45l8-8-8-8Z" transform="translate(0 0)"/><polygon class="cls-1" points="673.05 368.58 681.06 360.56 673.05 360.56 673.05 368.58"/><polygon class="cls-1" points="673.05 296.46 673.05 304.48 681.06 296.46 673.05 288.45 673.05 296.46"/><path class="cls-1" d="M665,328.51v8h8l8-8Z" transform="translate(0 0)"/><path class="cls-1" d="M665,312.49h-8v8h16l8-8Z" transform="translate(0 0)"/><polygon class="cls-1" points="665.04 272.43 665.04 280.44 673.05 272.43 665.04 272.43"/><path class="cls-1" d="M665,296.46l8-8-8-8Z" transform="translate(0 0)"/><polygon class="cls-1" points="665.04 304.48 673.05 304.48 665.04 296.46 665.04 304.48"/><path class="cls-1" d="M673.05,384.6v-8H649v8Z" transform="translate(0 0)"/><rect class="cls-1" x="657.02" y="392.61" width="8.01" height="8.01"/><path class="cls-1" d="M657,368.58h16l-8-8Z" transform="translate(0 0)"/><path class="cls-1" d="M657,288.45l8-8-8-8Z" transform="translate(0 0)"/><path class="cls-1" d="M657,352.55h16l-8-8h-8Z" transform="translate(0 0)"/><polygon class="cls-1" points="657.02 296.46 657.02 304.48 665.04 296.46 657.02 288.45 657.02 296.46"/><path class="cls-1" d="M665,584.91l8-8H641l8,8Z" transform="translate(0 0)"/><path class="cls-1" d="M649,248.39h64.1l-8-8H649Z" transform="translate(0 0)"/><polygon class="cls-1" points="649.01 272.43 649.01 280.44 657.02 272.43 649.01 272.43"/><path class="cls-1" d="M649,296.46l8-8-8-8Z" transform="translate(0 0)"/><polygon class="cls-1" points="649.01 304.48 657.02 304.48 649.01 296.46 649.01 304.48"/><path class="cls-1" d="M657,416.65h8v-8H649l-8,8Z" transform="translate(0 0)"/><polygon class="cls-1" points="649.01 472.74 649.01 464.73 641 464.73 649.01 472.74"/><path class="cls-1" d="M641,336.52h16l-8-8Z" transform="translate(0 0)"/><path class="cls-1" d="M649,232.36H633l8,8Z" transform="translate(0 0)"/><path class="cls-1" d="M649,280.44l-8-8v-24h-8v48.07Z" transform="translate(0 0)"/><rect class="cls-1" x="641" y="360.56" width="8.01" height="8.01"/><path class="cls-1" d="M641,496.77l8,8h16v-16l-8-8H641Z" transform="translate(0 0)"/><polygon class="cls-1" points="641 296.46 641 304.48 649.01 296.46 641 288.45 641 296.46"/><path class="cls-1" d="M649,536.84H785.22v8l8,8v-24H721.12v-8h-16v8H657l8-8-8-8H641v24Z" transform="translate(0 0)"/><path class="cls-1" d="M641,480.75v-8h-8l-8,8Z" transform="translate(0 0)"/><path class="cls-1" d="M625,576.9l-8,8h24v-8Z" transform="translate(0 0)"/><path class="cls-1" d="M625,512.8l8-8v-16H617l-8,8Z" transform="translate(0 0)"/><path class="cls-1" d="M617,536.84h16l8-8H600.94v8Z" transform="translate(0 0)"/><path class="cls-1" d="M592.92,641H625l-8-8v-8h8l-16-16-8,8h8v8l-8,8-8-8Z" transform="translate(0 0)"/><polygon class="cls-1" points="584.91 616.96 592.92 624.98 592.92 616.96 584.91 616.96"/><path class="cls-1" d="M576.9,560.88l-8,8h16l16-16v-8h8l-8-8Z" transform="translate(0 0)"/><polygon class="cls-1" points="576.9 616.96 576.9 624.98 584.91 616.96 576.9 608.95 576.9 616.96"/><path class="cls-1" d="M576.9,488.76h8l-8-8h-16v8Z" transform="translate(0 0)"/><path class="cls-1" d="M560.88,625v8h24l-16-16Z" transform="translate(0 0)"/><path class="cls-1" d="M568.89,544.85h8v-24h-8l-16,16,8,8Z" transform="translate(0 0)"/><path class="cls-1" d="M560.88,609l-8-8v16l8,8Z" transform="translate(0 0)"/><path class="cls-1" d="M560.88,560.88l-8-8h-8v8Z" transform="translate(0 0)"/><polygon class="cls-1" points="520.81 568.89 528.83 576.9 536.84 576.9 536.84 568.89 528.83 560.88 520.81 568.89"/><path class="cls-1" d="M528.83,528.83l-8-8-8,8,16,16h8v-8h-8Z" transform="translate(0 0)"/><path class="cls-1" d="M504.79,600.94l16-16h-16l-16,16Z" transform="translate(0 0)"/><path class="cls-1" d="M496.77,528.83v16l8,8h8v-8l-8-8v-16h-16l-8,8Z" transform="translate(0 0)"/><path class="cls-1" d="M488.76,544.85v-8h-8v-8l-8,8v16l8,8,8-8Z" transform="translate(0 0)"/><path class="cls-1" d="M472.74,512.8h-8l-40.06,40.06,8,8,32.05-32v-8h8Z" transform="translate(0 0)"/><path class="cls-1" d="M440.69,633h-16l-8,8h-16l8,8h8v8l8-8v-8h24l8-8-8-8Z" transform="translate(0 0)"/><polygon class="cls-1" points="400.63 608.95 392.61 600.94 392.61 608.95 400.63 608.95"/><polygon class="cls-1" points="392.61 600.94 384.6 592.93 384.6 600.94 392.61 600.94"/><polygon class="cls-1" points="384.6 592.93 376.59 584.91 376.59 592.93 384.6 592.93"/><polygon class="cls-1" points="368.57 576.9 368.57 584.91 376.59 584.91 368.57 576.9"/><polygon class="cls-1" points="352.55 560.88 352.55 568.89 360.56 568.89 352.55 560.88"/><polygon class="cls-1" points="320.5 608.95 312.49 616.96 320.5 616.96 320.5 608.95"/><path class="cls-1" d="M312.49,544.85h-8l8,8h16l-8-8Z" transform="translate(0 0)"/><polygon class="cls-1" points="312.49 576.9 312.49 568.89 304.48 576.9 312.49 576.9"/><path class="cls-1" d="M304.47,641v-8h-16v8Z" transform="translate(0 0)"/><path class="cls-1" d="M296.46,568.89h24v8h16l-8-8h16l-16-16-8,8H280.44v8Z" transform="translate(0 0)"/><path class="cls-1" d="M288.45,625V609h-16l8,8h-8v-8l-8-8-8,8,16,16Z" transform="translate(0 0)"/><polygon class="cls-1" points="272.43 576.9 264.41 568.89 264.41 576.9 272.43 576.9"/><path class="cls-1" d="M256.4,625l-8,8,8,8,16-16Z" transform="translate(0 0)"/><path class="cls-1" d="M256.4,617v-8h-24v8h16l8,8,8-8Z" transform="translate(0 0)"/><path class="cls-1" d="M248.39,536.84h-32l16,16Z" transform="translate(0 0)"/><path class="cls-1" d="M240.38,552.86h-8l16,16-8,8h16v-8h24l-8-8h-16l-8-8Z" transform="translate(0 0)"/><path class="cls-1" d="M232.36,625h-8l8,8h16l-8-8Z" transform="translate(0 0)"/><polygon class="cls-1" points="216.34 600.94 208.32 608.95 216.34 608.95 216.34 600.94"/><polygon class="cls-1" points="208.32 584.91 208.32 592.93 216.34 584.91 208.32 584.91"/><path class="cls-1" d="M200.31,328.51h24v-8l8,8,8-8,8,8v-24h-8l-8,8h-16v8h-8Z" transform="translate(0 0)"/><rect class="cls-1" x="192.3" y="576.9" width="8.01" height="8.01"/><path class="cls-1" d="M192.3,312.49v8l16-16h-16Z" transform="translate(0 0)"/><path class="cls-1" d="M184.29,88.14l8-8v-16h-16v16l-8,8Z" transform="translate(0 0)"/><rect class="cls-1" x="168.26" y="40.06" width="8.01" height="8.01"/><path class="cls-1" d="M144.22,64.1l16-16h-16l-8-8-8,8v16Z" transform="translate(0 0)"/><path class="cls-1" d="M144.22,80.12l-8-8-8,8Z" transform="translate(0 0)"/><path class="cls-1" d="M112.17,16l-8-8-8,8Z" transform="translate(0 0)"/><path class="cls-1" d="M96.15,48.08h16v-16h8V24h-16l-16,16Z" transform="translate(0 0)"/><polygon class="cls-1" points="80.13 616.96 80.13 608.95 72.11 616.96 80.13 616.96"/><path class="cls-1" d="M72.11,24l8,8,8-8Z" transform="translate(0 0)"/><path class="cls-1" d="M80.12,16l8-8-8-8h-16Z" transform="translate(0 0)"/><path class="cls-1" d="M72.11,600.94l-8,8h16v-16h-8v-8h-8v8Z" transform="translate(0 0)"/><path class="cls-1" d="M64.1,600.94v-8l-8-8h8v-8h-8v-8l-16,16,8,8h8v8Z" transform="translate(0 0)"/><path class="cls-1" d="M56.09,72.11l24,24h16l-24-24h-8v-8l-8-8-8,8Z" transform="translate(0 0)"/><path class="cls-1" d="M48.08,16l-8-8-8,8Z" transform="translate(0 0)"/><polygon class="cls-1" points="32.05 584.91 32.05 592.93 40.06 592.93 40.06 584.91 32.05 576.9 32.05 584.91"/><path class="cls-1" d="M0,0,8,8l8-8Z" transform="translate(0 0)"/><polygon class="cls-1" points="1185.85 777.21 1185.85 785.23 1193.86 777.21 1185.85 777.21"/><path class="cls-1" d="M1169.82,785.22h16l-8-8Z" transform="translate(0 0)"/><path class="cls-1" d="M1177.84,1049.64l8,8h8v-16H1153.8l8,8Z" transform="translate(0 0)"/><polygon class="cls-1" points="1129.76 825.29 1129.76 817.28 1121.75 817.28 1129.76 825.29"/><path class="cls-1" d="M1121.75,833.3l-8-8-8,8Z" transform="translate(0 0)"/><polygon class="cls-1" points="1113.74 777.21 1105.72 785.23 1113.74 785.23 1113.74 777.21"/><path class="cls-1" d="M1097.71,809.26h16v-16Z" transform="translate(0 0)"/><path class="cls-1" d="M1097.71,825.29v8h8v-16h-8Z" transform="translate(0 0)"/><polygon class="cls-1" points="1073.67 1201.88 1073.67 1193.86 1065.66 1193.86 1073.67 1201.88"/><rect class="cls-1" x="1065.66" y="1201.88" width="8.01" height="8.01"/><path class="cls-1" d="M1065.66,1185.85h-16v8l8,8h8Z" transform="translate(0 0)"/><path class="cls-1" d="M1001.56,1025.6v8h16l-8-8Z" transform="translate(0 0)"/><path class="cls-1" d="M1217.9,552.86v-8h-16v16l8-8Z" transform="translate(0 0)"/><path class="cls-1" d="M1161.81,560.88h-8v8h-8v8h24v-8h8l-8-8Z" transform="translate(0 0)"/><path class="cls-1" d="M1137.77,496.77l8,8h24v-8h-16v-16h-16l8,8h-16l-8,8v-8h-8v16h24Z" transform="translate(0 0)"/><polygon class="cls-1" points="1113.74 480.75 1105.72 480.75 1113.74 488.76 1121.75 480.75 1113.74 480.75"/><g id="Export"><line id="Export-2" data-name="Export" class="cls-2" x2="1282"/><line id="Export-3" data-name="Export" class="cls-2" x1="1282" y1="1282" y2="1282"/></g></g></g></svg>