<svg xmlns="http://www.w3.org/2000/svg" viewBox="0 0 1282 1282"><defs><style>.cls-1{fill:#84867a;}.cls-2{fill:none;}</style></defs><g id="Layer_2" data-name="Layer 2"><g id="Layer_1-2" data-name="Layer 1"><path class="cls-1" d="M1241.94,1073.67v8h8v-16h-8Z" transform="translate(32.05 0)"/><path class="cls-1" d="M1233.92,1153.8v8h16v-8Z" transform="translate(32.05 0)"/><path class="cls-1" d="M1209.89,1065.66v8h16v-16h-8Z" transform="translate(32.05 0)"/><path class="cls-1" d="M1201.88,1041.63h-8v16h8l8-8Z" transform="translate(32.05 0)"/><path class="cls-1" d="M1201.88,1033.61v-16h-8l-8,8v8Z" transform="translate(32.05 0)"/><polygon class="cls-1" points="1225.91 1169.83 1225.91 1177.84 1233.92 1169.83 1233.92 1161.81 1225.91 1161.81 1225.91 1169.83"/><path class="cls-1" d="M1185.85,1121.75h-8v16h24Z" transform="translate(32.05 0)"/><polygon class="cls-1" points="1217.9 1169.83 1217.9 1161.81 1209.89 1161.81 1217.9 1169.83"/><polygon class="cls-1" points="1217.9 1057.65 1217.9 1049.64 1209.89 1049.64 1217.9 1057.65"/><polygon class="cls-1" points="1209.89 1009.58 1201.87 1009.58 1201.87 1017.59 1209.89 1017.59 1217.9 1009.58 1209.89 1009.58"/><path class="cls-1" d="M1169.82,985.54v8l-8,8h24v-8l-8-8Z" transform="translate(32.05 0)"/><path class="cls-1" d="M1161.81,1161.81v8h8l8-8Z" transform="translate(32.05 0)"/><polygon class="cls-1" points="1185.85 985.54 1177.84 985.54 1185.85 993.55 1193.86 985.54 1185.85 985.54"/><polygon class="cls-1" points="1185.85 1169.83 1185.85 1161.81 1177.84 1161.81 1185.85 1169.83"/><path class="cls-1" d="M1145.79,961.5v8l8,8,8-8v-8Z" transform="translate(32.05 0)"/><path class="cls-1" d="M1129.76,1161.81v16l16-16Z" transform="translate(32.05 0)"/><path class="cls-1" d="M1137.77,945.47l-8-8h-16v8h8l8,8Z" transform="translate(32.05 0)"/><polygon class="cls-1" points="1145.79 1169.83 1153.8 1169.83 1145.79 1161.81 1145.79 1169.83"/><path class="cls-1" d="M1097.71,1177.84h16l-8-8Z" transform="translate(32.05 0)"/><polygon class="cls-1" points="1137.77 1161.81 1129.76 1161.81 1137.77 1169.83 1137.77 1161.81"/><path class="cls-1" d="M1089.7,945.47h16v-16h-16Z" transform="translate(32.05 0)"/><path class="cls-1" d="M1097.71,1161.81h-24v8l8,8h16l-8-8Z" transform="translate(32.05 0)"/><path class="cls-1" d="M1073.67,1073.67l-8-8-8,8v8h16Z" transform="translate(32.05 0)"/><path class="cls-1" d="M1057.65,929.45l16,16,8-8v-8Z" transform="translate(32.05 0)"/><path class="cls-1" d="M945.47,921.44H889.39v-8h8l-8-8v-8h56.08v-8H881.38v40.06H961.5l-8-8Z" transform="translate(32.05 0)"/><path class="cls-1" d="M945.47,1065.66H889.39l-8-8v112.17h64.09l-8-8H889.39v-8h48.07v-8H889.39v-8h56.08l-8-8H889.39v-8h56.08l-8-8H889.39v-8h8l8-8h-16v-8h56.08l8-8h-64.1v-8H961.5v-8Z" transform="translate(32.05 0)"/><path class="cls-1" d="M945.47,945.47h8v-8h-16l-8,8Z" transform="translate(32.05 0)"/><path class="cls-1" d="M929.45,841.31h-16v8h32.05l-8-8Z" transform="translate(32.05 0)"/><path class="cls-1" d="M929.45,857.34h-16v8h32.05l8-8Z" transform="translate(32.05 0)"/><path class="cls-1" d="M929.45,1177.84H889.39v8h56.08l-8-8Z" transform="translate(32.05 0)"/><path class="cls-1" d="M921.44,937.46H889.39v8h40.06v-8Z" transform="translate(32.05 0)"/><path class="cls-1" d="M913.42,825.29h-8l8,8h16l-8-8Z" transform="translate(32.05 0)"/><path class="cls-1" d="M913.42,913.42h32.05l8-8H897.4v8Z" transform="translate(32.05 0)"/><path class="cls-1" d="M913.42,1105.72h32.05l-8-8H905.41v8Z" transform="translate(32.05 0)"/><path class="cls-1" d="M897.4,873.36v8h48.07l8-8Z" transform="translate(32.05 0)"/><rect class="cls-1" x="312.49" y="753.18" width="8.01" height="8.01"/><path class="cls-1" d="M272.42,737.15h-8v8h16Z" transform="translate(32.05 0)"/><polygon class="cls-1" points="304.47 1249.95 304.47 1241.94 296.46 1241.94 304.47 1249.95"/><path class="cls-1" d="M264.41,1217.9h-8v16h16v-8h-8Z" transform="translate(32.05 0)"/><path class="cls-1" d="M256.4,753.17v8h8l8-8Z" transform="translate(32.05 0)"/><path class="cls-1" d="M264.41,777.21v-8h-16v8Z" transform="translate(32.05 0)"/><polygon class="cls-1" points="280.44 1209.89 288.45 1217.9 288.45 1209.89 280.44 1209.89"/><polygon class="cls-1" points="280.44 1233.93 280.44 1225.91 272.42 1233.93 280.44 1233.93"/><polygon class="cls-1" points="280.44 1225.91 280.44 1217.9 272.42 1217.9 280.44 1225.91"/><polygon class="cls-1" points="272.42 1209.89 280.44 1209.89 272.42 1201.88 272.42 1209.89"/><path class="cls-1" d="M240.38,785.22h-16l8,8h8Z" transform="translate(32.05 0)"/><rect class="cls-1" x="264.41" y="761.19" width="8.01" height="8.01"/><polygon class="cls-1" points="264.41 1225.91 264.41 1217.9 256.4 1217.9 264.41 1225.91"/><path class="cls-1" d="M224.35,761.19v-8h-16v8Z" transform="translate(32.05 0)"/><path class="cls-1" d="M216.34,1185.85h-8v8H120.19l8,8h64.1l8,8h16v-16l8-8Z" transform="translate(32.05 0)"/><polygon class="cls-1" points="192.3 857.34 192.3 849.33 184.29 857.34 192.3 857.34"/><path class="cls-1" d="M144.22,881.38v-16l-8,8Z" transform="translate(32.05 0)"/><rect class="cls-1" x="138.56" y="851.67" width="11.33" height="11.33" transform="translate(-531.94 353.09) rotate(-45)"/><path class="cls-1" d="M144.22,849.32h16l-8-8H104.16l8,8Z" transform="translate(32.05 0)"/><path class="cls-1" d="M136.21,809.26h-16l8,8Z" transform="translate(32.05 0)"/><rect class="cls-1" x="122.53" y="851.67" width="11.33" height="11.33" transform="translate(-536.63 341.76) rotate(-45)"/><polygon class="cls-1" points="152.24 873.36 160.25 881.38 168.26 881.38 168.26 873.36 160.25 865.35 152.24 873.36"/><path class="cls-1" d="M120.19,1177.84h-32l-8-8-8,8h-16v8h48.07v8l8-8h8Z" transform="translate(32.05 0)"/><path class="cls-1" d="M120.19,857.34h-16l8,8Z" transform="translate(32.05 0)"/><rect class="cls-1" x="106.51" y="867.7" width="11.33" height="11.33" transform="translate(-552.66 335.12) rotate(-45)"/><path class="cls-1" d="M112.17,1105.72h8v-8h-16l-8,8Z" transform="translate(32.05 0)"/><polygon class="cls-1" points="136.21 865.35 136.21 857.34 128.2 849.33 120.19 857.34 128.2 865.35 136.21 865.35"/><path class="cls-1" d="M96.15,1121.75l-8,8h-32v8h64.1v-8h-8v-8l-8,8Z" transform="translate(32.05 0)"/><path class="cls-1" d="M96.15,1169.82h24v-8H72.11l-8-8v8h-8v8Z" transform="translate(32.05 0)"/><rect class="cls-1" x="74.46" y="851.67" width="11.33" height="11.33" transform="translate(-550.71 307.77) rotate(-45)"/><path class="cls-1" d="M80.12,1105.72h16v-8H56.09v8Z" transform="translate(32.05 0)"/><path class="cls-1" d="M80.12,1153.8h40.07v-8H56.09v8Z" transform="translate(32.05 0)"/><path class="cls-1" d="M64.1,849.32v16h8v-16h8l-8-8h-8Z" transform="translate(32.05 0)"/><path class="cls-1" d="M56.09,1113.74v8h64.1v-8H64.1v-8Z" transform="translate(32.05 0)"/><path class="cls-1" d="M1241.94,88.14l-48.08,48.07h-96.15l-24-24h-16l-16-16H993.55l-16,16h-16l-24,24H825.29v8h-8v8h-8v8h-8v8h-8v8h-8v8h-8v8h-8v8h-8v8h-8v8h-8v8h-8v8h-8v8h-8v8h-8v8h-8v8H609v8H705.1l128.2-128.2H945.47l24-24h16l16-16h32l16,16h16l24,24h112.18L1250,96.15v-16Z" transform="translate(32.05 0)"/><path class="cls-1" d="M1073.67,144.22l-8,8,16,16,8-8Z" transform="translate(32.05 0)"/><rect class="cls-1" x="1043.97" y="138.56" width="11.33" height="11.33" transform="translate(237.5 784.45) rotate(-45)"/><rect class="cls-1" x="979.87" y="138.56" width="11.33" height="11.33" transform="translate(218.72 739.12) rotate(-45)"/><path class="cls-1" d="M953.49,152.24l-8,8,8,8,16-16-8-8Z" transform="translate(32.05 0)"/><polygon class="cls-1" points="913.42 632.99 905.41 632.99 913.42 641 913.42 632.99"/><path class="cls-1" d="M801.25,480.75h-32l16,16h16l8-8v8h8v-16Z" transform="translate(32.05 0)"/><path class="cls-1" d="M665,304.47H649v8h24v8H609v-8H649l-8-8H609v-8h-8v48.08l8-8v-8h64.1v8H609v8H649l8,8v-8h16v8H625l8,8h40.06v8H609v-24h-8v48.07h32v-8H609v-8h64.1v24H641l8,8h24v8h-8v8h8v8H625v8h48.08v8h8V296.46l-8,8Z" transform="translate(32.05 0)"/><path class="cls-1" d="M657,384.6H641l-8,8h32l8-8Z" transform="translate(32.05 0)"/><path class="cls-1" d="M649,416.65h-8l-8,8h32l-8-8Z" transform="translate(32.05 0)"/><path class="cls-1" d="M617,584.91l8,8,8-8Z" transform="translate(32.05 0)"/><path class="cls-1" d="M625,560.88l-8-8-8,8Z" transform="translate(32.05 0)"/><path class="cls-1" d="M609,432.67v-8h24v-8H609v-8h32v-8H600.94V448.7h8v-8h8l8-8Z" transform="translate(32.05 0)"/><path class="cls-1" d="M609,352.55l8,8h8v-8Z" transform="translate(32.05 0)"/><path class="cls-1" d="M584.91,552.86h16v-8h-8Z" transform="translate(32.05 0)"/><path class="cls-1" d="M584.91,568.89l8-8-8-8Z" transform="translate(32.05 0)"/><path class="cls-1" d="M464.72,504.79h-8l-8,8v8h24l8-8-8-8Z" transform="translate(32.05 0)"/><path class="cls-1" d="M272.42,536.84H224.35v8h64.1l-8-8Z" transform="translate(32.05 0)"/><polygon class="cls-1" points="112.17 8.01 104.16 8.01 112.17 16.03 112.17 8.01"/><path class="cls-1" d="M64.1,0h-16l8,8Z" transform="translate(32.05 0)"/><rect class="cls-1" x="2.35" y="58.43" width="11.33" height="11.33" transform="translate(-10.93 24.44) rotate(-45)"/><g id="Export"><line id="Export-2" data-name="Export" class="cls-2" x2="1282"/><line id="Export-3" data-name="Export" class="cls-2" x1="1282" y1="1282" y2="1282"/></g></g></g></svg>