<svg xmlns="http://www.w3.org/2000/svg" viewBox="0 0 1282 1282"><defs><style>.cls-1{fill:#717272;}.cls-2{fill:none;}</style></defs><g id="Layer_2" data-name="Layer 2"><g id="Layer_1-2" data-name="Layer 1"><rect class="cls-1" x="1236.27" y="1100.06" width="11.33" height="11.33" transform="translate(-386.06 1266.14) rotate(-45)"/><path class="cls-1" d="M1233.92,913.42h-24v16H1250v-16Z" transform="translate(32.05 64.1)"/><rect class="cls-1" x="1228.26" y="1124.1" width="11.33" height="11.33" transform="translate(-405.41 1267.52) rotate(-45)"/><rect class="cls-1" x="1257.96" y="1153.8" width="8.01" height="8.01"/><rect class="cls-1" x="1204.22" y="1100.06" width="11.33" height="11.33" transform="translate(-395.45 1243.48) rotate(-45)"/><polygon class="cls-1" points="1241.94 1201.88 1241.94 1209.89 1249.95 1201.88 1241.94 1193.86 1233.92 1201.88 1241.94 1201.88"/><rect class="cls-1" x="1204.22" y="1116.08" width="11.33" height="11.33" transform="translate(-406.78 1248.17) rotate(-45)"/><path class="cls-1" d="M1193.86,1089.7v8h16l-8-8Z" transform="translate(32.05 64.1)"/><path class="cls-1" d="M1185.85,1153.8h-16v8h24l8-8Z" transform="translate(32.05 64.1)"/><rect class="cls-1" x="1180.18" y="1140.12" width="11.33" height="11.33" transform="translate(-430.82 1238.21) rotate(-45)"/><rect class="cls-1" x="1172.17" y="1100.06" width="11.33" height="11.33" transform="translate(-404.84 1220.82) rotate(-45)"/><polygon class="cls-1" points="1209.89 817.28 1217.9 817.28 1209.89 809.26 1201.87 817.28 1209.89 817.28"/><polygon class="cls-1" points="1201.87 1193.86 1201.87 1185.85 1193.86 1193.86 1201.87 1201.88 1201.87 1193.86"/><path class="cls-1" d="M1169.82,1097.71h16v-8h-32l8,8Z" transform="translate(32.05 64.1)"/><path class="cls-1" d="M1153.8,721.12h-16l-8,8h32l8-8-8-8Z" transform="translate(32.05 64.1)"/><path class="cls-1" d="M1145.79,1145.79h-16l-8-8v16h32l8-8Z" transform="translate(32.05 64.1)"/><rect class="cls-1" x="1140.12" y="1132.11" width="11.33" height="11.33" transform="translate(-436.89 1207.54) rotate(-45)"/><rect class="cls-1" x="1140.12" y="1116.08" width="11.33" height="11.33" transform="translate(-425.55 1202.85) rotate(-45)"/><rect class="cls-1" x="1140.12" y="1100.06" width="11.33" height="11.33" transform="translate(-414.22 1198.15) rotate(-45)"/><path class="cls-1" d="M1145.79,1057.65h8V1025.6h-24v32.05Zm-8-16v-8h8v16h-8Z" transform="translate(32.05 64.1)"/><path class="cls-1" d="M1145.79,1097.71h8v-8h-16l-8,8Z" transform="translate(32.05 64.1)"/><path class="cls-1" d="M1129.76,1089.7h-16v8l8,8,8-8Z" transform="translate(32.05 64.1)"/><path class="cls-1" d="M1121.75,1057.65l-8,8v16h56.08v-72.11h-8v-8h-40.06v-8h32l-8-8h-16l-8-8v8h-8v56.09h8v-24h8v-8h24v8h8v48.07h-8v8l-8-8h-16Z" transform="translate(32.05 64.1)"/><path class="cls-1" d="M1121.75,1105.72v16l8-8Z" transform="translate(32.05 64.1)"/><path class="cls-1" d="M1121.75,1121.75v16l8-8Z" transform="translate(32.05 64.1)"/><polygon class="cls-1" points="1145.79 1217.9 1153.8 1217.9 1145.79 1209.89 1145.79 1217.9"/><path class="cls-1" d="M1097.71,1145.79h-16v8h24l8-8Z" transform="translate(32.05 64.1)"/><path class="cls-1" d="M1105.72,1089.7h-32v8h32Z" transform="translate(32.05 64.1)"/><rect class="cls-1" x="1092.05" y="1100.06" width="11.33" height="11.33" transform="translate(-428.3 1164.15) rotate(-45)"/><rect class="cls-1" x="1092.05" y="1116.08" width="11.33" height="11.33" transform="translate(-439.64 1168.85) rotate(-45)"/><rect class="cls-1" x="1092.05" y="1132.11" width="11.33" height="11.33" transform="translate(-450.97 1173.55) rotate(-45)"/><polygon class="cls-1" points="1129.76 833.3 1129.76 825.29 1121.75 817.28 1113.74 825.29 1121.75 833.3 1129.76 833.3"/><path class="cls-1" d="M1089.7,1177.84h-24l8,8h32l-8-8Z" transform="translate(32.05 64.1)"/><path class="cls-1" d="M1097.71,745.16l-16-16v16Z" transform="translate(32.05 64.1)"/><polygon class="cls-1" points="1113.74 1233.93 1105.72 1233.93 1113.74 1241.94 1121.75 1233.93 1113.74 1233.93"/><polygon class="cls-1" points="1113.74 777.21 1113.74 785.23 1105.72 785.23 1113.74 793.24 1121.75 785.23 1113.74 777.21"/><path class="cls-1" d="M1081.69,745.16h-16l16,16Z" transform="translate(32.05 64.1)"/><path class="cls-1" d="M1073.67,1137.78l8-8-8-8Z" transform="translate(32.05 64.1)"/><path class="cls-1" d="M1073.67,1105.72v16l8-8Z" transform="translate(32.05 64.1)"/><path class="cls-1" d="M1049.64,977.53v72.11l8-8V969.51h-8Z" transform="translate(32.05 64.1)"/><path class="cls-1" d="M1041.63,1065.66h-8l-8,8v-8h-24v-8h-8v-16l-8,8v32h64.1v-24h-8Z" transform="translate(32.05 64.1)"/><path class="cls-1" d="M1033.61,1137.78h-16v24h24v-16h-8Z" transform="translate(32.05 64.1)"/><path class="cls-1" d="M1033.61,993.55v-32h-16v8h8v24h-8v-24l-8-8v40.06h24Z" transform="translate(32.05 64.1)"/><path class="cls-1" d="M1017.59,1009.58h-8v40.06h24v-40.06Zm8,16v16h-8v-24h8Z" transform="translate(32.05 64.1)"/><polygon class="cls-1" points="1025.6 1081.69 1017.59 1081.69 1025.6 1089.7 1025.6 1081.69"/><path class="cls-1" d="M993.55,1001.56v-24l-8,8v32.05l8-8Z" transform="translate(32.05 64.1)"/><path class="cls-1" d="M993.55,609l-8-8-8,8Z" transform="translate(32.05 64.1)"/><path class="cls-1" d="M985.54,1129.76h-8v16h24Z" transform="translate(32.05 64.1)"/><path class="cls-1" d="M985.54,969.51h-16v8h8Z" transform="translate(32.05 64.1)"/><path class="cls-1" d="M969.51,633h8v-8h-16l-8-8v16Z" transform="translate(32.05 64.1)"/><polygon class="cls-1" points="993.55 745.16 993.55 737.15 985.54 745.16 993.55 745.16"/><path class="cls-1" d="M953.49,1169.83h-8v16l-8,8-8-8v16h-16v16h16l16-16v-8h8v-16h16v-8Z" transform="translate(32.05 64.1)"/><path class="cls-1" d="M945.47,592.92v16h32v-8h-24Z" transform="translate(32.05 64.1)"/><path class="cls-1" d="M945.47,1169.83v-16h-16v16Z" transform="translate(32.05 64.1)"/><path class="cls-1" d="M913.42,1185.85h16v-16h-16l8,8Z" transform="translate(32.05 64.1)"/><path class="cls-1" d="M913.42,1185.85h-16v16h16Z" transform="translate(32.05 64.1)"/><path class="cls-1" d="M913.42,1169.83v-16h-16v16Z" transform="translate(32.05 64.1)"/><polygon class="cls-1" points="937.46 673.05 945.47 673.05 937.46 665.04 929.45 673.05 937.46 673.05"/><path class="cls-1" d="M897.4,1169.83h-16v16h16Z" transform="translate(32.05 64.1)"/><path class="cls-1" d="M889.39,1145.79h16l-8-8Z" transform="translate(32.05 64.1)"/><path class="cls-1" d="M889.39,1153.8h-8l-24,24h8v8l24-24Z" transform="translate(32.05 64.1)"/><path class="cls-1" d="M881.38,609v16l8,8h8v-8Z" transform="translate(32.05 64.1)"/><polygon class="cls-1" points="913.42 1282 913.42 1273.99 905.41 1273.99 913.42 1282"/><path class="cls-1" d="M865.35,1193.86h-8v-8h-8v8H809.26l-8,8h8v8h8v8l8-8-8-8h48.08l8-8Z" transform="translate(32.05 64.1)"/><rect class="cls-1" x="897.4" y="945.48" width="8.01" height="8.01"/><rect class="cls-1" x="843.66" y="1204.22" width="11.33" height="11.33" transform="translate(-574.71 1019.03) rotate(-45)"/><path class="cls-1" d="M849.32,1049.64h8v-40.06h-24v40.06Zm-8-16v-16h8v24h-8Z" transform="translate(32.05 64.1)"/><path class="cls-1" d="M849.32,1001.56h8V961.5h-24v40.06Zm-8-16v-16h8v24h-8Z" transform="translate(32.05 64.1)"/><path class="cls-1" d="M817.27,1185.85h16l-8-8Z" transform="translate(32.05 64.1)"/><path class="cls-1" d="M817.27,929.45h56.09v-8H841.31l-8-8-8,8h-8Z" transform="translate(32.05 64.1)"/><path class="cls-1" d="M817.27,993.55v-8h-8v16l8,8Z" transform="translate(32.05 64.1)"/><path class="cls-1" d="M809.26,1017.59v64.1h16l8-8v8h32.05v-8l8,8h8V937.46H809.26v48.08l8-8v-24h8v-8h40.06v8h8v104.16h-8v8H825.29v-8h-8v-48.07h-8Z" transform="translate(32.05 64.1)"/><path class="cls-1" d="M809.26,1145.79h8v-8l-8-8-8,8h-16l-8,8Z" transform="translate(32.05 64.1)"/><polygon class="cls-1" points="825.29 753.18 825.29 745.16 817.27 753.18 825.29 753.18"/><path class="cls-1" d="M785.22,905.41v8h16v-16l-8-8v8h-8Z" transform="translate(32.05 64.1)"/><path class="cls-1" d="M777.21,993.55v-8l-16,16,8,8,8-8Z" transform="translate(32.05 64.1)"/><polygon class="cls-1" points="801.25 737.15 801.25 745.16 809.26 745.16 801.25 737.15"/><path class="cls-1" d="M769.2,1185.85h-16l-16,16v8h8Z" transform="translate(32.05 64.1)"/><polygon class="cls-1" points="793.24 713.11 785.22 721.13 793.24 721.13 793.24 713.11"/><path class="cls-1" d="M753.17,1217.9h16v-16h-16Z" transform="translate(32.05 64.1)"/><path class="cls-1" d="M753.17,897.4v-16l-8-8v32l8,8Z" transform="translate(32.05 64.1)"/><path class="cls-1" d="M745.16,993.55v8h8v-16h-8Z" transform="translate(32.05 64.1)"/><path class="cls-1" d="M737.15,913.42v8H769.2v-8Z" transform="translate(32.05 64.1)"/><path class="cls-1" d="M721.12,873.36h-8v16h16v-16l-8-8Z" transform="translate(32.05 64.1)"/><path class="cls-1" d="M713.11,681.06h16l-8-8Z" transform="translate(32.05 64.1)"/><path class="cls-1" d="M689.07,913.42h16l-8-8Z" transform="translate(32.05 64.1)"/><path class="cls-1" d="M689.07,721.12h16l-8-8Z" transform="translate(32.05 64.1)"/><path class="cls-1" d="M697.09,1193.86l-8-8-8,8Z" transform="translate(32.05 64.1)"/><path class="cls-1" d="M681.06,1161.81h-8v-8l-8,8h-8v8h40.07v-8Z" transform="translate(32.05 64.1)"/><path class="cls-1" d="M673.05,945.47l8-8v-16l-8,8Z" transform="translate(32.05 64.1)"/><path class="cls-1" d="M673.05,1185.85l8,8v-16l-8-8Z" transform="translate(32.05 64.1)"/><path class="cls-1" d="M665,921.44l-8,8h16v-8Z" transform="translate(32.05 64.1)"/><path class="cls-1" d="M657,961.5l-16-16-8,8v16l8-8,8,8h8Z" transform="translate(32.05 64.1)"/><path class="cls-1" d="M633,1177.84l-8,8h16l8-8Z" transform="translate(32.05 64.1)"/><polygon class="cls-1" points="657.02 1033.61 665.04 1033.61 657.02 1025.6 657.02 1033.61"/><path class="cls-1" d="M592.92,785.22h16l-8-8Z" transform="translate(32.05 64.1)"/><path class="cls-1" d="M584.91,1177.84h-8v8h16l8-8Z" transform="translate(32.05 64.1)"/><path class="cls-1" d="M592.92,584.91v-8h-8v24l8-8Z" transform="translate(32.05 64.1)"/><path class="cls-1" d="M560.88,584.91v8l8,8v-24h-8Z" transform="translate(32.05 64.1)"/><path class="cls-1" d="M560.88,1177.84v8l8,8v-16l-8-8Z" transform="translate(32.05 64.1)"/><path class="cls-1" d="M552.86,953.49l-8,8v-16l-8-8v32l-8,8,16,16,8-8-8-8,8-8,8,8,8-8Z" transform="translate(32.05 64.1)"/><path class="cls-1" d="M552.86,576.9v-8h-8v16h8Z" transform="translate(32.05 64.1)"/><path class="cls-1" d="M528.83,1017.59h-8l-8,8h24v-8l-8-8Z" transform="translate(32.05 64.1)"/><path class="cls-1" d="M520.81,1049.64h16l-8-8Z" transform="translate(32.05 64.1)"/><path class="cls-1" d="M528.83,584.91v-24l-8-8v48.08l8-8Z" transform="translate(32.05 64.1)"/><path class="cls-1" d="M528.83,817.28l-8-8-8,8Z" transform="translate(32.05 64.1)"/><path class="cls-1" d="M496.78,809.26h-8v16h16v-16l-8-8Z" transform="translate(32.05 64.1)"/><path class="cls-1" d="M488.76,921.44v-16l-8,8v16l8,8Z" transform="translate(32.05 64.1)"/><path class="cls-1" d="M480.75,937.46v8l-8,8v8h8v8h8v-16l8-8v-16l-8,8Z" transform="translate(32.05 64.1)"/><path class="cls-1" d="M488.76,777.21l-8-8-8,8Z" transform="translate(32.05 64.1)"/><path class="cls-1" d="M480.75,1001.56v40.07l8-8V985.54l-8,8Z" transform="translate(32.05 64.1)"/><path class="cls-1" d="M480.75,865.35v-16l-16-16-16,16v16h16l-8-8,8-8,8,8-8,8Z" transform="translate(32.05 64.1)"/><path class="cls-1" d="M416.65,584.91v8h8v-24l-8,8Z" transform="translate(32.05 64.1)"/><path class="cls-1" d="M400.62,600.94v8l8-8v-16l-8,8Z" transform="translate(32.05 64.1)"/><path class="cls-1" d="M376.59,600.94v32l8-8h8v-24Z" transform="translate(32.05 64.1)"/><path class="cls-1" d="M360.56,592.92v8l8,8v-16l-8-8Z" transform="translate(32.05 64.1)"/><polygon class="cls-1" points="296.46 1233.93 296.46 1241.94 304.47 1233.93 296.46 1233.93"/><path class="cls-1" d="M216.34,576.9v-8h-8v32.05h24V568.89l-8,8v16h-8Z" transform="translate(32.05 64.1)"/><path class="cls-1" d="M208.33,617v32h24V609h-24Zm16,0v24h-8V617Z" transform="translate(32.05 64.1)"/><path class="cls-1" d="M192.3,657V625l-8,8v48.07H256.4V560.88h-8V657h-8v8H200.31v-8Z" transform="translate(32.05 64.1)"/><path class="cls-1" d="M192.3,609V560.88l-8-8V625h8Z" transform="translate(32.05 64.1)"/><path class="cls-1" d="M160.25,689.08l-16,16,8,8h16l-8-8,8-8h8v-8Z" transform="translate(32.05 64.1)"/><path class="cls-1" d="M144.22,617h24l-8-8h-16l-8-8h-8v16Z" transform="translate(32.05 64.1)"/><path class="cls-1" d="M56.09,1209.89h16l-8-8Z" transform="translate(32.05 64.1)"/><path class="cls-1" d="M1241.94,8l-48.08,48.08h-96.15l-16-16h-16l-16-16h-64.1l-16,16h-16l-16,16H825.29v-16l-8,8-8-8v16l8,8L705.1,176.28v8H617v-16l-8,8-8-8v16h8v16H705.1v-8h8v-8h8v-8h8v-8h8v-8h8v-8h8v-8h8v-8h8v-8h8v-8h8v-8h8v-8h8v-8h8v-8h8v-8h8v-8H937.46l24-24h16l16-16h48.08l16,16h16l24,24h96.15L1250,16V0Z" transform="translate(32.05 64.1)"/><path class="cls-1" d="M1233.92,80.12l-24,24h-128.2l-16-16h-16l-8-8H993.55l-8,8h-16l-16,16H841.31v-16l-8,8-8-8v16l8,8-16,16h16l8-8H961.5v-8l16-16h16l8-8h32l8,8h16l16,16v8h136.22L1250,80.12v-16Z" transform="translate(32.05 64.1)"/><path class="cls-1" d="M1185.85,496.78v-8h-8l-8,8Z" transform="translate(32.05 64.1)"/><polygon class="cls-1" points="1169.82 560.88 1177.84 568.89 1177.84 560.88 1169.82 560.88"/><path class="cls-1" d="M1137.77,512.8h-24v8h40.06v-16h-16Z" transform="translate(32.05 64.1)"/><polygon class="cls-1" points="1137.77 480.75 1129.76 488.76 1137.77 488.76 1137.77 480.75"/><polygon class="cls-1" points="1121.75 488.76 1121.75 496.78 1129.76 488.76 1121.75 488.76"/><path class="cls-1" d="M1081.69,424.66l-8-8v16l-16,16,16,16v-8h8v-8h56.08v-8h-56.08Z" transform="translate(32.05 64.1)"/><path class="cls-1" d="M1041.63,448.7v8h-24l8,8h32.05Z" transform="translate(32.05 64.1)"/><path class="cls-1" d="M1017.59,536.84h-16l8,8Z" transform="translate(32.05 64.1)"/><path class="cls-1" d="M993.55,552.86h-8v32h16l16-16v-16Z" transform="translate(32.05 64.1)"/><path class="cls-1" d="M977.52,472.74v-8l-8-8v16l8,8Z" transform="translate(32.05 64.1)"/><polygon class="cls-1" points="985.54 528.83 985.54 536.84 993.55 528.83 985.54 528.83"/><polygon class="cls-1" points="969.51 552.86 977.52 544.85 969.51 544.85 969.51 552.86"/><path class="cls-1" d="M913.42,496.78l8-8-24-24v16Z" transform="translate(32.05 64.1)"/><polygon class="cls-1" points="921.44 576.9 921.44 568.89 913.42 576.9 921.44 576.9"/><polygon class="cls-1" points="913.42 536.84 913.42 544.85 921.44 536.84 913.42 536.84"/><polygon class="cls-1" points="897.4 576.9 897.4 584.91 905.41 584.91 897.4 576.9"/><path class="cls-1" d="M857.34,528.83v8h32v-8Z" transform="translate(32.05 64.1)"/><path class="cls-1" d="M841.31,520.81l-8,8h16l8-8Z" transform="translate(32.05 64.1)"/><polygon class="cls-1" points="857.34 560.88 857.34 552.86 849.32 560.88 857.34 560.88"/><path class="cls-1" d="M825.29,472.74h-8v8l8,8Z" transform="translate(32.05 64.1)"/><polygon class="cls-1" points="849.32 528.83 857.34 536.84 857.34 528.83 849.32 528.83"/><path class="cls-1" d="M809.26,144.23h-8l-88.14,88.13H681.06v16h32.05l16-16v-8h8l24-24v-8h8l24-24v-8h8l24-24-8-8-8,8Z" transform="translate(32.05 64.1)"/><polygon class="cls-1" points="833.3 560.88 825.29 568.89 833.3 568.89 833.3 560.88"/><rect class="cls-1" x="817.27" y="576.9" width="8.01" height="8.01"/><polygon class="cls-1" points="705.1 304.48 713.11 296.46 705.1 296.46 705.1 304.48"/><polygon class="cls-1" points="705.1 440.69 697.09 440.69 705.1 448.7 705.1 440.69"/><polygon class="cls-1" points="705.1 432.68 705.1 424.66 697.09 424.66 705.1 432.68"/><path class="cls-1" d="M673.05,560.88l-8-8-8,8Z" transform="translate(32.05 64.1)"/><path class="cls-1" d="M665,392.61v-16l-8,8Z" transform="translate(32.05 64.1)"/><polygon class="cls-1" points="697.09 384.6 697.09 376.59 689.07 384.6 697.09 384.6"/><polygon class="cls-1" points="689.07 456.71 689.07 448.7 681.06 456.71 689.07 456.71"/><polygon class="cls-1" points="681.06 312.49 681.06 304.48 673.05 304.48 681.06 312.49"/><polygon class="cls-1" points="641 344.54 641 336.53 632.99 344.54 641 344.54"/><polygon class="cls-1" points="641 296.46 641 288.45 632.99 296.46 641 296.46"/><rect class="cls-1" x="632.99" y="392.61" width="8.01" height="8.01"/><path class="cls-1" d="M592.92,560.88h-8v8l8,8Z" transform="translate(32.05 64.1)"/><polygon class="cls-1" points="568.89 560.88 560.87 560.88 568.89 568.89 568.89 560.88"/><polygon class="cls-1" points="528.82 552.86 536.84 552.86 528.82 544.85 528.82 552.86"/><polygon class="cls-1" points="488.76 552.86 480.75 560.88 488.76 560.88 488.76 552.86"/><polygon class="cls-1" points="480.75 520.81 480.75 528.83 488.76 520.81 480.75 520.81"/><polygon class="cls-1" points="480.75 528.83 480.75 536.84 488.76 536.84 480.75 528.83"/><path class="cls-1" d="M392.61,552.86h16l-8-8Z" transform="translate(32.05 64.1)"/><path class="cls-1" d="M360.56,536.84l-16,16h24v-8h-8Z" transform="translate(32.05 64.1)"/><path class="cls-1" d="M352.55,544.85v-16h-8v-8h-8v-8h-8v8l-8-8h-8v8l8,8h16v16l8,8v-8Z" transform="translate(32.05 64.1)"/><path class="cls-1" d="M344.54,576.9V609h8V576.9l-8-8Z" transform="translate(32.05 64.1)"/><polygon class="cls-1" points="344.54 592.93 344.54 584.91 336.52 592.93 344.54 592.93"/><path class="cls-1" d="M304.47,512.8H208.33l-8-8v16l8,8h24v-8l8,8h64.09Z" transform="translate(32.05 64.1)"/><polygon class="cls-1" points="272.42 608.95 272.42 616.96 280.44 616.96 272.42 608.95"/><path class="cls-1" d="M224.35,368.58l-8-8v16h8Z" transform="translate(32.05 64.1)"/><path class="cls-1" d="M224.35,304.48v-24h-8v32.05h8Z" transform="translate(32.05 64.1)"/><path class="cls-1" d="M208.33,288.45l-8-8H168.26v8Z" transform="translate(32.05 64.1)"/><path class="cls-1" d="M200.31,304.48h-8v16l8-8Z" transform="translate(32.05 64.1)"/><polygon class="cls-1" points="232.36 328.51 224.35 336.53 232.36 336.53 232.36 328.51"/><path class="cls-1" d="M192.3,336.53h-8v-24l8-8h-16v40.06h24v-24h-8Z" transform="translate(32.05 64.1)"/><path class="cls-1" d="M192.3,504.79v-8l-8-8v16l8,8Z" transform="translate(32.05 64.1)"/><path class="cls-1" d="M184.29,368.58v-8l8-8h-16v40.06h24V360.56h-8v24h-8Z" transform="translate(32.05 64.1)"/><path class="cls-1" d="M176.28,496.78v-16l-16-16v16Z" transform="translate(32.05 64.1)"/><path class="cls-1" d="M176.28,272.42h16v-8H160.25v8Z" transform="translate(32.05 64.1)"/><polygon class="cls-1" points="200.31 624.98 208.32 624.98 200.31 616.96 192.3 624.98 200.31 624.98"/><rect class="cls-1" x="192.3" y="464.73" width="8.01" height="8.01"/><path class="cls-1" d="M168.26,424.66h48.08l8-8-8-8,8-8v-16h-8v16h-8v8h-24l8,8H160.25l-8-8v16Z" transform="translate(32.05 64.1)"/><path class="cls-1" d="M160.25,392.61v-8l-8-8v16l8,8Z" transform="translate(32.05 64.1)"/><path class="cls-1" d="M160.25,368.58V280.44h-8v96.15h8Z" transform="translate(32.05 64.1)"/><path class="cls-1" d="M144.22,416.65l-8-8-8,8Z" transform="translate(32.05 64.1)"/><path class="cls-1" d="M104.16,424.66h8v-8h-16l-8,8Z" transform="translate(32.05 64.1)"/><path class="cls-1" d="M48.08,552.86h-8v-8h-8v-8H24v-8H16l-8,8v-8H0v16l8,8v8H48.08Z" transform="translate(32.05 64.1)"/><polygon class="cls-1" points="64.1 584.91 56.09 584.91 64.1 592.93 64.1 584.91"/><path class="cls-1" d="M328.51,889.39h16l-8-8Z" transform="translate(32.05 64.1)"/><path class="cls-1" d="M304.47,865.35h-16l-8,8h32.05v-16h-8Z" transform="translate(32.05 64.1)"/><path class="cls-1" d="M296.46,1209.89l-8,8h24v-8Z" transform="translate(32.05 64.1)"/><rect class="cls-1" x="312.49" y="1257.96" width="8.01" height="8.01"/><path class="cls-1" d="M272.42,833.3l16,16v-8h8l-8-8h0v-8h-8l-8-8Z" transform="translate(32.05 64.1)"/><path class="cls-1" d="M272.42,801.25l-8-8v16l8,8Z" transform="translate(32.05 64.1)"/><path class="cls-1" d="M264.41,1177.84l-8,8v-8h-8v-8h-8v8h-8v8h8v8h8l8,8h16v-8h-8Z" transform="translate(32.05 64.1)"/><path class="cls-1" d="M256.4,865.35h-24v8h40.06v-8Z" transform="translate(32.05 64.1)"/><path class="cls-1" d="M240.38,1161.81H200.31l-8,8v16h8v8h16l24-24Z" transform="translate(32.05 64.1)"/><path class="cls-1" d="M224.35,849.33l8,8v-16l-8-8Z" transform="translate(32.05 64.1)"/><path class="cls-1" d="M216.34,825.29v16l8-8v-8Z" transform="translate(32.05 64.1)"/><path class="cls-1" d="M216.34,873.36h8v-8h-64.1v8Z" transform="translate(32.05 64.1)"/><path class="cls-1" d="M200.31,1129.76h8v-16h-8v-16h-16v16Z" transform="translate(32.05 64.1)"/><path class="cls-1" d="M192.3,881.38h-16v8h8Z" transform="translate(32.05 64.1)"/><path class="cls-1" d="M176.28,1185.85v-8h8l8-8v-8h-16v-8l-8-8h-8v8H48.08v16H96.15l8-8v8h56.09v8h8l-8,8v16h8v-8l8,8h8v-8l8-8-8-8Z" transform="translate(32.05 64.1)"/><rect class="cls-1" x="184.29" y="913.43" width="8.01" height="8.01"/><path class="cls-1" d="M160.25,785.22h-16l8,8Z" transform="translate(32.05 64.1)"/><path class="cls-1" d="M144.22,785.22h-16l8,8Z" transform="translate(32.05 64.1)"/><path class="cls-1" d="M136.21,849.33h8v-8h-24v8Z" transform="translate(32.05 64.1)"/><polygon class="cls-1" points="160.25 881.38 168.26 889.39 176.27 881.38 168.26 873.36 168.26 881.38 160.25 881.38"/><rect class="cls-1" x="130.55" y="795.58" width="11.33" height="11.33" transform="translate(-494.63 395.1) rotate(-45)"/><path class="cls-1" d="M136.21,777.21V745.16l-8,8-8-8v32.05Z" transform="translate(32.05 64.1)"/><path class="cls-1" d="M128.2,1041.63v-16h-8v32.05h8Z" transform="translate(32.05 64.1)"/><polygon class="cls-1" points="152.24 1081.69 160.25 1089.7 160.25 1081.69 152.24 1081.69"/><rect class="cls-1" x="114.52" y="795.58" width="11.33" height="11.33" transform="translate(-499.32 383.77) rotate(-45)"/><path class="cls-1" d="M120.19,1073.67v32h8v-48.07l-8,8Z" transform="translate(32.05 64.1)"/><path class="cls-1" d="M120.19,1121.75v8h24v-8l8,8H192.3v-8h-8v-8h-64.1Z" transform="translate(32.05 64.1)"/><path class="cls-1" d="M112.17,817.28h16l-8-8Z" transform="translate(32.05 64.1)"/><path class="cls-1" d="M104.16,777.21v16h16l8-8h-16Z" transform="translate(32.05 64.1)"/><polygon class="cls-1" points="136.21 865.35 128.2 865.35 136.21 873.36 144.22 865.35 136.21 857.34 136.21 865.35"/><path class="cls-1" d="M72.11,841.31h-8v8h48.07v-8Z" transform="translate(32.05 64.1)"/><polygon class="cls-1" points="104.16 849.33 104.16 857.34 112.17 849.33 104.16 849.33"/><polygon class="cls-1" points="112.17 865.35 104.16 857.34 104.16 865.35 112.17 865.35"/><path class="cls-1" d="M64.1,777.21h8V745.16h-16v24h8l-8,8v8h8Z" transform="translate(32.05 64.1)"/><path class="cls-1" d="M56.09,1065.66v-48.07h-8v56.08l8,8Z" transform="translate(32.05 64.1)"/><path class="cls-1" d="M48.08,1089.7v16h8v-24h-8Z" transform="translate(32.05 64.1)"/><path class="cls-1" d="M296.46,480.75h8l-16-16-8,8,8,8Z" transform="translate(32.05 64.1)"/><path class="cls-1" d="M264.41,472.74h8v-8h-24v8Z" transform="translate(32.05 64.1)"/><path class="cls-1" d="M224.35,472.74h24l-8-8h-16Z" transform="translate(32.05 64.1)"/><path class="cls-1" d="M208.33,464.73l8,8,8-8Z" transform="translate(32.05 64.1)"/><polygon class="cls-1" points="184.29 504.79 184.29 512.8 192.3 512.8 184.29 504.79"/><polygon class="cls-1" points="168.26 504.79 160.25 512.8 168.26 512.8 168.26 504.79"/><g id="Export"><line id="Export-2" data-name="Export" class="cls-2" x2="1282"/><line id="Export-3" data-name="Export" class="cls-2" x1="1282" y1="1282" y2="1282"/></g></g></g></svg>