<svg viewBox="0 0 640 640" xmlns="http://www.w3.org/2000/svg"><path d="m0 0h640" fill="#86573a"/><path d="m640 640h-640" fill="#86573a"/><g fill="#c4bb8e"><path d="m636 540h4v4h-4z"/><path d="m628 588 4-4h-4z"/><path d="m628 592v-4l-4 4z"/><path d="m304 240v4h-4l4-4h-16l8 8h8l4-4v4h4v-8z" transform="translate(320 320)"/><path d="m300 284h8l-4-4z" transform="translate(320 320)"/><path d="m624 596v-4l-4 4z"/><path d="m620 608v-4l-4 4z"/><path d="m616 604v-4l-4 4z"/><path d="m612 588v4h4z"/><path d="m600 592 4 4v-4h4l-4-4z"/><path d="m596 592h4l-4-4z"/><path d="m600 600-4-4v4z"/><path d="m596 604v-4h-4z"/><path d="m592 588v4l4-4-4-4z"/><path d="m588 596 4 4 4-4-4-4v4z"/><path d="m268 164v-4h-4v8h4z" transform="translate(320 320)"/><path d="m260 284h8l-4-4z" transform="translate(320 320)"/><path d="m580 592h4l-4-4z"/><path d="m256 280h8l-4-4z" transform="translate(320 320)"/><path d="m260 156-4-4h-4v4z" transform="translate(320 320)"/><path d="m568 588v4l4-4z"/><path d="m248 280 4-4-4-4z" transform="translate(320 320)"/><path d="m560 476h4l-4-4z"/><path d="m560 592v4h-4l4 4 4-4z"/><path d="m560 620h4l-4-4z"/><path d="m560 604h4l-4-4-4 4z"/><path d="m240 160-4-4-4 4h-4v4h8z" transform="translate(320 320)"/><path d="m556 592h4l-4-4z"/><path d="m220 192v4h4v-8h-4z" transform="translate(320 320)"/><path d="m216 152h-4v8h4v-4h4v4h-4l-4 4h12v-12z" transform="translate(320 320)"/><path d="m212 188v-8l-4 4z" transform="translate(320 320)"/><path d="m204 184v-4h-8l8 8z" transform="translate(320 320)"/><path d="m516 504v-4l-4 4z"/><path d="m188 188 4 4 4-4z" transform="translate(320 320)"/><path d="m184 272v4h4v-8h-4z" transform="translate(320 320)"/><path d="m180 176h-4v8l4-4z" transform="translate(320 320)"/><path d="m492 468v-4h-4z"/><path d="m492 412v-4h-4z"/><path d="m492 400v-4l-4 4z"/><path d="m168 72v4h4v-8h-4z" transform="translate(320 320)"/><path d="m164 268h8l-4-4z" transform="translate(320 320)"/><path d="m164 188v8h4v-4l4 4v-8z" transform="translate(320 320)"/><path d="m168 132v-4h-8v4z" transform="translate(320 320)"/><path d="m164 28h-20v4h24v32h4v-36z" transform="translate(320 320)"/><path d="m484 424h-4v4h4l4-4z"/><path d="m484 464h4v4h-4z"/><path d="m164 208v4h8v-4z" transform="translate(320 320)"/><path d="m484 536h-4l4 4 4-4z"/><path d="m168 232h-8v4h4z" transform="translate(320 320)"/><path d="m160 304h8v-4h-4z" transform="translate(320 320)"/><path d="m160 280 4 4 4-4z" transform="translate(320 320)"/><path d="m484 520h-4l4 4z"/><path d="m480 480h4v4h-4z"/><path d="m164 136h-8v4h8z" transform="translate(320 320)"/><path d="m160 64h-4v4h8l4-4z" transform="translate(320 320)"/><path d="m164 44v-8h-4v12h4z" transform="translate(320 320)"/><path d="m164 12h-8l4 4z" transform="translate(320 320)"/><path d="m164 228-4-4h-4v4z" transform="translate(320 320)"/><path d="m160 240h-8v4h12z" transform="translate(320 320)"/><path d="m480 576h4v4h-4z"/><path d="m160 204h-8v4h8z" transform="translate(320 320)"/><path d="m476 500h4v4h-4z"/><path d="m476 432h4v4h-4z"/><path d="m160 96h-8l4 4h4z" transform="translate(320 320)"/><path d="m156 52v8h8v-8z" transform="translate(320 320)"/><path d="m156 72v8h8v-4l-4-4z" transform="translate(320 320)"/><path d="m476 440h4v4h-4z"/><path d="m476 488v4l4-4z"/><g transform="translate(320 320)"><path d="m160 264h-8v4h4z"/><path d="m160 296v-8h-8l4 4-4 4z"/><path d="m152 256 4 4 4-4z"/><path d="m156 216h-4l-4 4h8z"/><path d="m152 200h8l-4-4z"/><path d="m152 188v4h8l-4-4z"/><path d="m152 304 4-4-4-4z"/><path d="m152 128h-4v4h8z"/><path d="m156 236v-4h-8v4z"/></g><path d="m472 568v4h4z"/><path d="m472 440-4 4h4z"/><path d="m148 84 8 8v-8z" transform="translate(320 320)"/><path d="m472 392-4 4h4z"/><path d="m148 36v8h8v-8z" transform="translate(320 320)"/><path d="m152 16h-8l4 4z" transform="translate(320 320)"/><path d="m144 312 8 8v-8z" transform="translate(320 320)"/><path d="m468 560h-4l4 4z"/><path d="m464 544h4v4h-4z"/><path d="m468 508v-4h-4z"/><path d="m148 140h4v-4h-8z" transform="translate(320 320)"/><path d="m144 48v8h8v-8z" transform="translate(320 320)"/><path d="m144 60v8h8v-8z" transform="translate(320 320)"/><path d="m464 492h4v4h-4z"/><path d="m144 116h8v-4h-8z" transform="translate(320 320)"/><path d="m464 468h4l-4-4z"/><path d="m464 528h4v4h-4z"/><path d="m464 568h4v4h-4z"/><path d="m144 40v-4h-8v4l4 4h4z" transform="translate(320 320)"/><path d="m136 32h8l-4-4z" transform="translate(320 320)"/><path d="m456 324h4v4h-4z"/><path d="m136 196v12l4 4v-20h-4z" transform="translate(320 320)"/><path d="m132 20 4-4h-8z" transform="translate(320 320)"/><path d="m448 328h4v4h-4z"/><path d="m128 28h-8v4h16l-4-4z" transform="translate(320 320)"/><path d="m128 40h-4v8h12z" transform="translate(320 320)"/><path d="m124 164-4 4-8-8h-8v12h4l4-4 4 4h16v-12h-4z" transform="translate(320 320)"/><path d="m436 332h4v4h-4z"/><path d="m116 40v8h4v-12h-4z" transform="translate(320 320)"/><path d="m116 56h20v-4h-24v4z" transform="translate(320 320)"/><path d="m112 28v-4h-4v-24h-4v32l4-4v4h-4l4 4h4v-4h8l-4-4z" transform="translate(320 320)"/><path d="m432 372v-4l-4 4z"/><path d="m104 44v4h8v-8l-4 4v-8l-4 4z" transform="translate(320 320)"/><path d="m100 20v-12h-4v16h4z" transform="translate(320 320)"/><path d="m416 320h4v4h-4z"/><path d="m100 36v-8h-8v12h4z" transform="translate(320 320)"/><path d="m96 44h-20v-4h-4v8h32l-4-4z" transform="translate(320 320)"/><path d="m92 20-4-4h-8v12h4z" transform="translate(320 320)"/><path d="m88 40v-8h-8v8z" transform="translate(320 320)"/><path d="m80 8 4 4h8v-8h-12z" transform="translate(320 320)"/><path d="m396 488h4l-4-4z"/><path d="m72 208 4 4 4-4z" transform="translate(320 320)"/><path d="m76 32v-28h-4v36l4-4z" transform="translate(320 320)"/><path d="m392 320 4 4v-4z"/><path d="m72 152v-8l-4 4z" transform="translate(320 320)"/><path d="m68 164-4-4v8h8z" transform="translate(320 320)"/><path d="m60 204 8 8v-8z" transform="translate(320 320)"/><path d="m376 468v-4l-4 4z"/><path d="m48 300h-8v4l4 4h8v-4h-4l4-4z" transform="translate(320 320)"/><path d="m44 292-8-8-4 4v4z" transform="translate(320 320)"/><path d="m352 496 4-4h-4z"/><path d="m24 284h-4l8 8 4-4-4-4z" transform="translate(320 320)"/><path d="m24 300h-4l-4 4h-4v4h8l4-4h4v4l4-4v-4z" transform="translate(320 320)"/><path d="m332 512v-4l-4 4 4 4z"/><path d="m-8 304h8l-4-4z" transform="translate(320 320)"/><path d="m-16 304 4 4h4v-4z" transform="translate(320 320)"/><path d="m-20 292v8l4-4z" transform="translate(320 320)"/><path d="m296 624v-4h-4z"/><path d="m288 508v4l4-4z"/><path d="m-36 304h-4l4 4h8v-8l-4 4z" transform="translate(320 320)"/><path d="m280 536-4 4h4z"/><path d="m-40 200 4-4h-8l-4 4z" transform="translate(320 320)"/><path d="m264 436v-4l-4 4z"/><path d="m260 500 4-4h-4z"/><path d="m256 484h-4l4 4 4-4z"/><path d="m-66.83 129.17h5.66v5.66h-5.66z" transform="matrix(.70710678 -.70710678 .70710678 .70710678 207.92 313.41)"/><path d="m-72 184 4 4 4-4z" transform="translate(320 320)"/><path d="m252 488v-4l-4 4z"/><path d="m-72 128h8l-4-4z" transform="translate(320 320)"/><path d="m216 324h-4l4 4z"/><path d="m204 328h4v4h-4z"/><path d="m-124 4 4 4v-8h-4z" transform="translate(320 320)"/><path d="m196 448v-4l-4 4z"/><g transform="translate(320 320)"><path d="m-124 124v-8l-4 4z"/><path d="m-124 116v-8l-4 4z"/><path d="m-124 108v-8l-4 4z"/><path d="m-124 100v-8l-4 4z"/><path d="m-128 108h-4v8l4-4z"/><path d="m-132 92v8l4-4z"/><path d="m-132 100v8l4-4z"/><path d="m-132 116v8l4-4z"/><path d="m-136 128h8l-4-4z"/><path d="m-136 120-4 4 4 4z"/><path d="m-136 120v-8l-4 4z"/><path d="m-136 112v-8l-4 4z"/></g><path d="m184 420v-4l-4 4 4 4z"/><path d="m184 412h-4l4 4z"/><path d="m-144 120v8l4-4v-4z" transform="translate(320 320)"/><path d="m180 420-4 4h4z"/><path d="m176 412v4l4-4z"/><path d="m176 420h4l-4-4z"/><path d="m-144 104v8l4-4z" transform="translate(320 320)"/><path d="m-144 112v8l4-4z" transform="translate(320 320)"/><path d="m172 336h4v4h-4z"/><path d="m172 332v-4h-4z"/><path d="m-148 0h-4l-4 4h8z" transform="translate(320 320)"/><path d="m-152 136v4h4v-12h-4z" transform="translate(320 320)"/><path d="m168 348h4l-4-4z"/><path d="m168 416h4v4h-4z"/><path d="m-152 108v12h4v-20l-4 4z" transform="translate(320 320)"/><path d="m-156 316h8v-4h-4z" transform="translate(320 320)"/><path d="m164 444 4-4h-4z"/><path d="m164 336h4l-4-4z"/><path d="m-158.83 133.17h5.66v5.66h-5.66z" transform="matrix(.70710678 -.70710678 .70710678 .70710678 178.14 249.52)"/><path d="m-158.83 125.17h5.66v5.66h-5.66z" transform="matrix(.70710678 -.70710678 .70710678 .70710678 183.8 247.18)"/><path d="m-158.83 109.17h5.66v5.66h-5.66z" transform="matrix(.70710678 -.70710678 .70710678 .70710678 195.11 242.5)"/><path d="m-156 108 4-4v-4h-12z" transform="translate(320 320)"/><path d="m-160 140h-4l4 4h8v-4z" transform="translate(320 320)"/><path d="m-164 116 4 4 4-4z" transform="translate(320 320)"/><path d="m156 320h4v4h-4z"/><path d="m156 344h4v4h-4z"/><path d="m-164 36h8l-4-4h-4z" transform="translate(320 320)"/><path d="m-164 120v-8h-4v8l4 4h8l-4-4z" transform="translate(320 320)"/><path d="m156 368h-4l4 4z"/><path d="m-164 108 4-4h-4v-4h-8v8l4 4v-4z" transform="translate(320 320)"/><path d="m152 352-4 4h4z"/><path d="m-174.83 125.17h5.66v5.66h-5.66z" transform="matrix(.70710678 -.70710678 .70710678 .70710678 179.11 235.87)"/><path d="m-174.83 133.17h5.66v5.66h-5.66z" transform="matrix(.70710678 -.70710678 .70710678 .70710678 173.46 238.21)"/><path d="m-176 120 4 4v-8l-4-4z" transform="translate(320 320)"/><path d="m144 616h4v4h-4z"/><path d="m-180 140 4-4-4-4-4 4v4h-4v4h20v-4z" transform="translate(320 320)"/><path d="m-176 100h-12v4h8v4l4-4z" transform="translate(320 320)"/><path d="m140 436v4h-4l4 4 4-4z"/><path d="m-182.83 125.17h5.66v5.66h-5.66z" transform="matrix(.70710678 -.70710678 .70710678 .70710678 176.77 230.21)"/><path d="m-180 284v8l4-4z" transform="translate(320 320)"/><path d="m140 616v4l4-4-4-4z"/><path d="m140 432h4l-4-4-4 4 4 4z"/><path d="m136 412h4l-4-4z"/><path d="m-184 288v-8l-4 4z" transform="translate(320 320)"/><path d="m-188 108v8l4-4z" transform="translate(320 320)"/><path d="m132 440h4l-4-4z"/><path d="m-192 128 4 4 4-4z" transform="translate(320 320)"/><path d="m128 392v4h4z"/><path d="m-192 272v8l4-4z" transform="translate(320 320)"/><path d="m128 412h4l-4-4-4 4z"/><path d="m128 400-4 4h4z"/><path d="m-196 116 4 4v-8l-4-4z" transform="translate(320 320)"/><path d="m124 600h4v4h-4z"/><path d="m-196 292h4v-4l-4-4z" transform="translate(320 320)"/><path d="m-192 144v-4h-24v-4l-8 8z" transform="translate(320 320)"/><path d="m124 460 4-4h-4v-4l-4 4z"/><path d="m-200 120 4 4v-8h-4z" transform="translate(320 320)"/><path d="m-200 128 4 4v-8h-4z" transform="translate(320 320)"/><path d="m120 428h4l-4-4z"/><path d="m120 428h-4l-4 4 4 4 4-4z"/><path d="m120 408v-4h-4z"/><path d="m-206.83 117.17h5.66v5.66h-5.66z" transform="matrix(.70710678 -.70710678 .70710678 .70710678 175.4 210.9)"/><path d="m116 584h4v4h-4z"/><path d="m116 452-4 4h4v4l4-4z"/><path d="m116 604h4v4h-4z"/><path d="m-204 256h-4l-4 4h8z" transform="translate(320 320)"/><path d="m116 452v-4h4l-4-4-4 4z"/><path d="m-204 108 4-4h4v4h4v-8h-20l-4 4h4v4l4-4z" transform="translate(320 320)"/><path d="m-214.83 117.17h5.66v5.66h-5.66z" transform="matrix(.70710678 -.70710678 .70710678 .70710678 173.05 205.24)"/><path d="m108 460 4-4-4-4-4 4h4z"/><path d="m108 600h4v4h-4z"/><path d="m-212 292h4v-4l-4-4z" transform="translate(320 320)"/><path d="m108 428h-4v4h4v4l4-4z"/><path d="m-214.83 125.17h5.66v5.66h-5.66z" transform="matrix(.70710678 -.70710678 .70710678 .70710678 167.4 207.58)"/><path d="m-212 264h-32v4h32z" transform="translate(320 320)"/><path d="m-212 52h-8l-4 4h8z" transform="translate(320 320)"/><path d="m-220 284 4 4v-8h-4z" transform="translate(320 320)"/><path d="m-216 96v-4h-4l-4 4z" transform="translate(320 320)"/><path d="m-220 116v8l4-4z" transform="translate(320 320)"/><path d="m-220 124v8l4-4z" transform="translate(320 320)"/><path d="m100 456h4l-4-4z"/><path d="m-220 100h-8l4 4z" transform="translate(320 320)"/><path d="m92 452h4v4h-4z"/><path d="m96 444v-4l-4 4 4 4z"/><path d="m-228 284h-12v-4l-4 4h-12v-4h-4v4l-4 4h40v-8h-4z" transform="translate(320 320)"/><path d="m-224 16-4-4-4 4z" transform="translate(320 320)"/><path d="m-232 132v-12l-4 4v4h-12l4 4z" transform="translate(320 320)"/><path d="m84 600v4l4-4z"/><path d="m-242.83 121.17h5.66v5.66h-5.66z" transform="matrix(.70710678 -.70710678 .70710678 .70710678 162.02 186.61)"/><path d="m80 460h-4l4 4 4-4z"/><path d="m-240 12h4l4-4h-8z" transform="translate(320 320)"/><path d="m-240 216v-12h-4v16h4z" transform="translate(320 320)"/><path d="m-242.83 145.17h5.66v5.66h-5.66z" transform="matrix(.70710678 -.70710678 .70710678 .70710678 145.05 193.64)"/><path d="m-244 248h-12l4 4h8z" transform="translate(320 320)"/><path d="m72 560h4v4h-4z"/><path d="m76 552h-4l4 4z"/><path d="m72 460h-4l4 4 4-4z"/><path d="m72 596h4v4h-4z"/><path d="m72 440-4 4h4v4l4-4z"/><path d="m-248 216-4 4h8z" transform="translate(320 320)"/><path d="m68 532h4v4h-4z"/><path d="m-250.83 145.17h5.66v5.66h-5.66z" transform="matrix(.70710678 -.70710678 .70710678 .70710678 142.71 187.99)"/><path d="m68 544v4l4-4z"/><path d="m-252 128h-16v-4h-4v8h24v-4l-4-4z" transform="translate(320 320)"/><path d="m-256 216h-4v4h8v-4z" transform="translate(320 320)"/><path d="m68 496h4l-4-4-4 4z"/><path d="m-254.83 165.17h5.66v5.66h-5.66z" transform="matrix(.70710678 -.70710678 .70710678 .70710678 127.4 191.02)"/><path d="m-258.83 121.17h5.66v5.66h-5.66z" transform="matrix(.70710678 -.70710678 .70710678 .70710678 157.34 175.3)"/><path d="m-256 280 4 4v-12h-8v4h4z" transform="translate(320 320)"/><path d="m-258.83 113.17h5.66v5.66h-5.66z" transform="matrix(.70710678 -.70710678 .70710678 .70710678 162.99 172.96)"/><path d="m-252 164h4v4l4-4v-4h-12l-4-4v8z" transform="translate(320 320)"/><path d="m64 576v4h4z"/><path d="m68 588-4-4v4z"/><path d="m-262.83 165.17h5.66v5.66h-5.66z" transform="matrix(.70710678 -.70710678 .70710678 .70710678 125.05 185.36)"/><path d="m-260 236h8v-4h-8z" transform="translate(320 320)"/><path d="m60 588 4-4h-4z"/><g transform="translate(320 320)"><path d="m-264 224v4h4l4-4z"/><path d="m-264 176h8l-4-4z"/><path d="m-264 100h-4l4 4h8v-4z"/><path d="m-260 124h-8l4 4z"/><path d="m-260 244 4-4h-8v4z"/><path d="m-260 252v-4h-4l-4 4z"/><path d="m-268 284-4-4v4h-4v-20h-4v24h16v-4z"/></g><path d="m-266.83 113.17h5.66v5.66h-5.66z" transform="matrix(.70710678 -.70710678 .70710678 .70710678 160.65 167.3)"/><path d="m-264 152h-8l4 4z" transform="translate(320 320)"/><path d="m52 552h4v4h-4z"/><path d="m-264 280h4v-4l-4-4v4h-4l-4 4z" transform="translate(320 320)"/><path d="m-272 176h8l-4-4z" transform="translate(320 320)"/><path d="m-270.83 165.17h5.66v5.66h-5.66z" transform="matrix(.70710678 -.70710678 .70710678 .70710678 122.71 179.7)"/><path d="m-270.83 157.17h5.66v5.66h-5.66z" transform="matrix(.70710678 -.70710678 .70710678 .70710678 128.37 177.36)"/><path d="m-272 112v8h4v-8z" transform="translate(320 320)"/><path d="m-272 212v4h8v-4z" transform="translate(320 320)"/><path d="m48 540h4v4h-4z"/><path d="m-268 84-4-4-4 4z" transform="translate(320 320)"/><path d="m-272 244h4l4-4h-8z" transform="translate(320 320)"/><path d="m48 596h4l-4-4z"/><path d="m-278.83 149.17h5.66v5.66h-5.66z" transform="matrix(.70710678 -.70710678 .70710678 .70710678 131.68 169.36)"/><path d="m44 480v4l4-4-4-4z"/><path d="m-280 204v16h4v-20h-4z" transform="translate(320 320)"/><path d="m40 476v-4h-4v4l4 4z"/><path d="m-280 120-4-4-4 4z" transform="translate(320 320)"/><path d="m320-264v-8l-4 4z" transform="translate(320 320)"/><path d="m316-292-12 12-4-4-8 8h8l-12 12h-48l4 4h48l28-28v-8z" transform="translate(320 320)"/><path d="m316-264h-4v8l-12 12v-8l-4 4v4h-4v4h-4l-4-4v4h-4l-4-4v4h-4l-4-4v4h-4l-4-4v4h-4l-4-4v4h-4l-4-4v4h-4l-4 4h64l20-20v-8l-4 4z" transform="translate(320 320)"/><path d="m628 64h-4l4 4z"/><path d="m624 68v-4l-4 4 4 4z"/><path d="m292-284 4-4-4-4-8 8 4 4z" transform="translate(320 320)"/><path d="m288-240 4-4-4-4z" transform="translate(320 320)"/><path d="m604 72v4l4-4z"/><path d="m280-240 4-4-4-4z" transform="translate(320 320)"/><path d="m596 72v4l4-4z"/><path d="m272-240 4-4-4-4z" transform="translate(320 320)"/><path d="m588 72v4l4-4z"/><path d="m264-240 4-4-4-4z" transform="translate(320 320)"/><path d="m580 72v4l4-4z"/><path d="m256-240 4-4-4-4z" transform="translate(320 320)"/><path d="m260-292h16v-8h-8l-4 4-4-4-8 8z" transform="translate(320 320)"/><path d="m572 72v4l4-4z"/><path d="m248-240 4-4-4-4z" transform="translate(320 320)"/><path d="m564 72v4l4-4z"/><path d="m240-248v8l4-4z" transform="translate(320 320)"/><path d="m556 72v4l4-4-4-4z"/><path d="m552 68v4l4-4-4-4z"/><path d="m232-268h4l-4-4h-8l4 4z" transform="translate(320 320)"/><path d="m228-252 4-4-4-4z" transform="translate(320 320)"/><path d="m228-248h-4l-4 4h8l4-4-4-4z" transform="translate(320 320)"/><path d="m544 60v4l4-4z"/><path d="m224-256v8l4-4z" transform="translate(320 320)"/><path d="m540 64v4l4-4-4-4z"/><path d="m216-256 4-4-4-4z" transform="translate(320 320)"/><path d="m216-252h-4l-4-4v4h-4l-4-4v4h-4l-4-4v4h-4l4 4h24l4-4-4-4z" transform="translate(320 320)"/><path d="m212-260 4-4-4-4z" transform="translate(320 320)"/><path d="m532 64v4l4-4-4-4z"/><path d="m208-64-4 4h12v-4h-4v-4z" transform="translate(320 320)"/><path d="m528 52v4l4-4z"/><path d="m208-256 4-4-4-4z" transform="translate(320 320)"/><path d="m204-260 4-4-4-4z" transform="translate(320 320)"/><path d="m524 64v4l4-4-4-4z"/><path d="m520 52v4l4-4z"/><g transform="translate(320 320)"><path d="m200-256 4-4-4-4z"/><path d="m204-20-4-4-4 4z"/><path d="m196-252 4-4-4-4z"/><path d="m196-268v8l4-4z"/><path d="m196-276h24l-4-4h-24l-4 4z"/><path d="m192-264v8l4-4z"/><path d="m188-260v8l4-4z"/></g><path d="m504 60v4l4-4z"/><path d="m504 68v4l4-4-4-4z"/><path d="m180-260v8l4-4z" transform="translate(320 320)"/><path d="m180-248h-4l4 4h8l-8-8z" transform="translate(320 320)"/><path d="m180-268 4-4h-8l-4 4z" transform="translate(320 320)"/><path d="m176-256v8l4-4z" transform="translate(320 320)"/><path d="m496 264-4 4h4z"/><path d="m492 72v4l4-4-4-4z"/><path d="m488 76v4l4-4-4-4z"/><path d="m488 272-4 4h4z"/><path d="m484 72v4l4-4z"/><path d="m164-240h-4l-4-4v4h-4l-4-4v4h-4l-4-4v4h-4l-4-4v4h-4l-4-4v4h-4l-4-4v8h56l-8-8z" transform="translate(320 320)"/><path d="m160-240 4-4-4-4z" transform="translate(320 320)"/><path d="m476 72v4l4-4z"/><path d="m152-240 4-4-4-4z" transform="translate(320 320)"/><path d="m468 72v4l4-4z"/><path d="m144-240 4-4-4-4z" transform="translate(320 320)"/><path d="m460 72v4l4-4z"/><path d="m460 268-4 4h4z"/><path d="m136-240 4-4-4-4z" transform="translate(320 320)"/><path d="m452 72v4l4-4z"/><path d="m456 320-4-4v4z"/><path d="m452 288h-4l4 4z"/><path d="m128-240 4-4-4-4z" transform="translate(320 320)"/><path d="m448 320 4-4h-4z"/><path d="m444 72v4l4-4z"/><path d="m120-16 4 4h4v-4z" transform="translate(320 320)"/><path d="m120-240 4-4-4-4z" transform="translate(320 320)"/><path d="m440 316h4v4h-4z"/><path d="m436 72v4l4-4z"/><path d="m436 284h4v4h-4z"/><path d="m108-244 4 4 4-4z" transform="translate(320 320)"/><path d="m108-260h56l4-4h-60z" transform="translate(320 320)"/><path d="m108-8v-8h-4v16l4-4z" transform="translate(320 320)"/><path d="m108-24h4l-4-4h-8l4 4z" transform="translate(320 320)"/><path d="m108-60v-16l-4 4v16h4z" transform="translate(320 320)"/><path d="m108-268h-8l4 4z" transform="translate(320 320)"/><path d="m104-32h4v-8h-4z" transform="translate(320 320)"/><path d="m428 268-4-4v4z"/><path d="m424 276v4l4-4-4-4z"/><path d="m100-8v-8h-4l-4 4v8h8z" transform="translate(320 320)"/><path d="m100-44v-8l-4-4h-4v16h8z" transform="translate(320 320)"/><path d="m100-60v-12h-4l-4 4v8z" transform="translate(320 320)"/><path d="m96-232-4 4 4 4z" transform="translate(320 320)"/><path d="m408 284h4v4h-4z"/><g transform="translate(320 320)"><path d="m88-24h-8v8h8l4-4z"/><path d="m88-52v-8h-4l-4 4v4z"/><path d="m88 0v-12h-8v12z"/><path d="m84-64h4v-8l-4-4h-8v8l4 4z"/><path d="m84-220-4 4v4h4z"/><path d="m80-44v4h8v-8h-8z"/><path d="m76-8v-12l-4-4v24l4-4z"/><path d="m76-80h4l-4-4h-48l4 4z"/><path d="m72-76h-24v4h24z"/><path d="m68-204-4 4v4h4z"/><path d="m64-68h-4v8h12v-4l-4-4z"/><path d="m64-8v-16l-8 8z"/><path d="m60-196-4 4 4 4z"/><path d="m52-180v-8l-4 4v4z"/><path d="m52-60h4v-8h-4l-8 8z"/></g><path d="m364 136v4l4-4z"/><path d="m44-76h-12v12h8l4-4z" transform="translate(320 320)"/><path d="m40-176 4-4-4-4z" transform="translate(320 320)"/><path d="m44-196 60-60-4-4-40 40v4h-4l-16 16h-4v4z" transform="translate(320 320)"/><path d="m40-28v4h4v-8h-4z" transform="translate(320 320)"/><path d="m356 136v4l4-4z"/><path d="m32-176v4h20l60-60-4-4-4 4v-8l-4 4v8l-8 8v-4h-4v8l-12 12v-4h-4v8l-12 12h-4v4l-8 8-4-4v4h-4l-4-4v4z" transform="translate(320 320)"/><path d="m32-176 4-4-4-4z" transform="translate(320 320)"/><path d="m32-164h-8v4h8z" transform="translate(320 320)"/><path d="m348 136v4l4-4z"/><path d="m28-172 4-4-4-4z" transform="translate(320 320)"/><path d="m352 152-4-4v4z"/><path d="m32-120v-4h-8v4z" transform="translate(320 320)"/><path d="m348 204v4h4z"/><path d="m348 224h4l-4-4z"/><path d="m344 172h4v4h-4z"/><path d="m24-176 4-4-4-4z" transform="translate(320 320)"/><path d="m344 148v4l4-4-4-4z"/><path d="m24-80h-4v4h8z" transform="translate(320 320)"/><path d="m24-60h4v-8l-4-4h-8v12z" transform="translate(320 320)"/><path d="m20-140 4 4h8v-4z" transform="translate(320 320)"/><path d="m20-156 4 4h4v-4z" transform="translate(320 320)"/><path d="m340 136v4l4-4z"/><path d="m20-172 4-4-4-4z" transform="translate(320 320)"/><path d="m340 152h4l-4-4z"/><path d="m24-112v-4h-8v4z" transform="translate(320 320)"/><path d="m16-120h8l-4-4z" transform="translate(320 320)"/><path d="m16-176 4-4-4-4z" transform="translate(320 320)"/><path d="m336 184 4-4h-4z"/><path d="m336 148v4l4-4-4-4z"/><path d="m12-156v4h4l4-4z" transform="translate(320 320)"/><path d="m12-164h-4v4h8l4-4z" transform="translate(320 320)"/><path d="m332 136v4l4-4z"/><path d="m12-172 4-4-4-4z" transform="translate(320 320)"/><path d="m332 152h4l-4-4z"/><path d="m16-128v-4h-12v4z" transform="translate(320 320)"/><path d="m328 196h4v4h-4z"/><path d="m8-136h8l-4-4z" transform="translate(320 320)"/><path d="m8-176 4-4-4-4z" transform="translate(320 320)"/><path d="m8-144h8l-4-4h-4z" transform="translate(320 320)"/><path d="m328 148v4l4-4-4-4z"/><path d="m12-28 4-4h-16l4 4z" transform="translate(320 320)"/><path d="m4-196h32l-4-4h-28z" transform="translate(320 320)"/><path d="m324 136v4l4-4z"/><path d="m4-172 4-4-4-4z" transform="translate(320 320)"/><path d="m324 152h4l-4-4z"/><path d="m8-112h4v-4h-8l-4 4z" transform="translate(320 320)"/><path d="m324 236v-4h-4z"/><path d="m0-152h8l-4-4z" transform="translate(320 320)"/><path d="m4-204h-8l4 4z" transform="translate(320 320)"/><path d="m4-180-4-4v-12h-4v24z" transform="translate(320 320)"/><path d="m320 180h4v4h-4z"/><path d="m0-72 4 4h8v-8l-4-4h-8z" transform="translate(320 320)"/><path d="m320 148v4l4-4-4-4z"/><path d="m4-52h68v4l4 4v-12h-36v-4h-8v4h-24l4-4-4-4h-8v12z" transform="translate(320 320)"/><path d="m0-80v-4h-4l-4 4z" transform="translate(320 320)"/><path d="m-8-32-4 4h12v-4z" transform="translate(320 320)"/><path d="m-8-64 4-4v-8h-8l-4 4z" transform="translate(320 320)"/><path d="m-12-52h8l4-4h-20v4z" transform="translate(320 320)"/><path d="m-24 0h16l-4-4v-4h4l-8-8-4 4h4v4l-4 4-4-4z" transform="translate(320 320)"/><path d="m292 308 4 4v-4z"/><path d="m-32-40-4 4h8l8-8v-4h4l-4-4z" transform="translate(320 320)"/><path d="m288 308v4l4-4-4-4z"/><path d="m-32-76h4l-4-4h-8v4z" transform="translate(320 320)"/><path d="m-40-8v4h12l-8-8z" transform="translate(320 320)"/><path d="m-36-48h4v-12h-4l-8 8 4 4z" transform="translate(320 320)"/><path d="m-40-16-4-4v8l4 4z" transform="translate(320 320)"/><path d="m-40-40-4-4h-4v4z" transform="translate(320 320)"/><path d="m260 284 4 4h4v-4l-4-4z"/><path d="m-56-56-4-4-4 4 8 8h4v-4h-4z" transform="translate(320 320)"/><path d="m-68-20 8-8h-8l-8 8z" transform="translate(320 320)"/><path d="m-72-56v8l4 4h4v-4l-4-4v-8h-8l-4 4z" transform="translate(320 320)"/><path d="m-76-48v-4h-4v-4l-4 4v8l4 4 4-4z" transform="translate(320 320)"/><path d="m-84-64h-4l-20 20 4 4 16-16v-4h4z" transform="translate(320 320)"/><path d="m-100-4h-8l-4 4h-8l4 4h4v4l4-4v-4h12l4-4-4-4z" transform="translate(320 320)"/><path d="m200 304-4-4v4z"/><path d="m196 300-4-4v4z"/><path d="m192 296-4-4v4z"/><path d="m184 288v4h4z"/><path d="m176 280v4h4z"/><path d="m160 304-4 4h4z"/><path d="m-164-48h-4l4 4h8l-4-4z" transform="translate(320 320)"/><path d="m156 288v-4l-4 4z"/><path d="m-168 0v-4h-8v4z" transform="translate(320 320)"/><path d="m-172-36h12v4h8l-4-4h8l-8-8-4 4h-20v4z" transform="translate(320 320)"/><path d="m-176-8v-8h-8l4 4h-4v-4l-4-4-4 4 8 8z" transform="translate(320 320)"/><path d="m136 288-4-4v4z"/><path d="m-192-8-4 4 4 4 8-8z" transform="translate(320 320)"/><path d="m-192-12v-4h-12v4h8l4 4 4-4z" transform="translate(320 320)"/><path d="m-196-52h-16l8 8z" transform="translate(320 320)"/><path d="m-200-44h-4l8 8-4 4h8v-4h12l-4-4h-8l-4-4z" transform="translate(320 320)"/><path d="m-204-8h-4l4 4h8l-4-4z" transform="translate(320 320)"/><path d="m108 300-4 4h4z"/><path d="m104 292v4l4-4z"/><path d="m-220-156h12v-4l4 4 4-4 4 4v-12h-4l-4 4h-8v4h-4z" transform="translate(320 320)"/><path d="m96 288h4v4h-4z"/><path d="m-224-164v4l8-8h-8z" transform="translate(320 320)"/><path d="m-228-276 4-4v-8h-8v8l-4 4z" transform="translate(320 320)"/><path d="m84 20h4v4h-4z"/><path d="m-248-288 8-8h-8l-4-4-4 4v8z" transform="translate(320 320)"/><path d="m-248-280-4-4-4 4z" transform="translate(320 320)"/><path d="m-264-312-4-4-4 4z" transform="translate(320 320)"/><path d="m-272-296h8v-8h4v-4h-8l-8 8z" transform="translate(320 320)"/><path d="m40 308v-4l-4 4z"/><path d="m-284-308 4 4 4-4z" transform="translate(320 320)"/><path d="m-280-312 4-4-4-4h-8z" transform="translate(320 320)"/><path d="m-284-20-4 4h8v-8h-4v-4h-4v4z" transform="translate(320 320)"/><path d="m-288-20v-4l-4-4h4v-4h-4v-4l-8 8 4 4h4v4z" transform="translate(320 320)"/><path d="m-292-284 12 12h8l-12-12h-4v-4l-4-4-4 4z" transform="translate(320 320)"/><path d="m-296-312-4-4-4 4z" transform="translate(320 320)"/><path d="m16 292v4h4v-4l-4-4z"/><path d="m-320-320 4 4 4-4z" transform="translate(320 320)"/><path d="m592 388v4l4-4z"/><path d="m264 72h8l-4-4z" transform="translate(320 320)"/><path d="m268 204 4 4h4v-8h-20l4 4z" transform="translate(320 320)"/><path d="m564 412v-4h-4z"/><path d="m240 96-4-4-4 4z" transform="translate(320 320)"/><path d="m556 388-4 4h4z"/><path d="m228 84h8v-8z" transform="translate(320 320)"/><path d="m228 92v4h4v-8h-4z" transform="translate(320 320)"/><path d="m536 600v-4h-4z"/><path d="m532 600h4v4h-4z"/><path d="m212 272h-8v4l4 4h4z" transform="translate(320 320)"/><path d="m180 192v4h8l-4-4z" transform="translate(320 320)"/><path d="m288-44v-4h-8v8l4-4z" transform="translate(320 320)"/><path d="m260-40h-4v4h-4v4h12v-4h4l-4-4z" transform="translate(320 320)"/><path d="m248-72 4 4h12v-4h-8v-8h-8l4 4h-8l-4 4v-4h-4v8h12z" transform="translate(320 320)"/><path d="m556 240h-4l4 4 4-4z"/></g></svg>