<svg viewBox="0 0 640 640" xmlns="http://www.w3.org/2000/svg"><path d="m0 0h640" fill="#86573a"/><path d="m640 640h-640" fill="#86573a"/><g fill="#717272"><path d="m313.17 261.17h5.66v5.66h-5.66z" transform="matrix(.70710678 -.70710678 .70710678 .70710678 225.88 620.77)"/><path d="m312 168h-12v8h20v-8z" transform="translate(320 320)"/><path d="m309.17 273.17h5.66v5.66h-5.66z" transform="matrix(.70710678 -.70710678 .70710678 .70710678 216.22 621.46)"/><path d="m628 576h4v4h-4z"/><path d="m297.17 261.17h5.66v5.66h-5.66z" transform="matrix(.70710678 -.70710678 .70710678 .70710678 221.19 609.46)"/><path d="m620 600v4l4-4-4-4-4 4z"/><path d="m297.17 269.17h5.66v5.66h-5.66z" transform="matrix(.70710678 -.70710678 .70710678 .70710678 215.53 611.8)"/><path d="m292 256v4h8l-4-4z" transform="translate(320 320)"/><path d="m288 288h-8v4h12l4-4z" transform="translate(320 320)"/><path d="m285.17 281.17h5.66v5.66h-5.66z" transform="matrix(.70710678 -.70710678 .70710678 .70710678 203.53 606.83)"/><path d="m281.17 261.17h5.66v5.66h-5.66z" transform="matrix(.70710678 -.70710678 .70710678 .70710678 216.51 598.14)"/><path d="m604 408h4l-4-4-4 4z"/><path d="m600 596v-4l-4 4 4 4z"/><path d="m280 260h8v-4h-16l4 4z" transform="translate(320 320)"/><path d="m272 72h-8l-4 4h16l4-4-4-4z" transform="translate(320 320)"/><path d="m268 284h-8l-4-4v8h16l4-4z" transform="translate(320 320)"/><path d="m265.17 277.17h5.66v5.66h-5.66z" transform="matrix(.70710678 -.70710678 .70710678 .70710678 200.51 591.51)"/><path d="m265.17 269.17h5.66v5.66h-5.66z" transform="matrix(.70710678 -.70710678 .70710678 .70710678 206.16 589.17)"/><path d="m265.17 261.17h5.66v5.66h-5.66z" transform="matrix(.70710678 -.70710678 .70710678 .70710678 211.82 586.83)"/><path d="m268 240h4v-16h-12v16zm-4-8v-4h4v8h-4z" transform="translate(320 320)"/><path d="m268 260h4v-4h-8l-4 4z" transform="translate(320 320)"/><path d="m260 256h-8v4l4 4 4-4z" transform="translate(320 320)"/><path d="m256 240-4 4v8h28v-36h-4v-4h-20v-4h16l-4-4h-8l-4-4v4h-4v28h4v-12h4v-4h12v4h4v24h-4v4l-4-4h-8z" transform="translate(320 320)"/><path d="m256 264v8l4-4z" transform="translate(320 320)"/><path d="m256 272v8l4-4z" transform="translate(320 320)"/><path d="m572 608h4l-4-4z"/><path d="m244 284h-8v4h12l4-4z" transform="translate(320 320)"/><path d="m248 256h-16v4h16z" transform="translate(320 320)"/><path d="m241.17 261.17h5.66v5.66h-5.66z" transform="matrix(.70710678 -.70710678 .70710678 .70710678 204.79 569.86)"/><path d="m241.17 269.17h5.66v5.66h-5.66z" transform="matrix(.70710678 -.70710678 .70710678 .70710678 199.13 572.2)"/><path d="m241.17 277.17h5.66v5.66h-5.66z" transform="matrix(.70710678 -.70710678 .70710678 .70710678 193.48 574.54)"/><path d="m564 416v-4l-4-4-4 4 4 4z"/><path d="m240 300h-12l4 4h16l-4-4z" transform="translate(320 320)"/><path d="m244 84-8-8v8z" transform="translate(320 320)"/><path d="m556 616h-4l4 4 4-4z"/><path d="m556 388v4h-4l4 4 4-4z"/><path d="m236 84h-8l8 8z" transform="translate(320 320)"/><path d="m232 280 4-4-4-4z" transform="translate(320 320)"/><path d="m232 264v8l4-4z" transform="translate(320 320)"/><path d="m220 200v36l4-4v-36h-4z" transform="translate(320 320)"/><path d="m216 244h-4l-4 4v-4h-12v-4h-4v-8l-4 4v16h32v-12h-4z" transform="translate(320 320)"/><path d="m212 280h-8v12h12v-8h-4z" transform="translate(320 320)"/><path d="m212 208v-16h-8v4h4v12h-4v-12l-4-4v20h12z" transform="translate(320 320)"/><path d="m204 216h-4v20h12v-20zm4 8v8h-4v-12h4z" transform="translate(320 320)"/><path d="m512 540h-4l4 4z"/><path d="m192 212v-12l-4 4v16l4-4z" transform="translate(320 320)"/><path d="m192 16-4-4-4 4z" transform="translate(320 320)"/><path d="m188 276h-4v8h12z" transform="translate(320 320)"/><path d="m188 196h-8v4h4z" transform="translate(320 320)"/><path d="m180 28h4v-4h-8l-4-4v8z" transform="translate(320 320)"/><path d="m496 372v-4l-4 4z"/><path d="m172 296h-4v8l-4 4-4-4v8h-8v8h8l8-8v-4h4v-8h8v-4z" transform="translate(320 320)"/><path d="m168 8v8h16v-4h-12z" transform="translate(320 320)"/><path d="m168 296v-8h-8v8z" transform="translate(320 320)"/><path d="m152 304h8v-8h-8l4 4z" transform="translate(320 320)"/><path d="m152 304h-8v8h8z" transform="translate(320 320)"/><path d="m152 296v-8h-8v8z" transform="translate(320 320)"/><path d="m468 336h4l-4-4-4 4z"/><path d="m144 296h-8v8h8z" transform="translate(320 320)"/><path d="m140 284h8l-4-4z" transform="translate(320 320)"/><path d="m140 288h-4l-12 12h4v4l12-12z" transform="translate(320 320)"/><path d="m136 16v8l4 4h4v-4z" transform="translate(320 320)"/><path d="m456 640v-4h-4z"/><path d="m128 308h-4v-4h-4v4h-20l-4 4h4v4h4v4l4-4-4-4h24l4-4z" transform="translate(320 320)"/><path d="m448 472h4v4h-4z"/><path d="m117.17 313.17h5.66v5.66h-5.66z" transform="matrix(.70710678 -.70710678 .70710678 .70710678 131.7 497.41)"/><path d="m120 236h4v-20h-12v20zm-4-8v-8h4v12h-4z" transform="translate(320 320)"/><path d="m120 212h4v-20h-12v20zm-4-8v-8h4v12h-4z" transform="translate(320 320)"/><path d="m104 304h8l-4-4z" transform="translate(320 320)"/><path d="m104 176h28v-4h-16l-4-4-4 4h-4z" transform="translate(320 320)"/><path d="m104 208v-4h-4v8l4 4z" transform="translate(320 320)"/><path d="m100 220v32h8l4-4v4h16v-4l4 4h4v-72h-36v24l4-4v-12h4v-4h20v4h4v52h-4v4h-20v-4h-4v-24h-4z" transform="translate(320 320)"/><path d="m100 284h4v-4l-4-4-4 4h-8l-4 4z" transform="translate(320 320)"/><path d="m412 376v-4l-4 4z"/><path d="m88 164v4h8v-8l-4-4v4h-4z" transform="translate(320 320)"/><path d="m84 208v-4l-8 8 4 4 4-4z" transform="translate(320 320)"/><path d="m400 368v4h4z"/><path d="m80 304h-8l-8 8v4h4z" transform="translate(320 320)"/><path d="m396 356-4 4h4z"/><g transform="translate(320 320)"><path d="m72 320h8v-8h-8z"/><path d="m72 160v-8l-4-4v16l4 4z"/><path d="m68 208v4h4v-8h-4z"/><path d="m64 168v4h16v-4z"/><path d="m56 148h-4v8h8v-8l-4-4z"/><path d="m52 52h8l-4-4z"/><path d="m40 168h8l-4-4z"/><path d="m40 72h8l-4-4z"/><path d="m44 308-4-4-4 4z"/><path d="m36 292h-4v-4l-4 4h-4v4h20v-4z"/><path d="m32 184 4-4v-8l-4 4z"/><path d="m32 304 4 4v-8l-4-4z"/><path d="m28 172-4 4h8v-4z"/><path d="m24 192-8-8-4 4v8l4-4 4 4h4z"/><path d="m12 300-4 4h8l4-4z"/></g><path d="m328 516h4l-4-4z"/><g transform="translate(320 320)"><path d="m-8 104h8l-4-4z"/><path d="m-12 300h-4v4h8l4-4z"/><path d="m-8 4v-4h-4v12l4-4z"/><path d="m-24 4v4l4 4v-12h-4z"/><path d="m-24 300v4l4 4v-8l-4-4z"/><path d="m-28 188-4 4v-8l-4-4v16l-4 4 8 8 4-4-4-4 4-4 4 4 4-4z"/><path d="m-28 0v-4h-4v8h4z"/><path d="m-40 220h-4l-4 4h12v-4l-4-4z"/><path d="m-44 236h8l-4-4z"/><path d="m-40 4v-12l-4-4v24l4-4z"/><path d="m-40 120-4-4-4 4z"/><path d="m-56 116h-4v8h8v-8l-4-4z"/><path d="m-60 172v-8l-4 4v8l4 4z"/><path d="m-64 180v4l-4 4v4h4v4h4v-8l4-4v-8l-4 4z"/><path d="m-60 100-4-4-4 4z"/><path d="m-64 212v20l4-4v-24l-4 4z"/><path d="m-64 144v-8l-8-8-8 8v8h8l-4-4 4-4 4 4-4 4z"/><path d="m-96 4v4h4v-12l-4 4z"/><path d="m-104 12v4l4-4v-8l-4 4z"/><path d="m-116 12v16l4-4h4v-12z"/><path d="m-124 8v4l4 4v-8l-4-4z"/></g><path d="m148 616v4l4-4z"/><g transform="translate(320 320)"><path d="m-196 0v-4h-4v16h12v-16l-4 4v8h-4z"/><path d="m-200 20v16h12v-20h-12zm8 0v12h-4v-12z"/><path d="m-208 40v-16l-4 4v24h36v-60h-4v48h-4v4h-20v-4z"/><path d="m-208 16v-24l-4-4v36h4z"/><path d="m-224 56-8 8 4 4h8l-4-4 4-4h4v-4z"/><path d="m-232 20h12l-4-4h-8l-4-4h-4v8z"/><path d="m-276 316h8l-4-4z"/><path d="m316-284-24 24h-48l-8-8h-8l-8-8h-32l-8 8h-8l-8 8h-56v-8l-4 4-4-4v8l4 4-56 56v4h-44v-8l-4 4-4-4v8h4v8h48v-4h4v-4h4v-4h4v-4h4v-4h4v-4h4v-4h4v-4h4v-4h4v-4h4v-4h4v-4h4v-4h4v-4h4v-4h4v-4h56l12-12h8l8-8h24l8 8h8l12 12h48l28-28v-8z"/><path d="m312-248-12 12h-64l-8-8h-8l-4-4h-24l-4 4h-8l-8 8h-56v-8l-4 4-4-4v8l4 4-8 8h8l4-4h60v-4l8-8h8l4-4h16l4 4h8l8 8v4h68l20-20v-8z"/><path d="m288-40v-4h-4l-4 4z"/></g><path d="m584 280 4 4v-4z"/><path d="m264-32h-12v4h20v-8h-8z" transform="translate(320 320)"/><path d="m568 240-4 4h4z"/><path d="m560 244v4l4-4z"/><path d="m236-76-4-4v8l-8 8 8 8v-4h4v-4h28v-4h-28z" transform="translate(320 320)"/><path d="m216-64v4h-12l4 4h16z" transform="translate(320 320)"/><path d="m204-20h-8l4 4z" transform="translate(320 320)"/><path d="m192-12h-4v16h8l8-8v-8z" transform="translate(320 320)"/><path d="m184-52v-4l-4-4v8l4 4z" transform="translate(320 320)"/><path d="m492 264v4l4-4z"/><path d="m484 276 4-4h-4z"/><path d="m152-40 4-4-12-12v8z" transform="translate(320 320)"/><path d="m460 288v-4l-4 4z"/><path d="m456 268v4l4-4z"/><path d="m448 288v4h4z"/><path d="m124-24v4h16v-4z" transform="translate(320 320)"/><path d="m116-28-4 4h8l4-4z" transform="translate(320 320)"/><path d="m428 280v-4l-4 4z"/><path d="m108-52h-4v4l4 4z" transform="translate(320 320)"/><path d="m424 264 4 4v-4z"/><path d="m100-216h-4l-44 44h-16v8h16l8-8v-4h4l12-12v-4h4l12-12v-4h4l12-12-4-4-4 4z" transform="translate(320 320)"/><path d="m416 280-4 4h4z"/><path d="m408 288h4v4h-4z"/><path d="m352 152 4-4h-4z"/><path d="m352 220h-4l4 4z"/><path d="m352 216v-4h-4z"/><path d="m32-8-4-4-4 4z" transform="translate(320 320)"/><path d="m28-92v-8l-4 4z" transform="translate(320 320)"/><path d="m348 192v-4l-4 4z"/><path d="m344 228v-4l-4 4z"/><path d="m340 156v-4h-4z"/><path d="m320 172v-4l-4 4z"/><path d="m320 148v-4l-4 4z"/><path d="m316 196h4v4h-4z"/><path d="m-8-8h-4v4l4 4z" transform="translate(320 320)"/><path d="m284 280h-4l4 4z"/><path d="m264 276h4l-4-4z"/><path d="m244 276-4 4h4z"/><path d="m240 260v4l4-4z"/><path d="m240 264v4h4z"/><path d="m-108-12h8l-4-4z" transform="translate(320 320)"/><path d="m-124-20-8 8h12v-4h-4z" transform="translate(320 320)"/><path d="m-128-16v-8h-4v-4h-4v-4h-4v4l-4-4h-4v4l4 4h8v8l4 4v-4z" transform="translate(320 320)"/><path d="m-132 0v16h4v-16l-4-4z" transform="translate(320 320)"/><path d="m172 296v-4l-4 4z"/><path d="m-152-32h-48l-4-4v8l4 4h12v-4l4 4h32z" transform="translate(320 320)"/><path d="m136 304v4h4z"/><path d="m-192-104-4-4v8h4z" transform="translate(320 320)"/><path d="m-192-136v-12h-4v16h4z" transform="translate(320 320)"/><path d="m-200-144-4-4h-16v4z" transform="translate(320 320)"/><path d="m-204-136h-4v8l4-4z" transform="translate(320 320)"/><path d="m116 164-4 4h4z"/><path d="m-208-120h-4v-12l4-4h-8v20h12v-12h-4z" transform="translate(320 320)"/><path d="m-208-36v-4l-4-4v8l4 4z" transform="translate(320 320)"/><path d="m-212-104v-4l4-4h-8v20h12v-16h-4v12h-4z" transform="translate(320 320)"/><path d="m-216-40v-8l-8-8v8z" transform="translate(320 320)"/><path d="m-216-152h8v-4h-16v4z" transform="translate(320 320)"/><path d="m100 312h4l-4-4-4 4z"/><path d="m96 232h4v4h-4z"/><path d="m-220-76h24l4-4-4-4 4-4v-8h-4v8h-4v4h-12l4 4h-16l-4-4v8z" transform="translate(320 320)"/><path d="m-224-92v-4l-4-4v8l4 4z" transform="translate(320 320)"/><path d="m-224-104v-44h-4v48h4z" transform="translate(320 320)"/><path d="m-232-80-4-4-4 4z" transform="translate(320 320)"/><path d="m-252-76h4v-4h-8l-4 4z" transform="translate(320 320)"/><path d="m-280-12h-4v-4h-4v-4h-4v-4h-4l-4 4v-4h-4v8l4 4v4h20z" transform="translate(320 320)"/><path d="m32 292h-4l4 4z"/><path d="m-140 156h8l-4-4z" transform="translate(320 320)"/><path d="m-152 144h-8l-4 4h16v-8h-4z" transform="translate(320 320)"/><path d="m-156 316-4 4h12v-4z" transform="translate(320 320)"/><path d="m156 628h4v4h-4z"/><g transform="translate(320 320)"><path d="m-168 128 8 8v-4h4l-4-4v-4h-4l-4-4z"/><path d="m-168 112-4-4v8l4 4z"/><path d="m-172 300-4 4v-4h-4v-4h-4v4h-4v4h4v4h4l4 4h8v-4h-4z"/><path d="m-176 144h-12v4h20v-4z"/><path d="m-184 292h-20l-4 4v8h4v4h8l12-12z"/><path d="m-192 136 4 4v-8l-4-4z"/><path d="m-196 124v8l4-4v-4z"/><path d="m-196 148h4v-4h-32v4z"/><path d="m-204 276h4v-8h-4v-8h-8v8z"/><path d="m-208 152h-8v4h4z"/><path d="m-216 304v-4h4l4-4v-4h-8v-4l-4-4h-4v4h-56v8h24l4-4v4h28v4h4l-4 4v8h4v-4l4 4h4v-4l4-4-4-4z"/></g><path d="m92 456h4v4h-4z"/><path d="m-224 104h-8l4 4z" transform="translate(320 320)"/><path d="m-232 104h-8l4 4z" transform="translate(320 320)"/><path d="m-236 136h4v-4h-12v4z" transform="translate(320 320)"/><path d="m80 440 4 4 4-4-4-4v4z"/><path d="m-238.83 109.17h5.66v5.66h-5.66z" transform="matrix(.70710678 -.70710678 .70710678 .70710678 171.68 185.93)"/><path d="m-236 100v-16l-4 4-4-4v16z" transform="translate(320 320)"/><path d="m-240 232v-8h-4v16h4z" transform="translate(320 320)"/><path d="m76 540 4 4v-4z"/><path d="m-246.83 109.17h5.66v5.66h-5.66z" transform="matrix(.70710678 -.70710678 .70710678 .70710678 169.34 180.27)"/><path d="m-244 248v16h4v-24l-4 4z" transform="translate(320 320)"/><path d="m-244 272v4h12v-4l4 4h20v-4h-4v-4h-32z" transform="translate(320 320)"/><path d="m-248 120h8l-4-4z" transform="translate(320 320)"/><path d="m-252 100v8h8l4-4h-8z" transform="translate(320 320)"/><path d="m68 432h-4l4 4 4-4-4-4z"/><path d="m-268 132h-4v4h24v-4z" transform="translate(320 320)"/><path d="m52 424v4l4-4z"/><path d="m56 432-4-4v4z"/><path d="m-272 100h4v-16h-8v12h4l-4 4v4h4z" transform="translate(320 320)"/><path d="m-276 244v-24h-4v28l4 4z" transform="translate(320 320)"/><path d="m-280 256v8h4v-12h-4z" transform="translate(320 320)"/><path d="m-156-48h4l-8-8-4 4 4 4z" transform="translate(320 320)"/><path d="m-172-52h4v-4h-12v4z" transform="translate(320 320)"/><path d="m-192-52h12l-4-4h-8z" transform="translate(320 320)"/><path d="m-200-56 4 4 4-4z" transform="translate(320 320)"/><path d="m92 252v4h4z"/><path d="m84 252-4 4h4z"/></g></svg>