<svg xmlns="http://www.w3.org/2000/svg" viewBox="0 0 1282 1282"><defs><style>.cls-1{fill:#aea67c;}.cls-2{fill:none;}</style></defs><g id="Layer_2" data-name="Layer 2"><g id="Layer_1-2" data-name="Layer 1"><polygon class="cls-1" points="1282 1169.83 1282 1161.81 1273.99 1161.81 1282 1169.83"/><path class="cls-1" d="M1250,1185.85h8v-16l-8,8Z" transform="translate(24.04 0)"/><polygon class="cls-1" points="1273.99 1193.86 1273.99 1185.85 1265.97 1185.85 1273.99 1193.86"/><polygon class="cls-1" points="1265.97 1177.84 1273.99 1177.84 1265.97 1169.83 1257.96 1177.84 1265.97 1177.84"/><path class="cls-1" d="M1233.92,1185.85h-8v8h-8l16,16v-8h8l-8-8,8-8-8-8Z" transform="translate(24.04 0)"/><path class="cls-1" d="M1233.92,1169.82h8l8-8h-16l-8,8,8,8Z" transform="translate(24.04 0)"/><polygon class="cls-1" points="1257.96 1137.78 1257.96 1129.76 1249.95 1137.78 1257.96 1137.78"/><polygon class="cls-1" points="1257.96 1177.84 1249.95 1177.84 1249.95 1169.83 1241.94 1177.84 1249.95 1185.85 1257.96 1177.84"/><polygon class="cls-1" points="1249.95 1121.75 1241.94 1129.76 1249.95 1129.76 1249.95 1121.75"/><polygon class="cls-1" points="1233.92 1161.81 1233.92 1169.83 1241.94 1161.81 1233.92 1161.81"/><rect class="cls-1" x="1204.22" y="1172.17" width="11.33" height="11.33" transform="translate(-454.45 1200.5) rotate(-45)"/><path class="cls-1" d="M1201.88,1209.89l-8,8h16l8-8-8-8v8Z" transform="translate(24.04 0)"/><polygon class="cls-1" points="1225.91 1185.85 1225.91 1193.86 1233.92 1193.86 1233.92 1201.88 1241.94 1193.86 1233.92 1185.85 1225.91 1185.85"/><path class="cls-1" d="M1193.86,1201.88l8,8,8-8Z" transform="translate(24.04 0)"/><rect class="cls-1" x="1209.89" y="1185.85" width="8.01" height="8.01"/><polygon class="cls-1" points="1209.89 1201.88 1209.89 1209.89 1217.9 1201.88 1209.89 1201.88"/><path class="cls-1" d="M1177.84,1217.9h16l-8-8Z" transform="translate(24.04 0)"/><polygon class="cls-1" points="1193.86 1185.85 1193.86 1177.84 1185.85 1185.85 1193.86 1193.86 1201.87 1185.85 1193.86 1185.85"/><polygon class="cls-1" points="1193.86 1201.88 1193.86 1209.89 1201.87 1201.88 1193.86 1201.88"/><path class="cls-1" d="M1169.83,1057.65v16h8v-24h-8Z" transform="translate(24.04 0)"/><polygon class="cls-1" points="1193.86 1193.86 1185.85 1201.88 1193.86 1201.88 1193.86 1193.86"/><path class="cls-1" d="M1153.8,1209.89h16l-8-8Z" transform="translate(24.04 0)"/><polygon class="cls-1" points="1185.85 1193.86 1185.85 1185.85 1177.84 1193.86 1185.85 1193.86"/><path class="cls-1" d="M1161.81,1169.82l-8,8,8,8Z" transform="translate(24.04 0)"/><polygon class="cls-1" points="1185.85 785.23 1185.85 777.21 1177.84 777.21 1185.85 785.23"/><rect class="cls-1" x="1140.12" y="1172.17" width="11.33" height="11.33" transform="translate(-473.23 1155.18) rotate(-45)"/><path class="cls-1" d="M1137.77,1185.85v-8l-8,8,16,16,8-8-8-8Z" transform="translate(24.04 0)"/><path class="cls-1" d="M1129.76,1201.88l8,8,8-8Z" transform="translate(24.04 0)"/><path class="cls-1" d="M1121.75,1193.86v-16l-8,8Z" transform="translate(24.04 0)"/><path class="cls-1" d="M1105.72,1209.89h16v-16Z" transform="translate(24.04 0)"/><path class="cls-1" d="M1113.74,1185.85l-8,8,8,8Z" transform="translate(24.04 0)"/><polygon class="cls-1" points="1129.76 1177.84 1137.77 1185.85 1137.77 1177.84 1129.76 1177.84"/><polygon class="cls-1" points="1121.75 1241.94 1121.75 1233.93 1113.74 1241.94 1121.75 1241.94"/><path class="cls-1" d="M1089.7,1177.84l8,8,8-8Z" transform="translate(24.04 0)"/><polygon class="cls-1" points="1113.74 1201.88 1113.74 1209.89 1121.75 1201.88 1113.74 1193.86 1105.72 1201.88 1113.74 1201.88"/><polygon class="cls-1" points="1113.74 1177.84 1105.72 1185.85 1113.74 1193.86 1121.75 1193.86 1121.75 1185.85 1113.74 1185.85 1113.74 1177.84"/><path class="cls-1" d="M1081.69,817.27v16l8-8Z" transform="translate(24.04 0)"/><path class="cls-1" d="M1073.67,1241.94h16l-8-8Z" transform="translate(24.04 0)"/><path class="cls-1" d="M1073.67,953.49v8h8l8-8Z" transform="translate(24.04 0)"/><path class="cls-1" d="M1041.63,1001.56v16l16,16v-16Z" transform="translate(24.04 0)"/><polygon class="cls-1" points="1065.66 1201.88 1073.67 1201.88 1065.66 1193.86 1065.66 1201.88"/><path class="cls-1" d="M1025.6,1001.56v16h16Z" transform="translate(24.04 0)"/><polygon class="cls-1" points="1049.64 1201.88 1057.65 1201.88 1049.64 1193.86 1049.64 1201.88"/><path class="cls-1" d="M1009.58,1001.56v8h-8v8h8l-8,8,8,8,16-16Z" transform="translate(24.04 0)"/><path class="cls-1" d="M1001.56,681.06v8h16l-8-8Z" transform="translate(24.04 0)"/><path class="cls-1" d="M993.55,977.52v8h8v-16h-8Z" transform="translate(24.04 0)"/><path class="cls-1" d="M993.55,1025.6v24l8-8v-16l-8-8Z" transform="translate(24.04 0)"/><polygon class="cls-1" points="1009.57 1177.84 1017.59 1177.84 1009.57 1169.83 1009.57 1177.84"/><path class="cls-1" d="M977.52,681.06h-16l8,8h16Z" transform="translate(24.04 0)"/><path class="cls-1" d="M961.5,649l-8,8,8,8h24v-8l-8-8-8,8v-8Z" transform="translate(24.04 0)"/><polygon class="cls-1" points="985.54 937.46 993.55 929.45 985.54 929.45 985.54 937.46"/><path class="cls-1" d="M961.5,1041.63h-8l-8,8-8-8h-24v8l-8-8h-8v24h8v-8h8v8h32.05v-8h16v8h8v-8l-8-8,8-8Zm-32,16h-8v-8h16v8Z" transform="translate(24.04 0)"/><path class="cls-1" d="M953.49,1073.67l-8,8h16l8-8Z" transform="translate(24.04 0)"/><path class="cls-1" d="M961.5,993.55h-16v8h16Z" transform="translate(24.04 0)"/><path class="cls-1" d="M953.49,1225.91v8h16l-8-8Z" transform="translate(24.04 0)"/><path class="cls-1" d="M953.49,801.25l8-8h-8v-16h8v-8h-8l-8,8h-16l-8,8v8h-8l8,8-8,8h16v16l8-8h8v-8l8,8h8v8l8-8Zm-16,0h-8v-16h8l8,8v8Z" transform="translate(24.04 0)"/><path class="cls-1" d="M961.5,873.36l-8-8-8,8Z" transform="translate(24.04 0)"/><path class="cls-1" d="M961.5,921.44v-8h-16v8Z" transform="translate(24.04 0)"/><polygon class="cls-1" points="977.52 937.46 985.54 937.46 977.52 929.45 977.52 937.46"/><polygon class="cls-1" points="977.52 1033.61 985.54 1033.61 977.52 1025.6 977.52 1033.61"/><polygon class="cls-1" points="977.52 857.34 985.54 857.34 977.52 849.33 969.51 857.34 977.52 857.34"/><path class="cls-1" d="M945.47,825.29h16l-8-8Z" transform="translate(24.04 0)"/><path class="cls-1" d="M953.49,881.38h-16v8h8Z" transform="translate(24.04 0)"/><rect class="cls-1" x="969.51" y="961.5" width="8.01" height="8.01"/><path class="cls-1" d="M953.49,1089.7h-16l8,8Z" transform="translate(24.04 0)"/><polygon class="cls-1" points="969.51 1137.78 961.5 1137.78 961.5 1145.79 969.51 1145.79 977.52 1137.78 969.51 1137.78"/><path class="cls-1" d="M953.49,1250h-16l8,8Z" transform="translate(24.04 0)"/><path class="cls-1" d="M937.46,1233.92v16l8-8h8v-8Z" transform="translate(24.04 0)"/><path class="cls-1" d="M937.46,1169.82l-8,8h16l8-8Z" transform="translate(24.04 0)"/><path class="cls-1" d="M945.47,1129.76h8v-8h-16Z" transform="translate(24.04 0)"/><polygon class="cls-1" points="969.51 929.45 961.5 929.45 969.51 937.46 969.51 929.45"/><path class="cls-1" d="M937.46,833.3v8h8l8-8Z" transform="translate(24.04 0)"/><rect class="cls-1" x="961.5" y="865.35" width="8.01" height="8.01"/><polygon class="cls-1" points="961.5 1153.8 953.49 1161.81 961.5 1161.81 961.5 1153.8"/><polygon class="cls-1" points="961.5 1017.59 953.49 1017.59 961.5 1025.6 961.5 1017.59"/><polygon class="cls-1" points="961.5 977.53 953.49 985.54 961.5 985.54 961.5 977.53"/><path class="cls-1" d="M937.46,905.41v-8h-16l8,8Z" transform="translate(24.04 0)"/><path class="cls-1" d="M929.45,1073.67v8h16l-8-8Z" transform="translate(24.04 0)"/><rect class="cls-1" x="953.49" y="1105.73" width="8.01" height="8.01"/><path class="cls-1" d="M929.45,665l-8-8h-16l-16,16,16,16h32.05v-8h8V665l-8,8Zm-24,8,8-8,8,8-8,8Z" transform="translate(24.04 0)"/><path class="cls-1" d="M937.46,769.2h16V705.1H841.31v8h-8v16l8-8v24h48.08v8h16v-16h16v16h-16l-8,8v16h8v-16h16v16h8v-8Zm8-56.09v24h-8v-24Zm-96.14,24v-24h8v24Zm32,0h-16v-16h8l16,16Zm16-8-8-8v-8h16v16Zm24,0h-8v-16h16v16Zm8,24v-8h16v16h-16Z" transform="translate(24.04 0)"/><path class="cls-1" d="M937.46,1217.9h16v-16l-8,8-8-8v8h-8l-8,8Z" transform="translate(24.04 0)"/><path class="cls-1" d="M921.44,1250v16h16v-16Z" transform="translate(24.04 0)"/><path class="cls-1" d="M921.44,1137.77l8,8,8-8Z" transform="translate(24.04 0)"/><rect class="cls-1" x="945.47" y="977.53" width="8.01" height="8.01"/><polygon class="cls-1" points="945.47 833.3 945.47 841.31 953.49 841.31 945.47 833.3"/><path class="cls-1" d="M921.44,857.34h16v-8h-16Z" transform="translate(24.04 0)"/><rect class="cls-1" x="945.47" y="865.35" width="8.01" height="8.01"/><rect class="cls-1" x="945.47" y="881.38" width="8.01" height="8.01"/><rect class="cls-1" x="945.47" y="913.43" width="8.01" height="8.01"/><path class="cls-1" d="M921.44,1217.9v16l8-8Z" transform="translate(24.04 0)"/><path class="cls-1" d="M921.44,1233.92h-16v16h16Z" transform="translate(24.04 0)"/><path class="cls-1" d="M921.44,1177.84v-8h-16l8,8Z" transform="translate(24.04 0)"/><rect class="cls-1" x="937.46" y="1121.75" width="8.01" height="8.01"/><path class="cls-1" d="M921.44,1009.57h8v-8h-16Z" transform="translate(24.04 0)"/><rect class="cls-1" x="937.46" y="961.5" width="8.01" height="8.01"/><path class="cls-1" d="M921.44,937.46h16v-8H905.41l8,8Z" transform="translate(24.04 0)"/><path class="cls-1" d="M913.42,1089.7v8h16v-8Z" transform="translate(24.04 0)"/><rect class="cls-1" x="937.46" y="1137.78" width="8.01" height="8.01"/><path class="cls-1" d="M913.42,809.26v16h16Z" transform="translate(24.04 0)"/><path class="cls-1" d="M905.41,1073.67h-8v8h16l8-8Z" transform="translate(24.04 0)"/><path class="cls-1" d="M905.41,881.38l-8,8h16l8-8Z" transform="translate(24.04 0)"/><rect class="cls-1" x="929.45" y="1025.6" width="8.01" height="8.01"/><polygon class="cls-1" points="921.44 697.09 929.45 705.1 929.45 697.09 921.44 697.09"/><path class="cls-1" d="M897.4,905.41h16v-8h-16Z" transform="translate(24.04 0)"/><path class="cls-1" d="M897.4,921.44h16l-8-8h-8Z" transform="translate(24.04 0)"/><rect class="cls-1" x="921.44" y="929.45" width="8.01" height="8.01"/><rect class="cls-1" x="921.44" y="961.5" width="8.01" height="8.01"/><path class="cls-1" d="M897.4,1017.59h16l-8-8h-8Z" transform="translate(24.04 0)"/><rect class="cls-1" x="921.44" y="1089.7" width="8.01" height="8.01"/><path class="cls-1" d="M897.4,1113.74h16l-8-8h-8Z" transform="translate(24.04 0)"/><path class="cls-1" d="M897.4,1129.76h16l-8-8h-8Z" transform="translate(24.04 0)"/><rect class="cls-1" x="921.44" y="1137.78" width="8.01" height="8.01"/><path class="cls-1" d="M897.4,1161.81h32.05l-8-8h-24Z" transform="translate(24.04 0)"/><rect class="cls-1" x="921.44" y="1169.83" width="8.01" height="8.01"/><path class="cls-1" d="M905.41,1233.92v-16h-8v8l-8,8Z" transform="translate(24.04 0)"/><path class="cls-1" d="M889.39,1250v-16l-16,16,8,8h16v16h16l-8-8v-16Z" transform="translate(24.04 0)"/><polygon class="cls-1" points="913.42 681.06 913.42 673.05 905.41 681.06 913.42 681.06"/><path class="cls-1" d="M873.36,1266h-16l8,8-8,8h32Z" transform="translate(24.04 0)"/><rect class="cls-1" x="889.39" y="657.03" width="8.01" height="8.01"/><polygon class="cls-1" points="889.39 1249.95 889.39 1241.94 881.37 1249.95 889.39 1249.95"/><rect class="cls-1" x="881.37" y="681.06" width="8.01" height="8.01"/><path class="cls-1" d="M857.34,977.52l16-16H841.31Z" transform="translate(24.04 0)"/><path class="cls-1" d="M857.34,1266H825.29l8,8-8,8h32.05l-8-8Z" transform="translate(24.04 0)"/><polygon class="cls-1" points="857.34 697.09 849.32 705.1 857.34 705.1 857.34 697.09"/><path class="cls-1" d="M825.29,977.52v-8h-8v32h72.12v-32h-8v24H825.29Z" transform="translate(24.04 0)"/><path class="cls-1" d="M825.29,697.09V609h8v-8h-16l-8-8h-16l8,8-8,8h-16v-16h-16l8,8v32l-8,8h8v88.14h48.07l8,8v-16l8-8-8-8Zm-8-32.05v24h-8V657h8Zm0-16h-8v-8h8Zm-8-40.06h8v24h-16V617Zm-32,24V617h16v24h-16Zm0,16h24v16h-16l-8-8Zm0,40.06v-16h16l8,8-16,16h-8Zm8,32h-8v-16h16v16Zm32-16v8l-8,8h-8v-24h16Z" transform="translate(24.04 0)"/><path class="cls-1" d="M809.26,1282h16l-8-8Z" transform="translate(24.04 0)"/><path class="cls-1" d="M817.27,1193.86h-16l-8,8h16Z" transform="translate(24.04 0)"/><polygon class="cls-1" points="825.29 953.49 817.27 961.5 825.29 961.5 825.29 953.49"/><path class="cls-1" d="M777.21,1250l-16,16h16v16h8v-8l8-8Z" transform="translate(24.04 0)"/><path class="cls-1" d="M769.2,969.51l8,8v-16h-8Z" transform="translate(24.04 0)"/><path class="cls-1" d="M777.21,1057.65l8-8h-24v8Z" transform="translate(24.04 0)"/><polygon class="cls-1" points="793.24 977.53 793.24 969.51 785.22 977.53 793.24 977.53"/><polygon class="cls-1" points="785.22 649.01 793.24 649.01 785.22 641 785.22 649.01"/><polygon class="cls-1" points="793.24 1065.66 785.22 1057.65 785.22 1065.66 793.24 1065.66"/><path class="cls-1" d="M745.16,1282h16v-16Z" transform="translate(24.04 0)"/><polygon class="cls-1" points="777.21 969.51 777.21 961.5 769.2 961.5 777.21 969.51"/><path class="cls-1" d="M737.15,1049.64l-8,8h16Z" transform="translate(24.04 0)"/><path class="cls-1" d="M697.09,1209.89h-8l16,16h8v-16Z" transform="translate(24.04 0)"/><path class="cls-1" d="M673.05,1258h16l-8-8Z" transform="translate(24.04 0)"/><path class="cls-1" d="M673.05,1209.89l8,8,8-8Z" transform="translate(24.04 0)"/><polygon class="cls-1" points="689.07 1217.9 689.07 1225.91 697.09 1225.91 689.07 1217.9"/><polygon class="cls-1" points="657.02 1257.96 657.02 1265.98 665.04 1257.96 665.04 1249.95 657.02 1249.95 657.02 1257.96"/><path class="cls-1" d="M600.94,1250v8h8l8-8Z" transform="translate(24.04 0)"/><path class="cls-1" d="M576.9,1241.94v-16l-8,8Z" transform="translate(24.04 0)"/><path class="cls-1" d="M544.85,1241.94l8,8,8-8Z" transform="translate(24.04 0)"/><rect class="cls-1" x="531.17" y="1252.3" width="11.33" height="11.33" transform="translate(-708.24 748.05) rotate(-45)"/><polygon class="cls-1" points="504.79 977.53 512.8 977.53 504.79 969.51 504.79 977.53"/><path class="cls-1" d="M472.74,897.4l8,8,8-8Z" transform="translate(24.04 0)"/><path class="cls-1" d="M400.62,641v8h8v8l8-8v-8Z" transform="translate(24.04 0)"/><path class="cls-1" d="M392.61,665h8V649l-8,8Z" transform="translate(24.04 0)"/><path class="cls-1" d="M384.6,649l-8-8v16h16v-8Z" transform="translate(24.04 0)"/><path class="cls-1" d="M360.56,817.27H320.5v56.09h8v-24l8-8h-8v-16h16V897.4l8-8v-64.1l8,8,8-8V897.4h-24l-8-8-8,8v-16l-8,8h-8v-8l-8,8,8,8h8v8l8,8,8-8h32.05l8-8V817.27Z" transform="translate(24.04 0)"/><rect class="cls-1" x="354.9" y="835.65" width="11.33" height="11.33" transform="translate(-465.25 501.37) rotate(-45)"/><polygon class="cls-1" points="384.6 865.35 392.61 857.34 384.6 849.33 376.59 857.34 384.6 857.34 384.6 865.35"/><rect class="cls-1" x="354.9" y="867.7" width="11.33" height="11.33" transform="translate(-487.92 510.76) rotate(-45)"/><rect class="cls-1" x="354.9" y="883.72" width="11.33" height="11.33" transform="translate(-499.25 515.46) rotate(-45)"/><polygon class="cls-1" points="368.57 849.33 360.56 841.31 360.56 849.33 352.55 849.33 360.56 857.34 368.57 849.33"/><polygon class="cls-1" points="360.56 889.39 368.57 881.38 360.56 873.36 352.55 881.38 360.56 881.38 360.56 889.39"/><rect class="cls-1" x="330.86" y="827.63" width="11.33" height="11.33" transform="translate(-466.63 482.03) rotate(-45)"/><rect class="cls-1" x="330.86" y="859.68" width="11.33" height="11.33" transform="translate(-489.29 491.42) rotate(-45)"/><path class="cls-1" d="M328.51,657v8h16v-8Z" transform="translate(24.04 0)"/><polygon class="cls-1" points="336.52 921.44 336.52 913.43 328.51 921.44 336.52 921.44"/><path class="cls-1" d="M312.49,913.42v-16l-8,8Z" transform="translate(24.04 0)"/><polygon class="cls-1" points="336.52 857.34 336.52 849.33 328.51 857.34 336.52 865.35 336.52 857.34"/><polygon class="cls-1" points="336.52 665.04 328.51 665.04 336.52 673.05 336.52 665.04"/><polygon class="cls-1" points="328.51 641 328.51 649.01 336.52 641 328.51 641"/><rect class="cls-1" x="328.51" y="689.08" width="8.01" height="8.01"/><path class="cls-1" d="M312.49,881.38v-16l-16,16,8,8v-8Z" transform="translate(24.04 0)"/><polygon class="cls-1" points="328.51 713.11 328.51 705.1 320.5 705.1 328.51 713.11"/><rect class="cls-1" x="320.5" y="665.04" width="8.01" height="8.01"/><polygon class="cls-1" points="320.5 897.4 328.51 889.39 320.5 889.39 320.5 897.4"/><polygon class="cls-1" points="320.5 905.41 320.5 913.43 328.51 905.41 320.5 905.41"/><path class="cls-1" d="M304.48,873.36l-8-8,8-8-8-8-8,8h-8v8h8v8Z" transform="translate(24.04 0)"/><polygon class="cls-1" points="320.5 921.44 328.51 921.44 320.5 913.43 320.5 921.44"/><polygon class="cls-1" points="320.5 1257.96 320.5 1249.95 312.49 1257.96 320.5 1257.96"/><path class="cls-1" d="M296.46,721.12h-16v8h8Z" transform="translate(24.04 0)"/><polygon class="cls-1" points="312.49 849.33 320.5 849.33 312.49 841.31 312.49 849.33"/><polygon class="cls-1" points="312.49 881.38 320.5 881.38 312.49 873.36 312.49 881.38"/><polygon class="cls-1" points="312.49 689.08 304.47 689.08 312.49 697.09 312.49 689.08"/><polygon class="cls-1" points="304.47 921.44 304.47 913.43 296.46 921.44 304.47 921.44"/><path class="cls-1" d="M280.44,913.42v-16l-8,8Z" transform="translate(24.04 0)"/><polygon class="cls-1" points="296.46 705.1 296.46 713.11 304.47 705.1 296.46 705.1"/><polygon class="cls-1" points="296.46 1249.95 296.46 1257.96 304.47 1257.96 304.47 1249.95 296.46 1241.94 296.46 1249.95"/><polygon class="cls-1" points="288.45 1249.95 296.46 1241.94 288.45 1241.94 288.45 1249.95"/><rect class="cls-1" x="258.75" y="899.75" width="11.33" height="11.33" transform="translate(-538.74 452.16) rotate(-45)"/><polygon class="cls-1" points="280.44 1241.94 288.45 1241.94 288.45 1233.93 280.44 1241.94"/><path class="cls-1" d="M264.41,1217.9l-8,8,8,8Z" transform="translate(24.04 0)"/><path class="cls-1" d="M256.4,921.44h16l-8-8Z" transform="translate(24.04 0)"/><rect class="cls-1" x="258.75" y="883.72" width="11.33" height="11.33" transform="translate(-527.41 447.47) rotate(-45)"/><polygon class="cls-1" points="288.45 857.34 288.45 849.33 280.44 857.34 288.45 865.35 288.45 857.34"/><path class="cls-1" d="M256.4,873.36l8,8v-16h-8Z" transform="translate(24.04 0)"/><polygon class="cls-1" points="280.44 1201.88 272.42 1201.88 280.44 1209.89 280.44 1201.88"/><polygon class="cls-1" points="280.44 873.36 272.42 865.35 264.41 873.36 272.42 881.38 280.44 881.38 280.44 873.36"/><path class="cls-1" d="M256.4,849.32h-16v8l8,8,8-8Z" transform="translate(24.04 0)"/><polygon class="cls-1" points="280.44 817.28 272.42 817.28 280.44 825.29 280.44 817.28"/><rect class="cls-1" x="272.42" y="1209.89" width="8.01" height="8.01"/><path class="cls-1" d="M248.39,881.38h-8v8l-8,8h16l8-8Z" transform="translate(24.04 0)"/><path class="cls-1" d="M240.38,905.41v16h8v-8l8-8-8-8Z" transform="translate(24.04 0)"/><path class="cls-1" d="M240.38,1209.89l8-8v-8h-8l-8,8v8h-8l8,8h8v8h8v8l8-8Z" transform="translate(24.04 0)"/><polygon class="cls-1" points="264.41 1185.85 256.4 1185.85 264.41 1193.86 264.41 1185.85"/><polygon class="cls-1" points="264.41 817.28 256.4 817.28 264.41 825.29 264.41 817.28"/><rect class="cls-1" x="256.4" y="801.25" width="8.01" height="8.01"/><polygon class="cls-1" points="256.4 1225.91 264.41 1225.91 256.4 1217.9 256.4 1225.91"/><path class="cls-1" d="M232.36,1185.85l-8,8v8h8Z" transform="translate(24.04 0)"/><polygon class="cls-1" points="256.4 921.44 256.4 913.43 248.39 921.44 256.4 921.44"/><polygon class="cls-1" points="256.4 857.34 248.39 857.34 256.4 865.35 256.4 857.34"/><polygon class="cls-1" points="248.39 817.28 248.39 825.29 256.4 817.28 248.39 817.28"/><path class="cls-1" d="M224.35,889.39h8v-8l-8-8Z" transform="translate(24.04 0)"/><polygon class="cls-1" points="256.4 913.43 248.39 905.41 248.39 913.43 256.4 913.43"/><path class="cls-1" d="M224.35,857.34h-8v8l-8,8,8,8v-8h8Z" transform="translate(24.04 0)"/><polygon class="cls-1" points="248.39 849.33 240.37 849.33 248.39 857.34 248.39 849.33"/><path class="cls-1" d="M216.34,1217.9h-8v-8l-8-8v8h-8l8,8v16l8-8h16v-16h-8Z" transform="translate(24.04 0)"/><path class="cls-1" d="M208.33,1001.56l8,8h8v-8Z" transform="translate(24.04 0)"/><path class="cls-1" d="M208.33,921.44h16l-8-8Z" transform="translate(24.04 0)"/><polygon class="cls-1" points="232.36 889.39 240.37 897.4 240.37 889.39 248.39 889.39 240.37 881.38 232.36 889.39"/><polygon class="cls-1" points="240.37 849.33 232.36 857.34 240.37 857.34 240.37 849.33"/><rect class="cls-1" x="232.36" y="793.24" width="8.01" height="8.01"/><polygon class="cls-1" points="232.36 905.41 240.37 913.43 248.39 905.41 240.37 897.4 232.36 897.4 232.36 905.41"/><path class="cls-1" d="M200.31,913.42l-8,8h16v-8Z" transform="translate(24.04 0)"/><path class="cls-1" d="M200.31,809.26v8h16l-8-8Z" transform="translate(24.04 0)"/><rect class="cls-1" x="194.65" y="867.7" width="11.33" height="11.33" transform="translate(-534.85 397.45) rotate(-45)"/><rect class="cls-1" x="194.65" y="851.67" width="11.33" height="11.33" transform="translate(-523.52 392.75) rotate(-45)"/><rect class="cls-1" x="194.65" y="899.75" width="11.33" height="11.33" transform="translate(-557.52 406.83) rotate(-45)"/><rect class="cls-1" x="194.65" y="883.72" width="11.33" height="11.33" transform="translate(-546.19 402.14) rotate(-45)"/><path class="cls-1" d="M192.3,745.16l-8,8,16,16,8-8Z" transform="translate(24.04 0)"/><path class="cls-1" d="M200.31,1009.57v-8h-8l-8,8Z" transform="translate(24.04 0)"/><path class="cls-1" d="M184.29,1201.88v24h8v-24Z" transform="translate(24.04 0)"/><rect class="cls-1" x="208.32" y="913.43" width="8.01" height="8.01"/><polygon class="cls-1" points="216.34 865.35 208.32 865.35 200.31 873.36 208.32 881.38 216.34 873.36 216.34 865.35"/><rect class="cls-1" x="208.32" y="849.33" width="8.01" height="8.01"/><rect class="cls-1" x="208.32" y="985.54" width="8.01" height="8.01"/><rect class="cls-1" x="178.62" y="883.72" width="11.33" height="11.33" transform="translate(-550.88 390.8) rotate(-45)"/><rect class="cls-1" x="178.62" y="899.75" width="11.33" height="11.33" transform="translate(-562.21 395.5) rotate(-45)"/><path class="cls-1" d="M184.29,969.51v-8h-16l8,8Z" transform="translate(24.04 0)"/><polygon class="cls-1" points="200.31 921.44 208.32 913.43 200.31 913.43 200.31 921.44"/><path class="cls-1" d="M176.28,1017.59h-8v8h16Z" transform="translate(24.04 0)"/><polygon class="cls-1" points="192.3 1009.58 200.31 1001.56 192.3 1001.56 192.3 1009.58"/><rect class="cls-1" x="192.3" y="1201.88" width="8.01" height="8.01"/><rect class="cls-1" x="184.29" y="977.53" width="8.01" height="8.01"/><path class="cls-1" d="M160.25,889.39v16h8v-8Z" transform="translate(24.04 0)"/><path class="cls-1" d="M144.23,1209.89h16v-8h-8Z" transform="translate(24.04 0)"/><path class="cls-1" d="M144.23,1017.59v8h16v-8Z" transform="translate(24.04 0)"/><path class="cls-1" d="M144.23,1001.56l8,8h8v-8Z" transform="translate(24.04 0)"/><rect class="cls-1" x="146.57" y="659.37" width="11.33" height="11.33" transform="translate(-401.63 302.43) rotate(-45)"/><rect class="cls-1" x="138.56" y="923.78" width="11.33" height="11.33" transform="translate(-590.94 374.21) rotate(-45)"/><rect class="cls-1" x="160.25" y="1201.88" width="8.01" height="8.01"/><path class="cls-1" d="M136.21,977.52v8h16v-8Z" transform="translate(24.04 0)"/><polygon class="cls-1" points="168.26 945.48 176.27 945.48 168.26 937.46 160.25 945.48 168.26 945.48"/><polygon class="cls-1" points="168.26 889.39 160.25 897.4 168.26 897.4 168.26 889.39"/><path class="cls-1" d="M136.21,881.38h-16l8,8Z" transform="translate(24.04 0)"/><rect class="cls-1" x="122.53" y="923.78" width="11.33" height="11.33" transform="translate(-595.63 362.88) rotate(-45)"/><path class="cls-1" d="M128.2,1201.88h-8v-8h8v-8h-8l-8,8v16h16l8-8-8-8Z" transform="translate(24.04 0)"/><path class="cls-1" d="M128.2,1153.8h-24l8,8h16Z" transform="translate(24.04 0)"/><path class="cls-1" d="M128.2,1089.7v-8h-32v-8h16v-8h8v8l8,8v-24h-24l-8,8-8-8h-16l-8-8v48.07h24v-8h16l-8,8h8v8l8-8v-8h8l-8,8h16Zm-56.09-24h16v8h-16Zm8,24h-8v-8h8Z" transform="translate(24.04 0)"/><path class="cls-1" d="M128.2,1041.63h-8l-8,8h16Z" transform="translate(24.04 0)"/><path class="cls-1" d="M128.2,1017.59h-16l-8,8h24Z" transform="translate(24.04 0)"/><path class="cls-1" d="M120.19,945.47h16l-8-8Z" transform="translate(24.04 0)"/><polygon class="cls-1" points="152.24 897.4 160.25 897.4 152.24 889.39 144.22 897.4 152.24 897.4"/><path class="cls-1" d="M120.19,1105.72h-8v8h16Z" transform="translate(24.04 0)"/><path class="cls-1" d="M120.19,1177.84h8v-8h-24l8,8Z" transform="translate(24.04 0)"/><path class="cls-1" d="M120.19,993.55v-16l-8,8Z" transform="translate(24.04 0)"/><polygon class="cls-1" points="144.22 969.51 136.21 969.51 144.22 977.53 144.22 969.51"/><polygon class="cls-1" points="136.21 889.39 144.22 897.4 144.22 889.39 136.21 889.39"/><rect class="cls-1" x="106.51" y="875.71" width="11.33" height="11.33" transform="translate(-566.33 337.47) rotate(-45)"/><polygon class="cls-1" points="136.21 1073.68 136.21 1081.69 144.22 1073.68 136.21 1073.68"/><path class="cls-1" d="M120.19,1121.75h-16l8,8Z" transform="translate(24.04 0)"/><polygon class="cls-1" points="136.21 929.45 136.21 937.46 144.22 929.45 136.21 921.44 136.21 929.45"/><path class="cls-1" d="M112.17,1041.63v-8h-16v8Z" transform="translate(24.04 0)"/><polygon class="cls-1" points="136.21 897.4 136.21 889.39 128.2 897.4 136.21 897.4"/><path class="cls-1" d="M112.17,969.51h-16l8,8Z" transform="translate(24.04 0)"/><polygon class="cls-1" points="128.2 1209.89 136.21 1209.89 128.2 1201.88 128.2 1209.89"/><rect class="cls-1" x="120.19" y="1193.86" width="8.01" height="8.01"/><polygon class="cls-1" points="128.2 1169.83 120.19 1177.84 128.2 1177.84 128.2 1169.83"/><rect class="cls-1" x="98.5" y="979.87" width="11.33" height="11.33" transform="translate(-642.34 362.31) rotate(-45)"/><path class="cls-1" d="M96.15,921.44h16l-8-8Z" transform="translate(24.04 0)"/><polygon class="cls-1" points="120.19 849.33 112.17 849.33 120.19 857.34 128.2 849.33 120.19 849.33"/><rect class="cls-1" x="90.48" y="859.68" width="11.33" height="11.33" transform="translate(-559.7 321.44) rotate(-45)"/><path class="cls-1" d="M96.15,1137.77v8h16l-8-8Z" transform="translate(24.04 0)"/><polygon class="cls-1" points="120.19 873.36 112.17 881.38 120.19 881.38 120.19 889.39 128.2 881.38 120.19 873.36"/><path class="cls-1" d="M104.16,897.4l-8-8-8,8Z" transform="translate(24.04 0)"/><polygon class="cls-1" points="120.19 1185.85 112.17 1185.85 120.19 1193.86 120.19 1185.85"/><polygon class="cls-1" points="112.17 1169.83 120.19 1177.84 120.19 1169.83 112.17 1169.83"/><path class="cls-1" d="M88.14,1153.8h-16l8,8h24v-8Z" transform="translate(24.04 0)"/><rect class="cls-1" x="112.17" y="1105.73" width="8.01" height="8.01"/><path class="cls-1" d="M88.14,1193.86v-8h-16l8,8Z" transform="translate(24.04 0)"/><polygon class="cls-1" points="112.17 1129.76 112.17 1121.75 104.16 1129.76 112.17 1129.76"/><rect class="cls-1" x="104.16" y="1033.61" width="8.01" height="8.01"/><rect class="cls-1" x="82.47" y="979.87" width="11.33" height="11.33" transform="translate(-647.03 350.98) rotate(-45)"/><path class="cls-1" d="M80.12,969.51l8,8,8-8v-16l-8-8-8,8,8,8Z" transform="translate(24.04 0)"/><polygon class="cls-1" points="104.16 865.35 104.16 873.36 112.17 865.35 104.16 865.35"/><path class="cls-1" d="M80.12,1201.88h-8l8,8h8v8l8-8v-8Z" transform="translate(24.04 0)"/><polygon class="cls-1" points="104.16 881.38 112.17 881.38 104.16 873.36 104.16 881.38"/><polygon class="cls-1" points="104.16 889.39 104.16 897.4 112.17 897.4 104.16 889.39"/><path class="cls-1" d="M72.11,1169.82h-8v8h16l8-8Z" transform="translate(24.04 0)"/><path class="cls-1" d="M72.11,1193.86v-8h-8v24h8v-8l8-8Z" transform="translate(24.04 0)"/><rect class="cls-1" x="66.45" y="963.85" width="11.33" height="11.33" transform="translate(-640.39 334.96) rotate(-45)"/><polygon class="cls-1" points="96.15 985.54 96.15 993.55 104.16 985.54 96.15 977.53 96.15 985.54"/><polygon class="cls-1" points="96.15 1041.63 96.15 1049.64 104.16 1049.64 96.15 1041.63"/><rect class="cls-1" x="96.15" y="1105.73" width="8.01" height="8.01"/><rect class="cls-1" x="66.45" y="947.82" width="11.33" height="11.33" transform="translate(-629.06 330.26) rotate(-45)"/><polygon class="cls-1" points="88.14 1113.74 96.15 1105.73 88.14 1105.73 88.14 1113.74"/><rect class="cls-1" x="88.14" y="1121.75" width="8.01" height="8.01"/><path class="cls-1" d="M64.1,1145.79h16l8-8h-24Z" transform="translate(24.04 0)"/><rect class="cls-1" x="88.14" y="1153.8" width="8.01" height="8.01"/><path class="cls-1" d="M64.1,881.38v-8h-16l8,8Z" transform="translate(24.04 0)"/><polygon class="cls-1" points="80.12 953.49 80.12 961.5 88.14 961.5 88.14 953.49 80.12 945.48 80.12 953.49"/><polygon class="cls-1" points="80.12 1025.6 80.12 1033.61 88.14 1033.61 80.12 1025.6"/><polygon class="cls-1" points="1273.99 120.19 1282 112.18 1273.99 104.16 1265.97 112.18 1273.99 112.18 1273.99 120.19"/><path class="cls-1" d="M1233.92,136.21l8-8v-16l-16,16h8Z" transform="translate(24.04 0)"/><path class="cls-1" d="M1225.91,128.2v16l8-8Z" transform="translate(24.04 0)"/><path class="cls-1" d="M1217.9,136.21v16l8-8Z" transform="translate(24.04 0)"/><path class="cls-1" d="M1209.89,152.24v-8h-16l8,8Z" transform="translate(24.04 0)"/><polygon class="cls-1" points="1225.91 160.25 1225.91 152.24 1217.9 160.25 1225.91 160.25"/><polygon class="cls-1" points="1217.9 152.24 1217.9 144.23 1209.89 152.24 1217.9 160.25 1217.9 152.24"/><polygon class="cls-1" points="1209.89 160.25 1209.89 152.24 1201.87 160.25 1209.89 160.25"/><polygon class="cls-1" points="1209.89 144.23 1201.87 144.23 1209.89 152.24 1209.89 144.23"/><polygon class="cls-1" points="1201.87 152.24 1201.87 144.23 1193.86 152.24 1201.87 160.25 1201.87 152.24"/><polygon class="cls-1" points="1193.86 160.25 1193.86 152.24 1185.85 160.25 1193.86 160.25"/><polygon class="cls-1" points="1193.86 144.23 1185.85 144.23 1193.86 152.24 1193.86 144.23"/><rect class="cls-1" x="1177.84" y="560.88" width="8.01" height="8.01"/><polygon class="cls-1" points="1185.85 152.24 1185.85 144.23 1177.84 152.24 1185.85 160.25 1185.85 152.24"/><polygon class="cls-1" points="1177.84 160.25 1177.84 152.24 1169.82 160.25 1177.84 160.25"/><polygon class="cls-1" points="1177.84 144.23 1169.82 144.23 1177.84 152.24 1177.84 144.23"/><path class="cls-1" d="M1153.8,40.06h-16l8,8Z" transform="translate(24.04 0)"/><polygon class="cls-1" points="1169.82 152.24 1169.82 144.23 1161.81 152.24 1169.82 160.25 1169.82 152.24"/><polygon class="cls-1" points="1161.81 160.25 1161.81 152.24 1153.8 160.25 1161.81 160.25"/><polygon class="cls-1" points="1161.81 144.23 1153.8 144.23 1161.81 152.24 1161.81 144.23"/><polygon class="cls-1" points="1153.8 560.88 1145.79 568.89 1153.8 568.89 1153.8 560.88"/><polygon class="cls-1" points="1153.8 152.24 1153.8 144.23 1145.79 152.24 1153.8 160.25 1153.8 152.24"/><path class="cls-1" d="M1129.76,48.08l8-8h-24v16h8Z" transform="translate(24.04 0)"/><polygon class="cls-1" points="1145.79 160.25 1145.79 152.24 1137.77 160.25 1145.79 160.25"/><polygon class="cls-1" points="1145.79 144.23 1137.77 144.23 1145.79 152.24 1145.79 144.23"/><polygon class="cls-1" points="1137.77 480.75 1137.77 488.76 1145.79 488.76 1137.77 480.75"/><polygon class="cls-1" points="1137.77 504.79 1145.79 504.79 1137.77 496.78 1137.77 504.79"/><polygon class="cls-1" points="1137.77 152.24 1137.77 144.23 1129.76 152.24 1137.77 160.25 1137.77 152.24"/><polygon class="cls-1" points="1129.76 160.25 1129.76 152.24 1121.75 160.25 1129.76 160.25"/><polygon class="cls-1" points="1129.76 144.23 1121.75 144.23 1129.76 152.24 1129.76 144.23"/><polygon class="cls-1" points="1121.75 488.76 1121.75 480.75 1113.74 488.76 1121.75 488.76"/><polygon class="cls-1" points="1121.75 152.24 1121.75 144.23 1113.74 152.24 1121.75 160.25 1121.75 152.24"/><polygon class="cls-1" points="1113.74 144.23 1113.74 136.21 1105.72 144.23 1113.74 152.24 1113.74 144.23"/><polygon class="cls-1" points="1105.72 136.21 1105.72 128.2 1097.71 136.21 1105.72 144.23 1105.72 136.21"/><polygon class="cls-1" points="1097.71 136.21 1089.7 144.23 1097.71 144.23 1097.71 136.21"/><polygon class="cls-1" points="1097.71 128.2 1097.71 120.19 1089.7 128.2 1097.71 136.21 1097.71 128.2"/><path class="cls-1" d="M1065.66,128.2l-8,8,8,8Z" transform="translate(24.04 0)"/><polygon class="cls-1" points="1089.7 120.19 1081.69 120.19 1089.7 128.2 1089.7 120.19"/><path class="cls-1" d="M1057.65,120.19l-8,8,8,8Z" transform="translate(24.04 0)"/><polygon class="cls-1" points="1073.67 136.21 1073.67 128.2 1065.66 136.21 1073.67 136.21"/><path class="cls-1" d="M1049.64,112.17l-8,8,8,8Z" transform="translate(24.04 0)"/><polygon class="cls-1" points="1065.66 504.79 1065.66 512.8 1073.67 512.8 1065.66 504.79"/><path class="cls-1" d="M1041.63,120.19l-8,8,8,8Z" transform="translate(24.04 0)"/><polygon class="cls-1" points="1065.66 112.18 1065.66 104.16 1057.65 112.18 1065.66 120.19 1065.66 112.18"/><polygon class="cls-1" points="1057.65 136.21 1057.65 128.2 1049.64 136.21 1057.65 136.21"/><path class="cls-1" d="M1033.61,112.17l-8,8,8,8Z" transform="translate(24.04 0)"/><polygon class="cls-1" points="1057.65 104.16 1049.64 104.16 1057.65 112.18 1057.65 104.16"/><path class="cls-1" d="M1025.6,120.19l-8,8,8,8Z" transform="translate(24.04 0)"/><polygon class="cls-1" points="1049.64 112.18 1049.64 104.16 1041.62 112.18 1049.64 120.19 1049.64 112.18"/><polygon class="cls-1" points="1041.62 136.21 1041.62 128.2 1033.61 136.21 1041.62 136.21"/><path class="cls-1" d="M1017.59,112.17l-8,8,8,8Z" transform="translate(24.04 0)"/><polygon class="cls-1" points="1041.62 104.16 1033.61 104.16 1041.62 112.18 1041.62 104.16"/><path class="cls-1" d="M1009.58,120.19l-8,8,8,8Z" transform="translate(24.04 0)"/><polygon class="cls-1" points="1033.61 112.18 1033.61 104.16 1025.6 112.18 1033.61 120.19 1033.61 112.18"/><polygon class="cls-1" points="1025.6 136.21 1025.6 128.2 1017.59 136.21 1025.6 136.21"/><path class="cls-1" d="M1001.56,112.17l-8,8,8,8Z" transform="translate(24.04 0)"/><path class="cls-1" d="M985.54,609l8,8h32l16-16-16-16h-32l-8,8h8v8Zm40.06-8-8,8-8-8,8-8Z" transform="translate(24.04 0)"/><path class="cls-1" d="M993.55,120.19l-8,8,8,8Z" transform="translate(24.04 0)"/><path class="cls-1" d="M985.54,144.22v-16l-8,8Z" transform="translate(24.04 0)"/><polygon class="cls-1" points="1001.56 120.19 1009.57 128.2 1009.57 120.19 1001.56 120.19"/><polygon class="cls-1" points="1001.56 144.23 1001.56 136.21 993.55 144.23 1001.56 144.23"/><path class="cls-1" d="M977.52,120.19l-8,8,8,8Z" transform="translate(24.04 0)"/><path class="cls-1" d="M961.5,520.81l-24,24,8,8v-8h8v16l24-24v-16Zm8,16h-8v-8h8Z" transform="translate(24.04 0)"/><path class="cls-1" d="M969.51,128.2l-8,8,8,8Z" transform="translate(24.04 0)"/><path class="cls-1" d="M961.5,152.24v-16l-8,8Z" transform="translate(24.04 0)"/><path class="cls-1" d="M953.49,160.25v-16l-8,8Z" transform="translate(24.04 0)"/><polygon class="cls-1" points="969.51 160.25 969.51 152.24 961.5 160.25 969.51 160.25"/><polygon class="cls-1" points="961.5 144.23 969.51 152.24 969.51 144.23 961.5 144.23"/><path class="cls-1" d="M937.46,144.22l-8,8,8,8Z" transform="translate(24.04 0)"/><polygon class="cls-1" points="953.49 160.25 953.49 152.24 945.47 160.25 953.49 160.25"/><polygon class="cls-1" points="945.47 144.23 953.49 152.24 953.49 144.23 945.47 144.23"/><path class="cls-1" d="M921.44,144.22l-8,8,8,8Z" transform="translate(24.04 0)"/><polygon class="cls-1" points="937.46 160.25 937.46 152.24 929.45 160.25 937.46 160.25"/><polygon class="cls-1" points="929.45 144.23 937.46 152.24 937.46 144.23 929.45 144.23"/><path class="cls-1" d="M905.41,144.22l-8,8,8,8Z" transform="translate(24.04 0)"/><polygon class="cls-1" points="921.44 160.25 921.44 152.24 913.42 160.25 921.44 160.25"/><polygon class="cls-1" points="913.42 144.23 921.44 152.24 921.44 144.23 913.42 144.23"/><path class="cls-1" d="M897.4,552.86l8-8v-16h-16l-16,16v8h8l8,8Zm-8-16h8v8h-8Z" transform="translate(24.04 0)"/><path class="cls-1" d="M889.39,617h-8l-8,8h16Z" transform="translate(24.04 0)"/><path class="cls-1" d="M889.39,144.22l-8,8,8,8Z" transform="translate(24.04 0)"/><polygon class="cls-1" points="905.41 560.88 905.41 552.86 897.4 560.88 905.41 560.88"/><polygon class="cls-1" points="905.41 160.25 905.41 152.24 897.4 160.25 905.41 160.25"/><polygon class="cls-1" points="897.4 144.23 905.41 152.24 905.41 144.23 897.4 144.23"/><path class="cls-1" d="M873.36,144.22l-8,8,8,8Z" transform="translate(24.04 0)"/><polygon class="cls-1" points="889.39 160.25 889.39 152.24 881.37 160.25 889.39 160.25"/><polygon class="cls-1" points="881.37 144.23 889.39 152.24 889.39 144.23 881.37 144.23"/><polygon class="cls-1" points="881.37 608.95 881.37 616.96 889.39 616.96 881.37 608.95"/><path class="cls-1" d="M857.34,584.91h8v8h32v-16h-8l8-8h-32l-16,16Zm24-8v8h-8v-8Z" transform="translate(24.04 0)"/><path class="cls-1" d="M857.34,144.22l-8,8,8,8Z" transform="translate(24.04 0)"/><polygon class="cls-1" points="873.36 560.88 873.36 568.89 881.37 560.88 873.36 560.88"/><path class="cls-1" d="M841.31,144.22l-8,8h16v-8Z" transform="translate(24.04 0)"/><polygon class="cls-1" points="857.34 632.99 849.32 641 857.34 641 857.34 632.99"/><path class="cls-1" d="M825.29,168.26v8l8-8v-16l-8,8Z" transform="translate(24.04 0)"/><polygon class="cls-1" points="833.3 496.78 841.31 496.78 841.31 488.76 833.3 496.78"/><path class="cls-1" d="M817.27,176.27v-8l-8,8v16l8-8Z" transform="translate(24.04 0)"/><polygon class="cls-1" points="825.29 200.31 833.3 192.3 825.29 184.29 817.27 192.3 825.29 192.3 825.29 200.31"/><path class="cls-1" d="M793.24,200.31v-8l-8,8v16l8-8Z" transform="translate(24.04 0)"/><polygon class="cls-1" points="809.26 568.89 817.27 560.88 809.26 560.88 809.26 568.89"/><path class="cls-1" d="M793.24,480.75h32v16l8-8v-16H769.2l8,8Z" transform="translate(24.04 0)"/><path class="cls-1" d="M769.2,232.36l16-16h-8v-8l-16,16h8Z" transform="translate(24.04 0)"/><path class="cls-1" d="M761.19,232.36v-8l-8,8v16l8-8Z" transform="translate(24.04 0)"/><path class="cls-1" d="M753.17,248.39h-8v-8l-8,8v16Z" transform="translate(24.04 0)"/><path class="cls-1" d="M737.15,600.94l8-8-8-8-24,24h16Z" transform="translate(24.04 0)"/><path class="cls-1" d="M729.14,264.41h8l-8-8-8,8v16l8-8Z" transform="translate(24.04 0)"/><polygon class="cls-1" points="745.16 280.44 737.15 280.44 737.15 272.43 729.14 280.44 737.15 288.45 745.16 280.44"/><polygon class="cls-1" points="729.14 288.45 729.14 280.44 721.12 288.45 729.14 288.45"/><polygon class="cls-1" points="729.14 272.43 721.12 272.43 729.14 280.44 729.14 272.43"/><polygon class="cls-1" points="721.12 280.44 721.12 272.43 713.11 280.44 721.12 288.45 721.12 280.44"/><path class="cls-1" d="M689.08,592.92h8v-16l-8,8Z" transform="translate(24.04 0)"/><polygon class="cls-1" points="713.11 288.45 713.11 280.44 705.1 288.45 713.11 288.45"/><polygon class="cls-1" points="713.11 272.43 705.1 272.43 713.11 280.44 713.11 272.43"/><polygon class="cls-1" points="705.1 408.64 697.09 408.64 705.1 416.65 705.1 408.64"/><polygon class="cls-1" points="705.1 392.61 705.1 384.6 697.09 392.61 705.1 392.61"/><rect class="cls-1" x="697.09" y="328.51" width="8.01" height="8.01"/><path class="cls-1" d="M681.06,304.47v-16l-8,8Z" transform="translate(24.04 0)"/><polygon class="cls-1" points="705.1 280.44 705.1 272.43 697.09 280.44 705.1 288.45 705.1 280.44"/><rect class="cls-1" x="697.09" y="344.54" width="8.01" height="8.01"/><rect class="cls-1" x="697.09" y="376.59" width="8.01" height="8.01"/><path class="cls-1" d="M673.05,528.83h8v-8h16v8H769.2v40.06h8v8l8-8-8-8v-16h16v16l8,8,8-8h-8v-32h8l8,8v24h-8v16l8-8,8,8V496.77h-8v24h-16v-16l8-8h-16v16h-16l-8-8v-16h16l-8-8H681.06l-8-8v-16l-8,8-8-8-8,8h8v8h-8v8l-8-8-8,8,8,8v16H625l-8-8v-16h-16l-8,8h16v16l-8,8h-16l-16,16,8,8v-8H617v-16h16l8,8-8,8Zm48.07-8h-16l16-16h8v16Zm72.12,0v16h-16v-8l8-8Zm-32,0h-24v-16h16l8,8Zm-40.07-32h40.07v8H713.11v-8Zm-32,0h16v16l-8,8h-16v-24Zm-32.06-8h8l8,8H657Zm0,40.06h-8v-24h16l8,8v16Z" transform="translate(24.04 0)"/><path class="cls-1" d="M673.05,408.64h-8v8l8,8Z" transform="translate(24.04 0)"/><polygon class="cls-1" points="697.09 304.48 697.09 296.46 689.07 304.48 697.09 304.48"/><path class="cls-1" d="M673.05,296.46v-16l-8,8Z" transform="translate(24.04 0)"/><polygon class="cls-1" points="697.09 272.43 689.07 272.43 697.09 280.44 697.09 272.43"/><path class="cls-1" d="M673.05,440.69H657v16Z" transform="translate(24.04 0)"/><polygon class="cls-1" points="689.07 392.61 681.06 392.61 689.07 400.63 689.07 392.61"/><path class="cls-1" d="M665,312.49h-8l-8,8h16Z" transform="translate(24.04 0)"/><path class="cls-1" d="M665,288.45l-8,8,8,8Z" transform="translate(24.04 0)"/><polygon class="cls-1" points="689.07 280.44 689.07 272.43 681.06 280.44 689.07 288.45 689.07 280.44"/><path class="cls-1" d="M657,328.51l-8,8h16Z" transform="translate(24.04 0)"/><path class="cls-1" d="M665,368.58l-8-8-8,8Z" transform="translate(24.04 0)"/><path class="cls-1" d="M665,384.6l8-8H649v8Z" transform="translate(24.04 0)"/><polygon class="cls-1" points="681.06 304.48 681.06 296.46 673.05 304.48 681.06 304.48"/><path class="cls-1" d="M657,296.46v-16l-8,8Z" transform="translate(24.04 0)"/><polygon class="cls-1" points="681.06 272.43 673.05 272.43 681.06 280.44 681.06 272.43"/><path class="cls-1" d="M649,344.54h-8l8,8h16l-8-8Z" transform="translate(24.04 0)"/><polygon class="cls-1" points="673.05 392.61 665.04 392.61 665.04 400.63 673.05 400.63 681.06 392.61 673.05 392.61"/><polygon class="cls-1" points="673.05 400.63 673.05 408.64 681.06 408.64 673.05 400.63"/><polygon class="cls-1" points="673.05 472.74 673.05 464.73 665.04 472.74 673.05 472.74"/><path class="cls-1" d="M641,440.69l8,8,8-8Z" transform="translate(24.04 0)"/><path class="cls-1" d="M649,408.64h-8v16l8-8Z" transform="translate(24.04 0)"/><polygon class="cls-1" points="673.05 360.56 665.04 360.56 673.05 368.58 673.05 360.56"/><path class="cls-1" d="M649,288.45l-8,8,8,8Z" transform="translate(24.04 0)"/><polygon class="cls-1" points="673.05 280.44 673.05 272.43 665.04 280.44 673.05 288.45 673.05 280.44"/><polygon class="cls-1" points="665.04 384.6 665.04 392.61 673.05 384.6 665.04 384.6"/><path class="cls-1" d="M649,432.67h32l-8-8H617v8Z" transform="translate(24.04 0)"/><path class="cls-1" d="M641,336.52v-8H625l8,8Z" transform="translate(24.04 0)"/><polygon class="cls-1" points="665.04 304.48 665.04 296.46 657.02 304.48 665.04 304.48"/><path class="cls-1" d="M641,296.46v-16l-8,8Z" transform="translate(24.04 0)"/><polygon class="cls-1" points="665.04 272.43 657.02 272.43 665.04 280.44 665.04 272.43"/><path class="cls-1" d="M641,472.74v-8h8v-8H633v8h-8v8Z" transform="translate(24.04 0)"/><path class="cls-1" d="M633,560.88H617l-16,16H649Z" transform="translate(24.04 0)"/><polygon class="cls-1" points="657.02 432.68 649.01 440.69 657.02 440.69 657.02 432.68"/><polygon class="cls-1" points="649.01 360.56 649.01 368.58 657.02 368.58 665.04 360.56 657.02 352.55 657.02 360.56 649.01 360.56"/><polygon class="cls-1" points="657.02 296.46 657.02 288.45 649.01 296.46 657.02 304.48 657.02 296.46"/><polygon class="cls-1" points="657.02 280.44 657.02 272.43 649.01 280.44 657.02 288.45 657.02 280.44"/><path class="cls-1" d="M633,320.5v-8H617v8Z" transform="translate(24.04 0)"/><path class="cls-1" d="M633,352.55v-8H617v8Z" transform="translate(24.04 0)"/><path class="cls-1" d="M633,400.62v-8H617v8Z" transform="translate(24.04 0)"/><path class="cls-1" d="M633,448.7l-8-8h-8v8Z" transform="translate(24.04 0)"/><path class="cls-1" d="M633,480.75l-16-16v16Z" transform="translate(24.04 0)"/><rect class="cls-1" x="641" y="376.59" width="8.01" height="8.01"/><polygon class="cls-1" points="649.01 304.48 649.01 296.46 641 304.48 649.01 304.48"/><path class="cls-1" d="M625,280.44l-8,8,8,8Z" transform="translate(24.04 0)"/><polygon class="cls-1" points="641 272.43 649.01 280.44 649.01 272.43 641 272.43"/><polygon class="cls-1" points="641 328.51 641 336.53 649.01 328.51 641 328.51"/><polygon class="cls-1" points="641 408.64 641 416.65 649.01 408.64 641 408.64"/><polygon class="cls-1" points="641 352.55 641 360.56 649.01 360.56 641 352.55"/><path class="cls-1" d="M617,544.85v-16l-8,8Z" transform="translate(24.04 0)"/><polygon class="cls-1" points="624.97 560.88 616.96 568.89 624.97 568.89 624.97 560.88"/><path class="cls-1" d="M568.89,617v8l8,8,8-8v-8Z" transform="translate(24.04 0)"/><path class="cls-1" d="M568.89,512.8l8-8-16-16h-24v8h16v16l8,8v-8Z" transform="translate(24.04 0)"/><polygon class="cls-1" points="576.9 624.98 584.91 632.99 592.92 632.99 592.92 624.98 584.91 616.96 576.9 624.98"/><path class="cls-1" d="M560.88,520.81h-8v24h-16l-8-8h-8v16h8l8,8h8v8l24-24v-16h-8Z" transform="translate(24.04 0)"/><path class="cls-1" d="M552.86,609l-8,8,8,8Z" transform="translate(24.04 0)"/><polygon class="cls-1" points="560.87 616.96 560.87 624.98 568.89 616.96 560.87 608.95 560.87 616.96"/><polygon class="cls-1" points="560.87 520.81 560.87 512.8 552.86 520.81 560.87 520.81"/><path class="cls-1" d="M536.84,512.8v-8h-8l-8,8Z" transform="translate(24.04 0)"/><polygon class="cls-1" points="536.84 552.86 536.84 544.85 528.82 544.85 536.84 552.86"/><polygon class="cls-1" points="528.82 536.84 536.84 536.84 528.82 528.83 528.82 536.84"/><path class="cls-1" d="M488.76,576.9h16l-8-8Z" transform="translate(24.04 0)"/><path class="cls-1" d="M488.76,528.83l8-8h-8v-8l-8,8v16l8,8v8h16v-8Z" transform="translate(24.04 0)"/><path class="cls-1" d="M480.75,584.91h-16v-24h-8l-8,8v-32l8-8-8-8-16,16v16l8,8-24,24,8,8h24v8l8-8v8h8Z" transform="translate(24.04 0)"/><path class="cls-1" d="M424.66,544.85l-16,16h24v-8h-8Z" transform="translate(24.04 0)"/><path class="cls-1" d="M360.56,633h-8l16,16v-8h8l-8-8Z" transform="translate(24.04 0)"/><polygon class="cls-1" points="368.57 576.9 360.56 568.89 360.56 576.9 368.57 576.9"/><path class="cls-1" d="M312.49,560.88l16,16,8-8h-8v-8l-16-16h-16Z" transform="translate(24.04 0)"/><path class="cls-1" d="M296.46,625h-16l8,8h8Z" transform="translate(24.04 0)"/><path class="cls-1" d="M296.46,609h-16v8h8Z" transform="translate(24.04 0)"/><rect class="cls-1" x="312.49" y="568.89" width="8.01" height="8.01"/><path class="cls-1" d="M280.44,552.86h8l-8-8h-16l8,8Z" transform="translate(24.04 0)"/><path class="cls-1" d="M240.38,568.89l8,8h32.05l8-8Z" transform="translate(24.04 0)"/><path class="cls-1" d="M248.39,625l-8-8-8,8Z" transform="translate(24.04 0)"/><rect class="cls-1" x="256.4" y="568.89" width="8.01" height="8.01"/><polygon class="cls-1" points="256.4 616.96 264.41 616.96 256.4 608.95 256.4 616.96"/><path class="cls-1" d="M224.35,552.86l8,8h16l8,8v-8h8v-16H232.36Z" transform="translate(24.04 0)"/><path class="cls-1" d="M232.36,336.52v-8h-8v16h8Z" transform="translate(24.04 0)"/><path class="cls-1" d="M224.35,312.49v16l8-8Z" transform="translate(24.04 0)"/><path class="cls-1" d="M216.34,617h-8l-8,8h16l8,8,8-8-8-8Z" transform="translate(24.04 0)"/><path class="cls-1" d="M200.31,528.83h-16l8,8h32l-8-8Z" transform="translate(24.04 0)"/><path class="cls-1" d="M200.31,560.88h8v8l8,8,8-8-24-24-8,8Z" transform="translate(24.04 0)"/><path class="cls-1" d="M192.3,336.52h-16v8h32.05v-8Z" transform="translate(24.04 0)"/><path class="cls-1" d="M192.3,584.91l-8,8h16Z" transform="translate(24.04 0)"/><polygon class="cls-1" points="216.34 544.85 224.35 544.85 216.34 536.84 208.32 544.85 216.34 544.85"/><path class="cls-1" d="M176.28,600.94v8h8l8-8Z" transform="translate(24.04 0)"/><path class="cls-1" d="M184.29,528.83h-16l16,16Z" transform="translate(24.04 0)"/><path class="cls-1" d="M176.28,328.51l8-8h8v-8l8-8h-16l-16,16v-8h-8v16Z" transform="translate(24.04 0)"/><path class="cls-1" d="M168.26,336.52l-8-8v16h8Z" transform="translate(24.04 0)"/><polygon class="cls-1" points="168.26 48.08 168.26 56.09 176.27 48.08 168.26 48.08"/><path class="cls-1" d="M136.21,88.14h8l8-8v-16l-16,16Z" transform="translate(24.04 0)"/><path class="cls-1" d="M128.2,48.08h8l-8-8h-16l8,8Z" transform="translate(24.04 0)"/><polygon class="cls-1" points="128.2 72.11 128.2 80.13 136.21 72.11 128.2 72.11"/><path class="cls-1" d="M96.15,32.05h-8v16l8-8Z" transform="translate(24.04 0)"/><polygon class="cls-1" points="72.11 616.96 80.12 608.95 72.11 608.95 72.11 616.96"/><path class="cls-1" d="M48.08,96.15v-8l-24-24-8,8,24,24Z" transform="translate(24.04 0)"/><path class="cls-1" d="M48.08,16h8l-16-16h-8V8l8,8Z" transform="translate(24.04 0)"/><path class="cls-1" d="M40.06,592.92v16l8-8Z" transform="translate(24.04 0)"/><rect class="cls-1" x="18.37" y="50.42" width="11.33" height="11.33" transform="translate(-8.58 33.43) rotate(-45)"/><path class="cls-1" d="M16,568.89l-8,8,8,8,16-16Z" transform="translate(24.04 0)"/><path class="cls-1" d="M16,8H0v8H8Z" transform="translate(24.04 0)"/><g id="Export"><line id="Export-2" data-name="Export" class="cls-2" x2="1282"/><line id="Export-3" data-name="Export" class="cls-2" x1="1282" y1="1282" y2="1282"/></g></g></g></svg>