<svg xmlns="http://www.w3.org/2000/svg" viewBox="0 0 1282 1282"><defs><style>.cls-1{fill:#86573a;}.cls-2{fill:none;}</style></defs><g id="Layer_2" data-name="Layer 2"><g id="Layer_1-2" data-name="Layer 1"><polygon class="cls-1" points="1282 649.01 1282 641 1273.99 649.01 1282 649.01"/><path class="cls-1" d="M1266,1266l-8,8v-16h-16l-8,8v16h8v-8l8-8v16h32v-16l-8-8Z" transform="translate(0 0)"/><path class="cls-1" d="M1266,1041.63h16v-8h-8Z" transform="translate(0 0)"/><path class="cls-1" d="M1266,849.32l-8-8h-8v24l8,8h16l8-8h-16l-8-8h16l8,8v-16Z" transform="translate(0 0)"/><polygon class="cls-1" points="1273.99 753.18 1265.97 753.18 1273.99 761.19 1273.99 753.18"/><path class="cls-1" d="M1266,697.09v8l-16-16h16l8,8,8-8-8-8v-8h-8l-8,8h-16l-16-16-8,8,8,8v16l8,8h16l8,8h16l8-8h-8v-8Zm-32,0v-8l8,8Z" transform="translate(0 0)"/><path class="cls-1" d="M1266,793.24h-8v-16h-8v-8l-8,8v16l-8,8,8,8h16v8h8l8-8-8-8h16v-16l-8,8Z" transform="translate(0 0)"/><path class="cls-1" d="M1266,921.44v-8l-8-8h-8v-8l-16-16v16l-16,16h8v8h16l-16,16v8h8l16-16,8,8v16l8,8h8v8h8v-24l-16-16h-8v-8l8,8h16v-16l-8,8Zm8,24v8l-8-8Zm-32-32.05v-8l8,8Z" transform="translate(0 0)"/><path class="cls-1" d="M1266,1217.9l-8,8,24,24v-16Z" transform="translate(0 0)"/><polygon class="cls-1" points="1265.97 1257.96 1273.99 1257.96 1265.97 1249.95 1265.97 1257.96"/><path class="cls-1" d="M1250,657h-16l8,8Z" transform="translate(0 0)"/><path class="cls-1" d="M1250,753.17l-8-8-8,8Z" transform="translate(0 0)"/><polygon class="cls-1" points="1233.92 873.36 1233.92 881.38 1241.94 873.36 1233.92 873.36"/><path class="cls-1" d="M1241.94,969.51l-8-8-8,8Z" transform="translate(0 0)"/><polygon class="cls-1" points="1233.92 1241.94 1241.94 1241.94 1233.92 1233.93 1233.92 1241.94"/><path class="cls-1" d="M1241.94,1258l-8-8-8,8Z" transform="translate(0 0)"/><path class="cls-1" d="M1233.92,865.35v-16h-16Z" transform="translate(0 0)"/><path class="cls-1" d="M1225.91,985.54h16l-8-8h-8Z" transform="translate(0 0)"/><polygon class="cls-1" points="1225.91 1265.98 1233.92 1265.98 1225.91 1257.96 1225.91 1265.98"/><path class="cls-1" d="M1217.9,993.55l8,8h16v-8Z" transform="translate(0 0)"/><path class="cls-1" d="M1217.9,1258v-8l-8,8-8-8v16h-8v8l8,8h24v-8l-8-8Z" transform="translate(0 0)"/><path class="cls-1" d="M1217.9,897.4h8v-8l8-8h-16v8h-8v-16l-8,8h-16l-8-8-8,8-8-8h-8v8l-24,24v8h8l8,8-8,8,8,8h32l8,8h8v8h16l8-8-8-8v8h-8l8-8v-16l8,8Zm-64.1,0v8h-8Zm40.06,40.06-8-8h16Zm8-16h-24l-8-8-8,8-8-8h16l-8-8v-16l8,8v16h16l8,8,8-8-16-16,8-8,8,8Z" transform="translate(0 0)"/><polygon class="cls-1" points="1209.89 1105.73 1217.9 1105.73 1209.89 1097.71 1201.88 1105.73 1209.89 1105.73"/><path class="cls-1" d="M1201.87,977.52l8,8,8-8Z" transform="translate(0 0)"/><path class="cls-1" d="M1209.89,857.34l-8-8-8,8Z" transform="translate(0 0)"/><path class="cls-1" d="M1185.85,977.52l-8,8h16Z" transform="translate(0 0)"/><polygon class="cls-1" points="1177.84 945.48 1169.83 945.48 1177.84 953.49 1177.84 945.48"/><path class="cls-1" d="M1177.84,841.31h-16l8,8Z" transform="translate(0 0)"/><path class="cls-1" d="M1169.82,1001.56v8l-8,8-8-8-8,8v24h8v-16h16v-8h8l-24,24h16v-8h16V993.55l-8,8Z" transform="translate(0 0)"/><path class="cls-1" d="M1169.82,993.55l-8-8-8,8Z" transform="translate(0 0)"/><path class="cls-1" d="M1145.79,1001.56l-8-8-16,16h16l-8,8h16Z" transform="translate(0 0)"/><path class="cls-1" d="M1129.76,1089.7h-8l8,8h16v-8Z" transform="translate(0 0)"/><path class="cls-1" d="M1121.75,1041.63l-8-8,8-8h-8v-8l-16-16-8,8v32.06h16l8,8v8h16v-8l8-8Zm-24-24,8,8h-8Z" transform="translate(0 0)"/><path class="cls-1" d="M1121.75,1017.59v8l16,16v-16l-16-16Z" transform="translate(0 0)"/><path class="cls-1" d="M1121.75,1009.57l-8-8-8,8Z" transform="translate(0 0)"/><polygon class="cls-1" points="1105.72 985.54 1105.72 993.55 1113.74 985.54 1105.72 985.54"/><path class="cls-1" d="M929.45,825.29h-16v8l-8-8-8,8,8,8-16,16v-16l-8,8-8-8h-8v8l16,16h16l8-8h8v-8l8-8v24h-8l-8,8v16h16l8-8v-16h16V833.3l-8-8Zm-16,56.09v-8h8Zm24-32.06v8l-8-8v-16l8,8Z" transform="translate(0 0)"/><path class="cls-1" d="M921.44,809.26h-16l-16,16h16Z" transform="translate(0 0)"/><path class="cls-1" d="M913.42,801.25l-8-8-8,8Z" transform="translate(0 0)"/><path class="cls-1" d="M873.36,793.24l-8-8v16l8,8h16l8-8-8-8Z" transform="translate(0 0)"/><path class="cls-1" d="M865.35,865.35h-8v-8h8v-8h-16v16l-8-8v-16h-8v-8l-8-8-24,24h16l-8,8-8-8v16l-8,8h16l8-8h16v16l16,16,8-8,8,8,8-8,8,8h8v-8l-8-8h-16l-8-8-8,8-8-8h48.08l-8-8Z" transform="translate(0 0)"/><path class="cls-1" d="M857.34,929.45h-8l-8,8h32.05l-8-8Z" transform="translate(0 0)"/><path class="cls-1" d="M849.32,833.3l8-8h16l-16-16-24,24Z" transform="translate(0 0)"/><path class="cls-1" d="M833.3,961.5h16l-8-8Z" transform="translate(0 0)"/><path class="cls-1" d="M825.29,809.26l8,8,8-8Z" transform="translate(0 0)"/><path class="cls-1" d="M825.29,921.44l-8,8h16Z" transform="translate(0 0)"/><path class="cls-1" d="M825.29,913.42h8l-8-8h-16v16l8-8Z" transform="translate(0 0)"/><polygon class="cls-1" points="801.25 785.23 801.25 793.24 809.26 793.24 801.25 785.23"/><path class="cls-1" d="M809.26,809.26l8-8h-16l-16-16h-16l24,24Z" transform="translate(0 0)"/><path class="cls-1" d="M809.26,841.31v-16l-8,8h-8v16h8v-8Z" transform="translate(0 0)"/><path class="cls-1" d="M793.24,1113.74v-8h8v-16l-16,16v8h-8l8,8h-8v-8l-8-8v16l-8,8v16l-8,8h16l8-8h16l16-16v-16l-8-8Zm0,16-8,8h-16l8-8h16v-8h8Z" transform="translate(0 0)"/><path class="cls-1" d="M785.22,817.27l8,8,8-8Z" transform="translate(0 0)"/><path class="cls-1" d="M785.22,1177.84h-8l-8,8h32l-8-8Z" transform="translate(0 0)"/><path class="cls-1" d="M777.21,1097.71h16l-8-8Z" transform="translate(0 0)"/><path class="cls-1" d="M785.22,833.3l-8-8v24h-8v8h-8l8-8-8-8h-16l-8,8-8-8h16l-8-8h16l8,8h16l-8-8v-16h-16l-8,8-16-16-16,16v16l16,16h16l8,8h16l8,8,8-8v-16l8-8h-8Zm-64.1-8h8l-8,8Z" transform="translate(0 0)"/><path class="cls-1" d="M769.2,801.25l8,8,8-8Z" transform="translate(0 0)"/><path class="cls-1" d="M777.21,1081.69h-16l-16-16v16l-8,8v8h24Z" transform="translate(0 0)"/><path class="cls-1" d="M761.19,1177.84h16l-8-8Z" transform="translate(0 0)"/><polygon class="cls-1" points="761.19 1065.66 761.19 1073.68 769.2 1073.68 761.19 1065.66"/><path class="cls-1" d="M769.2,1105.72l-8-8-8,8Z" transform="translate(0 0)"/><path class="cls-1" d="M761.19,1113.74l-8-8-8,8-8-8v16h8v8l-8-8h-16l24,24,8-8v-16l8,8Z" transform="translate(0 0)"/><path class="cls-1" d="M737.15,801.25h16l-8-8Z" transform="translate(0 0)"/><path class="cls-1" d="M721.12,1113.74h-8l-8,8v-16l-8,8v8h-8l-8,8-8-8v16l-8,8,8,8-8,8v8h8l8-8h16l8-8h16l8-8-8-8-8,8v-8h8v-16l8-8Zm-24,32h-16l8-8h8v-8l8,8Z" transform="translate(0 0)"/><polygon class="cls-1" points="721.13 665.04 729.14 665.04 721.13 657.03 721.13 665.04"/><path class="cls-1" d="M713.11,729.14l-16,16h16v-8h8v-8h8l-8,8h16v-16l8-8v-16l-8,8h-8v8l-8,8v-8h-8l-8-8v16h8Z" transform="translate(0 0)"/><path class="cls-1" d="M713.11,1097.71h16l-8-8h-16Z" transform="translate(0 0)"/><path class="cls-1" d="M705.1,689.07l8,8,16-16V665l-16,16-8-8Z" transform="translate(0 0)"/><path class="cls-1" d="M705.1,753.17l-8,8h16Z" transform="translate(0 0)"/><path class="cls-1" d="M705.1,673.05l-8-8-8,8Z" transform="translate(0 0)"/><path class="cls-1" d="M689.07,785.22l8-8-8-8Z" transform="translate(0 0)"/><path class="cls-1" d="M697.09,1097.71l-16-16-8,8H657l-8,8H633l16,16,16-16,8,8,8-8v16h16l-8-8Z" transform="translate(0 0)"/><path class="cls-1" d="M689.07,689.07l8-8h-16l-16-16v16l8,8Z" transform="translate(0 0)"/><path class="cls-1" d="M673.05,761.19h-8l8,8h-8v8h16l8-8-8-8Z" transform="translate(0 0)"/><path class="cls-1" d="M673.05,1225.91v-8H657l-8,8h8v8h32.05l-8-8Z" transform="translate(0 0)"/><polygon class="cls-1" points="665.04 641 665.04 649.01 673.05 641 665.04 641"/><path class="cls-1" d="M657,1121.75h16l-8-8Z" transform="translate(0 0)"/><path class="cls-1" d="M657,689.07l8,8,8-8Z" transform="translate(0 0)"/><polygon class="cls-1" points="657.02 1241.94 657.02 1233.93 649.01 1241.94 657.02 1241.94"/><rect class="cls-1" x="651.36" y="1124.1" width="11.33" height="11.33" transform="translate(-606.42 795.49) rotate(-45)"/><polygon class="cls-1" points="649.01 825.29 657.02 817.28 649.01 817.28 649.01 825.29"/><path class="cls-1" d="M649,673.05h8V657l-8,8H633l8,8Z" transform="translate(0 0)"/><polygon class="cls-1" points="641 1081.69 649.01 1081.69 641 1073.68 641 1081.69"/><path class="cls-1" d="M633,1129.76l8,8h-8v-8l-8-8-8,8,8,8H609l8,8h-8v-24h-16l-8-8v24h8l8,8v8h16v8l8,8h24v-8l-16-16h16v-16l-8-8Zm0,24v8l-8-8Z" transform="translate(0 0)"/><path class="cls-1" d="M625,1233.92h16l-8-8Z" transform="translate(0 0)"/><path class="cls-1" d="M625,1217.9h16l-8-8Z" transform="translate(0 0)"/><path class="cls-1" d="M617,681.06l8,8,8-8Z" transform="translate(0 0)"/><path class="cls-1" d="M625,785.22l-8-8-8,8Z" transform="translate(0 0)"/><path class="cls-1" d="M600.94,1113.74h16v-16Z" transform="translate(0 0)"/><path class="cls-1" d="M600.94,697.09l8-8v-8h-8l-8,8h-16l16,16Z" transform="translate(0 0)"/><path class="cls-1" d="M592.92,769.2l8-8h-16l-8,8Z" transform="translate(0 0)"/><polygon class="cls-1" points="584.91 697.09 576.9 705.1 584.91 705.1 584.91 697.09"/><polygon class="cls-1" points="584.91 673.05 584.91 665.04 576.9 673.05 584.91 673.05"/><path class="cls-1" d="M584.91,745.16v-8h8l-8-8h16v-8h8l8,8v8h8l8-8,8,8h16v-16h-8v-8l8,8h16v-8h8l-16,16h16l-8,8h24v-8h16l-16-16v-16l-8,8h-16l-8,8-16-16-8,8-8-8v16l-8,8h-8v-8h-16l-8,8-16-16-8,8h8v16h-8l8,8h-8v-8l8-8-8-8h-8v8h-8v16h8l8,8Zm64.1-16h-8v-8Z" transform="translate(0 0)"/><path class="cls-1" d="M560.88,689.07h16l-8-8Z" transform="translate(0 0)"/><path class="cls-1" d="M544.85,705.1l-8-8-8,8h-16l-8-8v16h16l16,16h8v-8h-8v-8l8,8,8-8Z" transform="translate(0 0)"/><polygon class="cls-1" points="536.84 689.08 528.83 689.08 536.84 697.09 544.85 689.08 536.84 689.08"/><path class="cls-1" d="M528.83,833.3h16l-8-8Z" transform="translate(0 0)"/><polygon class="cls-1" points="536.84 753.18 528.83 753.18 536.84 761.19 536.84 753.18"/><path class="cls-1" d="M512.8,721.12l8,8h-8v-8h-8v-8l-16-16-8,8v16h8v-8h8v24l8-8v8h8l8,8h16l-8-8v-16Z" transform="translate(0 0)"/><polygon class="cls-1" points="512.8 657.03 504.79 665.04 512.8 665.04 512.8 657.03"/><path class="cls-1" d="M504.79,1041.63v16h-8l-16,16,8,8h16l8-8v-16l8-8v-16l-8,8Zm-8,32v-8h8Z" transform="translate(0 0)"/><path class="cls-1" d="M512.8,689.07v-16l-16,16Z" transform="translate(0 0)"/><path class="cls-1" d="M504.79,753.17h8l-8-8h-16l8,8Z" transform="translate(0 0)"/><path class="cls-1" d="M496.77,673.05l-16-16v16Z" transform="translate(0 0)"/><polygon class="cls-1" points="488.76 1025.6 496.77 1025.6 488.76 1017.59 488.76 1025.6"/><path class="cls-1" d="M480.75,1057.65l8-8h8v-8l-8-8v8h-8Z" transform="translate(0 0)"/><polygon class="cls-1" points="480.75 649.01 488.76 649.01 480.75 641 480.75 649.01"/><path class="cls-1" d="M472.74,1113.74h16l-8-8Z" transform="translate(0 0)"/><polygon class="cls-1" points="472.74 753.18 472.74 761.19 480.75 753.18 472.74 753.18"/><path class="cls-1" d="M472.74,1065.66l8-8h-16l16-16-16-16v16l-16,16v16h-8v-8l8-8h-16v-8h-8l-16-16-8,8,8,8v8h8l8,8h-16l8,8h-8v-8l-8-8v-24h8v-16l-8,8h-8v8l-8,8,8,8v16h8v8l8,8h24v-8l8,8h24v-8l-8-8h8v8h8Z" transform="translate(0 0)"/><path class="cls-1" d="M472.74,713.11v-8h-8v8h-8l8,8v16h8v-8l8,8v-16h-8Z" transform="translate(0 0)"/><polygon class="cls-1" points="464.73 801.25 464.73 809.26 472.74 809.26 464.73 801.25"/><path class="cls-1" d="M456.71,985.54l8,8,8-8Z" transform="translate(0 0)"/><polygon class="cls-1" points="456.71 673.05 456.71 681.06 464.73 673.05 456.71 665.04 456.71 673.05"/><path class="cls-1" d="M456.71,697.09h-16l16,16,8-8Z" transform="translate(0 0)"/><path class="cls-1" d="M448.7,801.25h16l-8-8Z" transform="translate(0 0)"/><path class="cls-1" d="M448.7,745.16v8h8v8l8-8v-16l-8,8Z" transform="translate(0 0)"/><path class="cls-1" d="M456.71,1017.59l-8-8h-8v8Z" transform="translate(0 0)"/><path class="cls-1" d="M440.69,761.19v8h16v-8l-8-8Z" transform="translate(0 0)"/><polygon class="cls-1" points="440.69 737.15 432.68 737.15 440.69 745.16 448.7 737.15 440.69 737.15"/><path class="cls-1" d="M440.69,745.16l-8,8h-16v8h-8l8-8-8-8-8,8v16l-8,8h16l8-8h16l8-8Z" transform="translate(0 0)"/><path class="cls-1" d="M440.69,969.51v-8h8v-16l-8,8h-8v-8l-8,8h-8v-8h-8v-8l-8,8,16,16h16l-8,8h8v8Z" transform="translate(0 0)"/><path class="cls-1" d="M432.67,713.11h-8l-8,8,8,8h16l8-8-16-16Z" transform="translate(0 0)"/><polygon class="cls-1" points="424.66 809.26 432.68 801.25 424.66 801.25 424.66 809.26"/><path class="cls-1" d="M432.67,1025.6l8-8-8-8-16,16Z" transform="translate(0 0)"/><path class="cls-1" d="M432.67,1041.63h16l8-8v-16l-16,16-8-8-8,8-8-8v16Z" transform="translate(0 0)"/><path class="cls-1" d="M416.65,1121.75l-8,8h16l8-8Z" transform="translate(0 0)"/><path class="cls-1" d="M408.64,785.22h-8l-8,8h32.05l-8-8Z" transform="translate(0 0)"/><polygon class="cls-1" points="408.64 729.14 400.63 737.15 408.64 737.15 408.64 729.14"/><path class="cls-1" d="M400.62,721.12h-16l-16-16v16l16,16Z" transform="translate(0 0)"/><path class="cls-1" d="M384.6,1185.85l-8,8-8-8v16h-16v-8h8l8-8-8-8-8,8v-8h8v-16l-16,16v16l-8,8h8v8l-8,8h16l8-8h16v-8h16v-8l8-8Z" transform="translate(0 0)"/><polygon class="cls-1" points="392.61 697.09 392.61 689.08 384.6 689.08 392.61 697.09"/><path class="cls-1" d="M384.6,753.17l8,8v-16l-8-8Z" transform="translate(0 0)"/><path class="cls-1" d="M376.59,777.21h8v-8l-8-8v-16l-8,8-8-8v16h8v8l-16-16v8h-8l8-8-8-8-8,8-8-8v16l8,8h16l8,8Z" transform="translate(0 0)"/><polygon class="cls-1" points="360.56 697.09 368.57 705.1 368.57 697.09 360.56 697.09"/><path class="cls-1" d="M352.55,1250h16l-8-8Z" transform="translate(0 0)"/><path class="cls-1" d="M352.55,801.25h16l-8-8Z" transform="translate(0 0)"/><path class="cls-1" d="M360.56,737.15h8l-16-16-16,16,8,8,8-8Z" transform="translate(0 0)"/><polygon class="cls-1" points="352.55 1145.79 344.54 1145.79 352.55 1153.8 352.55 1145.79"/><path class="cls-1" d="M344.54,1049.64l-8,8h-8v-8l-8,8v16l-8,8h-16l8,8h16l16-16-8-8h8v8h8v-8h8v-8l8-8-8-8v8Z" transform="translate(0 0)"/><polygon class="cls-1" points="344.54 1249.95 344.54 1241.94 336.52 1249.95 344.54 1249.95"/><polygon class="cls-1" points="336.52 1113.74 336.52 1121.75 344.54 1113.74 336.52 1113.74"/><path class="cls-1" d="M336.52,1185.85l-16,16h16Z" transform="translate(0 0)"/><path class="cls-1" d="M328.51,1161.81h16l-8-8Z" transform="translate(0 0)"/><polygon class="cls-1" points="328.51 1025.6 328.51 1017.59 320.5 1025.6 328.51 1025.6"/><path class="cls-1" d="M328.51,1049.64h16l8-8-8-8-8,8-8-8-16,16Z" transform="translate(0 0)"/><path class="cls-1" d="M328.51,1177.84l-8-8-8,8Z" transform="translate(0 0)"/><path class="cls-1" d="M320.5,1185.85l-8,8v-8h8l-8-8-16,16,8,8v8h8l8,8,8-8-8-8Z" transform="translate(0 0)"/><rect class="cls-1" x="306.82" y="1051.98" width="11.33" height="11.33" transform="translate(-656.35 530.74) rotate(-45)"/><path class="cls-1" d="M312.49,1001.56h-16l8,8Z" transform="translate(0 0)"/><path class="cls-1" d="M312.49,1065.66h-16v16Z" transform="translate(0 0)"/><path class="cls-1" d="M304.47,1113.74v8h16l-8-8Z" transform="translate(0 0)"/><path class="cls-1" d="M296.46,1065.66l8-8v-8h-8Z" transform="translate(0 0)"/><path class="cls-1" d="M288.45,1049.64h-8v16l8,8v-16l8-8Z" transform="translate(0 0)"/><path class="cls-1" d="M288.45,1041.63l8-8,8,8v-16l-8-8-8,8-8-8-8,8v8h8Z" transform="translate(0 0)"/><polygon class="cls-1" points="280.44 1282 280.44 1273.99 272.43 1282 280.44 1282"/><path class="cls-1" d="M272.42,1049.64v-8l-8-8-8,8-8-8-8,8v16l8,8v8h8l8,8v8h8l8,8,8-8-24-24h16l-8-8Zm-16,8-8-8h16Z" transform="translate(0 0)"/><polygon class="cls-1" points="264.41 1265.98 264.41 1273.99 272.43 1265.98 264.41 1265.98"/><path class="cls-1" d="M232.36,1274l8,8,8-8Z" transform="translate(0 0)"/><polygon class="cls-1" points="224.35 1265.98 232.36 1273.99 232.36 1265.98 224.35 1265.98"/><path class="cls-1" d="M160.25,745.16h-8l-8,8h16l-8,8v16l-16,16h24v-8l8-8v-16l8-8-8-8Z" transform="translate(0 0)"/><path class="cls-1" d="M152.24,737.15h-16v8h16l8-8Z" transform="translate(0 0)"/><path class="cls-1" d="M144.22,769.2l8-8-8-8-8,8v24h8Z" transform="translate(0 0)"/><polygon class="cls-1" points="120.19 729.14 128.2 721.13 120.19 721.13 120.19 729.14"/><path class="cls-1" d="M112.17,753.17h16v-8h-8Z" transform="translate(0 0)"/><path class="cls-1" d="M112.17,737.15l-8-8-8,8Z" transform="translate(0 0)"/><path class="cls-1" d="M104.16,761.19l-8,8-8-8-8,8v16h16l8,8h16v-16Zm8,24h-8v-8Z" transform="translate(0 0)"/><polygon class="cls-1" points="88.14 753.18 80.13 753.18 88.14 761.19 96.15 753.18 88.14 753.18"/><path class="cls-1" d="M80.12,993.55h-16l-16,16v8h8l8-8h8v-8h16l8-8v-16Z" transform="translate(0 0)"/><path class="cls-1" d="M88.14,737.15h-8l-8,8v16h8v-8l8-8Z" transform="translate(0 0)"/><path class="cls-1" d="M88.14,985.54l-8-8h-8v8Z" transform="translate(0 0)"/><polygon class="cls-1" points="80.13 825.29 88.14 825.29 80.13 817.28 72.11 825.29 80.13 825.29"/><path class="cls-1" d="M72.11,801.25h-8l-8,8,8,8h16l8-8h-16l8-8Z" transform="translate(0 0)"/><polygon class="cls-1" points="72.11 697.09 72.11 705.1 80.13 705.1 72.11 697.09"/><path class="cls-1" d="M72.11,729.14l8-8h-16Z" transform="translate(0 0)"/><path class="cls-1" d="M64.1,993.55l8-8-8-8Z" transform="translate(0 0)"/><path class="cls-1" d="M72.11,969.51l-8-8-8,8Z" transform="translate(0 0)"/><path class="cls-1" d="M64.1,761.19v-24l-8,8v16l8,8Z" transform="translate(0 0)"/><path class="cls-1" d="M56.09,1266v-8l-8,8h-16l8,8-8,8h16l8-8v8h16v-8l-8-8Z" transform="translate(0 0)"/><path class="cls-1" d="M64.1,1073.67l-8-8-8,8Z" transform="translate(0 0)"/><polygon class="cls-1" points="56.09 945.48 48.08 945.48 56.09 953.49 56.09 945.48"/><path class="cls-1" d="M48.08,849.32l8,8-8,8h-16l8,8h16l16-16v-16l-8,8-8-8v8Z" transform="translate(0 0)"/><path class="cls-1" d="M56.09,713.11l8-8h-16Z" transform="translate(0 0)"/><path class="cls-1" d="M56.09,1001.56v-16l8-8-8-8-8,8v16l-8,8,8,8v-8Z" transform="translate(0 0)"/><polygon class="cls-1" points="48.08 1225.91 48.08 1217.9 40.06 1225.91 48.08 1225.91"/><path class="cls-1" d="M40.06,905.41l-16,16v8h8l8-8h8v-8l8-8v-16l-8,8v8Z" transform="translate(0 0)"/><path class="cls-1" d="M48.08,809.26v-24l-8,8h-8v8h8v8Z" transform="translate(0 0)"/><path class="cls-1" d="M48.08,769.2l8-8-8-8-8,8-8-8-8,8,16,16h8Z" transform="translate(0 0)"/><path class="cls-1" d="M48.08,737.15l-8-8v16l8,8Z" transform="translate(0 0)"/><path class="cls-1" d="M48.08,897.4h-16l8,8Z" transform="translate(0 0)"/><polygon class="cls-1" points="40.06 929.45 40.06 937.46 48.08 929.45 40.06 929.45"/><path class="cls-1" d="M40.06,985.54l-8-8v16l-16-16v16l8,8h16Z" transform="translate(0 0)"/><path class="cls-1" d="M32.05,961.5h16l-8-8Z" transform="translate(0 0)"/><path class="cls-1" d="M32.05,689.07h16l-8-8Z" transform="translate(0 0)"/><polygon class="cls-1" points="32.05 785.23 40.06 777.21 32.05 777.21 32.05 785.23"/><path class="cls-1" d="M40.06,857.34h8v-8l8-8h-16l-16,16,8,8Z" transform="translate(0 0)"/><polygon class="cls-1" points="32.05 889.39 24.04 889.39 32.05 897.4 40.06 889.39 32.05 889.39"/><polygon class="cls-1" points="32.05 825.29 40.06 825.29 32.05 817.28 32.05 825.29"/><path class="cls-1" d="M32.05,1266l-8,8v8h8Z" transform="translate(0 0)"/><path class="cls-1" d="M24,721.12H16l-8-8v16H24l8,8,8-8-8-8Z" transform="translate(0 0)"/><path class="cls-1" d="M32.05,1137.77H16l8,8Z" transform="translate(0 0)"/><path class="cls-1" d="M32.05,977.52l-8-8-8,8Z" transform="translate(0 0)"/><path class="cls-1" d="M32.05,1233.92v-8H24l-8,8Z" transform="translate(0 0)"/><path class="cls-1" d="M16,801.25l8-8-8-8Z" transform="translate(0 0)"/><path class="cls-1" d="M16,1057.65l-16,16H16v-8h8v-24h8l-8,8,8,8v8H24l-16,16H24v-8h8l8-8v-32.05l-8-8v8H24v-16l-24,24v16H8v-8l8-8Z" transform="translate(0 0)"/><polygon class="cls-1" points="16.02 745.16 24.04 745.16 16.02 737.15 16.02 745.16"/><polygon class="cls-1" points="8.01 1161.81 16.02 1161.81 16.02 1169.83 24.04 1161.81 16.02 1153.8 8.01 1161.81"/><polygon class="cls-1" points="8.01 1129.76 16.02 1129.76 16.02 1121.75 8.01 1129.76"/><path class="cls-1" d="M16,857.34v8l8-8v-16l-8,8v-8H8l-8-8v32.05l8-8Z" transform="translate(0 0)"/><path class="cls-1" d="M16,753.17H0l8,8Z" transform="translate(0 0)"/><path class="cls-1" d="M16,785.22l-8-8-8,8Z" transform="translate(0 0)"/><path class="cls-1" d="M16,833.3l-8-8-8,8Z" transform="translate(0 0)"/><path class="cls-1" d="M8,889.39v16l8-8Z" transform="translate(0 0)"/><path class="cls-1" d="M16,961.5l-8-8-8,8Z" transform="translate(0 0)"/><path class="cls-1" d="M16,1009.57l-8-8-8,8Z" transform="translate(0 0)"/><polygon class="cls-1" points="8.01 1249.95 16.02 1249.95 8.01 1241.94 8.01 1249.95"/><path class="cls-1" d="M8,1258l-8,8v16H16v-16H8Z" transform="translate(0 0)"/><polygon class="cls-1" points="8.01 1225.91 0 1233.93 8.01 1233.93 8.01 1225.91"/><path class="cls-1" d="M8,1185.85h8l-8,8,8,8,8-8h16v-8h8v-16l-8-8-8,8-8-8v16H8l-8,8v8H8Zm24-8h8l-8,8Z" transform="translate(0 0)"/><path class="cls-1" d="M8,921.44l8-8h16v-16l-8,8-8-8v8H8v8H0v16H8Z" transform="translate(0 0)"/><path class="cls-1" d="M8,801.25v-8l-8-8v24H8Z" transform="translate(0 0)"/><polygon class="cls-1" points="0 1017.59 0 1025.6 8.01 1017.59 0 1017.59"/><path class="cls-1" d="M0,1153.8v16H16Z" transform="translate(0 0)"/><polygon class="cls-1" points="1282 328.51 1282 320.5 1273.99 328.51 1282 328.51"/><path class="cls-1" d="M1274,0h-8l-8,8V0h-24l8,8h8v8h16l8,8,8-8V0Z" transform="translate(0 0)"/><polygon class="cls-1" points="1273.99 40.06 1282 32.05 1273.99 32.05 1273.99 40.06"/><path class="cls-1" d="M1274,368.58v8l-8-8v-16l-8-8-8,8,8,8v16l8,8h16V352.55l-8,8Z" transform="translate(0 0)"/><path class="cls-1" d="M1266,432.67l-8,8h24v-8Z" transform="translate(0 0)"/><path class="cls-1" d="M1266,304.47l8,8,8-8Z" transform="translate(0 0)"/><path class="cls-1" d="M1274,633h-16l8,8Z" transform="translate(0 0)"/><polygon class="cls-1" points="1257.96 48.08 1257.96 56.09 1265.97 48.08 1257.96 48.08"/><path class="cls-1" d="M1250,384.6h-8v-8l8,8V352.55l-8-8-16,16,8,8v16l8,8h8v8h16v8h8l8,8v-24h-16v-8Z" transform="translate(0 0)"/><path class="cls-1" d="M1258,344.54l-8-8-8,8Z" transform="translate(0 0)"/><polygon class="cls-1" points="1241.94 56.09 1249.95 64.1 1249.95 72.11 1257.96 72.11 1265.97 64.1 1265.97 56.09 1257.96 56.09 1249.95 48.08 1241.94 56.09"/><polygon class="cls-1" points="1241.94 328.51 1249.95 320.5 1241.94 320.5 1241.94 328.51"/><polygon class="cls-1" points="937.46 456.71 929.45 464.73 937.46 464.73 937.46 456.71"/><path class="cls-1" d="M929.45,416.65v-16h-8v-8l-8-8-8,8-8-8-16,16-8-8,8-8h8v-8h16l8-8h-8v-8l8,8v-16l-8-8-24,24v-16l-8-8-16,16-8-8-8,8,16,16,16-16v16l-8,8v16l8,8v8h16v-8h16l-8-8h8v8l-8,8v8h-24l8,8h8v8h16v-16l8,8Zm-16-8h8l-8,8Z" transform="translate(0 0)"/><polygon class="cls-1" points="921.44 488.76 921.44 480.75 913.42 480.75 921.44 488.76"/><path class="cls-1" d="M913.42,448.7l-8,8h16Z" transform="translate(0 0)"/><path class="cls-1" d="M905.41,328.51v16l8-8Z" transform="translate(0 0)"/><path class="cls-1" d="M905.41,40.06v-8h8l-8-8h-8v8h-8v8Z" transform="translate(0 0)"/><polygon class="cls-1" points="889.39 464.73 881.38 464.73 889.39 472.74 889.39 464.73"/><polygon class="cls-1" points="881.38 288.45 881.38 296.46 889.39 296.46 881.38 288.45"/><path class="cls-1" d="M873.36,312.49v16l8-8Z" transform="translate(0 0)"/><path class="cls-1" d="M865.35,16h16l8-8h32.05l8-8H881.37l-8,8V0h-24Z" transform="translate(0 0)"/><path class="cls-1" d="M865.35,352.55l-8-8-8,8Z" transform="translate(0 0)"/><path class="cls-1" d="M849.32,24h8l-8-8h-16l8,8Z" transform="translate(0 0)"/><path class="cls-1" d="M849.32,0h-16l8,8Z" transform="translate(0 0)"/><path class="cls-1" d="M841.31,344.54l8-8h-16Z" transform="translate(0 0)"/><path class="cls-1" d="M833.3,384.6l-16,16v8h-8v32.05l8-8h16l8,8,16-16-8-8,8-8v-16l-16-16v-8h-8l-8,8v8Zm-16,40.06v-8l8,8Zm24-8v8l-16-16h16l-8-8h8Z" transform="translate(0 0)"/><polygon class="cls-1" points="817.27 352.55 825.29 344.54 817.27 344.54 817.27 352.55"/><path class="cls-1" d="M817.27,8h8l8-8h-32l8,8Z" transform="translate(0 0)"/><path class="cls-1" d="M809.26,456.71h-8v8h16Z" transform="translate(0 0)"/><polygon class="cls-1" points="801.25 336.53 809.26 328.51 801.25 328.51 801.25 336.53"/><path class="cls-1" d="M809.26,408.64h-16l-8-8-8,8,16,16h16l-8-8Z" transform="translate(0 0)"/><path class="cls-1" d="M809.26,360.56l-8-8-8,8Z" transform="translate(0 0)"/><path class="cls-1" d="M801.25,8V0h-16l8,8Z" transform="translate(0 0)"/><path class="cls-1" d="M793.24,392.61l8,8h8v-8l16-16h-16l-16-16v16l-8,8h-8v8Z" transform="translate(0 0)"/><path class="cls-1" d="M785.22,464.72l8-8h-16l-8,8Z" transform="translate(0 0)"/><polygon class="cls-1" points="769.2 376.59 761.19 376.59 769.2 384.6 777.21 376.59 769.2 376.59"/><path class="cls-1" d="M769.2,8h8l8-8H753.17l8,8Z" transform="translate(0 0)"/><polygon class="cls-1" points="753.17 368.58 745.16 376.59 753.17 376.59 753.17 368.58"/><path class="cls-1" d="M745.16,408.64h-8v8l8,8h24v8h8v8h16v-8h-8l-8-8v-24h8l-16-16h-16l-8-8-8,8-8-8v16Zm16-8h-8l16,16h-16v-16l8-8Z" transform="translate(0 0)"/><polygon class="cls-1" points="600.94 128.2 592.92 128.2 600.94 136.21 600.94 128.2"/><path class="cls-1" d="M592.92,208.33l-8-8-8,8Z" transform="translate(0 0)"/><polygon class="cls-1" points="584.91 112.18 576.9 112.18 584.91 120.19 584.91 112.18"/><polygon class="cls-1" points="568.89 80.13 560.88 80.13 568.89 88.14 568.89 80.13"/><path class="cls-1" d="M552.86,104.16l-8-8-8,8Z" transform="translate(0 0)"/><path class="cls-1" d="M544.85,128.2l-8-8-8,8Z" transform="translate(0 0)"/><path class="cls-1" d="M536.84,216.34l8-8-8-8h-16l8,8v8Z" transform="translate(0 0)"/><polygon class="cls-1" points="512.8 112.18 504.79 120.19 512.8 120.19 512.8 112.18"/><polygon class="cls-1" points="496.77 144.23 504.79 152.24 504.79 144.23 496.77 144.23"/><path class="cls-1" d="M480.75,192.3l-8,8h16Z" transform="translate(0 0)"/><path class="cls-1" d="M472.74,152.24l8-8h-16Z" transform="translate(0 0)"/><path class="cls-1" d="M464.72,128.2l-8-8-8,8Z" transform="translate(0 0)"/><path class="cls-1" d="M440.69,160.25v-8l-8-8-8,8v8h8l-8,8v16l8-8h16v-8h8l-8,8,8,8,8-8,8,8h16v-8h8v8h8l8-8h8v8h16l8-8,8,8h16l8-8,8,8,16-16h16l8-8-8-8v-8h-8v16h-8v-8h-8v-8l-8-8v32l-8-8v8h-8l8-8v-16l-16,16v-16l-8,8-8-8v16l-16,16v-16l8-8v-8h-8l-16,16v8h-8l8-8-8-8-16,16v-8h-8v16l-8-8v-8h-8l-8-8-16,16Zm120.19,8v8l-8-8Z" transform="translate(0 0)"/><polygon class="cls-1" points="440.69 128.2 432.68 128.2 440.69 136.21 440.69 128.2"/><path class="cls-1" d="M440.69,104.16h-16l8,8Z" transform="translate(0 0)"/><path class="cls-1" d="M432.67,192.3l-8,8h16Z" transform="translate(0 0)"/><polygon class="cls-1" points="416.65 136.21 408.64 136.21 416.65 144.23 424.66 136.21 416.65 136.21"/><polygon class="cls-1" points="416.65 152.24 416.65 144.23 408.64 152.24 416.65 152.24"/><polygon class="cls-1" points="416.65 112.18 408.64 120.19 416.65 120.19 416.65 112.18"/><path class="cls-1" d="M400.62,192.3l-8,8h24v-8Z" transform="translate(0 0)"/><path class="cls-1" d="M400.62,96.15h-16l8,8Z" transform="translate(0 0)"/><polygon class="cls-1" points="392.61 408.64 392.61 400.63 384.6 400.63 392.61 408.64"/><path class="cls-1" d="M392.61,456.71h16l16-16-8-8v-8h-8l-8,8v16h-16v8Z" transform="translate(0 0)"/><path class="cls-1" d="M384.6,480.75h-16l-8,8h32.05Z" transform="translate(0 0)"/><polygon class="cls-1" points="376.59 120.19 376.59 128.2 384.6 128.2 376.59 120.19"/><path class="cls-1" d="M376.59,448.7h8l8-8-8-8h-16l8,8Z" transform="translate(0 0)"/><path class="cls-1" d="M368.58,160.25h8v-8l8-8-8-8-16,16h8Z" transform="translate(0 0)"/><polygon class="cls-1" points="368.57 424.66 360.56 424.66 368.57 432.68 376.59 424.66 368.57 424.66"/><polygon class="cls-1" points="368.57 88.14 360.56 88.14 368.57 96.15 368.57 88.14"/><path class="cls-1" d="M368.58,112.17l-8-8-8,8Z" transform="translate(0 0)"/><polygon class="cls-1" points="360.56 408.64 360.56 416.65 368.57 416.65 360.56 408.64"/><path class="cls-1" d="M360.56,392.61l-8-8-8,8Z" transform="translate(0 0)"/><polygon class="cls-1" points="352.55 128.2 344.54 136.21 352.55 136.21 352.55 128.2"/><polygon class="cls-1" points="344.54 464.73 336.52 464.73 344.54 472.74 344.54 464.73"/><polygon class="cls-1" points="336.52 352.55 344.54 344.54 336.52 344.54 336.52 352.55"/><path class="cls-1" d="M328.51,152.24l-16,16h16l8-8v16h16l8,8h16l16-16,16,16h8v-24h-16l8,8h-8v-8l-16-16v16l-16,16-8-8,8-8-16-16v16l-8,8v-32l-8-8-8,8,8,8Z" transform="translate(0 0)"/><path class="cls-1" d="M320.5,368.58h16l-8-8Z" transform="translate(0 0)"/><polygon class="cls-1" points="320.5 112.18 312.49 120.19 320.5 120.19 320.5 112.18"/><path class="cls-1" d="M320.5,144.22h8v-8h-16l-8,8,8,8Z" transform="translate(0 0)"/><polygon class="cls-1" points="312.49 376.59 312.49 384.6 320.5 384.6 312.49 376.59"/><polygon class="cls-1" points="304.48 344.54 304.48 352.55 312.49 344.54 304.48 344.54"/><path class="cls-1" d="M304.47,192.3l8-8h-16l-8,8Z" transform="translate(0 0)"/><path class="cls-1" d="M296.46,120.19l-8-8-8,8Z" transform="translate(0 0)"/><path class="cls-1" d="M296.46,392.61l-8-8-8,8Z" transform="translate(0 0)"/><path class="cls-1" d="M296.46,456.71l-8-8-8,8Z" transform="translate(0 0)"/><path class="cls-1" d="M280.44,184.29l-8,8h16Z" transform="translate(0 0)"/><path class="cls-1" d="M272.42,352.55l8,8,8-8Z" transform="translate(0 0)"/><path class="cls-1" d="M280.44,168.26h16l8-8,8,8v-16h-8v-8l-8-8h-8v8l8,8h-24v-8l8,8v-16l-8-8-8,8v16Z" transform="translate(0 0)"/><path class="cls-1" d="M280.44,376.59h-16l8,8Z" transform="translate(0 0)"/><polygon class="cls-1" points="264.41 504.79 264.41 512.8 272.43 512.8 264.41 504.79"/><path class="cls-1" d="M256.4,432.67h8v8h16l8-8h8v8h8v-8l-8-8v-8h8l8,8v-8h24l-8,8,8,8h-8v-8h-8v8l-8,8h16l8,8,8-8v16h16l8-8v-16h-16l8,8-8,8v-16l-8-8,8-8v-16h-16v8h-8l8-8h-16l-8,8-8-8-8,8v-16l-8,8-8-8h-16v16h8v-8l16,16h-16l-16-16v-8h-8l-8-8v32Zm8-16v8l-8-8Z" transform="translate(0 0)"/><polygon class="cls-1" points="232.36 8.01 224.35 16.03 232.36 16.03 232.36 8.01"/><path class="cls-1" d="M192.3,16h16V8h-8Z" transform="translate(0 0)"/><path class="cls-1" d="M168.26,424.66l8,8h8v-8Z" transform="translate(0 0)"/><path class="cls-1" d="M168.26,8h16V0h-8Z" transform="translate(0 0)"/><polygon class="cls-1" points="168.26 368.58 168.26 376.59 176.28 368.58 168.26 368.58"/><path class="cls-1" d="M168.26,400.62v-8h-16v8h8l8,8v8h8l8-8v-16l-8,8Z" transform="translate(0 0)"/><path class="cls-1" d="M160.25,456.71h-8l-8,8h32.05l-8-8Z" transform="translate(0 0)"/><polygon class="cls-1" points="152.24 376.59 152.24 384.6 160.25 384.6 152.24 376.59"/><path class="cls-1" d="M144.22,416.65l8,8h8v-16h-8l-8-8h-8v8l-8,8v-16l-8,8-8-8v16l8,8h16Z" transform="translate(0 0)"/><path class="cls-1" d="M128.2,400.62l-8-8-8,8Z" transform="translate(0 0)"/><path class="cls-1" d="M16,368.58h16v-16l8-8-8-8-8,8H16v8h8v8l-8-8-8,8v8H0v8H8Z" transform="translate(0 0)"/><path class="cls-1" d="M8,352.55v-8l-8,8v16l8-8Z" transform="translate(0 0)"/><polygon class="cls-1" points="8.01 312.49 0 320.5 8.01 320.5 8.01 312.49"/><polygon class="cls-1" points="0 344.54 8.01 344.54 0 336.53 0 344.54"/><polygon class="cls-1" points="0 400.63 0 408.64 8.01 408.64 0 400.63"/><g id="Export"><line id="Export-2" data-name="Export" class="cls-2" x2="1282"/><line id="Export-3" data-name="Export" class="cls-2" x1="1282" y1="1282" y2="1282"/></g></g></g></svg>