<svg viewBox="0 0 640 640" xmlns="http://www.w3.org/2000/svg"><path d="m0 0h640" fill="#86573a"/><path d="m640 640h-640" fill="#86573a"/><g fill="#9e7a42"><g transform="translate(320 320)"><path d="m316 276-4 4h-4v12l4-4 4 4v-8l4 4v-16h-4z"/><path d="m316 120h-4l-4 4-4-4v-16l-4-4h-4v-4h-8l-4 4-8-8h-4v-4h-8l-8 8v8l-8 8v16l8-8v-4h4l4 4 4-4v-8l4 4v8h8l4-4 4 4h8v-4h4l-4 4 8 8v4h4l4 4v-8l4 4v8l4-4v-24l-4 4zm-56-20h8l-4 4zm20 4 4 4h-8zm12 4-4-4h8v8z"/><path d="m312 88-4 4v8l4 4h8l-4-4v-8l4 4v-12h-4z"/><path d="m312 48-4 4v8l-4 4v4h4l8 8 4-4v-8l-4 4v-8l-4-4h4v4l4 4v-16z"/></g><path d="m632 632 4-4h-4z"/><path d="m632 348h-4l4 4z"/><path d="m628 460v4h4z"/><path d="m624 368 4 4v-4z"/><path d="m624 516h4l-4-4-4 4z"/><path d="m300 288h-4l-8 8v4h-4l-4 4 4 4 4-4 4 4 4-4 4 4v-8h-4v-4l8 8-4 4h8v-8l12 12v-8l-16-16z" transform="translate(320 320)"/><path d="m616 344v4h4z"/><path d="m292 308 4 4 4-4z" transform="translate(320 320)"/><path d="m292 172 4 4h4v-4z" transform="translate(320 320)"/><path d="m604 468-4 4h4z"/><path d="m284 172-4-4-4 4z" transform="translate(320 320)"/><path d="m276 164h8v-4h-4z" transform="translate(320 320)"/><path d="m276 148 4-4h-8z" transform="translate(320 320)"/><path d="m596 448v-4l-4 4 4 4z"/><path d="m584 512 4-4h-4z"/><path d="m264 168h-4v-4h-8l-4-4-4 4v8l-4-4h-8l-4 4v8l4 4 4-4 4 4 8-8 12 12v-8l4 4v-4h4l4-4zm-32 4h4l-4 4zm28 4h-4l4-4 4 4z" transform="translate(320 320)"/><path d="m576 448-4 4h4z"/><path d="m248 184h-8l4 4z" transform="translate(320 320)"/><path d="m232 184 4 4 4-4z" transform="translate(320 320)"/><path d="m548 512h4l-4-4z"/><g transform="translate(320 320)"><path d="m144 76h-4l-12-12h-12v4h-8v8l-4 4-4-4-4 4h-4v-4l-16-16h-16v4h-4l-12 12v8l8 8 4-4-4-4 4-4h-8l4-4 4 4v8h8l4-4-8-8v-8l4 4h8l8 8h8l-4 4h-8l-4-4-4 4v8l4 4 4-4-4-4h8l-4 4v4h4l8-8v8l4-4 4 4 12-12 8 8v-8l-4-4v-8l4 4h8l4 4 4-4 4 4h-8l-4 4h-8l4 4v8l-4 4 4 4 4-4h4v-4l4-4h-8l8-8h8l-8 8 4 4v-4h12v-8l-4-4zm-64 0v-4l4 4zm16 12-4-4h8z"/><path d="m116 92h-8l4 4-4 4v-8l-4 4h-8v4h4l4 4h8v-4h4z"/><path d="m104 152h8l-4-4z"/><path d="m108 116h-8l4 4z"/></g><path d="m411.11 524.89.89-.89h-.89z"/><path d="m411.03 524h.08v-.08z"/><path d="m88 207c-.22.23-.67.68-.89.89h.82l.07.11.08-.08h-.08z" transform="translate(320 320)"/><path d="m404 424h-4l4 4 4-4z"/><path d="m396 556 4-4h-4z"/><path d="m72 212h-4l-4-4h-8l-4-4-4 4v4h-4l-4 4h-8l-4 4-8-8h-16l-4 4 4 4h-8l-4 4h-8l-4 4v4h-4l-4 4 4 4h8l4 4 4-4h4v-12h8l4-4h8l4-4 8 8-4 4 4 4 4-4 4 4h8v-8h-8l-4-4h8l4 4 8-8v-8l8 8h8l-8 8 8 8h4v-4l4-4h-8l4-4 4 4 4-4v-8l-4-4zm-88 24h-4l8-8v8zm76-20v-4l4 4z" transform="translate(320 320)"/><path d="m72 80-8-8v8z" transform="translate(320 320)"/><path d="m392 560-4-4v4z"/><path d="m384 424-4 4h4z"/><g transform="translate(320 320)"><path d="m56 280h8l-4-4z"/><path d="m56 232 4 4 4-4z"/><path d="m56 136h8l-4-4z"/><path d="m56 228h-8v4l4 4 8-8z"/></g><path d="m372 560h-4l4 4z"/><path d="m52 100h-8l4 4z" transform="translate(320 320)"/><path d="m40 272h8l-4-4z" transform="translate(320 320)"/><path d="m364 560h4l-4-4-4 4z"/><path d="m360 364v4l4-4z"/><path d="m360 416 4-4h-4z"/><path d="m40 32v-8l-4 4z" transform="translate(320 320)"/><path d="m356 568v4l4-4z"/><path d="m36 28-4-4v8l4 4h4v-4h-4z" transform="translate(320 320)"/><path d="m348 352v4l4-4-4-4z"/><path d="m28 20-4 4h-8l4 4v4h4l4-4z" transform="translate(320 320)"/><path d="m20 236h-4v-4l-4-4-8 8 4 4 4-4 8 8 4-4h4v-4z" transform="translate(320 320)"/><path d="m340 604 4-4h-4z"/><path d="m8 240 4 4 4-4z" transform="translate(320 320)"/><path d="m8 24v8l4 4 4-4v-8l-4 4z" transform="translate(320 320)"/><path d="m320 364h4l-4-4z"/><path d="m0 236v4l4 4v-8l-4-4z" transform="translate(320 320)"/><path d="m316 568h4l-4-4z"/><path d="m316 580v-4h-4z"/><path d="m304 572h4l-4-4z"/><path d="m304 612h4l-4-4z"/><path d="m296 392 4-4h-4z"/><path d="m-24 32-4-4v4h-4l8 8 4-4h-4z" transform="translate(320 320)"/><path d="m-24 24 4-4h4v4l4 4-4 4v-8l-8 8 4 4h8l8-8 4 4 4-4-4-4v-8l-4-4h8l4-4v8h-8l8 8h8l-4-4v-8l8 8h8l4 4v-8h-8l4-4 8 8 8-8h-4v-4l4 4v8l-4 4 4 4v4h4l4-4h-4v-4h8v-8l-4-4h-4v-4l-8-8-4 4-4-4h-8v-4h-4l-4-4h-12v4l-4 4v4h-4l-8 8h-8l-8-8h-4v4h-8l-4 4h-4v4l-4-4h-4v-4l-4-4h-8l-8-8h-8l-4 4v4h-4v4h-4l-8 8 4 4h-4v4h-8l-4 4v-4h-4l-4-4v-4h-12l-8 8v12h-4l-8 8v8l4 4 4-4-4-4 8-8 8 8h-8l8 8 4-4v-8l-4-4v-8l-4-4h4v4l8 8h8v-8l4 4-12 12 4 4 8-8v4h-4v8l4-4 4 4v-16l4-4h4v-4l8 8 4-4-8-8h8v-16l4 4-4 4 12 12v-24l8 8h-8l4 4v8l4 4 4-4 4 4v-8h-8l8-8v8l4-4v12h4l4-4-4-4h8l-4 4 8 8 4-4v4h4v-8l4-4h-8l-4 4v-8l4 4 4-4 4 4zm36-20v-4h4zm-140 20h4v4zm48-20v-4l4 4zm12 8 4-4v4zm60 12-4-4h8zm-20-12v4h-4z" transform="translate(320 320)"/><path d="m-32 32 4-4-4-4z" transform="translate(320 320)"/><path d="m288 356h-4l4 4z"/><path d="m284 368h4l-4-4z"/><path d="m280 424v-4h-4z"/><path d="m272 384v4h4z"/><path d="m268 356v4h4z"/><path d="m-64 240h8l-4-4z" transform="translate(320 320)"/><path d="m256 360v4h4z"/><path d="m-64 200 4-4h-4v-4h-4v-4l-4-4 4-4-12-12v-4h-12l-8 8v8l-4-4-4 4h-8l-4 4v8l4-4 4 4 8-8 4 4v-4h4l4 4v-8l4 4-4 4v8l4-4 8 8v-8l-4-4v-8l4-4v16l8 8 4-4v4zm-24-24-4-4h8zm12 16v-4l4 4z" transform="translate(320 320)"/><path d="m248 536 4-4h-4z"/><path d="m248 416-4 4h4z"/><path d="m232 564h4l-4-4z"/><path d="m232 532h-4l4 4z"/><path d="m232 352-4 4h4z"/><path d="m-92 44-4 4v4h4l4-4v-8l-4-4z" transform="translate(320 320)"/><path d="m228 392h4l-4-4z"/><path d="m228 380v-4h-4z"/><path d="m-100 188-4 4 4 4 8-8z" transform="translate(320 320)"/><path d="m-100 100h8l-4-4z" transform="translate(320 320)"/><path d="m-96 40-4 4h-8v8l-4 4h8l4-4-4-4h8z" transform="translate(320 320)"/><path d="m-112 192 4 4 4-4z" transform="translate(320 320)"/><path d="m208 380v-4l-4 4z"/><path d="m204 620 4-4h-4z"/><path d="m-112 80-4-4-4 4z" transform="translate(320 320)"/><path d="m204 536h4l-4-4z"/><path d="m-120 144v8l4-4v4h4l4-4v8l4-4 4 4 4-4v-4h-4v-8h-8l-4-4-4 4h-4z" transform="translate(320 320)"/><path d="m200 516v4l4-4z"/><path d="m-124 264v-4l-4-4h-8l4-4-8-8h-8l-8 8-4-4h-4v4l-4 4v8l-4 4 4 4 8-8 4 4h-8l8 8 4-4v-8l4 4 8-8v8l8 8 4-4h-4v-4l4 4h8l-4-4zm-28-4h-4l4-4 4 4zm4-8h4v4z" transform="translate(320 320)"/><path d="m176 524v-4l-4 4z"/><path d="m176 380v-4l-4 4z"/><path d="m-144 56v-8l-4 4z" transform="translate(320 320)"/><path d="m-148 72h-4l-4 4h8l4-4z" transform="translate(320 320)"/><path d="m-148 204h-8v4h4z" transform="translate(320 320)"/><path d="m-156 308h8l-4-4z" transform="translate(320 320)"/><path d="m168 536v-4h-4z"/><path d="m-156 196 4 4 4-4 4 4v-8h-4v-4l-4-4v-4h-4l-4-4h-8l-4-4-4 4h-8l-4 4v4h-4v8l8 8 4-4h-4v-4l4-4 4 4 4-4 4 4 4-4v16zm-16-16h8l-4 4zm16 8v4h-4z" transform="translate(320 320)"/><path d="m-164 204 4 4 4-4z" transform="translate(320 320)"/><path d="m156 596 4-4h-4z"/><g transform="translate(320 320)"><path d="m-160 232-4-4h-4v4z"/><path d="m-164 212-4-4-4 4z"/><path d="m-176 316v-4l-4-4h-4v-4h-8l-4 4h-8v-4h-4l-4 4v8l-4 4h16l-8-8h4v4h8l-4 4h16l4-4v4h12l-4-4zm-12 0v-4h4z"/><path d="m-180 204h12v-4l-4-4-4 4-4-4z"/><path d="m-184 240h8l-4-4z"/><path d="m-196 204 4 4 4-4z"/><path d="m-196 196 4 4 4-4z"/><path d="m-236 44-4-4h-8v-4h-4l-8-8-4 4v4h-4l-4 4v-8l-4-4v-4h-8v-4l-8-8h-8v4h-4l-8 8v12h-4l4 4h8v-8l4-4v12h-4l8 8 4-4v-8l-4-4h8l-4 4 4 4h8v-8h-4v-4l8 8-8 8v8l4-4h4v4l-4 4h8l-4 4 4 4 4-4v-8l4 4 4-4h4v4h-8l8 8 4-4v-12h12l-4 4h8l4 4v-8h-4zm-64-20h-4l4-4 4 4zm40 20v-4h4zm-8 4h-4l4-4 4 4z"/><path d="m-240 56h-8l4 4z"/><path d="m-252 52 4 4 4-4z"/></g><path d="m68 420 4-4h-4z"/><path d="m-268 84h8l-4-4z" transform="translate(320 320)"/><path d="m-276 160h-4l-4-4h-4v-4l-4-4h-8l-4 4h-8l-4-4h-4v12l4-4 4 4h-8v24l4-4 4 4h-8v4h4l-4 4v8l12-12v8h4v-12l-12-12v-8l4 4 4-4 8 8v-8l4 4 8-8 4 4h-8l8 8v-4h4l4 4 4-4-4-4zm-24 0h-4l4-4 4 4zm4-8h4v4z" transform="translate(320 320)"/><path d="m40 380v4l4-4-4-4z"/><path d="m-292 44v8l8-8-4-4z" transform="translate(320 320)"/><path d="m28 424v-4l-4 4z"/><path d="m-296 204h-4v4h12l-4-4z" transform="translate(320 320)"/><path d="m-296 304v-4h-4l-4-4h-16v16l4-4 8 8 4-4h8l4-4h-4zm-20 0v-4l4 4z" transform="translate(320 320)"/><path d="m24 532v-4l-4 4z"/><path d="m24 452v-4l-4 4z"/><path d="m16 592 4-4h-4z"/><path d="m16 396h4l4-4-4-4-4 4z"/><path d="m20 540-4-4v4z"/><path d="m12 524 4-4h-4z"/><path d="m12 448v4l4-4-4-4z"/><path d="m-312 168 8 8v-8z" transform="translate(320 320)"/><path d="m8 580h-4l4 4z"/><path d="m8 452v-4l-4 4z"/><g transform="translate(320 320)"><path d="m-312 128v-8l4-4v8h8l-4 4h8l4-4h-4v-4l-12-12-4 4v-4h-4l-4 4v16l4-4z"/><path d="m-312 100v4l8-8v8l4-4h8l4 4 4-4-4-4h-8l4-4v-8h-8v-4h-12l-4 4h-4v12l4-4 4 4h-8l4 4zm12-8h-4v-4z"/><path d="m-312 72v-8l4 4-4 4 4 4 4-4v-4h4l-8-8 4-4 4 4 4-4-12-12h-8l-4-4v16h8l-4 4-4-4v16l4-4zm0-20v-4l4 4z"/><path d="m-312 72h-8l4 4z"/><path d="m-312 288v8l4-4v-8l-8-8h-4v20z"/><path d="m-316 256v-4l4-4h8l-4 4 4 4h-4v-4l-4-4v8l8 8 4-4 4 4v-8l-4-4 4-4-12-12v-4h-4l-4-4h-4v28l4 4zm4-16v4h-4z"/><path d="m316-308h-8v8l-4 4 4 4v-4h4l4-4v-4h4v-8z"/><path d="m316-296v4l4-4v-8l-4 4z"/><path d="m312-180v4h-8l-4 4v8h-8v8l8 8 4-4 12 12 4-4v-4h-4l-12-12-4 4v-4h12v8h8v-4h-4l4-4v-8l-4 4-4-4h8v-12z"/><path d="m316-108-4-4-4 4z"/><path d="m312-16-4 4v4h-4v4h-4l-4 4v4h-4v8l4 4h8l4 4 4-4-8-8-4 4-4-4h8v-8l4 4v8h8l4 4v-12h-4v4h-4v-8l-4-4h8l-4 4 4 4 4-4v-16l-4 4z"/></g><path d="m632 28v-4l-4 4z"/><path d="m624 224v-4h-4z"/><path d="m300-148 4 4 4-4z" transform="translate(320 320)"/><path d="m620 188v4h4z"/><path d="m456 208 4-4h-4z"/><path d="m452 8v4l4-4z"/><path d="m452 184h4l-4-4z"/><path d="m452 204v-4h-4z"/><path d="m124-124h-8l4 4z" transform="translate(320 320)"/><path d="m120-88h-8l-4 4h8z" transform="translate(320 320)"/><path d="m436 244v-4h-4z"/><path d="m104-144 4 4 4-4z" transform="translate(320 320)"/><path d="m420 204v-4h-4z"/><path d="m412 220v4h4z"/><path d="m412 192v-4l-4 4z"/><path d="m92-308-4-4-4 4z" transform="translate(320 320)"/><path d="m408 208v4h4z"/><path d="m80-88-4-4-4 4z" transform="translate(320 320)"/><path d="m388 204 4-4h-4z"/><path d="m384 220h-4l4 4z"/><path d="m376 200h4v-4z"/><path d="m52-132 4-4v4h-4l4 4h8l-4-4h8l-4 4h8v-8l8-8 4 4h-8l8 8 4-4v-12h4l-4 4 4 4v8l4-4v-8l4 4 8-8 4 4 4-4 4 4h4v-12l4 4-4 4h4v4l4-4v-8l4 4-4 4 4 4v8l-8 8 4 4 12-12v-8l-4-4v-8l-8-8v-8l-8-8h-8l-4 4h-8v8l-4 4-4-4h-8v4h-4l-4 4h-8v12h-4l-4 4v8l-4-4h-8v4h-4l-4 4 4 4zm48-16-4-4h8zm16-8v-8l4 4zm8-16h-4v-4zm-40 16-4 4v-4z" transform="translate(320 320)"/><path d="m308 96v-4l-4 4z"/><path d="m288 84v-4l-4 4z"/><path d="m280 88v-4h-4z"/><path d="m272 100v-4l-4 4z"/><path d="m-60-220-4-4h-8v4z" transform="translate(320 320)"/><path d="m256 84v-4l-4 4z"/><path d="m252 108 4-4h-4z"/><path d="m248 76v4l4-4-4-4z"/><path d="m228 76 4 4h4v-4l-4-4z"/><path d="m228 92v4h4z"/><path d="m224 84v4l4-4z"/><path d="m-104-252h-4l-4 4 4 4 4-4 4 4v-8l-4-4z" transform="translate(320 320)"/><path d="m-108-220h-8l-4 4h8z" transform="translate(320 320)"/><path d="m208 248v-4h-4z"/><path d="m200 80v4h4z"/><path d="m-128-84h-4l4 4h8l-4-4z" transform="translate(320 320)"/><path d="m188 96h4l-4-4z"/><path d="m184 76h-4l4 4z"/><path d="m-144-216h8l-4-4z" transform="translate(320 320)"/><path d="m-144-72-4-4-4 4z" transform="translate(320 320)"/><path d="m168 204v-4l-4 4z"/><path d="m-156-228h-8l4 4h8l4-4z" transform="translate(320 320)"/><path d="m164 216h4l-4-4z"/><path d="m156 76-4-4v4z"/><path d="m148 92v-4h-4z"/><path d="m-180-124 4 4 4-4z" transform="translate(320 320)"/><path d="m-176-256v4h4l4 4v-16l4 4 4-4v4h-4v8h8v-8l8 8 4-4v4h-4l8 8v-16l4-4h-8l4-4 4 4v16l4-4 8 8v-4h4v4h4l4-4-4-4h8v-8l4-4-4-4h8l-4 4v8h4v4l4 4v8l4-4v-8l4 4h8l-4 4 4 4h4v-12l4 4h4v4l4 4v-16l4-4v16l4-4h4v-4l4-4h-8l4-4 4 4v8l4 4 4-4v-8l4 4v8l4-4v-8l4-4-4-4h4v12l4 4v4h4v-8l-4-4h4v4l4 4h4v-4l-4-4v-8h-4v-4l-4-4h-8v-8l-8-8h-4v4h-8l-4 4v8l-4-4h-8l-4 4v8l-4 4h-4v4l-4-4h-4v-4l-8-8h-4v-4h-8l-4 4-4-4v-4h-4l-4-4h-8l-4 4h-8l-4 4v8h-8l-8-8h-4v4h-8l-4 4h-4v12l4 4zm140-8v4h-4v-4l4-4zm0-16v4l-4-4zm-12 8 4 4h-8zm-16 8v4h-4zm-24 8h-8l4-4zm-44 0v-4l4 4zm8 4v-8l4-4v8zm12-8h-4l4-4zm-12-8-4-4h8zm-12-8v4l-4-4zm-40 12 4 4h-8z" transform="translate(320 320)"/><path d="m136 72v4h4z"/><path d="m136 200v4h4z"/><path d="m136 236v-4l-4 4z"/><path d="m132 248v-4l-4 4z"/><path d="m132 212v-4h-4z"/><path d="m-192-124v-4l4 4h8l4-4 4 4 4-4-4-4v-8l4 4v16l4 4 4-4v-8h-4v-4l4 4h8v-8h-8l4-4 4 4 4-4v8l-4 4v4h-4v4h12l4-4h-8l4-4 4 4v8l4 4h-4v-4l-8 8 4 4h8l-4-4h8v-8l4 4-8 8h8l4 4v-8l4-4v8l4-4v-8l-8-8h-8v-8l-4-4h-4v-4l-4-4v-8h-4v-4h-24l-4 4v4h-12v8l-4 4v4h-4l-4 4 4 4zm68 4v4l-4-4zm-44-28h4l-4 4zm16 4v-4h4zm-28 0h4l-4 4-4-4zm-4 12h4l-4 4-4-4z" transform="translate(320 320)"/><path d="m92 16h4l-4-4z"/><path d="m-236-144h-12v12h-8v4h-8v8l4-4 4 4 4-4v4h4v-8l4 4h8v-12h4l-4 4 4 4v8l4-4v-16l-4-4zm-8 16v-4l4 4z" transform="translate(320 320)"/><path d="m84 224h4v4h-4z"/><path d="m68 220v4h4z"/><path d="m68 8h4l-4-4-4 4z"/><path d="m64 0-4 4h4z"/><path d="m-264-120 4 4 4-4z" transform="translate(320 320)"/><path d="m12 180v-4h-4z"/><path d="m4 180-4 4h4z"/><path d="m-316-156 4 4v4h4l4-4v-8l-4 4-4-4v-8l-4-4h-4v12l4-4v4h-4v8l4 4z" transform="translate(320 320)"/><path d="m0 172v4l4-4z"/></g></svg>