<svg viewBox="0 0 640 640" xmlns="http://www.w3.org/2000/svg"><g fill="#86573a"><path d="m0 0h640"/><path d="m640 640h-640"/><path d="m640 324v-4l-4 4z"/><path d="m312 312-4 4v-8h-8l-4 4v8h4v-4l4-4v8h16v-8l-4-4z" transform="translate(320 320)"/><path d="m312 200h8v-4h-4z" transform="translate(320 320)"/><path d="m312 104-4-4h-4v12l4 4h8l4-4h-8l-4-4h8l4 4v-8z" transform="translate(320 320)"/><path d="m636 376h-4l4 4z"/><path d="m312 28v4l-8-8h8l4 4 4-4-4-4v-4h-4l-4 4h-8l-8-8-4 4 4 4v8l4 4h8l4 4h8l4-4h-4v-4zm-16 0v-4l4 4z" transform="translate(320 320)"/><path d="m312 76h-4v-8h-4v-4l-4 4v8l-4 4 4 4h8v4h4l4-4-4-4h8v-8l-4 4z" transform="translate(320 320)"/><path d="m312 140v-4l-4-4h-4v-4l-8-8v8l-8 8h4v4h8l-8 8v4h4l8-8 4 4v8l4 4h4v4h4v-12l-8-8h-4v-4l4 4h8v-8l-4 4zm4 12v4l-4-4zm-16-16v-4l4 4z" transform="translate(320 320)"/><path d="m312 288-4 4 12 12v-8z" transform="translate(320 320)"/><path d="m632 628h4l-4-4z"/><path d="m304 8h-8l4 4z" transform="translate(320 320)"/><path d="m304 56-4-4-4 4z" transform="translate(320 320)"/><path d="m616 436v4l4-4z"/><path d="m300 164-4-4-4 4z" transform="translate(320 320)"/><path d="m616 620h4l-4-4z"/><path d="m300 308-4-4-4 4z" transform="translate(320 320)"/><path d="m296 112v-8h-8z" transform="translate(320 320)"/><path d="m292 172h8l-4-4h-4z" transform="translate(320 320)"/><path d="m612 632h4l-4-4z"/><path d="m288 176 4 4h8v-4z" transform="translate(320 320)"/><path d="m288 308v-4l-4 4-4-4v8h-4v4l4 4h12v-4l-4-4z" transform="translate(320 320)"/><path d="m288 128h4v-4l4-4h-8v4h-4v-8l-4 4h-8l-4-4-4 4-4-4h-4v4l-12 12v4h4l4 4-4 4 4 4h16l4 4h4v4h8l4-4-4-4v4h-4l4-4v-8l4 4zm-32 0v4h-4zm20 20-4-4h8zm4-8h-12l-4-4-4 4-4-4h8l-4-4v-8l4 4v8h8l4 4 4-4-8-8 4-4 4 4z" transform="translate(320 320)"/><path d="m604 552h4l-4-4-4 4z"/><path d="m280 168 4 4 4-4z" transform="translate(320 320)"/><path d="m284 108-4-4-4 4z" transform="translate(320 320)"/><path d="m272 168-4 4h8z" transform="translate(320 320)"/><path d="m588 472h-4l4 4z"/><g transform="translate(320 320)"><path d="m268 100h-8l4 4z"/><path d="m264 180v4l-4 4-4-4-4 4v12h4v-8h8v-4h4l-12 12h8v-4h8v-20l-4 4z"/><path d="m264 176-4-4-4 4z"/><path d="m252 180-4-4-8 8h8l-4 4h8z"/><path d="m244 224h-4l4 4h8v-4z"/><path d="m240 200-4-4 4-4h-4v-4l-8-8-4 4v16h8l4 4v4h8v-4l4-4zm-12-12 4 4h-4z"/><path d="m240 188v4l8 8v-8l-8-8z"/><path d="m240 184-4-4-4 4z"/></g><path d="m552 492v4l4-4z"/><g transform="translate(320 320)"><path d="m144 92h-8v4l-4-4-4 4 4 4-8 8v-8l-4 4-4-4h-4v4l8 8h8l4-4h4v-4l4-4v12h-4l-4 4v8h8l4-4v-8h8v-16l-4-4zm-8 28v-4h4zm12-16v4l-4-4v-8l4 4z"/><path d="m140 84h-8l-8 8h8z"/><path d="m136 80-4-4-4 4z"/><path d="m116 76-4-4v8l4 4h8l4-4-4-4z"/><path d="m112 112h-4v-4h4v-4h-8v8l-4-4v-8h-4v-4l-4-4-12 12h8l-4 4-4-4v8l-4 4h8l4-4h8v8l8 8 4-4 4 4 4-4 4 4h4v-4l-4-4h-8l-4-4-4 4-4-4h24l-4-4z"/><path d="m108 144h-4l-4 4h16l-4-4z"/><path d="m104 96 4-4h8l-8-8-12 12z"/><path d="m96 160h8l-4-4z"/><path d="m92 84 4 4 4-4z"/><path d="m92 140-4 4h8z"/><path d="m92 136h4l-4-4h-8v8l4-4z"/></g><path d="m400 392v4h4z"/><g transform="translate(320 320)"><path d="m84 84 4-4h-8l-8-8h-8l12 12z"/><path d="m84 100v-8l-4 4h-4v8h4v-4z"/><path d="m76 236v-4h4v-8l-8 8v4h-4l4 4h-4v-4l-4-4v8l-4 4v8l-4 4h8l4-4h8l8-8v-8l-4-4zm0 8-4 4h-8l4-4h8v-4h4z"/><path d="m72 88 4 4 4-4z"/><path d="m72 268h-4l-4 4h16l-4-4z"/><path d="m68 228h8l-4-4z"/><path d="m72 96-4-4v12h-4v4h-4l4-4-4-4h-8l-4 4-4-4h8l-4-4h8l4 4h8l-4-4v-8h-8l-4 4-8-8-8 8v8l8 8h8l4 4h8l4 4 4-4v-8l4-4h-4zm-32-4h4l-4 4z"/><path d="m64 80 4 4 4-4z"/><path d="m68 220h-8l-8-8v8l-4 4v4h12z"/><path d="m60 268h8l-4-4z"/></g><path d="m380 532v4h4z"/><path d="m64 232-4-4-4 4z" transform="translate(320 320)"/><path d="m60 236-4-4-4 4-4-4v8h4v4l-4-4h-8l12 12 4-4v-8l4 4z" transform="translate(320 320)"/><path d="m48 80h8l-4-4z" transform="translate(320 320)"/><path d="m40 236h-4l-4 4v-8l-4 4v4h-4l-4 4-4-4v8l-4 4 4 4-4 4v4h4l4-4h8l4-4h8l4-4-4-4-4 4v-4h4v-8l4-4zm-12 16h-8l4-4h4v-4l4 4z" transform="translate(320 320)"/><path d="m360 332h4l-4-4z"/><g transform="translate(320 320)"><path d="m36 44-8 8h8v-4h4v-4h4l-4 4h8v-8l4-4v-8l-4 4h-4v4l-4 4v-4h-4l-4-4v8h4z"/><path d="m36 228h8l-4-4h-8z"/><path d="m32 24 4 4 8-8v-8l-8 8-4-4z"/><path d="m32 56-4 4h8z"/><path d="m32 16-4-4-4 4z"/><path d="m24 72 4-4-4-4z"/><path d="m28 228-8-8-4 4h-8l-4 4h-8l8 8 8-8 4 4 4-4v8h8l-4-4z"/><path d="m24 24 4-4h-8l-8-8v8l4 4z"/><path d="m16 60h-4l4 4h-4v4h8l4-4-4-4z"/><path d="m16 292v-4h-8l-4 4h4v4h16l-4-4z"/></g><path d="m332 320v4l4-4z"/><path d="m8 240h8l-4-4z" transform="translate(320 320)"/><path d="m8 24 4 4 4-4z" transform="translate(320 320)"/><path d="m328 620v-4l-4 4z"/><path d="m5.17 241.17h5.66v5.66h-5.66z" transform="matrix(.70710678 -.70710678 .70710678 .70710678 149.81 397.12)"/><path d="m324 412 4-4h-4z"/><path d="m4 16h4v-8l-4 4h-8l4 4z" transform="translate(320 320)"/><path d="m320 540h4l-4-4z"/><g transform="translate(320 320)"><path d="m-4 244 4 4h-4v-4l-4-4-4 4 4 4h-8l4 4h-4v-12h-8l-4-4v12h4l4 4v4h8v4l4 4h12v-4l-8-8h8v-8l-4-4zm0 12v4l-4-4z"/><path d="m-8 296h8l-4-4z"/><path d="m-8 288h8l-4-4z"/><path d="m-12 20 4 4 4-4z"/><path d="m-8 72-4-4-4 4z"/><path d="m-20 236h8v-8z"/><path d="m-20 28 4-4v-4h-4l-4 4h-8l8 8z"/><path d="m-24 64 4-4h-8l-4 4z"/></g><path d="m292 348-4 4h4z"/><path d="m292 336v-4l-4 4z"/><path d="m-28 52v-4h4l-4-4h8v-4h4l4 4v4h4l4-4 4 4h8v-8h-4v-4l4 4h8v-4h4l-8 8h8l-4 4h12v-4h8l-8-8v-8l-4 4h-8l-4 4-8-8-4 4-4-4v8l-4 4h-4v-4h-8l-4 4-8-8-4 4h4v8h-4l4 4h-4v-4l4-4-4-4h-4v4h-4v8h4l4 4zm32-8h-4v-4z" transform="translate(320 320)"/><path d="m-40 24h8l-4-4z" transform="translate(320 320)"/><path d="m-48 32-4-4-4 4h-8l-4-4v8h8l8 8h4v-4h-4v-4l4 4 4-4z" transform="translate(320 320)"/><path d="m268 344h-4l4 4 4-4z"/><path d="m-56 96h8l-4-4z" transform="translate(320 320)"/><path d="m268 376h-4l4 4z"/><path d="m-64 40 4 4h-4v-4h-4v-4l-8-8-4 4v8h4v-4h4v12l4-4v4h4l4 4h8l-4-4v-8z" transform="translate(320 320)"/><path d="m256 328-4 4h4z"/><path d="m-68 200v8h-4l-8 8 4 4h8l4-4v-8l4-4v-8l-4 4zm-4 16v-4h4z" transform="translate(320 320)"/><path d="m-64 24v-8l-8 8z" transform="translate(320 320)"/><path d="m-68 56h4l-4-4h-8l4 4z" transform="translate(320 320)"/><path d="m-72 16-8-8v8z" transform="translate(320 320)"/><path d="m244 512h4l-4-4z"/><path d="m-80 208 4-4h4v-4l-4-4v4h-4z" transform="translate(320 320)"/><path d="m240 324h4l-4-4z"/><path d="m-84 236h8l-4-4z" transform="translate(320 320)"/><path d="m236 376v4l4-4z"/><path d="m-84 212 4-4h-8l8-8-8-8v8l-8 8v8h-4v-4l4-4h-8v-4h-4l-8-8-4 4 4 4v4h4l4 4h-8l4 4h-4v-4l-4-4v-12h4v-8l-4 4h-4v4l-4 4 4 4v8h4v4l4 4h12v-4l4 4h12v-4l-4-4h4v4h4z" transform="translate(320 320)"/><path d="m-84 36v-4h-4v4h-4l4 4v8h4v-4l4 4v-8h-4z" transform="translate(320 320)"/><path d="m232 400v4h4z"/><path d="m-92 172 4 4 4-4z" transform="translate(320 320)"/><path d="m228 336v4l4-4-4-4z"/><path d="m-92 28h-8l8 8 4-4z" transform="translate(320 320)"/><path d="m-96 80h8l-4-4z" transform="translate(320 320)"/><path d="m-96 52v4h4v4l4-4v-8l-4 4z" transform="translate(320 320)"/><path d="m-92 188-4-4h-4v4z" transform="translate(320 320)"/><path d="m-100 60v4h8v-4l-4-4z" transform="translate(320 320)"/><path d="m220 368h-4l4 4 4-4z"/><path d="m-100 52-4 4h-8v4h-4l4-4-4-4-4 4v8l-4 4h8l4-4h8l4-4z" transform="translate(320 320)"/><path d="m-100 164v-4h4v-8l-4 4h-4v-4l-4 4h-4v-4h-4v-4l-4 4 8 8h8l-4 4h4v4z" transform="translate(320 320)"/><path d="m-104 36h-4l-4 4 4 4h8l4-4-8-8z" transform="translate(320 320)"/><path d="m212 404 4-4h-4z"/><path d="m-104 192 4-4-4-4-8 8z" transform="translate(320 320)"/><path d="m-104 200h8l4-4v-8l-8 8-4-4-4 4-4-4v8z" transform="translate(320 320)"/><path d="m-112 240-4 4h8l4-4z" transform="translate(320 320)"/><path d="m-116 72h-4l-4 4h16l-4-4z" transform="translate(320 320)"/><path d="m204 364-4 4h4z"/><path d="m-120 40h-8l-8-8v8l8 8z" transform="translate(320 320)"/><path d="m-128 272-4 4-4-4v8h-8v-4h4l4-4-4-4-4 4v-4h4v-8l-8 8v8l-4 4h4v4l-4 4h8l4-4h8v-4h8v-4l4-4z" transform="translate(320 320)"/><path d="m196 348v-4h-4z"/><path d="m-128 56 4 4v-8l-4-4z" transform="translate(320 320)"/><path d="m-132 68h4v-4l-4-4v-8l-4 4-4-4v8h4v4l-8-8v4h-4l4-4-4-4-4 4-4-4v8l4 4h8l4 4z" transform="translate(320 320)"/><path d="m180 348 4 4v-4z"/><path d="m-144 304h8l-4-4z" transform="translate(320 320)"/><path d="m-144 80h8l-4-4z" transform="translate(320 320)"/><path d="m-140 48h4l-8-8-8 8 4 4 4-4z" transform="translate(320 320)"/><path d="m176 572h-4l4 4z"/><path d="m-148 204-4 4h-4v-4l-4 4v8l-4 4h-8l4 4h8l8-8-4-4h4v4h4v-4h4v-4l4-4-4-4v4z" transform="translate(320 320)"/><path d="m172 624v-4l-4 4z"/><path d="m168 556v4l4-4z"/><path d="m-152 272-8 8h8z" transform="translate(320 320)"/><path d="m-156 260h8l-4-4z" transform="translate(320 320)"/><path d="m164 512v-4l-4 4z"/><path d="m-156 204h8l4-4-4-4-4 4-4-4-8 8z" transform="translate(320 320)"/><path d="m-156 268-4-4-4 4z" transform="translate(320 320)"/><path d="m-160 272-4 4v-4h4l-4-4-8 8 4 4v4h4l4 4 4-4-4-4z" transform="translate(320 320)"/><path d="m-166.83 205.17h5.66v5.66h-5.66z" transform="matrix(.70710678 -.70710678 .70710678 .70710678 124.89 264.96)"/><path d="m-164 180h-8l4 4z" transform="translate(320 320)"/><path d="m-164 212h-8v8z" transform="translate(320 320)"/><path d="m-168 236v4h8l-4-4z" transform="translate(320 320)"/><path d="m-172 212 4-4v-4h-4z" transform="translate(320 320)"/><path d="m-176 204h-4v8l4 4v-8l4-4z" transform="translate(320 320)"/><path d="m-176 200 4-4 4 4v-8l-4-4-4 4-4-4-4 4v4h4z" transform="translate(320 320)"/><path d="m140 640v-4l-4 4z"/><path d="m-184 204v-4l-4-4-4 4-4-4-4 4v8l4 4v4h4l4 4v4h4l4 4 4-4-12-12h8l-4-4zm-8 4-4-4h8z" transform="translate(320 320)"/><path d="m132 632v4l4-4z"/><path d="m-204 316 4 4 4-4z" transform="translate(320 320)"/><path d="m112 632 4 4v-4z"/><path d="m-240 52h-4l-4 4h8l-4 4v8l-8 8h12v-4l4-4v-8l4-4-4-4z" transform="translate(320 320)"/><path d="m-244 48h-8v4h8l4-4z" transform="translate(320 320)"/><path d="m-248 64 4-4-4-4-4 4v12h4z" transform="translate(320 320)"/><path d="m60 364 4-4h-4z"/><path d="m-264 56h8v-4h-4z" transform="translate(320 320)"/><path d="m-264 48-4-4-4 4z" transform="translate(320 320)"/><path d="m-268 60-4 4-4-4-4 4v8h8l4 4h8v-8zm4 12h-4v-4z" transform="translate(320 320)"/><path d="m44 376h-4l4 4 4-4z"/><path d="m-280 176h-8l-8 8v4h4l4-4h4v-4h8l4-4v-8z" transform="translate(320 320)"/><path d="m-276 48h-4l-4 4v8h4v-4l4-4z" transform="translate(320 320)"/><path d="m-276 172-4-4h-4v4z" transform="translate(320 320)"/><path d="m40 412h4l-4-4-4 4z"/><path d="m-284 80h-4l-4 4 4 4h8l4-4h-8l4-4z" transform="translate(320 320)"/><path d="m36 348v4h4z"/><path d="m-284 44 4-4h-8z" transform="translate(320 320)"/><path d="m-288 176 4-4-4-4z" transform="translate(320 320)"/><path d="m-284 164-4-4-4 4z" transform="translate(320 320)"/><path d="m-288 60v-12l-4 4v8l4 4z" transform="translate(320 320)"/><path d="m-292 312v-4l-4 4h-8l4 4-4 4h8l4-4v4h8v-4l-4-4z" transform="translate(320 320)"/><path d="m-288 216-4-4-4 4z" transform="translate(320 320)"/><path d="m28 472h-4l4 4z"/><path d="m-296 104 4 4-4 4h-8l4 4h8l8-8v-8l-4 4-4-4v4z" transform="translate(320 320)"/><path d="m-292 36 4-4h-8z" transform="translate(320 320)"/><path d="m-292 180v-8l4-4-4-4-4 4v8l-4 4 4 4v-4z" transform="translate(320 320)"/><path d="m24 612v-4l-4 4z"/><path d="m-300 132-8 8v4h4l4-4h4v-4l4-4v-8l-4 4v4z" transform="translate(320 320)"/><path d="m-296 84v-12l-4 4h-4v4h4v4z" transform="translate(320 320)"/><path d="m-296 64 4-4-4-4-4 4-4-4-4 4 8 8h4z" transform="translate(320 320)"/><path d="m-296 48-4-4v8l4 4z" transform="translate(320 320)"/><path d="m-296 128h-8l4 4z" transform="translate(320 320)"/><path d="m20 464v4l4-4z"/><path d="m-300 172-4-4v8l-8-8v8l4 4h8z" transform="translate(320 320)"/><path d="m-304 160h8l-4-4z" transform="translate(320 320)"/><path d="m-304 24h8l-4-4z" transform="translate(320 320)"/><path d="m16 392 4-4h-4z"/><path d="m-300 108h4v-4l4-4h-8l-8 8 4 4z" transform="translate(320 320)"/><path d="m16 444h-4l4 4 4-4z"/><path d="m16 412h4l-4-4z"/><path d="m-304 312-4 4v4h4z" transform="translate(320 320)"/><path d="m-308 40h-4l-4-4v8h8l4 4 4-4-4-4z" transform="translate(320 320)"/><path d="m-304 248h-8l4 4z" transform="translate(320 320)"/><path d="m-304 168-4-4-4 4z" transform="translate(320 320)"/><path d="m-304 296v-4h-4l-4 4z" transform="translate(320 320)"/><path d="m-312 80 4-4-4-4z" transform="translate(320 320)"/><path d="m-312 208-8 8h8v-4h4v-12h4l-4 4 4 4v4h-4l-8 8h8v-4h4l4-4v-16l-4-4v4h-4v-8l-12 12v8h4v-4l4-4z" transform="translate(320 320)"/><path d="m8 372h4l-4-4z"/><path d="m4 580h4v4l4-4-4-4z"/><path d="m4 564h4v-4z"/><path d="m-312 108v4l4-4v-8l-4 4v-4h-4l-4-4v16l4-4z" transform="translate(320 320)"/><path d="m-312 56h-8l4 4z" transform="translate(320 320)"/><path d="m-312 72-4-4-4 4z" transform="translate(320 320)"/><path d="m-312 96-4-4-4 4z" transform="translate(320 320)"/><path d="m-316 124v8l4-4z" transform="translate(320 320)"/><path d="m-312 160-4-4-4 4z" transform="translate(320 320)"/><path d="m-312 184-4-4-4 4z" transform="translate(320 320)"/><path d="m4 624h4l-4-4z"/><path d="m-316 308-4 4v8h8v-8h-4z" transform="translate(320 320)"/><path d="m4 612-4 4h4z"/><path d="m-316 272h4l-4 4 4 4 4-4h8v-4h4v-8l-4-4-4 4-4-4v8h-8l-4 4v4h4zm12-4h4l-4 4z" transform="translate(320 320)"/><path d="m-316 140 4-4h8v-8l-4 4-4-4v4h-4v4h-4v8h4z" transform="translate(320 320)"/><path d="m-316 80v-4l-4-4v12h4z" transform="translate(320 320)"/><path d="m0 508v4l4-4z"/><path d="m-320 256v8h8z" transform="translate(320 320)"/><path d="m640 164v-4l-4 4z"/><path d="m316-320h-4l-4 4v-4h-12l4 4h4v4h8l4 4 4-4v-8z" transform="translate(320 320)"/><path d="m636 20 4-4h-4z"/><path d="m316-136v4l-4-4v-8l-4-4-4 4 4 4v8l4 4h8v-16l-4 4z" transform="translate(320 320)"/><path d="m312-104-4 4h12v-4z" transform="translate(320 320)"/><path d="m312-168 4 4 4-4z" transform="translate(320 320)"/><path d="m316-4h-8l4 4z" transform="translate(320 320)"/><path d="m628 24v4l4-4z"/><path d="m304-128h-4v-4l4 4v-16l-4-4-8 8 4 4v8l4 4h4v4h8v4h4l4 4v-12h-8v-4z" transform="translate(320 320)"/><path d="m308-148-4-4-4 4z" transform="translate(320 320)"/><path d="m620 28 4 4v4h4l4-4v-4h-4l-4-4z"/><path d="m620 164 4-4h-4z"/><path d="m468 228-4 4h4z"/><path d="m144-112v-8h-4v-4l-4-4-4 4-4-4-8 8-4-4 4-4h4v-4h8l4-4h-4v-4l4 4v-8l-4-4-12 12v-8l-4-4-8 8-4-4-4 4 8 8 8-8v8l-4 4v8l4 4v4h8v-4h8l-4-4h4v4l-4 4v4h-12l4 4h4v4h8v-8l4 4zm-8-4h4l-4 4z" transform="translate(320 320)"/><path d="m460 244v-4h-4z"/><path d="m136-96-4 4h8z" transform="translate(320 320)"/><path d="m132-156v8l4-4z" transform="translate(320 320)"/><path d="m132-300v-4h4l-4-4h-4v4h-4v4z" transform="translate(320 320)"/><path d="m444 232h-4l4 4z"/><path d="m440 144v4h4z"/><path d="m116-164v8l4-4z" transform="translate(320 320)"/><path d="m112-312h8l4-4h16l4-4h-24l-4 4v-4h-12z" transform="translate(320 320)"/><path d="m112-144-4-4-4 4z" transform="translate(320 320)"/><path d="m104-308h4l-4-4h-8l4 4z" transform="translate(320 320)"/><path d="m104-320h-8l4 4z" transform="translate(320 320)"/><path d="m100-148 4-4h-8z" transform="translate(320 320)"/><path d="m96-128-8 8v4h-4v16l4-4h8l4 4 8-8-4-4 4-4v-8l-8-8v-4h-4l-4 4v4zm-8 20v-4l4 4zm12-4v4l-8-8h8l-4-4h4z" transform="translate(320 320)"/><path d="m408 176 4-4h-4z"/><path d="m88-316h4l4-4h-16l4 4z" transform="translate(320 320)"/><path d="m84-92h-4v4h8z" transform="translate(320 320)"/><path d="m400 168 4-4h-4z"/><path d="m84-116h-8l-4-4-4 4 8 8h8l-4-4z" transform="translate(320 320)"/><path d="m84-140-4-4-4 4z" transform="translate(320 320)"/><path d="m80-316v-4h-8l4 4z" transform="translate(320 320)"/><path d="m76-124 4 4h4v-4l8-8h-8l-8-8v8l-4 4h-4v4z" transform="translate(320 320)"/><path d="m72-88 4-4h-8l-4 4z" transform="translate(320 320)"/><path d="m384 188h-4l4 4 4-4z"/><path d="m64-316h4l4-4h-16l4 4z" transform="translate(320 320)"/><path d="m376 184-4 4h4z"/><path d="m52-116h-4v4l4 4h12v4h4v4h8v-4h-4l-4-4v-12h4l-8-8h-8l-4-4-4 4-4-4v8zm8-4h-4l8 8h-8v-8l4-4z" transform="translate(320 320)"/><path d="m300 64h-4l4 4z"/><path d="m-24-216-4-4-4 4z" transform="translate(320 320)"/><path d="m292 56h-4l4 4z"/><path d="m284 40h-4l4 4z"/><path d="m-44-268-4-4-4 4z" transform="translate(320 320)"/><path d="m-48-256-4-4-4 4z" transform="translate(320 320)"/><path d="m-52-212 4-4-4-4h-8l4 4v4z" transform="translate(320 320)"/><path d="m256 56-4 4h4z"/><path d="m248 72 4 4v-4z"/><path d="m-80-224-4 4h8z" transform="translate(320 320)"/><path d="m-84-244 4-4h-8z" transform="translate(320 320)"/><path d="m-88-256-4-4-4 4z" transform="translate(320 320)"/><path d="m-100-240v-4l-4-4-4 4v4h4l-4 4v8l4-4h8v-4h4l-4 4 4 4 4-4 4 4h8v-4h4v4h4l4-4h4v4h8l4-4 4 4h8l4-4 4 4 8-8h8l4-4-4-4v-4h-4v8h-4v-4h-4v-4l-4-4v16l-4-4v4h-4l4-4v-8l-8 8v-8l-4 4-4-4v8l-8 8v-8l4-4v-4h-4l-8 8v4h-4l4-4-4-4-8 8v-4h-4v8l-4-4v-4h-4l-4-4-8 8zm60 4v4l-4-4z" transform="translate(320 320)"/><path d="m220 64h-4l4 4z"/><path d="m-100-268h-8l4 4z" transform="translate(320 320)"/><path d="m-104-224-4 4h8z" transform="translate(320 320)"/><path d="m208 68h-4l4 4 4-4z"/><path d="m208 76v-4l-4 4z"/><path d="m208 56-4 4h4z"/><path d="m-120-224-4 4h12v-4z" transform="translate(320 320)"/><path d="m-120-272h-8l4 4z" transform="translate(320 320)"/><path d="m196 204v-4h-4z"/><path d="m-124-92h8l8-8-4-4v-4h-4l-4 4v8h-8v4z" transform="translate(320 320)"/><path d="m-128-80h-8l-4 4h16z" transform="translate(320 320)"/><path d="m188 60v4h4z"/><path d="m-132-96h4l4-4-4-4h-8l4 4z" transform="translate(320 320)"/><path d="m-136-240h4v-4l4-4-4-4-8 8h4z" transform="translate(320 320)"/><path d="m184 212h-4l4 4 4-4z"/><path d="m184 44h-4l4 4z"/><path d="m-136-264-4-4-4 4z" transform="translate(320 320)"/><path d="m180 204v4h4z"/><path d="m-140-124-4-4-4 4z" transform="translate(320 320)"/><path d="m176 64-4 4h4z"/><path d="m172 232h-4l4 4z"/><path d="m168 176 4-4h-4z"/><path d="m-156-244-8 8h8l4-4v8h8l4 4h8l8-8 8 8h4v-12h-8l4 4h-4v-4l-8-8v8l-8 8-4-4 4-4-8-8v8l-4 4v-16l-4-4-4 4 4 4z" transform="translate(320 320)"/><path d="m-160-136h8l-4-4z" transform="translate(320 320)"/><path d="m160 56-4 4h4z"/><path d="m-160-248h4v-4h-8l-4 4 4 4z" transform="translate(320 320)"/><path d="m156 188v4h4z"/><path d="m152 172v4l4-4z"/><g transform="translate(320 320)"><path d="m-168-224 4-4h-8l-4 4z"/><path d="m-172-260-4-4-4 4z"/><path d="m-172-124-4-4-4 4z"/><path d="m-172-92-4-4-4 4z"/><path d="m-180-228-4 4h8z"/><path d="m-184-144 4 4 4-4z"/><path d="m-180-236h8l4-4 4 4v-8h-4v-4l-4-4h-4v4l4 4h-12v-4l4 4v-8l-4-4-4 4v8z"/><path d="m-180-132h-8l4 4z"/></g><path d="m132 252v4h4z"/><path d="m-192-104h4v4h8l4-4h4v4h4v-4l-4-4v-4h4l4 4v-4h12l-4 4 4 4h-4v-4h-4v4l-4 4h8l4 4 4-4v8h8l4-4v-8h-8l4 4-4 4v-8l-4-4 4-4v-8h-8v4h-4l4-4h-8l-4 4-4-4-4 4v-8l-4 4-4-4h-8v8h4v-4l8 8h-8l-8-8v-4h-4l-4-4v16zm4-8v4l-4-4z" transform="translate(320 320)"/><path d="m116 4-4 4h4z"/><path d="m-224-312h8v-4h-4z" transform="translate(320 320)"/><path d="m-236-108 4 4h4v-4z" transform="translate(320 320)"/><path d="m-236-316h8v-4h-4z" transform="translate(320 320)"/><path d="m84 184v4l4-4z"/><path d="m-236-120v-4h-8v4h4l4 4v4h4l4-4v-8l-4 4z" transform="translate(320 320)"/><path d="m-240-92h-4l-4 4h16l-4-4z" transform="translate(320 320)"/><path d="m76 188v4h4z"/><path d="m-248-112 4 4h4v-8h-4l-4-4h-4v4l-4 4v-8l-4 4-4-4v8l4 4h8z" transform="translate(320 320)"/><path d="m-256-120-4-4-4 4z" transform="translate(320 320)"/><path d="m-312-136h8v-8l4-4-4-4-4 4h-4v4h4v4l-4-4-4 4v4h-4v4h4z" transform="translate(320 320)"/><path d="m-316-144v-4l-4 4v8l4-4z" transform="translate(320 320)"/><path d="m4 156-4 4h4z"/><path d="m0 172h4l-4-4z"/><path d="m0 200v4h4z"/></g></svg>