<svg viewBox="0 0 640 640" xmlns="http://www.w3.org/2000/svg"><path d="m0 0h640" fill="#86573a"/><path d="m640 640h-640" fill="#86573a"/><g fill="#3b281c"><path d="m316 32h4v-8l-4 4z" transform="translate(320 320)"/><path d="m316 40v4l-4 4h8v-16l-4 4z" transform="translate(320 320)"/><path d="m636 384v4l4-4-4-4z"/><path d="m316 96v4l4 4v-8l-4-4z" transform="translate(320 320)"/><path d="m316 288v4l4 4v-8l-4-4z" transform="translate(320 320)"/><path d="m636 472h-4l4 4z"/><g transform="translate(320 320)"><path d="m312 144 8 8v-8z"/><path d="m316 136v-4l-4-4v12h4z"/><path d="m312 80 4 4h4v-4z"/><path d="m316 4-4-4v8h4z"/><path d="m312 12h-4l4 4h4v4l4 4v-8l-4-4z"/><path d="m312 108h-4l4 4h8l-4-4z"/><path d="m316 76-8-8v8z"/><path d="m308 44h8l-4-4z"/><path d="m308 24h-4l4 4h8l-4-4z"/><path d="m308 304v12l4-4v-8l-4-4z"/><path d="m308 4-4-4v8l4 4z"/><path d="m304 20h4l-4-4h-8l4 4z"/></g><path d="m620 456h4l-4-4z"/><path d="m620 624v4l4-4-4-4z"/><path d="m300 320h4v-8l-4 4z" transform="translate(320 320)"/><path d="m296 128v-8l-4 4v4h-4v8z" transform="translate(320 320)"/><path d="m292 308-4-4v8l4 4v4h4v-8h-4z" transform="translate(320 320)"/><path d="m292 156v-8l8-8h-8v-4h-4v8l-4-4v8l4 4-4 4v8l-4 4h8l4 4v-4h4l-4-4z" transform="translate(320 320)"/><path d="m288 120-4-4v8h4z" transform="translate(320 320)"/><path d="m600 456-4 4h4z"/><path d="m280 128-4-4v8l4 4z" transform="translate(320 320)"/><path d="m272 116v-4l-4-4v8l4 4z" transform="translate(320 320)"/><path d="m268 136h-4l4 4h8l-4-4z" transform="translate(320 320)"/><path d="m264 128-4-4v8l4 4z" transform="translate(320 320)"/><path d="m580 504v4l4-4-4-4z"/><path d="m256 192v8l8-8z" transform="translate(320 320)"/><path d="m256 136 4 4 4-4z" transform="translate(320 320)"/><path d="m252 180v8l4-4z" transform="translate(320 320)"/><path d="m252 196v-8h-8l4 4v8l-4 4v8l4 4-8 8h12v-20h4v-4h-4z" transform="translate(320 320)"/><path d="m240 192-4 4 4 4h8z" transform="translate(320 320)"/><path d="m240 184-4 4v4h4z" transform="translate(320 320)"/><path d="m144 100v4l4 4v-8l-4-4z" transform="translate(320 320)"/><path d="m456 440 4-4h-4z"/><path d="m136 108h-4l-4 4h-8l4 4h-16l4 4h8l4 4v8l-8 8v8l-4 4h8l4 4 4-4h8l-4-4h-4v-12l8-8h-4v-12l4-4h4v-12l-4 4z" transform="translate(320 320)"/><path d="m128 100h-4v8l8-8-4-4z" transform="translate(320 320)"/><path d="m116 88v12l4-4v-8l-4-4z" transform="translate(320 320)"/><path d="m112 104v4h-4v4h12z" transform="translate(320 320)"/><path d="m428 416v4l4-4-4-4z"/><path d="m100 104v4l4 4v-8l-4-4z" transform="translate(320 320)"/><path d="m408 460h-4l4 4z"/><path d="m84 96v4l4-4v-8l-4 4z" transform="translate(320 320)"/><path d="m400 424 4-4h-4z"/><path d="m396 564 4-4h-4z"/><g transform="translate(320 320)"><path d="m76 140v-8l-4 4z"/><path d="m76 100-4 4v8l-4 4v8l-4 4 4 4 4-4 4 4h4v8h4v-8l-8-8v-8l4-4v-8h-4z"/><path d="m76 92-4 4v4h4z"/><path d="m68 276h8l-4-4z"/><path d="m68 244-4 4h8l4-4z"/><path d="m68 104v-4h-8l4 4z"/><path d="m68 92v-8l-4 4v8l4 4z"/><path d="m64 236v-4l-4 4v8l4-4z"/><path d="m64 80v-8l-4-4v8z"/><path d="m56 264v-8l4-4v-8l-4-4v8l-4 4-12-12v8l8 8v16l4-4v8h8l-4-4h8z"/><path d="m52 132h8l-4-4z"/><path d="m56 100h4l-4-4h-8l4 4z"/></g><path d="m376 404v-4l-4 4 4 4z"/><path d="m44 144v-4l-4 4v4h-8v4h8l8-8z" transform="translate(320 320)"/><path d="m44 232v4l4 4v-16l-4 4z" transform="translate(320 320)"/><path d="m40 40 4-4v-8l-4-4z" transform="translate(320 320)"/><path d="m40 276h-4l-4 4h16l-4-4z" transform="translate(320 320)"/><path d="m36 180h8l-8-8z" transform="translate(320 320)"/><path d="m356 348v4h4z"/><path d="m352 360 4 4v-4z"/><path d="m36 172-4-4-4 4z" transform="translate(320 320)"/><path d="m32 200h-8l-4 4h16z" transform="translate(320 320)"/><path d="m352 556v4l4-4-4-4z"/><path d="m32 32-4 4 4 4z" transform="translate(320 320)"/><path d="m32 24-4-4v8l4 4z" transform="translate(320 320)"/><path d="m28 244v4h-4l-4 4h8l4-4z" transform="translate(320 320)"/><path d="m348 528h4l-4-4-4 4z"/><path d="m20 28-4-4v8h4z" transform="translate(320 320)"/><path d="m336 356v4l4-4z"/><path d="m20 60h8l-4-4 12-12h-8v4h-8v4l-8 8z" transform="translate(320 320)"/><path d="m20 172 4 4 4-4-4-4h-8l-4 4z" transform="translate(320 320)"/><path d="m16 236h4v-8l-4 4z" transform="translate(320 320)"/><path d="m336 612h4l-4-4z"/><path d="m16 280h-4v-20l4-4-4-4 4-4v-8l-8 8-4-4v8h-8l8 8v24l-4 4h4v4l4-4h8l-4-4z" transform="translate(320 320)"/><path d="m12 68v-4h4l-4-4v-8l8-8h-8l4-4h-8v8h-4v12z" transform="translate(320 320)"/><path d="m8 32v-8l-8-8v8z" transform="translate(320 320)"/><path d="m324 360h4l-4-4z"/><path d="m4 236v8l4-4z" transform="translate(320 320)"/><path d="m0 144v-4h-4v-8l-4-4v16l8 8z" transform="translate(320 320)"/><path d="m0 72v-8l-4 4z" transform="translate(320 320)"/><path d="m0 240v-8l-4-4v12h-4l4 4z" transform="translate(320 320)"/><path d="m-8 64h12v-4h-8z" transform="translate(320 320)"/><path d="m-8 184-12 12h8l4-4 8 8h8l-8-8 4-4-4-4h4v-4h8l4 4h8l-16-16v-8l4-4h8l4-4h4v-4l4-4v-8l4-4h-4v-4l-4 4v8h-4v4l-4 4h-4v-4l8-8v-8l-4-4v12h-4l-4-4v-8l4-4h-4v-4l-4 4v8l-4-4v8l8 8-4 4v4h-4v16l-4 4v-16l-4 4-8-8v-8l-4 4-4-4 4-4v-8l4-4h-4v-4l-4-4v16l-4 4v4h-4l12 12v8l4 4v4h-4l-8 8h12v-4l8 8h-4z" transform="translate(320 320)"/><path d="m-12 40h4l4-4v-8l-8 8z" transform="translate(320 320)"/><path d="m-12 56v-12l-4-4h-4v4h-8l8 8v8l-4 4 4 4v-4h12l-4-4z" transform="translate(320 320)"/><path d="m304 348v4l4-4-4-4z"/><path d="m-16 240v8h8z" transform="translate(320 320)"/><path d="m-20 160v-8h-4l-8-8v-8l4-4h-4v-4l-4 4v8h-8l16 16-4 4z" transform="translate(320 320)"/><path d="m296 352v4h4z"/><path d="m288 364v-4l-4 4z"/><path d="m-32 28v-4l-4 4v8l4-4z" transform="translate(320 320)"/><path d="m276 344v4l4-4-4-4z"/><path d="m-48 168-4 4h12v-4z" transform="translate(320 320)"/><path d="m-48 180h-4l-4 4h16l-4-4z" transform="translate(320 320)"/><path d="m-56 48 4 4h4v4l-4 4h8l4 4 4-4h8l-12-12h-4v-8h4v-8l-8 8v4h-4l-4-4z" transform="translate(320 320)"/><path d="m-60 36h-8v4h12z" transform="translate(320 320)"/><path d="m-64 28v4h4v-12l-4 4z" transform="translate(320 320)"/><path d="m-68 28-4 4 4 4z" transform="translate(320 320)"/><path d="m-72 204h-4l-8 8v4h-4v8l-8 8h8l4 4v-4h4l4-4h-4v-12l8-8h4v-12l-4 4z" transform="translate(320 320)"/><path d="m-72 44v-8h-4v4h-4v8l-4 4h4v4l4-4h8l-4-4z" transform="translate(320 320)"/><path d="m248 552-4-4v4z"/><path d="m-76 196-4-4v8h4z" transform="translate(320 320)"/><path d="m-76 24v-4l-4-4v16l4-4z" transform="translate(320 320)"/><path d="m-80 200-8 8h8z" transform="translate(320 320)"/><path d="m-80 184v-8l-4 4v8l4 4z" transform="translate(320 320)"/><path d="m-80 32-12-12v8l4 4h4v8h4z" transform="translate(320 320)"/><path d="m-88 200v-8l-8 8h-16l4 4h4v4h8z" transform="translate(320 320)"/><path d="m-92 180v8l4-4z" transform="translate(320 320)"/><path d="m232 560-4-4v4z"/><path d="m-96 44v4l4-4v-8l-4 4z" transform="translate(320 320)"/><path d="m-96 224v-4h-4l-4-4v20h-4l-4 4h16l4-4-4-4z" transform="translate(320 320)"/><path d="m-100 56v4l4-4v-8l-4 4z" transform="translate(320 320)"/><path d="m-100 216h4v-8l-4 4z" transform="translate(320 320)"/><path d="m216 472v4h4z"/><path d="m216 564h4l-4-4-4 4z"/><path d="m-108 64v4l4 4-4 4h16l-8-8v-8l-4 4z" transform="translate(320 320)"/><path d="m212 472v-4l-4 4v4h4z"/><path d="m-108 48v-4l-4-4v16l4-4z" transform="translate(320 320)"/><path d="m-108 84-4-4-4 4z" transform="translate(320 320)"/><path d="m-116 244-4 4h16l-4-4z" transform="translate(320 320)"/><path d="m-112 192-4-4v8l4 4z" transform="translate(320 320)"/><path d="m-120 32v8l4-4z" transform="translate(320 320)"/><path d="m-116 84-4-4h-4v-12l4-4v-16l-4 4v8l-4-4v-8l-4-4v16l4 4v4h-4v8l-8 8h8l4 4 4-4z" transform="translate(320 320)"/><path d="m-120 200v8l4 4h8l-4-4h-4v-4z" transform="translate(320 320)"/><path d="m188 592h4l-4-4z"/><path d="m-140 300h8l-4-4z" transform="translate(320 320)"/><path d="m184 380h-4l4 4z"/><path d="m-140 56v-4l-4-4v8l4 4z" transform="translate(320 320)"/><path d="m176 592 4-4h-4z"/><path d="m-144 280h8v-8l-4 4h-4z" transform="translate(320 320)"/><path d="m-148 292h-4v-4l4-4v-4h-12l4 4-4 4v8l-4 4-4-4-4 4h4v4h8l4-4 4 4v-8l4 4h8z" transform="translate(320 320)"/><path d="m-148 272v-4l-4-4v16l4-4z" transform="translate(320 320)"/><path d="m160 560 4-4h-4z"/><path d="m-160 272v8l4-4z" transform="translate(320 320)"/><path d="m-160 296-8-8h-4v4h4v4z" transform="translate(320 320)"/><path d="m-168 196v12l4-4v-16l-4 4z" transform="translate(320 320)"/><path d="m-164 220 4-4v-8l-12 12z" transform="translate(320 320)"/><path d="m-168 240v-4h4l-4-4v-8l-4-4v-16l-4 4v8l-4-4h-8l12 12v8l-4 4h8z" transform="translate(320 320)"/><path d="m-180 204v-8l-4 4v8l4 4z" transform="translate(320 320)"/><path d="m-248 68v4l4-4v-8l-4 4z" transform="translate(320 320)"/><path d="m-252 52v8l4-4z" transform="translate(320 320)"/><path d="m-252 68v-8l-4 4-12-12v8l8 8v8l4 4-12 12h8l4 4 4-4h8l-4-4v-8l-4-4 4-4h-4z" transform="translate(320 320)"/><path d="m52 388v4h4z"/><path d="m-280 32v8l4-4z" transform="translate(320 320)"/><path d="m-280 72-4-4v-24l-4 4v16l-4-4-4 4 12 12-4 4h16z" transform="translate(320 320)"/><path d="m-284 172-4 4h8l4-4z" transform="translate(320 320)"/><path d="m-288 168-4 4v8l4-4z" transform="translate(320 320)"/><path d="m-292 36v8l4-4z" transform="translate(320 320)"/><path d="m28 640v-4l-4 4z"/><path d="m-292 52v-8l-4 4v8l4 4z" transform="translate(320 320)"/><path d="m24 504 4-4h-4z"/><path d="m-296 172v-4l-4-4v16l4-4z" transform="translate(320 320)"/><path d="m-304 112h8l4-4-4-4v4h-4z" transform="translate(320 320)"/><path d="m20 368v-4l-4 4 4 4z"/><path d="m-300 36v-8l-4 4v8h4z" transform="translate(320 320)"/><path d="m-304 180h-4l4 4v8l4 4v8h4v-20l-4-4z" transform="translate(320 320)"/><path d="m-304 128v8l4-4z" transform="translate(320 320)"/><path d="m16 636v4l4-4-4-4z"/><path d="m-304 208-4-4v8h4z" transform="translate(320 320)"/><path d="m-304 100v-4l-4 4v8l4-4z" transform="translate(320 320)"/><path d="m-304 80v-8l-8 8z" transform="translate(320 320)"/><path d="m12 572v4h4z"/><path d="m-308 152v-12l4-4h-8l-4 4v8l4 4z" transform="translate(320 320)"/><path d="m-308 128v-12l-4 4v8l4 4z" transform="translate(320 320)"/><path d="m8 532v4l4-4z"/><path d="m-312 64v8l4-4z" transform="translate(320 320)"/><path d="m8 636v4h4v-4l-4-4z"/><path d="m-312 76v-4l-4 4v8l4-4z" transform="translate(320 320)"/><path d="m-312 208v-8l-4 4v4h-4v8z" transform="translate(320 320)"/><path d="m-316 264h-4v8l4-4h8v-8l-4 4z" transform="translate(320 320)"/><path d="m4 592v4l4-4z"/><path d="m-316 168v4l4 4v-8l-4-4z" transform="translate(320 320)"/><path d="m-316 256v4l4-4v-8l-4 4z" transform="translate(320 320)"/><path d="m-316 296h4v-8l-4 4z" transform="translate(320 320)"/><path d="m4 632h4l-4-4z"/><path d="m-316 224v-4l4-4h-8v12h4z" transform="translate(320 320)"/><path d="m-316 132v-8l-4 4v8h4z" transform="translate(320 320)"/><path d="m636 168h-4l4 4h4v-4z"/><path d="m312-128v4h8v-4z" transform="translate(320 320)"/><path d="m316-136v-4l-4-4v8l4 4z" transform="translate(320 320)"/><path d="m312-292v4l4-4v-8l-4 4z" transform="translate(320 320)"/><path d="m312-160h-8l8 8z" transform="translate(320 320)"/><path d="m628 0v4l4-4z"/><path d="m308-136v-4l-4-4v16h8l-4-4z" transform="translate(320 320)"/><path d="m124-132v4h-4l-4 4h8l8-8z" transform="translate(320 320)"/><path d="m128-308v-4l4-4h-8v12h4z" transform="translate(320 320)"/><path d="m124-156v8l4-4z" transform="translate(320 320)"/><path d="m120-140v4l8-8v-4h-4v4h-4z" transform="translate(320 320)"/><path d="m436 0v4l4-4z"/><g transform="translate(320 320)"><path d="m112-88h12v4l4-4-4-4h-8l-4-4v-8l4-4h12v-4l4-4h-8v4h-12v-16l4-4v-8l-8 8-12-12v8h4v4l8 8v8l-4 4 4 4-8 8v8h-8l-4 4h16l-4 4h8z"/><path d="m108-316-4-4v8h4z"/><path d="m96-112 4 4v-8h-8z"/><path d="m96-312v-8l-4 4v8h4z"/><path d="m88-120 8-8h-8l-4 4v4h-4l-4-4h-8l8 8h12z"/><path d="m88-132h4v-8l-4-4v8l-4 4z"/><path d="m84-96v-12h-8l-8-8v8l4 4h4v4l-8 8h8l4 4v-4h12l-4-4z"/><path d="m84-116-4 4 4 4z"/><path d="m84-308v-8l-4-4v16h4z"/><path d="m72-132v4l4-4v-8l-4 4z"/><path d="m72-312h4v-4l-4-4-8 8z"/></g><path d="m384 192 4 4v-4z"/><path d="m60-92h8l-4-4z" transform="translate(320 320)"/><path d="m64-112-8-8v8z" transform="translate(320 320)"/><path d="m-16-244v-4l-4-4v12h4z" transform="translate(320 320)"/><path d="m-28-224h12l-4-4v-8l-8 8z" transform="translate(320 320)"/><path d="m-28-240v-20l-4 4v16l4 4z" transform="translate(320 320)"/><path d="m-36-248v-4l-4-4v16l4-4z" transform="translate(320 320)"/><path d="m284 56v-4l-4 4v4h4z"/><path d="m-40-220h12l-8-8h-8l4 4z" transform="translate(320 320)"/><path d="m-48-220v4l-4 4h8v-16l-4-4-4 4 4 4z" transform="translate(320 320)"/><path d="m-48-240v-16l-4 4v8l-4 4v8z" transform="translate(320 320)"/><path d="m-56-220h4v-8h-4v4l-4 4z" transform="translate(320 320)"/><path d="m-60-248v-12l-4 4v16l4-4z" transform="translate(320 320)"/><path d="m256 92v-4l-4 4v4h4z"/><g transform="translate(320 320)"><path d="m-72-244v-4l-4-4v16l4-4z"/><path d="m-76-216h4v-16h-4v12l-4 4z"/><path d="m-80-236v-4l-4-4v8l4 4z"/><path d="m-88-228v4h8l-8-8z"/><path d="m-92-252v8l4-4z"/><path d="m-96-244v-4l-4-4v16l4-4z"/><path d="m-100-228v8h4v-12h-8z"/><path d="m-104-256v-8l-4 4v8h4z"/><path d="m-116-240h4v20h4v-16l4-4h-4v-4l-4-4v4h-8v-4h-4v4l4 4z"/><path d="m-120-260v-4l-4 4v8l4-4z"/><path d="m-120-96v-16l-4 4v8l-4 4z"/><path d="m-124-224h4v-8l-4-4v8l-4 4z"/><path d="m-128-92v-4h-4v-4l-4-4v16l-8 8h16l-4-4 4-4z"/><path d="m-132-220-4 4h8z"/></g><path d="m188 208v4l4-4-4-4z"/><path d="m-132-72h4l-4-4h-8l-4 4z" transform="translate(320 320)"/><path d="m-132-236 4-4v-8l-4 4v4h-4l-4 4 4 4z" transform="translate(320 320)"/><path d="m-136-252v-12l-4 4v16l4-4z" transform="translate(320 320)"/><path d="m-140-120v-4l-4 4v8l4-4z" transform="translate(320 320)"/><path d="m176 220v4l4-4-4-4z"/><g transform="translate(320 320)"><path d="m-144-244v-4l-4-4v16l4-4z"/><path d="m-152-220h12l-4-4 4-4-4-4-8 8z"/><path d="m-152-132v4l4-4v-8l-4 4z"/><path d="m-156-260v8l4-4z"/><path d="m-160-128v8h4v-4h4v-4z"/><path d="m-156-244 4-4-4-4v4h-4l-4 4v8z"/><path d="m-164-256v-4l-4-4v16l4-4z"/><path d="m-168-136-4-4v8l4 4z"/><path d="m-168-228h12l-4-4v-4h-4l-4-4v8l-4 4z"/><path d="m-172-120v4l4-4v-8l-4 4z"/></g><path d="m144 216 4 4v-4z"/><path d="m-172-244-4-4v-8l-4 4v8z" transform="translate(320 320)"/><path d="m-172-76 4-4 4 4 4-4 4 4h8l-8-8v-16h-8l4-4v-4h4l4-4h-12v4l-4-4h-4v4l4 4v4h-4l4 4v8l-12 12z" transform="translate(320 320)"/><path d="m-180-84h8l-4-4z" transform="translate(320 320)"/><path d="m-180-112h4l-4-4h-8l4 4z" transform="translate(320 320)"/><path d="m-184-76h4l-4-4h-8l-4 4z" transform="translate(320 320)"/><path d="m-188-124-4-4v8l4 4z" transform="translate(320 320)"/><path d="m-192-312v-8h-4v4l-4 4z" transform="translate(320 320)"/><path d="m-196-96h4v8l4-4v-8h-8l-4-4v8l4 4z" transform="translate(320 320)"/><path d="m-204-68h8l-4-4z" transform="translate(320 320)"/><path d="m116 208h-4l-4 4 4 4v-4h4z"/><path d="m112 0h4v4h-4z"/><path d="m-216-84h-8v-4l-4-4v-8h-4v16h4l4 4h16l-4-4z" transform="translate(320 320)"/><path d="m-212-308v-12h-4v8l-4 4z" transform="translate(320 320)"/><path d="m-228-108v-8l-4 4h-4v-4l-4-4h-4v-4l-4-4v8l4 4h4v20l-4 4h8v-16z" transform="translate(320 320)"/><path d="m-236-128v8h4v-8l-4-4z" transform="translate(320 320)"/><path d="m-240-312h4v-4l4-4h-8l-8 8z" transform="translate(320 320)"/><path d="m-252-120v-4l-4 4v8l4-4z" transform="translate(320 320)"/><path d="m64 0h4v4h-4z"/><path d="m-312-148v-4l-4-4v16l4-4z" transform="translate(320 320)"/></g></svg>