<svg xmlns="http://www.w3.org/2000/svg" viewBox="0 0 1282 1282"><defs><style>.cls-1{fill:#9e7a42;}.cls-2{fill:none;}</style></defs><g id="Layer_2" data-name="Layer 2"><g id="Layer_1-2" data-name="Layer 1"><path class="cls-1" d="M1274,1193.86l-8,8h-8v24l8-8,8,8v-16l8,8v-32.05h-8Z" transform="translate(0 0)"/><path class="cls-1" d="M1274,881.38h-8l-8,8-8-8V849.32l-8-8h-8v-8h-16l-8,8-16-16h-8v-8h-16l-16,16v16l-16,16v32l16-16v-8h8l8,8,8-8v-16l8,8v16h16l8-8,8,8h16v-8h8l-8,8,16,16v8h8l8,8v-16l8,8v16l8-8V865.35l-8,8Zm-112.18-40.07h16l-8,8Zm40.06,8,8,8h-16Zm24,8-8-8h16v16Z" transform="translate(0 0)"/><path class="cls-1" d="M1266,817.27l-8,8v16l8,8h16l-8-8v-16l8,8v-24h-8Z" transform="translate(0 0)"/><path class="cls-1" d="M1266,737.15l-8,8v16l-8,8v8h8l16,16,8-8v-16l-8,8v-16l-8-8h8v8l8,8V737.15Z" transform="translate(0 0)"/><polygon class="cls-1" points="1265.97 1265.98 1273.99 1257.96 1265.97 1257.96 1265.97 1265.98"/><polygon class="cls-1" points="1265.97 697.09 1257.96 697.09 1265.97 705.1 1265.97 697.09"/><polygon class="cls-1" points="1257.96 921.44 1257.96 929.45 1265.97 929.45 1257.96 921.44"/><polygon class="cls-1" points="1249.95 737.15 1257.96 745.16 1257.96 737.15 1249.95 737.15"/><polygon class="cls-1" points="1249.95 1033.61 1257.96 1033.61 1249.95 1025.6 1241.94 1033.61 1249.95 1033.61"/><path class="cls-1" d="M1241.94,1217.9h-8l-16,16v8h-8l-8,8,8,8,8-8,8,8,8-8,8,8v-16h-8v-8l16,16-8,8h16v-16l24,24v-16l-32-32Z" transform="translate(0 0)"/><polygon class="cls-1" points="1233.92 689.08 1233.92 697.09 1241.94 697.09 1233.92 689.08"/><path class="cls-1" d="M1225.91,1258l8,8,8-8Z" transform="translate(0 0)"/><path class="cls-1" d="M1225.91,985.54l8,8h8v-8Z" transform="translate(0 0)"/><polygon class="cls-1" points="1209.89 937.46 1201.88 945.48 1209.89 945.48 1209.89 937.46"/><path class="cls-1" d="M1209.89,985.54l-8-8-8,8Z" transform="translate(0 0)"/><path class="cls-1" d="M1193.86,969.51h16v-8h-8Z" transform="translate(0 0)"/><path class="cls-1" d="M1193.86,937.46l8-8h-16Z" transform="translate(0 0)"/><polygon class="cls-1" points="1193.86 897.4 1193.86 889.39 1185.85 897.4 1193.86 905.41 1193.86 897.4"/><polygon class="cls-1" points="1169.83 1025.6 1177.84 1017.59 1169.83 1017.59 1169.83 1025.6"/><path class="cls-1" d="M1169.82,977.52h-8v-8h-16l-8-8-8,8v16l-8-8h-16l-8,8v16l8,8,8-8,8,8,16-16,24,24v-16l8,8v-8h8l8-8Zm-64.1,8h8l-8,8Zm56.09,8h-8l8-8,8,8Z" transform="translate(0 0)"/><polygon class="cls-1" points="1153.8 897.4 1145.79 905.41 1153.8 905.41 1153.8 897.4"/><path class="cls-1" d="M1137.77,1009.57h-16l8,8Z" transform="translate(0 0)"/><path class="cls-1" d="M1105.72,1009.57l8,8,8-8Z" transform="translate(0 0)"/><polygon class="cls-1" points="1097.71 1025.6 1105.72 1025.6 1097.71 1017.59 1097.71 1025.6"/><path class="cls-1" d="M929.45,793.24h-8l-24-24h-24v8h-16v16l-8,8-8-8-8,8h-8v-8l-32-32h-32v8h-8l-24,24v16l16,16,8-8-8-8,8-8h-16l8-8,8,8v16h16l8-8-16-16v-16l8,8h16l16,16h16l-8,8h-16l-8-8-8,8v16l8,8,8-8-8-8h16l-8,8v8h8l16-16v16l8-8,8,8,24-24,16,16v-16l-8-8v-16l8,8h16l8,8,8-8,8,8h-16l-8,8h-16l8,8v16l-8,8,8,8,8-8h8v-8l8-8h-16l16-16h16l-16,16,8,8v-8h24v-16l-8-8Zm-128.2,0v-8l8,8Zm32,24-8-8h16Z" transform="translate(0 0)"/><path class="cls-1" d="M873.36,825.29h-16l8,8-8,8v-16l-8,8h-16v8h8l8,8h16v-8h8Z" transform="translate(0 0)"/><path class="cls-1" d="M849.32,945.47h16l-8-8Z" transform="translate(0 0)"/><path class="cls-1" d="M857.34,873.36h-16l8,8Z" transform="translate(0 0)"/><polygon class="cls-1" points="823.5 1051.43 825.29 1049.64 823.5 1049.64 823.5 1051.43"/><polygon class="cls-1" points="823.35 1049.64 823.5 1049.64 823.5 1049.49 823.35 1049.64"/><path class="cls-1" d="M817.27,1055.71l-1.78,1.79h1.63l.15.15.16-.15h-.16Z" transform="translate(0 0)"/><polygon class="cls-1" points="809.26 849.33 801.25 849.33 809.26 857.34 817.27 849.33 809.26 849.33"/><polygon class="cls-1" points="793.24 1113.74 801.25 1105.73 793.24 1105.73 793.24 1113.74"/><path class="cls-1" d="M785.22,1065.66h-8l-8-8h-16l-8-8-8,8v8h-8l-8,8h-16l-8,8-16-16H649l-8,8,8,8H633l-8,8H609l-8,8v8h-8l-8,8,8,8h16l8,8,8-8h8v-24h16l8-8h16l8-8,16,16-8,8,8,8,8-8,8,8h16v-16h-16l-8-8h16l8,8,16-16v-16l16,16h16l-16,16,16,16h8v-8l8-8h-16l8-8,8,8,8-8v-16l-8-8ZM609,1113.74h-8l16-16v16Zm152.24-40.07v-8l8,8Z" transform="translate(0 0)"/><path class="cls-1" d="M785.22,801.25l-16-16v16Z" transform="translate(0 0)"/><polygon class="cls-1" points="785.23 1121.75 777.21 1113.74 777.21 1121.75 785.23 1121.75"/><polygon class="cls-1" points="769.2 849.33 761.19 857.34 769.2 857.34 769.2 849.33"/><path class="cls-1" d="M753.17,1201.88h16l-8-8Z" transform="translate(0 0)"/><path class="cls-1" d="M753.17,1105.72l8,8,8-8Z" transform="translate(0 0)"/><path class="cls-1" d="M753.17,913.42h16l-8-8Z" transform="translate(0 0)"/><path class="cls-1" d="M753.17,1097.71h-16v8l8,8,16-16Z" transform="translate(0 0)"/><polygon class="cls-1" points="745.16 1121.75 737.15 1121.75 745.16 1129.76 745.16 1121.75"/><path class="cls-1" d="M745.16,841.31h-16l8,8Z" transform="translate(0 0)"/><path class="cls-1" d="M721.12,1185.85h16l-8-8Z" transform="translate(0 0)"/><polygon class="cls-1" points="729.14 1121.75 737.15 1121.75 729.14 1113.74 721.13 1121.75 729.14 1121.75"/><polygon class="cls-1" points="721.13 729.14 721.13 737.15 729.14 729.14 721.13 729.14"/><polygon class="cls-1" points="721.13 833.3 729.14 825.29 721.13 825.29 721.13 833.3"/><path class="cls-1" d="M721.12,705.1v-16l-8,8Z" transform="translate(0 0)"/><polygon class="cls-1" points="713.11 1137.78 713.11 1145.79 721.13 1137.78 713.11 1137.78"/><path class="cls-1" d="M713.11,697.09l-8-8v16l8,8h8v-8h-8Z" transform="translate(0 0)"/><polygon class="cls-1" points="697.09 705.1 697.09 713.11 705.1 705.1 697.09 697.09 697.09 705.1"/><path class="cls-1" d="M697.09,681.06l-8,8h-16l8,8v8h8l8-8Z" transform="translate(0 0)"/><path class="cls-1" d="M681.06,1113.74h-8v-8l-8-8-16,16,8,8,8-8,16,16,8-8h8v-8Z" transform="translate(0 0)"/><polygon class="cls-1" points="681.06 1209.89 689.08 1201.88 681.06 1201.88 681.06 1209.89"/><path class="cls-1" d="M657,1121.75l8,8,8-8Z" transform="translate(0 0)"/><path class="cls-1" d="M657,689.07v16l8,8,8-8v-16l-8,8Z" transform="translate(0 0)"/><polygon class="cls-1" points="641 729.14 649.01 729.14 641 721.13 641 729.14"/><path class="cls-1" d="M641,1113.74v8l8,8v-16l-8-8Z" transform="translate(0 0)"/><polygon class="cls-1" points="632.99 1137.78 641 1137.78 632.99 1129.76 632.99 1137.78"/><polygon class="cls-1" points="632.99 1161.81 632.99 1153.8 624.98 1153.8 632.99 1161.81"/><polygon class="cls-1" points="608.95 1145.79 616.96 1145.79 608.95 1137.78 608.95 1145.79"/><polygon class="cls-1" points="608.95 1225.91 616.96 1225.91 608.95 1217.9 608.95 1225.91"/><polygon class="cls-1" points="592.92 785.23 600.94 777.21 592.92 777.21 592.92 785.23"/><path class="cls-1" d="M592.92,705.1l-8-8v8h-8l16,16,8-8h-8Z" transform="translate(0 0)"/><path class="cls-1" d="M592.92,689.07l8-8h8v8l8,8-8,8v-16l-16,16,8,8h16l16-16,8,8,8-8-8-8v-16l-8-8h16l8-8v16H641l16,16h16l-8-8V665l16,16h16l8,8v-16h-16l8-8,16,16,16-16h-8v-8l8,8v16l-8,8,8,8v8h8l8-8h-8v-8h16v-16l-8-8h-8v-8l-16-16-8,8-8-8h-16v-8h-8l-8-8H649v8l-8,8v8h-8l-16,16h-16l-16-16h-8v8h-16l-8,8h-8v8l-8-8h-8v-8l-8-8h-16l-16-16h-16l-8,8v8h-8v8h-8l-16,16,8,8h-8v8h-16l-8,8v-8h-8l-8-8v-8h-24l-16,16v24h-8l-16,16v16l8,8,8-8-8-8,16-16,16,16h-16l16,16,8-8v-16l-8-8v-16l-8-8h8v8l16,16h16v-16l8,8-24,24,8,8,16-16v8h-8v16l8-8,8,8v-32l8-8h8v-8l16,16,8-8-16-16h16V665l8,8-8,8,24,24V657l16,16h-16l8,8v16l8,8,8-8,8,8v-16h-16l16-16v16l8-8v24h8l8-8-8-8h16l-8,8,16,16,8-8v8h8v-16l8-8h-16l-8,8v-16l8,8,8-8,8,8ZM665,649v-8h8ZM384.6,689.07h8v8ZM480.75,649v-8l8,8Zm24,16,8-8v8Zm120.18,24-8-8h16Zm-40.06-24v8h-8Z" transform="translate(0 0)"/><path class="cls-1" d="M576.9,705.1l8-8-8-8Z" transform="translate(0 0)"/><polygon class="cls-1" points="576.9 713.11 568.89 713.11 576.9 721.13 576.9 713.11"/><polygon class="cls-1" points="568.89 737.15 576.9 737.15 568.89 729.14 568.89 737.15"/><polygon class="cls-1" points="560.88 849.33 560.88 841.31 552.86 841.31 560.88 849.33"/><polygon class="cls-1" points="544.85 769.2 544.85 777.21 552.86 777.21 544.85 769.2"/><polygon class="cls-1" points="536.84 713.11 536.84 721.13 544.85 721.13 536.84 713.11"/><path class="cls-1" d="M512.8,1121.75h16l-8-8Z" transform="translate(0 0)"/><polygon class="cls-1" points="512.8 721.13 512.8 729.14 520.81 729.14 512.8 721.13"/><path class="cls-1" d="M512.8,1041.63l8-8h-8v-8h-8v-8l-8-8,8-8-24-24v-8h-24l-16,16v16l-8-8-8,8h-16l-8,8v16l8-8,8,8,16-16,8,8v-8h8l8,8v-16l8,8-8,8v16l8-8,16,16v-16l-8-8v-16l8-8v32l16,16,8-8v8Zm-48.08-48.08-8-8h16Zm24,32v-8l8,8Z" transform="translate(0 0)"/><polygon class="cls-1" points="496.77 1073.68 504.79 1065.66 496.77 1065.66 496.77 1073.68"/><polygon class="cls-1" points="496.77 833.3 488.76 841.31 496.77 841.31 496.77 833.3"/><polygon class="cls-1" points="464.73 1129.76 472.74 1129.76 464.73 1121.75 464.73 1129.76"/><polygon class="cls-1" points="464.73 1065.66 456.71 1065.66 464.73 1073.68 464.73 1065.66"/><polygon class="cls-1" points="464.73 705.1 456.71 713.11 464.73 713.11 464.73 705.1"/><path class="cls-1" d="M456.71,729.14l-8,8v8h8l8-8v-16l-8-8Z" transform="translate(0 0)"/><polygon class="cls-1" points="456.71 785.23 464.73 785.23 456.71 777.21 456.71 785.23"/><polygon class="cls-1" points="456.71 761.19 456.71 753.18 448.7 753.18 456.71 761.19"/><path class="cls-1" d="M440.69,1017.59l-8,8,8,8,16-16Z" transform="translate(0 0)"/><path class="cls-1" d="M440.69,841.31h16l-8-8Z" transform="translate(0 0)"/><path class="cls-1" d="M448.7,721.12l-8,8h-16v16l-8,8h16l8-8-8-8h16Z" transform="translate(0 0)"/><path class="cls-1" d="M416.65,1025.6l8,8,8-8Z" transform="translate(0 0)"/><polygon class="cls-1" points="416.65 761.19 416.65 753.18 408.64 761.19 416.65 761.19"/><polygon class="cls-1" points="408.64 1241.94 416.65 1233.93 408.64 1233.93 408.64 1241.94"/><path class="cls-1" d="M416.65,801.25l-8-8-8,8Z" transform="translate(0 0)"/><polygon class="cls-1" points="408.64 1073.68 416.65 1073.68 408.64 1065.66 408.64 1073.68"/><path class="cls-1" d="M400.62,929.45v16l8-8v8h8l8-8v16l8-8,8,8,8-8v-8h-8v-16h-16l-8-8-8,8h-8Z" transform="translate(0 0)"/><polygon class="cls-1" points="400.63 1033.61 400.63 1041.63 408.64 1033.61 400.63 1033.61"/><path class="cls-1" d="M392.61,1169.82v-8l-8-8h-16l8-8-16-16h-16l-16,16-8-8h-8v8l-8,8v16l-8,8,8,8,16-16,8,8h-16l16,16,8-8v-16l8,8,16-16v16l16,16,8-8h-8v-8l8,8h16l-8-8Zm-56.09-8h-8l8-8,8,8Zm8-16h8v8Z" transform="translate(0 0)"/><polygon class="cls-1" points="352.55 1049.64 352.55 1041.63 344.54 1049.64 352.55 1049.64"/><polygon class="cls-1" points="352.55 761.19 352.55 753.18 344.54 761.19 352.55 761.19"/><path class="cls-1" d="M352.55,753.17v-16l-8,8Z" transform="translate(0 0)"/><path class="cls-1" d="M344.54,785.22h-8l-8,8h16l8-8Z" transform="translate(0 0)"/><path class="cls-1" d="M344.54,1049.64h-16v8h8Z" transform="translate(0 0)"/><path class="cls-1" d="M328.51,1258h16l-8-8Z" transform="translate(0 0)"/><polygon class="cls-1" points="336.52 1073.68 336.52 1065.66 328.51 1065.66 336.52 1073.68"/><path class="cls-1" d="M328.51,1033.61l8,8,8-8,8,8v-16h-8v-8l-8-8v-8h-8l-8-8h-16l-8-8-8,8h-16l-8,8v8h-8v16l16,16,8-8h-8v-8l8-8,8,8,8-8,8,8,8-8v32.05Zm-32.05-32h16l-8,8Zm32.05,16v8h-8Z" transform="translate(0 0)"/><path class="cls-1" d="M312.49,1049.64l8,8,8-8Z" transform="translate(0 0)"/><polygon class="cls-1" points="312.49 1193.86 320.5 1185.85 312.49 1185.85 312.49 1193.86"/><path class="cls-1" d="M320.5,1105.72l-8-8h-8v8Z" transform="translate(0 0)"/><path class="cls-1" d="M312.49,1065.66l-8-8-8,8Z" transform="translate(0 0)"/><path class="cls-1" d="M288.45,1274v-8l-8-8h-8v-8h-16l-8,8h-16v-8h-8l-8,8v16l-8,8h32l-16-16h8v8h16l-8,8h32l8-8v8h24l-8-8Zm-24,0v-8h8Z" transform="translate(0 0)"/><path class="cls-1" d="M280.44,1049.64h24v-8l-8-8-8,8-8-8Z" transform="translate(0 0)"/><path class="cls-1" d="M272.42,1121.75h16l-8-8Z" transform="translate(0 0)"/><path class="cls-1" d="M248.39,1049.64l8,8,8-8Z" transform="translate(0 0)"/><path class="cls-1" d="M248.39,1033.61l8,8,8-8Z" transform="translate(0 0)"/><path class="cls-1" d="M168.26,729.14l-8-8h-16v-8h-8l-16-16-8,8v8h-8l-8,8v-16l-8-8v-8h-16v-8l-16-16h-16v8h-8l-16,16v24H8l8,8h16v-16l8-8v24h-8l16,16,8-8v-16l-8-8h16l-8,8,8,8h16v-16h-8v-8l16,16-16,16v16l8-8h8v8l-8,8h16l-8,8,8,8,8-8v-16l8,8,8-8h8v8h-16l16,16,8-8v-24h24l-8,8h16l8,8v-16h-8ZM40.06,689.07h-8l8-8,8,8Zm80.13,40.07v-8h8Zm-16,8h-8l8-8,8,8Z" transform="translate(0 0)"/><path class="cls-1" d="M160.25,753.17h-16l8,8Z" transform="translate(0 0)"/><path class="cls-1" d="M136.21,745.16l8,8,8-8Z" transform="translate(0 0)"/><polygon class="cls-1" points="136.21 841.31 144.22 833.3 136.21 833.3 136.21 841.31"/><path class="cls-1" d="M104.16,809.26h16l-8-8Z" transform="translate(0 0)"/><path class="cls-1" d="M88.14,961.5h-8l-8-8h-8v-8l-8-8h-16l-8,8H16l-8-8H0v24l8-8,8,8H0v48.07l8-8,8,8H0v8H8l-8,8v16l24-24v16h8v-24l-24-24v-16l8,8,8-8,16,16v-16l8,8,16-16,8,8h-16l16,16v-8h8l8,8,8-8-8-8Zm-48.08,0h-8l8-8,8,8Zm8-16h8v8Z" transform="translate(0 0)"/><polygon class="cls-1" points="80.13 761.19 80.13 769.2 88.14 761.19 80.13 753.18 80.13 761.19"/><path class="cls-1" d="M56.09,729.14v16l16-16-8-8Z" transform="translate(0 0)"/><polygon class="cls-1" points="56.09 849.33 56.09 841.31 48.08 849.33 56.09 849.33"/><path class="cls-1" d="M48.08,1049.64h-8v8h24l-8-8Z" transform="translate(0 0)"/><path class="cls-1" d="M48.08,1250v-8h-8l-8-8H0v32l8-8,16,16,8-8h16l8-8h-8ZM8,1250v-8l8,8Z" transform="translate(0 0)"/><polygon class="cls-1" points="48.08 1065.66 48.08 1057.65 40.06 1065.66 48.08 1065.66"/><polygon class="cls-1" points="48.08 905.41 48.08 897.4 40.06 905.41 48.08 905.41"/><polygon class="cls-1" points="32.05 1185.85 40.06 1177.84 32.05 1177.84 32.05 1185.85"/><polygon class="cls-1" points="32.05 793.24 40.06 793.24 48.08 785.23 40.06 777.21 32.05 785.23 32.05 793.24"/><polygon class="cls-1" points="40.06 1081.69 32.05 1073.68 32.05 1081.69 40.06 1081.69"/><polygon class="cls-1" points="24.04 1049.64 32.05 1041.63 24.04 1041.63 24.04 1049.64"/><polygon class="cls-1" points="24.04 897.4 24.04 905.41 32.05 897.4 24.04 889.39 24.04 897.4"/><path class="cls-1" d="M16,977.52l16,16v-16Z" transform="translate(0 0)"/><polygon class="cls-1" points="16.02 1161.81 8.01 1161.81 16.02 1169.83 16.02 1161.81"/><polygon class="cls-1" points="16.02 905.41 16.02 897.4 8.01 905.41 16.02 905.41"/><path class="cls-1" d="M16,897.4v-16l8-8v16h16l-8,8h16l8-8h-8v-8l-24-24-8,8v-8H8l-8,8v32l8-8Z" transform="translate(0 0)"/><path class="cls-1" d="M16,841.31v8l16-16v16l8-8h16l8,8,8-8-8-8h-16l8-8v-16h-16v-8H16l-8,8H0v24l8-8,8,8H0l8,8Zm24-16h-8v-8Z" transform="translate(0 0)"/><path class="cls-1" d="M16,785.22v-16l8,8-8,8,8,8,8-8v-8h8l-16-16,8-8,8,8,8-8-24-24H8l-8-8v32H16l-8,8-8-8v32.05l8-8Zm0-40.06v-8l8,8Z" transform="translate(0 0)"/><path class="cls-1" d="M16,785.22H0l8,8Z" transform="translate(0 0)"/><path class="cls-1" d="M16,1217.9v16l8-8v-16l-16-16H0v40.06Z" transform="translate(0 0)"/><path class="cls-1" d="M8,1153.8v-8l8-8h16l-8,8,8,8H24v-8l-8-8v16l16,16,8-8,8,8v-16l-8-8,8-8-24-24v-8H16l-8-8H0v56.09l8,8Zm8-32v8H8Z" transform="translate(0 0)"/><path class="cls-1" d="M1274,24h-16v16l-8,8,8,8v-8h8l8-8v-8h8V16Z" transform="translate(0 0)"/><path class="cls-1" d="M1274,48.08v8l8-8v-16l-8,8Z" transform="translate(0 0)"/><path class="cls-1" d="M1266,280.44v8h-16l-8,8v16h-16v16l16,16,8-8,24,24,8-8v-8h-8l-24-24-8,8v-8h24v16h16v-8h-8l8-8v-16l-8,8-8-8h16v-24Z" transform="translate(0 0)"/><path class="cls-1" d="M1274,424.66l-8-8-8,8Z" transform="translate(0 0)"/><path class="cls-1" d="M1266,609l-8,8v8h-8v8h-8l-8,8v8h-8v16l8,8h16l8,8,8-8-16-16-8,8-8-8h16V641l8,8v16h16l8,8V649h-8v8h-8V641l-8-8h16l-8,8,8,8,8-8V609l-8,8Z" transform="translate(0 0)"/><polygon class="cls-1" points="1265.97 56.09 1265.97 48.08 1257.96 56.09 1265.97 56.09"/><polygon class="cls-1" points="1249.95 448.7 1249.95 440.69 1241.94 440.69 1249.95 448.7"/><path class="cls-1" d="M1241.94,344.54l8,8,8-8Z" transform="translate(0 0)"/><polygon class="cls-1" points="1241.94 376.59 1241.94 384.6 1249.95 384.6 1241.94 376.59"/><polygon class="cls-1" points="913.42 416.65 921.44 408.64 913.42 408.64 913.42 416.65"/><polygon class="cls-1" points="905.41 16.03 905.41 24.04 913.42 16.03 905.41 16.03"/><polygon class="cls-1" points="905.41 368.58 913.42 368.58 905.41 360.56 905.41 368.58"/><polygon class="cls-1" points="905.41 408.64 905.41 400.63 897.4 400.63 905.41 408.64"/><path class="cls-1" d="M889.39,392.61h-16l8,8Z" transform="translate(0 0)"/><path class="cls-1" d="M881.37,464.72h-16l-8,8h16Z" transform="translate(0 0)"/><polygon class="cls-1" points="873.36 488.76 873.36 480.75 865.35 480.75 873.36 488.76"/><path class="cls-1" d="M849.32,352.55l8,8,8-8Z" transform="translate(0 0)"/><polygon class="cls-1" points="841.31 408.64 841.31 400.63 833.3 400.63 841.31 408.64"/><polygon class="cls-1" points="825.29 440.69 825.29 448.7 833.3 448.7 825.29 440.69"/><polygon class="cls-1" points="825.29 384.6 825.29 376.59 817.27 384.6 825.29 384.6"/><path class="cls-1" d="M825.29,24l-8-8-8,8Z" transform="translate(0 0)"/><polygon class="cls-1" points="817.27 416.65 817.27 424.66 825.29 424.66 817.27 416.65"/><path class="cls-1" d="M801.25,464.72l-8-8-8,8Z" transform="translate(0 0)"/><polygon class="cls-1" points="777.21 408.64 785.23 400.63 777.21 400.63 777.21 408.64"/><polygon class="cls-1" points="769.2 440.69 761.19 440.69 769.2 448.7 769.2 440.69"/><polygon class="cls-1" points="753.17 400.63 761.19 400.63 761.19 392.61 753.17 400.63"/><path class="cls-1" d="M745.16,376.59l8-8v8h-8l8,8h16l-8-8h16l-8,8h16v-16l16-16,8,8h-16l16,16,8-8v-24h8l-8,8,8,8v16l8-8v-16l8,8,16-16,8,8,8-8,8,8h8v-24l8,8-8,8h8v8l8-8v-16l8,8-8,8,8,8v16l-16,16,8,8,24-24v-16l-8-8v-16l-16-16v-16l-16-16h-16l-8,8h-16v16l-8,8-8-8h-16v8h-8l-8,8h-16v24h-8l-8,8v16l-8-8h-16v8h-8l-8,8,8,8Zm96.15-32-8-8h16Zm32.05-16v-16l8,8Zm16-32.05h-8v-8Zm-80.13,32.05-8,8v-8Z" transform="translate(0 0)"/><polygon class="cls-1" points="616.96 192.3 616.96 184.29 608.95 192.3 616.96 192.3"/><polygon class="cls-1" points="576.9 168.26 576.9 160.25 568.89 168.26 576.9 168.26"/><polygon class="cls-1" points="560.88 176.28 560.88 168.26 552.86 168.26 560.88 176.28"/><polygon class="cls-1" points="544.85 200.31 544.85 192.3 536.84 200.31 544.85 200.31"/><path class="cls-1" d="M520.81,200.31l-8-8h-16v8Z" transform="translate(0 0)"/><polygon class="cls-1" points="512.8 168.26 512.8 160.25 504.79 168.26 512.8 168.26"/><polygon class="cls-1" points="504.79 216.34 512.8 208.33 504.79 208.33 504.79 216.34"/><polygon class="cls-1" points="496.77 152.24 496.77 160.25 504.79 152.24 496.77 144.23 496.77 152.24"/><polygon class="cls-1" points="456.71 152.24 464.73 160.25 472.74 160.25 472.74 152.24 464.73 144.23 456.71 152.24"/><polygon class="cls-1" points="456.71 184.29 456.71 192.3 464.73 192.3 456.71 184.29"/><polygon class="cls-1" points="448.7 168.26 448.7 176.28 456.71 168.26 448.7 168.26"/><path class="cls-1" d="M432.67,136.21h-8l-8,8,8,8,8-8,8,8v-16l-8-8Z" transform="translate(0 0)"/><path class="cls-1" d="M424.66,200.31h-16l-8,8h16Z" transform="translate(0 0)"/><polygon class="cls-1" points="416.65 496.78 416.65 488.76 408.64 488.76 416.65 496.78"/><polygon class="cls-1" points="400.63 160.25 400.63 168.26 408.64 168.26 400.63 160.25"/><path class="cls-1" d="M384.6,472.74h-8l8,8h16l-8-8Z" transform="translate(0 0)"/><polygon class="cls-1" points="376.59 192.3 384.6 192.3 376.59 184.29 376.59 192.3"/><polygon class="cls-1" points="368.57 152.24 360.56 152.24 368.57 160.25 368.57 152.24"/><path class="cls-1" d="M352.55,208.33h16l-8-8Z" transform="translate(0 0)"/><path class="cls-1" d="M352.55,496.77l-8-8-8,8Z" transform="translate(0 0)"/><polygon class="cls-1" points="336.52 408.64 336.52 400.63 328.51 408.64 336.52 408.64"/><path class="cls-1" d="M328.51,184.29h-16l8,8h16l8-8Z" transform="translate(0 0)"/><polygon class="cls-1" points="328.51 432.68 336.52 432.68 328.51 424.66 328.51 432.68"/><polygon class="cls-1" points="312.49 152.24 304.48 144.23 304.48 152.24 312.49 152.24"/><polygon class="cls-1" points="296.46 184.29 296.46 176.28 288.45 176.28 296.46 184.29"/><path class="cls-1" d="M280.44,392.61l8,8,8-8Z" transform="translate(0 0)"/><path class="cls-1" d="M288.45,128.2v8h8l8,8v-32l8,8,8-8v8h-8v16h16v-16l16,16,8-8v8h-8l16,16V120.19l8-8h-16l8-8,8,8v32.05l8-8,16,16v-8h8v8h8l8-8-8-8h16v-16l8-8-8-8h16l-8,8v16h8v8l8,8v16l8-8v-16l8,8h16l-8,8,8,8h8v-24l8,8h8v8l8,8V128.2l8-8v32.05l8-8h8v-8l8-8h-16l8-8,8,8v16l8,8,8-8v-16l8,8v16l8-8v-16l8-8-8-8h8v24l8,8v8h8v-16l-8-8h8v8l8,8h8v-8l-8-8v-16h-8v-8l-8-8h-16v-16l-16-16h-8v8h-16l-8,8v16l-8-8h-16l-8,8v16l-8,8h-8v8l-8-8h-8v-8l-16-16h-8v-8h-16l-8,8-8-8v-8h-8l-8-8h-16l-8,8h-16l-8,8v16h-16l-16-16h-8v8h-16l-8,8h-8v24l8,8Zm280.44-16v8h-8v-8l8-8Zm0-32v8l-8-8Zm-24,16,8,8h-16Zm-32.05,16v8h-8Zm-48.08,16h-16l8-8Zm-88.13,0v-8l8,8Zm16,8v-16l8-8v16Zm24-16h-8l8-8Zm-24-16-8-8h16Zm-24-16v8l-8-8Zm-80.13,24,8,8h-16Z" transform="translate(0 0)"/><polygon class="cls-1" points="272.43 144.23 272.43 152.24 280.44 152.24 272.43 144.23"/><polygon class="cls-1" points="272.43 400.63 272.43 408.64 280.44 408.64 272.43 400.63"/><polygon class="cls-1" points="272.43 472.74 272.43 464.73 264.41 472.74 272.43 472.74"/><polygon class="cls-1" points="264.41 496.78 264.41 488.76 256.4 496.78 264.41 496.78"/><polygon class="cls-1" points="264.41 424.66 264.41 416.65 256.4 416.65 264.41 424.66"/><path class="cls-1" d="M256.4,392.61v-8l8,8h16l8-8,8,8,8-8-8-8v-16l8,8v32l8,8,8-8v-16h-8v-8l8,8h16v-16h-16l8-8,8,8,8-8v16l-8,8v8h-8v8h24l8-8h-16l8-8,8,8v16l8,8h-8v-8l-16,16,8,8h16l-8-8h16v-16l8,8-16,16h16l8,8v-16l8-8v16l8-8v-16l-16-16h-16v-16l-8-8h-8v-8l-8-8v-16h-8v-8H296.46l-8,8v8h-24v16l-8,8v8h-8l-8,8,8,8Zm136.21,8v8l-8-8Zm-88.14-56.08h8l-8,8Zm32,8v-8h8Zm-56.08,0h8l-8,8-8-8Zm-8,24h8l-8,8-8-8Z" transform="translate(0 0)"/><polygon class="cls-1" points="184.29 32.05 192.3 32.05 184.29 24.04 184.29 32.05"/><path class="cls-1" d="M168.26,352.55h-24v24h-16v8h-16v16l8-8,8,8,8-8v8h8v-16l8,8h16v-24h8l-8,8,8,8v16l8-8V360.56l-8-8Zm-16,32.05v-8l8,8Z" transform="translate(0 0)"/><rect class="cls-1" x="168.26" y="448.7" width="8.01" height="8.01"/><polygon class="cls-1" points="136.21 440.69 136.21 448.7 144.22 448.7 136.21 440.69"/><polygon class="cls-1" points="136.21 16.03 144.22 16.03 136.21 8.01 128.2 16.03 136.21 16.03"/><polygon class="cls-1" points="128.2 0 120.19 8.01 128.2 8.01 128.2 0"/><path class="cls-1" d="M112.17,400.62l8,8,8-8Z" transform="translate(0 0)"/><polygon class="cls-1" points="24.04 360.56 24.04 352.55 16.02 352.55 24.04 360.56"/><polygon class="cls-1" points="8.01 360.56 0 368.58 8.01 368.58 8.01 360.56"/><path class="cls-1" d="M8,328.51l8,8v8h8l8-8v-16l-8,8-8-8v-16l-8-8H0v24l8-8v8H0v16l8,8Z" transform="translate(0 0)"/><polygon class="cls-1" points="0 344.54 0 352.55 8.01 344.54 0 344.54"/><g id="Export"><line id="Export-2" data-name="Export" class="cls-2" x2="1282"/><line id="Export-3" data-name="Export" class="cls-2" x1="1282" y1="1282" y2="1282"/></g></g></g></svg>