<svg xmlns="http://www.w3.org/2000/svg" viewBox="0 0 1282 1282"><defs><style>.cls-1{fill:#3b281c;}.cls-2{fill:none;}</style></defs><g id="Layer_2" data-name="Layer 2"><g id="Layer_1-2" data-name="Layer 1"><path class="cls-1" d="M1274,705.1h8v-16l-8,8Z" transform="translate(0 0)"/><path class="cls-1" d="M1274,721.12v8l-8,8h16v-32l-8,8Z" transform="translate(0 0)"/><polygon class="cls-1" points="1273.99 769.2 1273.99 777.21 1282 769.2 1273.99 761.19 1273.99 769.2"/><path class="cls-1" d="M1274,833.3v8l8,8v-16l-8-8Z" transform="translate(0 0)"/><path class="cls-1" d="M1274,1217.9v8l8,8v-16l-8-8Z" transform="translate(0 0)"/><polygon class="cls-1" points="1273.99 945.48 1265.97 945.48 1273.99 953.49 1273.99 945.48"/><path class="cls-1" d="M1266,929.45l16,16v-16Z" transform="translate(0 0)"/><path class="cls-1" d="M1274,913.42v-8l-8-8v24h8Z" transform="translate(0 0)"/><path class="cls-1" d="M1266,801.25l8,8h8v-8Z" transform="translate(0 0)"/><path class="cls-1" d="M1274,649l-8-8v16h8Z" transform="translate(0 0)"/><path class="cls-1" d="M1266,665h-8l8,8h8v8l8,8v-16l-8-8Z" transform="translate(0 0)"/><path class="cls-1" d="M1266,857.34h-8l8,8h16l-8-8Z" transform="translate(0 0)"/><path class="cls-1" d="M1274,793.24l-16-16v16Z" transform="translate(0 0)"/><path class="cls-1" d="M1258,729.14h16l-8-8Z" transform="translate(0 0)"/><path class="cls-1" d="M1258,689.07h-8l8,8h16l-8-8Z" transform="translate(0 0)"/><path class="cls-1" d="M1258,1250v24l8-8v-16l-8-8Z" transform="translate(0 0)"/><path class="cls-1" d="M1258,649l-8-8v16l8,8Z" transform="translate(0 0)"/><path class="cls-1" d="M1250,681.06h8l-8-8h-16l8,8Z" transform="translate(0 0)"/><polygon class="cls-1" points="1241.94 913.43 1249.95 913.43 1241.94 905.41 1241.94 913.43"/><polygon class="cls-1" points="1241.94 1249.95 1241.94 1257.96 1249.95 1249.95 1241.94 1241.94 1241.94 1249.95"/><path class="cls-1" d="M1241.94,1282h8v-16l-8,8Z" transform="translate(0 0)"/><path class="cls-1" d="M1233.92,897.4v-16l-8,8v8h-8v16Z" transform="translate(0 0)"/><path class="cls-1" d="M1225.91,1258l-8-8v16l8,8v8h8v-16h-8Z" transform="translate(0 0)"/><path class="cls-1" d="M1225.91,953.49v-16l16-16h-16v-8h-8v16l-8-8v16l8,8-8,8v16l-8,8h16l8,8v-8h8l-8-8Z" transform="translate(0 0)"/><path class="cls-1" d="M1217.9,881.38l-8-8v16h8Z" transform="translate(0 0)"/><polygon class="cls-1" points="1201.88 913.43 1193.86 921.44 1201.88 921.44 1201.88 913.43"/><path class="cls-1" d="M1201.87,897.4l-8-8v16l8,8Z" transform="translate(0 0)"/><path class="cls-1" d="M1185.85,873.36v-8l-8-8v16l8,8Z" transform="translate(0 0)"/><path class="cls-1" d="M1177.84,913.42h-8l8,8h16l-8-8Z" transform="translate(0 0)"/><path class="cls-1" d="M1169.82,897.4l-8-8v16l8,8Z" transform="translate(0 0)"/><polygon class="cls-1" points="1161.81 1009.58 1161.81 1017.59 1169.83 1009.58 1161.81 1001.56 1161.81 1009.58"/><path class="cls-1" d="M1153.8,1025.6v16l16-16Z" transform="translate(0 0)"/><path class="cls-1" d="M1153.8,913.42l8,8,8-8Z" transform="translate(0 0)"/><path class="cls-1" d="M1145.79,1001.56v16l8-8Z" transform="translate(0 0)"/><path class="cls-1" d="M1145.79,1033.61v-16h-16l8,8v16l-8,8v16l8,8-16,16h24v-40.06h8v-8h-8Z" transform="translate(0 0)"/><path class="cls-1" d="M1121.75,1025.6l-8,8,8,8h16Z" transform="translate(0 0)"/><path class="cls-1" d="M1121.75,1009.57l-8,8v8h8Z" transform="translate(0 0)"/><path class="cls-1" d="M929.45,841.31v8l8,8v-16l-8-8Z" transform="translate(0 0)"/><polygon class="cls-1" points="913.42 881.38 921.44 873.36 913.42 873.36 913.42 881.38"/><path class="cls-1" d="M913.42,857.34h-8l-8,8h-16l8,8h-32l8,8h16l8,8v16l-16,16v16l-8,8h16l8,8,8-8h16l-8-8h-8v-24l16-16h-8v-24l8-8h8v-24l-8,8Z" transform="translate(0 0)"/><path class="cls-1" d="M897.4,841.31h-8v16l16-16-8-8Z" transform="translate(0 0)"/><path class="cls-1" d="M873.36,817.27v24l8-8v-16l-8-8Z" transform="translate(0 0)"/><path class="cls-1" d="M865.35,849.32v8h-8v8h24Z" transform="translate(0 0)"/><polygon class="cls-1" points="857.34 833.3 857.34 841.31 865.35 833.3 857.34 825.29 857.34 833.3"/><path class="cls-1" d="M841.31,849.32v8l8,8v-16l-8-8Z" transform="translate(0 0)"/><polygon class="cls-1" points="817.27 921.44 809.26 921.44 817.27 929.45 817.27 921.44"/><path class="cls-1" d="M809.26,833.3v8l8-8v-16l-8,8Z" transform="translate(0 0)"/><polygon class="cls-1" points="801.25 849.33 809.26 841.31 801.25 841.31 801.25 849.33"/><polygon class="cls-1" points="793.24 1129.76 801.25 1121.75 793.24 1121.75 793.24 1129.76"/><path class="cls-1" d="M793.24,921.44v-16l-8,8Z" transform="translate(0 0)"/><path class="cls-1" d="M793.24,841.31l-8,8v16l-8,8v16l-8,8,8,8,8-8,8,8h8v16h8v-16l-16-16v-16l8-8v-16h-8Z" transform="translate(0 0)"/><path class="cls-1" d="M793.24,825.29l-8,8v8h8Z" transform="translate(0 0)"/><path class="cls-1" d="M777.21,1193.86h16l-8-8Z" transform="translate(0 0)"/><path class="cls-1" d="M777.21,1129.76l-8,8h16l8-8Z" transform="translate(0 0)"/><path class="cls-1" d="M777.21,849.32v-8h-16l8,8Z" transform="translate(0 0)"/><path class="cls-1" d="M777.21,825.29v-16l-8,8v16l8,8Z" transform="translate(0 0)"/><path class="cls-1" d="M769.2,1113.74v-8l-8,8v16l8-8Z" transform="translate(0 0)"/><path class="cls-1" d="M769.2,801.25v-16l-8-8v16Z" transform="translate(0 0)"/><path class="cls-1" d="M753.17,1169.82v-16l8-8v-16l-8-8v16l-8,8-24-24v16l16,16v32l8-8v16h16l-8-8h16Z" transform="translate(0 0)"/><path class="cls-1" d="M745.16,905.41h16l-8-8Z" transform="translate(0 0)"/><path class="cls-1" d="M753.17,841.31h8l-8-8h-16l8,8Z" transform="translate(0 0)"/><polygon class="cls-1" points="753.17 809.26 753.17 801.25 745.16 809.26 753.17 817.28 753.17 809.26"/><path class="cls-1" d="M729.14,929.45v-8l-8,8v8h-16v8h16l16-16Z" transform="translate(0 0)"/><path class="cls-1" d="M729.14,1105.72v8l8,8v-32l-8,8Z" transform="translate(0 0)"/><path class="cls-1" d="M721.12,721.12l8-8v-16l-8-8Z" transform="translate(0 0)"/><path class="cls-1" d="M721.12,1193.86h-8l-8,8h32l-8-8Z" transform="translate(0 0)"/><path class="cls-1" d="M713.11,1001.56h16l-16-16Z" transform="translate(0 0)"/><polygon class="cls-1" points="713.11 697.09 713.11 705.1 721.13 705.1 713.11 697.09"/><polygon class="cls-1" points="705.1 721.13 713.11 729.14 713.11 721.13 705.1 721.13"/><path class="cls-1" d="M713.11,985.54l-8-8-8,8Z" transform="translate(0 0)"/><path class="cls-1" d="M705.1,1041.63h-16l-8,8h32.05Z" transform="translate(0 0)"/><polygon class="cls-1" points="705.1 1113.74 705.1 1121.75 713.11 1113.74 705.1 1105.73 705.1 1113.74"/><path class="cls-1" d="M705.1,705.1l-8,8,8,8Z" transform="translate(0 0)"/><path class="cls-1" d="M705.1,689.07l-8-8v16l8,8Z" transform="translate(0 0)"/><path class="cls-1" d="M697.09,1129.76v8h-8l-8,8h16l8-8Z" transform="translate(0 0)"/><polygon class="cls-1" points="697.09 1057.65 705.1 1057.65 697.09 1049.64 689.08 1057.65 697.09 1057.65"/><path class="cls-1" d="M681.06,697.09l-8-8v16h8Z" transform="translate(0 0)"/><polygon class="cls-1" points="673.05 713.11 673.05 721.13 681.06 713.11 673.05 713.11"/><path class="cls-1" d="M681.06,761.19h16l-8-8,24-24h-16v8h-16v8l-16,16Z" transform="translate(0 0)"/><path class="cls-1" d="M681.06,985.54l8,8,8-8-8-8h-16l-8,8Z" transform="translate(0 0)"/><path class="cls-1" d="M673.05,1113.74h8v-16l-8,8Z" transform="translate(0 0)"/><polygon class="cls-1" points="673.05 1225.91 681.06 1225.91 673.05 1217.9 673.05 1225.91"/><path class="cls-1" d="M673.05,1201.88h-8v-40.07l8-8-8-8,8-8v-16l-16,16-8-8v16H633l16,16v48.08l-8,8h8v8l8-8h16l-8-8Z" transform="translate(0 0)"/><path class="cls-1" d="M665,777.21v-8h8l-8-8v-16l16-16H665l8-8H657v16h-8v24Z" transform="translate(0 0)"/><path class="cls-1" d="M657,705.1v-16l-16-16v16Z" transform="translate(0 0)"/><polygon class="cls-1" points="649.01 721.13 657.02 721.13 649.01 713.11 649.01 721.13"/><path class="cls-1" d="M649,1113.74v16l8-8Z" transform="translate(0 0)"/><path class="cls-1" d="M641,929.45v-8h-8v-16l-8-8v32.05l16,16Z" transform="translate(0 0)"/><path class="cls-1" d="M641,785.22v-16l-8,8Z" transform="translate(0 0)"/><path class="cls-1" d="M641,1121.75v-16l-8-8v24h-8l8,8Z" transform="translate(0 0)"/><path class="cls-1" d="M625,769.2h24v-8H633Z" transform="translate(0 0)"/><path class="cls-1" d="M625,1009.57l-24,24h16l8-8,16,16h16l-16-16,8-8-8-8h8v-8h16l8,8h16L657,977.52v-16l8-8h16l8-8h8v-8l8-8v-16l8-8h-8v-8l-8,8v16h-8v8l-8,8h-8v-8l16-16v-16l-8-8v24h-8l-8-8v-16l8-8h-8v-8l-8,8v16l-8-8v16l16,16-8,8v8h-8v32l-8,8v-32l-8,8-16-16v-16l-8,8-8-8,8-8v-16l8-8h-8v-8l-8-8v32l-8,8v8h-8l24,24v16l8,8v8h-8l-16,16h24v-8l16,16h-8Z" transform="translate(0 0)"/><path class="cls-1" d="M617,721.12h8l8-8v-16l-16,16Z" transform="translate(0 0)"/><path class="cls-1" d="M617,753.17v-24l-8-8h-8v8h-16l16,16v16l-8,8,8,8v-8h24l-8-8Z" transform="translate(0 0)"/><polygon class="cls-1" points="608.95 697.09 608.95 705.1 616.96 697.09 608.95 689.08 608.95 697.09"/><path class="cls-1" d="M609,1121.75v16h16Z" transform="translate(0 0)"/><path class="cls-1" d="M600.94,961.5v-16h-8l-16-16v-16l8-8h-8v-8l-8,8v16h-16l32,32-8,8Z" transform="translate(0 0)"/><polygon class="cls-1" points="592.92 705.1 592.92 713.11 600.94 713.11 592.92 705.1"/><polygon class="cls-1" points="576.9 729.14 576.9 721.13 568.89 729.14 576.9 729.14"/><path class="cls-1" d="M576.9,697.09v-8l-8,8v16l8-8Z" transform="translate(0 0)"/><polygon class="cls-1" points="552.86 689.08 552.86 697.09 560.88 689.08 552.86 681.06 552.86 689.08"/><path class="cls-1" d="M544.85,977.52l-8,8h24v-8Z" transform="translate(0 0)"/><path class="cls-1" d="M544.85,1001.56h-8l-8,8h32l-8-8Z" transform="translate(0 0)"/><path class="cls-1" d="M528.83,737.15l8,8h8v8l-8,8h16l8,8,8-8h16l-24-24h-8v-16h8v-16l-16,16v8h-8l-8-8Z" transform="translate(0 0)"/><path class="cls-1" d="M520.81,713.11h-16v8h24Z" transform="translate(0 0)"/><path class="cls-1" d="M512.8,697.09v8h8v-24l-8,8Z" transform="translate(0 0)"/><path class="cls-1" d="M504.79,697.09l-8,8,8,8Z" transform="translate(0 0)"/><path class="cls-1" d="M496.77,1049.64h-8l-16,16v8h-8v16l-16,16h16l8,8v-8h8l8-8h-8v-24l16-16h8v-24l-8,8Z" transform="translate(0 0)"/><path class="cls-1" d="M496.77,729.14v-16h-8v8h-8v16l-8,8h8v8l8-8h16l-8-8Z" transform="translate(0 0)"/><polygon class="cls-1" points="496.77 1105.73 488.76 1097.71 488.76 1105.73 496.77 1105.73"/><path class="cls-1" d="M488.76,1033.61l-8-8v16h8Z" transform="translate(0 0)"/><path class="cls-1" d="M488.76,689.07v-8l-8-8V705.1l8-8Z" transform="translate(0 0)"/><path class="cls-1" d="M480.75,1041.63l-16,16h16Z" transform="translate(0 0)"/><path class="cls-1" d="M480.75,1009.57v-16l-8,8v16l8,8Z" transform="translate(0 0)"/><path class="cls-1" d="M480.75,705.1l-24-24v16l8,8h8v16h8Z" transform="translate(0 0)"/><path class="cls-1" d="M464.72,1041.63v-16l-16,16H416.65l8,8h8v8h16Z" transform="translate(0 0)"/><path class="cls-1" d="M456.71,1001.56v16l8-8Z" transform="translate(0 0)"/><polygon class="cls-1" points="464.73 1121.75 456.71 1113.74 456.71 1121.75 464.73 1121.75"/><path class="cls-1" d="M448.7,729.14v8l8-8v-16l-8,8Z" transform="translate(0 0)"/><path class="cls-1" d="M448.7,1089.7v-8h-8l-8-8v40.07h-8l-8,8H448.7l8-8-8-8Z" transform="translate(0 0)"/><path class="cls-1" d="M440.69,753.17v8l8-8v-16l-8,8Z" transform="translate(0 0)"/><path class="cls-1" d="M440.69,1073.67h8v-16l-8,8Z" transform="translate(0 0)"/><polygon class="cls-1" points="432.68 945.48 432.68 953.49 440.69 953.49 432.68 945.48"/><polygon class="cls-1" points="432.68 1129.76 440.69 1129.76 432.68 1121.75 424.66 1129.76 432.68 1129.76"/><path class="cls-1" d="M424.66,769.2v8l8,8-8,8h32l-16-16v-16l-8,8Z" transform="translate(0 0)"/><polygon class="cls-1" points="424.66 945.48 424.66 937.46 416.65 945.48 416.65 953.49 424.66 953.49 424.66 945.48"/><path class="cls-1" d="M424.66,737.15v-8l-8-8v32l8-8Z" transform="translate(0 0)"/><path class="cls-1" d="M424.66,809.26l-8-8-8,8Z" transform="translate(0 0)"/><path class="cls-1" d="M408.64,1129.76l-8,8h32.05l-8-8Z" transform="translate(0 0)"/><path class="cls-1" d="M416.65,1025.6l-8-8v16l8,8Z" transform="translate(0 0)"/><path class="cls-1" d="M400.62,705.1v16l8-8Z" transform="translate(0 0)"/><path class="cls-1" d="M408.64,809.26l-8-8h-8v-24l8-8V737.15l-8,8v16l-8-8v-16l-8-8v32.05l8,8v8h-8v16l-16,16h16l8,8,8-8Z" transform="translate(0 0)"/><path class="cls-1" d="M400.62,1041.63v16l8,8h16l-8-8h-8v-8Z" transform="translate(0 0)"/><polygon class="cls-1" points="376.59 1185.85 384.6 1185.85 376.59 1177.84 376.59 1185.85"/><path class="cls-1" d="M360.56,1241.94h16l-8-8Z" transform="translate(0 0)"/><polygon class="cls-1" points="368.57 761.19 360.56 761.19 368.57 769.2 368.57 761.19"/><path class="cls-1" d="M360.56,753.17v-8l-8-8v16l8,8Z" transform="translate(0 0)"/><polygon class="cls-1" points="352.55 1185.85 360.56 1177.84 352.55 1177.84 352.55 1185.85"/><path class="cls-1" d="M352.55,1201.88h16v-16l-8,8h-8Z" transform="translate(0 0)"/><path class="cls-1" d="M344.54,1225.91h-8v-8l8-8v-8h-24l8,8-8,8v16l-8,8-8-8-8,8h8v8h16l8-8,8,8v-16l8,8h16Z" transform="translate(0 0)"/><path class="cls-1" d="M344.54,1185.85v-8l-8-8v32.06l8-8Z" transform="translate(0 0)"/><polygon class="cls-1" points="320.5 1121.75 328.51 1113.74 320.5 1113.74 320.5 1121.75"/><path class="cls-1" d="M320.5,1185.85v16l8-8Z" transform="translate(0 0)"/><path class="cls-1" d="M320.5,1233.92l-16-16h-8v8h8v8Z" transform="translate(0 0)"/><path class="cls-1" d="M304.47,1033.61v24l8-8v-32.05l-8,8Z" transform="translate(0 0)"/><path class="cls-1" d="M312.49,1081.69l8-8v-16l-24,24Z" transform="translate(0 0)"/><path class="cls-1" d="M304.47,1121.75v-8h8l-8-8v-16l-8-8v-32l-8,8v16l-8-8h-16l24,24v16l-8,8h16Z" transform="translate(0 0)"/><path class="cls-1" d="M280.44,1049.64v-16l-8,8v16l8,8Z" transform="translate(0 0)"/><path class="cls-1" d="M144.22,777.21v8l8-8v-16l-8,8Z" transform="translate(0 0)"/><path class="cls-1" d="M136.21,745.16v16l8-8Z" transform="translate(0 0)"/><path class="cls-1" d="M136.21,777.21v-16l-8,8-24-24v16l16,16v16l8,8-24,24h16l8,8,8-8h16l-8-8v-16l-8-8,8-8h-8Z" transform="translate(0 0)"/><polygon class="cls-1" points="104.16 777.21 104.16 785.23 112.17 785.23 104.16 777.21"/><path class="cls-1" d="M80.12,705.1v16l8-8Z" transform="translate(0 0)"/><path class="cls-1" d="M80.12,785.22l-8-8V729.14l-8,8V769.2l-8-8-8,8,24,24-8,8H96.15Z" transform="translate(0 0)"/><path class="cls-1" d="M72.11,985.54l-8,8h16l8-8Z" transform="translate(0 0)"/><path class="cls-1" d="M64.1,977.52l-8,8v16l8-8Z" transform="translate(0 0)"/><path class="cls-1" d="M56.09,713.11v16l8-8Z" transform="translate(0 0)"/><polygon class="cls-1" points="56.09 1282 56.09 1273.99 48.08 1282 56.09 1282"/><path class="cls-1" d="M56.09,745.16v-16l-8,8v16l8,8Z" transform="translate(0 0)"/><polygon class="cls-1" points="48.08 1009.58 56.09 1001.56 48.08 1001.56 48.08 1009.58"/><path class="cls-1" d="M48.08,985.54v-8l-8-8v32l8-8Z" transform="translate(0 0)"/><path class="cls-1" d="M32.05,865.35h16l8-8-8-8v8h-8Z" transform="translate(0 0)"/><polygon class="cls-1" points="40.06 737.15 40.06 729.14 32.05 737.15 40.06 745.16 40.06 737.15"/><path class="cls-1" d="M40.06,713.11v-16l-8,8v16h8Z" transform="translate(0 0)"/><path class="cls-1" d="M32.05,1001.56H24l8,8v16l8,8v16h8v-40.07l-8-8Z" transform="translate(0 0)"/><path class="cls-1" d="M32.05,897.4v16l8-8Z" transform="translate(0 0)"/><polygon class="cls-1" points="32.05 1273.99 32.05 1282 40.06 1273.99 32.05 1265.98 32.05 1273.99"/><path class="cls-1" d="M32.05,1057.65l-8-8v16h8Z" transform="translate(0 0)"/><path class="cls-1" d="M32.05,841.31v-8l-8,8v16l8-8Z" transform="translate(0 0)"/><path class="cls-1" d="M32.05,801.25v-16l-16,16Z" transform="translate(0 0)"/><polygon class="cls-1" points="24.04 1145.79 24.04 1153.8 32.05 1153.8 24.04 1145.79"/><path class="cls-1" d="M24,945.47v-24l8-8H16l-8,8v16l8,8Z" transform="translate(0 0)"/><path class="cls-1" d="M24,897.4v-24l-8,8v16l8,8Z" transform="translate(0 0)"/><polygon class="cls-1" points="16.02 1065.66 16.02 1073.68 24.04 1065.66 16.02 1065.66"/><path class="cls-1" d="M16,769.2v16l8-8Z" transform="translate(0 0)"/><polygon class="cls-1" points="16.02 1273.99 16.02 1282 24.04 1282 24.04 1273.99 16.02 1265.98 16.02 1273.99"/><path class="cls-1" d="M16,793.24v-8l-8,8v16l8-8Z" transform="translate(0 0)"/><path class="cls-1" d="M16,1057.65v-16l-8,8v8H0v16Z" transform="translate(0 0)"/><path class="cls-1" d="M8,1169.82H0v16l8-8H24v-16l-8,8Z" transform="translate(0 0)"/><polygon class="cls-1" points="8.01 1185.85 8.01 1193.86 16.02 1185.85 8.01 1185.85"/><path class="cls-1" d="M8,977.52v8l8,8v-16l-8-8Z" transform="translate(0 0)"/><path class="cls-1" d="M8,1153.8v8l8-8v-16l-8,8Z" transform="translate(0 0)"/><path class="cls-1" d="M8,1233.92h8v-16l-8,8Z" transform="translate(0 0)"/><polygon class="cls-1" points="8.01 1265.98 16.02 1265.98 8.01 1257.96 8.01 1265.98"/><path class="cls-1" d="M8,1089.7v-8l8-8H0v24H8Z" transform="translate(0 0)"/><path class="cls-1" d="M8,905.41v-16l-8,8v16H8Z" transform="translate(0 0)"/><polygon class="cls-1" points="1273.99 336.53 1265.97 336.53 1273.99 344.54 1282 344.54 1282 336.53 1273.99 336.53"/><path class="cls-1" d="M1266,384.6v8h16v-8Z" transform="translate(0 0)"/><path class="cls-1" d="M1274,368.58v-8l-8-8v16l8,8Z" transform="translate(0 0)"/><path class="cls-1" d="M1266,56.09v8l8-8v-16l-8,8Z" transform="translate(0 0)"/><path class="cls-1" d="M1266,320.5h-16l16,16Z" transform="translate(0 0)"/><polygon class="cls-1" points="1257.96 0 1257.96 8.01 1265.97 0 1257.96 0"/><path class="cls-1" d="M1258,368.58v-8l-8-8V384.6h16l-8-8Z" transform="translate(0 0)"/><path class="cls-1" d="M889.39,376.59v8h-8l-8,8h16l16-16Z" transform="translate(0 0)"/><path class="cls-1" d="M897.4,24V16l8-8h-16v24h8Z" transform="translate(0 0)"/><path class="cls-1" d="M889.39,328.51v16l8-8Z" transform="translate(0 0)"/><path class="cls-1" d="M881.37,360.56v8l16-16v-8h-8v8h-8Z" transform="translate(0 0)"/><polygon class="cls-1" points="873.36 0 873.36 8.01 881.38 0 873.36 0"/><path class="cls-1" d="M865.35,464.72h24v8l8-8-8-8h-16l-8-8v-16l8-8h24v-8l8-8h-16v8h-24v-32l8-8v-16l-16,16-24-24v16h8v8l16,16v16l-8,8,8,8-16,16v16h-16l-8,8h32.05l-8,8h16Z" transform="translate(0 0)"/><path class="cls-1" d="M857.34,8l-8-8V16h8Z" transform="translate(0 0)"/><path class="cls-1" d="M833.3,416.65l8,8v-16h-16Z" transform="translate(0 0)"/><path class="cls-1" d="M833.3,16V0l-8,8V24h8Z" transform="translate(0 0)"/><path class="cls-1" d="M817.27,400.62l16-16h-16l-8,8v8h-8l-8-8h-16l16,16h24Z" transform="translate(0 0)"/><path class="cls-1" d="M817.27,376.59h8v-16l-8-8v16l-8,8Z" transform="translate(0 0)"/><path class="cls-1" d="M809.26,448.7v-24h-16l-16-16v16l8,8h8v8l-16,16h16l8,8v-8h24l-8-8Z" transform="translate(0 0)"/><path class="cls-1" d="M809.26,408.64l-8,8,8,8Z" transform="translate(0 0)"/><path class="cls-1" d="M809.26,24V8l-8-8V32.05h8Z" transform="translate(0 0)"/><path class="cls-1" d="M785.22,376.59v8l8-8v-16l-8,8Z" transform="translate(0 0)"/><path class="cls-1" d="M785.22,16h8V8l-8-8-16,16Z" transform="translate(0 0)"/><polygon class="cls-1" points="769.2 384.6 777.21 392.61 777.21 384.6 769.2 384.6"/><path class="cls-1" d="M761.19,456.71h16l-8-8Z" transform="translate(0 0)"/><path class="cls-1" d="M769.2,416.65l-16-16v16Z" transform="translate(0 0)"/><path class="cls-1" d="M609,152.24v-8l-8-8v24h8Z" transform="translate(0 0)"/><path class="cls-1" d="M584.91,192.3h24l-8-8v-16l-16,16Z" transform="translate(0 0)"/><path class="cls-1" d="M584.91,160.25V120.19l-8,8v32.05l8,8Z" transform="translate(0 0)"/><path class="cls-1" d="M568.89,144.22v-8l-8-8v32.05l8-8Z" transform="translate(0 0)"/><polygon class="cls-1" points="568.89 112.18 568.89 104.16 560.88 112.18 560.88 120.19 568.89 120.19 568.89 112.18"/><path class="cls-1" d="M560.88,200.31h24l-16-16h-16l8,8Z" transform="translate(0 0)"/><path class="cls-1" d="M544.85,200.31v8l-8,8h16V184.29l-8-8-8,8,8,8Z" transform="translate(0 0)"/><path class="cls-1" d="M544.85,160.25V128.2l-8,8v16l-8,8v16Z" transform="translate(0 0)"/><path class="cls-1" d="M528.83,200.31h8v-16h-8v8l-8,8Z" transform="translate(0 0)"/><path class="cls-1" d="M520.81,144.22v-24l-8,8v32.05l8-8Z" transform="translate(0 0)"/><polygon class="cls-1" points="512.8 184.29 512.8 176.28 504.79 184.29 504.79 192.3 512.8 192.3 512.8 184.29"/><path class="cls-1" d="M496.77,152.24v-8l-8-8v32l8-8Z" transform="translate(0 0)"/><path class="cls-1" d="M488.76,208.33h8V176.27h-8v24l-8,8Z" transform="translate(0 0)"/><path class="cls-1" d="M480.75,168.26v-8l-8-8v16l8,8Z" transform="translate(0 0)"/><path class="cls-1" d="M464.72,184.29v8h16l-16-16Z" transform="translate(0 0)"/><path class="cls-1" d="M456.71,136.21v16l8-8Z" transform="translate(0 0)"/><path class="cls-1" d="M448.7,152.24v-8l-8-8v32l8-8Z" transform="translate(0 0)"/><path class="cls-1" d="M440.69,184.29v16h8v-24h-16Z" transform="translate(0 0)"/><path class="cls-1" d="M432.67,128.2v-16l-8,8v16h8Z" transform="translate(0 0)"/><path class="cls-1" d="M408.64,160.25h8v40.06h8V168.26l8-8h-8v-8l-8-8v8h-16v-8h-8v8l8,8Z" transform="translate(0 0)"/><path class="cls-1" d="M400.62,120.19v-8l-8,8v16l8-8Z" transform="translate(0 0)"/><path class="cls-1" d="M400.62,448.7V416.65l-8,8v16l-8,8Z" transform="translate(0 0)"/><path class="cls-1" d="M392.61,192.3h8v-16l-8-8v16l-8,8Z" transform="translate(0 0)"/><path class="cls-1" d="M384.6,456.71v-8h-8v-8l-8-8v32.05l-16,16H384.6l-8-8,8-8Z" transform="translate(0 0)"/><path class="cls-1" d="M376.59,200.31l-8,8h16Z" transform="translate(0 0)"/><polygon class="cls-1" points="376.59 416.65 376.59 424.66 384.6 416.65 376.59 408.64 376.59 416.65"/><path class="cls-1" d="M376.59,496.77h8l-8-8h-16l-8,8Z" transform="translate(0 0)"/><path class="cls-1" d="M376.59,168.26l8-8v-16l-8,8v8h-8l-8,8,8,8Z" transform="translate(0 0)"/><path class="cls-1" d="M368.58,136.21v-24l-8,8v32.05l8-8Z" transform="translate(0 0)"/><path class="cls-1" d="M360.56,400.62v-8l-8,8v16l8-8Z" transform="translate(0 0)"/><polygon class="cls-1" points="352.55 440.69 352.55 448.7 360.56 440.69 352.55 432.68 352.55 440.69"/><path class="cls-1" d="M352.55,152.24v-8l-8-8v32l8-8Z" transform="translate(0 0)"/><path class="cls-1" d="M336.52,200.31h24l-8-8,8-8-8-8-16,16Z" transform="translate(0 0)"/><path class="cls-1" d="M336.52,376.59v8l8-8v-16l-8,8Z" transform="translate(0 0)"/><path class="cls-1" d="M328.51,120.19v16l8-8Z" transform="translate(0 0)"/><path class="cls-1" d="M320.5,384.6v16h8v-8h8v-8Z" transform="translate(0 0)"/><path class="cls-1" d="M328.51,152.24l8-8-8-8v8h-8l-8,8v16Z" transform="translate(0 0)"/><path class="cls-1" d="M312.49,128.2v-8l-8-8v32.05l8-8Z" transform="translate(0 0)"/><path class="cls-1" d="M304.47,368.58l-8-8v16l8,8Z" transform="translate(0 0)"/><path class="cls-1" d="M304.47,184.29h24l-8-8v-8h-8l-8-8v16l-8,8Z" transform="translate(0 0)"/><path class="cls-1" d="M296.46,400.62v8l8-8v-16l-8,8Z" transform="translate(0 0)"/><polygon class="cls-1" points="288.45 432.68 296.46 440.69 296.46 432.68 288.45 432.68"/><path class="cls-1" d="M296.46,152.24l-8-8v-16l-8,8v16Z" transform="translate(0 0)"/><path class="cls-1" d="M296.46,488.76l8-8,8,8,8-8,8,8h16l-16-16V440.69h-16l8-8v-8h8l8-8h-24v8l-8-8h-8v8l8,8v8h-8l8,8v16l-24,24Z" transform="translate(0 0)"/><path class="cls-1" d="M280.44,472.74h16l-8-8Z" transform="translate(0 0)"/><path class="cls-1" d="M280.44,416.65h8l-8-8h-16l8,8Z" transform="translate(0 0)"/><path class="cls-1" d="M272.42,488.76h8l-8-8h-16l-8,8Z" transform="translate(0 0)"/><path class="cls-1" d="M264.41,392.61l-8-8v16l8,8Z" transform="translate(0 0)"/><path class="cls-1" d="M256.4,16V0h-8V8l-8,8Z" transform="translate(0 0)"/><path class="cls-1" d="M248.39,448.7h8v16l8-8v-16h-16l-8-8v16l8,8Z" transform="translate(0 0)"/><path class="cls-1" d="M232.36,504.79h16l-8-8Z" transform="translate(0 0)"/><polygon class="cls-1" points="232.36 416.65 224.35 416.65 216.34 424.66 224.35 432.68 224.35 424.66 232.36 424.66 232.36 416.65"/><rect class="cls-1" x="224.35" width="8.01" height="8.01"/><path class="cls-1" d="M208.33,472.74h-16v-8l-8-8v-16h-8v32.05h8l8,8h32l-8-8Z" transform="translate(0 0)"/><path class="cls-1" d="M216.34,24V0h-8V16l-8,8Z" transform="translate(0 0)"/><path class="cls-1" d="M184.29,424.66v-16l-8,8h-8v-8l-8-8h-8v-8l-8-8v16l8,8h8V448.7l-8,8h16v-32Z" transform="translate(0 0)"/><path class="cls-1" d="M168.26,384.6v16h8v-16l-8-8Z" transform="translate(0 0)"/><path class="cls-1" d="M160.25,16h8V8l8-8h-16l-16,16Z" transform="translate(0 0)"/><path class="cls-1" d="M136.21,400.62v-8l-8,8v16l8-8Z" transform="translate(0 0)"/><rect class="cls-1" x="128.2" width="8.01" height="8.01"/><path class="cls-1" d="M16,344.54v-8l-8-8v32.05l8-8Z" transform="translate(0 0)"/><g id="Export"><line id="Export-2" data-name="Export" class="cls-2" x2="1282"/><line id="Export-3" data-name="Export" class="cls-2" x1="1282" y1="1282" y2="1282"/></g></g></g></svg>