<?xml version="1.0" encoding="utf-8"?>
<!-- Generator: Adobe Illustrator 25.2.0, SVG Export Plug-In . SVG Version: 6.00 Build 0)  -->
<svg version="1.1" id="Layer_1" xmlns="http://www.w3.org/2000/svg" xmlns:xlink="http://www.w3.org/1999/xlink" x="0px" y="0px"
	 viewBox="0 0 314.5 314" style="enable-background:new 0 0 314.5 314;" xml:space="preserve">
<style type="text/css">
	.st0{fill:#5400E7;}
	.st1{fill:#141414;}
</style>
<g id="Layer_2_1_">
	<g id="Layer_1-2">
		<g id="aeb185af-abc3-4d29-985e-4961b12019ea">
			<g id="ee7f433f-5fc6-4db4-acb0-45285f089abd">
				<polyline class="st0" points="0,0 140.9,0 314.5,0 				"/>
				<polyline class="st0" points="314.5,314 126.1,314 0,314 				"/>
			</g>
		</g>
	</g>
</g>
<g>
	<polygon class="st1" points="253.6,172.8 237.2,203.5 225.5,183.1 208.8,195.1 197.2,216.1 179.6,199.3 134.9,199.3 117.3,216.1 
		105.7,195.1 89,183.1 77.3,203.5 60.9,172.8 46.5,171.8 58.7,219.5 118.2,252.3 157.2,247.3 196.3,252.3 255.8,219.5 268,171.8 	
		"/>
	<path class="st1" d="M243.3,106.1L221,67.5l-43.7,22.8h-40L93.5,67.5l-22.3,38.6l-41.4,18.2l6.8,31.7l28.9,2.2l12,22.6l9.2-16
		l24.5,17.7l7.9,14.1l12.8-12.3h50.6l12.8,12.3l7.9-14.1l24.5-17.7l9.2,16l12-22.6l28.9-2.2l6.8-31.7L243.3,106.1z M115.1,103.9
		H98.5l-8.3-6.3l8.3-14.4l25,14.4L115.1,103.9z M215.8,103.9h-16.6l-8.3-6.3l25-14.4l8.3,14.4L215.8,103.9z"/>
</g>
<path class="st1" d="M232.3,106.1L210,67.5l-43.7,22.8h-18l-43.7-22.8l-22.3,38.6l-33.4,8.2l5.8,41.7l58.5,90.4h88.2l58.5-90.4
	l5.8-41.7L232.3,106.1z M109.5,103.9l-8.3-6.3l8.3-14.4l25,14.4l-8.3,6.3H109.5z M131.7,201.6v-13.8l10.1,8.4L131.7,201.6z
	 M182.8,201.6l-10.1-5.3l10.1-8.4V201.6z M204.8,103.9h-16.6l-8.3-6.3l25-14.4l8.3,14.4L204.8,103.9z"/>
</svg>
