<?xml version="1.0" encoding="utf-8"?>
<!-- Generator: Adobe Illustrator 25.2.0, SVG Export Plug-In . SVG Version: 6.00 Build 0)  -->
<svg version="1.1" id="Layer_1" xmlns="http://www.w3.org/2000/svg" xmlns:xlink="http://www.w3.org/1999/xlink" x="0px" y="0px"
	 viewBox="0 0 314.5 314" style="enable-background:new 0 0 314.5 314;" xml:space="preserve">
<style type="text/css">
	.st0{fill:#5400E7;}
	.st1{fill:#1D1E1C;}
</style>
<g id="Layer_2_1_">
	<g id="Layer_1-2">
		<g id="aeb185af-abc3-4d29-985e-4961b12019ea">
			<g id="ee7f433f-5fc6-4db4-acb0-45285f089abd">
				<polyline class="st0" points="0,0 140.9,0 314.5,0 				"/>
				<polyline class="st0" points="314.5,314 126.1,314 0,314 				"/>
			</g>
		</g>
	</g>
</g>
<polygon class="st1" points="232.2,69 186.8,115.5 176.4,115.5 187.9,103.2 187.9,89.1 180.6,76.2 163.1,98.9 157.5,98.9 
	151.8,98.9 134.3,76.2 127,89.1 127,103.2 138.6,115.5 128.1,115.5 82.7,69 0,172.1 61.2,172.1 94.5,215.2 122.4,203.5 157.5,254 
	192.5,203.5 220.5,215.2 253.8,172.1 314.9,172.1 "/>
</svg>
