<?xml version="1.0" encoding="utf-8"?>
<!-- Generator: Adobe Illustrator 25.4.1, SVG Export Plug-In . SVG Version: 6.00 Build 0)  -->
<svg version="1.1" id="Layer_1" xmlns="http://www.w3.org/2000/svg" xmlns:xlink="http://www.w3.org/1999/xlink" x="0px" y="0px"
	 viewBox="0 0 314.5 314" style="enable-background:new 0 0 314.5 314;" xml:space="preserve">
<style type="text/css">
	.st0{fill:#5400E7;}
	.st1{fill:#231F20;}
</style>
<g id="Layer_2_00000098203646048398193020000012085182100070299803_">
	<g id="Layer_1-2">
		<g id="aeb185af-abc3-4d29-985e-4961b12019ea">
			<g id="ee7f433f-5fc6-4db4-acb0-45285f089abd">
				<polyline class="st0" points="0,0 140.9,0 314.5,0 				"/>
				<polyline class="st0" points="314.5,314 126.1,314 0,314 				"/>
			</g>
		</g>
		<path class="st1" d="M250.3,100.3L250.3,100.3l-25.8-0.1l-30.7-30.7l-0.2-0.2v-0.1h-72.8v0.1l-0.2,0.2L90,100.2H64.2v0.1l-0.1,0.1
			v61.8l18.3,18.3l-12.9,12.9l0.1,0.1l12.8,12.8l38.6-0.2l-0.2,38.6l0.1,0.1l12.9-12.9v-0.1v0.1l10.6,10.6l0.1-0.1l12.7-12.6
			l0.1-0.1v0.1l0.1-0.1l0.1,0.1v-0.1l0.1,0.1l12.6,12.6l0.1,0.1l10.6-10.6v-0.1v0.1l12.9,12.8l0.1-0.1l-0.2-38.6l38.6,0.2l12.8-12.9
			l0.1-0.1l-12.9-12.9l18.3-18.3v-61.8L250.3,100.3z M164.8,200.9l-7.6-7.6l-7.5,7.6l-7.6-7.6l15.2-15l15.1,15L164.8,200.9z"/>
	</g>
</g>
</svg>
