<?xml version="1.0" encoding="utf-8"?>
<!-- Generator: Adobe Illustrator 25.2.0, SVG Export Plug-In . SVG Version: 6.00 Build 0)  -->
<svg version="1.1" id="Layer_1" xmlns="http://www.w3.org/2000/svg" xmlns:xlink="http://www.w3.org/1999/xlink" x="0px" y="0px"
	 viewBox="0 0 314.5 314" style="enable-background:new 0 0 314.5 314;" xml:space="preserve">
<style type="text/css">
	.st0{fill:#5400E7;}
	.st1{fill:#1D1D1B;}
</style>
<g id="Layer_2_1_">
	<g id="Layer_1-2">
		<g id="aeb185af-abc3-4d29-985e-4961b12019ea">
			<g id="ee7f433f-5fc6-4db4-acb0-45285f089abd">
				<polyline class="st0" points="0,0 140.9,0 314.5,0 				"/>
				<polyline class="st0" points="314.5,314 126.1,314 0,314 				"/>
			</g>
		</g>
	</g>
</g>
<path class="st1" d="M227.3,125v-23.2V87.2h-14.4V76l-24.4-24.4H157v-9.8h-32.8L86.7,79.3v45.6H65.8v47.2L78,184.4h8.6v1.4v30.5
	l52.8,52.8H173l54.2-52.8v-30.5v-1.4h8.6l12.2-12.2V125L227.3,125L227.3,125z M193.2,223.9h-7v-12h-21.6v12h-10v-12h-33.8v-10.8
	l5.9-5.9v10.6h17v-13.5h8.8v8.5h17v-8.5h15l8.9,8.9V223.9z"/>
</svg>
