<svg xmlns="http://www.w3.org/2000/svg" viewBox="0 0 314.5 314"><defs><style>.cls-1{fill:#5400e7;}.cls-2{fill:#231f20;}</style></defs><g id="Layer_2" data-name="Layer 2"><g id="Layer_1-2" data-name="Layer 1"><g id="b5e31b63-280e-4f38-96cb-4ce3912872af"><g id="a7f2af64-ea2b-4d32-adbc-dcaa5fbad56d"><polyline class="cls-1" points="0 0 140.87 0 314.5 0"/><polyline class="cls-1" points="314.5 314 126.12 314 0 314"/></g></g></g><g id="Layer_2-2" data-name="Layer 2"><g id="Control_Matter"><polygon class="cls-2" points="275.11 85.12 275.11 117.67 298 94.76 281.73 78.49 275.11 85.12"/><polygon class="cls-2" points="275.11 228.88 281.73 235.52 298 219.24 275.11 196.34 275.11 228.88"/><path class="cls-2" d="M222.28,111l13.49-13.5V78.49H216.71L203.22,92l-46-46-46,46L97.79,78.49H78.73V97.54L92.22,111l-46,46,.08.06,46,46L78.73,216.47v19.05h19L111.2,222l46.05,46V268l46-46,13.49,13.48h19.06V216.47L222.28,203l46-46Zm-18.85,78.3v13.84H189.58l-32.27,32.27v.07h-.06l-32.33-32.34H111.07V189.34L78.73,157h.08l32.26-32.34V110.82h13.85l32.33-32.33,32.33,32.33h13.85v13.85L235.77,157Z"/><polygon class="cls-2" points="196.73 274.85 219.56 297.7 235.77 281.49 229.14 274.85 196.73 274.85"/><polygon class="cls-2" points="235.77 32.52 219.5 16.24 196.59 39.15 229.06 39.15 235.77 32.52"/><polygon class="cls-2" points="157.25 137.94 138.19 157.01 157.25 176.06 157.25 175.99 176.31 157.01 157.25 137.94"/><polygon class="cls-2" points="78.73 281.49 95 297.76 117.91 274.85 85.38 274.85 78.73 281.49"/><polygon class="cls-2" points="117.91 39.15 95 16.24 78.73 32.52 78.73 32.59 85.38 39.15 117.91 39.15"/><polygon class="cls-2" points="32.71 235.52 32.77 235.52 39.33 228.96 39.33 196.41 16.5 219.24 32.71 235.52"/><polygon class="cls-2" points="16.5 94.76 39.33 117.6 39.33 85.06 32.77 78.49 16.5 94.76"/></g></g></g></svg>