<svg xmlns="http://www.w3.org/2000/svg" viewBox="0 0 314.5 314"><defs><style>.cls-1{fill:#5400e7;}</style></defs><g id="Layer_2" data-name="Layer 2"><g id="Layer_1-2" data-name="Layer 1"><g id="b5e31b63-280e-4f38-96cb-4ce3912872af"><g id="a7f2af64-ea2b-4d32-adbc-dcaa5fbad56d"><polyline class="cls-1" points="0 0 140.87 0 314.5 0"/><polyline class="cls-1" points="314.5 314 126.12 314 0 314"/></g></g></g><g id="Layer_2-2" data-name="Layer 2"><g id="MOVE"><polygon points="132.82 104.82 41.56 104.82 41.56 137.56 101.66 137.56 132.82 104.82"/><polygon points="314.5 125.16 223.42 34.08 138.26 123.57 124.94 137.56 124.94 137.56 93.74 170.34 127.73 221.58 127.73 221.58 140.44 240.74 166.43 279.92 245.58 273.78 219.04 194.4 254.06 169 262.38 179.28 276.17 168.56 268.68 158.39 280.05 150.14 288.14 159.65 302.87 148.18 295.51 138.93 314.5 125.16"/><polygon points="82.17 182.17 74.22 170.2 0 170.2 0 202.94 95.94 202.94 82.17 182.17"/><polygon points="55.83 221.58 55.83 254.32 130.02 254.32 108.31 221.58 55.83 221.58"/></g></g></g></svg>