<svg xmlns="http://www.w3.org/2000/svg" viewBox="0 0 314.5 314"><defs><style>.cls-1{fill:#5400e7;}</style></defs><g id="Layer_2" data-name="Layer 2"><g id="Layer_1-2" data-name="Layer 1"><g id="b5e31b63-280e-4f38-96cb-4ce3912872af"><g id="a7f2af64-ea2b-4d32-adbc-dcaa5fbad56d"><polyline class="cls-1" points="0 0 140.87 0 314.5 0"/><polyline class="cls-1" points="314.5 314 126.12 314 0 314"/></g></g></g><g id="Senses"><g id="SMELL"><polygon points="26.3 163.34 85.74 222.78 12.5 296.03 12.61 296.14 12.72 296.14 60.16 296.14 136.97 219.32 78.28 160.63 196.41 42.39 171.87 17.86 26.3 163.34"/><polygon points="253.14 173.82 285.45 140.97 265.02 120.55 207.86 177.71 252.82 222.67 252.93 222.67 252.93 222.78 252.82 222.78 179.58 296.03 179.69 296.14 228.65 296.14 228.76 296.14 302 222.78 253.14 173.82"/><polygon points="161.46 168.23 240.03 89.56 225.65 75.19 129.35 171.47 180.66 222.78 107.3 296.14 141.68 296.14 215.56 222.23 161.46 168.23"/></g></g></g></svg>