<svg xmlns="http://www.w3.org/2000/svg" viewBox="0 0 314.5 314"><defs><style>.cls-1{fill:#5400e7;}</style></defs><g id="Layer_2" data-name="Layer 2"><g id="Layer_1-2" data-name="Layer 1"><g id="b5e31b63-280e-4f38-96cb-4ce3912872af"><g id="a7f2af64-ea2b-4d32-adbc-dcaa5fbad56d"><polyline class="cls-1" points="0 0 140.87 0 314.5 0"/><polyline class="cls-1" points="314.5 314 126.12 314 0 314"/></g></g></g><g id="Senses"><g id="SOUND"><polygon points="267.07 92.34 189.5 14.89 157.26 47.15 220.03 109.92 220.03 204.02 157.26 266.79 189.57 299.11 267.07 221.58 267.07 92.34"/><polygon points="176.94 121.99 129.65 74.76 105.11 99.29 137.31 131.51 137.31 182.45 105.11 214.65 129.68 239.21 176.94 191.95 176.94 121.99"/><polygon points="99.58 179.38 99.58 134.52 84.98 119.43 47.43 156.97 83.6 193.15 84.23 193.04 99.58 179.38"/></g></g></g></svg>